<?xml version="1.0" encoding="utf-8"?>
<svg width="112px" height="44px" viewbox="0 0 112 44" version="1.1" xmlns:xlink="http://www.w3.org/1999/xlink" xmlns="http://www.w3.org/2000/svg">
  <g id="EyesClosed-😌">
    <path d="M0.160167 6.44731C2.00668 2.64851 6.16442 0 10.9976 0C15.8137 0 19.9591 2.62984 21.8154 6.40712C22.3668 7.5292 21.5821 8.44748 20.7906 7.76702C18.3395 5.65978 14.8587 4.34379 10.9976 4.34379C7.25721 4.34379 3.87376 5.57875 1.43754 7.57164C0.546793 8.30029 -0.379899 7.55838 0.160167 6.44731Z" transform="matrix(1 0 0 -1 16 34)" id="Closed-Eye" fill="#000000" fill-opacity="0.6" fill-rule="evenodd" stroke="none" />
    <path d="M0.160167 6.44731C2.00668 2.64851 6.16442 0 10.9976 0C15.8137 0 19.9591 2.62984 21.8154 6.40712C22.3668 7.5292 21.5821 8.44748 20.7906 7.76702C18.3395 5.65978 14.8587 4.34379 10.9976 4.34379C7.25721 4.34379 3.87376 5.57875 1.43754 7.57164C0.546793 8.30029 -0.379899 7.55838 0.160167 6.44731Z" transform="matrix(1 0 0 -1 74 34)" id="Closed-Eye" fill="#000000" fill-opacity="0.6" fill-rule="evenodd" stroke="none" />
  </g>
</svg>