<?xml version="1.0" encoding="utf-8"?>
<svg width="112px" height="44px" viewbox="0 0 112 44" version="1.1" xmlns:xlink="http://www.w3.org/1999/xlink" xmlns="http://www.w3.org/2000/svg">
  <g id="EyesCry-😢">
    <path d="M6 12C9.31371 12 12 9.31371 12 6C12 2.68629 9.31371 0 6 0C2.68629 0 0 2.68629 0 6C0 9.31371 2.68629 12 6 12Z" transform="translate(24 16)" id="Eye" fill="#000000" fill-opacity="0.6" fill-rule="evenodd" stroke="none" />
    <path d="M6 0C6 0 0 7.27067 0 11.2707C0 14.5847 2.686 17.2707 6 17.2707C9.314 17.2707 12 14.5847 12 11.2707C12 7.27067 6 0 6 0Z" transform="translate(19 27)" id="Drop" fill="#92D9FF" fill-rule="evenodd" stroke="none" />
    <path d="M6 12C9.31371 12 12 9.31371 12 6C12 2.68629 9.31371 0 6 0C2.68629 0 0 2.68629 0 6C0 9.31371 2.68629 12 6 12Z" transform="translate(76 16)" id="Eye" fill="#000000" fill-opacity="0.6" fill-rule="evenodd" stroke="none" />
  </g>
</svg>