<?xml version="1.0" encoding="utf-8"?>
<svg width="112px" height="44px" viewbox="0 0 112 44" version="1.1" xmlns:xlink="http://www.w3.org/1999/xlink" xmlns="http://www.w3.org/2000/svg">
  <g id="EyesEye-Roll-🙄">
    <path d="M14 28C21.732 28 28 21.732 28 14C28 6.26801 21.732 0 14 0C6.26801 0 0 6.26801 0 14C0 21.732 6.26801 28 14 28Z" transform="translate(16 8)" id="Eyeball" fill="#FFFFFF" fill-rule="evenodd" stroke="none" />
    <path d="M14 28C21.732 28 28 21.732 28 14C28 6.26801 21.732 0 14 0C6.26801 0 0 6.26801 0 14C0 21.732 6.26801 28 14 28Z" transform="translate(68 8)" id="The-white-stuff" fill="#FFFFFF" fill-rule="evenodd" stroke="none" />
    <path d="M6 12C9.31371 12 12 9.31371 12 6C12 2.68629 9.31371 0 6 0C2.68629 0 0 2.68629 0 6C0 9.31371 2.68629 12 6 12Z" transform="translate(24 8)" id="Eye" fill="#000000" fill-opacity="0.69803923" fill-rule="evenodd" stroke="none" />
    <path d="M6 12C9.31371 12 12 9.31371 12 6C12 2.68629 9.31371 0 6 0C2.68629 0 0 2.68629 0 6C0 9.31371 2.68629 12 6 12Z" transform="translate(76 8)" id="Eye" fill="#000000" fill-opacity="0.69803923" fill-rule="evenodd" stroke="none" />
  </g>
</svg>