<?xml version="1.0" encoding="utf-8"?>
<svg width="112px" height="44px" viewbox="0 0 112 44" version="1.1" xmlns:xlink="http://www.w3.org/1999/xlink" xmlns="http://www.w3.org/2000/svg">
  <g id="EyesHearts-ðŸ˜">
    <path d="M21.9583 0C19.4074 0 16.8837 1.97979 15.5 3.82064C14.1106 1.97979 11.5926 0 9.04167 0C3.55232 0 0 3.3341 0 7.64127C0 13.3709 4.41186 16.7712 9.04167 20.3767C10.695 21.6134 13.8223 24.7777 14.2083 25.4709C14.5943 26.1641 16.3143 26.1885 16.7917 25.4709C17.269 24.7533 20.3022 21.6134 21.9583 20.3767C26.5853 16.7712 31 13.3709 31 7.64127C31 3.3341 27.4477 0 21.9583 0Z" transform="translate(14 10)" id="Heart" fill="#FF5353" fill-opacity="0.8" fill-rule="evenodd" stroke="none" />
    <path d="M21.9583 0C19.4074 0 16.8837 1.97979 15.5 3.82064C14.1106 1.97979 11.5926 0 9.04167 0C3.55232 0 0 3.3341 0 7.64127C0 13.3709 4.41186 16.7712 9.04167 20.3767C10.695 21.6134 13.8223 24.7777 14.2083 25.4709C14.5943 26.1641 16.3143 26.1885 16.7917 25.4709C17.269 24.7533 20.3022 21.6134 21.9583 20.3767C26.5853 16.7712 31 13.3709 31 7.64127C31 3.3341 27.4477 0 21.9583 0Z" transform="translate(67 10)" id="Heart" fill="#FF5353" fill-opacity="0.8" fill-rule="evenodd" stroke="none" />
  </g>
</svg>