<?xml version="1.0" encoding="utf-8"?>
<svg width="112px" height="44px" viewbox="0 0 112 44" version="1.1" xmlns:xlink="http://www.w3.org/1999/xlink" xmlns="http://www.w3.org/2000/svg">
  <g id="EyesSide-😒">
    <path d="M10.9976 0C6.16442 0 2.00668 2.64851 0.160167 6.44731C-0.379899 7.55838 0.546793 8.30029 1.43754 7.57164C3.87376 5.57875 7.25721 4.34379 10.9976 4.34379C11.0789 4.34379 11.16 4.34437 11.241 4.34553C10.4627 5.35749 10 6.62471 10 8C10 11.3137 12.6863 14 16 14C19.3137 14 22 11.3137 22 8C22 7.70979 21.9794 7.42439 21.9396 7.14518C21.9474 6.92278 21.9098 6.67095 21.8154 6.40712C21.7704 6.28145 21.7221 6.15725 21.6707 6.03457C21.337 5.07173 20.765 4.22021 20.0253 3.55058C17.8989 1.31733 14.5065 0 10.9976 0Z" transform="translate(16 16)" id="Eye" fill="#000000" fill-opacity="0.6" fill-rule="evenodd" stroke="none" />
    <path d="M10.9976 0C6.16442 0 2.00668 2.64851 0.160167 6.44731C-0.379899 7.55838 0.546793 8.30029 1.43754 7.57164C3.87376 5.57875 7.25721 4.34379 10.9976 4.34379C11.0789 4.34379 11.16 4.34437 11.241 4.34553C10.4627 5.35749 10 6.62471 10 8C10 11.3137 12.6863 14 16 14C19.3137 14 22 11.3137 22 8C22 7.70979 21.9794 7.42439 21.9396 7.14518C21.9474 6.92278 21.9098 6.67095 21.8154 6.40712C21.7704 6.28145 21.7221 6.15725 21.6707 6.03457C21.337 5.07173 20.765 4.22021 20.0253 3.55058C17.8989 1.31733 14.5065 0 10.9976 0Z" transform="translate(74 16)" id="Eye" fill="#000000" fill-opacity="0.6" fill-rule="evenodd" stroke="none" />
  </g>
</svg>