<?xml version="1.0" encoding="utf-8"?>
<svg width="112px" height="44px" viewbox="0 0 112 44" version="1.1" xmlns:xlink="http://www.w3.org/1999/xlink" xmlns="http://www.w3.org/2000/svg">
  <defs>
    <path d="M14 14.0481C23.61 14.0481 28 18.4994 28 11.5618C28 4.6241 21.732 0 14 0C6.26801 0 0 4.6241 0 11.5618C0 18.4994 4.39002 14.0481 14 14.0481Z" id="path_1" />
    <clipPath id="mask_1">
      <use xlink:href="#path_1" />
    </clipPath>
  </defs>
  <g id="EyesSquint-😊">
    <g id="Eye" transform="translate(16 13)">
      <path d="M14 14.0481C23.61 14.0481 28 18.4994 28 11.5618C28 4.6241 21.732 0 14 0C6.26801 0 0 4.6241 0 11.5618C0 18.4994 4.39002 14.0481 14 14.0481Z" id="The-white-stuff" fill="#FFFFFF" fill-rule="evenodd" stroke="none" />
      <g clip-path="url(#mask_1)">
        <path d="M6 12C9.31371 12 12 9.31371 12 6C12 2.68629 9.31371 0 6 0C2.68629 0 0 2.68629 0 6C0 9.31371 2.68629 12 6 12Z" transform="translate(8 4)" id="Eye" fill="#000000" fill-opacity="0.69803923" fill-rule="evenodd" stroke="none" />
      </g>
    </g>
    <g id="Eye" transform="translate(68 13)">
      <path d="M14 14.0481C23.61 14.0481 28 18.4994 28 11.5618C28 4.6241 21.732 0 14 0C6.26801 0 0 4.6241 0 11.5618C0 18.4994 4.39002 14.0481 14 14.0481Z" id="Eyeball-Mask" fill="#FFFFFF" fill-rule="evenodd" stroke="none" />
      <g clip-path="url(#mask_1)">
        <path d="M6 12C9.31371 12 12 9.31371 12 6C12 2.68629 9.31371 0 6 0C2.68629 0 0 2.68629 0 6C0 9.31371 2.68629 12 6 12Z" transform="translate(8 4)" id="Eye" fill="#000000" fill-opacity="0.69803923" fill-rule="evenodd" stroke="none" />
      </g>
    </g>
  </g>
</svg>