<?xml version="1.0" encoding="utf-8"?>
<svg width="112px" height="44px" viewbox="0 0 112 44" version="1.1" xmlns:xlink="http://www.w3.org/1999/xlink" xmlns="http://www.w3.org/2000/svg">
  <g id="EyesWink-Wacky-😜">
    <path d="M12 24C18.6274 24 24 18.6274 24 12C24 5.37258 18.6274 0 12 0C5.37258 0 0 5.37258 0 12C0 18.6274 5.37258 24 12 24Z" transform="translate(70 10)" id="Cornea-I-don't-know" fill="#FFFFFF" fill-rule="evenodd" stroke="none" />
    <path d="M6 12C9.31371 12 12 9.31371 12 6C12 2.68629 9.31371 0 6 0C2.68629 0 0 2.68629 0 6C0 9.31371 2.68629 12 6 12Z" transform="translate(76 16)" id="Eye" fill="#000000" fill-opacity="0.69803923" fill-rule="evenodd" stroke="none" />
    <path d="M0.160167 6.44731C2.00668 2.64851 6.16442 0 10.9976 0C15.8137 0 19.9591 2.62984 21.8154 6.40712C22.3668 7.5292 21.5821 8.44748 20.7906 7.76702C18.3395 5.65978 14.8587 4.34379 10.9976 4.34379C7.25721 4.34379 3.87376 5.57875 1.43754 7.57164C0.546793 8.30029 -0.379899 7.55838 0.160167 6.44731Z" transform="translate(16 19)" id="Winky-Doodle" fill="#000000" fill-opacity="0.6" fill-rule="evenodd" stroke="none" />
  </g>
</svg>