<?xml version="1.0" encoding="utf-8"?>
<svg width="266px" height="280px" viewbox="0 0 266 280" version="1.1" xmlns:xlink="http://www.w3.org/1999/xlink" xmlns="http://www.w3.org/2000/svg">
  <defs>
    <path d="M214.894 127.005C207.97 122.22 201.726 117.904 201.803 109C201.778 106.212 202.005 103.665 202.376 101.233C202.83 98.2551 203.498 95.4508 204.179 92.5908C206.734 81.8662 209.474 70.3592 201.803 46C190.166 9.53933 160.089 0.768172 117.003 0.0159929L117.003 0C116.836 0.00242681 116.669 0.00497053 116.503 0.00763226C116.336 0.00497053 116.17 0.00242681 116.003 0L116.003 0.0159929C72.9166 0.768172 42.8396 9.53933 31.2027 46C23.5308 70.3592 26.2717 81.8662 28.8263 92.5908C30.0639 97.7866 31.2578 102.799 31.2027 109C31.2351 112.753 30.1441 115.691 28.3526 118.193C25.8942 121.626 22.1165 124.237 18.1115 127.005C17.0729 127.723 16.0191 128.451 14.969 129.207C7.61839 134.499 0.452188 141.145 0.00267374 155C-0.167289 172.332 7.80046 180.139 14.01 186.223C18.0329 190.164 21.3179 193.383 21.1741 198C21.0872 201.259 17.7708 206.267 13.7939 212.273C3.0416 228.51 -12.5386 252.038 17.8312 268C17.8393 268.004 17.8473 268.008 17.8554 268.012C56.6007 287.736 110.751 272.822 116.503 271.148C122.256 272.822 176.427 287.742 215.174 268C215.802 267.67 216.411 267.336 217 267C244.901 251.068 229.741 228.174 219.211 212.273C215.234 206.267 211.918 201.259 211.831 198C211.687 193.383 214.972 190.164 218.995 186.223C225.205 180.139 233.173 172.332 233.003 155C232.971 154.01 232.904 153.058 232.806 152.139C231.332 138.366 222.683 132.389 214.894 127.005ZM217 267L217 226.499Q217 225.505 216.951 224.512Q216.902 223.519 216.805 222.529Q216.708 221.54 216.562 220.557Q216.416 219.573 216.222 218.598Q216.028 217.623 215.786 216.659Q215.545 215.694 215.256 214.743Q214.968 213.791 214.633 212.855Q214.298 211.919 213.917 211.001Q213.537 210.082 213.112 209.183Q212.687 208.285 212.218 207.408Q211.749 206.531 211.238 205.678Q210.727 204.826 210.175 203.999Q209.622 203.172 209.03 202.374Q208.438 201.575 207.807 200.807Q207.176 200.038 206.509 199.302Q205.841 198.565 205.138 197.862Q204.435 197.159 203.698 196.491Q202.962 195.824 202.193 195.193Q201.425 194.562 200.626 193.97Q199.828 193.378 199.001 192.825Q198.174 192.273 197.322 191.762Q196.469 191.251 195.592 190.782Q194.715 190.313 193.817 189.888Q192.918 189.463 191.999 189.083Q191.081 188.702 190.145 188.367Q189.209 188.032 188.257 187.744Q187.306 187.455 186.341 187.214Q185.377 186.972 184.402 186.778Q183.427 186.584 182.443 186.438Q181.46 186.292 180.471 186.195Q179.481 186.098 178.488 186.049Q177.495 186 176.501 186L141 186L141 167.597Q141.823 167.206 142.633 166.79Q143.443 166.373 144.238 165.93Q145.034 165.487 145.815 165.018Q146.596 164.549 147.362 164.055Q148.127 163.561 148.876 163.043Q149.625 162.525 150.357 161.982Q151.088 161.439 151.802 160.873Q152.515 160.307 153.21 159.718Q153.905 159.129 154.58 158.518Q155.256 157.907 155.911 157.274Q156.566 156.641 157.2 155.987Q157.834 155.333 158.447 154.659Q159.059 153.985 159.649 153.291Q160.24 152.598 160.807 151.885Q161.375 151.173 161.919 150.442Q162.462 149.711 162.982 148.964Q163.502 148.216 163.998 147.451Q164.493 146.687 164.963 145.907Q165.433 145.126 165.878 144.331Q166.322 143.536 166.741 142.727Q167.159 141.918 167.551 141.096Q167.943 140.274 168.308 139.439Q168.673 138.605 169.011 137.759Q169.348 136.913 169.658 136.056Q169.968 135.2 170.25 134.334Q170.532 133.468 170.786 132.593Q171.039 131.718 171.264 130.835Q171.489 129.953 171.685 129.063Q171.882 128.174 172.049 127.278Q172.216 126.383 172.354 125.483Q172.492 124.582 172.601 123.678Q172.709 122.774 172.788 121.866Q173.052 121.826 173.313 121.775Q173.575 121.724 173.834 121.661Q174.093 121.598 174.349 121.524Q174.605 121.449 174.857 121.364Q175.109 121.278 175.358 121.181Q175.606 121.084 175.85 120.977Q176.094 120.869 176.332 120.751Q176.571 120.632 176.804 120.503Q177.038 120.374 177.265 120.235Q177.492 120.096 177.713 119.947Q177.934 119.798 178.148 119.639Q178.362 119.48 178.569 119.312Q178.776 119.144 178.975 118.967Q179.174 118.79 179.365 118.604Q179.556 118.418 179.739 118.224Q179.922 118.03 180.096 117.828Q180.269 117.626 180.434 117.417Q180.599 117.207 180.754 116.991Q180.909 116.774 181.055 116.551Q181.2 116.327 181.336 116.098Q181.471 115.868 181.596 115.633Q181.721 115.398 181.836 115.157Q181.95 114.916 182.054 114.671Q182.158 114.425 182.25 114.175Q182.343 113.926 182.425 113.672Q182.506 113.418 182.576 113.161Q182.647 112.904 182.705 112.644Q182.764 112.384 182.811 112.122Q182.858 111.859 182.894 111.595Q182.929 111.331 182.953 111.065Q182.976 110.8 182.988 110.534Q183 110.268 183 110.001L183 96.999Q183 96.1575 182.883 95.3241C161.363 83.7366 142.89 67.1438 130.846 48.3023C112.764 73.9229 76.5322 78.5345 51.2265 94.6784Q51 95.8277 51 96.999L51 110.001Q51 110.268 51.0118 110.534Q51.0237 110.8 51.0473 111.065Q51.071 111.331 51.1064 111.595Q51.1418 111.859 51.1889 112.122Q51.236 112.384 51.2947 112.644Q51.3534 112.904 51.4236 113.161Q51.4937 113.418 51.5753 113.672Q51.6568 113.926 51.7495 114.175Q51.8422 114.425 51.946 114.671Q52.0497 114.916 52.1642 115.157Q52.2787 115.398 52.4038 115.633Q52.5289 115.868 52.6643 116.098Q52.7997 116.327 52.9452 116.551Q53.0907 116.774 53.2459 116.991Q53.4012 117.207 53.5659 117.417Q53.7306 117.626 53.9045 117.828Q54.0783 118.03 54.261 118.224Q54.4436 118.418 54.6347 118.604Q54.8258 118.79 55.0249 118.967Q55.2241 119.144 55.4309 119.312Q55.6377 119.48 55.8518 119.639Q56.0659 119.798 56.2868 119.947Q56.5077 120.096 56.735 120.235Q56.9623 120.374 57.1956 120.503Q57.4289 120.632 57.6676 120.751Q57.9064 120.869 58.1502 120.977Q58.3939 121.084 58.6423 121.181Q58.8906 121.278 59.143 121.364Q59.3954 121.449 59.6513 121.524Q59.9072 121.598 60.1662 121.661Q60.4252 121.724 60.6867 121.775Q60.9482 121.826 61.2117 121.866Q61.2909 122.774 61.3995 123.678Q61.5081 124.582 61.646 125.483Q61.784 126.383 61.9512 127.278Q62.1183 128.174 62.3145 129.063Q62.5107 129.953 62.7358 130.835Q62.9608 131.718 63.2144 132.593Q63.468 133.468 63.7499 134.334Q64.0319 135.2 64.3418 136.056Q64.6518 136.913 64.9894 137.759Q65.327 138.605 65.692 139.439Q66.057 140.274 66.4489 141.096Q66.8408 141.918 67.2593 142.727Q67.6777 143.536 68.1223 144.331Q68.5668 145.126 69.037 145.907Q69.5072 146.687 70.0025 147.451Q70.4978 148.216 71.0176 148.964Q71.5375 149.711 72.0815 150.442Q72.6254 151.173 73.1928 151.885Q73.7602 152.598 74.3505 153.291Q74.9408 153.985 75.5533 154.659Q76.1659 155.333 76.8 155.987Q77.4342 156.641 78.0892 157.274Q78.7443 157.907 79.4196 158.518Q80.0949 159.129 80.7897 159.718Q81.4845 160.307 82.1982 160.873Q82.9118 161.439 83.6434 161.982Q84.3751 162.525 85.124 163.043Q85.8729 163.561 86.6382 164.055Q87.4036 164.549 88.1846 165.018Q88.9656 165.487 89.7615 165.93Q90.5573 166.373 91.3672 166.79Q92.177 167.206 93 167.597L93 186L57.499 186Q56.5048 186 55.5118 186.049Q54.5188 186.098 53.5294 186.195Q52.54 186.292 51.5566 186.438Q50.5731 186.584 49.598 186.778Q48.6229 186.972 47.6585 187.214Q46.6941 187.455 45.7428 187.744Q44.7914 188.032 43.8553 188.367Q42.9192 188.702 42.0007 189.083Q41.0822 189.463 40.1834 189.888Q39.2847 190.313 38.4079 190.782Q37.5311 191.251 36.6783 191.762Q35.8256 192.273 34.999 192.825Q34.1723 193.378 33.3738 193.97Q32.5752 194.562 31.8067 195.193Q31.0382 195.824 30.3015 196.491Q29.5649 197.159 28.8619 197.862Q28.1589 198.565 27.4912 199.302Q26.8236 200.038 26.1929 200.807Q25.5621 201.575 24.9699 202.374Q24.3777 203.172 23.8253 203.999Q23.273 204.826 22.7618 205.678Q22.2507 206.531 21.7821 207.408Q21.3134 208.285 20.8883 209.183Q20.4633 210.082 20.0828 211.001Q19.7023 211.919 19.3674 212.855Q19.0325 213.791 18.7439 214.743Q18.4553 215.694 18.2137 216.659Q17.9721 217.623 17.7782 218.598Q17.5842 219.573 17.4383 220.557Q17.2925 221.54 17.195 222.529Q17.0976 223.519 17.0488 224.512Q17 225.505 17 226.499L17 267L116.003 267L116.003 271C116.003 271 116.173 271.052 116.503 271.148C116.832 271.052 117.003 271 117.003 271L117.003 267L217 267Z" id="path_1" />
    <path d="M214.894 127.005C207.97 122.22 201.726 117.904 201.803 109C201.778 106.212 202.005 103.665 202.376 101.233C202.83 98.2551 203.498 95.4508 204.179 92.5908C206.734 81.8662 209.474 70.3592 201.803 46C190.166 9.53933 160.089 0.768172 117.003 0.0159929L117.003 0C116.836 0.00242681 116.669 0.00497053 116.503 0.00763226C116.336 0.00497053 116.17 0.00242681 116.003 0L116.003 0.0159929C72.9166 0.768172 42.8396 9.53933 31.2027 46C23.5308 70.3592 26.2717 81.8662 28.8263 92.5908C30.0639 97.7866 31.2578 102.799 31.2027 109C31.2351 112.753 30.1441 115.691 28.3526 118.193C25.8942 121.626 22.1165 124.237 18.1115 127.005C17.0729 127.723 16.0191 128.451 14.969 129.207C7.61839 134.499 0.452188 141.145 0.00267374 155C-0.167289 172.332 7.80046 180.139 14.01 186.223C18.0329 190.164 21.3179 193.383 21.1741 198C21.0872 201.259 17.7708 206.267 13.7939 212.273C3.0416 228.51 -12.5386 252.038 17.8312 268C17.8393 268.004 17.8473 268.008 17.8554 268.012C56.6007 287.736 110.751 272.822 116.503 271.148C122.256 272.822 176.427 287.742 215.174 268C215.802 267.67 216.411 267.336 217 267C244.901 251.068 229.741 228.174 219.211 212.273C215.234 206.267 211.918 201.259 211.831 198C211.687 193.383 214.972 190.164 218.995 186.223C225.205 180.139 233.173 172.332 233.003 155C232.971 154.01 232.904 153.058 232.806 152.139C231.332 138.366 222.683 132.389 214.894 127.005ZM217 267L217 226.499Q217 225.505 216.951 224.512Q216.902 223.519 216.805 222.529Q216.708 221.54 216.562 220.557Q216.416 219.573 216.222 218.598Q216.028 217.623 215.786 216.659Q215.545 215.694 215.256 214.743Q214.968 213.791 214.633 212.855Q214.298 211.919 213.917 211.001Q213.537 210.082 213.112 209.183Q212.687 208.285 212.218 207.408Q211.749 206.531 211.238 205.678Q210.727 204.826 210.175 203.999Q209.622 203.172 209.03 202.374Q208.438 201.575 207.807 200.807Q207.176 200.038 206.509 199.302Q205.841 198.565 205.138 197.862Q204.435 197.159 203.698 196.491Q202.962 195.824 202.193 195.193Q201.425 194.562 200.626 193.97Q199.828 193.378 199.001 192.825Q198.174 192.273 197.322 191.762Q196.469 191.251 195.592 190.782Q194.715 190.313 193.817 189.888Q192.918 189.463 191.999 189.083Q191.081 188.702 190.145 188.367Q189.209 188.032 188.257 187.744Q187.306 187.455 186.341 187.214Q185.377 186.972 184.402 186.778Q183.427 186.584 182.443 186.438Q181.46 186.292 180.471 186.195Q179.481 186.098 178.488 186.049Q177.495 186 176.501 186L141 186L141 140L117.003 140L117.003 62.2025C116.671 62.4471 116.338 62.689 116.003 62.9285L116.003 140L93 140L93 186L57.499 186Q56.5048 186 55.5118 186.049Q54.5188 186.098 53.5294 186.195Q52.54 186.292 51.5566 186.438Q50.5731 186.584 49.598 186.778Q48.6229 186.972 47.6585 187.214Q46.6941 187.455 45.7428 187.744Q44.7914 188.032 43.8553 188.367Q42.9192 188.702 42.0007 189.083Q41.0822 189.463 40.1834 189.888Q39.2847 190.313 38.4079 190.782Q37.5311 191.251 36.6783 191.762Q35.8256 192.273 34.999 192.825Q34.1723 193.378 33.3738 193.97Q32.5752 194.562 31.8067 195.193Q31.0382 195.824 30.3015 196.491Q29.5649 197.159 28.8619 197.862Q28.1589 198.565 27.4912 199.302Q26.8236 200.038 26.1929 200.807Q25.5621 201.575 24.9699 202.374Q24.3777 203.172 23.8253 203.999Q23.273 204.826 22.7618 205.678Q22.2507 206.531 21.7821 207.408Q21.3134 208.285 20.8883 209.183Q20.4633 210.082 20.0828 211.001Q19.7023 211.919 19.3674 212.855Q19.0325 213.791 18.7439 214.743Q18.4553 215.694 18.2137 216.659Q17.9721 217.623 17.7782 218.598Q17.5842 219.573 17.4383 220.557Q17.2925 221.54 17.195 222.529Q17.0976 223.519 17.0488 224.512Q17 225.505 17 226.499L17 267L116.003 267L116.003 271C116.003 271 116.173 271.052 116.503 271.148C116.832 271.052 117.003 271 117.003 271L117.003 267L217 267Z" id="path_2" />
    <clipPath id="mask_1">
      <use xlink:href="#path_1" />
    </clipPath>
    <clipPath id="mask_2">
      <use xlink:href="#path_2" />
    </clipPath>
  </defs>
  <g id="TopLong-HairBig-Hair">
    <g id="Hair" transform="translate(16 13)">
      <path d="M214.894 127.005C207.97 122.22 201.726 117.904 201.803 109C201.778 106.212 202.005 103.665 202.376 101.233C202.83 98.2551 203.498 95.4508 204.179 92.5908C206.734 81.8662 209.474 70.3592 201.803 46C190.166 9.53933 160.089 0.768172 117.003 0.0159929L117.003 0C116.836 0.00242681 116.669 0.00497053 116.503 0.00763226C116.336 0.00497053 116.17 0.00242681 116.003 0L116.003 0.0159929C72.9166 0.768172 42.8396 9.53933 31.2027 46C23.5308 70.3592 26.2717 81.8662 28.8263 92.5908C30.0639 97.7866 31.2578 102.799 31.2027 109C31.2351 112.753 30.1441 115.691 28.3526 118.193C25.8942 121.626 22.1165 124.237 18.1115 127.005C17.0729 127.723 16.0191 128.451 14.969 129.207C7.61839 134.499 0.452188 141.145 0.00267374 155C-0.167289 172.332 7.80046 180.139 14.01 186.223C18.0329 190.164 21.3179 193.383 21.1741 198C21.0872 201.259 17.7708 206.267 13.7939 212.273C3.0416 228.51 -12.5386 252.038 17.8312 268C17.8393 268.004 17.8473 268.008 17.8554 268.012C56.6007 287.736 110.751 272.822 116.503 271.148C122.256 272.822 176.427 287.742 215.174 268C215.802 267.67 216.411 267.336 217 267C244.901 251.068 229.741 228.174 219.211 212.273C215.234 206.267 211.918 201.259 211.831 198C211.687 193.383 214.972 190.164 218.995 186.223C225.205 180.139 233.173 172.332 233.003 155C232.971 154.01 232.904 153.058 232.806 152.139C231.332 138.366 222.683 132.389 214.894 127.005ZM217 267L217 226.499Q217 225.505 216.951 224.512Q216.902 223.519 216.805 222.529Q216.708 221.54 216.562 220.557Q216.416 219.573 216.222 218.598Q216.028 217.623 215.786 216.659Q215.545 215.694 215.256 214.743Q214.968 213.791 214.633 212.855Q214.298 211.919 213.917 211.001Q213.537 210.082 213.112 209.183Q212.687 208.285 212.218 207.408Q211.749 206.531 211.238 205.678Q210.727 204.826 210.175 203.999Q209.622 203.172 209.03 202.374Q208.438 201.575 207.807 200.807Q207.176 200.038 206.509 199.302Q205.841 198.565 205.138 197.862Q204.435 197.159 203.698 196.491Q202.962 195.824 202.193 195.193Q201.425 194.562 200.626 193.97Q199.828 193.378 199.001 192.825Q198.174 192.273 197.322 191.762Q196.469 191.251 195.592 190.782Q194.715 190.313 193.817 189.888Q192.918 189.463 191.999 189.083Q191.081 188.702 190.145 188.367Q189.209 188.032 188.257 187.744Q187.306 187.455 186.341 187.214Q185.377 186.972 184.402 186.778Q183.427 186.584 182.443 186.438Q181.46 186.292 180.471 186.195Q179.481 186.098 178.488 186.049Q177.495 186 176.501 186L141 186L141 167.597Q141.823 167.206 142.633 166.79Q143.443 166.373 144.238 165.93Q145.034 165.487 145.815 165.018Q146.596 164.549 147.362 164.055Q148.127 163.561 148.876 163.043Q149.625 162.525 150.357 161.982Q151.088 161.439 151.802 160.873Q152.515 160.307 153.21 159.718Q153.905 159.129 154.58 158.518Q155.256 157.907 155.911 157.274Q156.566 156.641 157.2 155.987Q157.834 155.333 158.447 154.659Q159.059 153.985 159.649 153.291Q160.24 152.598 160.807 151.885Q161.375 151.173 161.919 150.442Q162.462 149.711 162.982 148.964Q163.502 148.216 163.998 147.451Q164.493 146.687 164.963 145.907Q165.433 145.126 165.878 144.331Q166.322 143.536 166.741 142.727Q167.159 141.918 167.551 141.096Q167.943 140.274 168.308 139.439Q168.673 138.605 169.011 137.759Q169.348 136.913 169.658 136.056Q169.968 135.2 170.25 134.334Q170.532 133.468 170.786 132.593Q171.039 131.718 171.264 130.835Q171.489 129.953 171.685 129.063Q171.882 128.174 172.049 127.278Q172.216 126.383 172.354 125.483Q172.492 124.582 172.601 123.678Q172.709 122.774 172.788 121.866Q173.052 121.826 173.313 121.775Q173.575 121.724 173.834 121.661Q174.093 121.598 174.349 121.524Q174.605 121.449 174.857 121.364Q175.109 121.278 175.358 121.181Q175.606 121.084 175.85 120.977Q176.094 120.869 176.332 120.751Q176.571 120.632 176.804 120.503Q177.038 120.374 177.265 120.235Q177.492 120.096 177.713 119.947Q177.934 119.798 178.148 119.639Q178.362 119.48 178.569 119.312Q178.776 119.144 178.975 118.967Q179.174 118.79 179.365 118.604Q179.556 118.418 179.739 118.224Q179.922 118.03 180.096 117.828Q180.269 117.626 180.434 117.417Q180.599 117.207 180.754 116.991Q180.909 116.774 181.055 116.551Q181.2 116.327 181.336 116.098Q181.471 115.868 181.596 115.633Q181.721 115.398 181.836 115.157Q181.95 114.916 182.054 114.671Q182.158 114.425 182.25 114.175Q182.343 113.926 182.425 113.672Q182.506 113.418 182.576 113.161Q182.647 112.904 182.705 112.644Q182.764 112.384 182.811 112.122Q182.858 111.859 182.894 111.595Q182.929 111.331 182.953 111.065Q182.976 110.8 182.988 110.534Q183 110.268 183 110.001L183 96.999Q183 96.1575 182.883 95.3241C161.363 83.7366 142.89 67.1438 130.846 48.3023C112.764 73.9229 76.5322 78.5345 51.2265 94.6784Q51 95.8277 51 96.999L51 110.001Q51 110.268 51.0118 110.534Q51.0237 110.8 51.0473 111.065Q51.071 111.331 51.1064 111.595Q51.1418 111.859 51.1889 112.122Q51.236 112.384 51.2947 112.644Q51.3534 112.904 51.4236 113.161Q51.4937 113.418 51.5753 113.672Q51.6568 113.926 51.7495 114.175Q51.8422 114.425 51.946 114.671Q52.0497 114.916 52.1642 115.157Q52.2787 115.398 52.4038 115.633Q52.5289 115.868 52.6643 116.098Q52.7997 116.327 52.9452 116.551Q53.0907 116.774 53.2459 116.991Q53.4012 117.207 53.5659 117.417Q53.7306 117.626 53.9045 117.828Q54.0783 118.03 54.261 118.224Q54.4436 118.418 54.6347 118.604Q54.8258 118.79 55.0249 118.967Q55.2241 119.144 55.4309 119.312Q55.6377 119.48 55.8518 119.639Q56.0659 119.798 56.2868 119.947Q56.5077 120.096 56.735 120.235Q56.9623 120.374 57.1956 120.503Q57.4289 120.632 57.6676 120.751Q57.9064 120.869 58.1502 120.977Q58.3939 121.084 58.6423 121.181Q58.8906 121.278 59.143 121.364Q59.3954 121.449 59.6513 121.524Q59.9072 121.598 60.1662 121.661Q60.4252 121.724 60.6867 121.775Q60.9482 121.826 61.2117 121.866Q61.2909 122.774 61.3995 123.678Q61.5081 124.582 61.646 125.483Q61.784 126.383 61.9512 127.278Q62.1183 128.174 62.3145 129.063Q62.5107 129.953 62.7358 130.835Q62.9608 131.718 63.2144 132.593Q63.468 133.468 63.7499 134.334Q64.0319 135.2 64.3418 136.056Q64.6518 136.913 64.9894 137.759Q65.327 138.605 65.692 139.439Q66.057 140.274 66.4489 141.096Q66.8408 141.918 67.2593 142.727Q67.6777 143.536 68.1223 144.331Q68.5668 145.126 69.037 145.907Q69.5072 146.687 70.0025 147.451Q70.4978 148.216 71.0176 148.964Q71.5375 149.711 72.0815 150.442Q72.6254 151.173 73.1928 151.885Q73.7602 152.598 74.3505 153.291Q74.9408 153.985 75.5533 154.659Q76.1659 155.333 76.8 155.987Q77.4342 156.641 78.0892 157.274Q78.7443 157.907 79.4196 158.518Q80.0949 159.129 80.7897 159.718Q81.4845 160.307 82.1982 160.873Q82.9118 161.439 83.6434 161.982Q84.3751 162.525 85.124 163.043Q85.8729 163.561 86.6382 164.055Q87.4036 164.549 88.1846 165.018Q88.9656 165.487 89.7615 165.93Q90.5573 166.373 91.3672 166.79Q92.177 167.206 93 167.597L93 186L57.499 186Q56.5048 186 55.5118 186.049Q54.5188 186.098 53.5294 186.195Q52.54 186.292 51.5566 186.438Q50.5731 186.584 49.598 186.778Q48.6229 186.972 47.6585 187.214Q46.6941 187.455 45.7428 187.744Q44.7914 188.032 43.8553 188.367Q42.9192 188.702 42.0007 189.083Q41.0822 189.463 40.1834 189.888Q39.2847 190.313 38.4079 190.782Q37.5311 191.251 36.6783 191.762Q35.8256 192.273 34.999 192.825Q34.1723 193.378 33.3738 193.97Q32.5752 194.562 31.8067 195.193Q31.0382 195.824 30.3015 196.491Q29.5649 197.159 28.8619 197.862Q28.1589 198.565 27.4912 199.302Q26.8236 200.038 26.1929 200.807Q25.5621 201.575 24.9699 202.374Q24.3777 203.172 23.8253 203.999Q23.273 204.826 22.7618 205.678Q22.2507 206.531 21.7821 207.408Q21.3134 208.285 20.8883 209.183Q20.4633 210.082 20.0828 211.001Q19.7023 211.919 19.3674 212.855Q19.0325 213.791 18.7439 214.743Q18.4553 215.694 18.2137 216.659Q17.9721 217.623 17.7782 218.598Q17.5842 219.573 17.4383 220.557Q17.2925 221.54 17.195 222.529Q17.0976 223.519 17.0488 224.512Q17 225.505 17 226.499L17 267L116.003 267L116.003 271C116.003 271 116.173 271.052 116.503 271.148C116.832 271.052 117.003 271 117.003 271L117.003 267L217 267Z" id="Hair" fill="#314756" fill-rule="evenodd" stroke="none" />
      <g clip-path="url(#mask_1)">
        <g id="Hair-Color" transform="translate(-15 -13)">
          <path d="M0 0L264 0L264 280L0 280L0 0Z" id="Color" fill="#4A312C" fill-rule="evenodd" stroke="none" />
        </g>
      </g>
    </g>
    <g id="Shadow" transform="translate(16 13)">
      <path d="M214.894 127.005C207.97 122.22 201.726 117.904 201.803 109C201.778 106.212 202.005 103.665 202.376 101.233C202.83 98.2551 203.498 95.4508 204.179 92.5908C206.734 81.8662 209.474 70.3592 201.803 46C190.166 9.53933 160.089 0.768172 117.003 0.0159929L117.003 0C116.836 0.00242681 116.669 0.00497053 116.503 0.00763226C116.336 0.00497053 116.17 0.00242681 116.003 0L116.003 0.0159929C72.9166 0.768172 42.8396 9.53933 31.2027 46C23.5308 70.3592 26.2717 81.8662 28.8263 92.5908C30.0639 97.7866 31.2578 102.799 31.2027 109C31.2351 112.753 30.1441 115.691 28.3526 118.193C25.8942 121.626 22.1165 124.237 18.1115 127.005C17.0729 127.723 16.0191 128.451 14.969 129.207C7.61839 134.499 0.452188 141.145 0.00267374 155C-0.167289 172.332 7.80046 180.139 14.01 186.223C18.0329 190.164 21.3179 193.383 21.1741 198C21.0872 201.259 17.7708 206.267 13.7939 212.273C3.0416 228.51 -12.5386 252.038 17.8312 268C17.8393 268.004 17.8473 268.008 17.8554 268.012C56.6007 287.736 110.751 272.822 116.503 271.148C122.256 272.822 176.427 287.742 215.174 268C215.802 267.67 216.411 267.336 217 267C244.901 251.068 229.741 228.174 219.211 212.273C215.234 206.267 211.918 201.259 211.831 198C211.687 193.383 214.972 190.164 218.995 186.223C225.205 180.139 233.173 172.332 233.003 155C232.971 154.01 232.904 153.058 232.806 152.139C231.332 138.366 222.683 132.389 214.894 127.005ZM217 267L217 226.499Q217 225.505 216.951 224.512Q216.902 223.519 216.805 222.529Q216.708 221.54 216.562 220.557Q216.416 219.573 216.222 218.598Q216.028 217.623 215.786 216.659Q215.545 215.694 215.256 214.743Q214.968 213.791 214.633 212.855Q214.298 211.919 213.917 211.001Q213.537 210.082 213.112 209.183Q212.687 208.285 212.218 207.408Q211.749 206.531 211.238 205.678Q210.727 204.826 210.175 203.999Q209.622 203.172 209.03 202.374Q208.438 201.575 207.807 200.807Q207.176 200.038 206.509 199.302Q205.841 198.565 205.138 197.862Q204.435 197.159 203.698 196.491Q202.962 195.824 202.193 195.193Q201.425 194.562 200.626 193.97Q199.828 193.378 199.001 192.825Q198.174 192.273 197.322 191.762Q196.469 191.251 195.592 190.782Q194.715 190.313 193.817 189.888Q192.918 189.463 191.999 189.083Q191.081 188.702 190.145 188.367Q189.209 188.032 188.257 187.744Q187.306 187.455 186.341 187.214Q185.377 186.972 184.402 186.778Q183.427 186.584 182.443 186.438Q181.46 186.292 180.471 186.195Q179.481 186.098 178.488 186.049Q177.495 186 176.501 186L141 186L141 140L117.003 140L117.003 62.2025C116.671 62.4471 116.338 62.689 116.003 62.9285L116.003 140L93 140L93 186L57.499 186Q56.5048 186 55.5118 186.049Q54.5188 186.098 53.5294 186.195Q52.54 186.292 51.5566 186.438Q50.5731 186.584 49.598 186.778Q48.6229 186.972 47.6585 187.214Q46.6941 187.455 45.7428 187.744Q44.7914 188.032 43.8553 188.367Q42.9192 188.702 42.0007 189.083Q41.0822 189.463 40.1834 189.888Q39.2847 190.313 38.4079 190.782Q37.5311 191.251 36.6783 191.762Q35.8256 192.273 34.999 192.825Q34.1723 193.378 33.3738 193.97Q32.5752 194.562 31.8067 195.193Q31.0382 195.824 30.3015 196.491Q29.5649 197.159 28.8619 197.862Q28.1589 198.565 27.4912 199.302Q26.8236 200.038 26.1929 200.807Q25.5621 201.575 24.9699 202.374Q24.3777 203.172 23.8253 203.999Q23.273 204.826 22.7618 205.678Q22.2507 206.531 21.7821 207.408Q21.3134 208.285 20.8883 209.183Q20.4633 210.082 20.0828 211.001Q19.7023 211.919 19.3674 212.855Q19.0325 213.791 18.7439 214.743Q18.4553 215.694 18.2137 216.659Q17.9721 217.623 17.7782 218.598Q17.5842 219.573 17.4383 220.557Q17.2925 221.54 17.195 222.529Q17.0976 223.519 17.0488 224.512Q17 225.505 17 226.499L17 267L116.003 267L116.003 271C116.003 271 116.173 271.052 116.503 271.148C116.832 271.052 117.003 271 117.003 271L117.003 267L217 267Z" id="Shape" fill="none" fill-rule="evenodd" stroke="none" />
      <g clip-path="url(#mask_2)">
        <path d="M108.756 0.297474C86.1577 32.3193 35.2049 31.5225 12.6693 61.4414C12.3389 61.8801 11.9715 62.3869 11.5845 62.9312C36.2652 37.3684 86.6218 37.0309 109.406 7.60704C125.501 30.5548 153.118 50.1406 183.791 60.5981C184.106 59.7849 183.875 58.8363 184.175 58.0316C184.649 55.195 185.347 52.5234 186.059 49.7988C188.729 39.5819 191.594 28.6197 183.575 5.41368C182.906 3.50415 181.809 1.6996 180.33 1.87714e-05C187.233 22.9944 184.573 34.1599 182.09 44.5859C181.409 47.4459 180.741 50.2502 180.287 53.2278C180 54.0725 180.221 55.0682 179.92 55.9219C150.575 44.9446 124.154 24.3855 108.756 0.297474ZM8.00968 67.052C8.73315 65.2801 9.13329 63.29 9.11349 60.9951C9.16864 54.794 7.97475 49.7817 6.73711 44.5859C4.25367 34.1599 1.5941 22.9944 8.49671 4.09337e-06C7.01783 1.69958 5.92047 3.50414 5.25177 5.41368C-2.76741 28.6197 0.0975955 39.5819 2.76781 49.7988C4.06148 54.7487 5.30942 59.5236 5.25177 65.4312C5.28562 69.0068 4.14532 71.8057 2.27266 74.1889C2.39033 74.4237 3.99722 72.3071 5.76545 69.978C6.51845 68.9861 7.30071 67.9557 8.00968 67.052Z" transform="translate(22.089182 48.004883)" id="Shadow-Mask" fill="#000000" fill-opacity="0.16078432" fill-rule="evenodd" stroke="none" />
      </g>
    </g>
    <path d="M8.58014 109.446C31.1157 79.5274 82.0685 80.3241 104.667 48.3024C120.065 72.3904 146.486 92.9495 175.831 103.927C176.132 103.073 175.911 102.077 176.198 101.233C178.353 87.0894 185.342 76.8552 175.624 46C163.987 9.53933 133.91 0.768172 90.8243 0.0159929C90.1578 0.00497053 89.9911 0.00242681 89.8243 0C46.7382 0.768172 16.6612 9.53933 5.0243 46C-6.36442 82.1607 5.19332 89.9993 5.0243 109C5.05669 112.753 3.96578 115.691 2.17423 118.193C2.35775 118.595 6.32781 112.437 8.58014 109.446Z" transform="translate(42.178364 13)" id="Light" fill="#FFFFFF" fill-opacity="0.101960786" fill-rule="evenodd" stroke="none" />
    <g id="Facial-Hair" transform="translate(49 72)" />
    <g id="Accessory" transform="translate(62 85)" />
  </g>
</svg>