<?xml version="1.0" encoding="utf-8"?>
<svg width="266px" height="280px" viewbox="0 0 266 280" version="1.1" xmlns:xlink="http://www.w3.org/1999/xlink" xmlns="http://www.w3.org/2000/svg">
  <defs>
    <path d="M0.00972002 125.018C-0.607401 94.1822 28.3287 29.8131 39.0097 17.0181C46.9328 7.52693 68.705 -0.431211 93.0099 0.018146C117.315 0.467503 139.872 5.83031 148.01 16.0181C160.334 31.4458 185.878 90.0968 186.01 125.018C186.103 149.818 176.472 174.678 163.01 176.018C155.409 176.775 145.753 175.793 134.151 174.612C128.842 174.072 123.124 173.491 117.01 173.015L117.01 160.615Q117.901 160.192 118.778 159.738Q119.654 159.284 120.514 158.799Q121.374 158.314 122.216 157.799Q123.058 157.285 123.881 156.741Q124.705 156.196 125.509 155.624Q126.312 155.051 127.096 154.45Q127.879 153.849 128.64 153.221Q129.402 152.593 130.14 151.939Q130.879 151.285 131.595 150.605Q132.31 149.925 133.001 149.22Q133.692 148.515 134.357 147.786Q135.023 147.057 135.663 146.306Q136.302 145.554 136.915 144.78Q137.527 144.006 138.112 143.211Q138.697 142.416 139.254 141.601Q139.811 140.786 140.338 139.952Q140.866 139.118 141.364 138.266Q141.862 137.414 142.329 136.544Q142.797 135.675 143.233 134.79Q143.67 133.905 144.075 133.005Q144.48 132.105 144.853 131.191Q145.226 130.277 145.567 129.351Q145.908 128.425 146.216 127.487Q146.524 126.549 146.798 125.601Q147.073 124.653 147.314 123.696Q147.555 122.739 147.762 121.774Q147.969 120.809 148.142 119.837Q148.315 118.865 148.454 117.888Q148.593 116.911 148.697 115.929Q148.801 114.948 148.871 113.963Q148.94 112.979 148.975 111.993Q149.01 111.006 149.01 110.019L149.01 81.5818C138.501 75.7922 129.555 68.8025 122.101 61.7005C125.457 67.9413 129.295 73.6081 133.623 77.8912C103.04 69.3105 81.899 51.7389 69.2293 37.9618C63.4049 49.041 52.9728 65.2435 37.0097 77.5858L37.0097 110.019Q37.0097 111.006 37.0445 111.993Q37.0793 112.979 37.1488 113.963Q37.2183 114.948 37.3225 115.929Q37.4267 116.911 37.5653 117.888Q37.704 118.865 37.8771 119.837Q38.0501 120.809 38.2573 121.774Q38.4645 122.739 38.7055 123.696Q38.9466 124.653 39.2212 125.601Q39.4959 126.549 39.8037 127.487Q40.1116 128.425 40.4523 129.351Q40.7931 130.277 41.1662 131.191Q41.5394 132.105 41.9445 133.005Q42.3496 133.905 42.7862 134.79Q43.2228 135.675 43.6903 136.544Q44.1578 137.413 44.6557 138.266Q45.1535 139.118 45.6811 139.952Q46.2087 140.786 46.7653 141.601Q47.322 142.416 47.907 143.211Q48.492 144.006 49.1047 144.78Q49.7173 145.554 50.3569 146.306Q50.9964 147.057 51.6621 147.786Q52.3277 148.515 53.0187 149.22Q53.7096 149.925 54.4249 150.605Q55.1402 151.285 55.8791 151.939Q56.6179 152.593 57.3794 153.221Q58.1408 153.849 58.9239 154.45Q59.707 155.051 60.5108 155.624Q61.3146 156.196 62.1381 156.741Q62.9616 157.285 63.8037 157.799Q64.6458 158.314 65.5056 158.799Q66.3653 159.284 67.2417 159.738Q68.118 160.192 69.0097 160.615L69.0097 173.764C62.0566 174.716 55.5944 175.924 49.6475 177.035C45.7 177.773 41.9794 178.468 38.4931 179.018L33.5087 179.018Q31.1121 179.018 28.7322 179.301Q26.3523 179.583 24.0223 180.145C23.4697 180.115 22.927 180.074 22.3943 180.018C8.17137 178.549 0.505956 149.814 0.00972002 125.018Z" transform="translate(0.99028 0.98185396)" id="path_1" />
    <clipPath id="mask_1">
      <use xlink:href="#path_1" />
    </clipPath>
  </defs>
  <g id="TopLong-HairBob">
    <g id="Hair" transform="translate(39 19)">
      <path d="M0.00972002 125.018C-0.607401 94.1822 28.3287 29.8131 39.0097 17.0181C46.9328 7.52693 68.705 -0.431211 93.0099 0.018146C117.315 0.467503 139.872 5.83031 148.01 16.0181C160.334 31.4458 185.878 90.0968 186.01 125.018C186.103 149.818 176.472 174.678 163.01 176.018C155.409 176.775 145.753 175.793 134.151 174.612C128.842 174.072 123.124 173.491 117.01 173.015L117.01 160.615Q117.901 160.192 118.778 159.738Q119.654 159.284 120.514 158.799Q121.374 158.314 122.216 157.799Q123.058 157.285 123.881 156.741Q124.705 156.196 125.509 155.624Q126.312 155.051 127.096 154.45Q127.879 153.849 128.64 153.221Q129.402 152.593 130.14 151.939Q130.879 151.285 131.595 150.605Q132.31 149.925 133.001 149.22Q133.692 148.515 134.357 147.786Q135.023 147.057 135.663 146.306Q136.302 145.554 136.915 144.78Q137.527 144.006 138.112 143.211Q138.697 142.416 139.254 141.601Q139.811 140.786 140.338 139.952Q140.866 139.118 141.364 138.266Q141.862 137.414 142.329 136.544Q142.797 135.675 143.233 134.79Q143.67 133.905 144.075 133.005Q144.48 132.105 144.853 131.191Q145.226 130.277 145.567 129.351Q145.908 128.425 146.216 127.487Q146.524 126.549 146.798 125.601Q147.073 124.653 147.314 123.696Q147.555 122.739 147.762 121.774Q147.969 120.809 148.142 119.837Q148.315 118.865 148.454 117.888Q148.593 116.911 148.697 115.929Q148.801 114.948 148.871 113.963Q148.94 112.979 148.975 111.993Q149.01 111.006 149.01 110.019L149.01 81.5818C138.501 75.7922 129.555 68.8025 122.101 61.7005C125.457 67.9413 129.295 73.6081 133.623 77.8912C103.04 69.3105 81.899 51.7389 69.2293 37.9618C63.4049 49.041 52.9728 65.2435 37.0097 77.5858L37.0097 110.019Q37.0097 111.006 37.0445 111.993Q37.0793 112.979 37.1488 113.963Q37.2183 114.948 37.3225 115.929Q37.4267 116.911 37.5653 117.888Q37.704 118.865 37.8771 119.837Q38.0501 120.809 38.2573 121.774Q38.4645 122.739 38.7055 123.696Q38.9466 124.653 39.2212 125.601Q39.4959 126.549 39.8037 127.487Q40.1116 128.425 40.4523 129.351Q40.7931 130.277 41.1662 131.191Q41.5394 132.105 41.9445 133.005Q42.3496 133.905 42.7862 134.79Q43.2228 135.675 43.6903 136.544Q44.1578 137.413 44.6557 138.266Q45.1535 139.118 45.6811 139.952Q46.2087 140.786 46.7653 141.601Q47.322 142.416 47.907 143.211Q48.492 144.006 49.1047 144.78Q49.7173 145.554 50.3569 146.306Q50.9964 147.057 51.6621 147.786Q52.3277 148.515 53.0187 149.22Q53.7096 149.925 54.4249 150.605Q55.1402 151.285 55.8791 151.939Q56.6179 152.593 57.3794 153.221Q58.1408 153.849 58.9239 154.45Q59.707 155.051 60.5108 155.624Q61.3146 156.196 62.1381 156.741Q62.9616 157.285 63.8037 157.799Q64.6458 158.314 65.5056 158.799Q66.3653 159.284 67.2417 159.738Q68.118 160.192 69.0097 160.615L69.0097 173.764C62.0566 174.716 55.5944 175.924 49.6475 177.035C45.7 177.773 41.9794 178.468 38.4931 179.018L33.5087 179.018Q31.1121 179.018 28.7322 179.301Q26.3523 179.583 24.0223 180.145C23.4697 180.115 22.927 180.074 22.3943 180.018C8.17137 178.549 0.505956 149.814 0.00972002 125.018Z" transform="translate(0.99028 0.98185396)" id="Combined-Shape" fill="#E6E6E6" fill-rule="evenodd" stroke="none" />
      <g clip-path="url(#mask_1)">
        <g id="Hair-Color" transform="translate(-39 -19)">
          <path d="M0 0L266 0L266 280L0 280L0 0Z" id="Color" fill="#2C1B18" fill-rule="evenodd" stroke="none" />
        </g>
      </g>
    </g>
    <g id="Facial-Hair" transform="translate(49 72)" />
    <g id="Accessory" transform="translate(62 85)" />
  </g>
</svg>