<?xml version="1.0" encoding="utf-8"?>
<svg width="266px" height="280px" viewbox="0 0 266 280" version="1.1" xmlns:xlink="http://www.w3.org/1999/xlink" xmlns="http://www.w3.org/2000/svg">
  <defs>
    <path d="M77.1166 28.2828C80.1761 25.3111 82 21.5676 82 17.5C82 7.83502 71.7025 0 59 0C46.2975 0 36 7.83502 36 17.5C36 21.5925 37.8463 25.3569 40.9397 28.3372C39.9535 28.5587 38.9855 28.7906 38.0369 29.03C22.9448 32.838 14.0168 43.6513 6.35668 59.6481C2.5956 67.5029 0.366018 76.7915 0.0230569 85.4814C-0.111557 88.8933 0.34843 92.4151 1.26773 95.7003C1.60494 96.9062 3.42324 101.087 3.92247 97.7088C4.02056 97.0446 3.84853 96.2313 3.67913 95.4305C3.56175 94.8757 3.44564 94.3268 3.42155 93.8376C3.34444 92.2694 3.4273 90.6808 3.53418 89.1149C3.73407 86.1874 4.25596 83.3154 5.18473 80.5246C6.51193 76.5367 8.20136 72.2129 10.7874 68.8481C17.1884 60.5206 21.7648 43.2055 59 41.6707C93.303 40.2568 105.776 63.3365 110.213 71.546C110.592 72.2477 110.912 72.8408 111.183 73.3007C113.849 77.8347 113.962 83.0476 114.074 88.2123C114.133 90.9235 114.192 93.6213 114.619 96.2008C115.091 99.0504 116.164 98.9866 116.751 96.4378C117.748 92.1083 118.219 87.6102 117.902 83.1593C117.184 73.1115 113.497 46.7057 93.3089 35.0061C87.8665 31.8521 82.4383 29.6875 77.1166 28.2828Z" transform="translate(74 0)" id="path_1" />
    <clipPath id="mask_1">
      <use xlink:href="#path_1" />
    </clipPath>
  </defs>
  <g id="TopLong-HairBun">
    <g id="Facial-Hair" transform="translate(49 72)" />
    <path d="M77.1166 28.2828C80.1761 25.3111 82 21.5676 82 17.5C82 7.83502 71.7025 0 59 0C46.2975 0 36 7.83502 36 17.5C36 21.5925 37.8463 25.3569 40.9397 28.3372C39.9535 28.5587 38.9855 28.7906 38.0369 29.03C22.9448 32.838 14.0168 43.6513 6.35668 59.6481C2.5956 67.5029 0.366018 76.7915 0.0230569 85.4814C-0.111557 88.8933 0.34843 92.4151 1.26773 95.7003C1.60494 96.9062 3.42324 101.087 3.92247 97.7088C4.02056 97.0446 3.84853 96.2313 3.67913 95.4305C3.56175 94.8757 3.44564 94.3268 3.42155 93.8376C3.34444 92.2694 3.4273 90.6808 3.53418 89.1149C3.73407 86.1874 4.25596 83.3154 5.18473 80.5246C6.51193 76.5367 8.20136 72.2129 10.7874 68.8481C17.1884 60.5206 21.7648 43.2055 59 41.6707C93.303 40.2568 105.776 63.3365 110.213 71.546C110.592 72.2477 110.912 72.8408 111.183 73.3007C113.849 77.8347 113.962 83.0476 114.074 88.2123C114.133 90.9235 114.192 93.6213 114.619 96.2008C115.091 99.0504 116.164 98.9866 116.751 96.4378C117.748 92.1083 118.219 87.6102 117.902 83.1593C117.184 73.1115 113.497 46.7057 93.3089 35.0061C87.8665 31.8521 82.4383 29.6875 77.1166 28.2828Z" transform="translate(74 0)" id="Short-Hair" fill="#28354B" fill-rule="evenodd" stroke="none" />
    <g clip-path="url(#mask_1)">
      <g id="Hair-Color" transform="translate(1 0)">
        <path d="M0 0L264 0L264 280L0 280L0 0Z" id="Color" fill="" fill-rule="evenodd" stroke="none" />
      </g>
    </g>
    <g id="Accessory" transform="translate(62 85)" />
  </g>
</svg>