<?xml version="1.0" encoding="utf-8"?>
<svg width="266px" height="281px" viewbox="0 0 266 281" version="1.1" xmlns:xlink="http://www.w3.org/1999/xlink" xmlns="http://www.w3.org/2000/svg">
  <defs>
    <path d="M2.11928 63.0073C1.79203 64.23 0.466132 64.4958 0.119276 63.0073C-0.599902 52.7092 0.119276 0.732959 57.1193 0.00732202C114.119 -0.718315 114.838 52.7092 114.119 63.0073C113.772 64.4958 112.447 64.23 112.119 63.0073C112.582 61.453 108.823 34.2554 99.1193 27.0073C97.36 25.7837 91.8719 24.6175 84.478 23.7464L88.1193 15.0073L81.1372 23.3858C74.1053 22.6921 65.7766 22.2588 57.4319 22.2529C38.1275 22.2392 18.7375 24.4907 15.1193 27.0073C5.41522 34.2554 1.65654 61.453 2.11928 63.0073Z" transform="translate(0.88072383 0.992678)" id="path_1" />
    <clipPath id="mask_1">
      <use xlink:href="#path_1" />
    </clipPath>
  </defs>
  <g id="TopShort-HairThe-Caesar-+-Side-Part">
    <g id="Facial-Hair" transform="translate(49 72)" />
    <g id="Hair" transform="translate(75 34)">
      <path d="M2.11928 63.0073C1.79203 64.23 0.466132 64.4958 0.119276 63.0073C-0.599902 52.7092 0.119276 0.732959 57.1193 0.00732202C114.119 -0.718315 114.838 52.7092 114.119 63.0073C113.772 64.4958 112.447 64.23 112.119 63.0073C112.582 61.453 108.823 34.2554 99.1193 27.0073C97.36 25.7837 91.8719 24.6175 84.478 23.7464L88.1193 15.0073L81.1372 23.3858C74.1053 22.6921 65.7766 22.2588 57.4319 22.2529C38.1275 22.2392 18.7375 24.4907 15.1193 27.0073C5.41522 34.2554 1.65654 61.453 2.11928 63.0073Z" transform="translate(0.88072383 0.992678)" id="Caesar" fill="#28354B" fill-rule="evenodd" stroke="none" />
      <g clip-path="url(#mask_1)">
        <g id="Hair-Color" transform="translate(-74 -34)">
          <path d="M0 0L264 0L264 280L0 280L0 0Z" id="Color" fill="#4A312C" fill-rule="evenodd" stroke="none" />
        </g>
      </g>
    </g>
    <g id="Accessory" transform="translate(62 85)" />
  </g>
</svg>