<?xml version="1.0" encoding="utf-8"?>
<svg width="266px" height="280px" viewbox="0 0 266 280" version="1.1" xmlns:xlink="http://www.w3.org/1999/xlink" xmlns="http://www.w3.org/2000/svg">
  <defs>
    <path d="M48 182C52.7203 182 57.2814 181.319 61.5905 180.049C65.6883 183.507 70.1776 186.516 74.9824 189L84 189L84 170.597Q83.177 170.206 82.3672 169.79Q81.5573 169.373 80.7615 168.93Q79.9656 168.487 79.1846 168.018Q78.4036 167.549 77.6382 167.055Q76.8729 166.561 76.124 166.043Q75.375 165.525 74.6434 164.982Q73.9118 164.439 73.1981 163.873Q72.4845 163.307 71.7897 162.718Q71.0949 162.129 70.4196 161.518Q69.7443 160.907 69.0892 160.274Q68.4341 159.641 67.8 158.987Q67.1659 158.333 66.5533 157.659Q65.9408 156.985 65.3505 156.291Q64.7602 155.598 64.1928 154.885Q63.6254 154.173 63.0815 153.442Q62.5375 152.711 62.0176 151.964Q61.4978 151.216 61.0025 150.451Q60.5072 149.687 60.037 148.907Q59.5668 148.126 59.1223 147.331Q58.6777 146.536 58.2593 145.727Q57.8408 144.918 57.4489 144.096Q57.057 143.274 56.692 142.439Q56.327 141.605 55.9894 140.759Q55.6518 139.913 55.3418 139.056Q55.0319 138.2 54.7499 137.334Q54.468 136.468 54.2144 135.593Q53.9608 134.718 53.7358 133.835Q53.5107 132.953 53.3145 132.063Q53.1183 131.174 52.9512 130.278Q52.784 129.383 52.646 128.483Q52.5081 127.582 52.3995 126.678Q52.2909 125.774 52.2117 124.866Q51.9482 124.826 51.6867 124.775Q51.4252 124.724 51.1662 124.661Q50.9072 124.598 50.6513 124.524Q50.3954 124.449 50.143 124.364Q49.8906 124.278 49.6423 124.181Q49.394 124.084 49.1502 123.977Q48.9064 123.869 48.6676 123.751Q48.4289 123.632 48.1956 123.503Q47.9623 123.374 47.735 123.235Q47.5077 123.096 47.2868 122.947Q47.0659 122.798 46.8518 122.639Q46.6377 122.48 46.4309 122.312Q46.2241 122.144 46.0249 121.967Q45.8258 121.79 45.6347 121.604Q45.4436 121.418 45.261 121.224Q45.0783 121.03 44.9045 120.828Q44.7306 120.626 44.5659 120.417Q44.4012 120.207 44.2459 119.991Q44.0907 119.774 43.9452 119.551Q43.7997 119.327 43.6643 119.098Q43.5289 118.868 43.4038 118.633Q43.2787 118.398 43.1642 118.157Q43.0497 117.916 42.946 117.671Q42.8422 117.425 42.7495 117.175Q42.6568 116.926 42.5753 116.672Q42.4937 116.418 42.4236 116.161Q42.3534 115.904 42.2947 115.644Q42.236 115.384 42.1889 115.122Q42.1418 114.859 42.1064 114.595Q42.071 114.331 42.0473 114.065Q42.0237 113.8 42.0118 113.534Q42 113.268 42 113.001L42 99.999Q42 99.7358 42.0115 99.4729Q42.0231 99.21 42.0461 98.9479Q42.0692 98.6857 42.1037 98.4248Q42.1382 98.164 42.1842 97.9048Q42.2301 97.6457 42.2873 97.3889Q42.3446 97.132 42.413 96.8779Q42.4815 96.6238 42.561 96.3729Q42.6405 96.1221 42.731 95.8749Q42.8214 95.6278 42.9226 95.3849Q43.0238 95.142 43.1356 94.9037Q43.2473 94.6654 43.3694 94.4323Q43.4915 94.1992 43.6237 93.9716Q43.7559 93.7441 43.8979 93.5226Q44.04 93.301 44.1916 93.0859Q44.3432 92.8708 44.5041 92.6626Q44.665 92.4543 44.8349 92.2534Q45.0048 92.0524 45.1833 91.859Q45.3618 91.6657 45.5486 91.4804Q45.7355 91.295 45.9303 91.1181Q46.125 90.9411 46.3274 90.7728Q46.5297 90.6046 46.7393 90.4454Q46.9488 90.2861 47.1651 90.1363Q47.3814 89.9864 47.6041 89.8461Q47.8267 89.7059 48.0554 89.5755Q48.284 89.4452 48.5181 89.325Q48.7522 89.2048 48.9913 89.0949Q49.2305 88.9851 49.4742 88.8858Q49.7179 88.7866 49.9658 88.6982Q50.2136 88.6097 50.4651 88.5322Q50.7166 88.4547 50.9713 88.3883Q51.2259 88.3219 51.4832 88.2667Q51.7405 88.2115 52 88.1677L52 87.423C60.4638 82.0432 68.7547 71.0641 73.9809 57.0788C83.7882 58.9414 95.0387 60 107 60C119.547 60 131.312 58.8351 141.45 56.7993C146.765 71.1748 155.319 82.41 164 87.713L164 88.1677Q164.659 88.279 165.301 88.4627C166.376 89.0451 167.451 89.5344 168.52 89.9254Q168.834 90.1284 169.134 90.3506Q169.435 90.5728 169.721 90.8133Q170.007 91.0538 170.278 91.3116Q170.548 91.5694 170.802 91.8435Q171.056 92.1177 171.293 92.4071Q171.529 92.6966 171.747 93.0001Q171.965 93.3037 172.164 93.6203Q172.363 93.9369 172.541 94.2652Q172.72 94.5935 172.878 94.9323Q173.036 95.2711 173.172 95.619Q173.308 95.967 173.423 96.3228Q173.537 96.6786 173.63 97.0408Q173.722 97.403 173.791 97.7702Q173.861 98.1375 173.907 98.5083Q173.953 98.8792 173.977 99.2522Q174 99.6253 174 99.999L174 113.001Q174 113.268 173.988 113.534Q173.976 113.8 173.953 114.065Q173.929 114.331 173.894 114.595Q173.858 114.859 173.811 115.122Q173.764 115.384 173.705 115.644Q173.647 115.904 173.576 116.161Q173.506 116.418 173.425 116.672Q173.343 116.926 173.25 117.175Q173.158 117.425 173.054 117.671Q172.95 117.916 172.836 118.157Q172.721 118.398 172.596 118.633Q172.471 118.868 172.336 119.098Q172.2 119.327 172.055 119.551Q171.909 119.774 171.754 119.991Q171.599 120.207 171.434 120.417Q171.269 120.626 171.096 120.828Q170.922 121.03 170.739 121.224Q170.556 121.418 170.365 121.604Q170.174 121.79 169.975 121.967Q169.776 122.144 169.569 122.312Q169.362 122.48 169.148 122.639Q168.934 122.798 168.713 122.947Q168.492 123.096 168.265 123.235Q168.038 123.374 167.804 123.503Q167.571 123.632 167.332 123.751Q167.094 123.869 166.85 123.977Q166.606 124.084 166.358 124.181Q166.109 124.278 165.857 124.364Q165.605 124.449 165.349 124.524Q165.093 124.598 164.834 124.661Q164.575 124.724 164.313 124.775Q164.052 124.826 163.788 124.866Q163.709 125.774 163.601 126.678Q163.492 127.582 163.354 128.483Q163.216 129.383 163.049 130.278Q162.882 131.174 162.685 132.063Q162.489 132.953 162.264 133.835Q162.039 134.718 161.786 135.593Q161.532 136.468 161.25 137.334Q160.968 138.2 160.658 139.056Q160.348 139.913 160.011 140.759Q159.673 141.605 159.308 142.439Q158.943 143.274 158.551 144.096Q158.159 144.918 157.741 145.727Q157.322 146.536 156.878 147.331Q156.433 148.126 155.963 148.907Q155.493 149.687 154.998 150.451Q154.502 151.216 153.982 151.964Q153.462 152.711 152.919 153.442Q152.375 154.173 151.807 154.885Q151.24 155.598 150.649 156.291Q150.059 156.985 149.447 157.659Q148.834 158.333 148.2 158.987Q147.566 159.641 146.911 160.274Q146.256 160.907 145.58 161.518Q144.905 162.129 144.21 162.718Q143.515 163.307 142.802 163.873Q142.088 164.439 141.357 164.982Q140.625 165.525 139.876 166.043Q139.127 166.562 138.362 167.055Q137.596 167.549 136.815 168.018Q136.034 168.487 135.238 168.93Q134.443 169.373 133.633 169.79Q132.823 170.206 132 170.597L132 189L141.018 189C145.822 186.516 150.312 183.507 154.41 180.049C158.719 181.319 163.28 182 168 182C194.51 182 216 160.51 216 134C216 119.591 209.651 106.665 199.598 97.8663C204.882 90.6061 208 81.6671 208 72C208 50.1606 192.089 32.0375 171.226 28.5905C164.981 11.8902 148.879 0 130 0C121.986 0 114.472 2.14267 108 5.88642C101.528 2.14267 94.0143 0 86 0C67.1209 0 51.0188 11.8902 44.7738 28.5905C23.9112 32.0375 8 50.1606 8 72C8 81.6671 11.1176 90.6061 16.4022 97.8663C6.34904 106.665 0 119.591 0 134C0 160.51 21.4903 182 48 182Z" id="path_1" />
    <clipPath id="mask_1">
      <use xlink:href="#path_1" />
    </clipPath>
  </defs>
  <g id="TopLong-HairCurly">
    <path d="M39.042 1.75626Q37.9593 2.24072 36.8948 2.76376Q35.8303 3.2868 34.7852 3.84776Q33.7401 4.40871 32.7159 5.00686Q31.6917 5.605 30.6896 6.23956Q29.6875 6.87412 28.7089 7.54427Q27.7303 8.21443 26.7764 8.91932Q25.8225 9.6242 24.8945 10.3629Q23.9665 11.1016 23.0657 11.8732Q22.1648 12.6448 21.2923 13.4482Q20.4198 14.2516 19.5767 15.0859Q18.7336 15.9202 17.921 16.7842Q17.1085 17.6482 16.3275 18.5409Q15.5465 19.4336 14.798 20.3537Q14.0496 21.2739 13.3347 22.2203Q12.6198 23.1668 11.9394 24.1383Q11.259 25.1098 10.614 26.1052Q9.96891 27.1005 9.36002 28.1184Q8.75114 29.1363 8.17923 30.1754Q7.60731 31.2145 7.0731 32.2735Q6.53889 33.3325 6.04308 34.41Q5.54727 35.4874 5.09049 36.5821Q4.63371 37.6767 4.21656 38.787Q3.79941 39.8973 3.42242 41.0219Q3.04543 42.1465 2.70909 43.2839Q2.37276 44.4213 2.0775 45.5701Q1.78225 46.7188 1.52847 47.8774Q1.27468 49.0361 1.0627 50.2031Q0.850706 51.3701 0.680784 52.5439Q0.510863 53.7178 0.38323 54.897Q0.255597 56.0762 0.170416 57.2592Q0.0852356 58.4422 0.0426178 59.6276Q0 60.8129 0 61.999L0 79.0219C11.3831 78.3018 24.6759 64.6271 31.9809 45.0788C41.7882 46.9414 53.0387 48 65 48C77.5473 48 89.3123 46.8351 99.45 44.7993C106.831 64.7644 120.462 78.6725 132 79.0441L132 61.999Q132 60.8299 131.959 59.6614Q131.917 58.493 131.834 57.3268Q131.752 56.1606 131.628 54.9981Q131.504 53.8355 131.339 52.6781Q131.173 51.5207 130.967 50.3698Q130.761 49.219 130.515 48.0761Q130.268 46.9333 129.981 45.7999Q129.694 44.6665 129.367 43.544Q129.04 42.4215 128.674 41.3113Q128.307 40.2011 127.902 39.1045Q127.496 38.008 127.052 36.9265Q126.608 35.845 126.126 34.7799Q125.644 33.7148 125.124 32.6675Q124.604 31.6201 124.048 30.5918Q123.492 29.5636 122.899 28.5556Q122.307 27.5477 121.679 26.5614Q121.051 25.5751 120.389 24.6116Q119.727 23.6482 119.031 22.7088Q118.335 21.7694 117.606 20.8552Q116.877 19.941 116.116 19.0533Q115.355 18.1655 114.564 17.3052Q113.772 16.445 112.95 15.6133Q112.129 14.7816 111.278 13.9795Q110.427 13.1775 109.549 12.406Q108.67 11.6346 107.765 10.8948Q106.86 10.1549 105.929 9.44764Q104.998 8.74034 104.042 8.06645Q103.087 7.39257 102.108 6.75294Q101.13 6.11331 100.129 5.50875Q99.1283 4.90418 98.1068 4.33544Q97.0853 3.7667 96.0443 3.2345Q95.0033 2.70229 93.9441 2.20729C85.1419 0.790545 75.3364 0 65 0C55.818 0 47.055 0.62382 39.042 1.75626Z" transform="translate(67 26)" id="Shadow" fill="#000000" fill-opacity="0.16078432" fill-rule="evenodd" stroke="none" />
    <g id="Hair" transform="translate(25 10)">
      <path d="M48 182C52.7203 182 57.2814 181.319 61.5905 180.049C65.6883 183.507 70.1776 186.516 74.9824 189L84 189L84 170.597Q83.177 170.206 82.3672 169.79Q81.5573 169.373 80.7615 168.93Q79.9656 168.487 79.1846 168.018Q78.4036 167.549 77.6382 167.055Q76.8729 166.561 76.124 166.043Q75.375 165.525 74.6434 164.982Q73.9118 164.439 73.1981 163.873Q72.4845 163.307 71.7897 162.718Q71.0949 162.129 70.4196 161.518Q69.7443 160.907 69.0892 160.274Q68.4341 159.641 67.8 158.987Q67.1659 158.333 66.5533 157.659Q65.9408 156.985 65.3505 156.291Q64.7602 155.598 64.1928 154.885Q63.6254 154.173 63.0815 153.442Q62.5375 152.711 62.0176 151.964Q61.4978 151.216 61.0025 150.451Q60.5072 149.687 60.037 148.907Q59.5668 148.126 59.1223 147.331Q58.6777 146.536 58.2593 145.727Q57.8408 144.918 57.4489 144.096Q57.057 143.274 56.692 142.439Q56.327 141.605 55.9894 140.759Q55.6518 139.913 55.3418 139.056Q55.0319 138.2 54.7499 137.334Q54.468 136.468 54.2144 135.593Q53.9608 134.718 53.7358 133.835Q53.5107 132.953 53.3145 132.063Q53.1183 131.174 52.9512 130.278Q52.784 129.383 52.646 128.483Q52.5081 127.582 52.3995 126.678Q52.2909 125.774 52.2117 124.866Q51.9482 124.826 51.6867 124.775Q51.4252 124.724 51.1662 124.661Q50.9072 124.598 50.6513 124.524Q50.3954 124.449 50.143 124.364Q49.8906 124.278 49.6423 124.181Q49.394 124.084 49.1502 123.977Q48.9064 123.869 48.6676 123.751Q48.4289 123.632 48.1956 123.503Q47.9623 123.374 47.735 123.235Q47.5077 123.096 47.2868 122.947Q47.0659 122.798 46.8518 122.639Q46.6377 122.48 46.4309 122.312Q46.2241 122.144 46.0249 121.967Q45.8258 121.79 45.6347 121.604Q45.4436 121.418 45.261 121.224Q45.0783 121.03 44.9045 120.828Q44.7306 120.626 44.5659 120.417Q44.4012 120.207 44.2459 119.991Q44.0907 119.774 43.9452 119.551Q43.7997 119.327 43.6643 119.098Q43.5289 118.868 43.4038 118.633Q43.2787 118.398 43.1642 118.157Q43.0497 117.916 42.946 117.671Q42.8422 117.425 42.7495 117.175Q42.6568 116.926 42.5753 116.672Q42.4937 116.418 42.4236 116.161Q42.3534 115.904 42.2947 115.644Q42.236 115.384 42.1889 115.122Q42.1418 114.859 42.1064 114.595Q42.071 114.331 42.0473 114.065Q42.0237 113.8 42.0118 113.534Q42 113.268 42 113.001L42 99.999Q42 99.7358 42.0115 99.4729Q42.0231 99.21 42.0461 98.9479Q42.0692 98.6857 42.1037 98.4248Q42.1382 98.164 42.1842 97.9048Q42.2301 97.6457 42.2873 97.3889Q42.3446 97.132 42.413 96.8779Q42.4815 96.6238 42.561 96.3729Q42.6405 96.1221 42.731 95.8749Q42.8214 95.6278 42.9226 95.3849Q43.0238 95.142 43.1356 94.9037Q43.2473 94.6654 43.3694 94.4323Q43.4915 94.1992 43.6237 93.9716Q43.7559 93.7441 43.8979 93.5226Q44.04 93.301 44.1916 93.0859Q44.3432 92.8708 44.5041 92.6626Q44.665 92.4543 44.8349 92.2534Q45.0048 92.0524 45.1833 91.859Q45.3618 91.6657 45.5486 91.4804Q45.7355 91.295 45.9303 91.1181Q46.125 90.9411 46.3274 90.7728Q46.5297 90.6046 46.7393 90.4454Q46.9488 90.2861 47.1651 90.1363Q47.3814 89.9864 47.6041 89.8461Q47.8267 89.7059 48.0554 89.5755Q48.284 89.4452 48.5181 89.325Q48.7522 89.2048 48.9913 89.0949Q49.2305 88.9851 49.4742 88.8858Q49.7179 88.7866 49.9658 88.6982Q50.2136 88.6097 50.4651 88.5322Q50.7166 88.4547 50.9713 88.3883Q51.2259 88.3219 51.4832 88.2667Q51.7405 88.2115 52 88.1677L52 87.423C60.4638 82.0432 68.7547 71.0641 73.9809 57.0788C83.7882 58.9414 95.0387 60 107 60C119.547 60 131.312 58.8351 141.45 56.7993C146.765 71.1748 155.319 82.41 164 87.713L164 88.1677Q164.659 88.279 165.301 88.4627C166.376 89.0451 167.451 89.5344 168.52 89.9254Q168.834 90.1284 169.134 90.3506Q169.435 90.5728 169.721 90.8133Q170.007 91.0538 170.278 91.3116Q170.548 91.5694 170.802 91.8435Q171.056 92.1177 171.293 92.4071Q171.529 92.6966 171.747 93.0001Q171.965 93.3037 172.164 93.6203Q172.363 93.9369 172.541 94.2652Q172.72 94.5935 172.878 94.9323Q173.036 95.2711 173.172 95.619Q173.308 95.967 173.423 96.3228Q173.537 96.6786 173.63 97.0408Q173.722 97.403 173.791 97.7702Q173.861 98.1375 173.907 98.5083Q173.953 98.8792 173.977 99.2522Q174 99.6253 174 99.999L174 113.001Q174 113.268 173.988 113.534Q173.976 113.8 173.953 114.065Q173.929 114.331 173.894 114.595Q173.858 114.859 173.811 115.122Q173.764 115.384 173.705 115.644Q173.647 115.904 173.576 116.161Q173.506 116.418 173.425 116.672Q173.343 116.926 173.25 117.175Q173.158 117.425 173.054 117.671Q172.95 117.916 172.836 118.157Q172.721 118.398 172.596 118.633Q172.471 118.868 172.336 119.098Q172.2 119.327 172.055 119.551Q171.909 119.774 171.754 119.991Q171.599 120.207 171.434 120.417Q171.269 120.626 171.096 120.828Q170.922 121.03 170.739 121.224Q170.556 121.418 170.365 121.604Q170.174 121.79 169.975 121.967Q169.776 122.144 169.569 122.312Q169.362 122.48 169.148 122.639Q168.934 122.798 168.713 122.947Q168.492 123.096 168.265 123.235Q168.038 123.374 167.804 123.503Q167.571 123.632 167.332 123.751Q167.094 123.869 166.85 123.977Q166.606 124.084 166.358 124.181Q166.109 124.278 165.857 124.364Q165.605 124.449 165.349 124.524Q165.093 124.598 164.834 124.661Q164.575 124.724 164.313 124.775Q164.052 124.826 163.788 124.866Q163.709 125.774 163.601 126.678Q163.492 127.582 163.354 128.483Q163.216 129.383 163.049 130.278Q162.882 131.174 162.685 132.063Q162.489 132.953 162.264 133.835Q162.039 134.718 161.786 135.593Q161.532 136.468 161.25 137.334Q160.968 138.2 160.658 139.056Q160.348 139.913 160.011 140.759Q159.673 141.605 159.308 142.439Q158.943 143.274 158.551 144.096Q158.159 144.918 157.741 145.727Q157.322 146.536 156.878 147.331Q156.433 148.126 155.963 148.907Q155.493 149.687 154.998 150.451Q154.502 151.216 153.982 151.964Q153.462 152.711 152.919 153.442Q152.375 154.173 151.807 154.885Q151.24 155.598 150.649 156.291Q150.059 156.985 149.447 157.659Q148.834 158.333 148.2 158.987Q147.566 159.641 146.911 160.274Q146.256 160.907 145.58 161.518Q144.905 162.129 144.21 162.718Q143.515 163.307 142.802 163.873Q142.088 164.439 141.357 164.982Q140.625 165.525 139.876 166.043Q139.127 166.562 138.362 167.055Q137.596 167.549 136.815 168.018Q136.034 168.487 135.238 168.93Q134.443 169.373 133.633 169.79Q132.823 170.206 132 170.597L132 189L141.018 189C145.822 186.516 150.312 183.507 154.41 180.049C158.719 181.319 163.28 182 168 182C194.51 182 216 160.51 216 134C216 119.591 209.651 106.665 199.598 97.8663C204.882 90.6061 208 81.6671 208 72C208 50.1606 192.089 32.0375 171.226 28.5905C164.981 11.8902 148.879 0 130 0C121.986 0 114.472 2.14267 108 5.88642C101.528 2.14267 94.0143 0 86 0C67.1209 0 51.0188 11.8902 44.7738 28.5905C23.9112 32.0375 8 50.1606 8 72C8 81.6671 11.1176 90.6061 16.4022 97.8663C6.34904 106.665 0 119.591 0 134C0 160.51 21.4903 182 48 182Z" id="Curly!" fill="#314756" fill-rule="evenodd" stroke="none" />
      <g clip-path="url(#mask_1)">
        <g id="Hair-Color" transform="translate(-24 -10)">
          <path d="M0 0L264 0L264 280L0 280L0 0Z" id="Color" fill="#4A312C" fill-rule="evenodd" stroke="none" />
        </g>
      </g>
    </g>
    <g id="Facial-Hair" transform="translate(49 72)" />
    <g id="Accessory" transform="translate(62 85)" />
  </g>
</svg>