<?xml version="1.0" encoding="utf-8"?>
<svg width="266px" height="280px" viewbox="0 0 266 280" version="1.1" xmlns:xlink="http://www.w3.org/1999/xlink" xmlns="http://www.w3.org/2000/svg">
  <defs>
    <path d="M33.716 59.5759C25.3513 69.7144 16.9075 88.9786 22.6027 106.838C17.099 113.76 4.54481 123.846 1.38535 133.928C-0.596808 140.253 -0.511887 147.298 2.02895 153.435C3.46621 156.907 5.5249 160.053 7.94045 163.074C10.0567 165.722 12.4085 168.226 14.4578 170.913L14.5097 170.981C15.7039 172.546 16.0197 172.96 15.56 174.931C14.6406 178.871 12.7412 182.656 11.0939 186.405C8.54189 192.215 6.39749 197.625 6.07998 203.818C5.77766 209.715 7.40435 226.491 24.341 236.379C26.3249 237.537 28.2831 238.545 30.3834 239.487C29.2932 236.093 30.5294 223.964 32.7264 219.456C33.2861 221.007 34.237 222.499 35.2618 223.854C36.8611 225.97 40.636 231.263 45.4086 231.509C43.4722 228.525 41.3891 226.511 40.7853 222.911C44.7616 224.871 50.4191 226.658 55.0466 226.494C58.4513 226.373 63.471 224.674 66 222.55C57.6284 223.877 49.679 221.118 46.482 215.222C45.8146 213.991 45.3085 212.701 45.0142 211.361C44.5967 209.462 43.9382 206.418 44.8227 204.664C45.0376 204.238 45.3896 203.803 45.807 203.375C45.7408 203.296 45.6753 203.218 45.6104 203.139C51.3035 198.353 58.4494 190.735 62.2752 185.17C62.3459 185.048 62.4161 184.925 62.4857 184.802L62.5253 184.802C62.5537 184.76 62.5818 184.718 62.6098 184.676C67.8749 183.45 73.3617 182.802 79 182.802L83 182.802L83 164.399Q82.1082 163.976 81.2319 163.522Q80.3556 163.068 79.4959 162.583Q78.6361 162.098 77.794 161.584Q76.9519 161.069 76.1284 160.525Q75.3049 159.981 74.5011 159.408Q73.6973 158.835 72.9142 158.234Q72.1311 157.634 71.3697 157.006Q70.6082 156.378 69.8694 155.723Q69.1305 155.069 68.4152 154.389Q67.6999 153.709 67.0089 153.004Q66.318 152.299 65.6524 151.57Q64.9867 150.841 64.3472 150.09Q63.7076 149.338 63.0949 148.564Q62.4823 147.79 61.8973 146.995Q61.3122 146.201 60.7556 145.385Q60.199 144.57 59.6714 143.736Q59.1438 142.902 58.6459 142.05Q58.1481 141.198 57.6806 140.328Q57.2131 139.459 56.7765 138.574Q56.3399 137.689 55.9348 136.789Q55.5296 135.889 55.1565 134.975Q54.7833 134.061 54.4426 133.135Q54.1019 132.209 53.794 131.271Q53.4861 130.333 53.2115 129.385Q52.9369 128.437 52.6958 127.48Q52.4548 126.523 52.2476 125.558Q52.0404 124.593 51.8674 123.621Q51.6943 122.649 51.5556 121.672Q51.4169 120.695 51.3128 119.714Q51.2086 118.732 51.1391 117.748Q51.0696 116.763 51.0348 115.777Q51 114.79 51 113.803L51 75.8012Q51 72.152 51.4736 68.5335C55.4132 67.2712 59.3677 66.0794 63.3986 65.0068C67.8553 63.8212 77.798 61.893 81.6888 60.9964L84.4252 58.0176L85.4877 59.9725C87.6456 59.8065 99.5664 58.015 99.5664 58.015L100.896 54.7921C102.613 56.5553 103.835 57.4711 103.835 57.4711C106.391 57.2627 117.488 57.0136 120.12 57.0449C120.12 57.0449 127.46 57.3035 129.241 57.3737L130.908 56.7351L131.456 57.8121C132.91 58.4034 141.699 61.4031 143.434 61.9403L145.981 61.0346C147.1 63.7279 149.92 63.3883 152.257 65.5155C154.76 67.7932 159.48 69.5385 162.828 71.4188Q163 73.6067 163 75.8012L163 113.803Q163 114.79 162.965 115.777Q162.93 116.763 162.861 117.748Q162.791 118.732 162.687 119.714Q162.583 120.695 162.444 121.672Q162.306 122.649 162.133 123.621Q161.96 124.593 161.752 125.558Q161.545 126.523 161.304 127.48Q161.063 128.437 160.788 129.385Q160.514 130.333 160.206 131.271Q159.898 132.209 159.557 133.135Q159.217 134.061 158.843 134.975Q158.47 135.889 158.065 136.789Q157.66 137.689 157.224 138.574Q156.787 139.459 156.319 140.328Q155.852 141.198 155.354 142.05Q154.856 142.902 154.329 143.736Q153.801 144.57 153.244 145.385Q152.688 146.201 152.103 146.995Q151.518 147.79 150.905 148.564Q150.292 149.338 149.653 150.09Q149.013 150.841 148.348 151.57Q147.682 152.299 146.991 153.004Q146.3 153.709 145.585 154.389Q144.869 155.069 144.131 155.723Q143.392 156.378 142.63 157.006Q141.869 157.634 141.086 158.234Q140.303 158.835 139.499 159.408Q138.695 159.981 137.872 160.525Q137.048 161.069 136.206 161.584Q135.364 162.098 134.504 162.583Q133.644 163.068 132.768 163.522Q131.892 163.976 131 164.399L131 182.802L135 182.802C136.524 182.802 137.038 182.85 138.539 182.943C123.625 210.299 119.824 233.376 137.472 247.346C139.17 248.548 140.396 249.131 140.607 249.231C142.98 250.348 145.444 251.57 148.074 252.185C151.593 253.008 155.511 252.362 159.221 251.75C160.385 251.559 161.527 251.37 162.631 251.232C164.743 250.966 166.848 250.803 168.977 250.796C171.542 250.787 174.188 250.88 176.119 252.493C178.003 254.067 177.763 259.692 172.244 262.326C176.343 264.181 181.256 259.873 182.932 257.149C184.398 254.764 185.526 252.181 186.146 249.544C186.918 246.261 186.968 242.819 186.364 239.53C185.106 232.682 182.188 226.098 180.201 219.408C179.469 216.942 178.515 214.243 178.099 211.719C177.986 211.034 177.852 208.504 177.958 207.974C178.036 207.581 178.017 207.178 179.373 206.798C183.289 205.702 187.38 203.866 190.225 201.279C193.59 198.221 195.344 194.248 196.758 190.299C198.999 184.047 200.281 177.352 200.871 170.859C200.993 169.511 201.062 168.164 201.086 166.812C201.092 166.512 201.081 166.196 201.071 165.875C201.053 165.326 201.035 164.764 201.094 164.247C201.167 163.614 201.158 163.358 201.267 163.172C201.389 162.964 201.656 162.841 202.342 162.374C206.599 159.474 209.921 155.251 212.052 151.003C215.398 144.331 215.834 137.295 213.118 130.536C210.865 124.93 207.291 119.301 201.726 115.69C199.589 114.304 197.334 113.047 195.115 111.76C193.907 111.06 191.068 110.145 190.209 109.244C189.775 108.787 190.156 107.003 190.445 105.649C190.556 105.133 190.652 104.68 190.686 104.386C191.214 99.7376 190.606 95.2284 189.521 90.6891C187.127 80.6816 177.488 64.5405 173.618 55.0272C173.211 54.0259 172.781 52.4398 172.236 50.4277C168.332 36.018 158.511 -0.239228 108.587 0.00118986C51.6915 0.275178 41.4186 50.24 33.716 59.5759Z" transform="translate(3.245107E-06 0.19775133)" id="path_1" />
    <clipPath id="mask_1">
      <use xlink:href="#path_1" />
    </clipPath>
  </defs>
  <g id="TopLong-HairCurvy">
    <path d="M35.4103 8.26101C25.612 14.2683 16.8959 22.1236 11.0975 31.1564C8.33567 35.459 6.06358 39.9958 3.94655 44.5538C2.88434 46.8409 1.91524 49.1562 0.986305 51.4856C0.39985 52.9557 -0.500712 54.5411 0.3463 56.084C0.863019 55.782 1.05964 55.8906 0.734739 56.4315C3.42663 57.1655 7.16875 55.0965 9.50098 54.3324C14.2644 52.7715 19.0307 51.2988 23.909 50.0007C28.3656 48.8151 38.3084 46.887 42.1992 45.9904L44.9356 43.0116L45.998 44.9664C48.156 44.8004 60.0767 43.0089 60.0767 43.0089L61.4067 39.7861C63.1229 41.5493 64.3454 42.4651 64.3454 42.4651C66.9016 42.2567 77.9989 42.0075 80.6302 42.0389C80.6302 42.0389 87.9706 42.2974 89.7511 42.3676L91.418 41.7291L91.9669 42.8061C93.4205 43.3973 102.21 46.3971 103.945 46.9343L106.491 46.0286C107.611 48.7218 110.43 48.3822 112.768 50.5095C115.859 53.3233 122.336 55.3247 125.428 57.7718C126.535 58.6481 127.57 59.5637 128.611 60.4977C129.766 61.5348 129.596 61.6866 129.971 62.8764C130.084 63.2324 131.226 65.0751 131.713 65.2258C133.446 65.7623 121.559 34.7398 118.296 30.7734C114.928 26.6792 93.0853 -0.880672 64.1224 0.0216666" transform="translate(65.489624 34.203796)" id="Top-Shadow" fill="#000000" fill-opacity="0.16078432" fill-rule="evenodd" stroke="none" />
    <g id="Hair" transform="translate(26 16)">
      <path d="M33.716 59.5759C25.3513 69.7144 16.9075 88.9786 22.6027 106.838C17.099 113.76 4.54481 123.846 1.38535 133.928C-0.596808 140.253 -0.511887 147.298 2.02895 153.435C3.46621 156.907 5.5249 160.053 7.94045 163.074C10.0567 165.722 12.4085 168.226 14.4578 170.913L14.5097 170.981C15.7039 172.546 16.0197 172.96 15.56 174.931C14.6406 178.871 12.7412 182.656 11.0939 186.405C8.54189 192.215 6.39749 197.625 6.07998 203.818C5.77766 209.715 7.40435 226.491 24.341 236.379C26.3249 237.537 28.2831 238.545 30.3834 239.487C29.2932 236.093 30.5294 223.964 32.7264 219.456C33.2861 221.007 34.237 222.499 35.2618 223.854C36.8611 225.97 40.636 231.263 45.4086 231.509C43.4722 228.525 41.3891 226.511 40.7853 222.911C44.7616 224.871 50.4191 226.658 55.0466 226.494C58.4513 226.373 63.471 224.674 66 222.55C57.6284 223.877 49.679 221.118 46.482 215.222C45.8146 213.991 45.3085 212.701 45.0142 211.361C44.5967 209.462 43.9382 206.418 44.8227 204.664C45.0376 204.238 45.3896 203.803 45.807 203.375C45.7408 203.296 45.6753 203.218 45.6104 203.139C51.3035 198.353 58.4494 190.735 62.2752 185.17C62.3459 185.048 62.4161 184.925 62.4857 184.802L62.5253 184.802C62.5537 184.76 62.5818 184.718 62.6098 184.676C67.8749 183.45 73.3617 182.802 79 182.802L83 182.802L83 164.399Q82.1082 163.976 81.2319 163.522Q80.3556 163.068 79.4959 162.583Q78.6361 162.098 77.794 161.584Q76.9519 161.069 76.1284 160.525Q75.3049 159.981 74.5011 159.408Q73.6973 158.835 72.9142 158.234Q72.1311 157.634 71.3697 157.006Q70.6082 156.378 69.8694 155.723Q69.1305 155.069 68.4152 154.389Q67.6999 153.709 67.0089 153.004Q66.318 152.299 65.6524 151.57Q64.9867 150.841 64.3472 150.09Q63.7076 149.338 63.0949 148.564Q62.4823 147.79 61.8973 146.995Q61.3122 146.201 60.7556 145.385Q60.199 144.57 59.6714 143.736Q59.1438 142.902 58.6459 142.05Q58.1481 141.198 57.6806 140.328Q57.2131 139.459 56.7765 138.574Q56.3399 137.689 55.9348 136.789Q55.5296 135.889 55.1565 134.975Q54.7833 134.061 54.4426 133.135Q54.1019 132.209 53.794 131.271Q53.4861 130.333 53.2115 129.385Q52.9369 128.437 52.6958 127.48Q52.4548 126.523 52.2476 125.558Q52.0404 124.593 51.8674 123.621Q51.6943 122.649 51.5556 121.672Q51.4169 120.695 51.3128 119.714Q51.2086 118.732 51.1391 117.748Q51.0696 116.763 51.0348 115.777Q51 114.79 51 113.803L51 75.8012Q51 72.152 51.4736 68.5335C55.4132 67.2712 59.3677 66.0794 63.3986 65.0068C67.8553 63.8212 77.798 61.893 81.6888 60.9964L84.4252 58.0176L85.4877 59.9725C87.6456 59.8065 99.5664 58.015 99.5664 58.015L100.896 54.7921C102.613 56.5553 103.835 57.4711 103.835 57.4711C106.391 57.2627 117.488 57.0136 120.12 57.0449C120.12 57.0449 127.46 57.3035 129.241 57.3737L130.908 56.7351L131.456 57.8121C132.91 58.4034 141.699 61.4031 143.434 61.9403L145.981 61.0346C147.1 63.7279 149.92 63.3883 152.257 65.5155C154.76 67.7932 159.48 69.5385 162.828 71.4188Q163 73.6067 163 75.8012L163 113.803Q163 114.79 162.965 115.777Q162.93 116.763 162.861 117.748Q162.791 118.732 162.687 119.714Q162.583 120.695 162.444 121.672Q162.306 122.649 162.133 123.621Q161.96 124.593 161.752 125.558Q161.545 126.523 161.304 127.48Q161.063 128.437 160.788 129.385Q160.514 130.333 160.206 131.271Q159.898 132.209 159.557 133.135Q159.217 134.061 158.843 134.975Q158.47 135.889 158.065 136.789Q157.66 137.689 157.224 138.574Q156.787 139.459 156.319 140.328Q155.852 141.198 155.354 142.05Q154.856 142.902 154.329 143.736Q153.801 144.57 153.244 145.385Q152.688 146.201 152.103 146.995Q151.518 147.79 150.905 148.564Q150.292 149.338 149.653 150.09Q149.013 150.841 148.348 151.57Q147.682 152.299 146.991 153.004Q146.3 153.709 145.585 154.389Q144.869 155.069 144.131 155.723Q143.392 156.378 142.63 157.006Q141.869 157.634 141.086 158.234Q140.303 158.835 139.499 159.408Q138.695 159.981 137.872 160.525Q137.048 161.069 136.206 161.584Q135.364 162.098 134.504 162.583Q133.644 163.068 132.768 163.522Q131.892 163.976 131 164.399L131 182.802L135 182.802C136.524 182.802 137.038 182.85 138.539 182.943C123.625 210.299 119.824 233.376 137.472 247.346C139.17 248.548 140.396 249.131 140.607 249.231C142.98 250.348 145.444 251.57 148.074 252.185C151.593 253.008 155.511 252.362 159.221 251.75C160.385 251.559 161.527 251.37 162.631 251.232C164.743 250.966 166.848 250.803 168.977 250.796C171.542 250.787 174.188 250.88 176.119 252.493C178.003 254.067 177.763 259.692 172.244 262.326C176.343 264.181 181.256 259.873 182.932 257.149C184.398 254.764 185.526 252.181 186.146 249.544C186.918 246.261 186.968 242.819 186.364 239.53C185.106 232.682 182.188 226.098 180.201 219.408C179.469 216.942 178.515 214.243 178.099 211.719C177.986 211.034 177.852 208.504 177.958 207.974C178.036 207.581 178.017 207.178 179.373 206.798C183.289 205.702 187.38 203.866 190.225 201.279C193.59 198.221 195.344 194.248 196.758 190.299C198.999 184.047 200.281 177.352 200.871 170.859C200.993 169.511 201.062 168.164 201.086 166.812C201.092 166.512 201.081 166.196 201.071 165.875C201.053 165.326 201.035 164.764 201.094 164.247C201.167 163.614 201.158 163.358 201.267 163.172C201.389 162.964 201.656 162.841 202.342 162.374C206.599 159.474 209.921 155.251 212.052 151.003C215.398 144.331 215.834 137.295 213.118 130.536C210.865 124.93 207.291 119.301 201.726 115.69C199.589 114.304 197.334 113.047 195.115 111.76C193.907 111.06 191.068 110.145 190.209 109.244C189.775 108.787 190.156 107.003 190.445 105.649C190.556 105.133 190.652 104.68 190.686 104.386C191.214 99.7376 190.606 95.2284 189.521 90.6891C187.127 80.6816 177.488 64.5405 173.618 55.0272C173.211 54.0259 172.781 52.4398 172.236 50.4277C168.332 36.018 158.511 -0.239228 108.587 0.00118986C51.6915 0.275178 41.4186 50.24 33.716 59.5759Z" transform="translate(3.245107E-06 0.19775133)" id="Hair-Mask" fill="#361A0A" fill-rule="evenodd" stroke="none" />
      <g clip-path="url(#mask_1)">
        <g id="Hair-Color" transform="translate(-25 -16)">
          <path d="M0 0L264 0L264 280L0 280L0 0Z" id="Color" fill="#A55728" fill-rule="evenodd" stroke="none" />
        </g>
        <path d="M6.55164 51.5125C13.6276 41.8057 6.02114 14.8372 0 4.85093C25.2557 -6.6434 99.7458 9.09821 99.7458 9.09821C99.7458 9.09821 92.5542 22.3769 93.8785 32.8077C87.0727 41.1704 82.6321 50.1918 82.6321 50.1918L47.7611 58.7971C47.7611 58.7971 14.707 62.7775 6.55164 51.5125Z" transform="translate(56.127815 132.94966)" id="Shadow" fill="#000000" fill-opacity="0.23921569" fill-rule="evenodd" stroke="none" />
      </g>
    </g>
    <path d="M79.6927 8.47814C80.8428 7.06946 81.8787 5.58076 82.6528 3.99347C83.1777 2.917 83.3645 0.920436 84.0802 0C79.3245 4.99271 75.2796 9.91963 71.7785 15.6316C72.5583 14.6107 74.5189 13.6109 75.5426 12.7214C77.0534 11.4082 78.4577 9.99062 79.6927 8.47814ZM132.825 0.0881903C132.627 2.3482 132.869 4.533 133.112 6.72596C133.251 7.97432 133.39 9.22532 133.448 10.4943C133.447 10.1472 133.781 9.5682 134.099 9.0151C134.326 8.62095 134.545 8.23996 134.631 7.96544C134.977 6.85547 135.171 5.73855 135.012 4.59734C134.873 3.59064 134.465 2.64417 133.949 1.7423C133.742 1.38076 132.825 0.419707 132.825 0.0881903ZM60.6834 1.14946C60.7624 1.01306 60.8422 0.909864 60.923 0.853265C60.842 0.951465 60.7634 1.05086 60.6834 1.14946ZM46.1762 22.4243C50.0257 19.0225 53.0911 15.268 55.9482 11.2284C57.2142 9.43838 58.2774 7.57165 59.169 5.62386C59.5102 4.87855 60.0617 2.04469 60.6833 1.11037C57.6897 4.31723 55.3949 7.7768 52.9629 11.3009C51.7367 13.0779 50.4437 14.8319 49.3185 16.6571C48.3423 18.2407 47.5875 21.1714 46.1762 22.4243ZM139.172 4.33813C139.173 4.97877 140.355 6.10072 140.462 6.90972C140.628 8.15265 140.222 9.55405 139.498 10.6517C139.582 10.4547 139.377 9.54771 139.211 8.8145C139.115 8.39268 139.033 8.02837 139.026 7.88987C138.979 6.96078 139.049 6.011 139.119 5.07365C139.137 4.82742 139.156 4.58205 139.172 4.33813ZM88.881 8.17886C88.1587 9.33934 86.8815 10.2858 85.5907 10.9565C86.1608 10.6205 86.6943 8.96409 87.1287 8.40623C87.86 7.46723 88.7529 6.56033 89.7061 5.77771C89.5014 5.99762 89.104 7.82079 88.881 8.17886ZM44.4129 15.8355C45.0535 15.2188 45.1641 13.0455 45.627 12.2267C46.3773 10.9001 47.5209 9.77885 48.8071 8.81312C48.2342 9.3156 47.9761 11.388 47.5824 12.088C46.7931 13.4903 45.6458 14.7008 44.4129 15.8355ZM44.4129 15.8355C44.4043 15.8438 44.3956 15.8518 44.3868 15.8595C44.3955 15.8515 44.4042 15.8435 44.4129 15.8355ZM16.0622 62.3909C16.0711 62.3625 16.0802 62.3342 16.0892 62.3058C16.0788 62.3328 16.0699 62.3612 16.0622 62.3909ZM16.0622 62.3909C12.4629 73.7869 16.6158 86.8545 20.7551 97.6356C22.8683 103.139 25.3066 108.642 28.5588 113.714C30.2157 116.299 31.9297 118.855 33.8523 121.298C34.7904 122.49 35.7797 123.64 36.8361 124.756C37.4787 125.435 39.1532 126.586 39.9502 127.534C36.9184 122.597 33.1555 118.048 29.9939 113.173C26.6012 107.941 24.243 102.203 22.1815 96.4824C20.0509 90.5703 18.5815 84.6455 17.7249 78.4801C17.3263 75.6109 17.3277 72.7446 17.142 69.8621C17.0503 68.4385 16.8679 67.0156 16.6645 65.6022C16.6265 65.3383 16.5221 64.974 16.4085 64.5774C16.1865 63.8026 15.9292 62.9047 16.0622 62.3909ZM163.735 85.8404C163.358 86.4977 163.453 87.871 163.314 88.5868C163.077 89.8115 162.764 91.0266 162.324 92.2128C161.85 93.4918 161.231 94.7355 160.541 95.9409C160.4 96.188 160.137 96.5245 159.848 96.8943C159.259 97.6483 158.562 98.5409 158.563 99.0981C158.481 94.2 160.291 89.7629 163.735 85.8404ZM164.821 110.233C165.545 106.48 166.108 102.331 168.051 98.8627C168.983 97.1991 170.162 95.5981 171.265 94.0118C171.999 92.9565 173.121 90.4181 174.266 89.7434C170.105 92.1744 166.842 95.2806 165.102 99.382C164.222 101.459 163.907 103.583 164.019 105.774C164.1 107.342 164.778 109.018 164.78 110.543C164.801 110.387 164.814 110.284 164.821 110.233ZM30.1706 123.146C27.7181 119.6 25.1259 115.98 23.0884 112.24C21.9793 110.205 21.0635 108.095 19.9661 106.054C19.3993 104.999 18.792 103.964 18.1784 102.93C17.9236 102.5 17.1146 101.597 17.0051 101.074C17.485 105.479 18.9671 109.504 21.2224 113.445C22.2172 115.183 23.313 116.875 24.7283 118.384C26.2892 120.049 28.8121 121.414 30.1706 123.146ZM25.3945 129.426C28.9468 133.243 32.3399 137.189 34.8473 141.604C35.9619 143.566 36.8876 145.57 37.4723 147.706C37.7808 148.832 38.0292 149.974 38.2426 151.118C38.3115 151.487 38.3247 152.815 38.4999 153.389C36.2854 149.098 34.5952 144.554 31.9574 140.447C29.3535 136.393 26.0102 132.665 22.5112 129.166C18.8167 125.471 15.1009 121.984 13.1192 117.319C11.3942 113.259 10.728 109.101 11.1292 104.763C11.1314 106.674 12.886 109.385 13.492 111.232C14.3216 113.759 14.9808 116.337 16.2297 118.739C18.3549 122.828 22.1883 125.982 25.3945 129.426ZM187.435 109.97C187.973 110.635 189.76 111.265 190.483 111.896C191.687 112.947 192.494 114.252 193.158 115.605C194.689 118.724 194.974 122.322 193.747 125.605C193.898 125.082 193.604 124.133 193.373 123.386C193.292 123.126 193.22 122.891 193.176 122.707C192.804 121.144 192.222 119.667 191.614 118.165C190.434 115.252 189.481 112.522 187.435 109.97ZM162.512 123.825C164.796 123.791 167.334 126.346 169.025 128.05C169.374 128.401 169.687 128.716 169.954 128.964C172.18 131.035 174.435 132.971 176.224 135.356C176.242 135.381 176.26 135.405 176.278 135.428C176.26 135.404 176.242 135.38 176.224 135.356C175.544 134.399 175.531 132.611 174.998 131.509C174.271 130.005 173.171 128.6 171.934 127.376C169.618 125.086 166.168 123.308 162.512 123.825ZM5.31625 131.725C7.21489 133.859 8.66414 136.305 10.2187 138.633C13.0559 142.883 16.766 146.714 19.1923 151.161C22.0221 156.348 23.2672 161.968 23.5181 167.701C23.637 170.412 23.6306 173.165 23.2652 175.869C23.0693 177.317 22.7552 178.755 22.3964 180.181C22.2603 180.722 21.5559 182.107 21.4191 182.951C21.3554 180.633 21.39 178.315 21.4246 176.005C21.5471 167.809 21.6682 159.709 17.392 152.048C14.7964 147.397 10.8065 143.432 7.71342 139.03C4.93181 135.071 2.21514 131.189 0 126.956C1.35614 128.672 3.80046 130.021 5.31625 131.725ZM39.9502 127.534C40.1508 127.772 40.2966 127.998 40.3558 128.199C40.2228 127.976 40.0862 127.755 39.9502 127.534ZM17.7684 129.922C17.7782 129.943 17.7881 129.964 17.798 129.985C17.7862 129.963 17.7762 129.942 17.7684 129.922ZM20.544 132.284C20.039 131.799 18.1354 130.6 17.798 129.985C18.4899 131.445 19.4132 133.212 20.0109 134.417C21.7892 137.99 24.4442 140.961 27.0228 144.107C26.2259 143.091 26.0023 140.826 25.4954 139.609C24.9067 138.195 24.2481 136.844 23.3506 135.559C22.5317 134.387 21.6028 133.302 20.544 132.284ZM167.275 137.073C165.452 136.107 163.711 134.937 161.734 134.202C161.551 134.14 159.953 133.687 159.459 133.854C160.045 133.593 160.75 133.287 161.384 133.203C165.668 132.634 170.876 136.344 171.452 139.924C170.973 138.698 168.426 137.683 167.275 137.073ZM159.459 133.854L159.397 133.882C159.415 133.871 159.436 133.862 159.459 133.854ZM163.543 142.013C162.368 141.725 161.225 141.629 160.01 141.801C159.998 141.802 159.902 141.831 159.759 141.872C159.293 142.009 158.333 142.29 158.202 142.264C161.021 142.923 163.662 143.249 166.591 143.178C166.16 143.184 165.433 142.839 164.757 142.519C164.289 142.297 163.846 142.087 163.543 142.013ZM152.33 155.863C156.59 155.641 161.576 156.265 165.629 157.287C167.662 157.799 169.569 158.573 171.322 159.582C172.736 160.395 175.251 161.514 176.197 162.719C172.458 156.267 164.347 152.916 156.038 154.578C154.977 154.792 153.37 155.769 152.33 155.863ZM152.33 155.863C152.286 155.865 152.242 155.868 152.198 155.87C152.241 155.869 152.285 155.867 152.33 155.863ZM11.857 162.108C11.8623 161.606 11.8677 161.103 11.8758 160.599C11.8764 161.095 12.6918 162.116 12.9146 162.633C13.4361 163.843 13.8609 165.112 14.0727 166.395C14.4905 168.923 13.9422 171.534 13.0053 173.955C11.1063 178.862 8.13144 183.208 4.39211 187.255C5.72747 185.507 6.25918 182.666 7.1987 180.717C8.16321 178.716 9.19824 176.746 10.0489 174.706C11.7666 170.585 11.8114 166.383 11.857 162.108ZM151.238 168.303C151.914 168.099 153.049 168.245 154.078 168.378C154.658 168.453 155.204 168.523 155.614 168.524C157.214 168.528 158.822 168.447 160.415 168.301C161.715 168.183 163.015 168.031 164.311 167.884C164.585 167.853 164.962 167.782 165.379 167.702C166.377 167.512 167.609 167.278 168.231 167.447C165.667 166.564 162.593 166.147 159.821 166.274C156.9 166.409 153.927 167.338 151.238 168.303ZM3.23275 179.306C4.31155 178.103 5.14917 176.66 5.48166 175.172C5.57127 174.771 5.50142 174.203 5.43137 173.632C5.34288 172.912 5.25408 172.189 5.48606 171.799C4.70738 172.932 4.02941 174.161 3.63758 175.434C3.42557 176.123 3.63338 178.758 3.23275 179.306ZM141.179 175.873C141.193 175.863 141.208 175.853 141.223 175.843C141.208 175.852 141.193 175.862 141.179 175.873ZM141.179 175.873C137.962 178.027 137.743 183.474 138.193 186.603C138.753 190.494 141.24 193.946 144.518 196.588C147.854 199.276 152.616 200.429 155.347 203.703C158.051 206.945 158.015 211.436 157.984 215.307L157.983 215.357C157.991 214.931 158.256 214.333 158.505 213.773C158.66 213.422 158.809 213.087 158.885 212.817C159.186 211.741 159.464 210.629 159.52 209.523C159.628 207.376 158.953 205.25 157.685 203.425C155.084 199.678 150.288 198.401 146.706 195.596C143.326 192.95 141.027 189.488 140.774 185.515C140.632 183.29 140.613 181.005 140.677 178.774C140.679 178.693 140.678 178.581 140.677 178.448L140.677 178.445L140.677 178.444L140.677 178.442C140.671 177.685 140.66 176.255 141.179 175.873ZM21.419 182.951C21.3864 183.155 21.3854 183.329 21.4326 183.451C21.427 183.285 21.4236 183.118 21.419 182.951ZM138.321 200.778L138.392 200.855C138.364 200.829 138.34 200.803 138.321 200.778ZM149.466 213.621C149.347 210.584 147.857 207.422 145.55 205.165C144.394 204.034 142.986 203.105 141.529 202.288C140.922 201.947 138.926 201.359 138.392 200.855C140.5 203.155 142.71 205.384 144.84 207.669C145.723 208.617 146.591 209.564 147.359 210.586C147.813 211.191 149.412 212.88 149.466 213.621ZM149.466 213.621C149.466 213.634 149.467 213.646 149.467 213.659C149.467 213.646 149.467 213.634 149.466 213.621Z" transform="translate(38.68468 41.89511)" id="Lights" fill="#FFFFFF" fill-opacity="0.6" fill-rule="evenodd" stroke="none" />
    <g id="Facial-Hair" transform="translate(49 72)" />
    <g id="Accessory" transform="translate(62 85)" />
  </g>
</svg>