<?xml version="1.0" encoding="utf-8"?>
<svg width="266px" height="280px" viewbox="0 0 266 280" version="1.1" xmlns:xlink="http://www.w3.org/1999/xlink" xmlns="http://www.w3.org/2000/svg">
  <defs>
    <filter filterUnits="userSpaceOnUse" color-interpolation-filters="sRGB" id="filter_1">
      <feFlood flood-opacity="0" result="BackgroundImageFix" />
      <feColorMatrix in="SourceAlpha" type="matrix" values="0 0 0 0 0 0 0 0 0 0 0 0 0 0 0 0 0 0 127 0" />
      <feOffset dx="0" dy="2" />
      <feGaussianBlur stdDeviation="0" />
      <feColorMatrix type="matrix" values="0 0 0 0 0 0 0 0 0 0 0 0 0 0 0 0 0 0 0.2 0" />
      <feBlend mode="normal" in2="BackgroundImageFix" result="effect0_dropShadow" />
      <feBlend mode="normal" in="SourceGraphic" in2="effect0_dropShadow" result="shape" />
    </filter>
  </defs>
  <g id="TopLong-HairFrida">
    <g id="Hair-Color" transform="translate(57 12)">
      <path d="M20 86.1677L20 85.9363C20.0276 85.9578 20.0554 85.979 20.0833 86C22.9859 38.8525 68.5528 55.7424 76 29.3362C83.4472 55.7424 129.014 38.8525 131.917 86C131.945 85.979 131.972 85.9578 132 85.9363L132 86.1677Q132.235 86.2073 132.468 86.2563Q132.701 86.3052 132.931 86.3633Q133.162 86.4214 133.39 86.4887Q133.619 86.5559 133.844 86.6321Q134.07 86.7084 134.292 86.7935Q134.514 86.8786 134.733 86.9724Q134.952 87.0663 135.166 87.1687Q135.381 87.2712 135.592 87.3821Q135.802 87.493 136.008 87.6122Q136.214 87.7313 136.416 87.8586Q136.617 87.9858 136.813 88.1209Q137.009 88.256 137.199 88.3988Q137.389 88.5416 137.574 88.6918Q137.759 88.842 137.937 88.9994Q138.116 89.1568 138.288 89.3212Q138.46 89.4856 138.625 89.6567Q138.791 89.8277 138.949 90.0052Q139.108 90.1827 139.259 90.3664Q139.411 90.55 139.555 90.7395Q139.699 90.929 139.835 91.1241Q139.972 91.3191 140.1 91.5195Q140.229 91.7198 140.349 91.925Q140.47 92.1303 140.582 92.3402Q140.694 92.55 140.798 92.7642Q140.902 92.9784 140.997 93.1965Q141.092 93.4146 141.179 93.6363Q141.265 93.858 141.343 94.083Q141.421 94.308 141.489 94.5358Q141.558 94.7637 141.618 94.9941Q141.677 95.2245 141.728 95.4572Q141.778 95.6898 141.819 95.9242Q141.86 96.1586 141.892 96.3945C144.449 93.4882 146 89.6752 146 85.5C146 83.37 145.596 81.3344 144.862 79.4652C148.027 76.4589 150 72.2099 150 67.5C150 61.664 146.97 56.5356 142.398 53.6021C143.425 51.4511 144 49.0427 144 46.5C144 38.8652 138.815 32.4415 131.773 30.5587C131.923 29.5609 132 28.5395 132 27.5C132 16.1782 122.822 7 111.5 7C108.871 7 106.357 7.49494 104.047 8.39673C100.317 3.30577 94.2948 0 87.5 0C83.2377 0 79.2793 1.30077 76 3.52699C72.7207 1.30077 68.7623 0 64.5 0C57.7052 0 51.6825 3.30577 47.9526 8.39673C45.6427 7.49494 43.1291 7 40.5 7C29.1782 7 20 16.1782 20 27.5C20 28.5395 20.0774 29.5609 20.2267 30.5587C13.1855 32.4415 8 38.8652 8 46.5C8 48.6917 8.42734 50.7837 9.20323 52.697C3.75046 55.3899 0 61.007 0 67.5C0 72.9379 2.63064 77.7615 6.68875 80.7674C6.24068 82.2665 6 83.8552 6 85.5C6 89.6752 7.55078 93.4882 10.1078 96.3945Q10.1396 96.1586 10.1807 95.9242Q10.2219 95.6898 10.2723 95.4572Q10.3227 95.2245 10.3823 94.9941Q10.4419 94.7637 10.5106 94.5358Q10.5793 94.308 10.657 94.083Q10.7347 93.858 10.8212 93.6363Q10.9077 93.4146 11.003 93.1965Q11.0983 92.9784 11.2021 92.7642Q11.3059 92.55 11.4182 92.3402Q11.5304 92.1303 11.6509 91.925Q11.7714 91.7198 11.8999 91.5195Q12.0284 91.3191 12.1648 91.1241Q12.3012 90.929 12.4452 90.7395Q12.5891 90.55 12.7405 90.3664Q12.8919 90.1827 13.0505 90.0052Q13.2091 89.8277 13.3745 89.6567Q13.54 89.4856 13.7121 89.3212Q13.8843 89.1568 14.0628 88.9994Q14.2413 88.842 14.4259 88.6918Q14.6105 88.5416 14.8009 88.3988Q14.9913 88.256 15.1873 88.1209Q15.3832 87.9858 15.5844 87.8586Q15.7855 87.7313 15.9915 87.6122Q16.1975 87.493 16.4081 87.3821Q16.6187 87.2712 16.8335 87.1687Q17.0484 87.0663 17.2671 86.9724Q17.4858 86.8786 17.7081 86.7935Q17.9303 86.7084 18.1558 86.6321Q18.3813 86.5559 18.6096 86.4887Q18.8379 86.4214 19.0687 86.3633Q19.2995 86.3052 19.5324 86.2563Q19.7653 86.2073 20 86.1677ZM20.2117 122.866Q19.8623 122.813 19.5165 122.74Q19.1707 122.667 18.8298 122.574Q18.489 122.481 18.1542 122.367Q17.8194 122.254 17.4918 122.121Q17.1643 121.989 16.8451 121.837Q16.526 121.685 16.2163 121.515Q15.9066 121.344 15.6075 121.156Q15.3084 120.968 15.0209 120.762Q14.7334 120.557 14.4585 120.335Q14.1836 120.113 13.9222 119.875Q13.6608 119.637 13.4139 119.384Q13.167 119.131 12.9354 118.864Q12.7038 118.597 12.4883 118.317Q12.2728 118.037 12.0742 117.744Q11.8756 117.452 11.6945 117.149Q11.5134 116.845 11.3505 116.531C9.24788 119.301 8 122.755 8 126.5C8 133.889 12.8575 140.144 19.5536 142.246C19.1925 143.603 19 145.029 19 146.5C19 155.213 25.7536 162.349 34.3116 162.958C36.8248 168.861 42.6791 173 49.5 173C50.3499 173 51.1847 172.936 52 172.812L52 168.597Q51.177 168.206 50.3672 167.79Q49.5573 167.373 48.7615 166.93Q47.9656 166.487 47.1846 166.018Q46.4036 165.549 45.6382 165.055Q44.8729 164.562 44.124 164.043Q43.3751 163.525 42.6434 162.982Q41.9118 162.439 41.1982 161.873Q40.4845 161.307 39.7897 160.718Q39.0949 160.129 38.4196 159.518Q37.7443 158.907 37.0892 158.274Q36.4342 157.641 35.8 156.987Q35.1659 156.333 34.5533 155.659Q33.9408 154.985 33.3505 154.291Q32.7602 153.598 32.1928 152.885Q31.6254 152.173 31.0815 151.442Q30.5375 150.711 30.0176 149.964Q29.4978 149.216 29.0025 148.451Q28.5072 147.687 28.037 146.907Q27.5668 146.126 27.1223 145.331Q26.6777 144.536 26.2593 143.727Q25.8408 142.918 25.4489 142.096Q25.057 141.274 24.692 140.439Q24.327 139.605 23.9894 138.759Q23.6518 137.913 23.3418 137.056Q23.0319 136.2 22.7499 135.334Q22.468 134.468 22.2144 133.593Q21.9608 132.718 21.7358 131.835Q21.5107 130.953 21.3145 130.063Q21.1183 129.174 20.9512 128.278Q20.784 127.383 20.646 126.483Q20.5081 125.582 20.3995 124.678Q20.2909 123.774 20.2117 122.866ZM100 168.597L100 172.812C100.815 172.936 101.65 173 102.5 173C109.321 173 115.175 168.861 117.688 162.958C126.246 162.349 133 155.213 133 146.5C133 145.029 132.808 143.603 132.446 142.246C139.142 140.144 144 133.889 144 126.5C144 122.755 142.752 119.301 140.649 116.531Q140.487 116.845 140.305 117.149Q140.124 117.452 139.926 117.744Q139.727 118.037 139.512 118.317Q139.296 118.597 139.065 118.864Q138.833 119.131 138.586 119.384Q138.339 119.637 138.078 119.875Q137.816 120.113 137.542 120.335Q137.267 120.557 136.979 120.762Q136.692 120.968 136.392 121.156Q136.093 121.344 135.784 121.515Q135.474 121.685 135.155 121.837Q134.836 121.989 134.508 122.121Q134.181 122.254 133.846 122.367Q133.511 122.481 133.17 122.574Q132.829 122.667 132.483 122.74Q132.138 122.813 131.788 122.866Q131.709 123.774 131.601 124.678Q131.492 125.582 131.354 126.483Q131.216 127.383 131.049 128.278Q130.882 129.174 130.685 130.063Q130.489 130.953 130.264 131.835Q130.039 132.718 129.786 133.593Q129.532 134.468 129.25 135.334Q128.968 136.2 128.658 137.056Q128.348 137.913 128.011 138.759Q127.673 139.605 127.308 140.439Q126.943 141.274 126.551 142.096Q126.159 142.918 125.741 143.727Q125.322 144.536 124.878 145.331Q124.433 146.126 123.963 146.907Q123.493 147.687 122.998 148.451Q122.502 149.216 121.982 149.964Q121.462 150.711 120.919 151.442Q120.375 152.173 119.807 152.885Q119.24 153.598 118.649 154.291Q118.059 154.985 117.447 155.659Q116.834 156.333 116.2 156.987Q115.566 157.641 114.911 158.274Q114.256 158.907 113.58 159.518Q112.905 160.129 112.21 160.718Q111.515 161.307 110.802 161.873Q110.088 162.439 109.357 162.982Q108.625 163.525 107.876 164.043Q107.127 164.562 106.362 165.055Q105.596 165.549 104.815 166.018Q104.034 166.487 103.238 166.93Q102.443 167.373 101.633 167.79Q100.823 168.206 100 168.597Z" id="Cabello" fill="#1F3540" fill-rule="evenodd" stroke="none" />
    </g>
    <g id="Ornamentos" transform="translate(67 0)">
      <g filter="url(#filter_1)">
        <g id="hoja" transform="matrix(0.9396926 0.34202012 0.34202012 -0.9396926 105.21884 67.10143)" opacity="0.9">
          <path d="M0.0887581 10C0.0887581 10 -1.57235 0 9.47765 0C16.6999 0 21.7554 5.71429 21.7554 5.71429C21.7554 5.71429 16.3388 14.2857 8.0332 14.2857C1.5332 14.2857 0.0887581 10 0.0887581 10Z" transform="translate(3.522353 0)" id="leaf" fill="#5DD362" fill-rule="evenodd" stroke="none" />
          <path d="M25.2609 0.788774C25.2609 0.788774 19.8442 9.3602 11.5387 9.3602C7.20535 9.3602 5.11091 7.43163 4.17202 6.14592C2.07757 7.93163 1.35535 9.57449 1.35535 9.64592C1.28313 9.93163 0.99424 10.0745 0.705352 10.0745C0.633129 10.0745 0.488685 10.0745 0.416463 10.0031C0.0553516 9.8602 -0.0890928 9.43163 0.0553516 9.07449C0.127574 8.8602 1.93313 4.93163 7.42202 2.3602C15.3665 -1.78265 25.2609 0.788774 25.2609 0.788774Z" transform="translate(0.016870618 4.9255114)" id="leaf" fill="#42BC53" fill-rule="evenodd" stroke="none" />
        </g>
      </g>
      <g filter="url(#filter_1)">
        <g id="hoja" transform="matrix(0.50000006 0.8660254 -0.8660254 0.50000006 102.11474 7.999996)">
          <path d="M14.0527 12C14.0527 5.9 8.05274 0 8.05274 0C8.05274 0 0.752736 4.3 0.0527359 13C-0.647264 21.7 5.85274 23.7 5.85274 23.7C5.85274 23.7 14.0527 20.8 14.0527 12Z" transform="translate(0.94726413 0)" id="leaf" fill="#5DD362" fill-rule="evenodd" stroke="none" />
          <path d="M2.63972 29C2.73972 29 2.83972 29 2.93972 28.9C3.43972 28.7 3.73972 28.1 3.53972 27.6C3.03972 26.1 2.63972 24.7 2.43972 23.2C4.63972 22.2 9.63972 18.9 9.63972 12C9.63972 5.9 3.63972 0 3.63972 0C3.63972 0 3.23972 1.1 2.63972 3C2.63972 3 2.63972 3 2.63972 3C2.43972 3.5 -2.56028 16.6 1.73972 28.3C1.83972 28.7 2.23972 29 2.63972 29Z" transform="translate(5.360282 0)" id="leaf" fill="#42BC53" fill-rule="evenodd" stroke="none" />
        </g>
      </g>
      <g filter="url(#filter_1)">
        <g id="hoja" transform="matrix(-0.50000006 -0.8660254 0.8660254 -0.50000006 20.5 73.49038)">
          <path d="M14.0527 12C14.0527 5.9 8.05274 0 8.05274 0C8.05274 0 0.752736 4.3 0.0527359 13C-0.647264 21.7 5.85274 23.7 5.85274 23.7C5.85274 23.7 14.0527 20.8 14.0527 12Z" transform="translate(0.94726413 0)" id="leaf" fill="#5DD362" fill-rule="evenodd" stroke="none" />
          <path d="M2.63972 29C2.73972 29 2.83972 29 2.93972 28.9C3.43972 28.7 3.73972 28.1 3.53972 27.6C3.03972 26.1 2.63972 24.7 2.43972 23.2C4.63972 22.2 9.63972 18.9 9.63972 12C9.63972 5.9 3.63972 0 3.63972 0C3.63972 0 3.23972 1.1 2.63972 3C2.63972 3 2.63972 3 2.63972 3C2.43972 3.5 -2.56028 16.6 1.73972 28.3C1.83972 28.7 2.23972 29 2.63972 29Z" transform="translate(5.360282 0)" id="leaf" fill="#42BC53" fill-rule="evenodd" stroke="none" />
        </g>
      </g>
      <g filter="url(#filter_1)">
        <g id="Flor" transform="matrix(-1 0 0 1 26 29)">
          <path d="M23.9018 20.935C24.7376 19.8257 25.0913 18.4573 24.8982 17.0816C24.7052 15.7059 23.9873 14.4883 22.8789 13.6527C22.5798 13.427 22.1851 13.2421 21.737 13.0846C22.1904 12.9435 22.5911 12.7723 22.8978 12.5575C25.2462 10.9131 25.8195 7.66425 24.1748 5.31533C22.53 2.9664 19.281 2.39393 16.9326 4.03833C16.6259 4.25308 16.328 4.57101 16.0398 4.94915C16.0456 4.47392 16.0063 4.04012 15.8965 3.68182C15.4906 2.35365 14.5911 1.26246 13.3647 0.61104C12.1385 -0.0411856 10.7315 -0.176032 9.40297 0.229422C6.66101 1.06808 5.11238 3.98067 5.95023 6.72248C6.05953 7.07903 6.26406 7.45776 6.53278 7.84657C6.08484 7.6954 5.66375 7.60373 5.2911 7.59734C2.42415 7.54733 0.0512232 9.83874 0.000739162 12.706C-0.0182723 13.8443 0.330391 14.9044 0.938178 15.7724C1.8616 17.0902 3.38112 17.9658 5.10955 17.9956C5.48221 18.002 5.90569 17.9248 6.35847 17.7897C6.07669 18.169 5.85934 18.5406 5.73789 18.8929C5.17499 20.5278 5.47703 22.2545 6.40031 23.5731C7.0081 24.4411 7.88561 25.1323 8.9616 25.5024C11.6727 26.436 14.6377 24.9891 15.5708 22.2783C15.6922 21.9259 15.7496 21.4992 15.7613 21.0262C16.0347 21.4117 16.321 21.7339 16.6183 21.9581C17.7279 22.7943 19.096 23.1475 20.4717 22.9545C21.8482 22.7616 23.0661 22.0442 23.9018 20.935Z" transform="translate(0.52263093 0.021148382)" id="Flor" fill="#4ACAD3" fill-rule="evenodd" stroke="none" />
          <path d="M3.66196 1.86697C3.42892 1.10403 3.85798 0.296466 4.62092 0.0634322C5.38385 -0.169602 6.19142 0.259458 6.42445 1.02239C6.65749 1.78533 6.19244 5.20386 6.19244 5.20386C6.19244 5.20386 3.89499 2.6299 3.66196 1.86697ZM1.41921 7.66444C0.621448 7.6503 -0.0139049 6.99274 0.00023139 6.19498C0.0143676 5.39722 0.671929 4.76187 1.46969 4.77601C2.26745 4.79014 5.37509 6.28895 5.37509 6.28895C5.37509 6.28895 2.21663 7.6781 1.41921 7.66444ZM7.47684 5.64606C7.47684 5.64606 9.21498 2.66566 9.8686 2.20799C10.5222 1.75033 11.4227 1.9091 11.8803 2.56271C12.338 3.21632 12.1792 4.11677 11.5256 4.57443C10.872 5.0321 7.47684 5.64606 7.47684 5.64606ZM4.40387 12.484C3.64939 12.2245 3.24879 11.4025 3.50835 10.648C3.76792 9.89356 6.15421 7.40165 6.15421 7.40165C6.15421 7.40165 6.49975 10.8345 6.24019 11.589C5.98029 12.343 5.15835 12.7436 4.40387 12.484ZM9.72326 10.5234C9.08603 10.0435 7.45308 7.00424 7.45308 7.00424C7.45308 7.00424 10.8245 7.73645 11.4617 8.21637C12.0989 8.69629 12.2263 9.60237 11.746 10.2391C11.2661 10.8763 10.36 11.0037 9.72326 10.5234Z" transform="translate(7.516341 6.7729335)" id="Flor" fill="#FFFFFF" fill-rule="evenodd" stroke="none" />
        </g>
      </g>
      <g filter="url(#filter_1)">
        <g id="Flor" transform="translate(20 16)">
          <path d="M30.1029 32.6703L30.3614 30.356L32.675 30.097C35.5221 29.7773 37.7854 27.9802 38.729 25.2864C39.7948 22.2441 38.7941 18.9275 36.1823 17.0047L34.3082 15.625L35.2404 13.4913C36.4685 10.6849 35.8853 7.59569 33.7193 5.42968C31.5533 3.26367 28.4641 2.68045 25.6571 3.90799L23.5239 4.8408L22.1437 2.96612C20.2209 0.357746 16.9037 -0.64578 13.8615 0.419971C11.1688 1.36353 9.3705 3.62684 9.05202 6.47394L8.79293 8.78759L6.47928 9.04667C3.63162 9.36572 1.36831 11.164 0.42475 13.8567C-0.512591 16.533 0.126633 19.4179 2.09352 21.3848L2.09409 21.3854C2.36279 21.6541 2.65751 21.907 2.9709 22.1378L4.84558 23.518L3.9122 25.6518C2.68579 28.4587 3.26902 31.5479 5.43503 33.714C7.60103 35.88 10.6902 36.4632 13.4972 35.2368L15.6309 34.3034L17.0112 36.1781C18.9283 38.7887 22.2512 39.79 25.294 38.7248C27.9866 37.7801 29.7844 35.5174 30.1029 32.6703Z" transform="translate(0.42298144 0.42783925)" id="Flor" fill="#FDB599" fill-rule="evenodd" stroke="none" />
          <path d="M9.88559 12.1947C10.0915 12.9629 9.63556 13.7526 8.86735 13.9585C8.09915 14.1644 7.30889 13.7079 7.10355 12.9403C6.8982 12.1727 7.00399 7.00399 7.00399 7.00399C7.00399 7.00399 4.51158 11.5329 3.94929 12.0952C3.38756 12.6569 2.47511 12.6574 1.91282 12.0952C1.35053 11.5329 1.35109 10.6204 1.91282 10.0587C2.47511 9.4964 7.00399 7.00399 7.00399 7.00399C7.00399 7.00399 1.83588 7.11034 1.06768 6.90443C0.299483 6.69852 -0.15646 5.90882 0.0494499 5.14062C0.255359 4.37242 1.04506 3.91648 1.81326 4.12239C2.58146 4.32829 7.00399 7.00399 7.00399 7.00399C7.00399 7.00399 4.32829 2.58146 4.12239 1.81326C3.91648 1.04506 4.37242 0.255359 5.14062 0.0494499C5.90882 -0.15646 6.69852 0.299483 6.90443 1.06768C7.11034 1.83588 7.00399 7.00399 7.00399 7.00399C7.00399 7.00399 9.4964 2.47511 10.0587 1.91282C10.621 1.35053 11.5329 1.35053 12.0952 1.91282C12.6574 2.47511 12.6574 3.38699 12.0952 3.94929C11.5329 4.51158 7.00399 7.00399 7.00399 7.00399C7.00399 7.00399 12.1727 6.8982 12.9403 7.10355C13.7079 7.30889 14.1644 8.09915 13.9585 8.86735C13.7526 9.63556 12.9629 10.0915 12.1947 9.88559C11.4265 9.67968 7.00399 7.00399 7.00399 7.00399C7.00399 7.00399 9.67911 11.426 9.88559 12.1947Z" transform="translate(12.996014 12.996014)" id="Flor" fill="#FFFFFF" fill-rule="evenodd" stroke="none" />
        </g>
      </g>
      <g filter="url(#filter_1)">
        <g id="Flor" transform="translate(89 26)">
          <path d="M34.0142 29.7921C35.2034 28.2135 35.7068 26.2661 35.4321 24.3084C35.1574 22.3507 34.1358 20.6179 32.5584 19.4289C32.1328 19.1076 31.5711 18.8445 30.9334 18.6204C31.5787 18.4196 32.1489 18.1759 32.5853 17.8703C35.9273 15.5302 36.7431 10.9068 34.4026 7.56412C32.062 4.22141 27.4384 3.40674 24.0964 5.74686C23.6599 6.05246 23.236 6.5049 22.8258 7.04302C22.8341 6.36674 22.7782 5.7494 22.6219 5.23951C22.0443 3.34943 20.7642 1.79658 19.019 0.869557C17.274 -0.0586102 15.2717 -0.250507 13.3811 0.326485C9.47913 1.51996 7.27532 5.6648 8.46764 9.56661C8.62318 10.074 8.91424 10.613 9.29665 11.1663C8.6592 10.9511 8.05996 10.8207 7.52964 10.8116C3.44976 10.7404 0.0728946 14.0013 0.00105188 18.0816C-0.0260029 19.7016 0.470172 21.2101 1.3351 22.4453C2.6492 24.3206 4.8116 25.5668 7.27129 25.6091C7.80161 25.6182 8.40425 25.5084 9.04858 25.3162C8.6476 25.8559 8.3383 26.3846 8.16546 26.8861C7.36441 29.2126 7.79423 31.6699 9.10813 33.5464C9.97306 34.7816 11.2218 35.7651 12.753 36.2919C16.6112 37.6205 20.8306 35.5614 22.1584 31.7037C22.3313 31.2022 22.413 30.595 22.4295 29.9219C22.8186 30.4705 23.226 30.929 23.6492 31.2481C25.2281 32.438 27.1751 32.9407 29.1328 32.666C31.0916 32.3915 32.8249 31.3706 34.0142 29.7921Z" transform="translate(0.743744 0.030095775)" id="Flor" fill="#F7D30C" fill-rule="evenodd" stroke="none" />
          <path d="M5.21124 2.65684C4.87962 1.57112 5.4902 0.421894 6.57592 0.0902689C7.66163 -0.241356 8.81086 0.369228 9.14249 1.45494C9.47411 2.54066 8.81232 7.40549 8.81232 7.40549C8.81232 7.40549 5.54287 3.74255 5.21124 2.65684ZM2.01964 10.9071C0.884369 10.887 -0.0197877 9.95121 0.000329286 8.81594C0.0204463 7.68066 0.956207 6.77651 2.09148 6.79662C3.22675 6.81674 7.64917 8.94966 7.64917 8.94966C7.64917 8.94966 3.15444 10.9265 2.01964 10.9071ZM10.6401 8.03477C10.6401 8.03477 13.1136 3.79343 14.0438 3.14214C14.9739 2.49085 16.2553 2.7168 16.9066 3.64694C17.5579 4.57708 17.3319 5.85848 16.4018 6.50977C15.4717 7.16106 10.6401 8.03477 10.6401 8.03477ZM6.26705 17.7657C5.19336 17.3964 4.62327 16.2267 4.99265 15.153C5.36204 14.0793 8.75792 10.5331 8.75792 10.5331C8.75792 10.5331 9.24965 15.4183 8.88027 16.492C8.51041 17.565 7.34073 18.1351 6.26705 17.7657ZM13.8369 14.9756C12.9301 14.2927 10.6063 9.96758 10.6063 9.96758C10.6063 9.96758 15.4041 11.0096 16.3109 11.6925C17.2177 12.3755 17.3989 13.6649 16.7155 14.5711C16.0325 15.4779 14.7431 15.659 13.8369 14.9756Z" transform="translate(10.696332 9.638406)" id="Flor" fill="#FFFFFF" fill-rule="evenodd" stroke="none" />
        </g>
      </g>
      <g filter="url(#filter_1)">
        <g id="Flor" transform="translate(48 0)">
          <path d="M53.7611 31.4268C55.5857 24.4434 47.767 19.0123 44.8077 17.2421C45.3221 14.3081 46.4806 4.68105 40.3401 1.12624C34.2353 -2.40789 26.5468 3.32998 24.2245 5.27442C24.0241 5.14911 23.7888 5.00626 23.5209 4.85116C20.4546 3.07605 12.7533 -0.500119 7.47307 4.61676C1.8279 10.0849 5.16048 18.6197 6.42835 21.3145C4.26893 23.3253 -1.95621 29.9064 0.610038 36.9044C1.31593 38.8334 2.62139 40.36 4.49191 41.4428C8.52272 43.7763 14.0992 43.4001 16.2149 43.1496C17.2081 45.03 20.0452 49.8618 24.1028 52.2108C25.7728 53.1776 27.4782 53.6236 29.1734 53.5357C36.0784 53.1776 39.0896 43.5406 39.8433 40.6231C42.7044 40.227 51.9294 38.4247 53.7611 31.4268Z" transform="translate(0.3768387 0.11960688)" id="Flor" fill="#FF7398" fill-rule="evenodd" stroke="none" />
          <path d="M9.34273 9.10668C9.34273 9.10668 13.0277 17.2945 9.69611 17.8175C6.36194 18.3376 8.2359 9.22523 8.2359 9.22523C8.2359 9.22523 1.12414 15.2327 0.0858542 12.254C-0.953492 9.27464 7.78701 8.20606 7.78701 8.20606C7.78701 8.20606 -0.200705 3.51348 2.39333 1.36967C4.98736 -0.77413 8.6094 7.46127 8.6094 7.46127C8.6094 7.46127 10.5539 -1.45779 13.4299 0.207128C16.3058 1.87205 9.57266 8.01892 9.57266 8.01892C9.57266 8.01892 18.4496 7.02929 17.9419 10.371C17.437 13.7128 9.34273 9.10668 9.34273 9.10668Z" transform="translate(18.42158 16.496384)" id="Flor" fill="#FFFFFF" fill-rule="evenodd" stroke="none" />
        </g>
      </g>
    </g>
    <g id="Arete" transform="translate(182 129)">
      <path d="M0.999 0L1.001 0Q1.09939 0 1.1959 0.0191955Q1.2924 0.038391 1.3833 0.0760443Q1.4742 0.113698 1.55601 0.168362Q1.63783 0.223026 1.7074 0.2926Q1.77697 0.362175 1.83164 0.443985Q1.8863 0.525796 1.92396 0.616699Q1.96161 0.707602 1.9808 0.804105Q2 0.900607 2 0.999L2 38.001Q2 38.0994 1.9808 38.1959Q1.96161 38.2924 1.92396 38.3833Q1.8863 38.4742 1.83164 38.556Q1.77697 38.6378 1.7074 38.7074Q1.63783 38.777 1.55601 38.8316Q1.4742 38.8863 1.3833 38.924Q1.2924 38.9616 1.1959 38.9808Q1.09939 39 1.001 39L0.999 39Q0.900607 39 0.804105 38.9808Q0.707602 38.9616 0.616699 38.924Q0.525796 38.8863 0.443985 38.8316Q0.362175 38.777 0.2926 38.7074Q0.223026 38.6378 0.168362 38.556Q0.113698 38.4742 0.0760443 38.3833Q0.038391 38.2924 0.0191955 38.1959Q0 38.0994 0 38.001L0 0.999Q0 0.900607 0.0191955 0.804105Q0.038391 0.707602 0.0760443 0.616699Q0.113698 0.525796 0.168362 0.443985Q0.223026 0.362175 0.2926 0.2926Q0.362175 0.223026 0.443985 0.168362Q0.525796 0.113698 0.616699 0.0760443Q0.707602 0.038391 0.804105 0.0191955Q0.900607 0 0.999 0Z" transform="translate(9 0)" id="Cadenita" fill="#E6E6E6" fill-rule="evenodd" stroke="none" />
      <path d="M20 17L10.57 17L17 0L6 0L0 21L8.636 21L4 40L20 17Z" transform="translate(0 20)" id="Rayo" fill="#9177FF" fill-rule="evenodd" stroke="none" />
    </g>
    <g id="Facial-Hair" transform="translate(49 72)" />
    <g id="Accessory" transform="translate(62 85)" />
  </g>
</svg>