<?xml version="1.0" encoding="utf-8"?>
<svg width="266px" height="280px" viewbox="0 0 266 280" version="1.1" xmlns:xlink="http://www.w3.org/1999/xlink" xmlns="http://www.w3.org/2000/svg">
  <defs>
    <path d="M116 0C104.789 0 94.0903 2.1964 84.3118 6.18239C83.3891 6.06191 82.4509 6 81.5 6C74.799 6 68.7263 9.07458 64.303 14.0567C46.2593 14.9906 30.8398 27.3691 23.5294 44.9571C15.5066 49.5566 10 59.0434 10 70C10 70.5793 10.0154 71.1545 10.0457 71.7251C3.73897 81.2645 0 93.1345 0 106C0 113.331 1.21408 120.339 3.42553 126.777C3.14615 128.469 3 130.215 3 132C3 141.454 7.09985 149.814 13.3785 154.884C20.7403 172.684 36.6099 185 55 185C56.4981 185 57.9795 184.918 59.441 184.758C64.8892 189.907 71.8785 193 79.5 193C83.9413 193 88.1679 191.95 92 190.054L92 180.597Q91.177 180.206 90.3672 179.79Q89.5573 179.373 88.7615 178.93Q87.9656 178.487 87.1846 178.018Q86.4036 177.549 85.6382 177.055Q84.8728 176.562 84.1239 176.043Q83.375 175.525 82.6434 174.982Q81.9118 174.439 81.1982 173.873Q80.4845 173.307 79.7897 172.718Q79.0949 172.129 78.4196 171.518Q77.7443 170.907 77.0892 170.274Q76.4342 169.641 75.8 168.987Q75.1659 168.333 74.5534 167.659Q73.9408 166.985 73.3505 166.291Q72.7602 165.598 72.1928 164.885Q71.6254 164.173 71.0815 163.442Q70.5375 162.711 70.0176 161.964Q69.4978 161.216 69.0025 160.451Q68.5072 159.687 68.037 158.907Q67.5668 158.126 67.1223 157.331Q66.6777 156.536 66.2593 155.727Q65.8408 154.918 65.4489 154.096Q65.057 153.274 64.692 152.439Q64.327 151.605 63.9894 150.759Q63.6518 149.913 63.3418 149.056Q63.0319 148.2 62.7499 147.334Q62.468 146.468 62.2144 145.593Q61.9608 144.718 61.7358 143.835Q61.5107 142.953 61.3145 142.063Q61.1183 141.174 60.9512 140.278Q60.784 139.383 60.646 138.483Q60.5081 137.582 60.3995 136.678Q60.2909 135.774 60.2117 134.866Q59.9482 134.826 59.6867 134.775Q59.4252 134.724 59.1662 134.661Q58.9072 134.598 58.6513 134.524Q58.3954 134.449 58.143 134.364Q57.8906 134.278 57.6423 134.181Q57.3939 134.084 57.1502 133.977Q56.9064 133.869 56.6676 133.751Q56.4289 133.632 56.1956 133.503Q55.9623 133.374 55.735 133.235Q55.5077 133.096 55.2868 132.947Q55.0659 132.798 54.8518 132.639Q54.6377 132.48 54.4309 132.312Q54.2241 132.144 54.0249 131.967Q53.8258 131.79 53.6347 131.604Q53.4436 131.418 53.261 131.224Q53.0783 131.03 52.9045 130.828Q52.7306 130.626 52.5659 130.417Q52.4012 130.207 52.2459 129.991Q52.0907 129.774 51.9452 129.551Q51.7997 129.327 51.6643 129.098Q51.5289 128.868 51.4038 128.633Q51.2787 128.398 51.1642 128.157Q51.0497 127.916 50.946 127.671Q50.8423 127.425 50.7495 127.175Q50.6568 126.926 50.5753 126.672Q50.4937 126.418 50.4236 126.161Q50.3534 125.904 50.2947 125.644Q50.236 125.384 50.1889 125.122Q50.1418 124.859 50.1064 124.595Q50.071 124.331 50.0473 124.065Q50.0237 123.8 50.0118 123.534Q50 123.268 50 123.001L50 109.999Q50 109.284 50.085 108.574Q50.1699 107.863 50.3387 107.168Q50.5074 106.473 50.7575 105.803Q51.0076 105.133 51.3355 104.498C54.0361 103.695 57.0101 101.445 59.9886 98.1696L60 98.1677L60 98.1571C66.8664 90.6014 73.7549 77.6023 77.3694 64.3345C88.4864 66.0718 101.905 67.0868 116.354 67.0868C130.513 67.0868 143.683 66.112 154.668 64.438C158.288 77.6642 165.154 90.6101 172 98.1476L172 98.1677Q172.011 98.1695 172.022 98.1714C174.996 101.441 177.966 103.689 180.663 104.495Q180.991 105.13 181.242 105.801Q181.492 106.471 181.661 107.167Q181.83 107.862 181.915 108.573Q182 109.283 182 109.999L182 123.001Q182 123.268 181.988 123.534Q181.976 123.8 181.953 124.065Q181.929 124.331 181.894 124.595Q181.858 124.859 181.811 125.122Q181.764 125.384 181.705 125.644Q181.647 125.904 181.576 126.161Q181.506 126.418 181.425 126.672Q181.343 126.925 181.25 127.175Q181.158 127.425 181.054 127.671Q180.95 127.916 180.836 128.157Q180.721 128.398 180.596 128.633Q180.471 128.868 180.336 129.098Q180.2 129.327 180.055 129.551Q179.909 129.774 179.754 129.991Q179.599 130.207 179.434 130.417Q179.269 130.626 179.096 130.828Q178.922 131.03 178.739 131.224Q178.556 131.418 178.365 131.604Q178.174 131.79 177.975 131.967Q177.776 132.144 177.569 132.312Q177.362 132.48 177.148 132.639Q176.934 132.798 176.713 132.947Q176.492 133.096 176.265 133.235Q176.038 133.374 175.804 133.503Q175.571 133.632 175.332 133.751Q175.094 133.869 174.85 133.977Q174.606 134.084 174.358 134.181Q174.109 134.278 173.857 134.364Q173.605 134.449 173.349 134.524Q173.093 134.598 172.834 134.661Q172.575 134.724 172.313 134.775Q172.052 134.826 171.788 134.866Q171.709 135.774 171.601 136.678Q171.492 137.582 171.354 138.483Q171.216 139.383 171.049 140.278Q170.882 141.174 170.685 142.063Q170.489 142.953 170.264 143.835Q170.039 144.718 169.786 145.593Q169.532 146.468 169.25 147.334Q168.968 148.2 168.658 149.056Q168.348 149.913 168.011 150.759Q167.673 151.605 167.308 152.439Q166.943 153.274 166.551 154.096Q166.159 154.918 165.741 155.727Q165.322 156.536 164.878 157.331Q164.433 158.126 163.963 158.907Q163.493 159.687 162.998 160.451Q162.502 161.216 161.982 161.964Q161.462 162.711 160.919 163.442Q160.375 164.173 159.807 164.885Q159.24 165.598 158.649 166.291Q158.059 166.985 157.447 167.659Q156.834 168.333 156.2 168.987Q155.566 169.641 154.911 170.274Q154.256 170.907 153.58 171.518Q152.905 172.129 152.21 172.718Q151.515 173.307 150.802 173.873Q150.088 174.439 149.357 174.982Q148.625 175.525 147.876 176.043Q147.127 176.562 146.362 177.055Q145.596 177.549 144.815 178.018Q144.034 178.487 143.238 178.93Q142.443 179.373 141.633 179.79Q140.823 180.206 140 180.597L140 190.054C143.832 191.95 148.059 193 152.5 193C160.121 193 167.111 189.907 172.559 184.758C174.02 184.918 175.502 185 177 185C195.39 185 211.26 172.683 218.622 154.884C224.9 149.814 229 141.454 229 132C229 130.215 228.854 128.469 228.574 126.777C230.786 120.339 232 113.331 232 106C232 93.1345 228.261 81.2645 221.954 71.7251C221.985 71.1545 222 70.5793 222 70C222 59.0434 216.493 49.5566 208.471 44.9571C201.16 27.3691 185.741 14.9906 167.697 14.0567C163.274 9.07458 157.201 6 150.5 6C149.549 6 148.611 6.06191 147.688 6.18239C137.91 2.1964 127.211 0 116 0Z" id="path_1" />
    <clipPath id="mask_1">
      <use xlink:href="#path_1" />
    </clipPath>
  </defs>
  <g id="TopLong-HairFro">
    <path d="M132 75.6691C122.978 74.5992 110.13 55.2839 104.668 35.3306C93.6833 37.0046 80.513 37.9793 66.3538 37.9793C51.9052 37.9793 38.4864 36.9643 27.3694 35.2271C21.9218 55.2235 9.03755 74.6098 -2.44249e-15 75.6701L0 54.8916Q0 53.8788 0.0310726 52.8666Q0.0621453 51.8543 0.124261 50.8435Q0.186377 49.8327 0.279478 48.8242Q0.372579 47.8158 0.496577 46.8107Q0.620576 45.8056 0.775354 44.8047Q0.930133 43.8039 1.11555 42.8083Q1.30096 41.8127 1.51683 40.8232Q1.73271 39.8338 1.97884 38.8514Q2.22497 37.869 2.50112 36.8947Q2.77728 35.9203 3.0832 34.9549Q3.38912 33.9895 3.72452 33.0339Q4.05992 32.0783 4.42447 31.1335Q4.78903 30.1887 5.18241 29.2554Q5.57579 28.3222 5.99761 27.4015Q6.41944 26.4808 6.86931 25.5735Q7.31918 24.6662 7.79669 23.7731Q8.27419 22.88 8.77887 22.002Q9.28354 21.124 9.81492 20.2618Q10.3463 19.3997 10.9039 18.5543Q11.4615 17.7089 12.0447 16.881Q12.628 16.0531 13.2364 15.2434Q13.8448 14.4338 14.4777 13.6432Q15.1106 12.8527 15.7675 12.0819Q16.4244 11.3111 17.1047 10.5608Q17.7849 9.81057 18.4879 9.08153Q19.1908 8.35249 19.9158 7.64536Q20.6407 6.93823 21.3871 6.25368Q22.1334 5.56912 22.9004 4.90779Q23.6674 4.24646 24.4543 3.60897Q25.2412 2.97148 26.0473 2.35844Q26.8534 1.74539 27.6779 1.15737Q28.5025 0.569347 29.3446 0.00689922C29.8785 2.51522 30.2317 5.28753 30.3896 8.28537C40.8817 6.82183 53.1904 5.97935 66.3538 5.97935C79.2281 5.97935 91.2849 6.78524 101.624 8.18985C101.784 5.23064 102.135 2.49229 102.663 0.0119639Q103.505 0.574449 104.329 1.1625Q105.154 1.75055 105.959 2.36361Q106.765 2.97667 107.552 3.61417Q108.339 4.25167 109.106 4.913Q109.872 5.57433 110.619 6.25888Q111.365 6.94342 112.09 7.65053Q112.814 8.35765 113.517 9.08666Q114.22 9.81567 114.9 10.5659Q115.58 11.3161 116.237 12.0869Q116.893 12.8576 117.526 13.6481Q118.159 14.4387 118.767 15.2482Q119.375 16.0578 119.959 16.8856Q120.542 17.7135 121.099 18.5588Q121.657 19.4042 122.188 20.2662Q122.719 21.1282 123.224 22.0062Q123.728 22.8841 124.205 23.7771Q124.683 24.6701 125.133 25.5773Q125.582 26.4846 126.004 27.4052Q126.426 28.3258 126.819 29.2589Q127.212 30.192 127.577 31.1367Q127.941 32.0814 128.276 33.0369Q128.612 33.9923 128.918 34.9576Q129.223 35.9229 129.5 36.8971Q129.776 37.8714 130.022 38.8536Q130.268 39.8358 130.484 40.8252Q130.699 41.8145 130.885 42.81Q131.07 43.8054 131.225 44.8061Q131.38 45.8068 131.504 46.8118Q131.628 47.8168 131.721 48.8251Q131.814 49.8334 131.876 50.8441Q131.938 51.8547 131.969 52.8669Q132 53.879 132 54.8916L132 75.6691Z" transform="translate(67 34.107437)" id="Shadow" fill="#000000" fill-opacity="0.16078432" fill-rule="evenodd" stroke="none" />
    <g id="Hair" transform="translate(17 0)">
      <path d="M116 0C104.789 0 94.0903 2.1964 84.3118 6.18239C83.3891 6.06191 82.4509 6 81.5 6C74.799 6 68.7263 9.07458 64.303 14.0567C46.2593 14.9906 30.8398 27.3691 23.5294 44.9571C15.5066 49.5566 10 59.0434 10 70C10 70.5793 10.0154 71.1545 10.0457 71.7251C3.73897 81.2645 0 93.1345 0 106C0 113.331 1.21408 120.339 3.42553 126.777C3.14615 128.469 3 130.215 3 132C3 141.454 7.09985 149.814 13.3785 154.884C20.7403 172.684 36.6099 185 55 185C56.4981 185 57.9795 184.918 59.441 184.758C64.8892 189.907 71.8785 193 79.5 193C83.9413 193 88.1679 191.95 92 190.054L92 180.597Q91.177 180.206 90.3672 179.79Q89.5573 179.373 88.7615 178.93Q87.9656 178.487 87.1846 178.018Q86.4036 177.549 85.6382 177.055Q84.8728 176.562 84.1239 176.043Q83.375 175.525 82.6434 174.982Q81.9118 174.439 81.1982 173.873Q80.4845 173.307 79.7897 172.718Q79.0949 172.129 78.4196 171.518Q77.7443 170.907 77.0892 170.274Q76.4342 169.641 75.8 168.987Q75.1659 168.333 74.5534 167.659Q73.9408 166.985 73.3505 166.291Q72.7602 165.598 72.1928 164.885Q71.6254 164.173 71.0815 163.442Q70.5375 162.711 70.0176 161.964Q69.4978 161.216 69.0025 160.451Q68.5072 159.687 68.037 158.907Q67.5668 158.126 67.1223 157.331Q66.6777 156.536 66.2593 155.727Q65.8408 154.918 65.4489 154.096Q65.057 153.274 64.692 152.439Q64.327 151.605 63.9894 150.759Q63.6518 149.913 63.3418 149.056Q63.0319 148.2 62.7499 147.334Q62.468 146.468 62.2144 145.593Q61.9608 144.718 61.7358 143.835Q61.5107 142.953 61.3145 142.063Q61.1183 141.174 60.9512 140.278Q60.784 139.383 60.646 138.483Q60.5081 137.582 60.3995 136.678Q60.2909 135.774 60.2117 134.866Q59.9482 134.826 59.6867 134.775Q59.4252 134.724 59.1662 134.661Q58.9072 134.598 58.6513 134.524Q58.3954 134.449 58.143 134.364Q57.8906 134.278 57.6423 134.181Q57.3939 134.084 57.1502 133.977Q56.9064 133.869 56.6676 133.751Q56.4289 133.632 56.1956 133.503Q55.9623 133.374 55.735 133.235Q55.5077 133.096 55.2868 132.947Q55.0659 132.798 54.8518 132.639Q54.6377 132.48 54.4309 132.312Q54.2241 132.144 54.0249 131.967Q53.8258 131.79 53.6347 131.604Q53.4436 131.418 53.261 131.224Q53.0783 131.03 52.9045 130.828Q52.7306 130.626 52.5659 130.417Q52.4012 130.207 52.2459 129.991Q52.0907 129.774 51.9452 129.551Q51.7997 129.327 51.6643 129.098Q51.5289 128.868 51.4038 128.633Q51.2787 128.398 51.1642 128.157Q51.0497 127.916 50.946 127.671Q50.8423 127.425 50.7495 127.175Q50.6568 126.926 50.5753 126.672Q50.4937 126.418 50.4236 126.161Q50.3534 125.904 50.2947 125.644Q50.236 125.384 50.1889 125.122Q50.1418 124.859 50.1064 124.595Q50.071 124.331 50.0473 124.065Q50.0237 123.8 50.0118 123.534Q50 123.268 50 123.001L50 109.999Q50 109.284 50.085 108.574Q50.1699 107.863 50.3387 107.168Q50.5074 106.473 50.7575 105.803Q51.0076 105.133 51.3355 104.498C54.0361 103.695 57.0101 101.445 59.9886 98.1696L60 98.1677L60 98.1571C66.8664 90.6014 73.7549 77.6023 77.3694 64.3345C88.4864 66.0718 101.905 67.0868 116.354 67.0868C130.513 67.0868 143.683 66.112 154.668 64.438C158.288 77.6642 165.154 90.6101 172 98.1476L172 98.1677Q172.011 98.1695 172.022 98.1714C174.996 101.441 177.966 103.689 180.663 104.495Q180.991 105.13 181.242 105.801Q181.492 106.471 181.661 107.167Q181.83 107.862 181.915 108.573Q182 109.283 182 109.999L182 123.001Q182 123.268 181.988 123.534Q181.976 123.8 181.953 124.065Q181.929 124.331 181.894 124.595Q181.858 124.859 181.811 125.122Q181.764 125.384 181.705 125.644Q181.647 125.904 181.576 126.161Q181.506 126.418 181.425 126.672Q181.343 126.925 181.25 127.175Q181.158 127.425 181.054 127.671Q180.95 127.916 180.836 128.157Q180.721 128.398 180.596 128.633Q180.471 128.868 180.336 129.098Q180.2 129.327 180.055 129.551Q179.909 129.774 179.754 129.991Q179.599 130.207 179.434 130.417Q179.269 130.626 179.096 130.828Q178.922 131.03 178.739 131.224Q178.556 131.418 178.365 131.604Q178.174 131.79 177.975 131.967Q177.776 132.144 177.569 132.312Q177.362 132.48 177.148 132.639Q176.934 132.798 176.713 132.947Q176.492 133.096 176.265 133.235Q176.038 133.374 175.804 133.503Q175.571 133.632 175.332 133.751Q175.094 133.869 174.85 133.977Q174.606 134.084 174.358 134.181Q174.109 134.278 173.857 134.364Q173.605 134.449 173.349 134.524Q173.093 134.598 172.834 134.661Q172.575 134.724 172.313 134.775Q172.052 134.826 171.788 134.866Q171.709 135.774 171.601 136.678Q171.492 137.582 171.354 138.483Q171.216 139.383 171.049 140.278Q170.882 141.174 170.685 142.063Q170.489 142.953 170.264 143.835Q170.039 144.718 169.786 145.593Q169.532 146.468 169.25 147.334Q168.968 148.2 168.658 149.056Q168.348 149.913 168.011 150.759Q167.673 151.605 167.308 152.439Q166.943 153.274 166.551 154.096Q166.159 154.918 165.741 155.727Q165.322 156.536 164.878 157.331Q164.433 158.126 163.963 158.907Q163.493 159.687 162.998 160.451Q162.502 161.216 161.982 161.964Q161.462 162.711 160.919 163.442Q160.375 164.173 159.807 164.885Q159.24 165.598 158.649 166.291Q158.059 166.985 157.447 167.659Q156.834 168.333 156.2 168.987Q155.566 169.641 154.911 170.274Q154.256 170.907 153.58 171.518Q152.905 172.129 152.21 172.718Q151.515 173.307 150.802 173.873Q150.088 174.439 149.357 174.982Q148.625 175.525 147.876 176.043Q147.127 176.562 146.362 177.055Q145.596 177.549 144.815 178.018Q144.034 178.487 143.238 178.93Q142.443 179.373 141.633 179.79Q140.823 180.206 140 180.597L140 190.054C143.832 191.95 148.059 193 152.5 193C160.121 193 167.111 189.907 172.559 184.758C174.02 184.918 175.502 185 177 185C195.39 185 211.26 172.683 218.622 154.884C224.9 149.814 229 141.454 229 132C229 130.215 228.854 128.469 228.574 126.777C230.786 120.339 232 113.331 232 106C232 93.1345 228.261 81.2645 221.954 71.7251C221.985 71.1545 222 70.5793 222 70C222 59.0434 216.493 49.5566 208.471 44.9571C201.16 27.3691 185.741 14.9906 167.697 14.0567C163.274 9.07458 157.201 6 150.5 6C149.549 6 148.611 6.06191 147.688 6.18239C137.91 2.1964 127.211 0 116 0Z" id="Hair" fill="#314756" fill-rule="evenodd" stroke="none" />
      <g clip-path="url(#mask_1)">
        <g id="Hair-Color" transform="translate(-16 0)">
          <path d="M0 0L264 0L264 280L0 280L0 0Z" id="Color" fill="#4A312C" fill-rule="evenodd" stroke="none" />
        </g>
      </g>
    </g>
    <g id="Facial-Hair" transform="translate(49 72)" />
    <g id="Accessory" transform="translate(62 85)" />
  </g>
</svg>