<?xml version="1.0" encoding="utf-8"?>
<svg width="266px" height="280px" viewbox="0 0 266 280" version="1.1" xmlns:xlink="http://www.w3.org/1999/xlink" xmlns="http://www.w3.org/2000/svg">
  <defs>
    <path d="M249 70.5C249 71.2993 248.967 72.0909 248.903 72.8735C255.882 82.4492 260 94.2437 260 107C260 114.157 258.704 121.012 256.333 127.341C256.77 129.325 257 131.385 257 133.5C257 143.288 252.066 151.924 244.549 157.055C235.837 174.792 217.594 187 196.5 187C194.537 187 192.598 186.894 190.69 186.688C184.384 191.881 176.306 195 167.5 195C163.482 195 159.616 194.351 156 193.151L156 180.597Q156.823 180.206 157.633 179.79Q158.443 179.373 159.238 178.93Q160.034 178.487 160.815 178.018Q161.596 177.549 162.362 177.055Q163.127 176.562 163.876 176.043Q164.625 175.525 165.357 174.982Q166.088 174.439 166.802 173.873Q167.515 173.307 168.21 172.718Q168.905 172.129 169.58 171.518Q170.256 170.907 170.911 170.274Q171.566 169.641 172.2 168.987Q172.834 168.333 173.447 167.659Q174.059 166.985 174.649 166.291Q175.24 165.598 175.807 164.885Q176.375 164.173 176.919 163.442Q177.462 162.711 177.982 161.964Q178.502 161.216 178.998 160.451Q179.493 159.687 179.963 158.907Q180.433 158.126 180.878 157.331Q181.322 156.536 181.741 155.727Q182.159 154.918 182.551 154.096Q182.943 153.274 183.308 152.439Q183.673 151.605 184.011 150.759Q184.348 149.913 184.658 149.056Q184.968 148.2 185.25 147.334Q185.532 146.468 185.786 145.593Q186.039 144.718 186.264 143.835Q186.489 142.953 186.685 142.063Q186.882 141.174 187.049 140.278Q187.216 139.383 187.354 138.483Q187.492 137.582 187.601 136.678Q187.709 135.774 187.788 134.866Q188.052 134.826 188.313 134.775Q188.575 134.724 188.834 134.661Q189.093 134.598 189.349 134.524Q189.605 134.449 189.857 134.364Q190.109 134.278 190.358 134.181Q190.606 134.084 190.85 133.977Q191.094 133.869 191.332 133.751Q191.571 133.632 191.804 133.503Q192.038 133.374 192.265 133.235Q192.492 133.096 192.713 132.947Q192.934 132.798 193.148 132.639Q193.362 132.48 193.569 132.312Q193.776 132.144 193.975 131.967Q194.174 131.79 194.365 131.604Q194.556 131.418 194.739 131.224Q194.922 131.03 195.096 130.828Q195.269 130.626 195.434 130.417Q195.599 130.207 195.754 129.991Q195.909 129.774 196.055 129.551Q196.2 129.327 196.336 129.098Q196.471 128.868 196.596 128.633Q196.721 128.398 196.836 128.157Q196.95 127.916 197.054 127.671Q197.158 127.425 197.25 127.175Q197.343 126.925 197.425 126.672Q197.506 126.418 197.576 126.161Q197.647 125.904 197.705 125.644Q197.764 125.384 197.811 125.122Q197.858 124.859 197.894 124.595Q197.929 124.331 197.953 124.065Q197.976 123.8 197.988 123.534Q198 123.268 198 123.001L198 109.999Q198 109.736 197.988 109.473Q197.977 109.21 197.954 108.948Q197.931 108.686 197.896 108.425Q197.862 108.164 197.816 107.905Q197.77 107.646 197.713 107.389Q197.655 107.132 197.587 106.878Q197.519 106.624 197.439 106.373Q197.359 106.122 197.269 105.875Q197.179 105.628 197.077 105.385Q196.976 105.142 196.864 104.904Q196.753 104.665 196.631 104.432Q196.509 104.199 196.376 103.972Q196.244 103.744 196.102 103.523Q195.96 103.301 195.808 103.086Q195.657 102.871 195.496 102.663Q195.335 102.454 195.165 102.253Q194.995 102.052 194.817 101.859Q194.638 101.666 194.451 101.48Q194.265 101.295 194.07 101.118Q193.875 100.941 193.673 100.773Q193.47 100.605 193.261 100.445Q193.051 100.286 192.835 100.136Q192.619 99.9864 192.396 99.8461Q192.173 99.7059 191.945 99.5755Q191.716 99.4452 191.482 99.325Q191.248 99.2048 191.009 99.0949Q190.77 98.9851 190.526 98.8859Q190.282 98.7866 190.034 98.6982Q189.786 98.6097 189.535 98.5322Q189.283 98.4547 189.029 98.3883Q188.774 98.3219 188.517 98.2667Q188.259 98.2115 188 98.1677L188 91.999Q188 88.0418 187.443 84.1239Q186.887 80.206 185.785 76.4053L187.153 89.1947L175.813 65.1946L130.677 45.6707L100.563 56.2284L79.0648 76.4194L79.0211 73.8544Q78.2722 76.0408 77.7061 78.2814Q77.14 80.5221 76.7604 82.8018Q76.3809 85.0815 76.1904 87.3847Q76 89.6879 76 91.999L76 98.1677Q75.7405 98.2115 75.4832 98.2667Q75.2259 98.3219 74.9713 98.3883Q74.7166 98.4547 74.4651 98.5322Q74.2136 98.6097 73.9658 98.6982Q73.7179 98.7866 73.4742 98.8859Q73.2305 98.9851 72.9913 99.0949Q72.7522 99.2048 72.5181 99.325Q72.284 99.4452 72.0554 99.5755Q71.8267 99.7059 71.6041 99.8461Q71.3814 99.9864 71.1651 100.136Q70.9488 100.286 70.7393 100.445Q70.5297 100.605 70.3274 100.773Q70.125 100.941 69.9303 101.118Q69.7355 101.295 69.5487 101.48Q69.3618 101.666 69.1833 101.859Q69.0048 102.052 68.8349 102.253Q68.665 102.454 68.5041 102.663Q68.3432 102.871 68.1916 103.086Q68.04 103.301 67.8979 103.523Q67.7559 103.744 67.6237 103.972Q67.4915 104.199 67.3694 104.432Q67.2473 104.665 67.1356 104.904Q67.0238 105.142 66.9226 105.385Q66.8214 105.628 66.731 105.875Q66.6405 106.122 66.561 106.373Q66.4815 106.624 66.413 106.878Q66.3446 107.132 66.2873 107.389Q66.2301 107.646 66.1842 107.905Q66.1382 108.164 66.1037 108.425Q66.0692 108.686 66.0461 108.948Q66.0231 109.21 66.0115 109.473Q66 109.736 66 109.999L66 123.001Q66 123.268 66.0118 123.534Q66.0237 123.8 66.0473 124.065Q66.071 124.331 66.1064 124.595Q66.1418 124.859 66.1889 125.122Q66.236 125.384 66.2947 125.644Q66.3534 125.904 66.4236 126.161Q66.4937 126.418 66.5753 126.672Q66.6568 126.926 66.7495 127.175Q66.8423 127.425 66.946 127.671Q67.0497 127.916 67.1642 128.157Q67.2787 128.398 67.4038 128.633Q67.5289 128.868 67.6643 129.098Q67.7997 129.327 67.9452 129.551Q68.0907 129.774 68.2459 129.991Q68.4012 130.207 68.5659 130.417Q68.7306 130.626 68.9045 130.828Q69.0783 131.03 69.261 131.224Q69.4436 131.418 69.6347 131.604Q69.8258 131.79 70.0249 131.967Q70.2241 132.144 70.4309 132.312Q70.6377 132.48 70.8518 132.639Q71.0659 132.798 71.2868 132.947Q71.5077 133.096 71.735 133.235Q71.9623 133.374 72.1956 133.503Q72.4289 133.632 72.6676 133.751Q72.9064 133.869 73.1502 133.977Q73.394 134.084 73.6423 134.181Q73.8906 134.278 74.143 134.364Q74.3953 134.449 74.6513 134.524Q74.9072 134.598 75.1662 134.661Q75.4252 134.724 75.6867 134.775Q75.9482 134.826 76.2117 134.866Q76.2909 135.774 76.3995 136.678Q76.5081 137.582 76.646 138.483Q76.784 139.383 76.9512 140.278Q77.1183 141.174 77.3145 142.063Q77.5107 142.953 77.7358 143.835Q77.9608 144.718 78.2144 145.593Q78.468 146.468 78.7499 147.334Q79.0319 148.2 79.3418 149.056Q79.6518 149.913 79.9894 150.759Q80.327 151.605 80.692 152.439Q81.057 153.274 81.4489 154.096Q81.8408 154.918 82.2593 155.727Q82.6777 156.536 83.1223 157.331Q83.5668 158.126 84.037 158.907Q84.5072 159.687 85.0025 160.451Q85.4978 161.216 86.0176 161.964Q86.5375 162.711 87.0815 163.442Q87.6254 164.173 88.1928 164.885Q88.7602 165.598 89.3505 166.291Q89.9408 166.985 90.5534 167.659Q91.1659 168.333 91.8 168.987Q92.4342 169.641 93.0892 170.274Q93.7443 170.907 94.4196 171.518Q95.0949 172.129 95.7897 172.718Q96.4845 173.307 97.1982 173.873Q97.9118 174.439 98.6434 174.982Q99.375 175.525 100.124 176.043Q100.873 176.562 101.638 177.055Q102.404 177.549 103.185 178.018Q103.966 178.487 104.761 178.93Q105.557 179.373 106.367 179.79Q107.177 180.206 108 180.597L108 191.555C103.295 193.765 98.0419 195 92.5 195C83.6937 195 75.6157 191.881 69.3104 186.688C67.4019 186.894 65.4633 187 63.5 187C42.4056 187 24.1626 174.792 15.4511 157.055C7.93428 151.924 3 143.288 3 133.5C3 131.385 3.2303 129.325 3.66717 127.341C1.29639 121.012 0 114.157 0 107C0 94.2437 4.11812 82.4492 11.0974 72.8735C11.0329 72.0909 11 71.2993 11 70.5C11 59.2025 17.5735 49.4403 27.1043 44.8296C35.5367 26.7017 53.5577 13.9359 74.6501 13.0493C79.7819 8.06731 86.7827 5 94.5 5C96.827 5 99.0888 5.27887 101.254 5.80503C110.776 2.058 121.148 0 132 0C142.346 0 152.255 1.87044 161.408 5.2916C162.744 5.09944 164.11 5 165.5 5C173.217 5 180.218 8.06731 185.35 13.0493C206.442 13.9359 224.463 26.7017 232.896 44.8296C242.427 49.4403 249 59.2025 249 70.5Z" transform="translate(1 0)" id="path_1" />
    <clipPath id="mask_1">
      <use xlink:href="#path_1" />
    </clipPath>
  </defs>
  <g id="TopLong-HairFro-+-Band">
    <path d="M249 70.5C249 71.2993 248.967 72.0909 248.903 72.8735C255.882 82.4492 260 94.2437 260 107C260 114.157 258.704 121.012 256.333 127.341C256.77 129.325 257 131.385 257 133.5C257 143.288 252.066 151.924 244.549 157.055C235.837 174.792 217.594 187 196.5 187C194.537 187 192.598 186.894 190.69 186.688C184.384 191.881 176.306 195 167.5 195C163.482 195 159.616 194.351 156 193.151L156 180.597Q156.823 180.206 157.633 179.79Q158.443 179.373 159.238 178.93Q160.034 178.487 160.815 178.018Q161.596 177.549 162.362 177.055Q163.127 176.562 163.876 176.043Q164.625 175.525 165.357 174.982Q166.088 174.439 166.802 173.873Q167.515 173.307 168.21 172.718Q168.905 172.129 169.58 171.518Q170.256 170.907 170.911 170.274Q171.566 169.641 172.2 168.987Q172.834 168.333 173.447 167.659Q174.059 166.985 174.649 166.291Q175.24 165.598 175.807 164.885Q176.375 164.173 176.919 163.442Q177.462 162.711 177.982 161.964Q178.502 161.216 178.998 160.451Q179.493 159.687 179.963 158.907Q180.433 158.126 180.878 157.331Q181.322 156.536 181.741 155.727Q182.159 154.918 182.551 154.096Q182.943 153.274 183.308 152.439Q183.673 151.605 184.011 150.759Q184.348 149.913 184.658 149.056Q184.968 148.2 185.25 147.334Q185.532 146.468 185.786 145.593Q186.039 144.718 186.264 143.835Q186.489 142.953 186.685 142.063Q186.882 141.174 187.049 140.278Q187.216 139.383 187.354 138.483Q187.492 137.582 187.601 136.678Q187.709 135.774 187.788 134.866Q188.052 134.826 188.313 134.775Q188.575 134.724 188.834 134.661Q189.093 134.598 189.349 134.524Q189.605 134.449 189.857 134.364Q190.109 134.278 190.358 134.181Q190.606 134.084 190.85 133.977Q191.094 133.869 191.332 133.751Q191.571 133.632 191.804 133.503Q192.038 133.374 192.265 133.235Q192.492 133.096 192.713 132.947Q192.934 132.798 193.148 132.639Q193.362 132.48 193.569 132.312Q193.776 132.144 193.975 131.967Q194.174 131.79 194.365 131.604Q194.556 131.418 194.739 131.224Q194.922 131.03 195.096 130.828Q195.269 130.626 195.434 130.417Q195.599 130.207 195.754 129.991Q195.909 129.774 196.055 129.551Q196.2 129.327 196.336 129.098Q196.471 128.868 196.596 128.633Q196.721 128.398 196.836 128.157Q196.95 127.916 197.054 127.671Q197.158 127.425 197.25 127.175Q197.343 126.925 197.425 126.672Q197.506 126.418 197.576 126.161Q197.647 125.904 197.705 125.644Q197.764 125.384 197.811 125.122Q197.858 124.859 197.894 124.595Q197.929 124.331 197.953 124.065Q197.976 123.8 197.988 123.534Q198 123.268 198 123.001L198 109.999Q198 109.736 197.988 109.473Q197.977 109.21 197.954 108.948Q197.931 108.686 197.896 108.425Q197.862 108.164 197.816 107.905Q197.77 107.646 197.713 107.389Q197.655 107.132 197.587 106.878Q197.519 106.624 197.439 106.373Q197.359 106.122 197.269 105.875Q197.179 105.628 197.077 105.385Q196.976 105.142 196.864 104.904Q196.753 104.665 196.631 104.432Q196.509 104.199 196.376 103.972Q196.244 103.744 196.102 103.523Q195.96 103.301 195.808 103.086Q195.657 102.871 195.496 102.663Q195.335 102.454 195.165 102.253Q194.995 102.052 194.817 101.859Q194.638 101.666 194.451 101.48Q194.265 101.295 194.07 101.118Q193.875 100.941 193.673 100.773Q193.47 100.605 193.261 100.445Q193.051 100.286 192.835 100.136Q192.619 99.9864 192.396 99.8461Q192.173 99.7059 191.945 99.5755Q191.716 99.4452 191.482 99.325Q191.248 99.2048 191.009 99.0949Q190.77 98.9851 190.526 98.8859Q190.282 98.7866 190.034 98.6982Q189.786 98.6097 189.535 98.5322Q189.283 98.4547 189.029 98.3883Q188.774 98.3219 188.517 98.2667Q188.259 98.2115 188 98.1677L188 91.999Q188 88.0418 187.443 84.1239Q186.887 80.206 185.785 76.4053L187.153 89.1947L175.813 65.1946L130.677 45.6707L100.563 56.2284L79.0648 76.4194L79.0211 73.8544Q78.2722 76.0408 77.7061 78.2814Q77.14 80.5221 76.7604 82.8018Q76.3809 85.0815 76.1904 87.3847Q76 89.6879 76 91.999L76 98.1677Q75.7405 98.2115 75.4832 98.2667Q75.2259 98.3219 74.9713 98.3883Q74.7166 98.4547 74.4651 98.5322Q74.2136 98.6097 73.9658 98.6982Q73.7179 98.7866 73.4742 98.8859Q73.2305 98.9851 72.9913 99.0949Q72.7522 99.2048 72.5181 99.325Q72.284 99.4452 72.0554 99.5755Q71.8267 99.7059 71.6041 99.8461Q71.3814 99.9864 71.1651 100.136Q70.9488 100.286 70.7393 100.445Q70.5297 100.605 70.3274 100.773Q70.125 100.941 69.9303 101.118Q69.7355 101.295 69.5487 101.48Q69.3618 101.666 69.1833 101.859Q69.0048 102.052 68.8349 102.253Q68.665 102.454 68.5041 102.663Q68.3432 102.871 68.1916 103.086Q68.04 103.301 67.8979 103.523Q67.7559 103.744 67.6237 103.972Q67.4915 104.199 67.3694 104.432Q67.2473 104.665 67.1356 104.904Q67.0238 105.142 66.9226 105.385Q66.8214 105.628 66.731 105.875Q66.6405 106.122 66.561 106.373Q66.4815 106.624 66.413 106.878Q66.3446 107.132 66.2873 107.389Q66.2301 107.646 66.1842 107.905Q66.1382 108.164 66.1037 108.425Q66.0692 108.686 66.0461 108.948Q66.0231 109.21 66.0115 109.473Q66 109.736 66 109.999L66 123.001Q66 123.268 66.0118 123.534Q66.0237 123.8 66.0473 124.065Q66.071 124.331 66.1064 124.595Q66.1418 124.859 66.1889 125.122Q66.236 125.384 66.2947 125.644Q66.3534 125.904 66.4236 126.161Q66.4937 126.418 66.5753 126.672Q66.6568 126.926 66.7495 127.175Q66.8423 127.425 66.946 127.671Q67.0497 127.916 67.1642 128.157Q67.2787 128.398 67.4038 128.633Q67.5289 128.868 67.6643 129.098Q67.7997 129.327 67.9452 129.551Q68.0907 129.774 68.2459 129.991Q68.4012 130.207 68.5659 130.417Q68.7306 130.626 68.9045 130.828Q69.0783 131.03 69.261 131.224Q69.4436 131.418 69.6347 131.604Q69.8258 131.79 70.0249 131.967Q70.2241 132.144 70.4309 132.312Q70.6377 132.48 70.8518 132.639Q71.0659 132.798 71.2868 132.947Q71.5077 133.096 71.735 133.235Q71.9623 133.374 72.1956 133.503Q72.4289 133.632 72.6676 133.751Q72.9064 133.869 73.1502 133.977Q73.394 134.084 73.6423 134.181Q73.8906 134.278 74.143 134.364Q74.3953 134.449 74.6513 134.524Q74.9072 134.598 75.1662 134.661Q75.4252 134.724 75.6867 134.775Q75.9482 134.826 76.2117 134.866Q76.2909 135.774 76.3995 136.678Q76.5081 137.582 76.646 138.483Q76.784 139.383 76.9512 140.278Q77.1183 141.174 77.3145 142.063Q77.5107 142.953 77.7358 143.835Q77.9608 144.718 78.2144 145.593Q78.468 146.468 78.7499 147.334Q79.0319 148.2 79.3418 149.056Q79.6518 149.913 79.9894 150.759Q80.327 151.605 80.692 152.439Q81.057 153.274 81.4489 154.096Q81.8408 154.918 82.2593 155.727Q82.6777 156.536 83.1223 157.331Q83.5668 158.126 84.037 158.907Q84.5072 159.687 85.0025 160.451Q85.4978 161.216 86.0176 161.964Q86.5375 162.711 87.0815 163.442Q87.6254 164.173 88.1928 164.885Q88.7602 165.598 89.3505 166.291Q89.9408 166.985 90.5534 167.659Q91.1659 168.333 91.8 168.987Q92.4342 169.641 93.0892 170.274Q93.7443 170.907 94.4196 171.518Q95.0949 172.129 95.7897 172.718Q96.4845 173.307 97.1982 173.873Q97.9118 174.439 98.6434 174.982Q99.375 175.525 100.124 176.043Q100.873 176.562 101.638 177.055Q102.404 177.549 103.185 178.018Q103.966 178.487 104.761 178.93Q105.557 179.373 106.367 179.79Q107.177 180.206 108 180.597L108 191.555C103.295 193.765 98.0419 195 92.5 195C83.6937 195 75.6157 191.881 69.3104 186.688C67.4019 186.894 65.4633 187 63.5 187C42.4056 187 24.1626 174.792 15.4511 157.055C7.93428 151.924 3 143.288 3 133.5C3 131.385 3.2303 129.325 3.66717 127.341C1.29639 121.012 0 114.157 0 107C0 94.2437 4.11812 82.4492 11.0974 72.8735C11.0329 72.0909 11 71.2993 11 70.5C11 59.2025 17.5735 49.4403 27.1043 44.8296C35.5367 26.7017 53.5577 13.9359 74.6501 13.0493C79.7819 8.06731 86.7827 5 94.5 5C96.827 5 99.0888 5.27887 101.254 5.80503C110.776 2.058 121.148 0 132 0C142.346 0 152.255 1.87044 161.408 5.2916C162.744 5.09944 164.11 5 165.5 5C173.217 5 180.218 8.06731 185.35 13.0493C206.442 13.9359 224.463 26.7017 232.896 44.8296C242.427 49.4403 249 59.2025 249 70.5Z" transform="translate(1 0)" id="Hair" fill="#314756" fill-rule="evenodd" stroke="none" />
    <g clip-path="url(#mask_1)">
      <g id="Hair-Color" transform="translate(1 0)">
        <path d="M0 0L264 0L264 280L0 280L0 0Z" id="Color" fill="#2C1B18" fill-rule="evenodd" stroke="none" />
      </g>
    </g>
    <path d="M0.63139 59.975C4.72044 34.8832 28.1763 15.6457 56.5 15.6457C84.8237 15.6457 108.28 34.8832 112.369 59.975C112.784 57.4232 113 54.8109 113 52.1522C113 23.3493 87.7041 0 56.5 0C25.2959 0 0 23.3493 0 52.1522C0 54.8109 0.215547 57.4232 0.63139 59.975Z" transform="translate(76 39)" id="Band" fill="#92D9FF" fill-rule="evenodd" stroke="none" />
    <g id="Facial-Hair" transform="translate(49 72)" />
    <g id="Accessory" transform="translate(62 85)" />
  </g>
</svg>