<?xml version="1.0" encoding="utf-8"?>
<svg width="266px" height="280px" viewbox="0 0 266 280" version="1.1" xmlns:xlink="http://www.w3.org/1999/xlink" xmlns="http://www.w3.org/2000/svg">
  <defs>
    <path d="M225.481 153.844C225.708 154.161 225.927 154.467 226.135 154.759C230.969 161.55 237.233 168.76 238.378 176.812C238.833 180.01 239.086 193.048 230.836 188.244C230.766 189.381 230.667 190.264 230.581 191.023C230.34 193.176 230.21 194.328 231.176 197.449C232.062 200.308 233.256 206.065 227.312 205.545C227.471 205.98 227.637 206.427 227.806 206.884C230.045 212.918 232.954 220.759 229.795 226.704C224.207 237.222 217.902 223.972 216.224 219.219C216.326 222.499 212.799 228.409 208.386 223.85C208.465 225.079 208.638 226.461 208.82 227.921C209.442 232.892 210.178 238.78 207.725 242.703C201.565 252.556 194.749 240.082 194.52 234.807C194.279 235.579 194.13 236.587 193.969 237.671C193.389 241.591 192.66 246.513 186.928 244.957C180.603 243.241 182.889 234.867 184.112 231.088C182.101 234.644 179.63 239.94 179.241 243.956C179.165 244.733 179.272 245.745 179.387 246.83C179.784 250.572 180.272 255.185 173.686 254.006C167.166 252.84 166.933 243.115 167.045 238.827C167.075 237.669 167.468 236.015 167.895 234.219C168.75 230.622 169.74 226.458 168.221 224.571C161.698 227.308 162.021 233.362 162.33 239.152C162.623 244.659 162.904 249.926 157.269 251.874C153.731 253.096 150.945 251.279 149.489 248.686C149.308 248.201 149.129 247.718 148.949 247.234C149.35 245.541 148.592 244.672 146.672 244.629C145.456 243.151 144.657 243.195 143.871 240.978C141.558 234.458 146.062 225.788 149.3 219.973C145.948 223.03 143.247 227.229 139.61 229.889C137.149 231.688 133.524 232.201 131.225 229.713C129.109 227.425 130.452 225.216 131.74 223.095C131.985 222.693 132.227 222.293 132.444 221.896C135.444 216.411 140.171 213.216 145.112 208.814C149.431 204.967 153.281 200.635 157.112 196.448C160.352 192.907 163.411 189.028 165.717 184.896L141 184.896L141 166.493Q142.033 166.003 143.045 165.472Q144.057 164.94 145.046 164.368Q146.035 163.795 147 163.183Q147.965 162.571 148.905 161.92Q149.844 161.268 150.756 160.58Q151.668 159.891 152.551 159.165Q153.434 158.439 154.287 157.678Q155.14 156.917 155.961 156.122Q156.782 155.327 157.57 154.499Q158.358 153.671 159.111 152.811Q159.865 151.952 160.582 151.062Q161.3 150.173 161.981 149.255Q162.662 148.337 163.305 147.391Q163.947 146.446 164.551 145.476Q165.155 144.505 165.719 143.511Q166.282 142.517 166.805 141.5C166.91 138.226 167.082 134.403 167.267 130.325C167.812 118.241 168.459 103.918 167.748 94.9882C166.477 79.0464 166.356 70.1436 155.555 56.3458C146.672 44.9995 122.401 48.7464 113.318 38.3352C109.194 43.1156 103.176 45.6563 96.583 47.3258C90.068 48.9744 83.5226 49.2432 79.1633 53.889C71.3612 62.2033 67.9265 67.7687 65.5371 78.1441C62.8889 89.6446 62.1959 101.042 63.0009 112.723C63.6092 121.549 63.4482 130.838 66.1794 139.418Q66.6899 140.521 67.2477 141.601Q67.8056 142.681 68.4098 143.736Q69.014 144.79 69.6634 145.818Q70.3128 146.845 71.0062 147.843Q71.6995 148.841 72.4355 149.809Q73.1716 150.776 73.9488 151.71Q74.7261 152.645 75.5432 153.544Q76.3603 154.444 77.2157 155.308Q78.0711 156.171 78.9631 156.997Q79.8551 157.822 80.7821 158.608Q81.7091 159.394 82.6693 160.139Q83.6296 160.885 84.6212 161.587Q85.6129 162.29 86.6341 162.949Q87.6553 163.608 88.7042 164.222Q89.753 164.836 90.8275 165.404Q91.902 165.972 93.0002 166.493L93.0002 184.896L85.7039 184.896C86.3829 188.357 86.8119 191.876 86.5301 195.31C86.4171 196.686 86.2642 198.037 86.1124 199.378C85.7137 202.901 85.3227 206.356 85.6838 210.013C86.7203 220.515 91.0926 230.496 94.7013 240.52C95.3191 242.236 96.6848 244.06 98.0453 245.877C100.503 249.16 102.943 252.42 100.931 254.98C97.8041 258.957 87.116 249.51 84.7255 244.931C82.292 240.268 80.0787 235.522 77.5457 230.896C79.1726 237.974 79.9848 240.967 81.6682 248.036C81.8168 248.661 82.0663 249.439 82.3449 250.307C83.7131 254.574 85.7837 261.031 80.0668 262.251C72.4773 263.872 71.0793 253.674 70.289 247.91C70.1481 246.882 70.0266 245.995 69.8927 245.341C68.4213 238.159 66.7872 235.369 64.3837 228.371C64.1935 230.494 64.2098 232.652 64.2261 234.813C64.2508 238.094 64.2756 241.385 63.5787 244.574C62.8818 247.764 59.2227 250.402 57.0246 253.107C51.0491 260.465 48.6858 252.194 47.0102 246.331C46.5736 244.803 46.1838 243.438 45.7888 242.556C42.484 244.958 35.2891 249.717 30.8814 246.695C28.1439 244.819 29.1715 241.661 30.0171 239.063C30.1769 238.572 30.3302 238.101 30.4504 237.662C31.6685 233.217 32.3925 228.82 29.1361 224.793C26.0493 227.796 19.2179 229.546 15.2587 226.675C10.8678 223.492 13.7042 219.02 15.9824 215.428C16.3022 214.923 16.6109 214.436 16.8872 213.973C20.5409 207.844 20.7007 201.703 21.5688 195.028C21.6922 194.081 21.8737 193.185 21.9966 192.162C22.0671 191.575 22.1917 190.843 22.3294 190.033C22.7886 187.332 23.3936 183.774 22.6271 181.911C21.528 179.24 20.3284 179.213 17.8922 179.821C14.4434 180.683 11.6022 182.612 11.019 185.399C10.5445 187.666 11.7363 189.159 12.9324 190.658C13.8601 191.821 14.7904 192.987 14.9478 194.519C15.724 202.07 6.24502 198.524 3.42508 195.137C-0.684155 190.201 -0.81515 184.738 1.54657 179.124C2.81141 176.118 4.80407 173.445 6.77118 170.746C7.08578 170.314 7.37328 169.929 7.63476 169.579C9.49793 167.084 10.0399 166.358 9.6509 163.098C9.41921 161.157 9.09867 159.276 8.78152 157.414C8.05033 153.122 7.33718 148.936 7.7724 144.372C8.40781 137.715 10.4146 131.784 13.4025 125.601C15.6555 120.939 19.8147 116.583 21.5541 111.843C23.0201 107.848 22.6999 103.341 23.4506 99.2268C24.424 93.8911 26.0172 88.661 26.9624 83.3148C28.8029 72.9136 33.1209 62.9239 37.9644 53.2425C40.568 48.04 42.9928 42.7846 46.5444 37.962C48.368 35.4866 50.3585 32.9436 52.7925 30.8512C55.0221 28.9342 59.0319 28.0512 60.9571 26.1972C64.5239 22.7631 61.398 16.7039 65.9105 12.8083C68.7022 10.3982 71.6085 9.86463 75.2889 9.27671C77.1344 8.98212 77.7203 9.06357 78.1854 8.86378C78.6271 8.67408 78.9598 8.23081 80.1586 6.97126C82.5437 4.46636 84.3526 1.19812 88.4021 0.253461C92.1712 -0.625176 95.3878 0.941983 98.5511 2.48317C99.7206 3.05298 100.883 3.61925 102.063 4.05704C108.488 6.44 112.509 5.7451 118.818 3.75152L118.9 3.72559C123.092 2.40056 125.85 1.52902 129.79 3.82677C132.352 5.32082 134.324 9.77261 137.447 10.1992C139.416 10.4686 141.796 9.64385 144.219 8.80412C146.476 8.02216 148.77 7.22723 150.804 7.29083C157.253 7.49345 160.387 11.5332 163.055 15.8476C164.553 18.27 165.4 17.8671 167.214 19.5687C168.83 21.085 169.557 23.0337 171.279 24.6066C177.591 30.3748 185.862 34.8519 192.649 40.2883C205.315 50.4352 208.31 64.1668 209.129 78.1156C209.244 80.068 209.308 82.08 209.372 84.1244C209.677 93.7867 210.005 104.174 215.872 112.428C219.523 117.565 223.562 121.429 225.583 127.409C225.674 127.68 225.779 127.972 225.89 128.28C226.675 130.466 227.756 133.474 226.413 135.391C224.604 137.976 220.054 138.001 218.097 135.533C216.314 141.054 221.922 148.879 225.481 153.844Z" transform="translate(-0.00017456338 0.103552386)" id="path_1" />
    <clipPath id="mask_1">
      <use xlink:href="#path_1" />
    </clipPath>
  </defs>
  <g id="TopLong-HairDreads">
    <g id="template-for-hairstyles" transform="translate(63 87)" />
    <g id="Facial-Hair" transform="translate(49 72)" />
    <g id="Hair" transform="translate(16 14)">
      <path d="M225.481 153.844C225.708 154.161 225.927 154.467 226.135 154.759C230.969 161.55 237.233 168.76 238.378 176.812C238.833 180.01 239.086 193.048 230.836 188.244C230.766 189.381 230.667 190.264 230.581 191.023C230.34 193.176 230.21 194.328 231.176 197.449C232.062 200.308 233.256 206.065 227.312 205.545C227.471 205.98 227.637 206.427 227.806 206.884C230.045 212.918 232.954 220.759 229.795 226.704C224.207 237.222 217.902 223.972 216.224 219.219C216.326 222.499 212.799 228.409 208.386 223.85C208.465 225.079 208.638 226.461 208.82 227.921C209.442 232.892 210.178 238.78 207.725 242.703C201.565 252.556 194.749 240.082 194.52 234.807C194.279 235.579 194.13 236.587 193.969 237.671C193.389 241.591 192.66 246.513 186.928 244.957C180.603 243.241 182.889 234.867 184.112 231.088C182.101 234.644 179.63 239.94 179.241 243.956C179.165 244.733 179.272 245.745 179.387 246.83C179.784 250.572 180.272 255.185 173.686 254.006C167.166 252.84 166.933 243.115 167.045 238.827C167.075 237.669 167.468 236.015 167.895 234.219C168.75 230.622 169.74 226.458 168.221 224.571C161.698 227.308 162.021 233.362 162.33 239.152C162.623 244.659 162.904 249.926 157.269 251.874C153.731 253.096 150.945 251.279 149.489 248.686C149.308 248.201 149.129 247.718 148.949 247.234C149.35 245.541 148.592 244.672 146.672 244.629C145.456 243.151 144.657 243.195 143.871 240.978C141.558 234.458 146.062 225.788 149.3 219.973C145.948 223.03 143.247 227.229 139.61 229.889C137.149 231.688 133.524 232.201 131.225 229.713C129.109 227.425 130.452 225.216 131.74 223.095C131.985 222.693 132.227 222.293 132.444 221.896C135.444 216.411 140.171 213.216 145.112 208.814C149.431 204.967 153.281 200.635 157.112 196.448C160.352 192.907 163.411 189.028 165.717 184.896L141 184.896L141 166.493Q142.033 166.003 143.045 165.472Q144.057 164.94 145.046 164.368Q146.035 163.795 147 163.183Q147.965 162.571 148.905 161.92Q149.844 161.268 150.756 160.58Q151.668 159.891 152.551 159.165Q153.434 158.439 154.287 157.678Q155.14 156.917 155.961 156.122Q156.782 155.327 157.57 154.499Q158.358 153.671 159.111 152.811Q159.865 151.952 160.582 151.062Q161.3 150.173 161.981 149.255Q162.662 148.337 163.305 147.391Q163.947 146.446 164.551 145.476Q165.155 144.505 165.719 143.511Q166.282 142.517 166.805 141.5C166.91 138.226 167.082 134.403 167.267 130.325C167.812 118.241 168.459 103.918 167.748 94.9882C166.477 79.0464 166.356 70.1436 155.555 56.3458C146.672 44.9995 122.401 48.7464 113.318 38.3352C109.194 43.1156 103.176 45.6563 96.583 47.3258C90.068 48.9744 83.5226 49.2432 79.1633 53.889C71.3612 62.2033 67.9265 67.7687 65.5371 78.1441C62.8889 89.6446 62.1959 101.042 63.0009 112.723C63.6092 121.549 63.4482 130.838 66.1794 139.418Q66.6899 140.521 67.2477 141.601Q67.8056 142.681 68.4098 143.736Q69.014 144.79 69.6634 145.818Q70.3128 146.845 71.0062 147.843Q71.6995 148.841 72.4355 149.809Q73.1716 150.776 73.9488 151.71Q74.7261 152.645 75.5432 153.544Q76.3603 154.444 77.2157 155.308Q78.0711 156.171 78.9631 156.997Q79.8551 157.822 80.7821 158.608Q81.7091 159.394 82.6693 160.139Q83.6296 160.885 84.6212 161.587Q85.6129 162.29 86.6341 162.949Q87.6553 163.608 88.7042 164.222Q89.753 164.836 90.8275 165.404Q91.902 165.972 93.0002 166.493L93.0002 184.896L85.7039 184.896C86.3829 188.357 86.8119 191.876 86.5301 195.31C86.4171 196.686 86.2642 198.037 86.1124 199.378C85.7137 202.901 85.3227 206.356 85.6838 210.013C86.7203 220.515 91.0926 230.496 94.7013 240.52C95.3191 242.236 96.6848 244.06 98.0453 245.877C100.503 249.16 102.943 252.42 100.931 254.98C97.8041 258.957 87.116 249.51 84.7255 244.931C82.292 240.268 80.0787 235.522 77.5457 230.896C79.1726 237.974 79.9848 240.967 81.6682 248.036C81.8168 248.661 82.0663 249.439 82.3449 250.307C83.7131 254.574 85.7837 261.031 80.0668 262.251C72.4773 263.872 71.0793 253.674 70.289 247.91C70.1481 246.882 70.0266 245.995 69.8927 245.341C68.4213 238.159 66.7872 235.369 64.3837 228.371C64.1935 230.494 64.2098 232.652 64.2261 234.813C64.2508 238.094 64.2756 241.385 63.5787 244.574C62.8818 247.764 59.2227 250.402 57.0246 253.107C51.0491 260.465 48.6858 252.194 47.0102 246.331C46.5736 244.803 46.1838 243.438 45.7888 242.556C42.484 244.958 35.2891 249.717 30.8814 246.695C28.1439 244.819 29.1715 241.661 30.0171 239.063C30.1769 238.572 30.3302 238.101 30.4504 237.662C31.6685 233.217 32.3925 228.82 29.1361 224.793C26.0493 227.796 19.2179 229.546 15.2587 226.675C10.8678 223.492 13.7042 219.02 15.9824 215.428C16.3022 214.923 16.6109 214.436 16.8872 213.973C20.5409 207.844 20.7007 201.703 21.5688 195.028C21.6922 194.081 21.8737 193.185 21.9966 192.162C22.0671 191.575 22.1917 190.843 22.3294 190.033C22.7886 187.332 23.3936 183.774 22.6271 181.911C21.528 179.24 20.3284 179.213 17.8922 179.821C14.4434 180.683 11.6022 182.612 11.019 185.399C10.5445 187.666 11.7363 189.159 12.9324 190.658C13.8601 191.821 14.7904 192.987 14.9478 194.519C15.724 202.07 6.24502 198.524 3.42508 195.137C-0.684155 190.201 -0.81515 184.738 1.54657 179.124C2.81141 176.118 4.80407 173.445 6.77118 170.746C7.08578 170.314 7.37328 169.929 7.63476 169.579C9.49793 167.084 10.0399 166.358 9.6509 163.098C9.41921 161.157 9.09867 159.276 8.78152 157.414C8.05033 153.122 7.33718 148.936 7.7724 144.372C8.40781 137.715 10.4146 131.784 13.4025 125.601C15.6555 120.939 19.8147 116.583 21.5541 111.843C23.0201 107.848 22.6999 103.341 23.4506 99.2268C24.424 93.8911 26.0172 88.661 26.9624 83.3148C28.8029 72.9136 33.1209 62.9239 37.9644 53.2425C40.568 48.04 42.9928 42.7846 46.5444 37.962C48.368 35.4866 50.3585 32.9436 52.7925 30.8512C55.0221 28.9342 59.0319 28.0512 60.9571 26.1972C64.5239 22.7631 61.398 16.7039 65.9105 12.8083C68.7022 10.3982 71.6085 9.86463 75.2889 9.27671C77.1344 8.98212 77.7203 9.06357 78.1854 8.86378C78.6271 8.67408 78.9598 8.23081 80.1586 6.97126C82.5437 4.46636 84.3526 1.19812 88.4021 0.253461C92.1712 -0.625176 95.3878 0.941983 98.5511 2.48317C99.7206 3.05298 100.883 3.61925 102.063 4.05704C108.488 6.44 112.509 5.7451 118.818 3.75152L118.9 3.72559C123.092 2.40056 125.85 1.52902 129.79 3.82677C132.352 5.32082 134.324 9.77261 137.447 10.1992C139.416 10.4686 141.796 9.64385 144.219 8.80412C146.476 8.02216 148.77 7.22723 150.804 7.29083C157.253 7.49345 160.387 11.5332 163.055 15.8476C164.553 18.27 165.4 17.8671 167.214 19.5687C168.83 21.085 169.557 23.0337 171.279 24.6066C177.591 30.3748 185.862 34.8519 192.649 40.2883C205.315 50.4352 208.31 64.1668 209.129 78.1156C209.244 80.068 209.308 82.08 209.372 84.1244C209.677 93.7867 210.005 104.174 215.872 112.428C219.523 117.565 223.562 121.429 225.583 127.409C225.674 127.68 225.779 127.972 225.89 128.28C226.675 130.466 227.756 133.474 226.413 135.391C224.604 137.976 220.054 138.001 218.097 135.533C216.314 141.054 221.922 148.879 225.481 153.844Z" transform="translate(-0.00017456338 0.103552386)" id="No-Woman" fill="#8D5A5A" fill-rule="evenodd" stroke="none" />
      <g clip-path="url(#mask_1)">
        <g id="Hair-Color" transform="translate(-15 -14)">
          <path d="M0 0L264 0L264 280L0 280L0 0Z" id="Color" fill="#2C1B18" fill-rule="evenodd" stroke="none" />
        </g>
        <path d="M100.292 2.56079C100.213 5.56275 100.28 8.54907 100.664 11.4338C100.996 13.9291 101.507 16.3496 102.013 18.7483C103.14 24.0825 104.243 29.3096 103.305 35.0141C102.715 38.6014 101.351 42.0708 99.5052 45.3783L74.7889 45.3783L74.7889 26.9751Q75.8032 26.494 76.7973 25.9726Q77.7915 25.4513 78.764 24.8905Q79.7364 24.3297 80.6856 23.7304Q81.6349 23.1311 82.5593 22.4943Q83.4837 21.8574 84.3819 21.184Q85.2801 20.5106 86.1505 19.8018Q87.021 19.0929 87.8623 18.3497Q88.7037 17.6066 89.5146 16.8303Q90.3255 16.054 91.1046 15.2458Q91.8837 14.4377 92.6299 13.5989Q93.376 12.7602 94.0879 11.8922Q94.7998 11.0243 95.4763 10.1285Q96.1529 9.23269 96.793 8.3105Q97.4331 7.38831 98.0357 6.4412Q98.6383 5.4941 99.2025 4.52361Q99.7667 3.55311 100.292 2.56079ZM19.4926 45.3783C19.1343 43.5519 18.7064 41.7416 18.2767 39.9682C15.2073 27.2991 7.70573 16.7201 1.95061 4.88737C1.15843 3.25855 0.506965 1.59316 -0.0319107 -0.0998115Q0.478592 1.00319 1.03647 2.083Q1.59435 3.16282 2.19855 4.21741Q2.80276 5.272 3.45215 6.29938Q4.10154 7.32677 4.7949 8.32501Q5.48825 9.32325 6.22427 10.2905Q6.96028 11.2577 7.73757 12.1921Q8.51486 13.1264 9.33195 14.0262Q10.149 14.926 11.0044 15.7894Q11.8598 16.6529 12.7518 17.4784Q13.6438 18.304 14.5708 19.09Q15.4978 19.8761 16.4581 20.6212Q17.4183 21.3663 18.41 22.069Q19.4016 22.7718 20.4228 23.4308Q21.4441 24.0899 22.4929 24.704Q23.5417 25.3181 24.6163 25.8861Q25.6908 26.4542 26.7889 26.9751L26.7889 45.3783L19.4926 45.3783Z" transform="translate(66.2111 139.62175)" id="Shadows" fill="#000000" fill-opacity="0.23921569" fill-rule="evenodd" stroke="none" />
        <path d="M49.5917 6.14974C45.6716 4.74417 56.1605 0 57.8319 0C62.0896 0 51.9882 7.00887 49.5917 6.14974ZM126.443 14.9191C125.568 14.5856 125.554 14.2282 126.4 13.8474C127.275 14.1813 127.289 14.5382 126.443 14.9191ZM35.1427 24.4045C35.5976 23.8784 37.6283 21.3131 38.8644 20.6823C40.1254 20.0384 44.308 19.8232 41.9713 21.9773C39.9661 23.8206 32.4282 34.4957 29.8452 34.6026C25.6194 34.7776 32.4309 27.3629 34.6042 24.9972C34.8514 24.7281 35.0386 24.5243 35.1427 24.4045ZM153.818 31.8152C154.807 33.5956 157.057 37.6469 153.894 37.3179C152.916 37.2169 150.304 30.4972 149.492 29.3344C149.419 29.2306 149.262 29.0289 149.049 28.7559C147.477 26.741 142.878 20.8464 147.02 21.8215C149.312 22.3607 152.468 29.1742 153.502 31.2323C153.573 31.3736 153.684 31.5735 153.818 31.8152ZM14.6064 50.4715C17.053 50.957 11.9691 63.9766 10.0455 62.0269C8.77143 60.7364 12.4235 50.0428 14.6064 50.4715ZM8.952 64.5542C11.3034 64.5542 10.9588 71.2928 8.43889 70.6768C6.92782 70.3077 6.5843 64.5542 8.952 64.5542ZM159.328 76.4929C159.34 76.7847 159.35 77.0435 159.376 77.2361C160.504 85.7046 161.003 94.3154 161.595 102.824C161.604 102.947 161.619 103.126 161.638 103.352C161.847 105.824 162.53 113.903 161.07 114.57C158.743 115.634 159.242 111.541 159.453 109.813C159.49 109.505 159.518 109.272 159.52 109.157C159.608 103.055 158.899 96.9942 158.19 90.9286C158.035 89.602 157.88 88.2753 157.733 86.9478C157.704 86.6838 157.593 86.0872 157.444 85.2864C156.801 81.8263 155.448 74.5542 156.917 73.8262C159.177 72.7065 159.269 75.0201 159.328 76.4929ZM22.1422 98.5376C20.4343 98.4967 20.5984 93.2469 20.689 90.3479C20.7115 89.6282 20.7295 89.0535 20.7132 88.7392C20.685 88.1936 20.5691 87.3592 20.4327 86.3778C19.9636 83.002 19.2529 77.8864 21.0409 76.8003C23.2697 75.4454 23.1256 82.4598 23.0776 84.7957C23.0711 85.1111 23.0664 85.3412 23.0695 85.4539C23.0758 85.6789 23.1063 86.1194 23.1469 86.7074C23.3839 90.1366 23.9675 98.5815 22.1422 98.5376ZM174.424 81.9619C176.192 81.8198 181.184 94.7329 179.602 95.1453C177.2 95.7644 171.73 82.1794 174.424 81.9619ZM23.9223 104.64C22.7379 104.61 23.0673 103.374 23.8712 103.374C25.1197 103.374 24.7061 104.634 23.9223 104.64ZM3.47351 159.652C2.01353 159.689 -1.4304 121.892 0.651938 121.862C3.617 121.82 5.40257 159.598 3.47351 159.652ZM27.2429 135.113C29.6623 132.389 29.2956 142.341 29.1752 145.609C29.16 146.023 29.1487 146.329 29.1475 146.489C29.1388 147.503 28.0751 147.442 27.3157 147.177C26.6248 146.935 26.7547 145.701 26.8511 144.785C26.8855 144.458 26.9156 144.171 26.9026 143.985C26.8803 143.667 26.8355 143.242 26.7835 142.748C26.5324 140.364 26.1134 136.384 27.2429 135.113ZM158.375 136.078C161.023 136.604 157.591 146.624 155.673 145.094C154.518 144.172 155.843 135.576 158.375 136.078ZM179.378 150.506C177.723 149.76 177.627 137.938 179.778 137.938C182.32 137.938 181.089 151.277 179.378 150.506ZM27.5833 152.221C27.5675 150.611 30.0662 149.211 30.0368 151.12C29.9841 153.967 27.6159 155.435 27.5833 152.221ZM152.829 152.309C151.954 151.976 151.94 151.619 152.787 151.238C153.661 151.571 153.675 151.929 152.829 152.309ZM3.53726 166.148C3.35647 166.03 3.2052 165.932 3.12949 165.93C3.03872 165.927 4.66122 163.942 4.73895 165.884C4.78382 166.962 4.04444 166.48 3.53726 166.148ZM20.6618 168.357C21.7254 171.012 21.4329 174.696 21.1635 178.09C21.0368 179.685 20.9153 181.216 20.9422 182.546C20.9634 183.604 19.7638 183.62 18.9632 183.289C18.2455 182.993 18.3318 180.979 18.3822 179.803C18.3956 179.49 18.4065 179.236 18.399 179.089C18.371 178.549 18.2337 177.624 18.0689 176.513C17.567 173.131 16.8103 168.032 18.1136 166.859C19.7303 165.403 20.0519 166.448 20.407 167.602C20.4855 167.857 20.5656 168.117 20.6618 168.357ZM184.647 169.478C184.308 165.581 186.488 167.066 188.162 170.366C190.399 174.774 192.075 179.237 193.143 183.937C193.161 184.014 193.207 184.161 193.269 184.358C193.692 185.709 194.852 189.409 192.481 188.782C190.919 188.369 190.678 183.997 190.279 182.672C189.05 178.586 184.999 173.509 184.647 169.478ZM40.2183 179.271C38.9 176.436 36.2965 170.838 36.7531 168.341C37.2308 165.733 39.1284 168.14 39.5453 169.483C39.6322 169.766 39.8879 170.421 40.2275 171.29C41.5007 174.551 43.9535 180.833 43.1164 181.844C41.7946 183.44 41.2412 181.891 40.7944 180.641C40.6931 180.358 40.5972 180.089 40.4992 179.877C40.4146 179.693 40.3203 179.49 40.2183 179.271ZM158.107 173.876C162.186 174.691 150.656 192.23 149.357 190.511C148.674 189.608 156.969 173.65 158.107 173.876ZM5.70554 179.007C8.38742 179.007 7.30086 189.171 5.1609 188.146C3.74876 187.469 3.30794 179.007 5.70554 179.007ZM137.685 181.249C139.841 182.216 132.027 193.655 130.279 192.869C128.351 192.001 135.904 180.447 137.685 181.249ZM173.441 183.442C176.161 183.442 174.404 195.722 172.54 194.844C171.206 194.215 171.31 183.432 173.441 183.442ZM20.7027 197.117C19.1254 196.631 19.2797 188.817 21.5654 188.817C23.9456 188.817 23.1536 197.871 20.7027 197.117ZM30.675 202.692C29.3085 202.109 29.0438 192.307 31.3387 192.307C34.1537 192.307 32.7916 203.594 30.675 202.692ZM2.85158 195.526C1.95146 195.183 1.93733 194.814 2.80918 194.423C3.7093 194.768 3.72397 195.135 2.85158 195.526ZM172.808 197.774C175.491 197.774 173.993 208.875 172.003 207.972C170.579 207.327 170.488 197.774 172.808 197.774ZM128.517 205.227C129.69 205.255 129.362 206.478 128.569 206.478C127.333 206.478 127.742 205.233 128.517 205.227ZM149.298 206.652C151.774 207.147 148.601 216.402 146.748 214.943C145.625 214.058 146.887 206.171 149.298 206.652ZM128.463 218.049C127.311 217.517 126.82 213.942 128.818 213.942C131.047 213.942 130.457 218.969 128.463 218.049Z" transform="translate(28.647581 19.50909)" id="Highlights" fill="#FFFFFF" fill-opacity="0.29803923" fill-rule="evenodd" stroke="none" />
      </g>
    </g>
    <g id="Accessory" transform="translate(62 85)" />
    <g id="Accessory" transform="translate(44 33)" />
  </g>
</svg>