<?xml version="1.0" encoding="utf-8"?>
<svg width="266px" height="280px" viewbox="0 0 266 280" version="1.1" xmlns:xlink="http://www.w3.org/1999/xlink" xmlns="http://www.w3.org/2000/svg">
  <defs>
    <path d="M0 72.5C0 77.0508 1.69496 81.1432 4.85349 83.2732C5.7582 83.8833 7.32383 84.1976 9 84.3403L9 164C9 168.418 12.5817 172 17 172L59 172L59 162.611C41.4692 154.283 28.9518 137.115 27.2086 116.867C21.4309 116.002 17 111.019 17 105L17 92C17 88.5094 18.4904 85.3669 20.8695 83.1741C32.4088 80.5552 44.9707 75.6376 57.3415 68.4953C69.4733 61.4911 79.844 53.2579 87.8209 44.7522Q82.6807 56.6145 75.3722 65.535Q94.3849 57.2506 101.264 38.8961C101.641 39.818 102.035 40.7389 102.444 41.6582C112.7 64.6926 130.318 81.0186 148.206 86.4031C148.719 88.5135 149 90.4839 149 92L149 105C149 111.019 144.569 116.002 138.791 116.867C137.048 137.115 124.531 154.283 107 162.611L107 172L125 172C142.673 172 157 157.673 157 140L157 85.8747C157 85.8049 156.99 85.7133 156.969 85.6007C156.896 79.9602 156.69 66.7279 156.36 64.2256C151.577 27.9764 120.556 0 83 0C46.9151 0 16.8627 25.8283 10 60C4.47715 60 0 65.5964 0 72.5Z" transform="translate(50 18)" id="path_1" />
    <clipPath id="mask_1">
      <use xlink:href="#path_1" />
    </clipPath>
  </defs>
  <g id="TopLong-HairLong-but-not-too-long">
    <g id="Behind">
      <path d="M0 72.5C0 77.0508 1.69496 81.1432 4.85349 83.2732C5.7582 83.8833 7.32383 84.1976 9 84.3403L9 164C9 168.418 12.5817 172 17 172L59 172L59 162.611C41.4692 154.283 28.9518 137.115 27.2086 116.867C21.4309 116.002 17 111.019 17 105L17 92C17 88.5094 18.4904 85.3669 20.8695 83.1741C32.4088 80.5552 44.9707 75.6376 57.3415 68.4953C69.4733 61.4911 79.844 53.2579 87.8209 44.7522Q82.6807 56.6145 75.3722 65.535Q94.3849 57.2506 101.264 38.8961C101.641 39.818 102.035 40.7389 102.444 41.6582C112.7 64.6926 130.318 81.0186 148.206 86.4031C148.719 88.5135 149 90.4839 149 92L149 105C149 111.019 144.569 116.002 138.791 116.867C137.048 137.115 124.531 154.283 107 162.611L107 172L125 172C142.673 172 157 157.673 157 140L157 85.8747C157 85.8049 156.99 85.7133 156.969 85.6007C156.896 79.9602 156.69 66.7279 156.36 64.2256C151.577 27.9764 120.556 0 83 0C46.9151 0 16.8627 25.8283 10 60C4.47715 60 0 65.5964 0 72.5Z" transform="translate(50 18)" id="Combined-Shape" fill="#944F23" fill-rule="evenodd" stroke="none" />
      <g clip-path="url(#mask_1)">
        <g id="Hair-Color">
          <path d="M0 0L266 0L266 280L0 280L0 0Z" id="Color" fill="#A55728" fill-rule="evenodd" stroke="none" />
        </g>
      </g>
    </g>
    <g id="Top" transform="translate(50 18)" opacity="0.43999094">
      <path d="M102.444 41.6582C114.382 68.4714 136.296 86.1945 157 88.151L157 74C157 33.1309 123.869 0 83 0C46.9151 0 16.8627 25.8283 10.3213 60.0063C10.2146 60.0021 10.1075 60 10 60C4.47715 60 0 65.5964 0 72.5C0 78.9817 3.94667 84.3111 8.99999 84.9383L8.99999 85.0928C9.31629 85.0638 9.63387 85.0329 9.95269 84.9999C9.96844 85 9.98422 85 10 85C10.6493 85 11.2842 84.9226 11.899 84.7749C25.7109 83.0145 41.6793 77.5379 57.3415 68.4953C69.4733 61.4911 79.844 53.2579 87.8209 44.7522Q82.6807 56.6145 75.3721 65.535Q94.3849 57.2506 101.264 38.8961C101.641 39.818 102.035 40.7389 102.444 41.6582Z" id="Combined-Shape" fill="#FFFFFF" fill-opacity="0.16078432" fill-rule="evenodd" stroke="none" />
    </g>
    <g id="Facial-Hair" transform="translate(49 72)" />
    <g id="Accessory" transform="translate(62 85)" />
  </g>
</svg>