<?xml version="1.0" encoding="utf-8"?>
<svg width="266px" height="281px" viewbox="0 0 266 281" version="1.1" xmlns:xlink="http://www.w3.org/1999/xlink" xmlns="http://www.w3.org/2000/svg">
  <defs>
    <path d="M0.000177962 125.024C-0.0848453 106.039 30.3191 27.8188 41.0002 15.0238C48.9233 5.53254 68.6955 -0.425596 93.0003 0.0237604C117.305 0.473117 137.862 3.83592 146 14.0238C158.324 29.4514 186.085 106.039 186 125.024C185.885 149.824 172.953 162.463 163 176.024C152.721 173.359 135.146 170.84 117 169.341L117 160.621Q117.892 160.198 118.768 159.743Q119.645 159.289 120.504 158.805Q121.364 158.32 122.206 157.805Q123.048 157.29 123.872 156.746Q124.695 156.202 125.499 155.629Q126.303 155.057 127.086 154.456Q127.869 153.855 128.631 153.227Q129.392 152.599 130.131 151.945Q130.87 151.29 131.585 150.61Q132.3 149.93 132.991 149.225Q133.682 148.52 134.348 147.792Q135.013 147.063 135.653 146.311Q136.293 145.56 136.905 144.786Q137.518 144.012 138.103 143.217Q138.688 142.422 139.245 141.607Q139.801 140.792 140.329 139.958Q140.856 139.124 141.354 138.271Q141.852 137.419 142.32 136.55Q142.787 135.681 143.224 134.795Q143.66 133.91 144.065 133.01Q144.471 132.11 144.844 131.197Q145.217 130.283 145.558 129.356Q145.898 128.43 146.206 127.492Q146.514 126.555 146.789 125.607Q147.063 124.659 147.304 123.701Q147.545 122.744 147.753 121.779Q147.96 120.814 148.133 119.843Q148.306 118.871 148.445 117.894Q148.583 116.917 148.687 115.935Q148.792 114.954 148.861 113.969Q148.931 112.985 148.965 111.998Q149 111.012 149 110.025L149 72.0228Q149 70.0207 148.857 68.0238L72.0583 68.0238L69.2532 46.5799L65.3737 68.0238L37.1432 68.0238Q37.0002 70.0207 37.0002 72.0228L37.0002 110.025Q37.0002 111.012 37.035 111.998Q37.0697 112.985 37.1393 113.969Q37.2088 114.954 37.313 115.935Q37.4171 116.917 37.5558 117.894Q37.6945 118.871 37.8675 119.843Q38.0406 120.814 38.2478 121.779Q38.4549 122.744 38.696 123.701Q38.9371 124.659 39.2117 125.607Q39.4863 126.555 39.7942 127.492Q40.1021 128.43 40.4428 129.356Q40.7835 130.283 41.1567 131.197Q41.5298 132.11 41.935 133.01Q42.3401 133.91 42.7767 134.795Q43.2133 135.681 43.6808 136.55Q44.1483 137.419 44.6461 138.271Q45.144 139.124 45.6716 139.958Q46.1991 140.792 46.7558 141.607Q47.3124 142.422 47.8974 143.217Q48.4824 144.012 49.0951 144.786Q49.7078 145.56 50.3473 146.311Q50.9869 147.063 51.6526 147.792Q52.3182 148.52 53.0091 149.225Q53.7 149.93 54.4154 150.61Q55.1307 151.29 55.8695 151.945Q56.6084 152.599 57.3698 153.227Q58.1313 153.855 58.9144 154.456Q59.6975 155.057 60.5013 155.629Q61.3051 156.202 62.1286 156.746Q62.952 157.29 63.7942 157.805Q64.6363 158.32 65.4961 158.805Q66.3558 159.289 67.2321 159.743Q68.1084 160.198 69.0002 160.621L69.0002 169.341C50.8547 170.84 33.2792 173.359 23.0002 176.024C13.0477 162.463 0.115753 149.824 0.000177962 125.024Z" transform="translate(-0.00017796179 0.9762396)" id="path_1" />
    <clipPath id="mask_1">
      <use xlink:href="#path_1" />
    </clipPath>
  </defs>
  <g id="TopLong-HairMia-Wallace">
    <path d="M0.0330562 49.9861C12.9709 16.9024 26.6459 0.360595 41.0581 0.360595C41.5969 0.360595 70.3113 0.122622 89.1127 0C109.767 9.35857 124 29.0769 124 51.8878L124 66.7732L41.0581 66.7732L38.253 43.5936L34.3736 66.7732L1.42109e-14 66.7732L0 51.8878C1.42109e-14 51.2515 0.0110772 50.6175 0.0330621 49.9861L0.0330562 49.9861Z" transform="translate(69 26.226791)" id="Shadow" fill="#000000" fill-opacity="0.16078432" fill-rule="evenodd" stroke="none" />
    <g id="Hair" transform="translate(40 19)">
      <path d="M0.000177962 125.024C-0.0848453 106.039 30.3191 27.8188 41.0002 15.0238C48.9233 5.53254 68.6955 -0.425596 93.0003 0.0237604C117.305 0.473117 137.862 3.83592 146 14.0238C158.324 29.4514 186.085 106.039 186 125.024C185.885 149.824 172.953 162.463 163 176.024C152.721 173.359 135.146 170.84 117 169.341L117 160.621Q117.892 160.198 118.768 159.743Q119.645 159.289 120.504 158.805Q121.364 158.32 122.206 157.805Q123.048 157.29 123.872 156.746Q124.695 156.202 125.499 155.629Q126.303 155.057 127.086 154.456Q127.869 153.855 128.631 153.227Q129.392 152.599 130.131 151.945Q130.87 151.29 131.585 150.61Q132.3 149.93 132.991 149.225Q133.682 148.52 134.348 147.792Q135.013 147.063 135.653 146.311Q136.293 145.56 136.905 144.786Q137.518 144.012 138.103 143.217Q138.688 142.422 139.245 141.607Q139.801 140.792 140.329 139.958Q140.856 139.124 141.354 138.271Q141.852 137.419 142.32 136.55Q142.787 135.681 143.224 134.795Q143.66 133.91 144.065 133.01Q144.471 132.11 144.844 131.197Q145.217 130.283 145.558 129.356Q145.898 128.43 146.206 127.492Q146.514 126.555 146.789 125.607Q147.063 124.659 147.304 123.701Q147.545 122.744 147.753 121.779Q147.96 120.814 148.133 119.843Q148.306 118.871 148.445 117.894Q148.583 116.917 148.687 115.935Q148.792 114.954 148.861 113.969Q148.931 112.985 148.965 111.998Q149 111.012 149 110.025L149 72.0228Q149 70.0207 148.857 68.0238L72.0583 68.0238L69.2532 46.5799L65.3737 68.0238L37.1432 68.0238Q37.0002 70.0207 37.0002 72.0228L37.0002 110.025Q37.0002 111.012 37.035 111.998Q37.0697 112.985 37.1393 113.969Q37.2088 114.954 37.313 115.935Q37.4171 116.917 37.5558 117.894Q37.6945 118.871 37.8675 119.843Q38.0406 120.814 38.2478 121.779Q38.4549 122.744 38.696 123.701Q38.9371 124.659 39.2117 125.607Q39.4863 126.555 39.7942 127.492Q40.1021 128.43 40.4428 129.356Q40.7835 130.283 41.1567 131.197Q41.5298 132.11 41.935 133.01Q42.3401 133.91 42.7767 134.795Q43.2133 135.681 43.6808 136.55Q44.1483 137.419 44.6461 138.271Q45.144 139.124 45.6716 139.958Q46.1991 140.792 46.7558 141.607Q47.3124 142.422 47.8974 143.217Q48.4824 144.012 49.0951 144.786Q49.7078 145.56 50.3473 146.311Q50.9869 147.063 51.6526 147.792Q52.3182 148.52 53.0091 149.225Q53.7 149.93 54.4154 150.61Q55.1307 151.29 55.8695 151.945Q56.6084 152.599 57.3698 153.227Q58.1313 153.855 58.9144 154.456Q59.6975 155.057 60.5013 155.629Q61.3051 156.202 62.1286 156.746Q62.952 157.29 63.7942 157.805Q64.6363 158.32 65.4961 158.805Q66.3558 159.289 67.2321 159.743Q68.1084 160.198 69.0002 160.621L69.0002 169.341C50.8547 170.84 33.2792 173.359 23.0002 176.024C13.0477 162.463 0.115753 149.824 0.000177962 125.024Z" transform="translate(-0.00017796179 0.9762396)" id="Combined-Shape" fill="#E6E6E6" fill-rule="evenodd" stroke="none" />
      <g clip-path="url(#mask_1)">
        <g id="Hair-Color" transform="translate(-40 -19)">
          <path d="M0 0L266 0L266 280L0 280L0 0Z" id="Color" fill="#2C1B18" fill-rule="evenodd" stroke="none" />
        </g>
      </g>
    </g>
    <g id="Facial-Hair" transform="translate(49 72)" />
    <g id="Accessory" transform="translate(62 85)" />
  </g>
</svg>