<?xml version="1.0" encoding="utf-8"?>
<svg width="266px" height="280px" viewbox="0 0 266 280" version="1.1" xmlns:xlink="http://www.w3.org/1999/xlink" xmlns="http://www.w3.org/2000/svg">
  <defs>
    <path d="M128.747 13.8561C138.274 20.9574 146.508 32.4378 146.906 44.6796C147.081 50.1868 146.289 55.907 145.184 61.2955C144.19 66.1482 140.87 69.9714 139.837 74.7288C135.81 61.0481 120.433 56.4838 111.242 47.1547C113.239 50.9478 116.291 54.1025 118.294 57.8328C109.047 52.1675 100.088 43.9536 96.2622 33.5378C95.5546 38.9359 93.5459 43.9275 90.154 48.2034C87.1426 52.0001 82.5724 56.0743 77.8588 57.5444C80.2865 52.0372 82.3613 46.3269 84.2664 40.6189C82.2496 43.2356 75.5686 54.3526 73.8911 57.1085C72.2348 59.8297 70.3777 62.4262 68.3838 64.9119C67.4506 66.0751 66.4552 67.1992 65.453 68.3028C64.8693 68.9458 64.274 69.5781 63.6659 70.1979C63.6253 70.2392 63.5344 70.3365 63.4199 70.4591C62.9277 70.986 61.9992 71.9799 62.7538 71.0035C60.5376 73.8061 57.2762 75.9826 54.4432 78.1124C51.5907 80.2569 48.4833 82.0811 45.2522 83.5892C38.1564 86.902 30.87 88.1266 23.1393 86.7883C24.0421 86.8889 25.4907 86.3825 26.669 85.9706C27.1346 85.8079 27.5579 85.6599 27.8887 85.5699C29.698 85.0775 31.3625 84.4528 33.0017 83.5463C36.2753 81.7352 39.3514 79.5759 42.1778 77.1279C39.4707 78.2801 37.2726 80.4616 34.5136 81.671C32.227 82.6735 29.9669 83.1967 27.4818 83.4371C22.0203 83.9659 15.4866 82.7168 10.7607 79.8494C5.26856 76.5174 2.21856 70.7988 0.771685 64.7128C-0.908739 57.6459 0.135456 49.6725 4.09917 43.6388C4.23362 45.7815 8.53494 46.7033 12.0154 46.1662C21.6728 44.6753 27.418 8.11834 52.4417 1.59977C72.403 -3.60053 86.6514 5.4742 87.8621 6.2567C89.0757 7.04085 89.6574 6.88558 90.7921 6.58273C91.0012 6.52691 91.2291 6.46608 91.4832 6.40519C97.8293 4.88452 104.741 4.19596 111.188 5.47817C117.528 6.73955 123.606 10.0243 128.747 13.8561ZM23.1393 86.7883C23.0705 86.7764 23.0016 86.7643 22.9327 86.752C22.9978 86.7682 23.0668 86.7802 23.1393 86.7883ZM30.0058 132.191C30.8081 130.667 31.5784 129.127 32.3233 127.577Q32.8172 128.76 33.3647 129.919Q33.9122 131.078 34.5121 132.21Q35.1121 133.343 35.7632 134.447Q36.4144 135.552 37.1154 136.625Q37.8164 137.698 38.5658 138.738Q39.3152 139.778 40.1113 140.783Q40.9075 141.787 41.7488 142.754Q42.5901 143.721 43.4748 144.649Q44.3595 145.577 45.2857 146.463Q46.2119 147.349 47.1777 148.192Q48.1435 149.035 49.1468 149.833Q50.1502 150.63 51.189 151.381Q52.2278 152.132 53.2998 152.835Q54.3719 153.538 55.475 154.191Q56.5781 154.844 57.7099 155.446Q58.8418 156.047 60 156.597L60 165.61C57.6388 166.402 55.0952 167.063 52.2735 167.57C43.2609 169.187 17.9485 164.041 6.8287 155.588C5.98039 154.943 6.41049 153.671 7.49928 153.596C19.2421 152.793 25.2106 141.3 30.0058 132.191ZM108 159.053L108 156.597Q111.888 154.753 115.448 152.336C115.561 152.432 115.675 152.527 115.79 152.621C118.335 154.696 121.267 155.889 124.373 156.266C124.859 156.987 125.42 157.642 126.071 158.208C127.481 159.43 129.791 159.412 131.771 159.397C132.221 159.393 132.654 159.39 133.055 159.401C134.839 159.452 136.626 159.458 138.408 159.381C139.303 159.342 139.702 160.465 138.978 160.982C138.839 161.081 138.701 161.175 138.562 161.262C137.44 161.962 136.278 162.608 135.093 163.199C132.4 164.543 129.557 165.597 126.575 166.121C121.075 167.087 115.706 165.944 111.381 162.413C110.164 161.42 109.027 160.288 108 159.053ZM124.373 156.266C122.732 153.837 121.939 150.669 121.345 147.73Q123.882 145.459 126.126 142.897C126.841 145.137 127.875 147.23 129.555 148.686C130.876 149.83 133.041 149.813 134.896 149.799L134.9 149.799C135.32 149.795 135.724 149.792 136.099 149.803C137.771 149.851 139.445 149.856 141.114 149.784C141.954 149.747 142.328 150.798 141.649 151.282C141.519 151.374 141.389 151.463 141.258 151.544C140.208 152.199 139.118 152.803 138.009 153.356C135.485 154.614 132.821 155.6 130.027 156.09C128.111 156.426 126.211 156.49 124.373 156.266Z" transform="translate(49.00005 24.000105)" id="path_1" />
    <clipPath id="mask_1">
      <use xlink:href="#path_1" />
    </clipPath>
  </defs>
  <g id="TopShort-HairShaggy-Mullet" transform="translate(-0.14987183 0)">
    <g id="Accessory" transform="translate(62 85)" />
    <path d="M128.747 13.8561C138.274 20.9574 146.508 32.4378 146.906 44.6796C147.081 50.1868 146.289 55.907 145.184 61.2955C144.19 66.1482 140.87 69.9714 139.837 74.7288C135.81 61.0481 120.433 56.4838 111.242 47.1547C113.239 50.9478 116.291 54.1025 118.294 57.8328C109.047 52.1675 100.088 43.9536 96.2622 33.5378C95.5546 38.9359 93.5459 43.9275 90.154 48.2034C87.1426 52.0001 82.5724 56.0743 77.8588 57.5444C80.2865 52.0372 82.3613 46.3269 84.2664 40.6189C82.2496 43.2356 75.5686 54.3526 73.8911 57.1085C72.2348 59.8297 70.3777 62.4262 68.3838 64.9119C67.4506 66.0751 66.4552 67.1992 65.453 68.3028C64.8693 68.9458 64.274 69.5781 63.6659 70.1979C63.6253 70.2392 63.5344 70.3365 63.4199 70.4591C62.9277 70.986 61.9992 71.9799 62.7538 71.0035C60.5376 73.8061 57.2762 75.9826 54.4432 78.1124C51.5907 80.2569 48.4833 82.0811 45.2522 83.5892C38.1564 86.902 30.87 88.1266 23.1393 86.7883C24.0421 86.8889 25.4907 86.3825 26.669 85.9706C27.1346 85.8079 27.5579 85.6599 27.8887 85.5699C29.698 85.0775 31.3625 84.4528 33.0017 83.5463C36.2753 81.7352 39.3514 79.5759 42.1778 77.1279C39.4707 78.2801 37.2726 80.4616 34.5136 81.671C32.227 82.6735 29.9669 83.1967 27.4818 83.4371C22.0203 83.9659 15.4866 82.7168 10.7607 79.8494C5.26856 76.5174 2.21856 70.7988 0.771685 64.7128C-0.908739 57.6459 0.135456 49.6725 4.09917 43.6388C4.23362 45.7815 8.53494 46.7033 12.0154 46.1662C21.6728 44.6753 27.418 8.11834 52.4417 1.59977C72.403 -3.60053 86.6514 5.4742 87.8621 6.2567C89.0757 7.04085 89.6574 6.88558 90.7921 6.58273C91.0012 6.52691 91.2291 6.46608 91.4832 6.40519C97.8293 4.88452 104.741 4.19596 111.188 5.47817C117.528 6.73955 123.606 10.0243 128.747 13.8561ZM23.1393 86.7883C23.0705 86.7764 23.0016 86.7643 22.9327 86.752C22.9978 86.7682 23.0668 86.7802 23.1393 86.7883ZM30.0058 132.191C30.8081 130.667 31.5784 129.127 32.3233 127.577Q32.8172 128.76 33.3647 129.919Q33.9122 131.078 34.5121 132.21Q35.1121 133.343 35.7632 134.447Q36.4144 135.552 37.1154 136.625Q37.8164 137.698 38.5658 138.738Q39.3152 139.778 40.1113 140.783Q40.9075 141.787 41.7488 142.754Q42.5901 143.721 43.4748 144.649Q44.3595 145.577 45.2857 146.463Q46.2119 147.349 47.1777 148.192Q48.1435 149.035 49.1468 149.833Q50.1502 150.63 51.189 151.381Q52.2278 152.132 53.2998 152.835Q54.3719 153.538 55.475 154.191Q56.5781 154.844 57.7099 155.446Q58.8418 156.047 60 156.597L60 165.61C57.6388 166.402 55.0952 167.063 52.2735 167.57C43.2609 169.187 17.9485 164.041 6.8287 155.588C5.98039 154.943 6.41049 153.671 7.49928 153.596C19.2421 152.793 25.2106 141.3 30.0058 132.191ZM108 159.053L108 156.597Q111.888 154.753 115.448 152.336C115.561 152.432 115.675 152.527 115.79 152.621C118.335 154.696 121.267 155.889 124.373 156.266C124.859 156.987 125.42 157.642 126.071 158.208C127.481 159.43 129.791 159.412 131.771 159.397C132.221 159.393 132.654 159.39 133.055 159.401C134.839 159.452 136.626 159.458 138.408 159.381C139.303 159.342 139.702 160.465 138.978 160.982C138.839 161.081 138.701 161.175 138.562 161.262C137.44 161.962 136.278 162.608 135.093 163.199C132.4 164.543 129.557 165.597 126.575 166.121C121.075 167.087 115.706 165.944 111.381 162.413C110.164 161.42 109.027 160.288 108 159.053ZM124.373 156.266C122.732 153.837 121.939 150.669 121.345 147.73Q123.882 145.459 126.126 142.897C126.841 145.137 127.875 147.23 129.555 148.686C130.876 149.83 133.041 149.813 134.896 149.799L134.9 149.799C135.32 149.795 135.724 149.792 136.099 149.803C137.771 149.851 139.445 149.856 141.114 149.784C141.954 149.747 142.328 150.798 141.649 151.282C141.519 151.374 141.389 151.463 141.258 151.544C140.208 152.199 139.118 152.803 138.009 153.356C135.485 154.614 132.821 155.6 130.027 156.09C128.111 156.426 126.211 156.49 124.373 156.266Z" transform="translate(49.00005 24.000105)" id="Hair" fill="#1D2633" fill-rule="evenodd" stroke="none" />
    <g clip-path="url(#mask_1)">
      <g id="Hair-Color" transform="translate(1 0)">
        <path d="M0 0L264 0L264 280L0 280L0 0Z" id="Color" fill="#724133" fill-rule="evenodd" stroke="none" />
      </g>
    </g>
    <path d="M25.9427 -0.0172262C25.1978 1.53354 24.4275 3.0729 23.6252 4.597C18.83 13.7064 12.8615 25.199 1.11867 26.0023C0.0298804 26.0768 -0.400218 27.349 0.448087 27.9942C11.5679 36.4475 36.8803 41.5934 45.8929 39.9757C48.7146 39.4693 51.2582 38.8081 53.6193 38.0165L53.6193 29.0028Q52.4612 28.4535 51.3293 27.8517Q50.1975 27.2499 49.0944 26.597Q47.9913 25.9441 46.9192 25.2413Q45.8472 24.5386 44.8084 23.7876Q43.7696 23.0365 42.7662 22.2387Q41.7629 21.4409 40.7971 20.5981Q39.8313 19.7552 38.9051 18.869Q37.9789 17.9828 37.0942 17.0552Q36.2095 16.1276 35.3682 15.1605Q34.5269 14.1933 33.7307 13.1887Q32.9345 12.1841 32.1852 11.1441Q31.4358 10.1041 30.7348 9.03087Q30.0338 7.95767 29.3826 6.85352Q28.7315 5.74937 28.1315 4.61658Q27.5315 3.48379 26.9841 2.32473Q26.4366 1.16567 25.9427 -0.0172262ZM101.619 29.0028L101.619 31.459C102.647 32.6936 103.783 33.8258 105 34.8193C109.325 38.3498 114.695 39.4931 120.195 38.5273C123.177 38.0032 126.019 36.9496 128.713 35.6051C129.897 35.0136 131.059 34.3681 132.181 33.6682C132.32 33.5814 132.459 33.4871 132.597 33.388C133.322 32.8707 132.923 31.7481 132.027 31.787C130.245 31.8644 128.459 31.8585 126.674 31.8074C126.273 31.796 125.84 31.7994 125.39 31.803C123.411 31.8185 121.1 31.8366 119.691 30.6138C119.039 30.0484 118.478 29.3929 117.992 28.6725C119.831 28.8957 121.73 28.8325 123.647 28.4965C126.441 28.0061 129.104 27.0202 131.628 25.7622C132.738 25.2088 133.827 24.6048 134.878 23.9499C135.008 23.8687 135.138 23.7805 135.268 23.6877C135.947 23.2037 135.573 22.1533 134.734 22.1897C133.064 22.2621 131.39 22.2567 129.718 22.2088C129.342 22.1982 128.936 22.2013 128.515 22.2046C126.66 22.2191 124.495 22.2361 123.175 21.092C121.494 19.6365 120.461 17.5434 119.746 15.3035Q117.502 17.8653 114.964 20.1364C115.558 23.0748 116.352 26.2426 117.992 28.6725C114.886 28.2956 111.955 27.1019 109.409 25.027C109.294 24.9334 109.18 24.8386 109.067 24.7425Q105.507 27.1588 101.619 29.0028Z" transform="translate(55.380657 151.59398)" id="Shadow" fill="#000000" fill-opacity="0.16078432" fill-rule="evenodd" stroke="none" />
    <g id="Facial-Hair" transform="translate(49 72)" />
  </g>
</svg>