<?xml version="1.0" encoding="utf-8"?>
<svg width="266px" height="280px" viewbox="0 0 266 280" version="1.1" xmlns:xlink="http://www.w3.org/1999/xlink" xmlns="http://www.w3.org/2000/svg">
  <defs>
    <path d="M128.747 14.7092C123.606 10.8774 117.528 7.59268 111.188 6.3313C104.741 5.04908 100.829 4.73765 94.4832 6.25832C92.8504 6.64956 92.2994 7.0385 90.8621 6.10982C89.6514 5.32733 81.2001 -3.3801 55.4417 1.4529C29.4069 6.33776 21.6728 45.5284 12.0154 47.0193C8.53494 47.5564 4.23362 46.6347 4.09917 44.4919C0.135456 50.5256 -0.908739 58.4991 0.771685 65.566C2.21856 71.6519 5.26856 77.3705 10.7607 80.7025C15.4866 83.5699 22.0203 84.8191 27.4818 84.2902C29.9669 84.0498 32.227 83.5266 34.5136 82.5242C37.2726 81.3147 39.4707 79.1333 42.1778 77.981C39.3514 80.429 36.2753 82.5883 33.0017 84.3994C31.3625 85.3059 29.698 85.9306 27.8887 86.4231C26.6533 86.7591 24.1275 87.9041 22.9327 87.6051C30.7402 89.0014 38.0932 87.7847 45.2522 84.4424C48.4833 82.9343 51.5907 81.11 54.4432 78.9656C57.2762 76.8357 60.5376 74.6592 62.7538 71.8567C61.8236 73.0602 63.4508 71.27 63.6659 71.051C64.274 70.4312 64.8693 69.7989 65.453 69.156C66.4552 68.0524 67.4506 66.9282 68.3838 65.7651C70.3777 63.2793 72.2348 60.6828 73.8911 57.9616C75.5686 55.2057 82.2496 44.0887 84.2664 41.4721C82.3613 47.18 80.2865 52.8903 77.8588 58.3975C82.5724 56.9275 87.1426 52.8533 90.154 49.0565C93.5459 44.7806 95.5546 39.789 96.2622 34.3909C100.088 44.8067 109.047 53.0206 118.294 58.6859C116.291 54.9557 113.239 51.8009 111.242 48.0078C120.433 57.3369 135.81 61.9012 139.837 75.5819C140.87 70.8245 144.19 67.0013 145.184 62.1486C146.289 56.7601 147.081 51.0399 146.906 45.5327C146.508 33.2909 138.274 21.8105 128.747 14.7092Z" transform="matrix(-1 0 0 1 216.93027 23.14698)" id="path_1" />
    <clipPath id="mask_1">
      <use xlink:href="#path_1" />
    </clipPath>
  </defs>
  <g id="TopShort-HairShaggy">
    <g id="Facial-Hair" transform="translate(49 72)" />
    <g id="Accessory" transform="translate(62 86)" />
    <path d="M128.747 14.7092C123.606 10.8774 117.528 7.59268 111.188 6.3313C104.741 5.04908 100.829 4.73765 94.4832 6.25832C92.8504 6.64956 92.2994 7.0385 90.8621 6.10982C89.6514 5.32733 81.2001 -3.3801 55.4417 1.4529C29.4069 6.33776 21.6728 45.5284 12.0154 47.0193C8.53494 47.5564 4.23362 46.6347 4.09917 44.4919C0.135456 50.5256 -0.908739 58.4991 0.771685 65.566C2.21856 71.6519 5.26856 77.3705 10.7607 80.7025C15.4866 83.5699 22.0203 84.8191 27.4818 84.2902C29.9669 84.0498 32.227 83.5266 34.5136 82.5242C37.2726 81.3147 39.4707 79.1333 42.1778 77.981C39.3514 80.429 36.2753 82.5883 33.0017 84.3994C31.3625 85.3059 29.698 85.9306 27.8887 86.4231C26.6533 86.7591 24.1275 87.9041 22.9327 87.6051C30.7402 89.0014 38.0932 87.7847 45.2522 84.4424C48.4833 82.9343 51.5907 81.11 54.4432 78.9656C57.2762 76.8357 60.5376 74.6592 62.7538 71.8567C61.8236 73.0602 63.4508 71.27 63.6659 71.051C64.274 70.4312 64.8693 69.7989 65.453 69.156C66.4552 68.0524 67.4506 66.9282 68.3838 65.7651C70.3777 63.2793 72.2348 60.6828 73.8911 57.9616C75.5686 55.2057 82.2496 44.0887 84.2664 41.4721C82.3613 47.18 80.2865 52.8903 77.8588 58.3975C82.5724 56.9275 87.1426 52.8533 90.154 49.0565C93.5459 44.7806 95.5546 39.789 96.2622 34.3909C100.088 44.8067 109.047 53.0206 118.294 58.6859C116.291 54.9557 113.239 51.8009 111.242 48.0078C120.433 57.3369 135.81 61.9012 139.837 75.5819C140.87 70.8245 144.19 67.0013 145.184 62.1486C146.289 56.7601 147.081 51.0399 146.906 45.5327C146.508 33.2909 138.274 21.8105 128.747 14.7092Z" transform="matrix(-1 0 0 1 216.93027 23.14698)" id="Shaggy-Hair" fill="#28354B" fill-rule="evenodd" stroke="none" />
    <g clip-path="url(#mask_1)">
      <g id="Hair-Color" transform="translate(1 0)">
        <path d="M0 0L264 0L264 280L0 280L0 0Z" id="Color" fill="#724133" fill-rule="evenodd" stroke="none" />
      </g>
    </g>
  </g>
</svg>