<?xml version="1.0" encoding="utf-8"?>
<svg width="266px" height="280px" viewbox="0 0 266 280" version="1.1" xmlns:xlink="http://www.w3.org/1999/xlink" xmlns="http://www.w3.org/2000/svg">
  <defs>
    <path d="M264 0L0 0L0 280L32 280L32 239.499Q32 238.505 32.0488 237.512Q32.0976 236.519 32.195 235.529Q32.2925 234.54 32.4383 233.557Q32.5842 232.573 32.7782 231.598Q32.9721 230.623 33.2137 229.659Q33.4553 228.694 33.7439 227.743Q34.0325 226.791 34.3674 225.855Q34.7023 224.919 35.0828 224.001Q35.4633 223.082 35.8883 222.183Q36.3134 221.285 36.7821 220.408Q37.2507 219.531 37.7618 218.678Q38.273 217.826 38.8253 216.999Q39.3777 216.172 39.9699 215.374Q40.5621 214.575 41.1928 213.807Q41.8236 213.038 42.4912 212.301Q43.1589 211.565 43.8619 210.862Q44.5649 210.159 45.3015 209.491Q46.0382 208.824 46.8067 208.193Q47.5752 207.562 48.3738 206.97Q49.1723 206.378 49.999 205.825Q50.8256 205.273 51.6784 204.762Q52.5311 204.251 53.4079 203.782Q54.2847 203.313 55.1834 202.888Q56.0822 202.463 57.0007 202.083Q57.9192 201.702 58.8553 201.367Q59.7914 201.032 60.7428 200.744Q61.6941 200.455 62.6585 200.214Q63.6229 199.972 64.598 199.778Q65.5731 199.584 66.5566 199.438Q67.54 199.292 68.5294 199.195Q69.5188 199.098 70.5118 199.049Q71.5048 199 72.499 199L108 199L108 180.597Q107.177 180.206 106.367 179.79Q105.557 179.373 104.761 178.93Q103.966 178.487 103.185 178.018Q102.404 177.549 101.638 177.055Q100.873 176.562 100.124 176.043Q99.375 175.525 98.6434 174.982Q97.9118 174.439 97.1982 173.873Q96.4845 173.307 95.7897 172.718Q95.0949 172.129 94.4196 171.518Q93.7443 170.907 93.0892 170.274Q92.4342 169.641 91.8 168.987Q91.1659 168.333 90.5533 167.659Q89.9408 166.985 89.3505 166.291Q88.7602 165.598 88.1928 164.885Q87.6254 164.173 87.0815 163.442Q86.5375 162.711 86.0176 161.964Q85.4978 161.216 85.0025 160.451Q84.5072 159.687 84.037 158.907Q83.5668 158.126 83.1223 157.331Q82.6777 156.536 82.2593 155.727Q81.8408 154.918 81.4489 154.096Q81.057 153.274 80.692 152.439Q80.327 151.605 79.9894 150.759Q79.6518 149.913 79.3418 149.056Q79.0319 148.2 78.7499 147.334Q78.468 146.468 78.2144 145.593Q77.9608 144.718 77.7357 143.835Q77.5107 142.953 77.3145 142.063Q77.1183 141.174 76.9512 140.278Q76.784 139.383 76.646 138.483Q76.5081 137.582 76.3995 136.678Q76.2909 135.774 76.2117 134.866Q75.9482 134.826 75.6867 134.775Q75.4252 134.724 75.1662 134.661Q74.9072 134.598 74.6513 134.524Q74.3953 134.449 74.143 134.364Q73.8906 134.278 73.6423 134.181Q73.394 134.084 73.1502 133.977Q72.9064 133.869 72.6676 133.751Q72.4289 133.632 72.1956 133.503Q71.9623 133.374 71.735 133.235Q71.5077 133.096 71.2868 132.947Q71.0659 132.798 70.8518 132.639Q70.6377 132.48 70.4309 132.312Q70.2241 132.144 70.0249 131.967Q69.8258 131.79 69.6347 131.604Q69.4436 131.418 69.261 131.224Q69.0783 131.03 68.9045 130.828Q68.7306 130.626 68.5659 130.417Q68.4012 130.207 68.2459 129.991Q68.0907 129.774 67.9452 129.551Q67.7997 129.327 67.6643 129.098Q67.5289 128.868 67.4038 128.633Q67.2787 128.398 67.1642 128.157Q67.0497 127.916 66.946 127.671Q66.8423 127.425 66.7495 127.175Q66.6568 126.926 66.5753 126.672Q66.4937 126.418 66.4236 126.161Q66.3534 125.904 66.2947 125.644Q66.236 125.384 66.1889 125.122Q66.1418 124.859 66.1064 124.595Q66.071 124.331 66.0473 124.065Q66.0237 123.8 66.0118 123.534Q66 123.268 66 123.001L66 109.999Q66 109.736 66.0115 109.473Q66.0231 109.21 66.0461 108.948Q66.0692 108.686 66.1037 108.425Q66.1382 108.164 66.1842 107.905Q66.2301 107.646 66.2873 107.389Q66.3446 107.132 66.413 106.878Q66.4815 106.624 66.561 106.373Q66.6405 106.122 66.731 105.875Q66.8214 105.628 66.9226 105.385Q67.0238 105.142 67.1356 104.904Q67.2473 104.665 67.3694 104.432Q67.4915 104.199 67.6237 103.972Q67.7559 103.744 67.8979 103.523Q68.04 103.301 68.1916 103.086Q68.3432 102.871 68.5041 102.663Q68.665 102.454 68.8349 102.253Q69.0048 102.052 69.1833 101.859Q69.3618 101.666 69.5487 101.48Q69.7355 101.295 69.9303 101.118Q70.125 100.941 70.3274 100.773Q70.5297 100.605 70.7393 100.445Q70.9488 100.286 71.1651 100.136Q71.3814 99.9864 71.6041 99.8461Q71.8267 99.7059 72.0554 99.5755Q72.284 99.4452 72.5181 99.325Q72.7522 99.2048 72.9913 99.0949Q73.2305 98.9851 73.4742 98.8859Q73.7179 98.7866 73.9658 98.6982Q74.2136 98.6097 74.4651 98.5322Q74.7166 98.4547 74.9713 98.3883Q75.2259 98.3219 75.4832 98.2667Q75.7405 98.2115 76 98.1677L76 91.999Q76 90.6243 76.0675 89.2513Q76.1349 87.8782 76.2696 86.5101Q76.4044 85.1421 76.6061 83.7822Q76.8078 82.4224 77.076 81.0741Q77.3442 79.7258 77.6782 78.3923Q78.0122 77.0588 78.4113 75.7433Q78.8103 74.4278 79.2735 73.1335Q79.7366 71.8391 80.2627 70.5691Q80.7887 69.299 81.3765 68.0563Q81.9642 66.8136 82.6123 65.6012Q83.2603 64.3889 83.967 63.2098Q84.6738 62.0306 85.4375 60.8876Q86.2012 59.7446 87.0202 58.6404Q87.8391 57.5363 88.7112 56.4736Q89.5833 55.4109 90.5065 54.3924Q91.4296 53.3738 92.4017 52.4017Q93.3738 51.4297 94.3924 50.5065Q95.4109 49.5833 96.4736 48.7112Q97.5362 47.8391 98.6404 47.0202Q99.7446 46.2013 100.888 45.4375Q102.031 44.6738 103.21 43.9671Q104.389 43.2603 105.601 42.6123Q106.814 41.9643 108.056 41.3765Q109.299 40.7887 110.569 40.2627Q111.839 39.7366 113.133 39.2735Q114.428 38.8104 115.743 38.4113Q117.059 38.0122 118.392 37.6782Q119.726 37.3442 121.074 37.076Q122.422 36.8078 123.782 36.6061Q125.142 36.4044 126.51 36.2697Q127.878 36.1349 129.251 36.0675Q130.624 36 131.999 36L132.001 36Q133.376 36 134.749 36.0675Q136.122 36.1349 137.49 36.2697Q138.858 36.4044 140.218 36.6061Q141.578 36.8078 142.926 37.076Q144.274 37.3442 145.608 37.6782Q146.941 38.0122 148.257 38.4113Q149.572 38.8104 150.866 39.2735Q152.161 39.7366 153.431 40.2627Q154.701 40.7887 155.944 41.3765Q157.186 41.9643 158.399 42.6123Q159.611 43.2603 160.79 43.967Q161.969 44.6738 163.112 45.4375Q164.255 46.2013 165.36 47.0202Q166.464 47.8391 167.526 48.7112Q168.589 49.5833 169.608 50.5065Q170.626 51.4297 171.598 52.4017Q172.57 53.3738 173.493 54.3924Q174.417 55.4109 175.289 56.4736Q176.161 57.5363 176.98 58.6404Q177.799 59.7446 178.562 60.8876Q179.326 62.0306 180.033 63.2098Q180.74 64.3889 181.388 65.6012Q182.036 66.8136 182.623 68.0563Q183.211 69.299 183.737 70.5691Q184.263 71.8391 184.727 73.1335Q185.19 74.4278 185.589 75.7433Q185.988 77.0588 186.322 78.3923Q186.656 79.7258 186.924 81.0741Q187.192 82.4224 187.394 83.7822Q187.596 85.1421 187.73 86.5101Q187.865 87.8782 187.933 89.2513Q188 90.6243 188 91.999L188 98.1677Q188.259 98.2115 188.517 98.2667Q188.774 98.3219 189.029 98.3883Q189.283 98.4547 189.535 98.5322Q189.786 98.6097 190.034 98.6982Q190.282 98.7866 190.526 98.8859Q190.77 98.9851 191.009 99.0949Q191.248 99.2048 191.482 99.325Q191.716 99.4452 191.945 99.5755Q192.173 99.7059 192.396 99.8461Q192.619 99.9864 192.835 100.136Q193.051 100.286 193.261 100.445Q193.47 100.605 193.673 100.773Q193.875 100.941 194.07 101.118Q194.265 101.295 194.451 101.48Q194.638 101.666 194.817 101.859Q194.995 102.052 195.165 102.253Q195.335 102.454 195.496 102.663Q195.657 102.871 195.808 103.086Q195.96 103.301 196.102 103.523Q196.244 103.744 196.376 103.972Q196.509 104.199 196.631 104.432Q196.753 104.665 196.864 104.904Q196.976 105.142 197.077 105.385Q197.179 105.628 197.269 105.875Q197.359 106.122 197.439 106.373Q197.519 106.624 197.587 106.878Q197.655 107.132 197.713 107.389Q197.77 107.646 197.816 107.905Q197.862 108.164 197.896 108.425Q197.931 108.686 197.954 108.948Q197.977 109.21 197.988 109.473Q198 109.736 198 109.999L198 123.001Q198 123.268 197.988 123.534Q197.976 123.8 197.953 124.065Q197.929 124.331 197.894 124.595Q197.858 124.859 197.811 125.122Q197.764 125.384 197.705 125.644Q197.647 125.904 197.576 126.161Q197.506 126.418 197.425 126.672Q197.343 126.925 197.25 127.175Q197.158 127.425 197.054 127.671Q196.95 127.916 196.836 128.157Q196.721 128.398 196.596 128.633Q196.471 128.868 196.336 129.098Q196.2 129.327 196.055 129.551Q195.909 129.774 195.754 129.991Q195.599 130.207 195.434 130.417Q195.269 130.626 195.096 130.828Q194.922 131.03 194.739 131.224Q194.556 131.418 194.365 131.604Q194.174 131.79 193.975 131.967Q193.776 132.144 193.569 132.312Q193.362 132.48 193.148 132.639Q192.934 132.798 192.713 132.947Q192.492 133.096 192.265 133.235Q192.038 133.374 191.804 133.503Q191.571 133.632 191.332 133.751Q191.094 133.869 190.85 133.977Q190.606 134.084 190.358 134.181Q190.109 134.278 189.857 134.364Q189.605 134.449 189.349 134.524Q189.093 134.598 188.834 134.661Q188.575 134.724 188.313 134.775Q188.052 134.826 187.788 134.866Q187.709 135.774 187.601 136.678Q187.492 137.582 187.354 138.483Q187.216 139.383 187.049 140.278Q186.882 141.174 186.685 142.063Q186.489 142.953 186.264 143.835Q186.039 144.718 185.786 145.593Q185.532 146.468 185.25 147.334Q184.968 148.2 184.658 149.056Q184.348 149.913 184.011 150.759Q183.673 151.605 183.308 152.439Q182.943 153.274 182.551 154.096Q182.159 154.918 181.741 155.727Q181.322 156.536 180.878 157.331Q180.433 158.126 179.963 158.907Q179.493 159.687 178.998 160.451Q178.502 161.216 177.982 161.964Q177.462 162.711 176.919 163.442Q176.375 164.173 175.807 164.885Q175.24 165.598 174.649 166.291Q174.059 166.985 173.447 167.659Q172.834 168.333 172.2 168.987Q171.566 169.641 170.911 170.274Q170.256 170.907 169.58 171.518Q168.905 172.129 168.21 172.718Q167.515 173.307 166.802 173.873Q166.088 174.439 165.357 174.982Q164.625 175.525 163.876 176.043Q163.127 176.562 162.362 177.055Q161.596 177.549 160.815 178.018Q160.034 178.487 159.238 178.93Q158.443 179.373 157.633 179.79Q156.823 180.206 156 180.597L156 199L191.501 199Q192.495 199 193.488 199.049Q194.481 199.098 195.471 199.195Q196.46 199.292 197.443 199.438Q198.427 199.584 199.402 199.778Q200.377 199.972 201.341 200.214Q202.306 200.455 203.257 200.744Q204.209 201.032 205.145 201.367Q206.081 201.702 206.999 202.083Q207.918 202.463 208.817 202.888Q209.715 203.313 210.592 203.782Q211.469 204.251 212.322 204.762Q213.174 205.273 214.001 205.825Q214.828 206.378 215.626 206.97Q216.425 207.562 217.193 208.193Q217.962 208.824 218.698 209.491Q219.435 210.159 220.138 210.862Q220.841 211.565 221.509 212.301Q222.176 213.038 222.807 213.807Q223.438 214.575 224.03 215.374Q224.622 216.172 225.175 216.999Q225.727 217.826 226.238 218.678Q226.749 219.531 227.218 220.408Q227.687 221.285 228.112 222.183Q228.537 223.082 228.917 224.001Q229.298 224.919 229.633 225.855Q229.967 226.791 230.256 227.743Q230.545 228.694 230.786 229.659Q231.028 230.623 231.222 231.598Q231.416 232.573 231.562 233.557Q231.708 234.54 231.805 235.529Q231.902 236.519 231.951 237.512Q232 238.505 232 239.499L232 280L264 280L264 0Z" id="path_1" />
    <path d="M55.999 0L56.001 0Q57.3757 0 58.7487 0.0674532Q60.1218 0.134906 61.4899 0.26965Q62.8579 0.404394 64.2178 0.606104Q65.5776 0.807815 66.9259 1.076Q68.2741 1.3442 69.6076 1.67822Q70.9411 2.01224 72.2566 2.4113Q73.5722 2.81035 74.8665 3.27347Q76.1608 3.73659 77.4309 4.26267Q78.7009 4.78874 79.9436 5.3765Q81.1864 5.96426 82.3987 6.61229Q83.6111 7.26032 84.7902 7.96705Q85.9694 8.67379 87.1124 9.43753Q88.2554 10.2013 89.3596 11.0202Q90.4637 11.8391 91.5264 12.7112Q92.589 13.5833 93.6076 14.5065Q94.6262 15.4297 95.5983 16.4017Q96.5703 17.3738 97.4935 18.3924Q98.4167 19.411 99.2888 20.4736Q100.161 21.5363 100.98 22.6404Q101.799 23.7446 102.562 24.8876Q103.326 26.0306 104.033 27.2098Q104.74 28.3889 105.388 29.6013Q106.036 30.8136 106.623 32.0563Q107.211 33.2991 107.737 34.5691Q108.263 35.8392 108.727 37.1335Q109.19 38.4278 109.589 39.7433Q109.988 41.0588 110.322 42.3923Q110.656 43.7258 110.924 45.0741Q111.192 46.4224 111.394 47.7822Q111.596 49.1421 111.73 50.5101Q111.865 51.8782 111.933 53.2513Q112 54.6243 112 55.999L112 94.001Q112 95.3757 111.933 96.7487Q111.865 98.1218 111.73 99.4899Q111.596 100.858 111.394 102.218Q111.192 103.578 110.924 104.926Q110.656 106.274 110.322 107.608Q109.988 108.941 109.589 110.257Q109.19 111.572 108.727 112.866Q108.263 114.161 107.737 115.431Q107.211 116.701 106.623 117.944Q106.036 119.186 105.388 120.399Q104.74 121.611 104.033 122.79Q103.326 123.969 102.562 125.112Q101.799 126.255 100.98 127.36Q100.161 128.464 99.2888 129.526Q98.4167 130.589 97.4935 131.608Q96.5703 132.626 95.5983 133.598Q94.6262 134.57 93.6076 135.494Q92.589 136.417 91.5264 137.289Q90.4637 138.161 89.3596 138.98Q88.2554 139.799 87.1124 140.562Q85.9693 141.326 84.7902 142.033Q83.6111 142.74 82.3987 143.388Q81.1864 144.036 79.9436 144.623Q78.7009 145.211 77.4309 145.737Q76.1608 146.263 74.8665 146.727Q73.5722 147.19 72.2566 147.589Q70.9411 147.988 69.6076 148.322Q68.2741 148.656 66.9259 148.924Q65.5776 149.192 64.2178 149.394Q62.8579 149.596 61.4899 149.73Q60.1218 149.865 58.7487 149.933Q57.3757 150 56.001 150L55.999 150Q54.6243 150 53.2513 149.933Q51.8782 149.865 50.5101 149.73Q49.1421 149.596 47.7822 149.394Q46.4224 149.192 45.0741 148.924Q43.7258 148.656 42.3923 148.322Q41.0588 147.988 39.7433 147.589Q38.4278 147.19 37.1335 146.727Q35.8392 146.263 34.5691 145.737Q33.2991 145.211 32.0563 144.623Q30.8136 144.036 29.6013 143.388Q28.3889 142.74 27.2098 142.033Q26.0306 141.326 24.8876 140.562Q23.7446 139.799 22.6404 138.98Q21.5363 138.161 20.4736 137.289Q19.411 136.417 18.3924 135.494Q17.3738 134.57 16.4017 133.598Q15.4297 132.626 14.5065 131.608Q13.5833 130.589 12.7112 129.526Q11.8391 128.464 11.0202 127.36Q10.2013 126.255 9.43753 125.112Q8.67379 123.969 7.96705 122.79Q7.26032 121.611 6.61229 120.399Q5.96426 119.186 5.3765 117.944Q4.78874 116.701 4.26267 115.431Q3.73659 114.161 3.27347 112.866Q2.81035 111.572 2.4113 110.257Q2.01224 108.941 1.67822 107.608Q1.3442 106.274 1.076 104.926Q0.807815 103.578 0.606104 102.218Q0.404394 100.858 0.26965 99.4899Q0.134906 98.1218 0.0674532 96.7487Q0 95.3757 0 94.001L0 55.999Q0 54.6243 0.0674532 53.2513Q0.134906 51.8782 0.26965 50.5101Q0.404394 49.1421 0.606104 47.7822Q0.807815 46.4224 1.076 45.0741Q1.3442 43.7258 1.67822 42.3923Q2.01224 41.0588 2.4113 39.7433Q2.81035 38.4278 3.27347 37.1335Q3.73659 35.8392 4.26267 34.5691Q4.78874 33.2991 5.3765 32.0563Q5.96426 30.8136 6.61229 29.6013Q7.26032 28.3889 7.96705 27.2098Q8.67379 26.0306 9.43753 24.8876Q10.2013 23.7446 11.0202 22.6404Q11.8391 21.5363 12.7112 20.4736Q13.5833 19.411 14.5065 18.3924Q15.4297 17.3738 16.4017 16.4017Q17.3738 15.4297 18.3924 14.5065Q19.411 13.5833 20.4736 12.7112Q21.5363 11.8391 22.6404 11.0202Q23.7446 10.2013 24.8876 9.43753Q26.0306 8.67379 27.2098 7.96705Q28.3889 7.26032 29.6013 6.61229Q30.8136 5.96426 32.0563 5.3765Q33.2991 4.78874 34.5691 4.26267Q35.8392 3.73659 37.1335 3.27347Q38.4278 2.81035 39.7433 2.4113Q41.0588 2.01224 42.3923 1.67822Q43.7258 1.3442 45.0741 1.076Q46.4224 0.807815 47.7822 0.606104Q49.1421 0.404394 50.5101 0.26965Q51.8782 0.134906 53.2513 0.0674532Q54.6243 0 55.999 0Z" id="path_2" />
    <clipPath id="mask_1">
      <use xlink:href="#path_1" />
    </clipPath>
    <clipPath id="mask_2">
      <use xlink:href="#path_2" />
    </clipPath>
  </defs>
  <g id="TopLong-HairShaved-Sides">
    <g id="Behind" transform="translate(1 0)">
      <path d="M264 0L0 0L0 280L32 280L32 239.499Q32 238.505 32.0488 237.512Q32.0976 236.519 32.195 235.529Q32.2925 234.54 32.4383 233.557Q32.5842 232.573 32.7782 231.598Q32.9721 230.623 33.2137 229.659Q33.4553 228.694 33.7439 227.743Q34.0325 226.791 34.3674 225.855Q34.7023 224.919 35.0828 224.001Q35.4633 223.082 35.8883 222.183Q36.3134 221.285 36.7821 220.408Q37.2507 219.531 37.7618 218.678Q38.273 217.826 38.8253 216.999Q39.3777 216.172 39.9699 215.374Q40.5621 214.575 41.1928 213.807Q41.8236 213.038 42.4912 212.301Q43.1589 211.565 43.8619 210.862Q44.5649 210.159 45.3015 209.491Q46.0382 208.824 46.8067 208.193Q47.5752 207.562 48.3738 206.97Q49.1723 206.378 49.999 205.825Q50.8256 205.273 51.6784 204.762Q52.5311 204.251 53.4079 203.782Q54.2847 203.313 55.1834 202.888Q56.0822 202.463 57.0007 202.083Q57.9192 201.702 58.8553 201.367Q59.7914 201.032 60.7428 200.744Q61.6941 200.455 62.6585 200.214Q63.6229 199.972 64.598 199.778Q65.5731 199.584 66.5566 199.438Q67.54 199.292 68.5294 199.195Q69.5188 199.098 70.5118 199.049Q71.5048 199 72.499 199L108 199L108 180.597Q107.177 180.206 106.367 179.79Q105.557 179.373 104.761 178.93Q103.966 178.487 103.185 178.018Q102.404 177.549 101.638 177.055Q100.873 176.562 100.124 176.043Q99.375 175.525 98.6434 174.982Q97.9118 174.439 97.1982 173.873Q96.4845 173.307 95.7897 172.718Q95.0949 172.129 94.4196 171.518Q93.7443 170.907 93.0892 170.274Q92.4342 169.641 91.8 168.987Q91.1659 168.333 90.5533 167.659Q89.9408 166.985 89.3505 166.291Q88.7602 165.598 88.1928 164.885Q87.6254 164.173 87.0815 163.442Q86.5375 162.711 86.0176 161.964Q85.4978 161.216 85.0025 160.451Q84.5072 159.687 84.037 158.907Q83.5668 158.126 83.1223 157.331Q82.6777 156.536 82.2593 155.727Q81.8408 154.918 81.4489 154.096Q81.057 153.274 80.692 152.439Q80.327 151.605 79.9894 150.759Q79.6518 149.913 79.3418 149.056Q79.0319 148.2 78.7499 147.334Q78.468 146.468 78.2144 145.593Q77.9608 144.718 77.7357 143.835Q77.5107 142.953 77.3145 142.063Q77.1183 141.174 76.9512 140.278Q76.784 139.383 76.646 138.483Q76.5081 137.582 76.3995 136.678Q76.2909 135.774 76.2117 134.866Q75.9482 134.826 75.6867 134.775Q75.4252 134.724 75.1662 134.661Q74.9072 134.598 74.6513 134.524Q74.3953 134.449 74.143 134.364Q73.8906 134.278 73.6423 134.181Q73.394 134.084 73.1502 133.977Q72.9064 133.869 72.6676 133.751Q72.4289 133.632 72.1956 133.503Q71.9623 133.374 71.735 133.235Q71.5077 133.096 71.2868 132.947Q71.0659 132.798 70.8518 132.639Q70.6377 132.48 70.4309 132.312Q70.2241 132.144 70.0249 131.967Q69.8258 131.79 69.6347 131.604Q69.4436 131.418 69.261 131.224Q69.0783 131.03 68.9045 130.828Q68.7306 130.626 68.5659 130.417Q68.4012 130.207 68.2459 129.991Q68.0907 129.774 67.9452 129.551Q67.7997 129.327 67.6643 129.098Q67.5289 128.868 67.4038 128.633Q67.2787 128.398 67.1642 128.157Q67.0497 127.916 66.946 127.671Q66.8423 127.425 66.7495 127.175Q66.6568 126.926 66.5753 126.672Q66.4937 126.418 66.4236 126.161Q66.3534 125.904 66.2947 125.644Q66.236 125.384 66.1889 125.122Q66.1418 124.859 66.1064 124.595Q66.071 124.331 66.0473 124.065Q66.0237 123.8 66.0118 123.534Q66 123.268 66 123.001L66 109.999Q66 109.736 66.0115 109.473Q66.0231 109.21 66.0461 108.948Q66.0692 108.686 66.1037 108.425Q66.1382 108.164 66.1842 107.905Q66.2301 107.646 66.2873 107.389Q66.3446 107.132 66.413 106.878Q66.4815 106.624 66.561 106.373Q66.6405 106.122 66.731 105.875Q66.8214 105.628 66.9226 105.385Q67.0238 105.142 67.1356 104.904Q67.2473 104.665 67.3694 104.432Q67.4915 104.199 67.6237 103.972Q67.7559 103.744 67.8979 103.523Q68.04 103.301 68.1916 103.086Q68.3432 102.871 68.5041 102.663Q68.665 102.454 68.8349 102.253Q69.0048 102.052 69.1833 101.859Q69.3618 101.666 69.5487 101.48Q69.7355 101.295 69.9303 101.118Q70.125 100.941 70.3274 100.773Q70.5297 100.605 70.7393 100.445Q70.9488 100.286 71.1651 100.136Q71.3814 99.9864 71.6041 99.8461Q71.8267 99.7059 72.0554 99.5755Q72.284 99.4452 72.5181 99.325Q72.7522 99.2048 72.9913 99.0949Q73.2305 98.9851 73.4742 98.8859Q73.7179 98.7866 73.9658 98.6982Q74.2136 98.6097 74.4651 98.5322Q74.7166 98.4547 74.9713 98.3883Q75.2259 98.3219 75.4832 98.2667Q75.7405 98.2115 76 98.1677L76 91.999Q76 90.6243 76.0675 89.2513Q76.1349 87.8782 76.2696 86.5101Q76.4044 85.1421 76.6061 83.7822Q76.8078 82.4224 77.076 81.0741Q77.3442 79.7258 77.6782 78.3923Q78.0122 77.0588 78.4113 75.7433Q78.8103 74.4278 79.2735 73.1335Q79.7366 71.8391 80.2627 70.5691Q80.7887 69.299 81.3765 68.0563Q81.9642 66.8136 82.6123 65.6012Q83.2603 64.3889 83.967 63.2098Q84.6738 62.0306 85.4375 60.8876Q86.2012 59.7446 87.0202 58.6404Q87.8391 57.5363 88.7112 56.4736Q89.5833 55.4109 90.5065 54.3924Q91.4296 53.3738 92.4017 52.4017Q93.3738 51.4297 94.3924 50.5065Q95.4109 49.5833 96.4736 48.7112Q97.5362 47.8391 98.6404 47.0202Q99.7446 46.2013 100.888 45.4375Q102.031 44.6738 103.21 43.9671Q104.389 43.2603 105.601 42.6123Q106.814 41.9643 108.056 41.3765Q109.299 40.7887 110.569 40.2627Q111.839 39.7366 113.133 39.2735Q114.428 38.8104 115.743 38.4113Q117.059 38.0122 118.392 37.6782Q119.726 37.3442 121.074 37.076Q122.422 36.8078 123.782 36.6061Q125.142 36.4044 126.51 36.2697Q127.878 36.1349 129.251 36.0675Q130.624 36 131.999 36L132.001 36Q133.376 36 134.749 36.0675Q136.122 36.1349 137.49 36.2697Q138.858 36.4044 140.218 36.6061Q141.578 36.8078 142.926 37.076Q144.274 37.3442 145.608 37.6782Q146.941 38.0122 148.257 38.4113Q149.572 38.8104 150.866 39.2735Q152.161 39.7366 153.431 40.2627Q154.701 40.7887 155.944 41.3765Q157.186 41.9643 158.399 42.6123Q159.611 43.2603 160.79 43.967Q161.969 44.6738 163.112 45.4375Q164.255 46.2013 165.36 47.0202Q166.464 47.8391 167.526 48.7112Q168.589 49.5833 169.608 50.5065Q170.626 51.4297 171.598 52.4017Q172.57 53.3738 173.493 54.3924Q174.417 55.4109 175.289 56.4736Q176.161 57.5363 176.98 58.6404Q177.799 59.7446 178.562 60.8876Q179.326 62.0306 180.033 63.2098Q180.74 64.3889 181.388 65.6012Q182.036 66.8136 182.623 68.0563Q183.211 69.299 183.737 70.5691Q184.263 71.8391 184.727 73.1335Q185.19 74.4278 185.589 75.7433Q185.988 77.0588 186.322 78.3923Q186.656 79.7258 186.924 81.0741Q187.192 82.4224 187.394 83.7822Q187.596 85.1421 187.73 86.5101Q187.865 87.8782 187.933 89.2513Q188 90.6243 188 91.999L188 98.1677Q188.259 98.2115 188.517 98.2667Q188.774 98.3219 189.029 98.3883Q189.283 98.4547 189.535 98.5322Q189.786 98.6097 190.034 98.6982Q190.282 98.7866 190.526 98.8859Q190.77 98.9851 191.009 99.0949Q191.248 99.2048 191.482 99.325Q191.716 99.4452 191.945 99.5755Q192.173 99.7059 192.396 99.8461Q192.619 99.9864 192.835 100.136Q193.051 100.286 193.261 100.445Q193.47 100.605 193.673 100.773Q193.875 100.941 194.07 101.118Q194.265 101.295 194.451 101.48Q194.638 101.666 194.817 101.859Q194.995 102.052 195.165 102.253Q195.335 102.454 195.496 102.663Q195.657 102.871 195.808 103.086Q195.96 103.301 196.102 103.523Q196.244 103.744 196.376 103.972Q196.509 104.199 196.631 104.432Q196.753 104.665 196.864 104.904Q196.976 105.142 197.077 105.385Q197.179 105.628 197.269 105.875Q197.359 106.122 197.439 106.373Q197.519 106.624 197.587 106.878Q197.655 107.132 197.713 107.389Q197.77 107.646 197.816 107.905Q197.862 108.164 197.896 108.425Q197.931 108.686 197.954 108.948Q197.977 109.21 197.988 109.473Q198 109.736 198 109.999L198 123.001Q198 123.268 197.988 123.534Q197.976 123.8 197.953 124.065Q197.929 124.331 197.894 124.595Q197.858 124.859 197.811 125.122Q197.764 125.384 197.705 125.644Q197.647 125.904 197.576 126.161Q197.506 126.418 197.425 126.672Q197.343 126.925 197.25 127.175Q197.158 127.425 197.054 127.671Q196.95 127.916 196.836 128.157Q196.721 128.398 196.596 128.633Q196.471 128.868 196.336 129.098Q196.2 129.327 196.055 129.551Q195.909 129.774 195.754 129.991Q195.599 130.207 195.434 130.417Q195.269 130.626 195.096 130.828Q194.922 131.03 194.739 131.224Q194.556 131.418 194.365 131.604Q194.174 131.79 193.975 131.967Q193.776 132.144 193.569 132.312Q193.362 132.48 193.148 132.639Q192.934 132.798 192.713 132.947Q192.492 133.096 192.265 133.235Q192.038 133.374 191.804 133.503Q191.571 133.632 191.332 133.751Q191.094 133.869 190.85 133.977Q190.606 134.084 190.358 134.181Q190.109 134.278 189.857 134.364Q189.605 134.449 189.349 134.524Q189.093 134.598 188.834 134.661Q188.575 134.724 188.313 134.775Q188.052 134.826 187.788 134.866Q187.709 135.774 187.601 136.678Q187.492 137.582 187.354 138.483Q187.216 139.383 187.049 140.278Q186.882 141.174 186.685 142.063Q186.489 142.953 186.264 143.835Q186.039 144.718 185.786 145.593Q185.532 146.468 185.25 147.334Q184.968 148.2 184.658 149.056Q184.348 149.913 184.011 150.759Q183.673 151.605 183.308 152.439Q182.943 153.274 182.551 154.096Q182.159 154.918 181.741 155.727Q181.322 156.536 180.878 157.331Q180.433 158.126 179.963 158.907Q179.493 159.687 178.998 160.451Q178.502 161.216 177.982 161.964Q177.462 162.711 176.919 163.442Q176.375 164.173 175.807 164.885Q175.24 165.598 174.649 166.291Q174.059 166.985 173.447 167.659Q172.834 168.333 172.2 168.987Q171.566 169.641 170.911 170.274Q170.256 170.907 169.58 171.518Q168.905 172.129 168.21 172.718Q167.515 173.307 166.802 173.873Q166.088 174.439 165.357 174.982Q164.625 175.525 163.876 176.043Q163.127 176.562 162.362 177.055Q161.596 177.549 160.815 178.018Q160.034 178.487 159.238 178.93Q158.443 179.373 157.633 179.79Q156.823 180.206 156 180.597L156 199L191.501 199Q192.495 199 193.488 199.049Q194.481 199.098 195.471 199.195Q196.46 199.292 197.443 199.438Q198.427 199.584 199.402 199.778Q200.377 199.972 201.341 200.214Q202.306 200.455 203.257 200.744Q204.209 201.032 205.145 201.367Q206.081 201.702 206.999 202.083Q207.918 202.463 208.817 202.888Q209.715 203.313 210.592 203.782Q211.469 204.251 212.322 204.762Q213.174 205.273 214.001 205.825Q214.828 206.378 215.626 206.97Q216.425 207.562 217.193 208.193Q217.962 208.824 218.698 209.491Q219.435 210.159 220.138 210.862Q220.841 211.565 221.509 212.301Q222.176 213.038 222.807 213.807Q223.438 214.575 224.03 215.374Q224.622 216.172 225.175 216.999Q225.727 217.826 226.238 218.678Q226.749 219.531 227.218 220.408Q227.687 221.285 228.112 222.183Q228.537 223.082 228.917 224.001Q229.298 224.919 229.633 225.855Q229.967 226.791 230.256 227.743Q230.545 228.694 230.786 229.659Q231.028 230.623 231.222 231.598Q231.416 232.573 231.562 233.557Q231.708 234.54 231.805 235.529Q231.902 236.519 231.951 237.512Q232 238.505 232 239.499L232 280L264 280L264 0Z" id="Mask-Hair" fill="none" fill-rule="evenodd" stroke="none" />
      <g clip-path="url(#mask_1)">
        <path d="M48.4819 0L78.3027 0C103.708 2.13163e-14 124.303 20.5949 124.303 46L124.303 114.109C124.303 140.65 143.061 164.349 154.913 186.052C166.764 207.754 147.557 228.243 128.073 236.769C123.205 238.9 117.948 240 112.634 240L67.5658 240C11.2135 240 2.51936 176.31 5.68434e-14 106.504L2.51936 44.1431C3.51572 19.4805 23.7991 3.55271e-14 48.4819 0Z" transform="translate(67.69728 40)" id="Hair" fill="#CCB55A" fill-rule="evenodd" stroke="none" />
      </g>
    </g>
    <g id="Top" transform="translate(77 36)">
      <path d="M55.999 0L56.001 0Q57.3757 0 58.7487 0.0674532Q60.1218 0.134906 61.4899 0.26965Q62.8579 0.404394 64.2178 0.606104Q65.5776 0.807815 66.9259 1.076Q68.2741 1.3442 69.6076 1.67822Q70.9411 2.01224 72.2566 2.4113Q73.5722 2.81035 74.8665 3.27347Q76.1608 3.73659 77.4309 4.26267Q78.7009 4.78874 79.9436 5.3765Q81.1864 5.96426 82.3987 6.61229Q83.6111 7.26032 84.7902 7.96705Q85.9694 8.67379 87.1124 9.43753Q88.2554 10.2013 89.3596 11.0202Q90.4637 11.8391 91.5264 12.7112Q92.589 13.5833 93.6076 14.5065Q94.6262 15.4297 95.5983 16.4017Q96.5703 17.3738 97.4935 18.3924Q98.4167 19.411 99.2888 20.4736Q100.161 21.5363 100.98 22.6404Q101.799 23.7446 102.562 24.8876Q103.326 26.0306 104.033 27.2098Q104.74 28.3889 105.388 29.6013Q106.036 30.8136 106.623 32.0563Q107.211 33.2991 107.737 34.5691Q108.263 35.8392 108.727 37.1335Q109.19 38.4278 109.589 39.7433Q109.988 41.0588 110.322 42.3923Q110.656 43.7258 110.924 45.0741Q111.192 46.4224 111.394 47.7822Q111.596 49.1421 111.73 50.5101Q111.865 51.8782 111.933 53.2513Q112 54.6243 112 55.999L112 94.001Q112 95.3757 111.933 96.7487Q111.865 98.1218 111.73 99.4899Q111.596 100.858 111.394 102.218Q111.192 103.578 110.924 104.926Q110.656 106.274 110.322 107.608Q109.988 108.941 109.589 110.257Q109.19 111.572 108.727 112.866Q108.263 114.161 107.737 115.431Q107.211 116.701 106.623 117.944Q106.036 119.186 105.388 120.399Q104.74 121.611 104.033 122.79Q103.326 123.969 102.562 125.112Q101.799 126.255 100.98 127.36Q100.161 128.464 99.2888 129.526Q98.4167 130.589 97.4935 131.608Q96.5703 132.626 95.5983 133.598Q94.6262 134.57 93.6076 135.494Q92.589 136.417 91.5264 137.289Q90.4637 138.161 89.3596 138.98Q88.2554 139.799 87.1124 140.562Q85.9693 141.326 84.7902 142.033Q83.6111 142.74 82.3987 143.388Q81.1864 144.036 79.9436 144.623Q78.7009 145.211 77.4309 145.737Q76.1608 146.263 74.8665 146.727Q73.5722 147.19 72.2566 147.589Q70.9411 147.988 69.6076 148.322Q68.2741 148.656 66.9259 148.924Q65.5776 149.192 64.2178 149.394Q62.8579 149.596 61.4899 149.73Q60.1218 149.865 58.7487 149.933Q57.3757 150 56.001 150L55.999 150Q54.6243 150 53.2513 149.933Q51.8782 149.865 50.5101 149.73Q49.1421 149.596 47.7822 149.394Q46.4224 149.192 45.0741 148.924Q43.7258 148.656 42.3923 148.322Q41.0588 147.988 39.7433 147.589Q38.4278 147.19 37.1335 146.727Q35.8392 146.263 34.5691 145.737Q33.2991 145.211 32.0563 144.623Q30.8136 144.036 29.6013 143.388Q28.3889 142.74 27.2098 142.033Q26.0306 141.326 24.8876 140.562Q23.7446 139.799 22.6404 138.98Q21.5363 138.161 20.4736 137.289Q19.411 136.417 18.3924 135.494Q17.3738 134.57 16.4017 133.598Q15.4297 132.626 14.5065 131.608Q13.5833 130.589 12.7112 129.526Q11.8391 128.464 11.0202 127.36Q10.2013 126.255 9.43753 125.112Q8.67379 123.969 7.96705 122.79Q7.26032 121.611 6.61229 120.399Q5.96426 119.186 5.3765 117.944Q4.78874 116.701 4.26267 115.431Q3.73659 114.161 3.27347 112.866Q2.81035 111.572 2.4113 110.257Q2.01224 108.941 1.67822 107.608Q1.3442 106.274 1.076 104.926Q0.807815 103.578 0.606104 102.218Q0.404394 100.858 0.26965 99.4899Q0.134906 98.1218 0.0674532 96.7487Q0 95.3757 0 94.001L0 55.999Q0 54.6243 0.0674532 53.2513Q0.134906 51.8782 0.26965 50.5101Q0.404394 49.1421 0.606104 47.7822Q0.807815 46.4224 1.076 45.0741Q1.3442 43.7258 1.67822 42.3923Q2.01224 41.0588 2.4113 39.7433Q2.81035 38.4278 3.27347 37.1335Q3.73659 35.8392 4.26267 34.5691Q4.78874 33.2991 5.3765 32.0563Q5.96426 30.8136 6.61229 29.6013Q7.26032 28.3889 7.96705 27.2098Q8.67379 26.0306 9.43753 24.8876Q10.2013 23.7446 11.0202 22.6404Q11.8391 21.5363 12.7112 20.4736Q13.5833 19.411 14.5065 18.3924Q15.4297 17.3738 16.4017 16.4017Q17.3738 15.4297 18.3924 14.5065Q19.411 13.5833 20.4736 12.7112Q21.5363 11.8391 22.6404 11.0202Q23.7446 10.2013 24.8876 9.43753Q26.0306 8.67379 27.2098 7.96705Q28.3889 7.26032 29.6013 6.61229Q30.8136 5.96426 32.0563 5.3765Q33.2991 4.78874 34.5691 4.26267Q35.8392 3.73659 37.1335 3.27347Q38.4278 2.81035 39.7433 2.4113Q41.0588 2.01224 42.3923 1.67822Q43.7258 1.3442 45.0741 1.076Q46.4224 0.807815 47.7822 0.606104Q49.1421 0.404394 50.5101 0.26965Q51.8782 0.134906 53.2513 0.0674532Q54.6243 0 55.999 0Z" id="Mask" fill="none" fill-rule="evenodd" stroke="none" />
      <g clip-path="url(#mask_2)">
        <path d="M98.801 45.6736C116.421 35.0744 119.589 16.6704 106.85 0.659718C105.548 -0.975755 103.864 0.639478 101.188 3.20583C97.2548 6.97767 91.1792 12.804 81.0286 13.3842C73.0756 13.8388 69.1867 12.4997 65.4612 11.2169C61.1964 9.74845 57.1457 8.35369 47.4576 9.80764C29.3063 12.5317 31.3116 27.1121 19.4672 30.6105C8.25907 33.921 9.39923 42.5952 13.2331 45.634Q12.4411 46.5521 11.6908 47.5045Q10.9404 48.4568 10.2331 49.4416Q9.52585 50.4264 8.86308 51.4417Q8.2003 52.457 7.58333 53.5008Q6.96637 54.5445 6.39643 55.6147Q5.8265 56.6848 5.30472 57.7793Q4.78294 58.8737 4.31035 59.9903Q3.83776 61.1069 3.41529 62.2434Q2.99283 63.3798 2.62132 64.534Q2.24982 65.6881 1.93001 66.8577Q1.6102 68.0272 1.34272 69.2098Q1.07524 70.3924 0.860618 71.5857Q0.645996 72.779 0.484657 73.9807Q0.323318 75.1824 0.215581 76.3901Q0.107844 77.5977 0.0539219 78.809Q-7.3609e-16 80.0203 0 81.2327L0 87.2327Q0 85.8512 0.0699921 84.4715Q0.139984 83.0918 0.279789 81.7175Q0.419593 80.3431 0.628851 78.9775Q0.838108 77.612 1.11628 76.2588Q1.39446 74.9056 1.74083 73.5683Q2.0872 72.2309 2.50089 70.9129Q2.91458 69.5948 3.39451 68.2993Q3.87445 67.0039 4.4194 65.7345Q4.96435 64.465 5.57292 63.2248Q6.18149 61.9846 6.85211 60.7768Q7.52273 59.569 8.25368 58.3968Q8.98463 57.2245 9.77404 56.0908Q10.5634 54.9571 11.4093 53.8648Q12.2551 52.7725 13.1552 51.7245Q14.0553 50.6765 15.0073 49.6755Q15.9593 48.6744 16.9608 47.7229C45.0095 61.5771 83.007 51.0727 94.5913 47.3022Q95.6176 48.2554 96.5935 49.2602Q97.5695 50.2649 98.4925 51.3184Q99.4156 52.372 100.283 53.4715Q101.151 54.5711 101.961 55.7137Q102.771 56.8564 103.521 58.0392Q104.272 59.222 104.96 60.4417Q105.649 61.6615 106.274 62.915Q106.899 64.1685 107.459 65.4525Q108.018 66.7365 108.511 68.0475Q109.005 69.3585 109.43 70.6932Q109.855 72.0278 110.211 73.3825Q110.567 74.7372 110.853 76.1084Q111.138 77.4796 111.354 78.8637Q111.569 80.2477 111.712 81.6411Q111.856 83.0343 111.928 84.4332Q112 85.832 112 87.2327L112 81.2327Q112 80.0219 111.946 78.8122Q111.892 77.6026 111.785 76.3966Q111.678 75.1905 111.517 73.9904Q111.356 72.7903 111.142 71.5986Q110.928 70.4068 110.661 69.2257Q110.394 68.0446 110.075 66.8766Q109.756 65.7085 109.386 64.5558Q109.015 63.403 108.594 62.2679Q108.172 61.1327 107.701 60.0174Q107.23 58.9021 106.709 57.8088Q106.189 56.7155 105.62 55.6464Q105.052 54.5773 104.437 53.5345Q103.821 52.4917 103.16 51.4773Q102.499 50.4629 101.794 49.4788Q101.088 48.4947 100.34 47.543Q99.5911 46.5912 98.801 45.6736Z" transform="translate(0 -25.733717)" id="Shadow" fill="#000000" fill-opacity="0.16078432" fill-rule="evenodd" stroke="none" />
      </g>
    </g>
    <path d="M3.33663 43.8713C36.5615 63.1703 86.7031 43.8713 86.7031 43.8713C101.233 36.0992 111.789 20.5524 95.4098 0.473011C93.2411 -2.18547 84.7031 7.18554 67.8099 8.16046C50.9167 9.13539 54.5384 4.85984 36.5615 7.5839C18.5847 10.308 20.5707 24.8884 8.84014 28.3868C-2.89041 31.8852 -0.963464 41.3736 3.33663 43.8713Z" transform="translate(87.54128 8.490025)" id="Copetón" fill="#E0C863" fill-rule="evenodd" stroke="none" />
    <g id="Facial-Hair" transform="translate(49 72)" />
    <g id="Accessory" transform="translate(62 85)" />
  </g>
</svg>