<?xml version="1.0" encoding="utf-8"?>
<svg width="266px" height="280px" viewbox="0 0 266 280" version="1.1" xmlns:xlink="http://www.w3.org/1999/xlink" xmlns="http://www.w3.org/2000/svg">
  <defs>
    <path d="M79.7938 0C76.4084 0 75.9531 4.83285 75.6365 8.19431C75.5514 9.09746 75.4763 9.89439 75.3571 10.4628C71.2337 7.96431 68.4927 11.419 66.026 14.5279C65.9763 14.5906 65.9267 14.6531 65.8773 14.7154C66.3241 13.2963 67.4301 -0.841776 62.9121 3.47753C62.0772 4.27712 62.3789 5.32409 62.6734 6.3458C62.8345 6.90491 62.9935 7.45645 62.9628 7.95573C62.8844 9.23622 62.4627 10.3777 61.9667 11.5743C61.1713 13.495 60.2463 15.4606 58.9933 17.098C58.1413 18.213 57.9144 18.7717 57.5986 18.8276C57.3765 18.8669 57.1104 18.6575 56.552 18.2182C56.4383 18.1287 56.3124 18.0297 56.1724 17.9213C53.7482 16.0478 52.5962 11.2975 52.716 8.39571C52.7304 8.04858 52.771 7.64398 52.8142 7.21355C53.04 4.96504 53.3366 2.0117 50.3317 2.86462C47.3123 3.72276 48.2701 9.01467 48.8197 12.0515C48.9084 12.5417 48.9865 12.9732 49.0355 13.3178C49.417 16.0052 49.6708 18.7544 49.2188 21.4907C46.9218 19.143 46.1352 22.3663 45.622 24.4692C45.4685 25.0981 45.3395 25.6268 45.2018 25.8763C44.2228 27.6534 42.334 28.5232 40.8667 29.7358C40.444 28.2589 41.1402 26.9026 41.7967 25.6237C42.3822 24.4831 42.936 23.4041 42.6362 22.3562C41.5273 18.4868 38.5342 23.2875 37.5199 24.9143C37.4424 25.0386 37.3765 25.1444 37.3238 25.2263C36.7054 26.1887 34.6891 31.6682 33.9591 32.1593C32.9355 32.8484 26.3541 29.6315 25.6882 29.0186C24.4657 27.8939 24.9106 24.7465 23.3727 24.0298C18.6532 21.8323 21.4412 29.7639 22.3681 31.4035C24.7867 35.6877 25.8836 40.8604 25.3167 45.9078C24.4589 45.6056 23.4022 44.5965 22.8493 43.8305C21.773 42.3412 22.1643 39.9656 21.0413 38.8436C17.7534 35.5639 17.3677 41.7216 17.6351 43.6353C18.1358 47.2226 19.926 48.3856 21.4129 51.3694C22.3569 53.2671 21.7862 55.4352 21.216 57.6011C20.9598 58.5742 20.7038 59.5469 20.5852 60.4944C17.1561 57.1945 2.38979 59.951 6.18912 64.9961C7.35675 66.5507 8.65109 65.4404 9.98478 64.2963C10.9097 63.5029 11.8536 62.6933 12.7872 62.7451C16.8704 62.9715 19.0221 68.0411 18.7542 71.5921C18.257 69.6941 16.3324 67.8307 15.0081 70.1485C14.2119 71.5437 15.3273 73.8158 16.1058 75.4015C16.205 75.6035 16.2986 75.7943 16.3822 75.9708C15.4762 75.5265 11.01 73.4504 10.1362 73.8096C6.69646 75.224 11.4365 77.961 12.6732 78.508C16.8974 80.376 19.5603 82.4275 20.8735 87.4999C18.5058 86.7425 18.9181 85.6221 17.3212 84.4568C16.3736 83.7656 15.9239 83.7513 15.3602 83.7334C15.0515 83.7236 14.7086 83.7127 14.2311 83.5889L14.1599 83.5705C11.8074 82.9614 8.7628 82.1731 6.12085 83.2708C4.15098 84.0898 0.833431 86.5809 0.215136 88.9213C-0.542514 91.7946 1.05912 92.5274 3.11884 91.0638C3.98748 90.4475 4.60436 89.6268 5.20294 88.8304C6.29316 87.38 7.32272 86.0103 9.70223 86.1031C11.4707 86.1722 13.2228 87.099 14.3421 88.4286C15.1772 89.4218 15.6649 90.8592 16.4618 91.9242C17.1646 92.8639 19.0259 94.1826 19.4193 95.1781C20.7215 98.4806 18.5544 101.45 16.7925 103.864C16.6363 104.078 16.4834 104.287 16.3363 104.492C15.9171 103.938 12.8593 102.734 12.2256 102.614C9.28584 102.053 8.1889 103.412 10.0272 106.126C10.6062 106.982 11.8245 107.342 12.4625 108.12C13.1741 108.989 13.5745 110.32 14.2809 111.264C15.6741 113.127 17.396 114.086 19.0592 115.586C18.7337 115.803 18.5999 115.614 18.463 115.421C18.3418 115.25 18.2182 115.076 17.9572 115.176C17.7613 115.251 17.4953 115.217 17.215 115.181C16.9169 115.143 16.6027 115.103 16.3396 115.19C15.5115 115.465 15.6215 116.907 15.0917 117.119C13.1794 117.881 11.2571 116.545 9.40261 115.256C8.05816 114.321 6.74934 113.411 5.50582 113.344C3.89222 113.256 2.53105 114.338 3.30578 116.366C3.84421 117.778 6.17604 118.544 7.34197 119.133C10.5876 120.777 13.8195 122.001 17.2897 120.74C20.0873 123.178 23.4486 124.381 26.9644 124.415C24.9526 125.413 22.9644 126.65 22.2617 129.136C22.0222 128.888 21.7124 128.458 21.3579 127.966C19.9532 126.015 17.8464 123.089 16.6287 126.674C15.5839 129.761 20.3519 133.545 22.5493 134.936C19.9935 135.691 17.8717 135.843 15.272 135.543C14.9815 135.509 14.6168 135.4 14.2337 135.285C12.8263 134.862 11.1704 134.365 12.0336 137.291C13.1601 141.118 19.623 139.659 22.1667 138.911C20.3833 140.409 12.6031 150.619 19.3556 148.296C21.5321 147.548 21.7409 143.295 24.7736 142.923C27.2522 142.619 28.1534 144.286 29.1865 146.197C29.6135 146.986 30.063 147.818 30.6557 148.569C31.0416 149.059 31.9597 149.782 32.935 150.55C34.5132 151.793 36.2409 153.154 36.1046 153.834C35.9139 154.786 33.3556 155.33 32.8115 156.662C32.1789 158.211 32.4645 159.408 33.3443 160.74C34.8819 163.073 37.7042 163.431 39.9362 164.344C43.1 165.639 44.2468 167.211 45.6652 170.561C43.1643 170.681 36.0461 177.921 40.4076 179.209C41.5288 179.54 41.7563 178.955 42.0116 178.297C42.1264 178.002 42.2468 177.692 42.4566 177.444C42.7302 176.928 43.0043 176.414 43.2781 175.899C43.7363 174.701 44.2427 174.628 44.7972 175.678C44.8591 175.663 45.2603 175.76 45.6888 175.863C46.1187 175.967 46.5759 176.078 46.7449 176.088C47.9328 176.161 48.8474 175.555 49.7708 174.944C50.1747 174.677 50.5803 174.409 51.0111 174.195C52.0342 173.689 53.0353 173.777 53.8062 172.609C53.717 172.744 54.3596 170.098 54.3708 170.073C54.6465 169.436 55.3556 169.526 55.6813 168.839C46.9316 159.753 41.2227 147.718 40.1921 134.372Q39.9707 134.297 39.7524 134.214Q39.534 134.131 39.3191 134.04Q39.1042 133.948 38.8931 133.848Q38.6819 133.748 38.4747 133.64Q38.2676 133.532 38.0648 133.416Q37.8621 133.3 37.664 133.176Q37.4659 133.053 37.2727 132.921Q37.0796 132.79 36.8917 132.651Q36.7038 132.512 36.5215 132.366Q36.3392 132.22 36.1627 132.067Q35.9862 131.914 35.8158 131.754Q35.6454 131.594 35.4813 131.428Q35.3172 131.262 35.1597 131.089Q35.0023 130.917 34.8516 130.738Q34.701 130.56 34.5574 130.375Q34.4139 130.191 34.2776 130.001Q34.1413 129.812 34.0125 129.617Q33.8837 129.422 33.7626 129.222Q33.6415 129.022 33.5282 128.818Q33.415 128.614 33.3097 128.405Q33.2045 128.197 33.1075 127.984Q33.0105 127.772 32.9218 127.555Q32.8332 127.339 32.753 127.12Q32.6728 126.9 32.6012 126.678Q32.5296 126.456 32.4667 126.231Q32.4039 126.006 32.3498 125.778Q32.2957 125.551 32.2505 125.322Q32.2053 125.093 32.1691 124.862Q32.1329 124.631 32.1056 124.399Q32.0784 124.167 32.0603 123.934Q32.0421 123.701 32.033 123.468Q32.0239 123.235 32.0239 123.001L32.0239 109.999Q32.0239 109.554 32.0569 109.11Q32.0898 108.666 32.1556 108.226Q32.2214 107.786 32.3196 107.352Q32.4178 106.918 32.5478 106.492Q32.6779 106.066 32.8392 105.652Q33.0004 105.237 33.192 104.835Q33.3835 104.433 33.6043 104.047Q33.8251 103.66 34.0739 103.291Q34.3227 102.922 34.5981 102.573Q34.8736 102.223 35.1742 101.895Q35.4748 101.567 35.7989 101.262Q36.1229 100.957 36.4687 100.676Q36.8145 100.396 37.1801 100.142Q37.5457 99.8886 37.9291 99.6626Q38.3125 99.4365 38.7116 99.2395Q39.1107 99.0425 39.5233 98.8756C40.0547 99.247 40.7914 98.8734 41.0239 98.0318C40.5612 96.5261 44.3199 70.178 54.0239 63.1564C57.6421 60.7184 77.0321 60.5372 96.3365 60.5505C115.433 60.5635 134.445 60.7447 138.024 63.1564C147.728 70.178 151.487 96.5261 151.024 98.0318C151.256 98.8734 151.993 99.247 152.525 98.8756Q152.937 99.0425 153.336 99.2395Q153.735 99.4365 154.119 99.6626Q154.502 99.8886 154.868 100.142Q155.233 100.396 155.579 100.676Q155.925 100.957 156.249 101.262Q156.573 101.567 156.874 101.895Q157.174 102.223 157.45 102.573Q157.725 102.922 157.974 103.291Q158.223 103.66 158.444 104.047Q158.664 104.433 158.856 104.835Q159.047 105.237 159.209 105.652Q159.37 106.066 159.5 106.492Q159.63 106.918 159.728 107.352Q159.826 107.786 159.892 108.226Q159.958 108.666 159.991 109.11Q160.024 109.554 160.024 109.999L160.024 123.001Q160.024 123.235 160.015 123.468Q160.006 123.701 159.988 123.934Q159.969 124.167 159.942 124.399Q159.915 124.631 159.879 124.862Q159.842 125.093 159.797 125.322Q159.752 125.551 159.698 125.778Q159.644 126.006 159.581 126.231Q159.518 126.456 159.447 126.678Q159.375 126.9 159.295 127.12Q159.215 127.339 159.126 127.555Q159.037 127.772 158.94 127.984Q158.843 128.197 158.738 128.405Q158.633 128.614 158.52 128.818Q158.406 129.022 158.285 129.222Q158.164 129.422 158.035 129.617Q157.907 129.812 157.77 130.001Q157.634 130.191 157.49 130.375Q157.347 130.56 157.196 130.738Q157.046 130.917 156.888 131.089Q156.731 131.262 156.567 131.428Q156.402 131.594 156.232 131.754Q156.062 131.914 155.885 132.067Q155.709 132.22 155.526 132.366Q155.344 132.512 155.156 132.651Q154.968 132.79 154.775 132.921Q154.582 133.053 154.384 133.176Q154.186 133.3 153.983 133.416Q153.78 133.532 153.573 133.64Q153.366 133.748 153.155 133.848Q152.944 133.948 152.729 134.04Q152.514 134.131 152.295 134.214Q152.077 134.297 151.856 134.372C151.01 145.32 147.017 155.385 140.78 163.664C140.989 164.472 141.19 165.29 141.336 166.168C141.518 167.267 141.566 168.304 141.614 169.309C141.709 171.347 141.799 173.252 142.981 175.261C143.438 176.041 144.164 176.508 144.503 177.405C144.668 177.843 144.709 178.451 144.751 179.08C144.845 180.484 144.946 181.999 146.452 182C149.559 182 147.827 176.034 147.049 174.616C146.754 174.079 146.481 173.621 146.233 173.205C145.2 171.472 144.603 170.47 144.666 167.572C146.411 168.732 152.196 170.948 154.114 169.888C157.616 167.954 151.425 165.995 148.289 165.002C147.456 164.739 146.839 164.543 146.676 164.435C148.38 162.769 150.332 161.885 151.873 159.689C153.132 157.896 154.279 155.292 156.422 155.188C156.818 155.168 157.467 155.483 158.196 155.835C159.654 156.54 161.431 157.399 162.132 156.054C162.859 154.66 161.859 154.162 160.974 153.721C160.683 153.577 160.406 153.439 160.205 153.277C159.651 152.831 159.256 152.713 158.995 152.635C158.549 152.502 158.499 152.487 158.731 151.143C159.816 152.308 161.52 151.572 161.975 150.128C162.265 149.206 161.818 148.667 161.41 148.175C161.128 147.835 160.866 147.518 160.878 147.114C160.866 147.501 161.712 141.999 161.578 142.176C162.424 141.059 165.389 141.382 166.917 141.548L166.99 141.556C169.287 141.804 169.155 141.873 170.246 143.992C171.128 145.707 173.443 149.169 173.953 144.633C174.074 143.548 173.084 141.229 172.503 140.295C171.875 139.288 169.986 138.652 169.591 137.868C169.114 136.923 169.672 135.391 170.274 133.742C170.862 132.13 171.49 130.408 171.23 129.014C171.534 129.131 171.968 129.719 172.465 130.393C173.752 132.14 175.461 134.457 176.428 130.613C176.752 129.33 175.414 127.346 174.156 125.48C172.668 123.273 171.293 121.233 172.914 120.719C175.203 119.993 177.525 122.944 178.164 124.763C178.637 126.111 178.424 129.001 179.231 130.116C182.268 134.319 182.642 127.375 182.389 125.544C181.83 121.518 180.405 118.556 176.766 117.034C177.906 115.62 176.772 114.459 175.85 113.515C175.724 113.386 175.603 113.261 175.491 113.141C176.047 112.538 177.715 112.387 179.503 112.227C182.626 111.946 186.116 111.631 184.699 108.814C184.161 107.742 182.218 107.552 181.232 107.159C178.741 106.167 176.247 104.148 174.974 101.597C175.444 101.48 176.149 101.474 176.925 101.468C179.191 101.45 182.072 101.427 181.54 98.6011C180.977 95.6193 176.137 96.5336 174.262 96.9915C175.954 95.9749 179.235 96.8166 179.696 94.0499C180.227 90.8666 176.408 90.9736 174.615 91.6482C174.349 89.5299 176.62 87.7638 178.755 86.1034C180.005 85.1318 181.208 84.1964 181.829 83.2477C181.965 83.0401 182.12 82.8651 182.268 82.6989C182.736 82.1712 183.126 81.7319 182.575 80.6153C181.416 78.2695 178.628 80.9426 177.238 82.2756C177.062 82.4446 176.908 82.5921 176.783 82.7051C177.659 81.0771 180.104 74.3019 179.732 72.583C179.186 70.0571 177.38 69.9677 175.944 72.0153C175.013 73.345 174.754 76.7176 174.262 78.442C173.396 77.7885 172.879 77.7351 172.562 77.7024C172.135 77.6583 172.075 77.6521 172.015 76.2507C171.971 75.2281 172.823 73.5599 173.572 72.0908C173.981 71.2902 174.36 70.5488 174.547 70.0033C174.629 69.7634 174.736 69.4876 174.851 69.1892C175.377 67.8339 176.084 66.0112 175.49 64.957C173.714 61.814 172.017 66.129 171.55 67.609C171.056 65.4721 172.05 63.6358 173.08 61.7324C173.694 60.5974 174.321 59.4385 174.653 58.1778C175.194 56.1298 176.629 50.5995 174.142 49.6165C171.661 48.6358 171.632 51.7402 171.609 54.2785C171.601 55.211 171.593 56.0672 171.465 56.6163C171.1 58.1759 170.543 60.6935 169.326 61.4622C169.15 61.5735 166.505 61.8046 166.378 61.6555C165.28 60.3747 166.792 58.1293 168.11 56.1714C168.873 55.0384 169.572 54.0017 169.662 53.3038C169.885 51.5732 169.222 50.4793 167.601 50.3755C167.139 50.3458 166.514 50.7409 165.992 51.0703C165.6 51.318 165.266 51.5286 165.106 51.4935C164.038 51.2614 164.744 47.6738 165.273 44.9883C165.477 43.9519 165.654 43.05 165.693 42.527C165.843 40.5239 165.599 35.3551 162.21 37.7423C162.437 35.0455 162.574 32.5064 162.944 29.8505C162.996 29.479 163.119 29.1183 163.238 28.7679C163.568 27.7988 163.872 26.908 162.57 26.084C160.414 24.7192 159.219 27.5757 158.727 29.2517C158.467 30.1413 158.453 31.1833 158.439 32.2018C158.407 34.4873 158.378 36.6549 155.57 36.7183C152.208 36.7943 152.942 34.3031 153.7 31.7313C153.994 30.7349 154.291 29.7264 154.355 28.8504C154.483 27.1092 153.342 22.4288 151.093 25.5867C150.197 26.8457 150.506 31.2813 150.009 32.7703C149.45 32.521 149.643 31.3696 149.847 30.1563C150.046 28.9699 150.255 27.7243 149.78 27.2056C148.283 25.574 146.962 26.8533 145.849 27.9312C145.429 28.3375 145.039 28.7153 144.68 28.8976C144.594 27.4527 144.493 26.0067 144.432 24.5603C144.401 23.839 144.526 22.8566 144.659 21.8083C144.931 19.6591 145.238 17.233 144.318 16.2125C141.982 13.6238 140.496 16.6443 139.813 18.7364C139.2 20.6197 139.116 22.4795 136.58 22.736C136.664 21.6313 136.307 20.0301 135.935 18.3646C135.392 15.9348 134.819 13.3685 135.545 12.0088C136.097 10.9743 137.224 11.7078 137.724 10.5499C138.545 8.64673 137.2 7.8394 135.738 7.77771C131.562 7.60227 131.93 11.0947 132.275 14.3593C132.49 16.405 132.696 18.3611 131.769 19.2693C131.226 18.7544 131.237 18.2316 131.251 17.6552C131.264 17.0666 131.278 16.4221 130.704 15.673C129.481 14.0783 127.531 14.2133 125.786 14.9352C125.776 14.6386 125.849 14.0144 125.942 13.2245C126.354 9.71895 127.149 2.95342 122.706 7.11834C121.353 8.38946 121.732 10.5112 121.013 12.0045C120.317 13.4486 118.624 15.602 117.671 16.7751C117.199 14.8586 117.837 12.5158 118.369 10.5619C118.41 10.4085 118.451 10.2574 118.491 10.1091C118.613 9.65842 118.954 8.90619 119.345 8.04371C120.183 6.19738 121.25 3.84593 120.879 2.8654C119.6 -0.509083 116.247 3.36375 114.354 5.55043C113.909 6.06427 113.544 6.48501 113.307 6.69671C111.725 8.10642 105.427 12.7416 103.406 11.3369C102.705 10.8501 103.336 9.0461 102.379 8.20949C101.909 7.79958 99.9016 7.60828 99.3286 7.6606C99.687 6.16656 98.9829 4.23411 97.274 4.7506C95.125 5.40061 96.0551 8.58856 94.6931 9.75271C93.1927 11.0371 91.5247 10.0541 89.85 9.06711C88.702 8.39058 87.5509 7.71218 86.4484 7.76093C86.521 7.45333 86.6752 7.00594 86.8539 6.48753C87.6948 4.04781 89.0778 0.035045 85.0501 1.61692C83.8043 2.10647 82.9197 4.96805 82.6093 6.15758C81.8181 9.19328 82.3882 9.74959 79.1011 10.6065C79.1918 9.98428 79.1933 9.30874 79.1949 8.62584C79.1977 7.37679 79.2006 6.10311 79.7496 5.08595C79.8925 4.82143 80.1581 4.46982 80.4569 4.07439C81.6136 2.54338 83.2664 0.355623 80.2119 0.023335C80.0678 0.00764609 79.9285 0 79.7938 0ZM22.1667 138.911C22.3935 138.721 22.5233 138.671 22.514 138.807C22.4085 138.839 22.2924 138.874 22.1667 138.911Z" transform="translate(0.9760963 0)" id="path_1" />
    <clipPath id="mask_1">
      <use xlink:href="#path_1" />
    </clipPath>
  </defs>
  <g id="TopShort-HairDreads-2">
    <g id="Facial-Hair" transform="translate(49 72)" />
    <g id="Hair" transform="translate(36 0)">
      <path d="M79.7938 0C76.4084 0 75.9531 4.83285 75.6365 8.19431C75.5514 9.09746 75.4763 9.89439 75.3571 10.4628C71.2337 7.96431 68.4927 11.419 66.026 14.5279C65.9763 14.5906 65.9267 14.6531 65.8773 14.7154C66.3241 13.2963 67.4301 -0.841776 62.9121 3.47753C62.0772 4.27712 62.3789 5.32409 62.6734 6.3458C62.8345 6.90491 62.9935 7.45645 62.9628 7.95573C62.8844 9.23622 62.4627 10.3777 61.9667 11.5743C61.1713 13.495 60.2463 15.4606 58.9933 17.098C58.1413 18.213 57.9144 18.7717 57.5986 18.8276C57.3765 18.8669 57.1104 18.6575 56.552 18.2182C56.4383 18.1287 56.3124 18.0297 56.1724 17.9213C53.7482 16.0478 52.5962 11.2975 52.716 8.39571C52.7304 8.04858 52.771 7.64398 52.8142 7.21355C53.04 4.96504 53.3366 2.0117 50.3317 2.86462C47.3123 3.72276 48.2701 9.01467 48.8197 12.0515C48.9084 12.5417 48.9865 12.9732 49.0355 13.3178C49.417 16.0052 49.6708 18.7544 49.2188 21.4907C46.9218 19.143 46.1352 22.3663 45.622 24.4692C45.4685 25.0981 45.3395 25.6268 45.2018 25.8763C44.2228 27.6534 42.334 28.5232 40.8667 29.7358C40.444 28.2589 41.1402 26.9026 41.7967 25.6237C42.3822 24.4831 42.936 23.4041 42.6362 22.3562C41.5273 18.4868 38.5342 23.2875 37.5199 24.9143C37.4424 25.0386 37.3765 25.1444 37.3238 25.2263C36.7054 26.1887 34.6891 31.6682 33.9591 32.1593C32.9355 32.8484 26.3541 29.6315 25.6882 29.0186C24.4657 27.8939 24.9106 24.7465 23.3727 24.0298C18.6532 21.8323 21.4412 29.7639 22.3681 31.4035C24.7867 35.6877 25.8836 40.8604 25.3167 45.9078C24.4589 45.6056 23.4022 44.5965 22.8493 43.8305C21.773 42.3412 22.1643 39.9656 21.0413 38.8436C17.7534 35.5639 17.3677 41.7216 17.6351 43.6353C18.1358 47.2226 19.926 48.3856 21.4129 51.3694C22.3569 53.2671 21.7862 55.4352 21.216 57.6011C20.9598 58.5742 20.7038 59.5469 20.5852 60.4944C17.1561 57.1945 2.38979 59.951 6.18912 64.9961C7.35675 66.5507 8.65109 65.4404 9.98478 64.2963C10.9097 63.5029 11.8536 62.6933 12.7872 62.7451C16.8704 62.9715 19.0221 68.0411 18.7542 71.5921C18.257 69.6941 16.3324 67.8307 15.0081 70.1485C14.2119 71.5437 15.3273 73.8158 16.1058 75.4015C16.205 75.6035 16.2986 75.7943 16.3822 75.9708C15.4762 75.5265 11.01 73.4504 10.1362 73.8096C6.69646 75.224 11.4365 77.961 12.6732 78.508C16.8974 80.376 19.5603 82.4275 20.8735 87.4999C18.5058 86.7425 18.9181 85.6221 17.3212 84.4568C16.3736 83.7656 15.9239 83.7513 15.3602 83.7334C15.0515 83.7236 14.7086 83.7127 14.2311 83.5889L14.1599 83.5705C11.8074 82.9614 8.7628 82.1731 6.12085 83.2708C4.15098 84.0898 0.833431 86.5809 0.215136 88.9213C-0.542514 91.7946 1.05912 92.5274 3.11884 91.0638C3.98748 90.4475 4.60436 89.6268 5.20294 88.8304C6.29316 87.38 7.32272 86.0103 9.70223 86.1031C11.4707 86.1722 13.2228 87.099 14.3421 88.4286C15.1772 89.4218 15.6649 90.8592 16.4618 91.9242C17.1646 92.8639 19.0259 94.1826 19.4193 95.1781C20.7215 98.4806 18.5544 101.45 16.7925 103.864C16.6363 104.078 16.4834 104.287 16.3363 104.492C15.9171 103.938 12.8593 102.734 12.2256 102.614C9.28584 102.053 8.1889 103.412 10.0272 106.126C10.6062 106.982 11.8245 107.342 12.4625 108.12C13.1741 108.989 13.5745 110.32 14.2809 111.264C15.6741 113.127 17.396 114.086 19.0592 115.586C18.7337 115.803 18.5999 115.614 18.463 115.421C18.3418 115.25 18.2182 115.076 17.9572 115.176C17.7613 115.251 17.4953 115.217 17.215 115.181C16.9169 115.143 16.6027 115.103 16.3396 115.19C15.5115 115.465 15.6215 116.907 15.0917 117.119C13.1794 117.881 11.2571 116.545 9.40261 115.256C8.05816 114.321 6.74934 113.411 5.50582 113.344C3.89222 113.256 2.53105 114.338 3.30578 116.366C3.84421 117.778 6.17604 118.544 7.34197 119.133C10.5876 120.777 13.8195 122.001 17.2897 120.74C20.0873 123.178 23.4486 124.381 26.9644 124.415C24.9526 125.413 22.9644 126.65 22.2617 129.136C22.0222 128.888 21.7124 128.458 21.3579 127.966C19.9532 126.015 17.8464 123.089 16.6287 126.674C15.5839 129.761 20.3519 133.545 22.5493 134.936C19.9935 135.691 17.8717 135.843 15.272 135.543C14.9815 135.509 14.6168 135.4 14.2337 135.285C12.8263 134.862 11.1704 134.365 12.0336 137.291C13.1601 141.118 19.623 139.659 22.1667 138.911C20.3833 140.409 12.6031 150.619 19.3556 148.296C21.5321 147.548 21.7409 143.295 24.7736 142.923C27.2522 142.619 28.1534 144.286 29.1865 146.197C29.6135 146.986 30.063 147.818 30.6557 148.569C31.0416 149.059 31.9597 149.782 32.935 150.55C34.5132 151.793 36.2409 153.154 36.1046 153.834C35.9139 154.786 33.3556 155.33 32.8115 156.662C32.1789 158.211 32.4645 159.408 33.3443 160.74C34.8819 163.073 37.7042 163.431 39.9362 164.344C43.1 165.639 44.2468 167.211 45.6652 170.561C43.1643 170.681 36.0461 177.921 40.4076 179.209C41.5288 179.54 41.7563 178.955 42.0116 178.297C42.1264 178.002 42.2468 177.692 42.4566 177.444C42.7302 176.928 43.0043 176.414 43.2781 175.899C43.7363 174.701 44.2427 174.628 44.7972 175.678C44.8591 175.663 45.2603 175.76 45.6888 175.863C46.1187 175.967 46.5759 176.078 46.7449 176.088C47.9328 176.161 48.8474 175.555 49.7708 174.944C50.1747 174.677 50.5803 174.409 51.0111 174.195C52.0342 173.689 53.0353 173.777 53.8062 172.609C53.717 172.744 54.3596 170.098 54.3708 170.073C54.6465 169.436 55.3556 169.526 55.6813 168.839C46.9316 159.753 41.2227 147.718 40.1921 134.372Q39.9707 134.297 39.7524 134.214Q39.534 134.131 39.3191 134.04Q39.1042 133.948 38.8931 133.848Q38.6819 133.748 38.4747 133.64Q38.2676 133.532 38.0648 133.416Q37.8621 133.3 37.664 133.176Q37.4659 133.053 37.2727 132.921Q37.0796 132.79 36.8917 132.651Q36.7038 132.512 36.5215 132.366Q36.3392 132.22 36.1627 132.067Q35.9862 131.914 35.8158 131.754Q35.6454 131.594 35.4813 131.428Q35.3172 131.262 35.1597 131.089Q35.0023 130.917 34.8516 130.738Q34.701 130.56 34.5574 130.375Q34.4139 130.191 34.2776 130.001Q34.1413 129.812 34.0125 129.617Q33.8837 129.422 33.7626 129.222Q33.6415 129.022 33.5282 128.818Q33.415 128.614 33.3097 128.405Q33.2045 128.197 33.1075 127.984Q33.0105 127.772 32.9218 127.555Q32.8332 127.339 32.753 127.12Q32.6728 126.9 32.6012 126.678Q32.5296 126.456 32.4667 126.231Q32.4039 126.006 32.3498 125.778Q32.2957 125.551 32.2505 125.322Q32.2053 125.093 32.1691 124.862Q32.1329 124.631 32.1056 124.399Q32.0784 124.167 32.0603 123.934Q32.0421 123.701 32.033 123.468Q32.0239 123.235 32.0239 123.001L32.0239 109.999Q32.0239 109.554 32.0569 109.11Q32.0898 108.666 32.1556 108.226Q32.2214 107.786 32.3196 107.352Q32.4178 106.918 32.5478 106.492Q32.6779 106.066 32.8392 105.652Q33.0004 105.237 33.192 104.835Q33.3835 104.433 33.6043 104.047Q33.8251 103.66 34.0739 103.291Q34.3227 102.922 34.5981 102.573Q34.8736 102.223 35.1742 101.895Q35.4748 101.567 35.7989 101.262Q36.1229 100.957 36.4687 100.676Q36.8145 100.396 37.1801 100.142Q37.5457 99.8886 37.9291 99.6626Q38.3125 99.4365 38.7116 99.2395Q39.1107 99.0425 39.5233 98.8756C40.0547 99.247 40.7914 98.8734 41.0239 98.0318C40.5612 96.5261 44.3199 70.178 54.0239 63.1564C57.6421 60.7184 77.0321 60.5372 96.3365 60.5505C115.433 60.5635 134.445 60.7447 138.024 63.1564C147.728 70.178 151.487 96.5261 151.024 98.0318C151.256 98.8734 151.993 99.247 152.525 98.8756Q152.937 99.0425 153.336 99.2395Q153.735 99.4365 154.119 99.6626Q154.502 99.8886 154.868 100.142Q155.233 100.396 155.579 100.676Q155.925 100.957 156.249 101.262Q156.573 101.567 156.874 101.895Q157.174 102.223 157.45 102.573Q157.725 102.922 157.974 103.291Q158.223 103.66 158.444 104.047Q158.664 104.433 158.856 104.835Q159.047 105.237 159.209 105.652Q159.37 106.066 159.5 106.492Q159.63 106.918 159.728 107.352Q159.826 107.786 159.892 108.226Q159.958 108.666 159.991 109.11Q160.024 109.554 160.024 109.999L160.024 123.001Q160.024 123.235 160.015 123.468Q160.006 123.701 159.988 123.934Q159.969 124.167 159.942 124.399Q159.915 124.631 159.879 124.862Q159.842 125.093 159.797 125.322Q159.752 125.551 159.698 125.778Q159.644 126.006 159.581 126.231Q159.518 126.456 159.447 126.678Q159.375 126.9 159.295 127.12Q159.215 127.339 159.126 127.555Q159.037 127.772 158.94 127.984Q158.843 128.197 158.738 128.405Q158.633 128.614 158.52 128.818Q158.406 129.022 158.285 129.222Q158.164 129.422 158.035 129.617Q157.907 129.812 157.77 130.001Q157.634 130.191 157.49 130.375Q157.347 130.56 157.196 130.738Q157.046 130.917 156.888 131.089Q156.731 131.262 156.567 131.428Q156.402 131.594 156.232 131.754Q156.062 131.914 155.885 132.067Q155.709 132.22 155.526 132.366Q155.344 132.512 155.156 132.651Q154.968 132.79 154.775 132.921Q154.582 133.053 154.384 133.176Q154.186 133.3 153.983 133.416Q153.78 133.532 153.573 133.64Q153.366 133.748 153.155 133.848Q152.944 133.948 152.729 134.04Q152.514 134.131 152.295 134.214Q152.077 134.297 151.856 134.372C151.01 145.32 147.017 155.385 140.78 163.664C140.989 164.472 141.19 165.29 141.336 166.168C141.518 167.267 141.566 168.304 141.614 169.309C141.709 171.347 141.799 173.252 142.981 175.261C143.438 176.041 144.164 176.508 144.503 177.405C144.668 177.843 144.709 178.451 144.751 179.08C144.845 180.484 144.946 181.999 146.452 182C149.559 182 147.827 176.034 147.049 174.616C146.754 174.079 146.481 173.621 146.233 173.205C145.2 171.472 144.603 170.47 144.666 167.572C146.411 168.732 152.196 170.948 154.114 169.888C157.616 167.954 151.425 165.995 148.289 165.002C147.456 164.739 146.839 164.543 146.676 164.435C148.38 162.769 150.332 161.885 151.873 159.689C153.132 157.896 154.279 155.292 156.422 155.188C156.818 155.168 157.467 155.483 158.196 155.835C159.654 156.54 161.431 157.399 162.132 156.054C162.859 154.66 161.859 154.162 160.974 153.721C160.683 153.577 160.406 153.439 160.205 153.277C159.651 152.831 159.256 152.713 158.995 152.635C158.549 152.502 158.499 152.487 158.731 151.143C159.816 152.308 161.52 151.572 161.975 150.128C162.265 149.206 161.818 148.667 161.41 148.175C161.128 147.835 160.866 147.518 160.878 147.114C160.866 147.501 161.712 141.999 161.578 142.176C162.424 141.059 165.389 141.382 166.917 141.548L166.99 141.556C169.287 141.804 169.155 141.873 170.246 143.992C171.128 145.707 173.443 149.169 173.953 144.633C174.074 143.548 173.084 141.229 172.503 140.295C171.875 139.288 169.986 138.652 169.591 137.868C169.114 136.923 169.672 135.391 170.274 133.742C170.862 132.13 171.49 130.408 171.23 129.014C171.534 129.131 171.968 129.719 172.465 130.393C173.752 132.14 175.461 134.457 176.428 130.613C176.752 129.33 175.414 127.346 174.156 125.48C172.668 123.273 171.293 121.233 172.914 120.719C175.203 119.993 177.525 122.944 178.164 124.763C178.637 126.111 178.424 129.001 179.231 130.116C182.268 134.319 182.642 127.375 182.389 125.544C181.83 121.518 180.405 118.556 176.766 117.034C177.906 115.62 176.772 114.459 175.85 113.515C175.724 113.386 175.603 113.261 175.491 113.141C176.047 112.538 177.715 112.387 179.503 112.227C182.626 111.946 186.116 111.631 184.699 108.814C184.161 107.742 182.218 107.552 181.232 107.159C178.741 106.167 176.247 104.148 174.974 101.597C175.444 101.48 176.149 101.474 176.925 101.468C179.191 101.45 182.072 101.427 181.54 98.6011C180.977 95.6193 176.137 96.5336 174.262 96.9915C175.954 95.9749 179.235 96.8166 179.696 94.0499C180.227 90.8666 176.408 90.9736 174.615 91.6482C174.349 89.5299 176.62 87.7638 178.755 86.1034C180.005 85.1318 181.208 84.1964 181.829 83.2477C181.965 83.0401 182.12 82.8651 182.268 82.6989C182.736 82.1712 183.126 81.7319 182.575 80.6153C181.416 78.2695 178.628 80.9426 177.238 82.2756C177.062 82.4446 176.908 82.5921 176.783 82.7051C177.659 81.0771 180.104 74.3019 179.732 72.583C179.186 70.0571 177.38 69.9677 175.944 72.0153C175.013 73.345 174.754 76.7176 174.262 78.442C173.396 77.7885 172.879 77.7351 172.562 77.7024C172.135 77.6583 172.075 77.6521 172.015 76.2507C171.971 75.2281 172.823 73.5599 173.572 72.0908C173.981 71.2902 174.36 70.5488 174.547 70.0033C174.629 69.7634 174.736 69.4876 174.851 69.1892C175.377 67.8339 176.084 66.0112 175.49 64.957C173.714 61.814 172.017 66.129 171.55 67.609C171.056 65.4721 172.05 63.6358 173.08 61.7324C173.694 60.5974 174.321 59.4385 174.653 58.1778C175.194 56.1298 176.629 50.5995 174.142 49.6165C171.661 48.6358 171.632 51.7402 171.609 54.2785C171.601 55.211 171.593 56.0672 171.465 56.6163C171.1 58.1759 170.543 60.6935 169.326 61.4622C169.15 61.5735 166.505 61.8046 166.378 61.6555C165.28 60.3747 166.792 58.1293 168.11 56.1714C168.873 55.0384 169.572 54.0017 169.662 53.3038C169.885 51.5732 169.222 50.4793 167.601 50.3755C167.139 50.3458 166.514 50.7409 165.992 51.0703C165.6 51.318 165.266 51.5286 165.106 51.4935C164.038 51.2614 164.744 47.6738 165.273 44.9883C165.477 43.9519 165.654 43.05 165.693 42.527C165.843 40.5239 165.599 35.3551 162.21 37.7423C162.437 35.0455 162.574 32.5064 162.944 29.8505C162.996 29.479 163.119 29.1183 163.238 28.7679C163.568 27.7988 163.872 26.908 162.57 26.084C160.414 24.7192 159.219 27.5757 158.727 29.2517C158.467 30.1413 158.453 31.1833 158.439 32.2018C158.407 34.4873 158.378 36.6549 155.57 36.7183C152.208 36.7943 152.942 34.3031 153.7 31.7313C153.994 30.7349 154.291 29.7264 154.355 28.8504C154.483 27.1092 153.342 22.4288 151.093 25.5867C150.197 26.8457 150.506 31.2813 150.009 32.7703C149.45 32.521 149.643 31.3696 149.847 30.1563C150.046 28.9699 150.255 27.7243 149.78 27.2056C148.283 25.574 146.962 26.8533 145.849 27.9312C145.429 28.3375 145.039 28.7153 144.68 28.8976C144.594 27.4527 144.493 26.0067 144.432 24.5603C144.401 23.839 144.526 22.8566 144.659 21.8083C144.931 19.6591 145.238 17.233 144.318 16.2125C141.982 13.6238 140.496 16.6443 139.813 18.7364C139.2 20.6197 139.116 22.4795 136.58 22.736C136.664 21.6313 136.307 20.0301 135.935 18.3646C135.392 15.9348 134.819 13.3685 135.545 12.0088C136.097 10.9743 137.224 11.7078 137.724 10.5499C138.545 8.64673 137.2 7.8394 135.738 7.77771C131.562 7.60227 131.93 11.0947 132.275 14.3593C132.49 16.405 132.696 18.3611 131.769 19.2693C131.226 18.7544 131.237 18.2316 131.251 17.6552C131.264 17.0666 131.278 16.4221 130.704 15.673C129.481 14.0783 127.531 14.2133 125.786 14.9352C125.776 14.6386 125.849 14.0144 125.942 13.2245C126.354 9.71895 127.149 2.95342 122.706 7.11834C121.353 8.38946 121.732 10.5112 121.013 12.0045C120.317 13.4486 118.624 15.602 117.671 16.7751C117.199 14.8586 117.837 12.5158 118.369 10.5619C118.41 10.4085 118.451 10.2574 118.491 10.1091C118.613 9.65842 118.954 8.90619 119.345 8.04371C120.183 6.19738 121.25 3.84593 120.879 2.8654C119.6 -0.509083 116.247 3.36375 114.354 5.55043C113.909 6.06427 113.544 6.48501 113.307 6.69671C111.725 8.10642 105.427 12.7416 103.406 11.3369C102.705 10.8501 103.336 9.0461 102.379 8.20949C101.909 7.79958 99.9016 7.60828 99.3286 7.6606C99.687 6.16656 98.9829 4.23411 97.274 4.7506C95.125 5.40061 96.0551 8.58856 94.6931 9.75271C93.1927 11.0371 91.5247 10.0541 89.85 9.06711C88.702 8.39058 87.5509 7.71218 86.4484 7.76093C86.521 7.45333 86.6752 7.00594 86.8539 6.48753C87.6948 4.04781 89.0778 0.035045 85.0501 1.61692C83.8043 2.10647 82.9197 4.96805 82.6093 6.15758C81.8181 9.19328 82.3882 9.74959 79.1011 10.6065C79.1918 9.98428 79.1933 9.30874 79.1949 8.62584C79.1977 7.37679 79.2006 6.10311 79.7496 5.08595C79.8925 4.82143 80.1581 4.46982 80.4569 4.07439C81.6136 2.54338 83.2664 0.355623 80.2119 0.023335C80.0678 0.00764609 79.9285 0 79.7938 0ZM22.1667 138.911C22.3935 138.721 22.5233 138.671 22.514 138.807C22.4085 138.839 22.2924 138.874 22.1667 138.911Z" transform="translate(0.9760963 0)" id="Dreads" fill="#2E3257" fill-rule="evenodd" stroke="none" />
      <g clip-path="url(#mask_1)">
        <g id="Hair-Color" transform="translate(-35 0)">
          <path d="M0 0L264 0L264 280L0 280L0 0Z" id="Color" fill="#2C1B18" fill-rule="evenodd" stroke="none" />
        </g>
      </g>
    </g>
    <g id="Accessory" transform="translate(62 85)" />
  </g>
</svg>