<?xml version="1.0" encoding="utf-8"?>
<svg width="266px" height="280px" viewbox="0 0 266 280" version="1.1" xmlns:xlink="http://www.w3.org/1999/xlink" xmlns="http://www.w3.org/2000/svg">
  <defs>
    <path d="M93.3089 8.90666C73.1211 -2.79294 53.129 -0.877468 38.0369 2.93052C22.9448 6.7385 14.0168 17.5519 6.35668 33.5486C2.5956 41.4034 0.366018 50.692 0.0230569 59.3819C-0.111557 62.7938 0.34843 66.3157 1.26773 69.6009C1.60494 70.8067 3.42324 74.9875 3.92247 71.6094C4.08853 70.4848 3.4804 68.9333 3.42155 67.7382C3.34444 66.1699 3.4273 64.5813 3.53418 63.0155C3.73407 60.088 4.25596 57.216 5.18473 54.4252C6.51193 50.4373 8.20136 46.1134 10.7874 42.7486C17.1884 34.4211 28.2687 33.9464 37.0663 29.3641C36.3029 30.7692 33.3596 33.0438 34.3794 34.6274C35.0836 35.7212 37.7495 35.3896 39.0222 35.3545C42.371 35.2629 45.735 34.6802 49.0428 34.2075C54.2559 33.4624 59.1406 31.9523 64.0466 30.1187C68.063 28.617 72.65 27.2263 75.6687 24.041C80.5398 29.0887 86.8099 33.8351 93.0704 37.0434C98.6883 39.9228 107.749 41.3616 111.183 47.2012C115.248 54.1153 113.378 62.6079 114.619 70.1013C115.091 72.951 116.164 72.8871 116.751 70.3384C117.748 66.0088 118.219 61.5108 117.902 57.0598C117.184 47.012 113.497 20.6063 93.3089 8.90666Z" transform="translate(74 26.099453)" id="path_1" />
    <clipPath id="mask_1">
      <use xlink:href="#path_1" />
    </clipPath>
  </defs>
  <g id="TopShort-HairShort-Round">
    <g id="Facial-Hair" transform="translate(49 72)" />
    <path d="M93.3089 8.90666C73.1211 -2.79294 53.129 -0.877468 38.0369 2.93052C22.9448 6.7385 14.0168 17.5519 6.35668 33.5486C2.5956 41.4034 0.366018 50.692 0.0230569 59.3819C-0.111557 62.7938 0.34843 66.3157 1.26773 69.6009C1.60494 70.8067 3.42324 74.9875 3.92247 71.6094C4.08853 70.4848 3.4804 68.9333 3.42155 67.7382C3.34444 66.1699 3.4273 64.5813 3.53418 63.0155C3.73407 60.088 4.25596 57.216 5.18473 54.4252C6.51193 50.4373 8.20136 46.1134 10.7874 42.7486C17.1884 34.4211 28.2687 33.9464 37.0663 29.3641C36.3029 30.7692 33.3596 33.0438 34.3794 34.6274C35.0836 35.7212 37.7495 35.3896 39.0222 35.3545C42.371 35.2629 45.735 34.6802 49.0428 34.2075C54.2559 33.4624 59.1406 31.9523 64.0466 30.1187C68.063 28.617 72.65 27.2263 75.6687 24.041C80.5398 29.0887 86.8099 33.8351 93.0704 37.0434C98.6883 39.9228 107.749 41.3616 111.183 47.2012C115.248 54.1153 113.378 62.6079 114.619 70.1013C115.091 72.951 116.164 72.8871 116.751 70.3384C117.748 66.0088 118.219 61.5108 117.902 57.0598C117.184 47.012 113.497 20.6063 93.3089 8.90666Z" transform="translate(74 26.099453)" id="Short-Hair" fill="#28354B" fill-rule="evenodd" stroke="none" />
    <g clip-path="url(#mask_1)">
      <g id="Hair-Color" transform="translate(1 0)">
        <path d="M0 0L264 0L264 280L0 280L0 0Z" id="Color" fill="#724133" fill-rule="evenodd" stroke="none" />
      </g>
    </g>
    <g id="Accessory" transform="translate(62 85)" />
  </g>
</svg>