<?xml version="1.0" encoding="utf-8"?>
<svg width="266px" height="280px" viewbox="0 0 266 280" version="1.1" xmlns:xlink="http://www.w3.org/1999/xlink" xmlns="http://www.w3.org/2000/svg">
  <defs>
    <path d="M112.68 28.9488C118.086 23.9986 119.387 13.9615 116.318 7.44932C112.549 -0.546147 104.901 -1.54782 97.5723 1.96867C90.6645 5.28357 84.5152 6.38787 76.9502 4.78173C69.6916 3.24069 62.8056 0.522617 55.3034 0.0762471C42.978 -0.657075 31.0034 3.91457 22.6031 13.1293C21.0004 14.8872 19.709 16.8972 18.4883 18.9344C17.5115 20.5644 16.4105 22.3134 15.995 24.1922C15.7974 25.0856 16.1653 27.2899 15.7204 28.0219C15.2391 28.8123 13.4245 29.5373 12.651 30.1239C11.0843 31.3125 9.72676 32.654 8.47138 34.1711C5.80528 37.3927 4.3377 40.7577 3.10348 44.7428C-0.999467 57.9878 -1.34719 73.7413 3.95692 86.7468C4.66394 88.4811 6.85506 92.0986 8.14316 88.3848C8.39767 87.6508 7.80866 85.1908 7.80998 84.4502C7.81461 81.7301 9.31606 63.7214 15.8571 53.633C17.9862 50.3492 27.8299 38.0522 29.8405 37.9536C30.9058 39.6464 41.7205 50.4625 69.7834 49.1949C82.4453 48.623 92.1826 42.9341 94.5208 40.4681C95.5494 46.0009 107.513 54.284 109.336 57.6922C114.603 67.5377 115.771 87.9957 117.781 87.9573C119.791 87.919 121.234 82.7198 121.648 81.7271C124.72 74.3517 125.243 65.0948 124.915 57.1684C124.488 46.9664 120.277 35.942 112.68 28.9488Z" transform="translate(71 10)" id="path_1" />
    <clipPath id="mask_1">
      <use xlink:href="#path_1" />
    </clipPath>
  </defs>
  <g id="TopShort-HairShort-Waved">
    <g id="Facial-Hair" transform="translate(49 72)" />
    <path d="M112.68 28.9488C118.086 23.9986 119.387 13.9615 116.318 7.44932C112.549 -0.546147 104.901 -1.54782 97.5723 1.96867C90.6645 5.28357 84.5152 6.38787 76.9502 4.78173C69.6916 3.24069 62.8056 0.522617 55.3034 0.0762471C42.978 -0.657075 31.0034 3.91457 22.6031 13.1293C21.0004 14.8872 19.709 16.8972 18.4883 18.9344C17.5115 20.5644 16.4105 22.3134 15.995 24.1922C15.7974 25.0856 16.1653 27.2899 15.7204 28.0219C15.2391 28.8123 13.4245 29.5373 12.651 30.1239C11.0843 31.3125 9.72676 32.654 8.47138 34.1711C5.80528 37.3927 4.3377 40.7577 3.10348 44.7428C-0.999467 57.9878 -1.34719 73.7413 3.95692 86.7468C4.66394 88.4811 6.85506 92.0986 8.14316 88.3848C8.39767 87.6508 7.80866 85.1908 7.80998 84.4502C7.81461 81.7301 9.31606 63.7214 15.8571 53.633C17.9862 50.3492 27.8299 38.0522 29.8405 37.9536C30.9058 39.6464 41.7205 50.4625 69.7834 49.1949C82.4453 48.623 92.1826 42.9341 94.5208 40.4681C95.5494 46.0009 107.513 54.284 109.336 57.6922C114.603 67.5377 115.771 87.9957 117.781 87.9573C119.791 87.919 121.234 82.7198 121.648 81.7271C124.72 74.3517 125.243 65.0948 124.915 57.1684C124.488 46.9664 120.277 35.942 112.68 28.9488Z" transform="translate(71 10)" id="Short-Hair" fill="#28354B" fill-rule="evenodd" stroke="none" />
    <g clip-path="url(#mask_1)">
      <g id="Hair-Color" transform="translate(1 0)">
        <path d="M0 0L264 0L264 280L0 280L0 0Z" id="Color" fill="#724133" fill-rule="evenodd" stroke="none" />
      </g>
    </g>
    <g id="Accessory" transform="translate(62 85)" />
  </g>
</svg>