<?xml version="1.0" encoding="utf-8"?>
<svg width="266px" height="280px" viewbox="0 0 266 280" version="1.1" xmlns:xlink="http://www.w3.org/1999/xlink" xmlns="http://www.w3.org/2000/svg">
  <defs>
    <path d="M114.709 37.124C115.601 40.371 116.872 49.074 114.637 51.9566C113.891 52.9188 108.796 50.2177 106.671 49.044C105.428 48.3574 104.256 47.7034 103.139 47.0809C88.2236 38.7646 83.4037 36.0772 57.2457 36.4578C29.1299 36.867 9.86748 50.04 8.78398 51.3874C8.03016 52.3249 7.06778 54.8279 6.27641 61.8005C6.0259 64.0078 5.95591 66.7694 5.88639 69.5127C5.73629 75.4354 5.58836 81.273 3.63049 81.2626C1.19151 81.2497 0.660891 57.477 1.71373 48.0464C1.75311 47.6937 1.81986 47.2732 1.89179 46.8201C2.11516 45.413 2.38852 43.6911 2.04742 42.7059C1.89373 42.2623 1.50681 41.992 1.11018 41.7149C0.489668 41.2815 -0.154618 40.8314 0.0331217 39.6751C0.244742 38.3696 1.12465 38.2463 1.99658 38.1241C2.56586 38.0442 3.13173 37.9649 3.50601 37.5574C4.63412 36.3288 3.9591 35.6897 3.18807 34.9598C2.73257 34.5286 2.24356 34.0656 2.07304 33.4307C1.43892 31.0693 3.09657 30.3361 4.7599 29.6002C4.88679 29.5441 5.01371 29.488 5.13965 29.4311C7.106 28.5438 6.85048 29.3231 8.44635 27.5849C6.3148 26.0225 5.54363 23.8939 8.46244 22.752C9.02134 22.5333 9.98389 22.5437 10.9615 22.5543C12.152 22.5672 13.3648 22.5803 13.8981 22.1802C14.1513 21.9901 14.2515 20.9008 14.4075 20.678C15.7575 18.7466 15.6424 17.2794 15.4862 15.2887C15.4629 14.9926 15.4388 14.6849 15.4184 14.3624C15.289 12.3242 15.3064 10.4532 17.7467 10.2496C18.7515 10.1658 19.6405 10.6403 20.5169 11.108C21.0607 11.3983 21.5996 11.6859 22.1582 11.8359C23.0329 12.0708 23.2574 12.2714 23.4791 12.2684C23.6676 12.2659 23.8541 12.1161 24.4369 11.715C26.6631 10.1817 25.148 7.19429 26.9133 5.41202C28.4888 3.82144 29.7113 4.78154 30.9086 5.72183C31.5523 6.22739 32.1888 6.72723 32.8689 6.82181C35.4145 7.17652 35.9328 5.75869 36.4909 4.23235C36.8584 3.22697 37.2432 2.1745 38.2359 1.5505C40.0651 0.401533 40.8828 1.50317 41.6701 2.56397C42.1688 3.23581 42.6552 3.89126 43.3788 3.94826C44.3827 4.02697 45.8852 2.85456 47.2177 1.81482C48.0319 1.17947 48.7826 0.593654 49.3173 0.373134C51.5858 -0.56298 53.2336 0.437299 54.9019 1.45004C56.3096 2.30456 57.7319 3.16796 59.554 2.88447C59.8518 2.83812 60.1272 2.79265 60.3845 2.75017C62.6235 2.38051 63.4921 2.23711 65.8308 3.71153C67.5209 4.77704 68.3506 4.62232 69.5688 4.39514C70.1748 4.28214 70.877 4.1512 71.829 4.14361C72.9399 4.13525 73.8146 4.64073 74.6576 5.12789C75.3511 5.52868 76.0232 5.91708 76.7877 5.99673C77.2108 6.04101 77.6249 5.84232 78.0467 5.6399C78.4671 5.43819 78.8951 5.23278 79.3476 5.26038C82.585 5.45672 82.7896 9.64304 85.3616 10.7956C86.9815 11.5216 88.7975 11.044 90.5335 10.5876C91.3159 10.3818 92.082 10.1804 92.8066 10.0953C96.7665 9.6306 96.0837 12.0631 95.3562 14.6545C95.0383 15.7871 94.7119 16.95 94.7608 17.9147C95.9088 18.1826 97.0658 17.762 98.2211 17.342C99.3135 16.9448 100.404 16.5482 101.485 16.7347C104.883 17.3214 103.739 20.7562 102.927 23.1946C102.902 23.2689 102.877 23.3422 102.853 23.4145C103.488 23.403 104.391 23.2102 105.405 22.9934C108.268 22.3816 112.024 21.5789 113.185 24.122C113.664 25.173 113.199 26.4323 112.745 27.6594C112.432 28.506 112.125 29.3373 112.138 30.0744C112.181 32.6159 114.049 34.7186 114.709 37.124ZM109.697 52.3147C110.812 52.7641 113.634 54.818 113.832 54.9288C115.589 55.9174 116.98 65.8279 117.048 69.6177C117.09 71.9562 117.127 80.874 114.654 80.1031C113.901 79.8684 112.752 75.1472 112.588 72.3841C112.425 69.6209 110.855 60.22 108.447 55.8947C108.315 55.6585 108.125 55.3795 107.921 55.0804C107.272 54.1281 106.484 52.971 107.002 52.3348C107.724 51.4484 108.428 51.7596 109.261 52.128C109.403 52.1904 109.548 52.2545 109.697 52.3147Z" transform="translate(72 19)" id="path_1" />
    <clipPath id="mask_1">
      <use xlink:href="#path_1" />
    </clipPath>
  </defs>
  <g id="TopShort-HairDreads-01">
    <g id="Facial-Hair" transform="translate(49 72)" />
    <g id="Hair" transform="translate(1 0)">
      <path d="M114.709 37.124C115.601 40.371 116.872 49.074 114.637 51.9566C113.891 52.9188 108.796 50.2177 106.671 49.044C105.428 48.3574 104.256 47.7034 103.139 47.0809C88.2236 38.7646 83.4037 36.0772 57.2457 36.4578C29.1299 36.867 9.86748 50.04 8.78398 51.3874C8.03016 52.3249 7.06778 54.8279 6.27641 61.8005C6.0259 64.0078 5.95591 66.7694 5.88639 69.5127C5.73629 75.4354 5.58836 81.273 3.63049 81.2626C1.19151 81.2497 0.660891 57.477 1.71373 48.0464C1.75311 47.6937 1.81986 47.2732 1.89179 46.8201C2.11516 45.413 2.38852 43.6911 2.04742 42.7059C1.89373 42.2623 1.50681 41.992 1.11018 41.7149C0.489668 41.2815 -0.154618 40.8314 0.0331217 39.6751C0.244742 38.3696 1.12465 38.2463 1.99658 38.1241C2.56586 38.0442 3.13173 37.9649 3.50601 37.5574C4.63412 36.3288 3.9591 35.6897 3.18807 34.9598C2.73257 34.5286 2.24356 34.0656 2.07304 33.4307C1.43892 31.0693 3.09657 30.3361 4.7599 29.6002C4.88679 29.5441 5.01371 29.488 5.13965 29.4311C7.106 28.5438 6.85048 29.3231 8.44635 27.5849C6.3148 26.0225 5.54363 23.8939 8.46244 22.752C9.02134 22.5333 9.98389 22.5437 10.9615 22.5543C12.152 22.5672 13.3648 22.5803 13.8981 22.1802C14.1513 21.9901 14.2515 20.9008 14.4075 20.678C15.7575 18.7466 15.6424 17.2794 15.4862 15.2887C15.4629 14.9926 15.4388 14.6849 15.4184 14.3624C15.289 12.3242 15.3064 10.4532 17.7467 10.2496C18.7515 10.1658 19.6405 10.6403 20.5169 11.108C21.0607 11.3983 21.5996 11.6859 22.1582 11.8359C23.0329 12.0708 23.2574 12.2714 23.4791 12.2684C23.6676 12.2659 23.8541 12.1161 24.4369 11.715C26.6631 10.1817 25.148 7.19429 26.9133 5.41202C28.4888 3.82144 29.7113 4.78154 30.9086 5.72183C31.5523 6.22739 32.1888 6.72723 32.8689 6.82181C35.4145 7.17652 35.9328 5.75869 36.4909 4.23235C36.8584 3.22697 37.2432 2.1745 38.2359 1.5505C40.0651 0.401533 40.8828 1.50317 41.6701 2.56397C42.1688 3.23581 42.6552 3.89126 43.3788 3.94826C44.3827 4.02697 45.8852 2.85456 47.2177 1.81482C48.0319 1.17947 48.7826 0.593654 49.3173 0.373134C51.5858 -0.56298 53.2336 0.437299 54.9019 1.45004C56.3096 2.30456 57.7319 3.16796 59.554 2.88447C59.8518 2.83812 60.1272 2.79265 60.3845 2.75017C62.6235 2.38051 63.4921 2.23711 65.8308 3.71153C67.5209 4.77704 68.3506 4.62232 69.5688 4.39514C70.1748 4.28214 70.877 4.1512 71.829 4.14361C72.9399 4.13525 73.8146 4.64073 74.6576 5.12789C75.3511 5.52868 76.0232 5.91708 76.7877 5.99673C77.2108 6.04101 77.6249 5.84232 78.0467 5.6399C78.4671 5.43819 78.8951 5.23278 79.3476 5.26038C82.585 5.45672 82.7896 9.64304 85.3616 10.7956C86.9815 11.5216 88.7975 11.044 90.5335 10.5876C91.3159 10.3818 92.082 10.1804 92.8066 10.0953C96.7665 9.6306 96.0837 12.0631 95.3562 14.6545C95.0383 15.7871 94.7119 16.95 94.7608 17.9147C95.9088 18.1826 97.0658 17.762 98.2211 17.342C99.3135 16.9448 100.404 16.5482 101.485 16.7347C104.883 17.3214 103.739 20.7562 102.927 23.1946C102.902 23.2689 102.877 23.3422 102.853 23.4145C103.488 23.403 104.391 23.2102 105.405 22.9934C108.268 22.3816 112.024 21.5789 113.185 24.122C113.664 25.173 113.199 26.4323 112.745 27.6594C112.432 28.506 112.125 29.3373 112.138 30.0744C112.181 32.6159 114.049 34.7186 114.709 37.124ZM109.697 52.3147C110.812 52.7641 113.634 54.818 113.832 54.9288C115.589 55.9174 116.98 65.8279 117.048 69.6177C117.09 71.9562 117.127 80.874 114.654 80.1031C113.901 79.8684 112.752 75.1472 112.588 72.3841C112.425 69.6209 110.855 60.22 108.447 55.8947C108.315 55.6585 108.125 55.3795 107.921 55.0804C107.272 54.1281 106.484 52.971 107.002 52.3348C107.724 51.4484 108.428 51.7596 109.261 52.128C109.403 52.1904 109.548 52.2545 109.697 52.3147Z" transform="translate(72 19)" id="Dreads-With-Cut" fill="#2E3257" fill-rule="evenodd" stroke="none" />
      <g clip-path="url(#mask_1)">
        <g id="Hair-Color">
          <path d="M0 0L264 0L264 280L0 280L0 0Z" id="Color" fill="#2C1B18" fill-rule="evenodd" stroke="none" />
        </g>
      </g>
    </g>
    <g id="Accessory" transform="translate(62 85)" />
  </g>
</svg>