<?xml version="1.0" encoding="utf-8"?>
<svg width="255px" height="280px" viewbox="0 0 255 280" version="1.1" xmlns:xlink="http://www.w3.org/1999/xlink" xmlns="http://www.w3.org/2000/svg">
  <defs>
    <path d="M106.15 22.9204C103.39 20.1004 100.186 17.7068 97.0693 15.3066C96.3816 14.7774 95.6828 14.2611 95.0105 13.7118C94.8577 13.587 93.292 12.4657 93.1047 12.0531C92.6538 11.0603 92.915 11.8333 92.9773 10.6486C93.0559 9.15051 96.1106 4.91932 93.8312 3.94901C92.8284 3.52223 91.0396 4.65795 90.0777 5.03306C88.1962 5.76717 86.2917 6.39324 84.3467 6.93308C85.2786 5.07634 87.0553 1.3595 83.7159 2.3543C81.1143 3.12934 78.6901 5.12197 76.0758 6.0594C76.9407 4.64151 80.3999 0.247934 77.2742 0.00233662C76.3015 -0.074161 73.4712 1.75037 72.424 2.13957C69.2872 3.30549 66.0833 4.05906 62.79 4.65258C51.592 6.67071 38.4972 6.0953 28.1368 11.1935C20.1495 15.1237 12.2625 21.222 7.64839 28.9875C3.20117 36.4726 1.53782 44.6642 0.606967 53.2413C-0.0760356 59.5359 -0.131559 66.0426 0.187867 72.36C0.292224 74.4298 0.52502 83.9708 3.53197 81.0814C5.0301 79.6417 5.01906 73.8282 5.39635 71.8604C6.14725 67.9453 6.87006 64.0127 8.12201 60.2227C10.3282 53.5439 12.9308 46.4297 18.4269 41.8297C21.954 38.8782 24.4308 34.8889 27.806 31.9112C29.3222 30.5739 28.1652 30.7131 30.6029 30.8886C32.2405 31.0063 33.8855 31.0513 35.5264 31.0942C39.3224 31.1929 43.1244 31.1677 46.9214 31.1811C54.5682 31.2087 62.1792 31.3167 69.8187 30.9164C73.2137 30.7386 76.618 30.6423 80.0039 30.3283C81.8953 30.1528 85.2515 28.9406 86.8085 29.8669C88.2334 30.7144 89.7131 33.4818 90.7363 34.6151C93.1535 37.2936 96.0357 39.3392 98.8624 41.5355C104.757 46.1149 107.732 51.8667 109.523 59.0232C111.306 66.1533 110.806 72.7682 113.013 79.7848C113.402 81.0185 114.429 83.145 115.695 81.2389C115.93 80.8849 115.87 78.939 115.87 77.8193C115.87 73.2996 117.014 69.9084 117 65.3591C116.944 51.5271 116.496 33.4908 106.15 22.9204Z" transform="translate(74 17)" id="path_1" />
    <clipPath id="mask_1">
      <use xlink:href="#path_1" />
    </clipPath>
  </defs>
  <g id="TopShort-HairShort-Flat">
    <g id="Facial-Hair" transform="translate(49 72)" />
    <path d="M106.15 22.9204C103.39 20.1004 100.186 17.7068 97.0693 15.3066C96.3816 14.7774 95.6828 14.2611 95.0105 13.7118C94.8577 13.587 93.292 12.4657 93.1047 12.0531C92.6538 11.0603 92.915 11.8333 92.9773 10.6486C93.0559 9.15051 96.1106 4.91932 93.8312 3.94901C92.8284 3.52223 91.0396 4.65795 90.0777 5.03306C88.1962 5.76717 86.2917 6.39324 84.3467 6.93308C85.2786 5.07634 87.0553 1.3595 83.7159 2.3543C81.1143 3.12934 78.6901 5.12197 76.0758 6.0594C76.9407 4.64151 80.3999 0.247934 77.2742 0.00233662C76.3015 -0.074161 73.4712 1.75037 72.424 2.13957C69.2872 3.30549 66.0833 4.05906 62.79 4.65258C51.592 6.67071 38.4972 6.0953 28.1368 11.1935C20.1495 15.1237 12.2625 21.222 7.64839 28.9875C3.20117 36.4726 1.53782 44.6642 0.606967 53.2413C-0.0760356 59.5359 -0.131559 66.0426 0.187867 72.36C0.292224 74.4298 0.52502 83.9708 3.53197 81.0814C5.0301 79.6417 5.01906 73.8282 5.39635 71.8604C6.14725 67.9453 6.87006 64.0127 8.12201 60.2227C10.3282 53.5439 12.9308 46.4297 18.4269 41.8297C21.954 38.8782 24.4308 34.8889 27.806 31.9112C29.3222 30.5739 28.1652 30.7131 30.6029 30.8886C32.2405 31.0063 33.8855 31.0513 35.5264 31.0942C39.3224 31.1929 43.1244 31.1677 46.9214 31.1811C54.5682 31.2087 62.1792 31.3167 69.8187 30.9164C73.2137 30.7386 76.618 30.6423 80.0039 30.3283C81.8953 30.1528 85.2515 28.9406 86.8085 29.8669C88.2334 30.7144 89.7131 33.4818 90.7363 34.6151C93.1535 37.2936 96.0357 39.3392 98.8624 41.5355C104.757 46.1149 107.732 51.8667 109.523 59.0232C111.306 66.1533 110.806 72.7682 113.013 79.7848C113.402 81.0185 114.429 83.145 115.695 81.2389C115.93 80.8849 115.87 78.939 115.87 77.8193C115.87 73.2996 117.014 69.9084 117 65.3591C116.944 51.5271 116.496 33.4908 106.15 22.9204Z" transform="translate(74 17)" id="Short-Hair" fill="#1F3140" fill-rule="evenodd" stroke="none" />
    <g clip-path="url(#mask_1)">
      <g id="Hair-Color" transform="translate(1 0)">
        <path d="M0 0L264 0L264 280L0 280L0 0Z" id="Color" fill="#724133" fill-rule="evenodd" stroke="none" />
      </g>
    </g>
    <g id="Accessory" transform="translate(62 85)" />
  </g>
</svg>