<?xml version="1.0" encoding="utf-8"?>
<svg width="266px" height="280px" viewbox="0 0 266 280" version="1.1" xmlns:xlink="http://www.w3.org/1999/xlink" xmlns="http://www.w3.org/2000/svg">
  <defs>
    <path d="M21.2519 43.0221C21.3749 42.9677 21.0697 42.9468 20.3361 42.9595C21.2277 42.9577 21.5329 42.9785 21.2519 43.0221M13.117 27.3016C13.1148 27.282 13.1338 27.4527 13.117 27.3016M120.765 61.7657C120.501 58.4487 120.033 55.1519 119.247 51.9111C118.622 49.3354 117.769 46.8775 116.76 44.42C116.151 42.9354 114.728 40.8961 114.56 39.2945C114.395 37.7169 115.627 35.9691 115.889 34.1323C116.144 32.3448 116.101 30.4652 115.734 28.6938C114.901 24.671 112.14 20.93 107.877 19.8814C106.925 19.6472 104.913 19.9358 104.241 19.3816C103.47 18.746 102.933 16.5807 102.235 15.7122C100.244 13.2362 97.1398 11.6417 93.8659 12.1976C91.4549 12.6068 92.8394 13.1053 91.032 11.6864C90.027 10.8976 89.2761 9.69316 88.3001 8.83923C86.8328 7.55638 85.1496 6.45819 83.4081 5.55696C78.8513 3.19892 73.6543 1.4849 68.5642 0.649427C59.2789 -0.874762 49.3689 0.454085 40.3687 2.86881C35.8902 4.07035 31.3815 5.59518 27.2221 7.61178C25.4386 8.4764 24.409 9.19363 22.5495 9.42007C19.6207 9.77674 17.1405 9.75892 14.3661 11.001C5.82983 14.8229 1.98493 23.6898 5.30665 32.175C5.97483 33.8816 6.87954 35.3802 8.12674 36.7586C9.64748 38.4393 10.1976 38.1085 8.88778 40.0412C6.929 42.9312 5.27772 46.0129 3.93328 49.2129C0.404304 57.6146 -0.186158 67.0772 0.043634 76.0373C0.124045 79.1741 0.258623 82.3495 0.753198 85.4562C0.966841 86.8009 1.02673 89.3293 2.03539 90.3271C2.54713 90.8331 3.2762 91.1153 4.0036 90.9138C5.71308 90.4402 5.12531 89.1787 5.16501 88.0076C5.36486 82.124 5.09503 76.9191 6.49431 71.1065C7.52787 66.8118 9.25047 62.9115 11.4828 59.0714C14.3214 54.1872 17.3857 49.8977 21.2895 45.7155C22.2073 44.732 22.4079 44.3151 23.6386 44.2438C24.5705 44.19 25.9338 44.8282 26.8398 45.0492C28.8377 45.5361 30.8392 46.0174 32.8733 46.3453C36.6133 46.9482 40.3165 46.9887 44.0901 46.8704C51.5165 46.6381 58.9748 46.1172 66.1751 44.2471C70.957 43.0054 75.1965 40.7762 79.7769 39.1422C79.8586 39.1131 81.0066 38.2951 81.2078 38.3285C81.4887 38.3748 83.1847 40.1543 83.4711 40.3784C85.6966 42.1239 88.1379 42.8567 90.5415 44.2082C93.5049 45.8746 90.635 43.49 92.2694 45.5668C92.7459 46.1716 92.9898 47.2932 93.372 47.9783C94.5879 50.1611 96.2795 52.0795 98.3029 53.6018C100.258 55.0725 103.196 55.7829 104.193 57.6972C104.962 59.1741 105.221 61.1813 105.841 62.7579C107.469 66.8932 109.618 70.7495 111.767 74.6443C113.498 77.7831 115.392 80.525 115.585 84.1118C115.652 85.3603 114.464 92.8494 117.358 90.5717C117.786 90.2341 118.711 86.4157 118.901 85.7678C119.673 83.1351 119.947 80.3867 120.296 77.6817C120.99 72.3022 121.219 67.1837 120.765 61.7657" transform="translate(73 9)" id="path_1" />
    <clipPath id="mask_1">
      <use xlink:href="#path_1" />
    </clipPath>
  </defs>
  <g id="TopShort-HairShort-Curly">
    <g id="Facial-Hair" transform="translate(49 72)" />
    <path d="M21.2519 43.0221C21.3749 42.9677 21.0697 42.9468 20.3361 42.9595C21.2277 42.9577 21.5329 42.9785 21.2519 43.0221M13.117 27.3016C13.1148 27.282 13.1338 27.4527 13.117 27.3016M120.765 61.7657C120.501 58.4487 120.033 55.1519 119.247 51.9111C118.622 49.3354 117.769 46.8775 116.76 44.42C116.151 42.9354 114.728 40.8961 114.56 39.2945C114.395 37.7169 115.627 35.9691 115.889 34.1323C116.144 32.3448 116.101 30.4652 115.734 28.6938C114.901 24.671 112.14 20.93 107.877 19.8814C106.925 19.6472 104.913 19.9358 104.241 19.3816C103.47 18.746 102.933 16.5807 102.235 15.7122C100.244 13.2362 97.1398 11.6417 93.8659 12.1976C91.4549 12.6068 92.8394 13.1053 91.032 11.6864C90.027 10.8976 89.2761 9.69316 88.3001 8.83923C86.8328 7.55638 85.1496 6.45819 83.4081 5.55696C78.8513 3.19892 73.6543 1.4849 68.5642 0.649427C59.2789 -0.874762 49.3689 0.454085 40.3687 2.86881C35.8902 4.07035 31.3815 5.59518 27.2221 7.61178C25.4386 8.4764 24.409 9.19363 22.5495 9.42007C19.6207 9.77674 17.1405 9.75892 14.3661 11.001C5.82983 14.8229 1.98493 23.6898 5.30665 32.175C5.97483 33.8816 6.87954 35.3802 8.12674 36.7586C9.64748 38.4393 10.1976 38.1085 8.88778 40.0412C6.929 42.9312 5.27772 46.0129 3.93328 49.2129C0.404304 57.6146 -0.186158 67.0772 0.043634 76.0373C0.124045 79.1741 0.258623 82.3495 0.753198 85.4562C0.966841 86.8009 1.02673 89.3293 2.03539 90.3271C2.54713 90.8331 3.2762 91.1153 4.0036 90.9138C5.71308 90.4402 5.12531 89.1787 5.16501 88.0076C5.36486 82.124 5.09503 76.9191 6.49431 71.1065C7.52787 66.8118 9.25047 62.9115 11.4828 59.0714C14.3214 54.1872 17.3857 49.8977 21.2895 45.7155C22.2073 44.732 22.4079 44.3151 23.6386 44.2438C24.5705 44.19 25.9338 44.8282 26.8398 45.0492C28.8377 45.5361 30.8392 46.0174 32.8733 46.3453C36.6133 46.9482 40.3165 46.9887 44.0901 46.8704C51.5165 46.6381 58.9748 46.1172 66.1751 44.2471C70.957 43.0054 75.1965 40.7762 79.7769 39.1422C79.8586 39.1131 81.0066 38.2951 81.2078 38.3285C81.4887 38.3748 83.1847 40.1543 83.4711 40.3784C85.6966 42.1239 88.1379 42.8567 90.5415 44.2082C93.5049 45.8746 90.635 43.49 92.2694 45.5668C92.7459 46.1716 92.9898 47.2932 93.372 47.9783C94.5879 50.1611 96.2795 52.0795 98.3029 53.6018C100.258 55.0725 103.196 55.7829 104.193 57.6972C104.962 59.1741 105.221 61.1813 105.841 62.7579C107.469 66.8932 109.618 70.7495 111.767 74.6443C113.498 77.7831 115.392 80.525 115.585 84.1118C115.652 85.3603 114.464 92.8494 117.358 90.5717C117.786 90.2341 118.711 86.4157 118.901 85.7678C119.673 83.1351 119.947 80.3867 120.296 77.6817C120.99 72.3022 121.219 67.1837 120.765 61.7657" transform="translate(73 9)" id="Short-Hair" fill="#28354B" fill-rule="evenodd" stroke="none" />
    <g clip-path="url(#mask_1)">
      <g id="Hair-Color" transform="translate(1 0)">
        <path d="M0 0L264 0L264 280L0 280L0 0Z" id="Color" fill="#724133" fill-rule="evenodd" stroke="none" />
      </g>
    </g>
    <g id="Accessory" transform="translate(62 86)" />
  </g>
</svg>