<?xml version="1.0" encoding="utf-8"?>
<svg width="217px" height="280px" viewbox="0 0 217 280" version="1.1" xmlns:xlink="http://www.w3.org/1999/xlink" xmlns="http://www.w3.org/2000/svg">
  <defs>
    <path d="M74 0L73.999 0Q72.1824 0 70.368 0.089135Q68.5537 0.17827 66.7458 0.356325Q64.938 0.534381 63.1411 0.800927Q61.3442 1.06747 59.5625 1.42187Q57.7808 1.77627 56.0187 2.21766Q54.2566 2.65905 52.5182 3.18637Q50.7799 3.71369 49.0695 4.32568Q47.3591 4.93766 45.6808 5.63284Q44.0025 6.32801 42.3603 7.10469Q40.7182 7.88138 39.1161 8.73771Q37.514 9.59403 35.9559 10.5279Q34.3978 11.4618 32.8874 12.4711Q31.3769 13.4803 29.9178 14.5624Q28.4588 15.6446 27.0545 16.797Q25.6503 17.9494 24.3043 19.1694Q22.9583 20.3893 21.6738 21.6738Q20.3893 22.9583 19.1694 24.3043Q17.9494 25.6503 16.797 27.0545Q15.6446 28.4588 14.5624 29.9178Q13.4803 31.3769 12.4711 32.8874Q11.4618 34.3978 10.5279 35.9559Q9.59403 37.514 8.73771 39.1161Q7.88138 40.7182 7.10469 42.3603Q6.32801 44.0025 5.63284 45.6808Q4.93766 47.3591 4.32568 49.0695Q3.71369 50.7799 3.18637 52.5182Q2.65905 54.2566 2.21766 56.0187Q1.77627 57.7808 1.42187 59.5625Q1.06747 61.3442 0.800927 63.1411Q0.534381 64.938 0.356325 66.7458Q0.17827 68.5537 0.089135 70.368Q0 72.1824 0 73.999L0 170.001Q0 176.678 1.19527 183.247Q2.7966 182.691 4.43888 182.269Q6.08115 181.848 7.75288 181.566Q9.42461 181.283 11.1141 181.142Q12.8036 181 14.499 181L50 181L50 162.597Q49.177 162.206 48.3672 161.79Q47.5573 161.373 46.7615 160.93Q45.9656 160.487 45.1846 160.018Q44.4036 159.549 43.6382 159.055Q42.8729 158.562 42.124 158.043Q41.375 157.525 40.6434 156.982Q39.9118 156.439 39.1981 155.873Q38.4845 155.307 37.7897 154.718Q37.0949 154.129 36.4196 153.518Q35.7443 152.907 35.0892 152.274Q34.4342 151.641 33.8 150.987Q33.1659 150.333 32.5533 149.659Q31.9408 148.985 31.3505 148.291Q30.7602 147.598 30.1928 146.885Q29.6254 146.173 29.0815 145.442Q28.5375 144.711 28.0176 143.964Q27.4978 143.216 27.0025 142.451Q26.5072 141.687 26.037 140.907Q25.5668 140.126 25.1223 139.331Q24.6777 138.536 24.2593 137.727Q23.8408 136.918 23.4489 136.096Q23.057 135.274 22.692 134.439Q22.327 133.605 21.9894 132.759Q21.6518 131.913 21.3418 131.056Q21.0319 130.2 20.7499 129.334Q20.468 128.468 20.2144 127.593Q19.9608 126.718 19.7358 125.835Q19.5107 124.953 19.3145 124.063Q19.1183 123.174 18.9512 122.278Q18.784 121.383 18.646 120.483Q18.5081 119.582 18.3995 118.678Q18.2909 117.774 18.2117 116.866Q17.9482 116.826 17.6867 116.775Q17.4252 116.724 17.1662 116.661Q16.9072 116.598 16.6513 116.524Q16.3953 116.449 16.143 116.364Q15.8906 116.278 15.6423 116.181Q15.3939 116.084 15.1502 115.977Q14.9064 115.869 14.6676 115.751Q14.4289 115.632 14.1956 115.503Q13.9623 115.374 13.735 115.235Q13.5077 115.096 13.2868 114.947Q13.0659 114.798 12.8518 114.639Q12.6377 114.48 12.4309 114.312Q12.2241 114.144 12.0249 113.967Q11.8258 113.79 11.6347 113.604Q11.4436 113.418 11.261 113.224Q11.0783 113.03 10.9045 112.828Q10.7306 112.626 10.5659 112.417Q10.4012 112.207 10.2459 111.991Q10.0907 111.774 9.94521 111.551Q9.79974 111.327 9.66432 111.098Q9.52891 110.868 9.40381 110.633Q9.27872 110.398 9.1642 110.157Q9.04968 109.916 8.94596 109.671Q8.84224 109.425 8.74953 109.175Q8.65681 108.926 8.57527 108.672Q8.49374 108.418 8.42356 108.161Q8.35337 107.904 8.29467 107.644Q8.23597 107.384 8.18887 107.122Q8.14177 106.859 8.10636 106.595Q8.07095 106.331 8.04731 106.065Q8.02367 105.8 8.01183 105.534Q8 105.268 8 105.001L8 91.999Q8 90.313 8.46461 88.6924C25.5933 82.6799 42.2076 66.7561 52.0462 44.6582C52.4555 43.7389 52.849 42.818 53.2269 41.8961Q60.1055 60.2506 79.1183 68.535C74.2459 62.588 70.0963 55.6604 66.6695 47.7522C74.6465 56.2579 85.0172 64.4911 97.1489 71.4953C111.478 79.7679 126.062 85.056 139.018 87.2445Q139.504 88.3705 139.752 89.5715Q140 90.7726 140 91.999L140 105.001Q140 105.268 139.988 105.534Q139.976 105.8 139.953 106.065Q139.929 106.331 139.894 106.595Q139.858 106.859 139.811 107.122Q139.764 107.384 139.705 107.644Q139.647 107.904 139.576 108.161Q139.506 108.418 139.425 108.672Q139.343 108.926 139.251 109.175Q139.158 109.425 139.054 109.671Q138.95 109.916 138.836 110.157Q138.721 110.398 138.596 110.633Q138.471 110.868 138.336 111.098Q138.2 111.327 138.055 111.551Q137.909 111.774 137.754 111.991Q137.599 112.207 137.434 112.417Q137.269 112.626 137.096 112.828Q136.922 113.03 136.739 113.224Q136.556 113.418 136.365 113.604Q136.174 113.79 135.975 113.967Q135.776 114.144 135.569 114.312Q135.362 114.48 135.148 114.639Q134.934 114.798 134.713 114.947Q134.492 115.096 134.265 115.235Q134.038 115.374 133.804 115.503Q133.571 115.632 133.332 115.751Q133.094 115.869 132.85 115.977Q132.606 116.084 132.358 116.181Q132.109 116.278 131.857 116.364Q131.605 116.449 131.349 116.524Q131.093 116.598 130.834 116.661Q130.575 116.724 130.313 116.775Q130.052 116.826 129.788 116.866Q129.709 117.774 129.601 118.678Q129.492 119.582 129.354 120.483Q129.216 121.383 129.049 122.278Q128.882 123.174 128.685 124.063Q128.489 124.953 128.264 125.835Q128.039 126.718 127.786 127.593Q127.532 128.468 127.25 129.334Q126.968 130.2 126.658 131.056Q126.348 131.913 126.011 132.759Q125.673 133.605 125.308 134.439Q124.943 135.274 124.551 136.096Q124.159 136.918 123.741 137.727Q123.322 138.536 122.878 139.331Q122.433 140.126 121.963 140.907Q121.493 141.687 120.998 142.451Q120.502 143.216 119.982 143.964Q119.462 144.711 118.919 145.442Q118.375 146.173 117.807 146.885Q117.24 147.598 116.649 148.291Q116.059 148.985 115.447 149.659Q114.834 150.333 114.2 150.987Q113.566 151.641 112.911 152.274Q112.256 152.907 111.58 153.518Q110.905 154.129 110.21 154.718Q109.515 155.307 108.802 155.873Q108.088 156.439 107.357 156.982Q106.625 157.525 105.876 158.043Q105.127 158.562 104.362 159.055Q103.596 159.549 102.815 160.018Q102.034 160.487 101.238 160.93Q100.443 161.373 99.6328 161.79Q98.823 162.206 98 162.597L98 181L133.501 181Q135.196 181 136.886 181.142Q138.575 181.283 140.247 181.566Q141.919 181.848 143.561 182.269Q145.203 182.691 146.805 183.247Q148 176.678 148 170.001L148 73.999Q148 72.1824 147.911 70.368Q147.822 68.5537 147.644 66.7458Q147.466 64.938 147.199 63.1411Q146.933 61.3442 146.578 59.5625Q146.224 57.7808 145.782 56.0187Q145.341 54.2566 144.814 52.5182Q144.286 50.7799 143.674 49.0695Q143.062 47.3591 142.367 45.6808Q141.672 44.0025 140.895 42.3603Q140.119 40.7182 139.262 39.1161Q138.406 37.514 137.472 35.9559Q136.538 34.3978 135.529 32.8874Q134.52 31.3769 133.438 29.9178Q132.355 28.4588 131.203 27.0545Q130.051 25.6503 128.831 24.3043Q127.611 22.9583 126.326 21.6738Q125.042 20.3893 123.696 19.1694Q122.35 17.9494 120.945 16.797Q119.541 15.6446 118.082 14.5624Q116.623 13.4803 115.113 12.4711Q113.602 11.4618 112.044 10.5279Q110.486 9.59403 108.884 8.73771Q107.282 7.88138 105.64 7.10469Q103.997 6.32801 102.319 5.63284Q100.641 4.93766 98.9305 4.32568Q97.2201 3.71369 95.4818 3.18637Q93.7434 2.65905 91.9813 2.21766Q90.2191 1.77627 88.4375 1.42187Q86.6558 1.06747 84.8589 0.800927Q83.062 0.534381 81.2542 0.356325Q79.4463 0.17827 77.632 0.089135Q75.8176 0 74.001 0L74 0Z" id="path_1" />
    <clipPath id="mask_1">
      <use xlink:href="#path_1" />
    </clipPath>
  </defs>
  <g id="TopLong-HairStraight-+-Strand">
    <g id="Hair" transform="translate(59 18)">
      <path d="M74 0L73.999 0Q72.1824 0 70.368 0.089135Q68.5537 0.17827 66.7458 0.356325Q64.938 0.534381 63.1411 0.800927Q61.3442 1.06747 59.5625 1.42187Q57.7808 1.77627 56.0187 2.21766Q54.2566 2.65905 52.5182 3.18637Q50.7799 3.71369 49.0695 4.32568Q47.3591 4.93766 45.6808 5.63284Q44.0025 6.32801 42.3603 7.10469Q40.7182 7.88138 39.1161 8.73771Q37.514 9.59403 35.9559 10.5279Q34.3978 11.4618 32.8874 12.4711Q31.3769 13.4803 29.9178 14.5624Q28.4588 15.6446 27.0545 16.797Q25.6503 17.9494 24.3043 19.1694Q22.9583 20.3893 21.6738 21.6738Q20.3893 22.9583 19.1694 24.3043Q17.9494 25.6503 16.797 27.0545Q15.6446 28.4588 14.5624 29.9178Q13.4803 31.3769 12.4711 32.8874Q11.4618 34.3978 10.5279 35.9559Q9.59403 37.514 8.73771 39.1161Q7.88138 40.7182 7.10469 42.3603Q6.32801 44.0025 5.63284 45.6808Q4.93766 47.3591 4.32568 49.0695Q3.71369 50.7799 3.18637 52.5182Q2.65905 54.2566 2.21766 56.0187Q1.77627 57.7808 1.42187 59.5625Q1.06747 61.3442 0.800927 63.1411Q0.534381 64.938 0.356325 66.7458Q0.17827 68.5537 0.089135 70.368Q0 72.1824 0 73.999L0 170.001Q0 176.678 1.19527 183.247Q2.7966 182.691 4.43888 182.269Q6.08115 181.848 7.75288 181.566Q9.42461 181.283 11.1141 181.142Q12.8036 181 14.499 181L50 181L50 162.597Q49.177 162.206 48.3672 161.79Q47.5573 161.373 46.7615 160.93Q45.9656 160.487 45.1846 160.018Q44.4036 159.549 43.6382 159.055Q42.8729 158.562 42.124 158.043Q41.375 157.525 40.6434 156.982Q39.9118 156.439 39.1981 155.873Q38.4845 155.307 37.7897 154.718Q37.0949 154.129 36.4196 153.518Q35.7443 152.907 35.0892 152.274Q34.4342 151.641 33.8 150.987Q33.1659 150.333 32.5533 149.659Q31.9408 148.985 31.3505 148.291Q30.7602 147.598 30.1928 146.885Q29.6254 146.173 29.0815 145.442Q28.5375 144.711 28.0176 143.964Q27.4978 143.216 27.0025 142.451Q26.5072 141.687 26.037 140.907Q25.5668 140.126 25.1223 139.331Q24.6777 138.536 24.2593 137.727Q23.8408 136.918 23.4489 136.096Q23.057 135.274 22.692 134.439Q22.327 133.605 21.9894 132.759Q21.6518 131.913 21.3418 131.056Q21.0319 130.2 20.7499 129.334Q20.468 128.468 20.2144 127.593Q19.9608 126.718 19.7358 125.835Q19.5107 124.953 19.3145 124.063Q19.1183 123.174 18.9512 122.278Q18.784 121.383 18.646 120.483Q18.5081 119.582 18.3995 118.678Q18.2909 117.774 18.2117 116.866Q17.9482 116.826 17.6867 116.775Q17.4252 116.724 17.1662 116.661Q16.9072 116.598 16.6513 116.524Q16.3953 116.449 16.143 116.364Q15.8906 116.278 15.6423 116.181Q15.3939 116.084 15.1502 115.977Q14.9064 115.869 14.6676 115.751Q14.4289 115.632 14.1956 115.503Q13.9623 115.374 13.735 115.235Q13.5077 115.096 13.2868 114.947Q13.0659 114.798 12.8518 114.639Q12.6377 114.48 12.4309 114.312Q12.2241 114.144 12.0249 113.967Q11.8258 113.79 11.6347 113.604Q11.4436 113.418 11.261 113.224Q11.0783 113.03 10.9045 112.828Q10.7306 112.626 10.5659 112.417Q10.4012 112.207 10.2459 111.991Q10.0907 111.774 9.94521 111.551Q9.79974 111.327 9.66432 111.098Q9.52891 110.868 9.40381 110.633Q9.27872 110.398 9.1642 110.157Q9.04968 109.916 8.94596 109.671Q8.84224 109.425 8.74953 109.175Q8.65681 108.926 8.57527 108.672Q8.49374 108.418 8.42356 108.161Q8.35337 107.904 8.29467 107.644Q8.23597 107.384 8.18887 107.122Q8.14177 106.859 8.10636 106.595Q8.07095 106.331 8.04731 106.065Q8.02367 105.8 8.01183 105.534Q8 105.268 8 105.001L8 91.999Q8 90.313 8.46461 88.6924C25.5933 82.6799 42.2076 66.7561 52.0462 44.6582C52.4555 43.7389 52.849 42.818 53.2269 41.8961Q60.1055 60.2506 79.1183 68.535C74.2459 62.588 70.0963 55.6604 66.6695 47.7522C74.6465 56.2579 85.0172 64.4911 97.1489 71.4953C111.478 79.7679 126.062 85.056 139.018 87.2445Q139.504 88.3705 139.752 89.5715Q140 90.7726 140 91.999L140 105.001Q140 105.268 139.988 105.534Q139.976 105.8 139.953 106.065Q139.929 106.331 139.894 106.595Q139.858 106.859 139.811 107.122Q139.764 107.384 139.705 107.644Q139.647 107.904 139.576 108.161Q139.506 108.418 139.425 108.672Q139.343 108.926 139.251 109.175Q139.158 109.425 139.054 109.671Q138.95 109.916 138.836 110.157Q138.721 110.398 138.596 110.633Q138.471 110.868 138.336 111.098Q138.2 111.327 138.055 111.551Q137.909 111.774 137.754 111.991Q137.599 112.207 137.434 112.417Q137.269 112.626 137.096 112.828Q136.922 113.03 136.739 113.224Q136.556 113.418 136.365 113.604Q136.174 113.79 135.975 113.967Q135.776 114.144 135.569 114.312Q135.362 114.48 135.148 114.639Q134.934 114.798 134.713 114.947Q134.492 115.096 134.265 115.235Q134.038 115.374 133.804 115.503Q133.571 115.632 133.332 115.751Q133.094 115.869 132.85 115.977Q132.606 116.084 132.358 116.181Q132.109 116.278 131.857 116.364Q131.605 116.449 131.349 116.524Q131.093 116.598 130.834 116.661Q130.575 116.724 130.313 116.775Q130.052 116.826 129.788 116.866Q129.709 117.774 129.601 118.678Q129.492 119.582 129.354 120.483Q129.216 121.383 129.049 122.278Q128.882 123.174 128.685 124.063Q128.489 124.953 128.264 125.835Q128.039 126.718 127.786 127.593Q127.532 128.468 127.25 129.334Q126.968 130.2 126.658 131.056Q126.348 131.913 126.011 132.759Q125.673 133.605 125.308 134.439Q124.943 135.274 124.551 136.096Q124.159 136.918 123.741 137.727Q123.322 138.536 122.878 139.331Q122.433 140.126 121.963 140.907Q121.493 141.687 120.998 142.451Q120.502 143.216 119.982 143.964Q119.462 144.711 118.919 145.442Q118.375 146.173 117.807 146.885Q117.24 147.598 116.649 148.291Q116.059 148.985 115.447 149.659Q114.834 150.333 114.2 150.987Q113.566 151.641 112.911 152.274Q112.256 152.907 111.58 153.518Q110.905 154.129 110.21 154.718Q109.515 155.307 108.802 155.873Q108.088 156.439 107.357 156.982Q106.625 157.525 105.876 158.043Q105.127 158.562 104.362 159.055Q103.596 159.549 102.815 160.018Q102.034 160.487 101.238 160.93Q100.443 161.373 99.6328 161.79Q98.823 162.206 98 162.597L98 181L133.501 181Q135.196 181 136.886 181.142Q138.575 181.283 140.247 181.566Q141.919 181.848 143.561 182.269Q145.203 182.691 146.805 183.247Q148 176.678 148 170.001L148 73.999Q148 72.1824 147.911 70.368Q147.822 68.5537 147.644 66.7458Q147.466 64.938 147.199 63.1411Q146.933 61.3442 146.578 59.5625Q146.224 57.7808 145.782 56.0187Q145.341 54.2566 144.814 52.5182Q144.286 50.7799 143.674 49.0695Q143.062 47.3591 142.367 45.6808Q141.672 44.0025 140.895 42.3603Q140.119 40.7182 139.262 39.1161Q138.406 37.514 137.472 35.9559Q136.538 34.3978 135.529 32.8874Q134.52 31.3769 133.438 29.9178Q132.355 28.4588 131.203 27.0545Q130.051 25.6503 128.831 24.3043Q127.611 22.9583 126.326 21.6738Q125.042 20.3893 123.696 19.1694Q122.35 17.9494 120.945 16.797Q119.541 15.6446 118.082 14.5624Q116.623 13.4803 115.113 12.4711Q113.602 11.4618 112.044 10.5279Q110.486 9.59403 108.884 8.73771Q107.282 7.88138 105.64 7.10469Q103.997 6.32801 102.319 5.63284Q100.641 4.93766 98.9305 4.32568Q97.2201 3.71369 95.4818 3.18637Q93.7434 2.65905 91.9813 2.21766Q90.2191 1.77627 88.4375 1.42187Q86.6558 1.06747 84.8589 0.800927Q83.062 0.534381 81.2542 0.356325Q79.4463 0.17827 77.632 0.089135Q75.8176 0 74.001 0L74 0Z" id="Hair" fill="#ECC797" fill-rule="evenodd" stroke="none" />
      <g clip-path="url(#mask_1)">
        <g id="Hair-Color" transform="translate(-58 -18)">
          <path d="M0 0L264 0L264 280L0 280L0 0Z" id="Color" fill="#4A312C" fill-rule="evenodd" stroke="none" />
        </g>
      </g>
    </g>
    <path d="M52.0462 2.76215C40.5896 28.4942 19.9454 45.8544 0 48.9418L0 52.9418C19.9454 49.8544 40.5896 32.4942 52.0462 6.76215C52.4555 5.84283 52.849 4.92194 53.2269 4Q60.1055 22.3545 79.1183 30.6389C77.4974 28.6605 75.9565 26.5736 74.4956 24.3782Q59.2341 16.0292 53.2269 0C52.849 0.92194 52.4555 1.84283 52.0462 2.76215ZM70.503 13.7437C77.8662 20.8563 86.8762 27.6683 97.1489 33.5992C114.901 43.8486 133.047 49.5166 148 50.3847L148 46.3847C133.047 45.5166 114.901 39.8486 97.1489 29.5992C85.0172 22.595 74.6465 14.3619 66.6695 5.85611C67.8601 8.60368 69.1379 11.2329 70.503 13.7437Z" transform="translate(59 59.896084)" id="Shadow" fill="#000000" fill-opacity="0.16078432" fill-rule="evenodd" stroke="none" />
    <g id="Facial-Hair" transform="translate(49 72)" />
    <g id="Accessory" transform="translate(62 85)" />
  </g>
</svg>