<?xml version="1.0" encoding="utf-8"?>
<svg width="266px" height="280px" viewbox="0 0 266 280" version="1.1" xmlns:xlink="http://www.w3.org/1999/xlink" xmlns="http://www.w3.org/2000/svg">
  <defs>
    <path d="M27 97.946C37.859 75.2441 61.6698 66.3493 82.44 58.5904C95.7596 53.6148 107.829 49.1062 114.43 41.7231C116.663 43.7501 119.192 45.7805 121.854 47.9168C132.063 56.1118 144.212 65.8632 149 82.946L149 83.1137Q149.454 83.1904 149.901 83.3018Q150.348 83.4131 150.785 83.5583Q151.222 83.7036 151.647 83.882Q152.072 84.0603 152.481 84.2707Q152.891 84.4811 153.284 84.7223Q153.676 84.9634 154.049 85.234Q154.422 85.5046 154.773 85.8029Q155.124 86.1012 155.451 86.4256Q155.778 86.75 156.079 87.0984Q156.38 87.4469 156.654 87.8175Q156.927 88.188 157.172 88.5785Q157.416 88.9689 157.63 89.3769Q157.844 89.7849 158.025 90.2081Q158.207 90.6313 158.356 91.0672Q158.505 91.5032 158.62 91.9492Q158.735 92.3952 158.815 92.8488L158.815 70.9859Q158.815 69.0675 158.656 67.1558C163.202 50.1485 155.566 29.3622 146 19.946C136.519 11.1281 123.698 7.62703 115.047 11.4681C103.442 -6.07228 69.9046 -1.81362 50 12.946C36.746 22.7786 25.1538 38.748 22.1318 58.8503Q21 63.8576 21 68.9912L21 157.487C20.8081 189.002 13.6057 239.984 0 247.946C62.3585 264.743 71.9304 209.801 69 165.946L69 165.543Q68.177 165.152 67.3672 164.736Q66.5573 164.319 65.7615 163.876Q64.9656 163.433 64.1846 162.964Q63.4036 162.495 62.6382 162.001Q61.8728 161.507 61.1239 160.989Q60.375 160.471 59.6434 159.928Q58.9118 159.385 58.1981 158.819Q57.4845 158.253 56.7897 157.664Q56.0949 157.075 55.4196 156.464Q54.7443 155.853 54.0892 155.22Q53.4342 154.587 52.8 153.933Q52.1659 153.279 51.5533 152.605Q50.9408 151.931 50.3505 151.237Q49.7602 150.544 49.1928 149.831Q48.6254 149.119 48.0815 148.388Q47.5375 147.657 47.0176 146.91Q46.4978 146.162 46.0025 145.397Q45.5072 144.633 45.037 143.853Q44.5668 143.072 44.1223 142.277Q43.6777 141.482 43.2593 140.673Q42.8408 139.864 42.4489 139.042Q42.057 138.22 41.692 137.385Q41.327 136.551 40.9894 135.705Q40.6518 134.859 40.3418 134.002Q40.0319 133.146 39.7499 132.28Q39.468 131.414 39.2144 130.539Q38.9608 129.664 38.7358 128.781Q38.5107 127.899 38.3145 127.009Q38.1183 126.12 37.9512 125.224Q37.784 124.329 37.646 123.429Q37.5081 122.528 37.3995 121.624Q37.2909 120.72 37.2117 119.812Q36.9482 119.772 36.6867 119.721Q36.4252 119.67 36.1662 119.607Q35.9072 119.544 35.6513 119.47Q35.3953 119.395 35.143 119.31Q34.8906 119.224 34.6423 119.127Q34.3939 119.03 34.1502 118.923Q33.9064 118.815 33.6676 118.697Q33.4289 118.578 33.1956 118.449Q32.9623 118.32 32.735 118.181Q32.5077 118.042 32.2868 117.893Q32.0659 117.744 31.8518 117.585Q31.6377 117.426 31.4309 117.258Q31.2241 117.09 31.0249 116.913Q30.8258 116.736 30.6347 116.55Q30.4436 116.364 30.261 116.17Q30.0783 115.976 29.9045 115.774Q29.7306 115.572 29.5659 115.363Q29.4012 115.153 29.2459 114.937Q29.0907 114.72 28.9452 114.497Q28.7997 114.273 28.6643 114.044Q28.5289 113.814 28.4038 113.579Q28.2787 113.344 28.1642 113.103Q28.0497 112.862 27.946 112.617Q27.8422 112.371 27.7495 112.121Q27.6568 111.871 27.5753 111.618Q27.4937 111.364 27.4236 111.107Q27.3534 110.85 27.2947 110.59Q27.236 110.33 27.1889 110.068Q27.1418 109.805 27.1064 109.541Q27.071 109.277 27.0473 109.011Q27.0237 108.746 27.0118 108.48Q27 108.214 27 107.947L27 97.946ZM117 183.946L117 165.543Q117.823 165.152 118.633 164.736Q119.443 164.319 120.238 163.876Q121.034 163.433 121.815 162.964Q122.596 162.495 123.362 162.001Q124.127 161.507 124.876 160.989Q125.625 160.471 126.357 159.928Q127.088 159.385 127.802 158.819Q128.515 158.253 129.21 157.664Q129.905 157.075 130.58 156.464Q131.256 155.853 131.911 155.22Q132.566 154.587 133.2 153.933Q133.834 153.279 134.447 152.605Q135.059 151.931 135.649 151.237Q136.24 150.544 136.807 149.831Q137.375 149.119 137.919 148.388Q138.462 147.657 138.982 146.91Q139.502 146.162 139.998 145.397Q140.493 144.633 140.963 143.853Q141.433 143.072 141.878 142.277Q142.322 141.482 142.741 140.673Q143.159 139.864 143.551 139.042Q143.943 138.22 144.308 137.385Q144.673 136.551 145.011 135.705Q145.348 134.859 145.658 134.002Q145.968 133.146 146.25 132.28Q146.532 131.414 146.786 130.539Q147.039 129.664 147.264 128.781Q147.489 127.899 147.685 127.009Q147.882 126.12 148.049 125.224Q148.216 124.329 148.354 123.429Q148.492 122.528 148.601 121.624Q148.709 120.72 148.788 119.812Q149.019 119.777 149.249 119.734Q149.478 119.69 149.706 119.637Q149.933 119.585 150.159 119.523Q150.384 119.462 150.607 119.391Q150.83 119.321 151.049 119.242Q151.269 119.164 151.486 119.076Q151.703 118.989 151.916 118.893Q152.129 118.798 152.338 118.694Q152.547 118.59 152.752 118.478Q152.957 118.366 153.158 118.246Q153.358 118.126 153.554 117.999Q153.749 117.871 153.94 117.736Q154.131 117.601 154.316 117.459Q154.501 117.316 154.68 117.167Q154.86 117.017 155.033 116.861Q155.207 116.705 155.374 116.542Q155.541 116.379 155.702 116.209Q155.863 116.04 156.017 115.864Q156.171 115.689 156.319 115.507Q156.466 115.326 156.606 115.139Q156.746 114.952 156.878 114.76Q157.011 114.568 157.136 114.37Q157.261 114.173 157.378 113.971Q157.496 113.769 157.605 113.563Q157.714 113.356 157.815 113.146Q157.917 112.935 158.01 112.721Q158.102 112.506 158.187 112.289Q158.271 112.071 158.347 111.85Q158.423 111.629 158.491 111.406Q158.558 111.182 158.617 110.956Q158.675 110.73 158.725 110.501Q158.775 110.273 158.815 110.043L158.815 111.417Q158.815 114.371 158.99 117.321Q159.164 120.271 159.513 123.205Q159.861 126.139 160.382 129.048Q160.903 131.956 161.595 134.829Q162.287 137.701 163.147 140.528Q164.007 143.355 165.033 146.126Q166.058 148.897 167.246 151.603Q168.433 154.309 169.778 156.939L196.727 209.649Q197.004 210.189 197.262 210.738Q197.521 211.286 197.762 211.843Q198.004 212.4 198.227 212.964Q198.45 213.528 198.655 214.099Q198.86 214.67 199.047 215.247Q199.234 215.824 199.402 216.407Q199.57 216.99 199.72 217.578Q199.87 218.166 200 218.758Q200.131 219.351 200.243 219.947Q200.355 220.543 200.447 221.143Q200.54 221.742 200.613 222.345Q200.687 222.947 200.741 223.551Q200.795 224.155 200.83 224.761Q200.865 225.367 200.881 225.973Q200.896 226.58 200.892 227.186Q200.889 227.793 200.865 228.399Q200.842 229.005 200.8 229.611Q200.757 230.216 200.695 230.819Q200.634 231.423 200.553 232.024Q200.471 232.625 200.371 233.224Q200.271 233.822 200.152 234.417Q200.033 235.012 199.894 235.602Q199.756 236.193 199.599 236.779Q199.442 237.365 199.267 237.946Q199.091 238.527 198.897 239.101Q198.703 239.676 198.491 240.245Q198.278 240.813 198.048 241.374Q197.818 241.935 197.569 242.489Q197.321 243.043 197.056 243.588Q196.79 244.133 196.507 244.67Q196.224 245.207 195.924 245.734Q195.624 246.261 195.307 246.779Q194.244 248.517 193 250.132L193 224.445Q193 223.451 192.951 222.458Q192.902 221.465 192.805 220.475Q192.708 219.486 192.562 218.503Q192.416 217.519 192.222 216.544Q192.028 215.569 191.786 214.605Q191.545 213.64 191.256 212.689Q190.968 211.737 190.633 210.801Q190.298 209.865 189.917 208.947Q189.537 208.028 189.112 207.129Q188.687 206.231 188.218 205.354Q187.749 204.477 187.238 203.624Q186.727 202.772 186.175 201.945Q185.622 201.118 185.03 200.32Q184.438 199.521 183.807 198.753Q183.176 197.984 182.509 197.248Q181.841 196.511 181.138 195.808Q180.435 195.105 179.698 194.437Q178.962 193.77 178.193 193.139Q177.425 192.508 176.626 191.916Q175.828 191.324 175.001 190.771Q174.174 190.219 173.322 189.708Q172.469 189.197 171.592 188.728Q170.715 188.259 169.817 187.834Q168.918 187.409 167.999 187.029Q167.081 186.648 166.145 186.313Q165.209 185.978 164.257 185.69Q163.306 185.401 162.341 185.16Q161.377 184.918 160.402 184.724Q159.427 184.53 158.443 184.384Q157.46 184.238 156.471 184.141Q155.481 184.044 154.488 183.995Q153.495 183.946 152.501 183.946L117 183.946Z" transform="translate(0 0.05400224)" id="path_1" />
    <clipPath id="mask_1">
      <use xlink:href="#path_1" />
    </clipPath>
  </defs>
  <g id="TopLong-HairStraight">
    <g id="Hair" transform="translate(40 15)">
      <path d="M27 97.946C37.859 75.2441 61.6698 66.3493 82.44 58.5904C95.7596 53.6148 107.829 49.1062 114.43 41.7231C116.663 43.7501 119.192 45.7805 121.854 47.9168C132.063 56.1118 144.212 65.8632 149 82.946L149 83.1137Q149.454 83.1904 149.901 83.3018Q150.348 83.4131 150.785 83.5583Q151.222 83.7036 151.647 83.882Q152.072 84.0603 152.481 84.2707Q152.891 84.4811 153.284 84.7223Q153.676 84.9634 154.049 85.234Q154.422 85.5046 154.773 85.8029Q155.124 86.1012 155.451 86.4256Q155.778 86.75 156.079 87.0984Q156.38 87.4469 156.654 87.8175Q156.927 88.188 157.172 88.5785Q157.416 88.9689 157.63 89.3769Q157.844 89.7849 158.025 90.2081Q158.207 90.6313 158.356 91.0672Q158.505 91.5032 158.62 91.9492Q158.735 92.3952 158.815 92.8488L158.815 70.9859Q158.815 69.0675 158.656 67.1558C163.202 50.1485 155.566 29.3622 146 19.946C136.519 11.1281 123.698 7.62703 115.047 11.4681C103.442 -6.07228 69.9046 -1.81362 50 12.946C36.746 22.7786 25.1538 38.748 22.1318 58.8503Q21 63.8576 21 68.9912L21 157.487C20.8081 189.002 13.6057 239.984 0 247.946C62.3585 264.743 71.9304 209.801 69 165.946L69 165.543Q68.177 165.152 67.3672 164.736Q66.5573 164.319 65.7615 163.876Q64.9656 163.433 64.1846 162.964Q63.4036 162.495 62.6382 162.001Q61.8728 161.507 61.1239 160.989Q60.375 160.471 59.6434 159.928Q58.9118 159.385 58.1981 158.819Q57.4845 158.253 56.7897 157.664Q56.0949 157.075 55.4196 156.464Q54.7443 155.853 54.0892 155.22Q53.4342 154.587 52.8 153.933Q52.1659 153.279 51.5533 152.605Q50.9408 151.931 50.3505 151.237Q49.7602 150.544 49.1928 149.831Q48.6254 149.119 48.0815 148.388Q47.5375 147.657 47.0176 146.91Q46.4978 146.162 46.0025 145.397Q45.5072 144.633 45.037 143.853Q44.5668 143.072 44.1223 142.277Q43.6777 141.482 43.2593 140.673Q42.8408 139.864 42.4489 139.042Q42.057 138.22 41.692 137.385Q41.327 136.551 40.9894 135.705Q40.6518 134.859 40.3418 134.002Q40.0319 133.146 39.7499 132.28Q39.468 131.414 39.2144 130.539Q38.9608 129.664 38.7358 128.781Q38.5107 127.899 38.3145 127.009Q38.1183 126.12 37.9512 125.224Q37.784 124.329 37.646 123.429Q37.5081 122.528 37.3995 121.624Q37.2909 120.72 37.2117 119.812Q36.9482 119.772 36.6867 119.721Q36.4252 119.67 36.1662 119.607Q35.9072 119.544 35.6513 119.47Q35.3953 119.395 35.143 119.31Q34.8906 119.224 34.6423 119.127Q34.3939 119.03 34.1502 118.923Q33.9064 118.815 33.6676 118.697Q33.4289 118.578 33.1956 118.449Q32.9623 118.32 32.735 118.181Q32.5077 118.042 32.2868 117.893Q32.0659 117.744 31.8518 117.585Q31.6377 117.426 31.4309 117.258Q31.2241 117.09 31.0249 116.913Q30.8258 116.736 30.6347 116.55Q30.4436 116.364 30.261 116.17Q30.0783 115.976 29.9045 115.774Q29.7306 115.572 29.5659 115.363Q29.4012 115.153 29.2459 114.937Q29.0907 114.72 28.9452 114.497Q28.7997 114.273 28.6643 114.044Q28.5289 113.814 28.4038 113.579Q28.2787 113.344 28.1642 113.103Q28.0497 112.862 27.946 112.617Q27.8422 112.371 27.7495 112.121Q27.6568 111.871 27.5753 111.618Q27.4937 111.364 27.4236 111.107Q27.3534 110.85 27.2947 110.59Q27.236 110.33 27.1889 110.068Q27.1418 109.805 27.1064 109.541Q27.071 109.277 27.0473 109.011Q27.0237 108.746 27.0118 108.48Q27 108.214 27 107.947L27 97.946ZM117 183.946L117 165.543Q117.823 165.152 118.633 164.736Q119.443 164.319 120.238 163.876Q121.034 163.433 121.815 162.964Q122.596 162.495 123.362 162.001Q124.127 161.507 124.876 160.989Q125.625 160.471 126.357 159.928Q127.088 159.385 127.802 158.819Q128.515 158.253 129.21 157.664Q129.905 157.075 130.58 156.464Q131.256 155.853 131.911 155.22Q132.566 154.587 133.2 153.933Q133.834 153.279 134.447 152.605Q135.059 151.931 135.649 151.237Q136.24 150.544 136.807 149.831Q137.375 149.119 137.919 148.388Q138.462 147.657 138.982 146.91Q139.502 146.162 139.998 145.397Q140.493 144.633 140.963 143.853Q141.433 143.072 141.878 142.277Q142.322 141.482 142.741 140.673Q143.159 139.864 143.551 139.042Q143.943 138.22 144.308 137.385Q144.673 136.551 145.011 135.705Q145.348 134.859 145.658 134.002Q145.968 133.146 146.25 132.28Q146.532 131.414 146.786 130.539Q147.039 129.664 147.264 128.781Q147.489 127.899 147.685 127.009Q147.882 126.12 148.049 125.224Q148.216 124.329 148.354 123.429Q148.492 122.528 148.601 121.624Q148.709 120.72 148.788 119.812Q149.019 119.777 149.249 119.734Q149.478 119.69 149.706 119.637Q149.933 119.585 150.159 119.523Q150.384 119.462 150.607 119.391Q150.83 119.321 151.049 119.242Q151.269 119.164 151.486 119.076Q151.703 118.989 151.916 118.893Q152.129 118.798 152.338 118.694Q152.547 118.59 152.752 118.478Q152.957 118.366 153.158 118.246Q153.358 118.126 153.554 117.999Q153.749 117.871 153.94 117.736Q154.131 117.601 154.316 117.459Q154.501 117.316 154.68 117.167Q154.86 117.017 155.033 116.861Q155.207 116.705 155.374 116.542Q155.541 116.379 155.702 116.209Q155.863 116.04 156.017 115.864Q156.171 115.689 156.319 115.507Q156.466 115.326 156.606 115.139Q156.746 114.952 156.878 114.76Q157.011 114.568 157.136 114.37Q157.261 114.173 157.378 113.971Q157.496 113.769 157.605 113.563Q157.714 113.356 157.815 113.146Q157.917 112.935 158.01 112.721Q158.102 112.506 158.187 112.289Q158.271 112.071 158.347 111.85Q158.423 111.629 158.491 111.406Q158.558 111.182 158.617 110.956Q158.675 110.73 158.725 110.501Q158.775 110.273 158.815 110.043L158.815 111.417Q158.815 114.371 158.99 117.321Q159.164 120.271 159.513 123.205Q159.861 126.139 160.382 129.048Q160.903 131.956 161.595 134.829Q162.287 137.701 163.147 140.528Q164.007 143.355 165.033 146.126Q166.058 148.897 167.246 151.603Q168.433 154.309 169.778 156.939L196.727 209.649Q197.004 210.189 197.262 210.738Q197.521 211.286 197.762 211.843Q198.004 212.4 198.227 212.964Q198.45 213.528 198.655 214.099Q198.86 214.67 199.047 215.247Q199.234 215.824 199.402 216.407Q199.57 216.99 199.72 217.578Q199.87 218.166 200 218.758Q200.131 219.351 200.243 219.947Q200.355 220.543 200.447 221.143Q200.54 221.742 200.613 222.345Q200.687 222.947 200.741 223.551Q200.795 224.155 200.83 224.761Q200.865 225.367 200.881 225.973Q200.896 226.58 200.892 227.186Q200.889 227.793 200.865 228.399Q200.842 229.005 200.8 229.611Q200.757 230.216 200.695 230.819Q200.634 231.423 200.553 232.024Q200.471 232.625 200.371 233.224Q200.271 233.822 200.152 234.417Q200.033 235.012 199.894 235.602Q199.756 236.193 199.599 236.779Q199.442 237.365 199.267 237.946Q199.091 238.527 198.897 239.101Q198.703 239.676 198.491 240.245Q198.278 240.813 198.048 241.374Q197.818 241.935 197.569 242.489Q197.321 243.043 197.056 243.588Q196.79 244.133 196.507 244.67Q196.224 245.207 195.924 245.734Q195.624 246.261 195.307 246.779Q194.244 248.517 193 250.132L193 224.445Q193 223.451 192.951 222.458Q192.902 221.465 192.805 220.475Q192.708 219.486 192.562 218.503Q192.416 217.519 192.222 216.544Q192.028 215.569 191.786 214.605Q191.545 213.64 191.256 212.689Q190.968 211.737 190.633 210.801Q190.298 209.865 189.917 208.947Q189.537 208.028 189.112 207.129Q188.687 206.231 188.218 205.354Q187.749 204.477 187.238 203.624Q186.727 202.772 186.175 201.945Q185.622 201.118 185.03 200.32Q184.438 199.521 183.807 198.753Q183.176 197.984 182.509 197.248Q181.841 196.511 181.138 195.808Q180.435 195.105 179.698 194.437Q178.962 193.77 178.193 193.139Q177.425 192.508 176.626 191.916Q175.828 191.324 175.001 190.771Q174.174 190.219 173.322 189.708Q172.469 189.197 171.592 188.728Q170.715 188.259 169.817 187.834Q168.918 187.409 167.999 187.029Q167.081 186.648 166.145 186.313Q165.209 185.978 164.257 185.69Q163.306 185.401 162.341 185.16Q161.377 184.918 160.402 184.724Q159.427 184.53 158.443 184.384Q157.46 184.238 156.471 184.141Q155.481 184.044 154.488 183.995Q153.495 183.946 152.501 183.946L117 183.946Z" transform="translate(0 0.05400224)" id="Hair" fill="#272C2E" fill-rule="evenodd" stroke="none" />
      <g clip-path="url(#mask_1)">
        <g id="Hair-Color" transform="translate(-39 -15)">
          <path d="M0 0L264 0L264 280L0 280L0 0Z" id="Color" fill="#4A312C" fill-rule="evenodd" stroke="none" />
        </g>
      </g>
    </g>
    <path d="M55.44 16.8673C34.6698 24.6262 10.859 33.521 0 56.2229C17.8226 23.8876 70.5354 23.8298 87.4297 7.43125C98.2075 15.9211 115.892 22.4894 121.963 41.0914C117.15 24.09 105.037 14.3676 94.8538 6.19365C92.1924 4.05743 89.6628 2.02698 87.4297 -1.80964e-06C80.8287 7.38312 68.7596 11.8917 55.44 16.8673Z" transform="translate(67 56.777115)" id="Shadow" fill="#000000" fill-opacity="0.16078432" fill-rule="evenodd" stroke="none" />
    <g id="Facial-Hair" transform="translate(49 72)" />
    <g id="Accessory" transform="translate(62 85)" />
  </g>
</svg>