<svg viewBox="62.30000000000001 -13.999999999999972 140 132.99999999999997" xmlns="http://www.w3.org/2000/svg" xmlns:xlink="http://www.w3.org/1999/xlink" xmlns:blush="http://design.blush" overflow="visible" width="140px" height="132.99999999999997px">
    <g id="Hairstyle/Chef Cap" stroke="none" stroke-width="1" fill="none" fill-rule="evenodd">
        <path d="M157.153901,86.8089233 C152.875387,89.8881087 146.944923,92.9808041 139.003339,94.8379429 C136.837339,95.3439429 135.362339,92.6699429 136.935339,91.0969429 C139.768339,88.2649429 143.008339,84.5939429 144.867339,81.0529429 C144.867339,81.0529429 136.0888,78.4632 121.9228,83.7302 C106.4998,88.3702 97.8288,97.5112 93.9378,102.7262 C92.7908,104.2642 90.3508,103.7092 89.9808,101.8262 C89.1828,97.7572 86.5968,95.6059946 89.9808,89.6839946 C89.9808,89.6839946 79.1388,95.9192 78.2588,115.8782 C78.1848,117.5582 75.9728,118.1062 75.1048,116.6642 C69.7248,107.7222 67.4671732,102.9032 80.3581732,82.1422 L93.9378,72.7286002 C92.3138,74.3526002 188.3288,65.5731292 188.3288,92.4531292 C188.3288,107.226129 203.572389,114.692493 191.3288,118.2352 C188.3288,119.103256 174.3208,102.5312 176.6818,92.9052 L173.5288,96.6082 C173.0408,98.5932 164.97823,94.6240921 164.97823,87.2283756 C164.97823,87.2283756 163.825444,82.0075086 157.153901,86.8089233 Z" id="Fill-1" fill="#724133" blush:color="Hair-500" />
        <g id="Facial-Hair" transform="translate(49.000000, 72.000000)"></g>
        <g id="Accessory" transform="translate(62.000000, 85.000000)"></g>
        <g id="Chef_cap" transform="translate(63.000000, -13.000000)">
            <path d="M139.2275,26.4269 C139.2275,16.0449 123.6435,7.6289 104.4205,7.6289 C102.2365,7.6289 100.1035,7.7419 98.0315,7.9499 C91.7265,3.1419 81.3525,-0.0001 69.6135,-0.0001 C57.8745,-0.0001 47.5005,3.1419 41.1965,7.9499 C39.1235,7.7419 36.9905,7.6289 34.8065,7.6289 C15.5835,7.6289 -0.0005,16.0449 -0.0005,26.4269 C-0.0005,32.5069 5.3485,37.9089 13.6385,41.3449 L13.6385,85.0089 L125.0395,85.0089 L125.0395,41.5699 C133.6415,38.1479 139.2275,32.6399 139.2275,26.4269" id="Fill-1" fill="#F4F4F4" />
            <path d="M16.2065,104.153 C30.0265,94.449 68.7285,74.479 122.8585,105.36 C125.2555,106.727 128.2395,104.999 128.2395,102.239 L128.2395,89.302 C128.2395,88.334 127.8485,87.41 127.1465,86.743 C122.6145,82.443 103.9015,66.955 69.4375,66.955 C35.0165,66.955 16.1485,82.404 11.5435,86.727 C10.8235,87.403 10.4275,88.348 10.4373151,89.335 L10.5605,101.231 C10.5905,104.117 13.8445,105.811 16.2065,104.153" id="Fill-4" fill="#F7F9F9" />
            <path d="M69.6338,55.966 L69.6338,55.966 C68.3148,55.966 67.2458,54.897 67.2458,53.578 L67.2458,29.748 C67.2458,28.429 68.3148,27.36 69.6338,27.36 C70.9528,27.36 72.0218,28.429 72.0218,29.748 L72.0218,53.578 C72.0218,54.897 70.9528,55.966 69.6338,55.966" id="Fill-6" fill="#F7F9F9" />
            <path d="M98.0439,59.4919 L98.0439,59.4919 C96.7259,59.4919 95.6559,58.4229 95.6559,57.1039 L95.6559,33.2739 C95.6559,31.9549 96.7259,30.8859 98.0439,30.8859 C99.3629,30.8859 100.4329,31.9549 100.4329,33.2739 L100.4329,57.1039 C100.4329,58.4229 99.3629,59.4919 98.0439,59.4919" id="Fill-8" fill="#F7F9F9" />
            <path d="M39.9233,59.4919 L39.9233,59.4919 C38.6043,59.4919 37.5353,58.4229 37.5353,57.1039 L37.5353,33.2739 C37.5353,31.9549 38.6043,30.8859 39.9233,30.8859 C41.2423,30.8859 42.3113,31.9549 42.3113,33.2739 L42.3113,57.1039 C42.3113,58.4229 41.2423,59.4919 39.9233,59.4919" id="Fill-10" fill="#F7F9F9" />
        </g>
    </g>
</svg>