<?xml version="1.0" encoding="UTF-8" standalone="no"?>
<svg xmlns:blush="http://design.blush" xmlns:dc="http://purl.org/dc/elements/1.1/" xmlns:cc="http://creativecommons.org/ns#" xmlns:rdf="http://www.w3.org/1999/02/22-rdf-syntax-ns#" xmlns:svg="http://www.w3.org/2000/svg" xmlns="http://www.w3.org/2000/svg" xmlns:xlink="http://www.w3.org/1999/xlink" viewBox="63.69999999999999 2.799999999999983 138.59999999999994 186.20000000000002" overflow="visible" width="138.59999999999994px" height="186.20000000000002px" version="1.1" id="svg19">
    <metadata id="metadata23">
        <rdf:RDF>
            <cc:Work rdf:about="">
                <dc:format>image/svg+xml</dc:format>
                <dc:type rdf:resource="http://purl.org/dc/dcmitype/StillImage" />
                <dc:title></dc:title>
            </cc:Work>
        </rdf:RDF>
    </metadata>
    <g id="Facial-Hair" transform="translate(49.000000, 72.000000)"></g>
    <g id="Accessory" transform="translate(62.000000, 85.000000)"></g>
    <defs id="defs3">
        <path d="M264,0 L264,280 L232,280 L232,271 C232,231.235498 199.764502,199 160,199 L160,199 L156,199 L156.001014,180.610469 C173.531251,172.282329 186.048207,155.114429 187.791415,134.867236 C193.568906,134.002616 198,129.018777 198,123 L198,123 L198,110 C198,104.05429 193.675838,99.1185422 188.000809,98.1660527 L188,92 C188,61.072054 162.927946,36 132,36 C101.072054,36 76,61.072054 76,92 L76,92 L76.0001873,98.1658855 C70.3246685,99.1179645 66,104.053942 66,110 L66,110 L66,123 C66,129.018777 70.4310943,134.002616 76.2090181,134.867253 C77.9518263,155.114813 90.4692242,172.28298 107.999984,180.610943 L108,199 L104,199 C64.633143,199 32.6454629,230.594012 32.0096459,269.809348 L32,271 L32,280 L0,280 L0,0 L264,0 Z" id="hairstylegladiator-helmet-path-1" />
        <mask id="hairstylegladiator-helmet-mask-2" fill="#ffffff">
            <use xlink:href="#hairstylegladiator-helmet-path-1" id="use6" x="0" y="0" width="100%" height="100%" />
        </mask>
    </defs>
    <path d="m 157.1539,81.808923 c -4.27851,3.079186 -10.20898,6.171881 -18.15056,8.02902 -2.166,0.506 -3.641,-2.168 -2.068,-3.741 2.833,-2.832 6.073,-6.503 7.932,-10.044 0,0 -8.77854,-2.589743 -22.94454,2.677257 -15.423,4.64 -28.051,13.969813 -31.942,19.184813 -1.147,1.538 -3.384,-7.309018 0,-13.231018 0,0 -11.71574,6.924205 -9.622627,-7.541795 L 93.9378,67.7286 c -0.580098,0.580098 27.4875,-23.140213 42.99754,-23.115624 27.91076,0.04446 51.39346,25.561769 51.39346,42.840153 0,14.773001 15.24359,22.239361 3,25.782071 -3,0.86806 -17.008,-15.704 -14.647,-25.33 l -3.153,3.703 c -0.488,1.985 -8.55057,-1.984108 -8.55057,-9.379824 0,0 -1.15279,-5.220867 -7.82433,-0.419453 z" id="Fill-1" fill="#724133" blush:color="Hair-500" style="fill-rule:evenodd;stroke:none;stroke-width:1" />
    <path d="m 77.2311,134.9196 c 1.713,19.909 13.848,36.834 30.92,45.312 v -41.693 l -21.083,-6.866 c 0,0 -9.056,-41.26 25.96,-46.016 3.536,-0.48 6.936,1.41 8.078,4.452 1.491,3.968 4.913,9.68 12.761,14.558 0,0 8.711,-6.948 11.663,-14.678 1.14,-2.984 4.558,-4.796 8.031,-4.313 34.858,4.843 25.824,45.997 25.824,45.997 l -21.082,6.866 v 41.339 c 0,0.048 0.016,0.093 0.019,0.142 16.846,-8.548 28.791,-25.358 30.492,-45.1 3.91,-0.585 7.197,-3.061 8.917,-6.463 v -21.179 c 0,-0.93 -0.029,-1.853 -0.078,-2.772 -1.708,-3.267 -4.868,-5.656 -8.63,-6.287 l -0.001,-6.166 c 0,-6.294 -1.054,-12.339 -2.968,-17.986 -11.668,-14.926 -30.971,-24.693 -52.827,-24.693 -22.305,0 -41.963,10.163 -53.547,25.61 -1.721,5.383 -2.658,11.115 -2.658,17.069 v 6.166 c -3.442,0.577 -6.38,2.625 -8.165,5.47 -0.081,1.188 -0.135,2.382 -0.135,3.589 v 21.934 c 1.805,3.012 4.893,5.167 8.509,5.708" id="path11" fill-opacity="0.16" fill="#000000" style="fill-rule:evenodd;stroke:none;stroke-width:1" />
    <path id="Fabric-Color" d="M 54.222656 0.90039062 C 51.341656 0.90039062 49.249859 3.6379688 50.005859 6.4179688 L 55.779297 27.626953 C 24.299191 33.998712 0.59960937 61.81956 0.59960938 95.179688 L 0.59960938 169.06836 C 0.59960938 170.14736 1.155125 171.16075 2.078125 171.71875 C 14.390125 179.16075 28.044313 183.36747 34.570312 185.10547 C 36.536312 185.62947 38.457031 184.14438 38.457031 182.10938 L 38.457031 132.39062 L 20.205078 124.21875 C 20.205078 124.21875 10.526359 75.104359 47.943359 69.443359 C 51.721359 68.872359 55.355172 71.122187 56.576172 74.742188 C 58.169172 79.465187 61.823938 86.264312 70.210938 92.070312 C 70.210938 92.070312 79.518828 83.801609 82.673828 74.599609 C 83.890828 71.046609 87.544859 68.890844 91.255859 69.464844 C 128.50286 75.229844 118.84961 124.21875 118.84961 124.21875 L 100.5957 132.39062 L 100.5957 181.59766 C 100.5957 183.79566 102.81356 185.29366 104.85156 184.47266 C 111.38456 181.83966 124.47569 175.81252 137.30469 165.47852 C 138.03269 164.89152 138.45312 163.99655 138.45312 163.06055 L 138.45312 95.179688 C 138.45312 61.820223 114.75504 33.999439 83.275391 27.626953 L 89.046875 6.4179688 C 89.803875 3.6379688 87.711078 0.90039062 84.830078 0.90039062 L 54.222656 0.90039062 z " transform="translate(63.7,2.8)" />
    <path d="m 133.2267,89.4216 v -43.045 c 0,0 6.874,13.894 0,43.045" id="Fill-6" fill-opacity="0.24" fill="#000000" style="fill-rule:evenodd;stroke:none;stroke-width:1" />
    <path id="Fill-8-5" style="fill-rule:evenodd;stroke:none;stroke-width:1;fill:#000000;fill-opacity:0.23999999" d="m 119.48398,30.444578 c -1.64206,0.33468 -3.26502,0.722647 -4.86328,1.169922 l 2.85742,10.496093 c 0.686,2.518 2.97108,4.265625 5.58008,4.265625 h 20.33594 c 2.609,0 4.89603,-1.747625 5.58203,-4.265625 L 151.83359,31.6145 c -1.59859,-0.447445 -3.22256,-0.835159 -4.86523,-1.169922 l -1.8418,6.767578 c -0.519,1.902 -2.2448,3.222656 -4.2168,3.222656 h -15.36523 c -1.972,0 -3.69975,-1.320656 -4.21875,-3.222656 z" />
</svg>