<svg viewBox="63.69999999999999 2.799999999999983 138.59999999999994 186.20000000000002" xmlns="http://www.w3.org/2000/svg" xmlns:xlink="http://www.w3.org/1999/xlink" xmlns:blush="http://design.blush" overflow="visible" width="138.59999999999994px" height="186.20000000000002px"><defs><path d="M264,0 L264,280 L232,280 L232,271 C232,231.235498 199.764502,199 160,199 L160,199 L156,199 L156.001014,180.610469 C173.531251,172.282329 186.048207,155.114429 187.791415,134.867236 C193.568906,134.002616 198,129.018777 198,123 L198,123 L198,110 C198,104.05429 193.675838,99.1185422 188.000809,98.1660527 L188,92 C188,61.072054 162.927946,36 132,36 C101.072054,36 76,61.072054 76,92 L76,92 L76.0001873,98.1658855 C70.3246685,99.1179645 66,104.053942 66,110 L66,110 L66,123 C66,129.018777 70.4310943,134.002616 76.2090181,134.867253 C77.9518263,155.114813 90.4692242,172.28298 107.999984,180.610943 L108,199 L104,199 C64.633143,199 32.6454629,230.594012 32.0096459,269.809348 L32,271 L32,280 L0,280 L0,0 L264,0 Z" id="hairstylegladiator-helmet-path-1"/></defs><g id="Hairstyle/Gladiator Helmet" stroke="none" stroke-width="1" fill="none" fill-rule="evenodd"><path d="M157.153901,81.8089233 C152.875387,84.8881087 146.944923,87.9808041 139.003339,89.8379429 C136.837339,90.3439429 135.362339,87.6699429 136.935339,86.0969429 C139.768339,83.2649429 143.008339,79.5939429 144.867339,76.0529429 C144.867339,76.0529429 136.0888,73.4632 121.9228,78.7302 C106.4998,83.3702 93.8718,92.7000135 89.9808,97.9150135 C88.8338,99.4530135 86.5968,90.6059946 89.9808,84.6839946 C89.9808,84.6839946 78.2650595,91.6082 80.3581732,77.1422 L93.9378,67.7286002 C93.3577024,68.3086979 121.425301,44.5883868 136.935339,44.6129756 C164.846101,44.6574385 188.3288,70.1747449 188.3288,87.4531292 C188.3288,102.226129 203.572389,109.692493 191.3288,113.2352 C188.3288,114.103256 174.3208,97.5312 176.6818,87.9052 L173.5288,91.6082 C173.0408,93.5932 164.97823,89.6240921 164.97823,82.2283756 C164.97823,82.2283756 163.825444,77.0075086 157.153901,81.8089233 Z" id="Fill-1" fill="#724133" blush:color="Hair-500"/><g id="template-for-hairstyles" opacity=".184" transform="translate(1.000000, 0.000000)"><mask id="hairstylegladiator-helmet-mask-2" fill="#fff"><use xlink:href="#hairstylegladiator-helmet-path-1"/></mask><g id="Mask-Hair"/></g><g id="Helmet" transform="translate(64.300000, 3.700000)"><path d="M12.9311,131.2196 C14.6441,151.1286 26.7791,168.0536 43.8511,176.5316 L43.8511,134.8386 L22.7681,127.9726 C22.7681,127.9726 13.7121,86.7126 48.7281,81.9566 C52.2641,81.4766 55.6641,83.3666 56.8061,86.4086 C58.2971,90.3766 61.7191,96.0886 69.5671,100.9666 C69.5671,100.9666 78.2781,94.0186 81.2301,86.2886 C82.3701,83.3046 85.7881,81.4926 89.2611,81.9756 C124.1191,86.8186 115.0851,127.9726 115.0851,127.9726 L94.0031,134.8386 L94.0031,176.1776 C94.0031,176.2256 94.0191,176.2706 94.0221,176.3196 C110.8681,167.7716 122.8131,150.9616 124.5141,131.2196 C128.4241,130.6346 131.7111,128.1586 133.4311,124.7566 L133.4311,103.5776 C133.4311,102.6476 133.4021,101.7246 133.3531,100.8056 C131.6451,97.5386 128.4851,95.1496 124.7231,94.5186 L124.7221,88.3526 C124.7221,82.0586 123.6681,76.0136 121.7541,70.3666 C110.0861,55.4406 90.7831,45.6736 68.9271,45.6736 C46.6221,45.6736 26.9641,55.8366 15.3801,71.2836 C13.6591,76.6666 12.7221,82.3986 12.7221,88.3526 L12.7221,94.5186 C9.2801,95.0956 6.3421,97.1436 4.5571,99.9886 C4.4761,101.1766 4.4221,102.3706 4.4221,103.5776 L4.4221,125.5116 C6.2271,128.5236 9.3151,130.6786 12.9311,131.2196" id="Fill-1" fill-opacity=".16" fill="#000"/><path d="M137.8535,162.1596 L137.8535,94.2796 C137.8535,56.2116 106.9945,25.3526 68.9265,25.3526 C30.8595,25.3526 -0.0005,56.2116 -0.0005,94.2796 L-0.0005,168.1686 C-0.0005,169.2476 0.5555,170.2606 1.4785,170.8186 C13.7905,178.2606 27.4445,182.4666 33.9705,184.2046 C35.9365,184.7286 37.8575,183.2436 37.8575,181.2086 L37.8575,131.4916 L19.6045,123.3186 C19.6045,123.3186 9.9265,74.2036 47.3435,68.5426 C51.1215,67.9716 54.7545,70.2216 55.9755,73.8416 C57.5685,78.5646 61.2245,85.3646 69.6115,91.1706 C69.6115,91.1706 78.9195,82.9016 82.0745,73.6996 C83.2915,70.1466 86.9445,67.9906 90.6555,68.5646 C127.9025,74.3296 118.2495,123.3186 118.2495,123.3186 L99.9965,131.4916 L99.9965,180.6976 C99.9965,182.8956 102.2135,184.3936 104.2515,183.5726 C110.7845,180.9396 123.8755,174.9116 136.7045,164.5776 C137.4325,163.9906 137.8535,163.0956 137.8535,162.1596" id="Fill-3" fill="#E29817"/><path d="M68.9267,85.7216 L68.9267,42.6766 C68.9267,42.6766 75.8007,56.5706 68.9267,85.7216" id="Fill-6" fill-opacity=".24" fill="#000"/><path d="M53.1777,38.4115 C53.8637,40.9295 56.1497,42.6765 58.7587,42.6765 L79.0947,42.6765 C81.7037,42.6765 83.9897,40.9295 84.6757,38.4115 L87.5327,27.9145 C81.6127,26.2575 75.3767,25.3525 68.9267,25.3525 C62.4767,25.3525 56.2417,26.2575 50.3207,27.9145 L53.1777,38.4115 Z" id="Fill-8" fill-opacity=".24" fill="#000"/><path d="M76.6093,36.7353 L61.2443,36.7353 C59.2723,36.7353 57.5453,35.4153 57.0263,33.5133 L49.4063,5.5183 C48.6503,2.7383 50.7423,0.0003 53.6233,0.0003 L84.2303,0.0003 C87.1113,0.0003 89.2043,2.7383 88.4473,5.5183 L80.8273,33.5133 C80.3083,35.4153 78.5813,36.7353 76.6093,36.7353" id="Fill-10" fill="#E29817"/></g></g></svg>