<svg viewBox="45.5 25.200000000000017 172.19999999999996 182" xmlns="http://www.w3.org/2000/svg" xmlns:xlink="http://www.w3.org/1999/xlink" xmlns:blush="http://design.blush" overflow="visible" width="172.19999999999996px" height="182px">
    <g id="Hairstyle/Jedi" stroke="none" stroke-width="1" fill="none" fill-rule="evenodd">
        <g id="Facial-Hair" transform="translate(49.000000, 72.000000)"></g>
        <g id="Accessory" transform="translate(62.000000, 85.000000)"></g>
        <g id="Group-10" transform="translate(45.100000, 25.500000)">
            <path d="M32.3295,132.4725 C32.3295,132.4725 84.6375,81.7315 146.7525,122.4155 C146.7525,122.4155 171.7465,103.5295 157.3015,85.0005 C142.8565,66.4725 49.0385,58.1205 49.0385,58.1205 L11.2605,100.9845 C11.2605,100.9845 13.3055,117.1835 32.3295,132.4725" id="Fill-1" fill-opacity=".24" fill="#000" />
            <path d="M147.4413,181.7171 C143.4353,176.4381 135.6783,165.0601 136.2183,160.1941 C136.9453,153.6551 170.7273,123.5061 170.7273,96.2621 C170.7273,73.0141 122.4163,0.0001 85.3643,0.0001 C48.3123,0.0001 0.0003,73.0141 0.0003,96.2621 C0.0003,123.5061 33.7823,153.6551 34.5083,160.1941 C35.2353,166.7331 24.7913,181.7171 24.7913,181.7171 C24.7793,181.7281 38.1183,181.724231 46.9553,181.7201 C51.1803,181.7191 54.6033,178.2931 54.6033,174.0681 L54.6033,150.2421 C41.4913,140.9831 32.5303,126.2361 31.0763,109.3401 C25.6443,108.5271 21.4053,104.0741 20.9163,98.5431 C33.7693,86.1371 58.4843,77.7361 86.8773,77.7361 C115.2553,77.7361 139.9603,86.1301 152.8183,98.5251 C152.3373,104.0641 148.0943,108.5261 142.6583,109.3401 C141.2033,126.2361 132.2433,140.9831 119.1303,150.2421 L119.1303,174.0641 C119.1303,178.2901 122.5563,181.7171 126.7833,181.7171 L147.4413,181.7171 Z" id="Fabric-Color" fill="#282828" />
            <path d="M31.076,109.3397 C25.644,108.5267 21.405,104.0737 20.916,98.5437 C20.916,98.5437 16.437,102.4227 16.437,110.9737 C16.437,127.2367 46.95,151.2947 46.95,172.5447 L46.95,181.7167 C51.177,181.7167 54.603,178.2907 54.603,174.0637 L54.603,173.7117 C57.643,173.2937 62.857,173.4727 62.857,173.4727 L62.857,155.0837 C58.739,153.0837 54.603,150.2427 54.603,150.2427 C41.491,140.9827 32.53,126.2357 31.076,109.3397" id="Fill-6" fill="#070707" />
            <path d="M152.8231,98.5433 C152.3341,104.0743 148.0941,108.5263 142.6631,109.3393 C141.2091,126.2353 132.2481,140.9823 119.1351,150.2423 C119.1351,150.2423 115.0001,153.0833 110.8831,155.0833 L110.8831,173.4733 C110.8831,173.4733 116.0951,173.2933 119.1351,173.7113 L119.1351,174.0643 C119.1351,178.2903 122.5621,181.7173 126.7891,181.7173 L126.7891,172.5443 C126.7891,151.2943 157.3021,127.2363 157.3021,110.9733 C157.3021,102.4233 152.8231,98.5433 152.8231,98.5433" id="Fill-8" fill="#070707" />
        </g>
    </g>
</svg>