<?xml version="1.0" encoding="utf-8"?>
<svg width="264px" height="280px" viewbox="0 0 264 280" version="1.1" xmlns:xlink="http://www.w3.org/1999/xlink" xmlns="http://www.w3.org/2000/svg">
  <defs>
    <path d="M120 240C186.274 240 240 186.274 240 120C240 53.7258 186.274 0 120 0C53.7258 0 0 53.7258 0 120C0 186.274 53.7258 240 120 240Z" id="path_1" />
    <path d="M264 0L0 0L0 160L12 160C12 226.274 65.7258 280 132 280C198.274 280 252 226.274 252 160L264 160L264 0Z" transform="matrix(1 0 0 1 -3.1974423E-14 1.4210855E-14)" id="circle_path" />
    <path d="M44 55.999Q44 54.6243 44.0675 53.2513Q44.1349 51.8782 44.2696 50.5101Q44.4044 49.1421 44.6061 47.7822Q44.8078 46.4224 45.076 45.0741Q45.3442 43.7258 45.6782 42.3923Q46.0122 41.0588 46.4113 39.7433Q46.8103 38.4278 47.2735 37.1335Q47.7366 35.8392 48.2627 34.5691Q48.7887 33.2991 49.3765 32.0563Q49.9643 30.8136 50.6123 29.6013Q51.2603 28.3889 51.9671 27.2098Q52.6738 26.0306 53.4375 24.8876Q54.2013 23.7446 55.0202 22.6404Q55.8391 21.5363 56.7112 20.4736Q57.5833 19.411 58.5065 18.3924Q59.4297 17.3738 60.4017 16.4017Q61.3738 15.4297 62.3924 14.5065Q63.4109 13.5833 64.4736 12.7112Q65.5363 11.8391 66.6404 11.0202Q67.7446 10.2013 68.8876 9.43753Q70.0306 8.67379 71.2098 7.96705Q72.3889 7.26032 73.6012 6.61229Q74.8136 5.96426 76.0563 5.3765Q77.299 4.78874 78.5691 4.26267Q79.8391 3.73659 81.1335 3.27347Q82.4278 2.81035 83.7433 2.4113Q85.0588 2.01224 86.3923 1.67822Q87.7258 1.3442 89.0741 1.076Q90.4224 0.807815 91.7822 0.606104Q93.1421 0.404394 94.5101 0.26965Q95.8782 0.134906 97.2513 0.0674532Q98.6243 0 99.999 0L100.001 0Q101.376 0 102.749 0.0674532Q104.122 0.134906 105.49 0.26965Q106.858 0.404394 108.218 0.606104Q109.578 0.807815 110.926 1.076Q112.274 1.3442 113.608 1.67822Q114.941 2.01224 116.257 2.4113Q117.572 2.81035 118.866 3.27347Q120.161 3.73659 121.431 4.26267Q122.701 4.78874 123.944 5.3765Q125.186 5.96426 126.399 6.61229Q127.611 7.26032 128.79 7.96705Q129.969 8.67379 131.112 9.43753Q132.255 10.2013 133.36 11.0202Q134.464 11.8391 135.526 12.7112Q136.589 13.5833 137.608 14.5065Q138.626 15.4297 139.598 16.4017Q140.57 17.3738 141.494 18.3924Q142.417 19.411 143.289 20.4736Q144.161 21.5363 144.98 22.6404Q145.799 23.7446 146.562 24.8876Q147.326 26.0306 148.033 27.2098Q148.74 28.3889 149.388 29.6013Q150.036 30.8136 150.623 32.0563Q151.211 33.2991 151.737 34.5691Q152.263 35.8392 152.727 37.1335Q153.19 38.4278 153.589 39.7433Q153.988 41.0588 154.322 42.3923Q154.656 43.7258 154.924 45.0741Q155.192 46.4224 155.394 47.7822Q155.596 49.1421 155.73 50.5101Q155.865 51.8782 155.933 53.2513Q156 54.6243 156 55.999L156 62.1677Q156.259 62.2115 156.517 62.2667Q156.774 62.3219 157.029 62.3883Q157.283 62.4547 157.535 62.5322Q157.786 62.6097 158.034 62.6982Q158.282 62.7866 158.526 62.8859Q158.77 62.9851 159.009 63.0949Q159.248 63.2048 159.482 63.325Q159.716 63.4452 159.945 63.5755Q160.173 63.7059 160.396 63.8461Q160.619 63.9864 160.835 64.1363Q161.051 64.2861 161.261 64.4454Q161.47 64.6046 161.673 64.7728Q161.875 64.9411 162.07 65.118Q162.265 65.295 162.451 65.4803Q162.638 65.6657 162.817 65.859Q162.995 66.0524 163.165 66.2533Q163.335 66.4543 163.496 66.6626Q163.657 66.8708 163.808 67.0859Q163.96 67.301 164.102 67.5225Q164.244 67.7441 164.376 67.9716Q164.508 68.1992 164.631 68.4323Q164.753 68.6654 164.864 68.9037Q164.976 69.142 165.077 69.3849Q165.179 69.6278 165.269 69.8749Q165.359 70.1221 165.439 70.3729Q165.519 70.6238 165.587 70.8779Q165.655 71.132 165.713 71.3888Q165.77 71.6457 165.816 71.9048Q165.862 72.164 165.896 72.4248Q165.931 72.6857 165.954 72.9479Q165.977 73.21 165.988 73.4729Q166 73.7358 166 73.999L166 88.001Q166 88.2691 165.988 88.5368Q165.976 88.8046 165.952 89.0716Q165.928 89.3386 165.892 89.6043Q165.857 89.8699 165.809 90.1337Q165.761 90.3975 165.702 90.6589Q165.643 90.9203 165.572 91.1788Q165.501 91.4373 165.418 91.6923Q165.336 91.9474 165.242 92.1985Q165.148 92.4496 165.043 92.6963Q164.938 92.943 164.822 93.1847Q164.707 93.4265 164.58 93.6628Q164.454 93.8992 164.317 94.1296Q164.18 94.3601 164.033 94.5842Q163.886 94.8083 163.729 95.0256Q163.572 95.243 163.405 95.4531Q163.239 95.6632 163.063 95.8656Q162.888 96.0681 162.703 96.2625Q162.518 96.4569 162.325 96.6428Q162.132 96.8288 161.931 97.006Q161.73 97.1831 161.521 97.3511Q161.312 97.5191 161.096 97.6776Q160.88 97.8361 160.657 97.9848Q160.434 98.1335 160.204 98.2721Q159.975 98.4107 159.739 98.5388Q159.504 98.667 159.263 98.7846Q159.022 98.9022 158.776 99.0088Q158.53 99.1155 158.28 99.2111Q158.03 99.3067 157.775 99.391Q157.521 99.4753 157.263 99.5482Q157.005 99.6211 156.744 99.6823Q156.483 99.7436 156.219 99.7932Q155.956 99.8427 155.69 99.8805Q155.597 100.77 155.474 101.657Q155.352 102.544 155.201 103.426Q155.051 104.308 154.872 105.185Q154.693 106.062 154.486 106.932Q154.28 107.803 154.045 108.667Q153.811 109.531 153.549 110.386Q153.287 111.242 152.998 112.089Q152.709 112.936 152.393 113.773Q152.077 114.611 151.735 115.437Q151.392 116.264 151.023 117.079Q150.654 117.895 150.26 118.698Q149.865 119.501 149.445 120.291Q149.025 121.082 148.58 121.858Q148.134 122.634 147.665 123.396Q147.195 124.158 146.701 124.904Q146.207 125.65 145.69 126.381Q145.172 127.111 144.632 127.824Q144.091 128.537 143.528 129.233Q142.965 129.928 142.38 130.606Q141.795 131.283 141.189 131.941Q140.582 132.599 139.955 133.238Q139.328 133.877 138.681 134.495Q138.034 135.113 137.367 135.71Q136.701 136.307 136.016 136.883Q135.33 137.458 134.627 138.012Q133.924 138.565 133.203 139.096Q132.482 139.626 131.745 140.133Q131.008 140.641 130.255 141.124Q129.502 141.608 128.733 142.067Q127.965 142.526 127.183 142.961Q126.4 143.395 125.605 143.804Q124.809 144.213 124 144.597L124 163L159.501 163Q160.495 163 161.488 163.049Q162.481 163.098 163.471 163.195Q164.46 163.292 165.443 163.438Q166.427 163.584 167.402 163.778Q168.377 163.972 169.341 164.214Q170.306 164.455 171.257 164.744Q172.209 165.032 173.145 165.367Q174.081 165.702 174.999 166.083Q175.918 166.463 176.817 166.888Q177.715 167.313 178.592 167.782Q179.469 168.251 180.322 168.762Q181.174 169.273 182.001 169.825Q182.828 170.378 183.626 170.97Q184.425 171.562 185.193 172.193Q185.962 172.824 186.698 173.491Q187.435 174.159 188.138 174.862Q188.841 175.565 189.509 176.301Q190.176 177.038 190.807 177.807Q191.438 178.575 192.03 179.374Q192.622 180.172 193.175 180.999Q193.727 181.826 194.238 182.678Q194.749 183.531 195.218 184.408Q195.687 185.285 196.112 186.183Q196.537 187.082 196.917 188.001Q197.298 188.919 197.633 189.855Q197.968 190.791 198.256 191.743Q198.545 192.694 198.786 193.659Q199.028 194.623 199.222 195.598Q199.416 196.573 199.562 197.557Q199.708 198.54 199.805 199.529Q199.902 200.519 199.951 201.512Q200 202.505 200 203.499L200 244L0 244L0 203.499Q0 202.505 0.0487828 201.512Q0.0975656 200.519 0.195014 199.529Q0.292462 198.54 0.43834 197.557Q0.584219 196.573 0.778177 195.598Q0.972135 194.623 1.2137 193.659Q1.45527 192.694 1.74387 191.743Q2.03247 190.791 2.36741 189.855Q2.70234 188.919 3.0828 188.001Q3.46326 187.082 3.88834 186.183Q4.31341 185.285 4.78207 184.408Q5.25073 183.531 5.76185 182.678Q6.27297 181.826 6.82531 180.999Q7.37766 180.172 7.9699 179.374Q8.56214 178.575 9.19285 177.807Q9.82356 177.038 10.4912 176.302Q11.1589 175.565 11.8619 174.862Q12.5649 174.159 13.3015 173.491Q14.0382 172.824 14.8067 172.193Q15.5752 171.562 16.3738 170.97Q17.1723 170.378 17.999 169.825Q18.8256 169.273 19.6784 168.762Q20.5311 168.251 21.4079 167.782Q22.2847 167.313 23.1834 166.888Q24.0822 166.463 25.0007 166.083Q25.9192 165.702 26.8553 165.367Q27.7914 165.032 28.7428 164.744Q29.6941 164.455 30.6585 164.214Q31.6229 163.972 32.598 163.778Q33.5731 163.584 34.5566 163.438Q35.54 163.292 36.5294 163.195Q37.5188 163.098 38.5118 163.049Q39.5048 163 40.499 163L76 163L76 144.597Q75.1914 144.213 74.3955 143.804Q73.5996 143.395 72.8172 142.961Q72.0347 142.526 71.2666 142.067Q70.4984 141.608 69.7453 141.124Q68.9923 140.641 68.255 140.133Q67.5177 139.626 66.7971 139.096Q66.0764 138.565 65.3731 138.012Q64.6697 137.458 63.9844 136.883Q63.2991 136.307 62.6326 135.71Q61.966 135.113 61.3189 134.495Q60.6717 133.877 60.0447 133.238Q59.4176 132.599 58.8113 131.941Q58.205 131.283 57.62 130.606Q57.035 129.928 56.4719 129.233Q55.9089 128.537 55.3684 127.824Q54.8278 127.111 54.3104 126.381Q53.7929 125.65 53.299 124.904Q52.8052 124.158 52.3354 123.396Q51.8656 122.634 51.4204 121.858Q50.9752 121.082 50.5551 120.291Q50.1349 119.501 49.7402 118.698Q49.3456 117.895 48.9767 117.079Q48.6079 116.264 48.2653 115.437Q47.9228 114.611 47.6068 113.773Q47.2908 112.936 47.0017 112.089Q46.7127 111.242 46.4508 110.386Q46.1889 109.531 45.9546 108.667Q45.7202 107.803 45.5135 106.932Q45.3069 106.062 45.1281 105.185Q44.9494 104.308 44.7988 103.426Q44.6482 102.544 44.5258 101.657Q44.4035 100.77 44.3095 99.8805Q44.0441 99.8427 43.7807 99.7932Q43.5172 99.7436 43.2563 99.6823Q42.9953 99.6211 42.7374 99.5482Q42.4794 99.4753 42.2249 99.391Q41.9705 99.3067 41.7201 99.2111Q41.4696 99.1155 41.2237 99.0088Q40.9778 98.9022 40.7369 98.7846Q40.496 98.667 40.2606 98.5388Q40.0251 98.4107 39.7957 98.2721Q39.5662 98.1335 39.3432 97.9848Q39.1202 97.8361 38.904 97.6776Q38.6878 97.5191 38.4789 97.3511Q38.27 97.1831 38.0689 97.006Q37.8677 96.8288 37.6746 96.6428Q37.4816 96.4569 37.297 96.2625Q37.1125 96.0681 36.9368 95.8656Q36.7611 95.6632 36.5946 95.4531Q36.4281 95.243 36.2712 95.0256Q36.1143 94.8083 35.9672 94.5842Q35.8201 94.3601 35.6832 94.1296Q35.5463 93.8992 35.4198 93.6628Q35.2933 93.4265 35.1775 93.1847Q35.0617 92.943 34.9568 92.6963Q34.8519 92.4496 34.7581 92.1985Q34.6644 91.9474 34.5819 91.6923Q34.4994 91.4373 34.4284 91.1788Q34.3575 90.9203 34.2981 90.6589Q34.2387 90.3975 34.1911 90.1337Q34.1434 89.8699 34.1076 89.6043Q34.0718 89.3386 34.0479 89.0716Q34.0239 88.8046 34.012 88.5368Q34 88.2691 34 88.001L34 73.999Q34 73.7358 34.0115 73.4729Q34.0231 73.21 34.0461 72.9479Q34.0692 72.6857 34.1037 72.4248Q34.1382 72.164 34.1842 71.9048Q34.2301 71.6457 34.2873 71.3889Q34.3446 71.132 34.413 70.8779Q34.4815 70.6238 34.561 70.3729Q34.6405 70.1221 34.731 69.8749Q34.8214 69.6278 34.9226 69.3849Q35.0238 69.142 35.1356 68.9037Q35.2473 68.6654 35.3694 68.4323Q35.4915 68.1992 35.6237 67.9716Q35.7559 67.7441 35.8979 67.5226Q36.04 67.301 36.1916 67.0859Q36.3432 66.8708 36.5041 66.6626Q36.665 66.4543 36.8349 66.2534Q37.0048 66.0524 37.1833 65.859Q37.3618 65.6657 37.5486 65.4804Q37.7355 65.295 37.9303 65.1181Q38.125 64.9411 38.3274 64.7728Q38.5297 64.6046 38.7393 64.4454Q38.9488 64.2861 39.1651 64.1363Q39.3814 63.9864 39.6041 63.8461Q39.8267 63.7059 40.0554 63.5755Q40.284 63.4452 40.5181 63.325Q40.7522 63.2048 40.9913 63.0949Q41.2305 62.9851 41.4742 62.8859Q41.7179 62.7866 41.9658 62.6982Q42.2136 62.6097 42.4651 62.5322Q42.7166 62.4547 42.9712 62.3883Q43.2259 62.3219 43.4832 62.2667Q43.7405 62.2115 44 62.1677L44 55.999Z" id="path_3" />
    <path d="M150 4.34763C150 20.629 127.838 33.8277 100.5 33.8277C73.1619 33.8277 51 20.629 51 4.34763C51 1.82944 51.5302 -0.615005 52.5276 -2.94828L40.4731 -2.94828Q39.4796 -2.94828 38.4872 -2.89952Q37.4948 -2.85077 36.5061 -2.75339Q35.5173 -2.656 34.5345 -2.51022Q33.5517 -2.36443 32.5772 -2.1706Q31.6027 -1.97676 30.639 -1.73535Q29.6752 -1.49393 28.7244 -1.20552Q27.7736 -0.917102 26.8381 -0.582381Q25.9027 -0.247661 24.9847 0.132558Q24.0668 0.512776 23.1686 0.937578Q22.2705 1.36238 21.3942 1.83074Q20.518 2.2991 19.6658 2.80989Q18.8136 3.32068 17.9875 3.87268Q17.1614 4.42467 16.3633 5.01653Q15.5653 5.6084 14.7972 6.2387Q14.0292 6.86901 13.293 7.53624Q12.5569 8.20348 11.8543 8.90603Q11.1518 9.60858 10.4845 10.3448Q9.81729 11.0809 9.18698 11.849Q8.55667 12.617 7.96481 13.415Q7.37294 14.2131 6.82095 15.0392Q6.26896 15.8653 5.75817 16.7175Q5.24738 17.5697 4.77902 18.446Q4.31066 19.3222 3.88585 20.2204Q3.46105 21.1185 3.08083 22.0365Q2.70061 22.9544 2.36589 23.8899Q2.03117 24.8253 1.74276 25.7761Q1.45434 26.7269 1.21293 27.6907Q0.971514 28.6545 0.77768 29.6289Q0.583846 30.6034 0.43806 31.5862Q0.292275 32.569 0.194889 33.5578Q0.0975033 34.5466 0.0487517 35.5389Q0 36.5313 0 37.5249L0 78L200 78L200 37.5249Q200 36.5313 199.951 35.5389Q199.902 34.5466 199.805 33.5578Q199.708 32.569 199.562 31.5862Q199.416 30.6034 199.222 29.6289Q199.028 28.6545 198.787 27.6907Q198.546 26.7269 198.257 25.7761Q197.969 24.8253 197.634 23.8899Q197.299 22.9544 196.919 22.0365Q196.539 21.1185 196.114 20.2204Q195.689 19.3222 195.221 18.446Q194.753 17.5697 194.242 16.7175Q193.731 15.8653 193.179 15.0392Q192.627 14.2131 192.035 13.415Q191.443 12.617 190.813 11.849Q190.183 11.0809 189.515 10.3448Q188.848 9.60858 188.146 8.90603Q187.443 8.20348 186.707 7.53624Q185.971 6.86901 185.203 6.2387Q184.435 5.6084 183.637 5.01653Q182.839 4.42467 182.013 3.87268Q181.186 3.32068 180.334 2.80989Q179.482 2.2991 178.606 1.83074Q177.73 1.36238 176.831 0.937578Q175.933 0.512776 175.015 0.132558Q174.097 -0.247661 173.162 -0.582381Q172.226 -0.917102 171.276 -1.20552Q170.325 -1.49393 169.361 -1.73535Q168.397 -1.97676 167.423 -2.1706Q166.448 -2.36443 165.465 -2.51022Q164.483 -2.656 163.494 -2.75339Q162.505 -2.85077 161.513 -2.89952Q160.52 -2.94828 159.527 -2.94828L148.472 -2.94828C149.47 -0.615005 150 1.82944 150 4.34763Z" transform="translate(32 32)" id="path_4" />
    <path d="M0 0L264 0L264 280L0 280L0 0Z" id="path_5" />
    <path d="M98 181L98 162.611C115.531 154.283 128.048 137.115 129.791 116.867C135.569 116.002 140 111.019 140 105L140 92C140 87.3575 137.364 83.3307 133.506 81.3351C132.73 81.0525 131.955 80.7493 131.18 80.4259C130.794 80.3201 130.4 80.2331 130 80.1659L130 79.917C117.224 74.2337 104.878 63.0705 96.1104 47.8848C93.1753 42.801 90.8311 37.5951 89.0661 32.397C80.4314 42.9409 67.7445 53.6024 52.3415 62.4953C42.7776 68.0171 33.1468 72.291 24 75.266L24 137.246C29.6015 148.318 38.7726 157.277 50 162.611L50 181L46 181C38.3272 181 30.9347 182.2 24 184.423L24 230C24 244.106 13.5692 255.776 0 257.716L0 74C0 68.8914 0.51767 63.9036 1.50342 59.0864C8.40364 25.3659 38.2396 0 74 0C114.869 0 148 33.1309 148 74L148 197.608C135.525 187.237 119.491 181 102 181L98 181Z" id="path_6" />
    <clipPath id="mask_1">
      <use xlink:href="#path_1" />
    </clipPath>
    <clipPath id="circle_mask">
      <use xlink:href="#circle_path" />
    </clipPath>
    <clipPath id="mask_3">
      <use xlink:href="#path_3" />
    </clipPath>
    <clipPath id="mask_4">
      <use xlink:href="#path_4" />
    </clipPath>
    <clipPath id="mask_5">
      <use xlink:href="#path_5" />
    </clipPath>
    <clipPath id="mask_6">
      <use xlink:href="#path_6" />
    </clipPath>
  </defs>
  <g id="AvataaarCircle">
    <g id="Circle" transform="translate(12 40)">
      <path d="M120 240C186.274 240 240 186.274 240 120C240 53.7258 186.274 0 120 0C53.7258 0 0 53.7258 0 120C0 186.274 53.7258 240 120 240Z" id="Circle-Background" fill="#E6E6E6" fill-rule="evenodd" stroke="none" />
      <g clip-path="url(#mask_1)">
        <g id="ðŸ–-Circle-Color">
          <path d="M0 0L240 0L240 240L0 240L0 0Z" id="ðŸ–Color" fill="#65C9FF" fill-rule="evenodd" stroke="none" />
        </g>
      </g>
    </g>
    <path d="M264 0L0 0L0 160L12 160C12 226.274 65.7258 280 132 280C198.274 280 252 226.274 252 160L264 160L264 0Z" transform="matrix(1 0 0 1 -3.1974423E-14 1.4210855E-14)" id="Mask" fill="none" fill-rule="evenodd" stroke="none" />
    <g clip-path="url(#circle_mask)">
      <g id="Avataaar">
        <g id="Body" transform="translate(32 36)">
          <path d="M44 55.999Q44 54.6243 44.0675 53.2513Q44.1349 51.8782 44.2696 50.5101Q44.4044 49.1421 44.6061 47.7822Q44.8078 46.4224 45.076 45.0741Q45.3442 43.7258 45.6782 42.3923Q46.0122 41.0588 46.4113 39.7433Q46.8103 38.4278 47.2735 37.1335Q47.7366 35.8392 48.2627 34.5691Q48.7887 33.2991 49.3765 32.0563Q49.9643 30.8136 50.6123 29.6013Q51.2603 28.3889 51.9671 27.2098Q52.6738 26.0306 53.4375 24.8876Q54.2013 23.7446 55.0202 22.6404Q55.8391 21.5363 56.7112 20.4736Q57.5833 19.411 58.5065 18.3924Q59.4297 17.3738 60.4017 16.4017Q61.3738 15.4297 62.3924 14.5065Q63.4109 13.5833 64.4736 12.7112Q65.5363 11.8391 66.6404 11.0202Q67.7446 10.2013 68.8876 9.43753Q70.0306 8.67379 71.2098 7.96705Q72.3889 7.26032 73.6012 6.61229Q74.8136 5.96426 76.0563 5.3765Q77.299 4.78874 78.5691 4.26267Q79.8391 3.73659 81.1335 3.27347Q82.4278 2.81035 83.7433 2.4113Q85.0588 2.01224 86.3923 1.67822Q87.7258 1.3442 89.0741 1.076Q90.4224 0.807815 91.7822 0.606104Q93.1421 0.404394 94.5101 0.26965Q95.8782 0.134906 97.2513 0.0674532Q98.6243 0 99.999 0L100.001 0Q101.376 0 102.749 0.0674532Q104.122 0.134906 105.49 0.26965Q106.858 0.404394 108.218 0.606104Q109.578 0.807815 110.926 1.076Q112.274 1.3442 113.608 1.67822Q114.941 2.01224 116.257 2.4113Q117.572 2.81035 118.866 3.27347Q120.161 3.73659 121.431 4.26267Q122.701 4.78874 123.944 5.3765Q125.186 5.96426 126.399 6.61229Q127.611 7.26032 128.79 7.96705Q129.969 8.67379 131.112 9.43753Q132.255 10.2013 133.36 11.0202Q134.464 11.8391 135.526 12.7112Q136.589 13.5833 137.608 14.5065Q138.626 15.4297 139.598 16.4017Q140.57 17.3738 141.494 18.3924Q142.417 19.411 143.289 20.4736Q144.161 21.5363 144.98 22.6404Q145.799 23.7446 146.562 24.8876Q147.326 26.0306 148.033 27.2098Q148.74 28.3889 149.388 29.6013Q150.036 30.8136 150.623 32.0563Q151.211 33.2991 151.737 34.5691Q152.263 35.8392 152.727 37.1335Q153.19 38.4278 153.589 39.7433Q153.988 41.0588 154.322 42.3923Q154.656 43.7258 154.924 45.0741Q155.192 46.4224 155.394 47.7822Q155.596 49.1421 155.73 50.5101Q155.865 51.8782 155.933 53.2513Q156 54.6243 156 55.999L156 62.1677Q156.259 62.2115 156.517 62.2667Q156.774 62.3219 157.029 62.3883Q157.283 62.4547 157.535 62.5322Q157.786 62.6097 158.034 62.6982Q158.282 62.7866 158.526 62.8859Q158.77 62.9851 159.009 63.0949Q159.248 63.2048 159.482 63.325Q159.716 63.4452 159.945 63.5755Q160.173 63.7059 160.396 63.8461Q160.619 63.9864 160.835 64.1363Q161.051 64.2861 161.261 64.4454Q161.47 64.6046 161.673 64.7728Q161.875 64.9411 162.07 65.118Q162.265 65.295 162.451 65.4803Q162.638 65.6657 162.817 65.859Q162.995 66.0524 163.165 66.2533Q163.335 66.4543 163.496 66.6626Q163.657 66.8708 163.808 67.0859Q163.96 67.301 164.102 67.5225Q164.244 67.7441 164.376 67.9716Q164.508 68.1992 164.631 68.4323Q164.753 68.6654 164.864 68.9037Q164.976 69.142 165.077 69.3849Q165.179 69.6278 165.269 69.8749Q165.359 70.1221 165.439 70.3729Q165.519 70.6238 165.587 70.8779Q165.655 71.132 165.713 71.3888Q165.77 71.6457 165.816 71.9048Q165.862 72.164 165.896 72.4248Q165.931 72.6857 165.954 72.9479Q165.977 73.21 165.988 73.4729Q166 73.7358 166 73.999L166 88.001Q166 88.2691 165.988 88.5368Q165.976 88.8046 165.952 89.0716Q165.928 89.3386 165.892 89.6043Q165.857 89.8699 165.809 90.1337Q165.761 90.3975 165.702 90.6589Q165.643 90.9203 165.572 91.1788Q165.501 91.4373 165.418 91.6923Q165.336 91.9474 165.242 92.1985Q165.148 92.4496 165.043 92.6963Q164.938 92.943 164.822 93.1847Q164.707 93.4265 164.58 93.6628Q164.454 93.8992 164.317 94.1296Q164.18 94.3601 164.033 94.5842Q163.886 94.8083 163.729 95.0256Q163.572 95.243 163.405 95.4531Q163.239 95.6632 163.063 95.8656Q162.888 96.0681 162.703 96.2625Q162.518 96.4569 162.325 96.6428Q162.132 96.8288 161.931 97.006Q161.73 97.1831 161.521 97.3511Q161.312 97.5191 161.096 97.6776Q160.88 97.8361 160.657 97.9848Q160.434 98.1335 160.204 98.2721Q159.975 98.4107 159.739 98.5388Q159.504 98.667 159.263 98.7846Q159.022 98.9022 158.776 99.0088Q158.53 99.1155 158.28 99.2111Q158.03 99.3067 157.775 99.391Q157.521 99.4753 157.263 99.5482Q157.005 99.6211 156.744 99.6823Q156.483 99.7436 156.219 99.7932Q155.956 99.8427 155.69 99.8805Q155.597 100.77 155.474 101.657Q155.352 102.544 155.201 103.426Q155.051 104.308 154.872 105.185Q154.693 106.062 154.486 106.932Q154.28 107.803 154.045 108.667Q153.811 109.531 153.549 110.386Q153.287 111.242 152.998 112.089Q152.709 112.936 152.393 113.773Q152.077 114.611 151.735 115.437Q151.392 116.264 151.023 117.079Q150.654 117.895 150.26 118.698Q149.865 119.501 149.445 120.291Q149.025 121.082 148.58 121.858Q148.134 122.634 147.665 123.396Q147.195 124.158 146.701 124.904Q146.207 125.65 145.69 126.381Q145.172 127.111 144.632 127.824Q144.091 128.537 143.528 129.233Q142.965 129.928 142.38 130.606Q141.795 131.283 141.189 131.941Q140.582 132.599 139.955 133.238Q139.328 133.877 138.681 134.495Q138.034 135.113 137.367 135.71Q136.701 136.307 136.016 136.883Q135.33 137.458 134.627 138.012Q133.924 138.565 133.203 139.096Q132.482 139.626 131.745 140.133Q131.008 140.641 130.255 141.124Q129.502 141.608 128.733 142.067Q127.965 142.526 127.183 142.961Q126.4 143.395 125.605 143.804Q124.809 144.213 124 144.597L124 163L159.501 163Q160.495 163 161.488 163.049Q162.481 163.098 163.471 163.195Q164.46 163.292 165.443 163.438Q166.427 163.584 167.402 163.778Q168.377 163.972 169.341 164.214Q170.306 164.455 171.257 164.744Q172.209 165.032 173.145 165.367Q174.081 165.702 174.999 166.083Q175.918 166.463 176.817 166.888Q177.715 167.313 178.592 167.782Q179.469 168.251 180.322 168.762Q181.174 169.273 182.001 169.825Q182.828 170.378 183.626 170.97Q184.425 171.562 185.193 172.193Q185.962 172.824 186.698 173.491Q187.435 174.159 188.138 174.862Q188.841 175.565 189.509 176.301Q190.176 177.038 190.807 177.807Q191.438 178.575 192.03 179.374Q192.622 180.172 193.175 180.999Q193.727 181.826 194.238 182.678Q194.749 183.531 195.218 184.408Q195.687 185.285 196.112 186.183Q196.537 187.082 196.917 188.001Q197.298 188.919 197.633 189.855Q197.968 190.791 198.256 191.743Q198.545 192.694 198.786 193.659Q199.028 194.623 199.222 195.598Q199.416 196.573 199.562 197.557Q199.708 198.54 199.805 199.529Q199.902 200.519 199.951 201.512Q200 202.505 200 203.499L200 244L0 244L0 203.499Q0 202.505 0.0487828 201.512Q0.0975656 200.519 0.195014 199.529Q0.292462 198.54 0.43834 197.557Q0.584219 196.573 0.778177 195.598Q0.972135 194.623 1.2137 193.659Q1.45527 192.694 1.74387 191.743Q2.03247 190.791 2.36741 189.855Q2.70234 188.919 3.0828 188.001Q3.46326 187.082 3.88834 186.183Q4.31341 185.285 4.78207 184.408Q5.25073 183.531 5.76185 182.678Q6.27297 181.826 6.82531 180.999Q7.37766 180.172 7.9699 179.374Q8.56214 178.575 9.19285 177.807Q9.82356 177.038 10.4912 176.302Q11.1589 175.565 11.8619 174.862Q12.5649 174.159 13.3015 173.491Q14.0382 172.824 14.8067 172.193Q15.5752 171.562 16.3738 170.97Q17.1723 170.378 17.999 169.825Q18.8256 169.273 19.6784 168.762Q20.5311 168.251 21.4079 167.782Q22.2847 167.313 23.1834 166.888Q24.0822 166.463 25.0007 166.083Q25.9192 165.702 26.8553 165.367Q27.7914 165.032 28.7428 164.744Q29.6941 164.455 30.6585 164.214Q31.6229 163.972 32.598 163.778Q33.5731 163.584 34.5566 163.438Q35.54 163.292 36.5294 163.195Q37.5188 163.098 38.5118 163.049Q39.5048 163 40.499 163L76 163L76 144.597Q75.1914 144.213 74.3955 143.804Q73.5996 143.395 72.8172 142.961Q72.0347 142.526 71.2666 142.067Q70.4984 141.608 69.7453 141.124Q68.9923 140.641 68.255 140.133Q67.5177 139.626 66.7971 139.096Q66.0764 138.565 65.3731 138.012Q64.6697 137.458 63.9844 136.883Q63.2991 136.307 62.6326 135.71Q61.966 135.113 61.3189 134.495Q60.6717 133.877 60.0447 133.238Q59.4176 132.599 58.8113 131.941Q58.205 131.283 57.62 130.606Q57.035 129.928 56.4719 129.233Q55.9089 128.537 55.3684 127.824Q54.8278 127.111 54.3104 126.381Q53.7929 125.65 53.299 124.904Q52.8052 124.158 52.3354 123.396Q51.8656 122.634 51.4204 121.858Q50.9752 121.082 50.5551 120.291Q50.1349 119.501 49.7402 118.698Q49.3456 117.895 48.9767 117.079Q48.6079 116.264 48.2653 115.437Q47.9228 114.611 47.6068 113.773Q47.2908 112.936 47.0017 112.089Q46.7127 111.242 46.4508 110.386Q46.1889 109.531 45.9546 108.667Q45.7202 107.803 45.5135 106.932Q45.3069 106.062 45.1281 105.185Q44.9494 104.308 44.7988 103.426Q44.6482 102.544 44.5258 101.657Q44.4035 100.77 44.3095 99.8805Q44.0441 99.8427 43.7807 99.7932Q43.5172 99.7436 43.2563 99.6823Q42.9953 99.6211 42.7374 99.5482Q42.4794 99.4753 42.2249 99.391Q41.9705 99.3067 41.7201 99.2111Q41.4696 99.1155 41.2237 99.0088Q40.9778 98.9022 40.7369 98.7846Q40.496 98.667 40.2606 98.5388Q40.0251 98.4107 39.7957 98.2721Q39.5662 98.1335 39.3432 97.9848Q39.1202 97.8361 38.904 97.6776Q38.6878 97.5191 38.4789 97.3511Q38.27 97.1831 38.0689 97.006Q37.8677 96.8288 37.6746 96.6428Q37.4816 96.4569 37.297 96.2625Q37.1125 96.0681 36.9368 95.8656Q36.7611 95.6632 36.5946 95.4531Q36.4281 95.243 36.2712 95.0256Q36.1143 94.8083 35.9672 94.5842Q35.8201 94.3601 35.6832 94.1296Q35.5463 93.8992 35.4198 93.6628Q35.2933 93.4265 35.1775 93.1847Q35.0617 92.943 34.9568 92.6963Q34.8519 92.4496 34.7581 92.1985Q34.6644 91.9474 34.5819 91.6923Q34.4994 91.4373 34.4284 91.1788Q34.3575 90.9203 34.2981 90.6589Q34.2387 90.3975 34.1911 90.1337Q34.1434 89.8699 34.1076 89.6043Q34.0718 89.3386 34.0479 89.0716Q34.0239 88.8046 34.012 88.5368Q34 88.2691 34 88.001L34 73.999Q34 73.7358 34.0115 73.4729Q34.0231 73.21 34.0461 72.9479Q34.0692 72.6857 34.1037 72.4248Q34.1382 72.164 34.1842 71.9048Q34.2301 71.6457 34.2873 71.3889Q34.3446 71.132 34.413 70.8779Q34.4815 70.6238 34.561 70.3729Q34.6405 70.1221 34.731 69.8749Q34.8214 69.6278 34.9226 69.3849Q35.0238 69.142 35.1356 68.9037Q35.2473 68.6654 35.3694 68.4323Q35.4915 68.1992 35.6237 67.9716Q35.7559 67.7441 35.8979 67.5226Q36.04 67.301 36.1916 67.0859Q36.3432 66.8708 36.5041 66.6626Q36.665 66.4543 36.8349 66.2534Q37.0048 66.0524 37.1833 65.859Q37.3618 65.6657 37.5486 65.4804Q37.7355 65.295 37.9303 65.1181Q38.125 64.9411 38.3274 64.7728Q38.5297 64.6046 38.7393 64.4454Q38.9488 64.2861 39.1651 64.1363Q39.3814 63.9864 39.6041 63.8461Q39.8267 63.7059 40.0554 63.5755Q40.284 63.4452 40.5181 63.325Q40.7522 63.2048 40.9913 63.0949Q41.2305 62.9851 41.4742 62.8859Q41.7179 62.7866 41.9658 62.6982Q42.2136 62.6097 42.4651 62.5322Q42.7166 62.4547 42.9712 62.3883Q43.2259 62.3219 43.4832 62.2667Q43.7405 62.2115 44 62.1677L44 55.999Z" id="Body" fill="#D0C6AC" fill-rule="evenodd" stroke="none" />
          <g clip-path="url(#mask_3)">
            <g id="Skin" transform="translate(-32 0)">
              <path d="M0 0L264 0L264 244L0 244L0 0Z" id="Color" fill="#D08B5B" fill-rule="evenodd" stroke="none" />
            </g>
            <path d="M0 15.001L0 23.001Q0 24.3757 0.0674532 25.7487Q0.134906 27.1218 0.26965 28.4899Q0.404394 29.8579 0.606104 31.2178Q0.807815 32.5776 1.076 33.9259Q1.3442 35.2741 1.67822 36.6076Q2.01224 37.9411 2.4113 39.2566Q2.81035 40.5722 3.27347 41.8665Q3.73659 43.1608 4.26267 44.4309Q4.78874 45.7009 5.3765 46.9437Q5.96426 48.1864 6.61229 49.3987Q7.26032 50.6111 7.96705 51.7902Q8.67379 52.9693 9.43753 54.1124Q10.2013 55.2554 11.0202 56.3596Q11.8391 57.4637 12.7112 58.5264Q13.5833 59.589 14.5065 60.6076Q15.4297 61.6262 16.4017 62.5983Q17.3738 63.5703 18.3924 64.4935Q19.411 65.4167 20.4736 66.2888Q21.5363 67.1609 22.6404 67.9798Q23.7446 68.7987 24.8876 69.5625Q26.0306 70.3262 27.2098 71.0329Q28.3889 71.7397 29.6013 72.3877Q30.8136 73.0357 32.0563 73.6235Q33.2991 74.2112 34.5691 74.7373Q35.8392 75.2634 37.1335 75.7265Q38.4278 76.1896 39.7433 76.5887Q41.0588 76.9878 42.3923 77.3218Q43.7258 77.6558 45.0741 77.924Q46.4224 78.1922 47.7822 78.3939Q49.1421 78.5956 50.5101 78.7303Q51.8782 78.8651 53.2513 78.9325Q54.6243 79 55.999 79L56.001 79Q57.3757 79 58.7487 78.9325Q60.1218 78.8651 61.4899 78.7303Q62.8579 78.5956 64.2178 78.3939Q65.5776 78.1922 66.9259 77.924Q68.2741 77.6558 69.6076 77.3218Q70.9411 76.9878 72.2566 76.5887Q73.5722 76.1896 74.8665 75.7265Q76.1608 75.2634 77.4309 74.7373Q78.7009 74.2112 79.9436 73.6235Q81.1864 73.0357 82.3987 72.3877Q83.6111 71.7397 84.7902 71.0329Q85.9694 70.3262 87.1124 69.5625Q88.2554 68.7987 89.3596 67.9798Q90.4637 67.1609 91.5264 66.2888Q92.589 65.4167 93.6076 64.4935Q94.6262 63.5703 95.5983 62.5983Q96.5703 61.6262 97.4935 60.6076Q98.4167 59.589 99.2888 58.5264Q100.161 57.4637 100.98 56.3596Q101.799 55.2554 102.562 54.1124Q103.326 52.9693 104.033 51.7902Q104.74 50.6111 105.388 49.3987Q106.036 48.1864 106.623 46.9437Q107.211 45.7009 107.737 44.4309Q108.263 43.1608 108.727 41.8665Q109.19 40.5722 109.589 39.2566Q109.988 37.9411 110.322 36.6076Q110.656 35.2741 110.924 33.9259Q111.192 32.5776 111.394 31.2178Q111.596 29.8579 111.73 28.4899Q111.865 27.1218 111.933 25.7487Q112 24.3757 112 23.001L112 15.001Q112 16.3757 111.933 17.7487Q111.865 19.1218 111.73 20.4899Q111.596 21.8579 111.394 23.2178Q111.192 24.5776 110.924 25.9259Q110.656 27.2741 110.322 28.6076Q109.988 29.9411 109.589 31.2566Q109.19 32.5722 108.727 33.8665Q108.263 35.1608 107.737 36.4309Q107.211 37.7009 106.623 38.9436Q106.036 40.1864 105.388 41.3987Q104.74 42.6111 104.033 43.7902Q103.326 44.9693 102.562 46.1124Q101.799 47.2554 100.98 48.3596Q100.161 49.4637 99.2888 50.5264Q98.4167 51.589 97.4935 52.6076Q96.5703 53.6262 95.5983 54.5983Q94.6262 55.5703 93.6076 56.4935Q92.589 57.4167 91.5264 58.2888Q90.4637 59.1609 89.3596 59.9798Q88.2554 60.7987 87.1124 61.5625Q85.9693 62.3262 84.7902 63.0329Q83.6111 63.7397 82.3987 64.3877Q81.1864 65.0357 79.9436 65.6235Q78.7009 66.2113 77.4309 66.7373Q76.1608 67.2634 74.8665 67.7265Q73.5722 68.1896 72.2566 68.5887Q70.9411 68.9878 69.6076 69.3218Q68.2741 69.6558 66.9259 69.924Q65.5776 70.1922 64.2178 70.3939Q62.8579 70.5956 61.4899 70.7303Q60.1218 70.8651 58.7487 70.9325Q57.3757 71 56.001 71L55.999 71Q54.6243 71 53.2513 70.9325Q51.8782 70.8651 50.5101 70.7303Q49.1421 70.5956 47.7822 70.3939Q46.4224 70.1922 45.0741 69.924Q43.7258 69.6558 42.3923 69.3218Q41.0588 68.9877 39.7433 68.5887Q38.4278 68.1896 37.1335 67.7265Q35.8392 67.2634 34.5691 66.7373Q33.2991 66.2113 32.0563 65.6235Q30.8136 65.0357 29.6013 64.3877Q28.3889 63.7397 27.2098 63.0329Q26.0306 62.3262 24.8876 61.5625Q23.7446 60.7987 22.6404 59.9798Q21.5363 59.1609 20.4736 58.2888Q19.411 57.4167 18.3924 56.4935Q17.3738 55.5703 16.4017 54.5983Q15.4297 53.6262 14.5065 52.6076Q13.5833 51.589 12.7112 50.5264Q11.8391 49.4637 11.0202 48.3596Q10.2013 47.2554 9.43753 46.1124Q8.67379 44.9693 7.96705 43.7902Q7.26032 42.6111 6.61229 41.3987Q5.96426 40.1864 5.3765 38.9436Q4.78874 37.7009 4.26267 36.4309Q3.73659 35.1608 3.27347 33.8665Q2.81035 32.5722 2.4113 31.2566Q2.01224 29.9411 1.67822 28.6076Q1.3442 27.2741 1.076 25.9259Q0.807815 24.5776 0.606104 23.2178Q0.404394 21.8579 0.26965 20.4899Q0.134906 19.1218 0.0674532 17.7487Q0 16.3757 0 15.001Z" transform="translate(44 79)" id="Neck-Shadow" fill="#000000" fill-opacity="0.101960786" fill-rule="evenodd" stroke="none" />
          </g>
        </g>
        <g id="Clothes" transform="translate(0 170)">
        </g>
        <g id="Face" transform="translate(76 82)">
          <g id="Mouth" transform="translate(2 52)">
          </g>
          <g id="Nose" transform="translate(28 40)">
          </g>
          <g id="Eyes" transform="translate(0 8)">
          </g>
          <g id="Eyebrow">
          </g>
        </g>
        <g id="Top">
        </g>
      </g>
    </g>
  </g>
</svg>