<svg viewBox="51.23999999999998 64.23008849557522 64.67999999999996 23.539823008849595" xmlns="http://www.w3.org/2000/svg" xmlns:xlink="http://www.w3.org/1999/xlink" xmlns:blush="http://design.blush" overflow="visible" width="64.67999999999996px" height="23.539823008849595px">
    <g id="Facial Hair/Einstien Mustache" stroke="none" stroke-width="1" fill="none" fill-rule="evenodd">
        <g id="mustache" transform="translate(52.000000, 65.000000)">
            <path d="M0.1095,17.4004 C0.1095,17.4004 5.0135,0.0004 30.2595,0.0004 C55.5055,0.0004 62.9515,16.1414 63.3155,17.5484 C63.6785,18.9564 63.1335,21.7704 59.3185,20.2144 C55.5055,18.6594 54.7785,17.0494 52.9625,18.8544 C51.1465,20.6594 50.6925,23.4834 47.9675,22.6194 C45.2435,21.7564 44.9715,16.6794 41.7015,18.8544 C38.4325,21.0294 38.5235,23.5484 35.5265,22.0254 C33.2325,20.8584 31.5305,17.7164 29.9865,18.8544 C28.4425,19.9924 28.7155,22.8484 25.8095,22.6054 C22.9035,22.3624 21.6015,19.4394 20.1495,19.4094 C16.6075,19.3354 17.2735,21.9924 14.7305,22.2144 C12.1875,22.4374 10.7345,18.1764 8.5545,18.1294 C6.3755,18.0824 -0.9805,24.4374 0.1095,17.4004" id="Facial-Hair-Color" fill="#724133" blush:color="Hair-500" />
            <path d="M21.2369,19.8873 C22.0519,14.8863 23.6129,9.9273 23.8379,4.8753 C23.9079,3.3003 20.9079,3.3033 20.8379,4.8753 C20.6149,9.8823 19.0779,14.7933 18.2569,19.7463 C18.7199,19.5293 19.3159,19.3913 20.1489,19.4093 C20.5119,19.4173 20.8649,19.6053 21.2369,19.8873" id="Fill-4" fill-opacity=".16" fill="#000" />
            <path d="M8.5548,18.1294 C8.7758,18.1344 8.9868,18.1914 9.1948,18.2734 C9.5518,16.4414 10.1578,14.6404 11.0478,12.9324 C11.6798,11.7214 12.4528,10.5554 13.3278,9.4514 C14.2368,8.3034 15.2668,7.1924 15.5198,5.8044 C15.6388,5.1514 15.3198,4.4894 14.4718,4.2994 C13.7648,4.1414 12.7468,4.4964 12.6268,5.1534 C12.3818,6.5004 11.2428,7.5354 10.3928,8.6614 C9.4768,9.8754 8.7128,11.1554 8.0568,12.4754 C7.0118,14.5794 6.3628,16.7924 6.0468,19.0424 C7.0728,18.5374 7.9888,18.1174 8.5548,18.1294" id="Fill-6" fill-opacity=".16" fill="#000" />
            <path d="M32.9596,20.0132 C33.0526,14.9272 32.7116,9.8432 31.9156,4.7922 C31.8126,4.1322 31.3006,3.5762 30.4156,3.56915338 C29.6846,3.5632 28.8126,4.1372 28.9156,4.7922 C29.6516,9.4612 30.0036,14.1592 29.9796,18.8612 C29.9816,18.8592 29.9846,18.8562 29.9866,18.8542 C30.8936,18.1862 31.8556,18.9962 32.9596,20.0132" id="Fill-8" fill-opacity=".16" fill="#000" />
            <path d="M43.4313,18.3545 C43.4523,16.9565 43.4323,15.5585 43.2663,14.1635 C42.8603,10.7705 41.6363,7.4605 40.6263,4.1635 C40.1593,2.6365 37.2643,3.2835 37.7343,4.8135 C38.7133,8.0145 39.9793,11.2575 40.3093,14.5575 C40.4863,16.3285 40.4483,18.1035 40.4013,19.8785 C40.7713,19.5395 41.1923,19.1935 41.7023,18.8545 C42.3993,18.3905 42.9543,18.2705 43.4313,18.3545" id="Fill-10" fill-opacity=".16" fill="#000" />
            <path d="M47.0817,7.9122 C49.9427,11.4532 51.3527,15.5112 52.2867,19.6402 C52.4927,19.3672 52.7147,19.1012 52.9627,18.8542 C53.7177,18.1042 54.2857,17.9492 54.9647,18.1302 C53.9717,14.0942 52.4777,10.1482 49.6727,6.6772 C48.6137,5.3682 46.0157,6.5922 47.0817,7.9122" id="Fill-12" fill-opacity=".16" fill="#000" />
        </g>
    </g>
</svg>