<svg viewBox="26.879999999999995 22.194690265486713 112.56 92.47787610619471" xmlns="http://www.w3.org/2000/svg" xmlns:xlink="http://www.w3.org/1999/xlink" xmlns:blush="http://design.blush" overflow="visible" width="112.56px" height="92.47787610619471px">
    <defs>
        <path d="M92.8529444,110.772863 C92.4646999,110.690176 89.5136632,105.844079 83.9998344,96.2345713 C78.4862283,105.844079 75.5351917,110.690176 75.1467245,110.772863 C71.7624488,111.494309 69.0848316,110.462621 66.5712661,108.168569 C63.4212068,105.293259 61.0789787,94.1669555 59.5445817,74.7896583 C70.8461226,73.7591561 77.8028468,72.982027 80.4147542,72.4582708 C81.6840664,72.2035248 83.0706538,71.7508657 83.9998344,71 C84.929015,71.7508657 86.3159365,72.2035248 87.5845805,72.4582708 C90.1967107,72.982027 96.6092912,73.7591561 106.822322,74.7896583 C106.376658,94.1669555 104.578685,105.293259 101.428403,108.168569 C98.9148372,110.462621 96.23722,111.494309 92.8529444,110.772863 Z M119.485129,94.9574 C114.699289,80.7432272 111.022674,72.1397539 108.455284,69.1469801 C105.887895,66.1542063 100.78585,64.5245037 93.1491481,64.2578722 L74.8510547,64.2578722 C69.3311956,64.2578722 64.229038,65.8875748 59.5445817,69.1469801 C54.8601255,72.4063854 50.7221618,80.0360076 47.1306906,92.0358469 C43.5494525,94.4281216 47.6874162,99.3657372 59.5445817,106.848694 C64.2269942,109.803725 74.189578,112.02247 83.1742,112.02247 C92.158822,112.02247 103.277169,108.98551 108.455284,106.848694" id="facial-hairwick-beard-path-1" />
    </defs>
    <g id="Facial Hair/Wick Beard" stroke="none" stroke-width="1" fill="none" fill-rule="evenodd">
        <path d="M133.5472,25.575 L133.5472,63.866 C133.5472,70.516 120.4702,71.131 120.4702,71.131 L120.4702,86.356 C120.4702,91.474 110.1472,94.407 105.5142,95.466 C96.6236019,102.56883 89.9363032,106.124209 85.4523039,106.132137 C80.0074143,106.141765 71.8013797,102.612719 60.8342,95.545 C56.3992,94.559 45.5272,91.61 45.5272,86.356 L45.5272,71.131 C45.5272,71.131 32.4492,70.516 32.4492,63.866 L32.4492,25.575 C32.4492,24.153 31.2972,23 29.8752,23 C28.4532,23 27.3002,24.153 27.3002,25.575 L27.3002,64.096 C27.3022,64.096 27.3042,64.097 27.3062,64.097 C29.3732,83.903 41.7642,100.639 59.0012,108.827 C59.0012,108.827 83.0012,121.169 107.0022,108.827 C124.2392,100.638 136.6292,83.903 138.6962,64.098 L138.6962,25.575 C138.6962,24.153 137.5442,23 136.1212,23 C134.6992,23 133.5472,24.153 133.5472,25.575 Z" id="Combined-Shape" blush:color="Hair-500" />
        <mask id="facial-hairwick-beard-mask-2" fill="#fff">
            <use xlink:href="#facial-hairwick-beard-path-1" />
        </mask>
        <use id="Lite-Beard" xlink:href="#facial-hairwick-beard-path-1" blush:color="Hair-500" />
        <g id="Facial-Hair-Color" mask="url(#facial-hair-color-mask)" fill="">
            <rect x="0" y="0" width="264" height="264"></rect>
        </g>
        <mask id="facial-hair-color-mask" fill="white">
            <use xlink:href="#Combined-Shape"></use>
            <use xlink:href="#Lite-Beard"></use>
        </mask>
    </g>
</svg>