<svg viewBox="7.810000000000002 7.815789473684212 126.38000000000004 40.50000000000001" xmlns="http://www.w3.org/2000/svg" xmlns:xlink="http://www.w3.org/1999/xlink" xmlns:blush="http://design.blush" overflow="visible" width="126.38000000000004px" height="40.50000000000001px"><g id="Accesories/Sunglasses" stroke="none" stroke-width="1" fill="none" fill-rule="evenodd"><path d="M88.420644,10.0315667 L111.711555,10.4879 L112.418885,10.5173904 C116.716907,10.7306495 119.842183,11.5608236 122.25907,15.0052776 L123.270648,15.0612226 C125.98538,15.2235685 128.815928,15.5199023 131.241565,16.6393667 C134.626236,18.2013667 135.149293,21.7387 130.882414,22.2260333 C128.960673,22.4457 127.036739,22.0827 125.144457,21.7450333 L124.805075,21.6912775 C125.908933,31.1522104 118.598088,42.5597165 110.577413,46.0372333 C99.6003746,50.7965667 87.3375086,45.5292333 81.5337832,36.0035667 C78.9077874,31.6933472 77.3913647,25.4882292 77.0679314,20.1428905 C76.2485064,19.7454964 75.4674464,19.2201465 74.7189648,18.8553 C72.7120473,17.8773 69.3809643,17.7566333 67.2126933,18.8553 C66.4674989,19.2329059 65.6844252,19.7618811 64.860867,20.1592462 C64.5358863,25.500774 63.019749,31.6993553 60.3955746,36.0058333 C54.5921826,45.5318333 42.3293166,50.7991667 31.352278,46.0395 C23.3308758,42.5619527 16.0191895,31.1527353 17.1248105,21.6913039 L16.7871634,21.7450333 L15.9116787,21.9004644 C14.302955,22.1806014 12.6752968,22.4119051 11.0492092,22.2260333 C6.7823325,21.7387 7.30538922,18.2013667 10.6900582,16.6393667 C13.4186633,15.3800781 16.6596437,15.1623841 19.6724863,15.0063698 C22.088769,11.5628588 25.2136434,10.7331687 29.5106444,10.5199823 L30.2178029,10.4905 L54.367281,10.0138705 C59.1910659,9.92297948 63.3004405,10.2797475 64.5415862,14.6398662 C66.6301126,13.8258114 69.0470363,13.3846333 70.8914864,13.3846333 C72.750063,13.3846333 75.2403142,13.8326884 77.3827667,14.6590316 C78.6884926,10.0210681 83.2241204,9.89209727 88.420644,10.0315667 Z M54.6792964,17.2841303 L53.1743719,17.2627916 C48.2545196,17.2171575 28.0180517,17.1530306 25.6158944,19.1491667 C23.2262624,21.1345 24.5340925,27.0731667 25.1565036,29.5561667 C26.2203032,33.7998333 28.6396056,38.0601667 32.1723805,40.7525 C35.160879,43.03 38.9870799,43.1875781 42.598636,42.8394006 L42.8137377,42.8154434 C42.5755438,42.8270989 44.279595,42.5883296 44.6288896,42.5222918 L44.6612747,42.5158333 C45.7297416,42.2861667 46.7985419,41.9835 47.8106684,41.5641667 C49.7165732,40.7748333 51.5084639,39.6188333 52.9776475,38.1685 C55.7666627,35.4145 56.9648125,31.7228333 57.6852359,27.9548333 C58.1572949,25.4871667 58.5553446,22.6705 58.1459601,20.1651667 C57.7671628,17.8464167 56.7581109,17.3549128 54.6792964,17.2841303 L54.6792964,17.2841303 Z M90.2432286,17.2498018 L87.6805515,17.2725667 C85.3089217,17.2952333 84.1877816,17.6892333 83.7837311,20.1625667 C83.3743466,22.6679 83.7723963,25.4845667 84.244122,27.9522333 C84.9648787,31.7202333 86.1630285,35.4119 88.9520437,38.1659 C90.4212273,39.6162333 92.213118,40.7722333 94.1190228,41.5619 C94.9624616,41.9110667 95.8452571,42.1794463 96.7344192,42.392116 L97.2684165,42.5132333 C97.5131654,42.5657289 99.2030063,42.8028032 99.1366495,42.8130415 L98.9855976,42.8019336 C102.697275,43.192883 106.673335,43.1001622 109.757311,40.7499 C113.290086,38.0575667 115.709388,33.7975667 116.773188,29.5539 L116.961141,28.7771479 C117.606864,25.9999642 118.480835,20.9475202 116.313797,19.1465667 C114.107164,17.3129068 96.8513244,17.2177679 90.2432286,17.2498018 L90.2432286,17.2498018 Z" id="Shape" fill-opacity=".16" fill="#000"/><g id="Sunglasses" transform="translate(8.000000, 8.000000)"><path d="M47.0104611,6.27728008 C49.5212682,6.30134922 50.7082016,6.72633117 51.1359635,9.39189846 C51.5693724,12.0919529 51.1479634,15.1275382 50.648202,17.7869984 C49.8855011,21.8478573 48.6170388,25.8264499 45.6643523,28.794498 C44.1089507,30.3575551 42.2119044,31.6034024 40.1941529,32.4540848 C39.1226305,32.9060098 37.9911085,33.2322006 36.8599395,33.4797175 C36.5292357,33.5519249 33.7060778,33.9478084 35.4375958,33.7466335 C31.3967988,34.2161613 27.0129452,34.1974808 23.6381438,31.5793333 C19.8980507,28.6777448 17.3367734,24.0862872 16.2105455,19.5127916 C15.5516086,16.8368063 14.1670294,10.4365709 16.6968952,8.29693227 C19.5948762,5.84547255 47.0104611,6.27728008 47.0104611,6.27728008 L47.0104611,6.27728008 Z" id="shades" fill-opacity=".7" fill="#150662"/><path d="M78.9192315,6.27468008 C76.4084239,6.29910846 75.2214902,6.72373117 74.7937283,9.38929846 C74.3603192,12.0893529 74.7817283,15.1249382 75.2811369,17.7843984 C76.0441909,21.8452573 77.3126534,25.8238499 80.2653406,28.791898 C81.8207425,30.3549551 83.7177893,31.6008024 85.7355412,32.4518441 C86.8070638,32.9034098 87.938586,33.2296006 89.0697553,33.4771175 C89.4004591,33.5493249 92.2232647,33.9455676 90.4920992,33.7440335 C94.5328971,34.2135613 98.9167517,34.1948808 102.291554,31.5767333 C106.031648,28.6751448 108.592926,24.0840464 109.719154,19.5105508 C110.378091,16.8342063 111.762317,10.4343302 109.232804,8.29433227 C106.334822,5.84287255 78.9192315,6.27468008 78.9192315,6.27468008 L78.9192315,6.27468008 Z" id="shades" fill-opacity=".7" fill="#150662"/><g id="Glasses" fill="#252C2F"><path d="M46.2491397,7.27516667 C48.6207695,7.2975 49.7419096,7.69183333 50.1459601,10.1651667 C50.5553446,12.6705 50.1572949,15.4871667 49.6852359,17.9548333 C48.9648125,21.7228333 47.7666627,25.4145 44.9776475,28.1685 C43.5084639,29.6188333 41.7165732,30.7748333 39.8106684,31.5641667 C38.7985419,31.9835 37.7297416,32.2861667 36.6612747,32.5158333 C36.3489024,32.5828333 33.6822357,32.9501667 35.3177735,32.7635 C31.5009631,33.1991667 27.3601122,33.1818333 24.1723805,30.7525 C20.6396056,28.0601667 18.2203032,23.7998333 17.1565036,19.5561667 C16.5340925,17.0731667 15.2262624,11.1345 17.6158944,9.14916667 C20.3532365,6.8745 46.2491397,7.27516667 46.2491397,7.27516667 L46.2491397,7.27516667 Z M22.2178029,0.4905 C16.7774562,0.677833333 13.1466691,1.63383333 10.4633337,7.06916667 C5.54571911,17.0301667 13.9627711,31.9688333 23.352278,36.0395 C34.3293166,40.7991667 46.5921826,35.5318333 52.3955746,26.0058333 C55.4689587,20.9621667 57.0224862,13.3231667 56.9224737,7.50383333 C56.7951245,0.0765 51.6071427,-0.1295 45.5090472,0.0338333333 L22.2178029,0.4905 Z" id="Frame"/><path d="M79.6805515,7.27256667 C77.3089217,7.29523333 76.1877816,7.68923333 75.7837311,10.1625667 C75.3743466,12.6679 75.7723963,15.4845667 76.244122,17.9522333 C76.9648787,21.7202333 78.1630285,25.4119 80.9520437,28.1659 C82.4212273,29.6162333 84.213118,30.7722333 86.1190228,31.5619 C87.1311493,31.9809 88.1999496,32.2835667 89.2684165,32.5132333 C89.5807888,32.5802333 92.2471221,32.9479 90.6119177,32.7609 C94.4287281,33.1965667 98.569579,33.1792333 101.757311,30.7499 C105.290086,28.0575667 107.709388,23.7975667 108.773188,19.5539 C109.395599,17.0705667 110.703095,11.1322333 108.313797,9.14656667 C105.576455,6.8719 79.6805515,7.27256667 79.6805515,7.27256667 L79.6805515,7.27256667 Z M103.711555,0.4879 C109.152235,0.675233333 112.783022,1.63156667 115.466357,7.06656667 C120.383639,17.0275667 111.96692,31.9662333 102.577413,36.0372333 C91.6003746,40.7965667 79.3375086,35.5292333 73.5337832,26.0035667 C70.4607325,20.9595667 68.907205,13.3205667 69.0068841,7.50123333 C69.1345667,0.0739 74.3225485,-0.1321 80.420644,0.0315666667 L103.711555,0.4879 Z" id="Frame"/><path d="M13.1969483,4.9267 C9.78501392,5.11836667 5.88606327,5.16436667 2.69005822,6.63936667 C-0.69461078,8.20136667 -1.2176675,11.7387 3.04920921,12.2260333 C4.97094906,12.4457 6.89488267,12.0827 8.78716336,11.7450333 C10.336903,11.4683667 12.4419791,11.5580333 13.9064752,10.9657 C16.6355213,9.86236667 16.4603333,4.74003333 13.1969483,4.9267" id="Frame"/><path d="M112.73467,4.9267 C116.146606,5.11836667 120.045559,5.16436667 123.241565,6.63936667 C126.626236,8.20136667 127.149293,11.7387 122.882414,12.2260333 C120.960673,12.4457 119.036739,12.0827 117.144457,11.7450333 C115.594717,11.4683667 113.489639,11.5580333 112.025143,10.9657 C109.295782,9.86236667 109.471283,4.74003333 112.73467,4.9267" id="Frame"/><path d="M73.1094302,7.01263333 C71.1631869,4.71263333 66.0912197,3.38463333 62.8914864,3.38463333 C59.6914198,3.38463333 54.7681378,4.71263333 52.8222279,7.01263333 C51.8407719,8.1723 51.8074344,9.72396667 53.5083137,10.4509667 C55.6262451,11.3566333 57.5174814,9.7143 59.2126933,8.8553 C61.3809643,7.75663333 64.7120473,7.8773 66.7189648,8.8553 C68.4271783,9.68796667 70.3050797,11.3566333 72.4233444,10.4509667 C74.1242237,9.72396667 74.0908862,8.1723 73.1094302,7.01263333" id="Frame"/></g></g></g></svg>