<svg viewBox="5.680000000000007 6.394736842105267 130.64000000000004 44.052631578947356" xmlns="http://www.w3.org/2000/svg" xmlns:xlink="http://www.w3.org/1999/xlink" xmlns:blush="http://design.blush" overflow="visible" width="130.64000000000004px" height="44.052631578947356px"><g id="Accesories/Wayfarers" stroke="none" stroke-width="1" fill="none" fill-rule="evenodd"><path d="M100.529931,9 L103.5,9 C124.790455,9 132.354091,14.0962914 133.045455,14.7715644 C134.679318,14.7715644 136,16.061509 136,17.6573466 L136,20.5431288 C136,22.0819721 134.771968,23.3363819 133.219267,23.4240198 L132.612705,23.4391531 C131.44626,23.4830476 128.230186,23.7150617 126.820725,24.9414221 C126.960175,26.434022 127,27.9643151 127,29.5 C127,41.5686429 116.721275,50 102,50 L99.2421498,50 C85.3147125,50 77,42.3359286 77,29.5 C77,27.9522934 77.0404506,26.4100634 77.1814034,24.906131 L75.8004908,24.3608351 C75.5558969,24.2641292 75.0281396,24.090392 74.2963505,23.9099044 C72.256272,23.4067419 70.1589087,23.253569 68.3040836,23.6343084 C67.6235903,23.7739931 66.9922286,23.9836085 66.4128127,24.266732 L64.8308166,25.0394014 C64.9619021,26.5011097 65,27.9979759 65,29.5 C65,41.5686429 54.7212748,50 40,50 L37.2421498,50 C23.3147125,50 15,42.3359286 15,29.5 C15,28.6610668 15.0118851,27.8237427 15.0452193,26.9932548 C14.930996,26.9593697 14.8636364,26.7504239 14.8636364,26.3146932 C14.8636364,23.8880127 10.6851521,23.5019499 9.35563443,23.4405308 L8.95454545,23.428911 C7.32363636,23.428911 6,22.1389663 6,20.5431288 L6,17.6573466 C6,16.061509 7.32363636,14.7715644 8.95454545,14.7715644 L9.07093469,14.6699199 C10.2604418,13.7068794 17.8996241,9.09744476 37.8653976,9.00151937 L41.4700694,9 C42.7306767,9 43.9242203,9.0341353 45.0542384,9.10047223 C57.4173567,9.52253128 60.909731,11.2341396 65.8502273,13.6518809 L66.2689233,13.858509 L66.5639301,13.9581917 C67.3005076,14.1970236 69.0662164,14.7015168 71.0790606,14.7657952 C73.2462948,14.6727857 75.1000195,14.0854019 75.641698,13.8971977 L76.3244551,13.570396 C81.33305,11.2128779 86.4386483,9.71580366 95.5614746,9.20060541 C97.0895989,9.06864066 98.7423376,9 100.529931,9 Z M42.1732992,15.0019264 L38.3853606,15 C19.5815608,15 19.0174468,21.4367119 19.0005234,29.7271501 L19,30.5015498 C19,37.5719428 22.116254,46 36.9709365,46 L40,46 C52.3649085,46 61,39.6270373 61,30.5015498 L60.993687,28.7414887 C60.9091306,21.0134217 59.6920357,15.1237886 42.1732992,15.0019264 L42.1732992,15.0019264 Z M103.614639,15 L100.385361,15 C81.5815608,15 81.0174468,21.4367119 81.0005234,29.7271501 L81,30.5015498 C81,37.5719428 84.1194833,46 98.9709365,46 L102,46 C114.364909,46 123,39.6270373 123,30.5015498 L122.993351,28.711307 C122.905012,20.9167947 121.643025,15 103.614639,15 Z" id="Shape" fill-opacity=".16" fill="#000"/><g id="Wayfarers" transform="translate(7.000000, 7.000000)" fill-rule="nonzero"><g id="Shades" transform="translate(10.795455, 2.928571)" fill="#150662" fill-opacity=".7"><path d="M44.9178864,17.5714286 C44.9178864,27.2737857 36.66775,35.1428571 22.9204545,35.1428571 L20.1704091,35.1428571 C6.42311364,35.1428571 0.923022727,27.2708571 0.923022727,17.5714286 L0.923022727,17.5714286 C0.923022727,7.86614286 2.20715909,0 21.4545455,0 L24.3863636,0 C43.63375,0 44.9178864,7.86614286 44.9178864,17.5714286 L44.9178864,17.5714286 Z" id="Shade"/><path d="M106.486068,17.5714286 C106.486068,27.2737857 98.2388636,35.1428571 84.4886364,35.1428571 L81.7385909,35.1428571 C67.9912955,35.1428571 62.4912045,27.2708571 62.4912045,17.5714286 L62.4912045,17.5714286 C62.4912045,7.86614286 63.7753409,0 83.0227273,0 L85.9545455,0 C105.199,0 106.486068,7.86614286 106.486068,17.5714286 L106.486068,17.5714286 Z" id="Shade"/></g><path d="M35.1818182,0 C56.8332955,0 58.6451591,10.127 58.6451591,20.5 C58.6451591,32.5686429 48.3955227,41 33.7159091,41 L30.9658636,41 C17.0778409,41 8.78665909,33.3359286 8.78665909,20.5 C8.78665909,10.127 10.5985227,0 32.25,0 L35.1818182,0 Z M35.1818182,5.85421429 L32.25,5.85421429 C14.6502955,5.85421429 14.6502955,12.3175714 14.6502955,20.5 C14.6502955,27.1800714 17.4795,35.1428571 30.9658636,35.1428571 L33.7159091,35.1428571 C44.9418409,35.1428571 52.7815227,29.1217143 52.7815227,20.5 L52.7810475,19.768351 C52.765683,11.935587 52.2535316,5.85421429 35.1818182,5.85421429 Z" id="Left" fill="#252C2F"/><path d="M96.75,0 C118.401477,0 120.213341,10.127 120.213341,20.5 C120.213341,32.5686429 109.963705,41 95.2840909,41 L92.5340455,41 C78.6460227,41 70.3548409,33.3359286 70.3548409,20.5 C70.3548409,10.127 72.1667045,0 93.8181818,0 L96.75,0 Z M96.75,5.85421429 L93.8181818,5.85421429 C76.2184773,5.85421429 76.2184773,12.3175714 76.2184773,20.5 C76.2184773,27.1800714 79.0506136,35.1428571 92.5340455,35.1428571 L95.2840909,35.1428571 C106.510023,35.1428571 114.349705,29.1217143 114.349705,20.5 L114.349229,19.768351 C114.333865,11.935587 113.821713,5.85421429 96.75,5.85421429 Z" id="Right" fill="#252C2F"/><path d="M2.93181818,5.85714286 C3.61786364,5.17185714 11.1233182,0 32.25,0 C49.9640455,0 53.7138409,1.88014286 59.3898409,4.72085714 L59.8053162,4.93054903 C60.1999353,5.07314243 62.2179351,5.77419634 64.5784525,5.85128811 C66.7290156,5.75689949 68.5684809,5.16080623 69.1059926,4.96981137 C75.5844654,1.74762081 81.9260118,0 96.75,0 C117.876682,0 125.382136,5.17185714 126.068182,5.85714286 C127.689477,5.85714286 129,7.16621429 129,8.78571429 L129,11.7142857 C129,13.3337857 127.689477,14.6428571 126.068182,14.6428571 C126.068182,14.6428571 120.204545,14.6428571 120.204545,17.5714286 C120.204545,20.5 117.272727,13.3337857 117.272727,11.7142857 L117.272727,8.8618831 C113.697201,7.46243482 107.296654,5.85714286 96.75,5.85714286 C84.9995538,5.85714286 79.1475515,6.98813142 74.1276604,9.10414393 L74.1837955,9.24257143 L71.6878772,10.2500422 L74.1813177,11.2582547 L71.981173,16.6874536 L69.263564,15.5885995 C69.0208516,15.4904597 68.4971539,15.3141463 67.770994,15.1309826 C65.7466083,14.6203594 63.6653786,14.4649153 61.8248214,14.8513001 C61.1495627,14.993056 60.5230576,15.2057795 59.9480988,15.4931011 L57.3260941,16.8033836 L54.7026238,11.5651815 L57.3246285,10.2548989 L57.3310023,10.251716 L54.8191364,9.23671429 L54.8992448,9.03890561 C50.5700368,6.97578666 46.5781927,5.85714286 32.25,5.85714286 C21.7038986,5.85714286 15.3034993,7.46145875 11.7272727,8.86093383 L11.7272727,11.7142857 C11.7272727,13.3337857 8.79545455,20.5 8.79545455,17.5714286 C8.79545455,14.6428571 2.93181818,14.6428571 2.93181818,14.6428571 C1.31345455,14.6428571 0,13.3337857 0,11.7142857 L0,8.78571429 C0,7.16621429 1.31345455,5.85714286 2.93181818,5.85714286 Z" id="Stuff" fill="#252C2F"/></g></g></svg>