<?xml version="1.0" encoding="utf-8"?>
<svg width="264px" height="110px" viewbox="0 0 264 110" version="1.1" xmlns:xlink="http://www.w3.org/1999/xlink" xmlns="http://www.w3.org/2000/svg">
  <defs>
    <path d="M127 3C127 16.8071 114.912 28 100 28C85.0883 28 73 16.8071 73 3C73 1.98473 73.0654 0.983591 73.1924 5.77316e-15L40.4731 0Q39.4796 0 38.4872 0.0487517Q37.4948 0.0975033 36.5061 0.194889Q35.5173 0.292275 34.5345 0.43806Q33.5517 0.583846 32.5772 0.77768Q31.6027 0.971514 30.639 1.21293Q29.6752 1.45434 28.7244 1.74276Q27.7736 2.03117 26.8381 2.36589Q25.9027 2.70061 24.9847 3.08083Q24.0668 3.46105 23.1686 3.88585Q22.2705 4.31066 21.3942 4.77902Q20.518 5.24738 19.6658 5.75817Q18.8136 6.26896 17.9875 6.82095Q17.1614 7.37294 16.3633 7.96481Q15.5653 8.55667 14.7972 9.18698Q14.0292 9.81729 13.293 10.4845Q12.5569 11.1518 11.8543 11.8543Q11.1518 12.5569 10.4845 13.293Q9.81729 14.0292 9.18698 14.7972Q8.55667 15.5653 7.96481 16.3633Q7.37294 17.1613 6.82095 17.9875Q6.26896 18.8136 5.75817 19.6658Q5.24738 20.518 4.77902 21.3942Q4.31066 22.2705 3.88585 23.1686Q3.46105 24.0668 3.08083 24.9847Q2.70061 25.9027 2.36589 26.8381Q2.03117 27.7736 1.74276 28.7244Q1.45434 29.6752 1.21293 30.639Q0.971514 31.6027 0.77768 32.5772Q0.583846 33.5517 0.43806 34.5345Q0.292275 35.5173 0.194889 36.5061Q0.0975033 37.4948 0.0487517 38.4872Q0 39.4796 0 40.4731L0 80.9483L200 80.9483L200 40.4731Q200 39.4796 199.951 38.4872Q199.902 37.4948 199.805 36.5061Q199.708 35.5173 199.562 34.5345Q199.416 33.5517 199.222 32.5772Q199.028 31.6027 198.787 30.639Q198.546 29.6752 198.257 28.7244Q197.969 27.7736 197.634 26.8381Q197.299 25.9027 196.919 24.9847Q196.539 24.0668 196.114 23.1686Q195.689 22.2705 195.221 21.3942Q194.753 20.518 194.242 19.6658Q193.731 18.8136 193.179 17.9875Q192.627 17.1614 192.035 16.3633Q191.443 15.5653 190.813 14.7972Q190.183 14.0292 189.515 13.293Q188.848 12.5569 188.146 11.8543Q187.443 11.1518 186.707 10.4845Q185.971 9.81729 185.203 9.18698Q184.435 8.55667 183.637 7.96481Q182.839 7.37294 182.013 6.82095Q181.186 6.26896 180.334 5.75817Q179.482 5.24738 178.606 4.77902Q177.73 4.31066 176.831 3.88585Q175.933 3.46105 175.015 3.08083Q174.097 2.70061 173.162 2.36589Q172.226 2.03117 171.276 1.74276Q170.325 1.45434 169.361 1.21293Q168.397 0.971514 167.423 0.77768Q166.448 0.583846 165.465 0.43806Q164.483 0.292275 163.494 0.194889Q162.505 0.0975033 161.513 0.0487517Q160.52 0 159.527 0L126.808 0C126.935 0.983591 127 1.98473 127 3Z" transform="translate(32 29.051723)" id="path_1" />
    <clipPath id="mask_1">
      <use xlink:href="#path_1" />
    </clipPath>
  </defs>
  <g id="ClothingBlazer-+-Sweater">
    <path d="M127 3C127 16.8071 114.912 28 100 28C85.0883 28 73 16.8071 73 3C73 1.98473 73.0654 0.983591 73.1924 5.77316e-15L40.4731 0Q39.4796 0 38.4872 0.0487517Q37.4948 0.0975033 36.5061 0.194889Q35.5173 0.292275 34.5345 0.43806Q33.5517 0.583846 32.5772 0.77768Q31.6027 0.971514 30.639 1.21293Q29.6752 1.45434 28.7244 1.74276Q27.7736 2.03117 26.8381 2.36589Q25.9027 2.70061 24.9847 3.08083Q24.0668 3.46105 23.1686 3.88585Q22.2705 4.31066 21.3942 4.77902Q20.518 5.24738 19.6658 5.75817Q18.8136 6.26896 17.9875 6.82095Q17.1614 7.37294 16.3633 7.96481Q15.5653 8.55667 14.7972 9.18698Q14.0292 9.81729 13.293 10.4845Q12.5569 11.1518 11.8543 11.8543Q11.1518 12.5569 10.4845 13.293Q9.81729 14.0292 9.18698 14.7972Q8.55667 15.5653 7.96481 16.3633Q7.37294 17.1613 6.82095 17.9875Q6.26896 18.8136 5.75817 19.6658Q5.24738 20.518 4.77902 21.3942Q4.31066 22.2705 3.88585 23.1686Q3.46105 24.0668 3.08083 24.9847Q2.70061 25.9027 2.36589 26.8381Q2.03117 27.7736 1.74276 28.7244Q1.45434 29.6752 1.21293 30.639Q0.971514 31.6027 0.77768 32.5772Q0.583846 33.5517 0.43806 34.5345Q0.292275 35.5173 0.194889 36.5061Q0.0975033 37.4948 0.0487517 38.4872Q0 39.4796 0 40.4731L0 80.9483L200 80.9483L200 40.4731Q200 39.4796 199.951 38.4872Q199.902 37.4948 199.805 36.5061Q199.708 35.5173 199.562 34.5345Q199.416 33.5517 199.222 32.5772Q199.028 31.6027 198.787 30.639Q198.546 29.6752 198.257 28.7244Q197.969 27.7736 197.634 26.8381Q197.299 25.9027 196.919 24.9847Q196.539 24.0668 196.114 23.1686Q195.689 22.2705 195.221 21.3942Q194.753 20.518 194.242 19.6658Q193.731 18.8136 193.179 17.9875Q192.627 17.1614 192.035 16.3633Q191.443 15.5653 190.813 14.7972Q190.183 14.0292 189.515 13.293Q188.848 12.5569 188.146 11.8543Q187.443 11.1518 186.707 10.4845Q185.971 9.81729 185.203 9.18698Q184.435 8.55667 183.637 7.96481Q182.839 7.37294 182.013 6.82095Q181.186 6.26896 180.334 5.75817Q179.482 5.24738 178.606 4.77902Q177.73 4.31066 176.831 3.88585Q175.933 3.46105 175.015 3.08083Q174.097 2.70061 173.162 2.36589Q172.226 2.03117 171.276 1.74276Q170.325 1.45434 169.361 1.21293Q168.397 0.971514 167.423 0.77768Q166.448 0.583846 165.465 0.43806Q164.483 0.292275 163.494 0.194889Q162.505 0.0975033 161.513 0.0487517Q160.52 0 159.527 0L126.808 0C126.935 0.983591 127 1.98473 127 3Z" transform="translate(32 29.051723)" id="Clothes" fill="#E6E6E6" fill-rule="evenodd" stroke="none" />
    <g clip-path="url(#mask_1)">
      <g id="Color-Fabric">
        <path d="M0 0L264 0L264 110L0 110L0 0Z" id="ðŸ–Color" fill="#E6E6E6" fill-rule="evenodd" stroke="none" />
      </g>
    </g>
    <g id="Blazer" transform="translate(32 28)">
      <path d="M131.638 80.8778L200 80.8778L200 40.4026Q200 39.4091 199.951 38.4167Q199.902 37.4243 199.805 36.4356Q199.708 35.4468 199.562 34.464Q199.416 33.4812 199.222 32.5067Q199.028 31.5322 198.787 30.5685Q198.546 29.6047 198.257 28.6539Q197.969 27.7031 197.634 26.7676Q197.299 25.8322 196.919 24.9142Q196.539 23.9963 196.114 23.0981Q195.689 22.2 195.221 21.3237Q194.753 20.4475 194.242 19.5953Q193.731 18.7431 193.179 17.917Q192.627 17.0908 192.035 16.2928Q191.443 15.4948 190.813 14.7267Q190.183 13.9587 189.515 13.2225Q188.848 12.4864 188.146 11.7838Q187.443 11.0813 186.707 10.414Q185.971 9.74678 185.203 9.11648Q184.435 8.48617 183.637 7.8943Q182.839 7.30244 182.013 6.75045Q181.186 6.19846 180.334 5.68766Q179.482 5.17687 178.606 4.70851Q177.73 4.24015 176.831 3.81535Q175.933 3.39055 175.015 3.01033Q174.097 2.63011 173.162 2.29539Q172.226 1.96067 171.276 1.67225Q170.325 1.38384 169.361 1.14242Q168.397 0.901009 167.423 0.707175Q166.448 0.513341 165.465 0.367556Q164.483 0.22177 163.494 0.124384Q162.505 0.0269984 161.513 -0.0217533Q160.52 -0.070505 159.527 -0.070505L132.197 -0.070505C135.253 11.5544 137 25.0217 137 39.3778C137 54.5865 135.039 68.7978 131.638 80.8778ZM68.8033 -0.070505C65.747 11.5544 64 25.0217 64 39.3778C64 54.5865 65.9607 68.7978 69.3617 80.8778L0 80.8778L0 40.4026Q0 39.4091 0.0487517 38.4167Q0.0975033 37.4243 0.194889 36.4356Q0.292275 35.4468 0.43806 34.464Q0.583846 33.4812 0.77768 32.5067Q0.971514 31.5322 1.21293 30.5685Q1.45434 29.6047 1.74276 28.6539Q2.03117 27.7031 2.36589 26.7676Q2.70061 25.8322 3.08083 24.9142Q3.46105 23.9963 3.88585 23.0981Q4.31066 22.2 4.77902 21.3237Q5.24738 20.4475 5.75817 19.5953Q6.26896 18.7431 6.82095 17.917Q7.37294 17.0908 7.96481 16.2928Q8.55667 15.4948 9.18698 14.7267Q9.81729 13.9587 10.4845 13.2225Q11.1518 12.4864 11.8543 11.7838Q12.5569 11.0813 13.293 10.414Q14.0292 9.74678 14.7972 9.11648Q15.5653 8.48617 16.3633 7.8943Q17.1613 7.30244 17.9875 6.75045Q18.8136 6.19846 19.6658 5.68766Q20.518 5.17687 21.3942 4.70851Q22.2705 4.24015 23.1686 3.81535Q24.0668 3.39055 24.9847 3.01033Q25.9027 2.63011 26.8381 2.29539Q27.7736 1.96067 28.7244 1.67225Q29.6752 1.38384 30.639 1.14242Q31.6027 0.901009 32.5772 0.707175Q33.5517 0.513341 34.5345 0.367556Q35.5173 0.22177 36.5061 0.124384Q37.4948 0.0269984 38.4872 -0.0217533Q39.4796 -0.070505 40.4731 -0.070505L68.8033 -0.070505Z" transform="translate(0 1.1222285)" id="Saco" fill="#3A4C5A" fill-rule="evenodd" stroke="none" />
      <path d="M0 9L9.55647 1.83265Q9.68696 1.73478 9.82499 1.64786Q9.96302 1.56095 10.1077 1.48556Q10.2523 1.41017 10.4026 1.34682Q10.5529 1.28346 10.7079 1.23256Q10.8629 1.18165 11.0215 1.14354Q11.1801 1.10543 11.3413 1.08036Q11.5025 1.05529 11.6651 1.04343Q11.8278 1.03158 11.9909 1.03301Q12.1541 1.03444 12.3165 1.04915Q12.479 1.06386 12.6397 1.09175Q12.8004 1.11964 12.9583 1.16053Q13.1162 1.20142 13.2703 1.25503Q13.4243 1.30865 13.5735 1.37463Q13.7227 1.44061 13.866 1.51852Q14.0093 1.59644 14.1458 1.68576Q14.2823 1.77509 14.411 1.87523L21 7L0 9Z" transform="translate(149 49)" id="Pocket-hanky" fill="#E6E6E6" fill-rule="evenodd" stroke="none" />
      <path d="M25 1.13687e-13C19 29 30 82 30 82L14 82L0 46L6 37L0 31L19 1C19 1 22.0415 0.053858 25 1.13687e-13Z" transform="translate(44 0)" id="Wing" fill="#2F4351" fill-rule="evenodd" stroke="none" />
      <path d="M25 1.13687e-13C19 29 30 82 30 82L14 82L0 46L6 37L0 31L19 1C19 1 22.0415 0.053858 25 1.13687e-13Z" transform="matrix(-1 0 0 1 156 0)" id="Wing" fill="#2F4351" fill-rule="evenodd" stroke="none" />
    </g>
    <path d="M21 29.5178L21.0778 29.4565C14.9775 26.314 11 21.1614 11 15.3378C11 5.76612 21.7452 -1.99327 35 -1.99327C48.2548 -1.99327 59 5.76612 59 15.3378C59 21.1614 55.0225 26.314 48.9222 29.4565L49 29.5178L48 32.6689L52.5793 32.3375L58.5201 37.0175C65.572 32.4058 70 25.7498 70 18.3489C70 4.42642 54.33 -6.85997 35 -6.85997C15.67 -6.85997 0 4.42642 0 18.3489C0 25.7498 4.42798 32.4058 11.4799 37.0175L17.4207 32.3375L22 32.6689L21 29.5178ZM53 32.307L52.5793 32.3375L49 29.5178L53 32.307Z" transform="translate(97 21.539005)" id="Collar" fill="#F2F2F2" fill-rule="evenodd" stroke="none" />
  </g>
</svg>