<?xml version="1.0" encoding="utf-8"?>
<svg width="264px" height="110px" viewbox="0 0 264 110" version="1.1" xmlns:xlink="http://www.w3.org/1999/xlink" xmlns="http://www.w3.org/2000/svg">
  <defs>
    <path d="M134 1.1281C134 12.9912 119.002 22.6081 100.5 22.6081C81.9985 22.6081 67 12.9912 67 1.1281C67 0.692989 67.0202 0.2609 67.06 -0.167803L40.4731 -0.167803Q39.4796 -0.167803 38.4872 -0.119051Q37.4948 -0.0702996 36.5061 0.0270863Q35.5173 0.124472 34.5345 0.270258Q33.5517 0.416043 32.5772 0.609877Q31.6027 0.803711 30.639 1.04513Q29.6752 1.28654 28.7244 1.57496Q27.7736 1.86337 26.8381 2.19809Q25.9027 2.53281 24.9847 2.91303Q24.0668 3.29325 23.1686 3.71805Q22.2705 4.14285 21.3942 4.61121Q20.518 5.07957 19.6658 5.59037Q18.8136 6.10116 17.9875 6.65315Q17.1614 7.20514 16.3633 7.797Q15.5653 8.38887 14.7972 9.01917Q14.0292 9.64948 13.293 10.3167Q12.5569 10.9839 11.8543 11.6865Q11.1518 12.3891 10.4845 13.1252Q9.81729 13.8614 9.18698 14.6294Q8.55667 15.3975 7.96481 16.1955Q7.37294 16.9935 6.82095 17.8197Q6.26896 18.6458 5.75817 19.498Q5.24738 20.3502 4.77902 21.2264Q4.31066 22.1027 3.88585 23.0008Q3.46105 23.899 3.08083 24.8169Q2.70061 25.7349 2.36589 26.6703Q2.03117 27.6058 1.74276 28.5566Q1.45434 29.5074 1.21293 30.4712Q0.971514 31.4349 0.77768 32.4094Q0.583846 33.3839 0.43806 34.3667Q0.292275 35.3495 0.194889 36.3383Q0.0975033 37.327 0.0487517 38.3194Q0 39.3118 0 40.3053L0 80.7805L200 80.7805L200 40.3053Q200 39.3118 199.951 38.3194Q199.902 37.327 199.805 36.3383Q199.708 35.3495 199.562 34.3667Q199.416 33.3839 199.222 32.4094Q199.028 31.4349 198.787 30.4712Q198.546 29.5074 198.257 28.5566Q197.969 27.6058 197.634 26.6703Q197.299 25.7349 196.919 24.8169Q196.539 23.899 196.114 23.0008Q195.689 22.1027 195.221 21.2264Q194.753 20.3502 194.242 19.498Q193.731 18.6458 193.179 17.8197Q192.627 16.9935 192.035 16.1955Q191.443 15.3975 190.813 14.6294Q190.183 13.8614 189.515 13.1252Q188.848 12.3891 188.146 11.6865Q187.443 10.9839 186.707 10.3167Q185.971 9.64948 185.203 9.01917Q184.435 8.38887 183.637 7.797Q182.839 7.20514 182.013 6.65315Q181.186 6.10116 180.334 5.59036Q179.482 5.07957 178.606 4.61121Q177.73 4.14285 176.831 3.71805Q175.933 3.29325 175.015 2.91303Q174.097 2.53281 173.162 2.19809Q172.226 1.86337 171.276 1.57496Q170.325 1.28654 169.361 1.04513Q168.397 0.803711 167.423 0.609877Q166.448 0.416043 165.465 0.270258Q164.483 0.124472 163.494 0.0270863Q162.505 -0.0702996 161.513 -0.119051Q160.52 -0.167803 159.527 -0.167803L133.94 -0.167803C133.98 0.2609 134 0.692989 134 1.1281Z" transform="translate(0 0.21952641)" id="path_1" />
    <clipPath id="mask_1">
      <use xlink:href="#path_1" />
    </clipPath>
  </defs>
  <g id="ClothingBlazer-+-Shirt">
    <g id="Shirt" transform="translate(32 29)">
      <path d="M134 1.1281C134 12.9912 119.002 22.6081 100.5 22.6081C81.9985 22.6081 67 12.9912 67 1.1281C67 0.692989 67.0202 0.2609 67.06 -0.167803L40.4731 -0.167803Q39.4796 -0.167803 38.4872 -0.119051Q37.4948 -0.0702996 36.5061 0.0270863Q35.5173 0.124472 34.5345 0.270258Q33.5517 0.416043 32.5772 0.609877Q31.6027 0.803711 30.639 1.04513Q29.6752 1.28654 28.7244 1.57496Q27.7736 1.86337 26.8381 2.19809Q25.9027 2.53281 24.9847 2.91303Q24.0668 3.29325 23.1686 3.71805Q22.2705 4.14285 21.3942 4.61121Q20.518 5.07957 19.6658 5.59037Q18.8136 6.10116 17.9875 6.65315Q17.1614 7.20514 16.3633 7.797Q15.5653 8.38887 14.7972 9.01917Q14.0292 9.64948 13.293 10.3167Q12.5569 10.9839 11.8543 11.6865Q11.1518 12.3891 10.4845 13.1252Q9.81729 13.8614 9.18698 14.6294Q8.55667 15.3975 7.96481 16.1955Q7.37294 16.9935 6.82095 17.8197Q6.26896 18.6458 5.75817 19.498Q5.24738 20.3502 4.77902 21.2264Q4.31066 22.1027 3.88585 23.0008Q3.46105 23.899 3.08083 24.8169Q2.70061 25.7349 2.36589 26.6703Q2.03117 27.6058 1.74276 28.5566Q1.45434 29.5074 1.21293 30.4712Q0.971514 31.4349 0.77768 32.4094Q0.583846 33.3839 0.43806 34.3667Q0.292275 35.3495 0.194889 36.3383Q0.0975033 37.327 0.0487517 38.3194Q0 39.3118 0 40.3053L0 80.7805L200 80.7805L200 40.3053Q200 39.3118 199.951 38.3194Q199.902 37.327 199.805 36.3383Q199.708 35.3495 199.562 34.3667Q199.416 33.3839 199.222 32.4094Q199.028 31.4349 198.787 30.4712Q198.546 29.5074 198.257 28.5566Q197.969 27.6058 197.634 26.6703Q197.299 25.7349 196.919 24.8169Q196.539 23.899 196.114 23.0008Q195.689 22.1027 195.221 21.2264Q194.753 20.3502 194.242 19.498Q193.731 18.6458 193.179 17.8197Q192.627 16.9935 192.035 16.1955Q191.443 15.3975 190.813 14.6294Q190.183 13.8614 189.515 13.1252Q188.848 12.3891 188.146 11.6865Q187.443 10.9839 186.707 10.3167Q185.971 9.64948 185.203 9.01917Q184.435 8.38887 183.637 7.797Q182.839 7.20514 182.013 6.65315Q181.186 6.10116 180.334 5.59036Q179.482 5.07957 178.606 4.61121Q177.73 4.14285 176.831 3.71805Q175.933 3.29325 175.015 2.91303Q174.097 2.53281 173.162 2.19809Q172.226 1.86337 171.276 1.57496Q170.325 1.28654 169.361 1.04513Q168.397 0.803711 167.423 0.609877Q166.448 0.416043 165.465 0.270258Q164.483 0.124472 163.494 0.0270863Q162.505 -0.0702996 161.513 -0.119051Q160.52 -0.167803 159.527 -0.167803L133.94 -0.167803C133.98 0.2609 134 0.692989 134 1.1281Z" transform="translate(0 0.21952641)" id="Clothes" fill="#E6E6E6" fill-rule="evenodd" stroke="none" />
      <g clip-path="url(#mask_1)">
        <g id="Color-Fabric" transform="translate(-32 -29)">
          <path d="M0 0L264 0L264 110L0 110L0 0Z" id="ðŸ–Color" fill="#E6E6E6" fill-rule="evenodd" stroke="none" />
        </g>
        <g id="Shadowy" transform="translate(60 -25)" opacity="0.59999996">
          <path d="M39.6351 53.8277C61.525 53.8277 79.2702 41.7779 79.2702 26.9138C79.2702 12.0497 61.525 0 39.6351 0C17.7452 0 0 12.0497 0 26.9138C0 41.7779 17.7452 53.8277 39.6351 53.8277Z" transform="translate(0.8648953 0.9337979)" id="Hola-ðŸ‘‹ðŸ¼" fill="#000000" fill-opacity="0.16078432" fill-rule="evenodd" stroke="none" />
        </g>
      </g>
    </g>
    <g id="Blazer" transform="translate(32 28)">
      <path d="M131.638 80.8778L200 80.8778L200 40.4026Q200 39.4091 199.951 38.4167Q199.902 37.4243 199.805 36.4356Q199.708 35.4468 199.562 34.464Q199.416 33.4812 199.222 32.5067Q199.028 31.5322 198.787 30.5685Q198.546 29.6047 198.257 28.6539Q197.969 27.7031 197.634 26.7676Q197.299 25.8322 196.919 24.9142Q196.539 23.9963 196.114 23.0981Q195.689 22.2 195.221 21.3237Q194.753 20.4475 194.242 19.5953Q193.731 18.7431 193.179 17.917Q192.627 17.0908 192.035 16.2928Q191.443 15.4948 190.813 14.7267Q190.183 13.9587 189.515 13.2225Q188.848 12.4864 188.146 11.7838Q187.443 11.0813 186.707 10.414Q185.971 9.74678 185.203 9.11648Q184.435 8.48617 183.637 7.8943Q182.839 7.30244 182.013 6.75045Q181.186 6.19846 180.334 5.68766Q179.482 5.17687 178.606 4.70851Q177.73 4.24015 176.831 3.81535Q175.933 3.39055 175.015 3.01033Q174.097 2.63011 173.162 2.29539Q172.226 1.96067 171.276 1.67225Q170.325 1.38384 169.361 1.14242Q168.397 0.901009 167.423 0.707175Q166.448 0.513341 165.465 0.367556Q164.483 0.22177 163.494 0.124384Q162.505 0.0269984 161.513 -0.0217533Q160.52 -0.070505 159.527 -0.070505L132.197 -0.070505C135.253 11.5544 137 25.0217 137 39.3778C137 54.5865 135.039 68.7978 131.638 80.8778ZM68.8033 -0.070505C65.747 11.5544 64 25.0217 64 39.3778C64 54.5865 65.9607 68.7978 69.3617 80.8778L0 80.8778L0 40.4026Q0 39.4091 0.0487517 38.4167Q0.0975033 37.4243 0.194889 36.4356Q0.292275 35.4468 0.43806 34.464Q0.583846 33.4812 0.77768 32.5067Q0.971514 31.5322 1.21293 30.5685Q1.45434 29.6047 1.74276 28.6539Q2.03117 27.7031 2.36589 26.7676Q2.70061 25.8322 3.08083 24.9142Q3.46105 23.9963 3.88585 23.0981Q4.31066 22.2 4.77902 21.3237Q5.24738 20.4475 5.75817 19.5953Q6.26896 18.7431 6.82095 17.917Q7.37294 17.0908 7.96481 16.2928Q8.55667 15.4948 9.18698 14.7267Q9.81729 13.9587 10.4845 13.2225Q11.1518 12.4864 11.8543 11.7838Q12.5569 11.0813 13.293 10.414Q14.0292 9.74678 14.7972 9.11648Q15.5653 8.48617 16.3633 7.8943Q17.1613 7.30244 17.9875 6.75045Q18.8136 6.19846 19.6658 5.68766Q20.518 5.17687 21.3942 4.70851Q22.2705 4.24015 23.1686 3.81535Q24.0668 3.39055 24.9847 3.01033Q25.9027 2.63011 26.8381 2.29539Q27.7736 1.96067 28.7244 1.67225Q29.6752 1.38384 30.639 1.14242Q31.6027 0.901009 32.5772 0.707175Q33.5517 0.513341 34.5345 0.367556Q35.5173 0.22177 36.5061 0.124384Q37.4948 0.0269984 38.4872 -0.0217533Q39.4796 -0.070505 40.4731 -0.070505L68.8033 -0.070505Z" transform="translate(0 1.1222285)" id="Saco" fill="#3A4C5A" fill-rule="evenodd" stroke="none" />
      <path d="M0 9L9.55647 1.83265Q9.68696 1.73478 9.82499 1.64786Q9.96302 1.56095 10.1077 1.48556Q10.2523 1.41017 10.4026 1.34682Q10.5529 1.28346 10.7079 1.23256Q10.8629 1.18165 11.0215 1.14354Q11.1801 1.10543 11.3413 1.08036Q11.5025 1.05529 11.6651 1.04343Q11.8278 1.03158 11.9909 1.03301Q12.1541 1.03444 12.3165 1.04915Q12.479 1.06386 12.6397 1.09175Q12.8004 1.11964 12.9583 1.16053Q13.1162 1.20142 13.2703 1.25503Q13.4243 1.30865 13.5735 1.37463Q13.7227 1.44061 13.866 1.51852Q14.0093 1.59644 14.1458 1.68576Q14.2823 1.77509 14.411 1.87523L21 7L0 9Z" transform="translate(149 49)" id="Pocket-hanky" fill="#E6E6E6" fill-rule="evenodd" stroke="none" />
      <path d="M25 1.13687e-13C19 29 30 82 30 82L14 82L0 46L6 37L0 31L19 1C19 1 22.0415 0.053858 25 1.13687e-13Z" transform="translate(44 0)" id="Wing" fill="#2F4351" fill-rule="evenodd" stroke="none" />
      <path d="M25 1.13687e-13C19 29 30 82 30 82L14 82L0 46L6 37L0 31L19 1C19 1 22.0415 0.053858 25 1.13687e-13Z" transform="matrix(-1 0 0 1 156 0)" id="Wing" fill="#2F4351" fill-rule="evenodd" stroke="none" />
    </g>
  </g>
</svg>