<?xml version="1.0" encoding="utf-8"?>
<svg width="264px" height="110px" viewbox="0 0 264 110" version="1.1" xmlns:xlink="http://www.w3.org/1999/xlink" xmlns="http://www.w3.org/2000/svg">
  <defs>
    <path d="M127 3C127 16.8071 114.912 28 100 28C85.0883 28 73 16.8071 73 3C73 1.98473 73.0654 0.983591 73.1924 5.77316e-15L40.4731 0Q39.4796 0 38.4872 0.0487517Q37.4948 0.0975033 36.5061 0.194889Q35.5173 0.292275 34.5345 0.43806Q33.5517 0.583846 32.5772 0.77768Q31.6027 0.971514 30.639 1.21293Q29.6752 1.45434 28.7244 1.74276Q27.7736 2.03117 26.8381 2.36589Q25.9027 2.70061 24.9847 3.08083Q24.0668 3.46105 23.1686 3.88585Q22.2705 4.31066 21.3942 4.77902Q20.518 5.24738 19.6658 5.75817Q18.8136 6.26896 17.9875 6.82095Q17.1614 7.37294 16.3633 7.96481Q15.5653 8.55667 14.7972 9.18698Q14.0292 9.81729 13.293 10.4845Q12.5569 11.1518 11.8543 11.8543Q11.1518 12.5569 10.4845 13.293Q9.81729 14.0292 9.18698 14.7972Q8.55667 15.5653 7.96481 16.3633Q7.37294 17.1613 6.82095 17.9875Q6.26896 18.8136 5.75817 19.6658Q5.24738 20.518 4.77902 21.3942Q4.31066 22.2705 3.88585 23.1686Q3.46105 24.0668 3.08083 24.9847Q2.70061 25.9027 2.36589 26.8381Q2.03117 27.7736 1.74276 28.7244Q1.45434 29.6752 1.21293 30.639Q0.971514 31.6027 0.77768 32.5772Q0.583846 33.5517 0.43806 34.5345Q0.292275 35.5173 0.194889 36.5061Q0.0975033 37.4948 0.0487517 38.4872Q0 39.4796 0 40.4731L0 80.9483L200 80.9483L200 40.4731Q200 39.4796 199.951 38.4872Q199.902 37.4948 199.805 36.5061Q199.708 35.5173 199.562 34.5345Q199.416 33.5517 199.222 32.5772Q199.028 31.6027 198.787 30.639Q198.546 29.6752 198.257 28.7244Q197.969 27.7736 197.634 26.8381Q197.299 25.9027 196.919 24.9847Q196.539 24.0668 196.114 23.1686Q195.689 22.2705 195.221 21.3942Q194.753 20.518 194.242 19.6658Q193.731 18.8136 193.179 17.9875Q192.627 17.1614 192.035 16.3633Q191.443 15.5653 190.813 14.7972Q190.183 14.0292 189.515 13.293Q188.848 12.5569 188.146 11.8543Q187.443 11.1518 186.707 10.4845Q185.971 9.81729 185.203 9.18698Q184.435 8.55667 183.637 7.96481Q182.839 7.37294 182.013 6.82095Q181.186 6.26896 180.334 5.75817Q179.482 5.24738 178.606 4.77902Q177.73 4.31066 176.831 3.88585Q175.933 3.46105 175.015 3.08083Q174.097 2.70061 173.162 2.36589Q172.226 2.03117 171.276 1.74276Q170.325 1.45434 169.361 1.21293Q168.397 0.971514 167.423 0.77768Q166.448 0.583846 165.465 0.43806Q164.483 0.292275 163.494 0.194889Q162.505 0.0975033 161.513 0.0487517Q160.52 0 159.527 0L126.808 0C126.935 0.983591 127 1.98473 127 3Z" transform="translate(32 29.051723)" id="path_1" />
    <clipPath id="mask_1">
      <use xlink:href="#path_1" />
    </clipPath>
  </defs>
  <g id="ClothingCollar-+-Sweater">
    <path d="M127 3C127 16.8071 114.912 28 100 28C85.0883 28 73 16.8071 73 3C73 1.98473 73.0654 0.983591 73.1924 5.77316e-15L40.4731 0Q39.4796 0 38.4872 0.0487517Q37.4948 0.0975033 36.5061 0.194889Q35.5173 0.292275 34.5345 0.43806Q33.5517 0.583846 32.5772 0.77768Q31.6027 0.971514 30.639 1.21293Q29.6752 1.45434 28.7244 1.74276Q27.7736 2.03117 26.8381 2.36589Q25.9027 2.70061 24.9847 3.08083Q24.0668 3.46105 23.1686 3.88585Q22.2705 4.31066 21.3942 4.77902Q20.518 5.24738 19.6658 5.75817Q18.8136 6.26896 17.9875 6.82095Q17.1614 7.37294 16.3633 7.96481Q15.5653 8.55667 14.7972 9.18698Q14.0292 9.81729 13.293 10.4845Q12.5569 11.1518 11.8543 11.8543Q11.1518 12.5569 10.4845 13.293Q9.81729 14.0292 9.18698 14.7972Q8.55667 15.5653 7.96481 16.3633Q7.37294 17.1613 6.82095 17.9875Q6.26896 18.8136 5.75817 19.6658Q5.24738 20.518 4.77902 21.3942Q4.31066 22.2705 3.88585 23.1686Q3.46105 24.0668 3.08083 24.9847Q2.70061 25.9027 2.36589 26.8381Q2.03117 27.7736 1.74276 28.7244Q1.45434 29.6752 1.21293 30.639Q0.971514 31.6027 0.77768 32.5772Q0.583846 33.5517 0.43806 34.5345Q0.292275 35.5173 0.194889 36.5061Q0.0975033 37.4948 0.0487517 38.4872Q0 39.4796 0 40.4731L0 80.9483L200 80.9483L200 40.4731Q200 39.4796 199.951 38.4872Q199.902 37.4948 199.805 36.5061Q199.708 35.5173 199.562 34.5345Q199.416 33.5517 199.222 32.5772Q199.028 31.6027 198.787 30.639Q198.546 29.6752 198.257 28.7244Q197.969 27.7736 197.634 26.8381Q197.299 25.9027 196.919 24.9847Q196.539 24.0668 196.114 23.1686Q195.689 22.2705 195.221 21.3942Q194.753 20.518 194.242 19.6658Q193.731 18.8136 193.179 17.9875Q192.627 17.1614 192.035 16.3633Q191.443 15.5653 190.813 14.7972Q190.183 14.0292 189.515 13.293Q188.848 12.5569 188.146 11.8543Q187.443 11.1518 186.707 10.4845Q185.971 9.81729 185.203 9.18698Q184.435 8.55667 183.637 7.96481Q182.839 7.37294 182.013 6.82095Q181.186 6.26896 180.334 5.75817Q179.482 5.24738 178.606 4.77902Q177.73 4.31066 176.831 3.88585Q175.933 3.46105 175.015 3.08083Q174.097 2.70061 173.162 2.36589Q172.226 2.03117 171.276 1.74276Q170.325 1.45434 169.361 1.21293Q168.397 0.971514 167.423 0.77768Q166.448 0.583846 165.465 0.43806Q164.483 0.292275 163.494 0.194889Q162.505 0.0975033 161.513 0.0487517Q160.52 0 159.527 0L126.808 0C126.935 0.983591 127 1.98473 127 3Z" transform="translate(32 29.051723)" id="Clothes" fill="#E6E6E6" fill-rule="evenodd" stroke="none" />
    <g clip-path="url(#mask_1)">
      <g id="Color-Fabric">
        <path d="M0 0L264 0L264 110L0 110L0 0Z" id="ðŸ–Color" fill="#E6E6E6" fill-rule="evenodd" stroke="none" />
      </g>
    </g>
    <path d="M21 29.4853L21.0778 29.424C14.9775 26.2816 11 21.1289 11 15.3053C11 5.73362 21.7452 -2.02577 35 -2.02577C48.2548 -2.02577 59 5.73362 59 15.3053C59 21.1289 55.0225 26.2816 48.9222 29.424L49 29.4853L48 32.6364L52.5793 32.305L58.229 36.7557C64.8626 32.1615 69 25.662 69 18.4564C69 4.53396 53.5538 -6.75242 34.5 -6.75242C15.4462 -6.75242 0 4.53396 0 18.4564C0 25.8547 4.3616 32.5085 11.3084 37.1201L17.4207 32.305L22 32.6364L21 29.4853ZM53 32.2746L52.5793 32.305L49 29.4853L53 32.2746Z" transform="translate(97 21.571499)" id="Collar" fill="#F2F2F2" fill-rule="evenodd" stroke="none" />
  </g>
</svg>