<?xml version="1.0" encoding="utf-8"?>
<svg width="264px" height="110px" viewbox="0 0 264 110" version="1.1" xmlns:xlink="http://www.w3.org/1999/xlink" xmlns="http://www.w3.org/2000/svg">
  <defs>
    <path d="M134 3.301C134 15.1751 119.002 24.801 100.5 24.801C81.9985 24.801 67 15.1751 67 3.301C67 2.12723 67.1466 0.975429 67.4286 -0.147277L40.4731 -0.147277Q39.4796 -0.147277 38.4872 -0.098525Q37.4948 -0.0497734 36.5061 0.0476125Q35.5173 0.144998 34.5345 0.290784Q33.5517 0.436569 32.5772 0.630403Q31.6027 0.824237 30.639 1.06565Q29.6752 1.30707 28.7244 1.59548Q27.7736 1.8839 26.8381 2.21862Q25.9027 2.55334 24.9847 2.93356Q24.0668 3.31378 23.1686 3.73858Q22.2705 4.16338 21.3942 4.63174Q20.518 5.1001 19.6658 5.61089Q18.8136 6.12168 17.9875 6.67368Q17.1614 7.22567 16.3633 7.81753Q15.5653 8.40939 14.7972 9.0397Q14.0292 9.67001 13.293 10.3372Q12.5569 11.0045 11.8543 11.707Q11.1518 12.4096 10.4845 13.1458Q9.81729 13.8819 9.18698 14.65Q8.55667 15.418 7.96481 16.216Q7.37294 17.0141 6.82095 17.8402Q6.26896 18.6663 5.75817 19.5185Q5.24738 20.3707 4.77902 21.247Q4.31066 22.1232 3.88585 23.0214Q3.46105 23.9195 3.08083 24.8375Q2.70061 25.7554 2.36589 26.6909Q2.03117 27.6263 1.74276 28.5771Q1.45434 29.5279 1.21293 30.4917Q0.971514 31.4555 0.77768 32.4299Q0.583846 33.4044 0.43806 34.3872Q0.292275 35.37 0.194889 36.3588Q0.0975033 37.3476 0.0487517 38.3399Q0 39.3323 0 40.3259L0 80.801L200 80.801L200 40.3259Q200 39.3323 199.951 38.3399Q199.902 37.3476 199.805 36.3588Q199.708 35.37 199.562 34.3872Q199.416 33.4044 199.222 32.4299Q199.028 31.4555 198.787 30.4917Q198.546 29.5279 198.257 28.5771Q197.969 27.6263 197.634 26.6909Q197.299 25.7554 196.919 24.8375Q196.539 23.9195 196.114 23.0214Q195.689 22.1232 195.221 21.247Q194.753 20.3707 194.242 19.5185Q193.731 18.6663 193.179 17.8402Q192.627 17.0141 192.035 16.216Q191.443 15.418 190.813 14.65Q190.183 13.8819 189.515 13.1458Q188.848 12.4096 188.146 11.707Q187.443 11.0045 186.707 10.3372Q185.971 9.67001 185.203 9.0397Q184.435 8.40939 183.637 7.81753Q182.839 7.22567 182.013 6.67368Q181.186 6.12168 180.334 5.61089Q179.482 5.1001 178.606 4.63174Q177.73 4.16338 176.831 3.73858Q175.933 3.31378 175.015 2.93356Q174.097 2.55334 173.162 2.21862Q172.226 1.8839 171.276 1.59548Q170.325 1.30707 169.361 1.06565Q168.397 0.824237 167.423 0.630403Q166.448 0.436569 165.465 0.290784Q164.483 0.144998 163.494 0.0476125Q162.505 -0.0497734 161.513 -0.098525Q160.52 -0.147277 159.527 -0.147277L133.571 -0.147277C133.853 0.975429 134 2.12723 134 3.301Z" transform="translate(32 29.199)" id="path_1" />
    <clipPath id="mask_1">
      <use xlink:href="#path_1" />
    </clipPath>
  </defs>
  <g id="ClothingGraphic-Shirt">
    <path d="M134 3.301C134 15.1751 119.002 24.801 100.5 24.801C81.9985 24.801 67 15.1751 67 3.301C67 2.12723 67.1466 0.975429 67.4286 -0.147277L40.4731 -0.147277Q39.4796 -0.147277 38.4872 -0.098525Q37.4948 -0.0497734 36.5061 0.0476125Q35.5173 0.144998 34.5345 0.290784Q33.5517 0.436569 32.5772 0.630403Q31.6027 0.824237 30.639 1.06565Q29.6752 1.30707 28.7244 1.59548Q27.7736 1.8839 26.8381 2.21862Q25.9027 2.55334 24.9847 2.93356Q24.0668 3.31378 23.1686 3.73858Q22.2705 4.16338 21.3942 4.63174Q20.518 5.1001 19.6658 5.61089Q18.8136 6.12168 17.9875 6.67368Q17.1614 7.22567 16.3633 7.81753Q15.5653 8.40939 14.7972 9.0397Q14.0292 9.67001 13.293 10.3372Q12.5569 11.0045 11.8543 11.707Q11.1518 12.4096 10.4845 13.1458Q9.81729 13.8819 9.18698 14.65Q8.55667 15.418 7.96481 16.216Q7.37294 17.0141 6.82095 17.8402Q6.26896 18.6663 5.75817 19.5185Q5.24738 20.3707 4.77902 21.247Q4.31066 22.1232 3.88585 23.0214Q3.46105 23.9195 3.08083 24.8375Q2.70061 25.7554 2.36589 26.6909Q2.03117 27.6263 1.74276 28.5771Q1.45434 29.5279 1.21293 30.4917Q0.971514 31.4555 0.77768 32.4299Q0.583846 33.4044 0.43806 34.3872Q0.292275 35.37 0.194889 36.3588Q0.0975033 37.3476 0.0487517 38.3399Q0 39.3323 0 40.3259L0 80.801L200 80.801L200 40.3259Q200 39.3323 199.951 38.3399Q199.902 37.3476 199.805 36.3588Q199.708 35.37 199.562 34.3872Q199.416 33.4044 199.222 32.4299Q199.028 31.4555 198.787 30.4917Q198.546 29.5279 198.257 28.5771Q197.969 27.6263 197.634 26.6909Q197.299 25.7554 196.919 24.8375Q196.539 23.9195 196.114 23.0214Q195.689 22.1232 195.221 21.247Q194.753 20.3707 194.242 19.5185Q193.731 18.6663 193.179 17.8402Q192.627 17.0141 192.035 16.216Q191.443 15.418 190.813 14.65Q190.183 13.8819 189.515 13.1458Q188.848 12.4096 188.146 11.707Q187.443 11.0045 186.707 10.3372Q185.971 9.67001 185.203 9.0397Q184.435 8.40939 183.637 7.81753Q182.839 7.22567 182.013 6.67368Q181.186 6.12168 180.334 5.61089Q179.482 5.1001 178.606 4.63174Q177.73 4.16338 176.831 3.73858Q175.933 3.31378 175.015 2.93356Q174.097 2.55334 173.162 2.21862Q172.226 1.8839 171.276 1.59548Q170.325 1.30707 169.361 1.06565Q168.397 0.824237 167.423 0.630403Q166.448 0.436569 165.465 0.290784Q164.483 0.144998 163.494 0.0476125Q162.505 -0.0497734 161.513 -0.098525Q160.52 -0.147277 159.527 -0.147277L133.571 -0.147277C133.853 0.975429 134 2.12723 134 3.301Z" transform="translate(32 29.199)" id="Clothes" fill="#E6E6E6" fill-rule="evenodd" stroke="none" />
    <g clip-path="url(#mask_1)">
      <g id="Color-Fabric">
        <path d="M0 0L264 0L264 110L0 110L0 0Z" id="ðŸ–Color" fill="#E6E6E6" fill-rule="evenodd" stroke="none" />
      </g>
      <g id="Graphic" transform="translate(77 58)">
      </g>
    </g>
  </g>
</svg>