<?xml version="1.0" encoding="utf-8"?>
<svg width="264px" height="111px" viewbox="0 0 264 111" version="1.1" xmlns:xlink="http://www.w3.org/1999/xlink" xmlns="http://www.w3.org/2000/svg">
  <defs>
    <path d="M76 -6.37542e-08C60.7014 1.71187 48.404 5.95378 44.9633 15.9286L40.4993 15.9286Q39.5051 15.9286 38.5121 15.9774Q37.5191 16.0262 36.5296 16.1236Q35.5402 16.2211 34.5568 16.3669Q33.5733 16.5128 32.5982 16.7068Q31.6231 16.9007 30.6587 17.1423Q29.6943 17.3839 28.7429 17.6725Q27.7916 17.9611 26.8555 18.296Q25.9194 18.631 25.0009 19.0114Q24.0823 19.3919 23.1836 19.817Q22.2848 20.242 21.408 20.7107Q20.5312 21.1794 19.6785 21.6905Q18.8257 22.2016 17.9991 22.754Q17.1724 23.3063 16.3739 23.8985Q15.5753 24.4908 14.8068 25.1215Q14.0383 25.7522 13.3016 26.4199Q12.565 27.0876 11.862 27.7906Q11.159 28.4936 10.4913 29.2302Q9.82362 29.9669 9.19291 30.7354Q8.56219 31.5039 7.96995 32.3025Q7.3777 33.101 6.82536 33.9277Q6.27301 34.7543 5.76189 35.6071Q5.25076 36.4598 4.7821 37.3366Q4.31344 38.2134 3.88836 39.1122Q3.46329 40.0109 3.08282 40.9295Q2.70236 41.848 2.36742 42.7841Q2.03249 43.7201 1.74388 44.6715Q1.45528 45.6229 1.21371 46.5873Q0.972141 47.5517 0.778182 48.5268Q0.584223 49.5019 0.438343 50.4854Q0.292464 51.4688 0.195015 52.4582Q0.0975662 53.4476 0.0487831 54.4407Q0 55.4337 0 56.4279L0 96.9291L200 96.9291L200 56.4279Q200 55.4337 199.951 54.4407Q199.902 53.4476 199.805 52.4582Q199.708 51.4688 199.562 50.4854Q199.416 49.5019 199.222 48.5268Q199.028 47.5517 198.786 46.5873Q198.545 45.6229 198.256 44.6715Q197.967 43.7201 197.633 42.7841Q197.298 41.848 196.917 40.9295Q196.537 40.0109 196.112 39.1122Q195.687 38.2134 195.218 37.3366Q194.749 36.4598 194.238 35.6071Q193.727 34.7543 193.175 33.9277Q192.622 33.101 192.03 32.3025Q191.438 31.5039 190.807 30.7354Q190.176 29.9669 189.509 29.2302Q188.841 28.4936 188.138 27.7906Q187.435 27.0875 186.698 26.4199Q185.962 25.7522 185.193 25.1215Q184.425 24.4908 183.626 23.8985Q182.828 23.3063 182.001 22.754Q181.174 22.2016 180.321 21.6905Q179.469 21.1794 178.592 20.7107Q177.715 20.242 176.816 19.817Q175.918 19.3919 174.999 19.0114Q174.081 18.631 173.145 18.296Q172.208 17.9611 171.257 17.6725Q170.306 17.3839 169.341 17.1423Q168.377 16.9007 167.402 16.7068Q166.427 16.5128 165.443 16.3669Q164.46 16.2211 163.47 16.1236Q162.481 16.0262 161.488 15.9774Q160.495 15.9286 159.501 15.9286L155.037 15.9286C151.596 5.95378 139.299 1.71187 124 -1.33404e-07L124 18.9301Q124 19.5193 123.971 20.1077Q123.942 20.6961 123.884 21.2824Q123.827 21.8687 123.74 22.4515Q123.654 23.0343 123.539 23.6121Q123.424 24.1899 123.281 24.7614Q123.138 25.3329 122.967 25.8967Q122.796 26.4604 122.597 27.0151Q122.399 27.5698 122.173 28.1141Q121.948 28.6584 121.696 29.191Q121.444 29.7236 121.166 30.2432Q120.889 30.7627 120.586 31.2681Q120.283 31.7734 119.955 32.2632Q119.628 32.7531 119.277 33.2263Q118.926 33.6995 118.552 34.1549Q118.179 34.6103 117.783 35.0469Q117.387 35.4834 116.971 35.9Q116.554 36.3166 116.118 36.7122Q115.681 37.1078 115.226 37.4816Q114.77 37.8553 114.297 38.2063Q113.824 38.5572 113.334 38.8845Q112.844 39.2119 112.339 39.5147Q111.834 39.8176 111.314 40.0953Q110.794 40.3731 110.262 40.625Q109.729 40.8768 109.185 41.1023Q108.641 41.3277 108.086 41.5262Q107.531 41.7247 106.968 41.8957Q106.404 42.0667 105.832 42.2099Q105.261 42.353 104.683 42.468Q104.105 42.5829 103.522 42.6694Q102.94 42.7558 102.353 42.8136Q101.767 42.8713 101.179 42.9002Q100.59 42.9291 100.001 42.9291L99.999 42.9291Q99.4099 42.9291 98.8214 42.9002Q98.233 42.8713 97.6467 42.8135Q97.0604 42.7558 96.4776 42.6694Q95.8948 42.5829 95.317 42.468Q94.7392 42.353 94.1677 42.2099Q93.5962 42.0667 93.0325 41.8957Q92.4687 41.7247 91.914 41.5262Q91.3593 41.3277 90.815 41.1023Q90.2707 40.8768 89.7381 40.625Q89.2055 40.3731 88.686 40.0953Q88.1664 39.8176 87.661 39.5147Q87.1557 39.2119 86.6659 38.8845Q86.176 38.5572 85.7028 38.2063Q85.2296 37.8553 84.7742 37.4816Q84.3188 37.1078 83.8823 36.7122Q83.4457 36.3166 83.0291 35.9Q82.6126 35.4834 82.2169 35.0469Q81.8213 34.6103 81.4475 34.1549Q81.0738 33.6995 80.7228 33.2263Q80.3719 32.7531 80.0446 32.2632Q79.7172 31.7734 79.4144 31.2681Q79.1115 30.7627 78.8338 30.2432Q78.556 29.7236 78.3041 29.191Q78.0523 28.6584 77.8268 28.1141Q77.6013 27.5698 77.4029 27.0151Q77.2044 26.4604 77.0334 25.8967Q76.8624 25.3329 76.7192 24.7614Q76.5761 24.1899 76.4611 23.6121Q76.3462 23.0343 76.2597 22.4515Q76.1733 21.8687 76.1156 21.2824Q76.0578 20.6961 76.0289 20.1077Q76 19.5193 76 18.9301L76 -6.37542e-08Z" transform="translate(32 13.070886)" id="path_1" />
    <clipPath id="mask_1">
      <use xlink:href="#path_1" />
    </clipPath>
  </defs>
  <g id="ClothingHoodie">
    <path d="M76 -6.37542e-08C60.7014 1.71187 48.404 5.95378 44.9633 15.9286L40.4993 15.9286Q39.5051 15.9286 38.5121 15.9774Q37.5191 16.0262 36.5296 16.1236Q35.5402 16.2211 34.5568 16.3669Q33.5733 16.5128 32.5982 16.7068Q31.6231 16.9007 30.6587 17.1423Q29.6943 17.3839 28.7429 17.6725Q27.7916 17.9611 26.8555 18.296Q25.9194 18.631 25.0009 19.0114Q24.0823 19.3919 23.1836 19.817Q22.2848 20.242 21.408 20.7107Q20.5312 21.1794 19.6785 21.6905Q18.8257 22.2016 17.9991 22.754Q17.1724 23.3063 16.3739 23.8985Q15.5753 24.4908 14.8068 25.1215Q14.0383 25.7522 13.3016 26.4199Q12.565 27.0876 11.862 27.7906Q11.159 28.4936 10.4913 29.2302Q9.82362 29.9669 9.19291 30.7354Q8.56219 31.5039 7.96995 32.3025Q7.3777 33.101 6.82536 33.9277Q6.27301 34.7543 5.76189 35.6071Q5.25076 36.4598 4.7821 37.3366Q4.31344 38.2134 3.88836 39.1122Q3.46329 40.0109 3.08282 40.9295Q2.70236 41.848 2.36742 42.7841Q2.03249 43.7201 1.74388 44.6715Q1.45528 45.6229 1.21371 46.5873Q0.972141 47.5517 0.778182 48.5268Q0.584223 49.5019 0.438343 50.4854Q0.292464 51.4688 0.195015 52.4582Q0.0975662 53.4476 0.0487831 54.4407Q0 55.4337 0 56.4279L0 96.9291L200 96.9291L200 56.4279Q200 55.4337 199.951 54.4407Q199.902 53.4476 199.805 52.4582Q199.708 51.4688 199.562 50.4854Q199.416 49.5019 199.222 48.5268Q199.028 47.5517 198.786 46.5873Q198.545 45.6229 198.256 44.6715Q197.967 43.7201 197.633 42.7841Q197.298 41.848 196.917 40.9295Q196.537 40.0109 196.112 39.1122Q195.687 38.2134 195.218 37.3366Q194.749 36.4598 194.238 35.6071Q193.727 34.7543 193.175 33.9277Q192.622 33.101 192.03 32.3025Q191.438 31.5039 190.807 30.7354Q190.176 29.9669 189.509 29.2302Q188.841 28.4936 188.138 27.7906Q187.435 27.0875 186.698 26.4199Q185.962 25.7522 185.193 25.1215Q184.425 24.4908 183.626 23.8985Q182.828 23.3063 182.001 22.754Q181.174 22.2016 180.321 21.6905Q179.469 21.1794 178.592 20.7107Q177.715 20.242 176.816 19.817Q175.918 19.3919 174.999 19.0114Q174.081 18.631 173.145 18.296Q172.208 17.9611 171.257 17.6725Q170.306 17.3839 169.341 17.1423Q168.377 16.9007 167.402 16.7068Q166.427 16.5128 165.443 16.3669Q164.46 16.2211 163.47 16.1236Q162.481 16.0262 161.488 15.9774Q160.495 15.9286 159.501 15.9286L155.037 15.9286C151.596 5.95378 139.299 1.71187 124 -1.33404e-07L124 18.9301Q124 19.5193 123.971 20.1077Q123.942 20.6961 123.884 21.2824Q123.827 21.8687 123.74 22.4515Q123.654 23.0343 123.539 23.6121Q123.424 24.1899 123.281 24.7614Q123.138 25.3329 122.967 25.8967Q122.796 26.4604 122.597 27.0151Q122.399 27.5698 122.173 28.1141Q121.948 28.6584 121.696 29.191Q121.444 29.7236 121.166 30.2432Q120.889 30.7627 120.586 31.2681Q120.283 31.7734 119.955 32.2632Q119.628 32.7531 119.277 33.2263Q118.926 33.6995 118.552 34.1549Q118.179 34.6103 117.783 35.0469Q117.387 35.4834 116.971 35.9Q116.554 36.3166 116.118 36.7122Q115.681 37.1078 115.226 37.4816Q114.77 37.8553 114.297 38.2063Q113.824 38.5572 113.334 38.8845Q112.844 39.2119 112.339 39.5147Q111.834 39.8176 111.314 40.0953Q110.794 40.3731 110.262 40.625Q109.729 40.8768 109.185 41.1023Q108.641 41.3277 108.086 41.5262Q107.531 41.7247 106.968 41.8957Q106.404 42.0667 105.832 42.2099Q105.261 42.353 104.683 42.468Q104.105 42.5829 103.522 42.6694Q102.94 42.7558 102.353 42.8136Q101.767 42.8713 101.179 42.9002Q100.59 42.9291 100.001 42.9291L99.999 42.9291Q99.4099 42.9291 98.8214 42.9002Q98.233 42.8713 97.6467 42.8135Q97.0604 42.7558 96.4776 42.6694Q95.8948 42.5829 95.317 42.468Q94.7392 42.353 94.1677 42.2099Q93.5962 42.0667 93.0325 41.8957Q92.4687 41.7247 91.914 41.5262Q91.3593 41.3277 90.815 41.1023Q90.2707 40.8768 89.7381 40.625Q89.2055 40.3731 88.686 40.0953Q88.1664 39.8176 87.661 39.5147Q87.1557 39.2119 86.6659 38.8845Q86.176 38.5572 85.7028 38.2063Q85.2296 37.8553 84.7742 37.4816Q84.3188 37.1078 83.8823 36.7122Q83.4457 36.3166 83.0291 35.9Q82.6126 35.4834 82.2169 35.0469Q81.8213 34.6103 81.4475 34.1549Q81.0738 33.6995 80.7228 33.2263Q80.3719 32.7531 80.0446 32.2632Q79.7172 31.7734 79.4144 31.2681Q79.1115 30.7627 78.8338 30.2432Q78.556 29.7236 78.3041 29.191Q78.0523 28.6584 77.8268 28.1141Q77.6013 27.5698 77.4029 27.0151Q77.2044 26.4604 77.0334 25.8967Q76.8624 25.3329 76.7192 24.7614Q76.5761 24.1899 76.4611 23.6121Q76.3462 23.0343 76.2597 22.4515Q76.1733 21.8687 76.1156 21.2824Q76.0578 20.6961 76.0289 20.1077Q76 19.5193 76 18.9301L76 -6.37542e-08Z" transform="translate(32 13.070886)" id="Hoodie" fill="#B7C1DB" fill-rule="evenodd" stroke="none" />
    <g clip-path="url(#mask_1)">
      <g id="Color-Fabric">
        <path d="M0 0L264 0L264 110L0 110L0 0Z" id="ðŸ–Color" fill="#E6E6E6" fill-rule="evenodd" stroke="none" />
      </g>
      <path d="M-2.22045e-14 1.43851e-06C2.20375 1.3098 4.54677 2.51053 7 3.58879L7 51.8497L0 51.8497L0 1.43851e-06L-2.22045e-14 1.43851e-06ZM74 1.43851e-06C71.7962 1.3098 69.4532 2.51053 67 3.58879L67 40.3507Q67 40.5226 67.0169 40.6937Q67.0337 40.8648 67.0672 41.0334Q67.1008 41.2019 67.1507 41.3664Q67.2006 41.5309 67.2663 41.6897Q67.3321 41.8486 67.4132 42.0002Q67.4942 42.1518 67.5897 42.2947Q67.6852 42.4376 67.7942 42.5705Q67.9033 42.7034 68.0248 42.8249Q68.1464 42.9465 68.2793 43.0555Q68.4121 43.1646 68.555 43.26Q68.698 43.3555 68.8496 43.4366Q69.0012 43.5176 69.16 43.5834Q69.3188 43.6492 69.4833 43.6991Q69.6478 43.749 69.8164 43.7825Q69.985 43.816 70.156 43.8329Q70.3271 43.8497 70.499 43.8497L70.501 43.8497Q70.6729 43.8497 70.844 43.8329Q71.015 43.816 71.1836 43.7825Q71.3522 43.749 71.5167 43.6991Q71.6812 43.6492 71.84 43.5834Q71.9988 43.5176 72.1504 43.4366Q72.302 43.3555 72.4449 43.26Q72.5879 43.1646 72.7207 43.0555Q72.8536 42.9465 72.9752 42.8249Q73.0967 42.7034 73.2057 42.5705Q73.3148 42.4376 73.4103 42.2947Q73.5058 42.1518 73.5868 42.0002Q73.6679 41.8486 73.7336 41.6897Q73.7994 41.5309 73.8493 41.3664Q73.8992 41.2019 73.9328 41.0334Q73.9663 40.8648 73.9832 40.6937Q74 40.5226 74 40.3507L74 1.43851e-06Z" transform="translate(95 58.15026)" id="Straps" fill="#F4F4F4" fill-rule="evenodd" stroke="none" />
      <path d="M122.5 18.3526C122.5 38.7446 94.6788 55.2756 66.5 55.2756C38.3212 55.2756 10.5 38.7446 10.5 18.3526C10.5 8.9817 16.3751 3.35011 25.4601 2.27949e-07C10.4093 2.84682 0 8.51853 0 19.5833C0 39.2957 33.0377 55.2756 66.5 55.2756C99.9623 55.2756 133 39.2957 133 19.5833C133 8.51853 122.591 2.84682 107.54 -1.15648e-06C116.625 3.35011 122.5 8.9817 122.5 18.3526Z" transform="translate(65.5 12.724354)" id="Shadow" fill="#000000" fill-opacity="0.16078432" fill-rule="evenodd" stroke="none" />
    </g>
  </g>
</svg>