<?xml version="1.0" encoding="utf-8"?>
<svg width="264px" height="110px" viewbox="0 0 264 110" version="1.1" xmlns:xlink="http://www.w3.org/1999/xlink" xmlns="http://www.w3.org/2000/svg">
  <defs>
    <path d="M150 4.34763C150 20.629 127.838 33.8277 100.5 33.8277C73.1619 33.8277 51 20.629 51 4.34763C51 1.82944 51.5302 -0.615005 52.5276 -2.94828L40.4731 -2.94828Q39.4796 -2.94828 38.4872 -2.89952Q37.4948 -2.85077 36.5061 -2.75339Q35.5173 -2.656 34.5345 -2.51022Q33.5517 -2.36443 32.5772 -2.1706Q31.6027 -1.97676 30.639 -1.73535Q29.6752 -1.49393 28.7244 -1.20552Q27.7736 -0.917102 26.8381 -0.582381Q25.9027 -0.247661 24.9847 0.132558Q24.0668 0.512776 23.1686 0.937578Q22.2705 1.36238 21.3942 1.83074Q20.518 2.2991 19.6658 2.80989Q18.8136 3.32068 17.9875 3.87268Q17.1614 4.42467 16.3633 5.01653Q15.5653 5.6084 14.7972 6.2387Q14.0292 6.86901 13.293 7.53624Q12.5569 8.20348 11.8543 8.90603Q11.1518 9.60858 10.4845 10.3448Q9.81729 11.0809 9.18698 11.849Q8.55667 12.617 7.96481 13.415Q7.37294 14.2131 6.82095 15.0392Q6.26896 15.8653 5.75817 16.7175Q5.24738 17.5697 4.77902 18.446Q4.31066 19.3222 3.88585 20.2204Q3.46105 21.1185 3.08083 22.0365Q2.70061 22.9544 2.36589 23.8899Q2.03117 24.8253 1.74276 25.7761Q1.45434 26.7269 1.21293 27.6907Q0.971514 28.6545 0.77768 29.6289Q0.583846 30.6034 0.43806 31.5862Q0.292275 32.569 0.194889 33.5578Q0.0975033 34.5466 0.0487517 35.5389Q0 36.5313 0 37.5249L0 78L200 78L200 37.5249Q200 36.5313 199.951 35.5389Q199.902 34.5466 199.805 33.5578Q199.708 32.569 199.562 31.5862Q199.416 30.6034 199.222 29.6289Q199.028 28.6545 198.787 27.6907Q198.546 26.7269 198.257 25.7761Q197.969 24.8253 197.634 23.8899Q197.299 22.9544 196.919 22.0365Q196.539 21.1185 196.114 20.2204Q195.689 19.3222 195.221 18.446Q194.753 17.5697 194.242 16.7175Q193.731 15.8653 193.179 15.0392Q192.627 14.2131 192.035 13.415Q191.443 12.617 190.813 11.849Q190.183 11.0809 189.515 10.3448Q188.848 9.60858 188.146 8.90603Q187.443 8.20348 186.707 7.53624Q185.971 6.86901 185.203 6.2387Q184.435 5.6084 183.637 5.01653Q182.839 4.42467 182.013 3.87268Q181.186 3.32068 180.334 2.80989Q179.482 2.2991 178.606 1.83074Q177.73 1.36238 176.831 0.937578Q175.933 0.512776 175.015 0.132558Q174.097 -0.247661 173.162 -0.582381Q172.226 -0.917102 171.276 -1.20552Q170.325 -1.49393 169.361 -1.73535Q168.397 -1.97676 167.423 -2.1706Q166.448 -2.36443 165.465 -2.51022Q164.483 -2.656 163.494 -2.75339Q162.505 -2.85077 161.513 -2.89952Q160.52 -2.94828 159.527 -2.94828L148.472 -2.94828C149.47 -0.615005 150 1.82944 150 4.34763Z" transform="translate(32 32)" id="path_1" />
    <clipPath id="mask_1">
      <use xlink:href="#path_1" />
    </clipPath>
  </defs>
  <g id="ClothingShirt-Scoop-Neck">
    <path d="M150 4.34763C150 20.629 127.838 33.8277 100.5 33.8277C73.1619 33.8277 51 20.629 51 4.34763C51 1.82944 51.5302 -0.615005 52.5276 -2.94828L40.4731 -2.94828Q39.4796 -2.94828 38.4872 -2.89952Q37.4948 -2.85077 36.5061 -2.75339Q35.5173 -2.656 34.5345 -2.51022Q33.5517 -2.36443 32.5772 -2.1706Q31.6027 -1.97676 30.639 -1.73535Q29.6752 -1.49393 28.7244 -1.20552Q27.7736 -0.917102 26.8381 -0.582381Q25.9027 -0.247661 24.9847 0.132558Q24.0668 0.512776 23.1686 0.937578Q22.2705 1.36238 21.3942 1.83074Q20.518 2.2991 19.6658 2.80989Q18.8136 3.32068 17.9875 3.87268Q17.1614 4.42467 16.3633 5.01653Q15.5653 5.6084 14.7972 6.2387Q14.0292 6.86901 13.293 7.53624Q12.5569 8.20348 11.8543 8.90603Q11.1518 9.60858 10.4845 10.3448Q9.81729 11.0809 9.18698 11.849Q8.55667 12.617 7.96481 13.415Q7.37294 14.2131 6.82095 15.0392Q6.26896 15.8653 5.75817 16.7175Q5.24738 17.5697 4.77902 18.446Q4.31066 19.3222 3.88585 20.2204Q3.46105 21.1185 3.08083 22.0365Q2.70061 22.9544 2.36589 23.8899Q2.03117 24.8253 1.74276 25.7761Q1.45434 26.7269 1.21293 27.6907Q0.971514 28.6545 0.77768 29.6289Q0.583846 30.6034 0.43806 31.5862Q0.292275 32.569 0.194889 33.5578Q0.0975033 34.5466 0.0487517 35.5389Q0 36.5313 0 37.5249L0 78L200 78L200 37.5249Q200 36.5313 199.951 35.5389Q199.902 34.5466 199.805 33.5578Q199.708 32.569 199.562 31.5862Q199.416 30.6034 199.222 29.6289Q199.028 28.6545 198.787 27.6907Q198.546 26.7269 198.257 25.7761Q197.969 24.8253 197.634 23.8899Q197.299 22.9544 196.919 22.0365Q196.539 21.1185 196.114 20.2204Q195.689 19.3222 195.221 18.446Q194.753 17.5697 194.242 16.7175Q193.731 15.8653 193.179 15.0392Q192.627 14.2131 192.035 13.415Q191.443 12.617 190.813 11.849Q190.183 11.0809 189.515 10.3448Q188.848 9.60858 188.146 8.90603Q187.443 8.20348 186.707 7.53624Q185.971 6.86901 185.203 6.2387Q184.435 5.6084 183.637 5.01653Q182.839 4.42467 182.013 3.87268Q181.186 3.32068 180.334 2.80989Q179.482 2.2991 178.606 1.83074Q177.73 1.36238 176.831 0.937578Q175.933 0.512776 175.015 0.132558Q174.097 -0.247661 173.162 -0.582381Q172.226 -0.917102 171.276 -1.20552Q170.325 -1.49393 169.361 -1.73535Q168.397 -1.97676 167.423 -2.1706Q166.448 -2.36443 165.465 -2.51022Q164.483 -2.656 163.494 -2.75339Q162.505 -2.85077 161.513 -2.89952Q160.52 -2.94828 159.527 -2.94828L148.472 -2.94828C149.47 -0.615005 150 1.82944 150 4.34763Z" transform="translate(32 32)" id="Clothes" fill="#E6E6E6" fill-rule="evenodd" stroke="none" />
    <g clip-path="url(#mask_1)">
      <g id="Color-Fabric">
        <path d="M0 0L264 0L264 110L0 110L0 0Z" id="ðŸ–Color" fill="#E6E6E6" fill-rule="evenodd" stroke="none" />
      </g>
    </g>
  </g>
</svg>