<?xml version="1.0" encoding="utf-8"?>
<svg width="264px" height="110px" viewbox="0 0 264 110" version="1.1" xmlns:xlink="http://www.w3.org/1999/xlink" xmlns="http://www.w3.org/2000/svg">
  <defs>
    <path d="M60.5414 -0.884491L40.4731 -0.884491Q39.4796 -0.884491 38.4872 -0.835739Q37.4948 -0.786988 36.5061 -0.689602Q35.5173 -0.592216 34.5345 -0.44643Q33.5517 -0.300645 32.5772 -0.106811Q31.6027 0.0870228 30.639 0.328438Q29.6752 0.569853 28.7244 0.858269Q27.7736 1.14668 26.8381 1.4814Q25.9027 1.81612 24.9847 2.19634Q24.0668 2.57656 23.1686 3.00136Q22.2705 3.42616 21.3942 3.89453Q20.518 4.36289 19.6658 4.87368Q18.8136 5.38447 17.9875 5.93646Q17.1614 6.48845 16.3633 7.08032Q15.5653 7.67218 14.7972 8.30249Q14.0292 8.9328 13.293 9.60003Q12.5569 10.2673 11.8543 10.9698Q11.1518 11.6724 10.4845 12.4085Q9.81729 13.1447 9.18698 13.9128Q8.55667 14.6808 7.96481 15.4788Q7.37294 16.2769 6.82095 17.103Q6.26896 17.9291 5.75817 18.7813Q5.24738 19.6335 4.77902 20.5097Q4.31066 21.386 3.88585 22.2841Q3.46105 23.1823 3.08083 24.1002Q2.70061 25.0182 2.36589 25.9537Q2.03117 26.8891 1.74276 27.8399Q1.45434 28.7907 1.21293 29.7545Q0.971514 30.7183 0.77768 31.6927Q0.583846 32.6672 0.43806 33.65Q0.292275 34.6328 0.194889 35.6216Q0.0975033 36.6104 0.0487517 37.6027Q0 38.5951 0 39.5886L0 80.0638L200 80.0638L200 39.5886Q200 38.5951 199.951 37.6027Q199.902 36.6104 199.805 35.6216Q199.708 34.6328 199.562 33.65Q199.416 32.6672 199.222 31.6927Q199.028 30.7183 198.787 29.7545Q198.546 28.7907 198.257 27.8399Q197.969 26.8891 197.634 25.9537Q197.299 25.0182 196.919 24.1002Q196.539 23.1823 196.114 22.2841Q195.689 21.386 195.221 20.5097Q194.753 19.6335 194.242 18.7813Q193.731 17.9291 193.179 17.103Q192.627 16.2769 192.035 15.4788Q191.443 14.6808 190.813 13.9128Q190.183 13.1447 189.515 12.4085Q188.848 11.6724 188.146 10.9698Q187.443 10.2673 186.707 9.60003Q185.971 8.9328 185.203 8.30249Q184.435 7.67218 183.637 7.08032Q182.839 6.48845 182.013 5.93646Q181.186 5.38447 180.334 4.87368Q179.482 4.36289 178.606 3.89453Q177.73 3.42616 176.831 3.00136Q175.933 2.57656 175.015 2.19634Q174.097 1.81612 173.162 1.4814Q172.226 1.14668 171.276 0.858269Q170.325 0.569853 169.361 0.328438Q168.397 0.0870228 167.423 -0.106811Q166.448 -0.300645 165.465 -0.44643Q164.483 -0.592216 163.494 -0.689602Q162.505 -0.786988 161.513 -0.835739Q160.52 -0.884491 159.527 -0.884491L139.459 -0.884491Q139.313 0.152275 139.078 1.17243Q138.843 2.19258 138.519 3.18838Q138.196 4.18417 137.787 5.14803Q137.379 6.1119 136.888 7.03651Q136.397 7.96113 135.827 8.83946Q135.257 9.7178 134.613 10.5432Q133.969 11.3686 133.256 12.1347Q132.542 12.9009 131.765 13.602L102.678 39.832Q102.542 39.9549 102.395 40.0648Q102.248 40.1748 102.091 40.2707Q101.935 40.3667 101.77 40.448Q101.606 40.5292 101.435 40.5951Q101.263 40.6609 101.087 40.7108Q100.91 40.7606 100.729 40.7941Q100.549 40.8276 100.366 40.8444Q100.184 40.8612 100 40.8612Q99.8164 40.8612 99.6337 40.8444Q99.4509 40.8276 99.2705 40.7941Q99.09 40.7606 98.9134 40.7108Q98.7368 40.6609 98.5655 40.5951Q98.3941 40.5292 98.2296 40.448Q98.065 40.3667 97.9086 40.2707Q97.7521 40.1748 97.6051 40.0648Q97.4582 39.9549 97.3219 39.832L68.2353 13.602Q67.4578 12.9009 66.7444 12.1347Q66.0309 11.3686 65.3868 10.5432Q64.7428 9.7178 64.1731 8.83946Q63.6034 7.96112 63.1123 7.03651Q62.6212 6.1119 62.2125 5.14803Q61.8039 4.18417 61.4807 3.18837Q61.1575 2.19258 60.9222 1.17243Q60.6869 0.152274 60.5414 -0.884491Z" transform="translate(32 29.936214)" id="path_1" />
    <clipPath id="mask_1">
      <use xlink:href="#path_1" />
    </clipPath>
  </defs>
  <g id="ClothingShirt-V-Neck">
    <path d="M60.5414 -0.884491L40.4731 -0.884491Q39.4796 -0.884491 38.4872 -0.835739Q37.4948 -0.786988 36.5061 -0.689602Q35.5173 -0.592216 34.5345 -0.44643Q33.5517 -0.300645 32.5772 -0.106811Q31.6027 0.0870228 30.639 0.328438Q29.6752 0.569853 28.7244 0.858269Q27.7736 1.14668 26.8381 1.4814Q25.9027 1.81612 24.9847 2.19634Q24.0668 2.57656 23.1686 3.00136Q22.2705 3.42616 21.3942 3.89453Q20.518 4.36289 19.6658 4.87368Q18.8136 5.38447 17.9875 5.93646Q17.1614 6.48845 16.3633 7.08032Q15.5653 7.67218 14.7972 8.30249Q14.0292 8.9328 13.293 9.60003Q12.5569 10.2673 11.8543 10.9698Q11.1518 11.6724 10.4845 12.4085Q9.81729 13.1447 9.18698 13.9128Q8.55667 14.6808 7.96481 15.4788Q7.37294 16.2769 6.82095 17.103Q6.26896 17.9291 5.75817 18.7813Q5.24738 19.6335 4.77902 20.5097Q4.31066 21.386 3.88585 22.2841Q3.46105 23.1823 3.08083 24.1002Q2.70061 25.0182 2.36589 25.9537Q2.03117 26.8891 1.74276 27.8399Q1.45434 28.7907 1.21293 29.7545Q0.971514 30.7183 0.77768 31.6927Q0.583846 32.6672 0.43806 33.65Q0.292275 34.6328 0.194889 35.6216Q0.0975033 36.6104 0.0487517 37.6027Q0 38.5951 0 39.5886L0 80.0638L200 80.0638L200 39.5886Q200 38.5951 199.951 37.6027Q199.902 36.6104 199.805 35.6216Q199.708 34.6328 199.562 33.65Q199.416 32.6672 199.222 31.6927Q199.028 30.7183 198.787 29.7545Q198.546 28.7907 198.257 27.8399Q197.969 26.8891 197.634 25.9537Q197.299 25.0182 196.919 24.1002Q196.539 23.1823 196.114 22.2841Q195.689 21.386 195.221 20.5097Q194.753 19.6335 194.242 18.7813Q193.731 17.9291 193.179 17.103Q192.627 16.2769 192.035 15.4788Q191.443 14.6808 190.813 13.9128Q190.183 13.1447 189.515 12.4085Q188.848 11.6724 188.146 10.9698Q187.443 10.2673 186.707 9.60003Q185.971 8.9328 185.203 8.30249Q184.435 7.67218 183.637 7.08032Q182.839 6.48845 182.013 5.93646Q181.186 5.38447 180.334 4.87368Q179.482 4.36289 178.606 3.89453Q177.73 3.42616 176.831 3.00136Q175.933 2.57656 175.015 2.19634Q174.097 1.81612 173.162 1.4814Q172.226 1.14668 171.276 0.858269Q170.325 0.569853 169.361 0.328438Q168.397 0.0870228 167.423 -0.106811Q166.448 -0.300645 165.465 -0.44643Q164.483 -0.592216 163.494 -0.689602Q162.505 -0.786988 161.513 -0.835739Q160.52 -0.884491 159.527 -0.884491L139.459 -0.884491Q139.313 0.152275 139.078 1.17243Q138.843 2.19258 138.519 3.18838Q138.196 4.18417 137.787 5.14803Q137.379 6.1119 136.888 7.03651Q136.397 7.96113 135.827 8.83946Q135.257 9.7178 134.613 10.5432Q133.969 11.3686 133.256 12.1347Q132.542 12.9009 131.765 13.602L102.678 39.832Q102.542 39.9549 102.395 40.0648Q102.248 40.1748 102.091 40.2707Q101.935 40.3667 101.77 40.448Q101.606 40.5292 101.435 40.5951Q101.263 40.6609 101.087 40.7108Q100.91 40.7606 100.729 40.7941Q100.549 40.8276 100.366 40.8444Q100.184 40.8612 100 40.8612Q99.8164 40.8612 99.6337 40.8444Q99.4509 40.8276 99.2705 40.7941Q99.09 40.7606 98.9134 40.7108Q98.7368 40.6609 98.5655 40.5951Q98.3941 40.5292 98.2296 40.448Q98.065 40.3667 97.9086 40.2707Q97.7521 40.1748 97.6051 40.0648Q97.4582 39.9549 97.3219 39.832L68.2353 13.602Q67.4578 12.9009 66.7444 12.1347Q66.0309 11.3686 65.3868 10.5432Q64.7428 9.7178 64.1731 8.83946Q63.6034 7.96112 63.1123 7.03651Q62.6212 6.1119 62.2125 5.14803Q61.8039 4.18417 61.4807 3.18837Q61.1575 2.19258 60.9222 1.17243Q60.6869 0.152274 60.5414 -0.884491Z" transform="translate(32 29.936214)" id="Clothes" fill="#E6E6E6" fill-rule="evenodd" stroke="none" />
    <g clip-path="url(#mask_1)">
      <g id="Color-Fabric">
        <path d="M0 0L264 0L264 110L0 110L0 0Z" id="ðŸ–Color" fill="#E6E6E6" fill-rule="evenodd" stroke="none" />
      </g>
    </g>
  </g>
</svg>