<?xml version="1.0" encoding="utf-8"?>
<svg width="264px" height="110px" viewbox="0 0 264 110" version="1.1" xmlns:xlink="http://www.w3.org/1999/xlink" xmlns="http://www.w3.org/2000/svg">
  <defs>
    <path d="M134 1.1281C134 12.9912 119.002 22.6081 100.5 22.6081C81.9985 22.6081 67 12.9912 67 1.1281C67 0.692989 67.0202 0.2609 67.06 -0.167803L40.4731 -0.167803Q39.4796 -0.167803 38.4872 -0.119051Q37.4948 -0.0702996 36.5061 0.0270863Q35.5173 0.124472 34.5345 0.270258Q33.5517 0.416043 32.5772 0.609877Q31.6027 0.803711 30.639 1.04513Q29.6752 1.28654 28.7244 1.57496Q27.7736 1.86337 26.8381 2.19809Q25.9027 2.53281 24.9847 2.91303Q24.0668 3.29325 23.1686 3.71805Q22.2705 4.14285 21.3942 4.61121Q20.518 5.07957 19.6658 5.59037Q18.8136 6.10116 17.9875 6.65315Q17.1614 7.20514 16.3633 7.797Q15.5653 8.38887 14.7972 9.01917Q14.0292 9.64948 13.293 10.3167Q12.5569 10.9839 11.8543 11.6865Q11.1518 12.3891 10.4845 13.1252Q9.81729 13.8614 9.18698 14.6294Q8.55667 15.3975 7.96481 16.1955Q7.37294 16.9935 6.82095 17.8197Q6.26896 18.6458 5.75817 19.498Q5.24738 20.3502 4.77902 21.2264Q4.31066 22.1027 3.88585 23.0008Q3.46105 23.899 3.08083 24.8169Q2.70061 25.7349 2.36589 26.6703Q2.03117 27.6058 1.74276 28.5566Q1.45434 29.5074 1.21293 30.4712Q0.971514 31.4349 0.77768 32.4094Q0.583846 33.3839 0.43806 34.3667Q0.292275 35.3495 0.194889 36.3383Q0.0975033 37.327 0.0487517 38.3194Q0 39.3118 0 40.3053L0 80.7805L200 80.7805L200 40.3053Q200 39.3118 199.951 38.3194Q199.902 37.327 199.805 36.3383Q199.708 35.3495 199.562 34.3667Q199.416 33.3839 199.222 32.4094Q199.028 31.4349 198.787 30.4712Q198.546 29.5074 198.257 28.5566Q197.969 27.6058 197.634 26.6703Q197.299 25.7349 196.919 24.8169Q196.539 23.899 196.114 23.0008Q195.689 22.1027 195.221 21.2264Q194.753 20.3502 194.242 19.498Q193.731 18.6458 193.179 17.8197Q192.627 16.9935 192.035 16.1955Q191.443 15.3975 190.813 14.6294Q190.183 13.8614 189.515 13.1252Q188.848 12.3891 188.146 11.6865Q187.443 10.9839 186.707 10.3167Q185.971 9.64948 185.203 9.01917Q184.435 8.38887 183.637 7.797Q182.839 7.20514 182.013 6.65315Q181.186 6.10116 180.334 5.59036Q179.482 5.07957 178.606 4.61121Q177.73 4.14285 176.831 3.71805Q175.933 3.29325 175.015 2.91303Q174.097 2.53281 173.162 2.19809Q172.226 1.86337 171.276 1.57496Q170.325 1.28654 169.361 1.04513Q168.397 0.803711 167.423 0.609877Q166.448 0.416043 165.465 0.270258Q164.483 0.124472 163.494 0.0270863Q162.505 -0.0702996 161.513 -0.119051Q160.52 -0.167803 159.527 -0.167803L133.94 -0.167803C133.98 0.2609 134 0.692989 134 1.1281Z" transform="translate(32 29.219526)" id="path_1" />
    <clipPath id="mask_1">
      <use xlink:href="#path_1" />
    </clipPath>
  </defs>
  <g id="ClothingShirt-Crew-Neck">
    <path d="M134 1.1281C134 12.9912 119.002 22.6081 100.5 22.6081C81.9985 22.6081 67 12.9912 67 1.1281C67 0.692989 67.0202 0.2609 67.06 -0.167803L40.4731 -0.167803Q39.4796 -0.167803 38.4872 -0.119051Q37.4948 -0.0702996 36.5061 0.0270863Q35.5173 0.124472 34.5345 0.270258Q33.5517 0.416043 32.5772 0.609877Q31.6027 0.803711 30.639 1.04513Q29.6752 1.28654 28.7244 1.57496Q27.7736 1.86337 26.8381 2.19809Q25.9027 2.53281 24.9847 2.91303Q24.0668 3.29325 23.1686 3.71805Q22.2705 4.14285 21.3942 4.61121Q20.518 5.07957 19.6658 5.59037Q18.8136 6.10116 17.9875 6.65315Q17.1614 7.20514 16.3633 7.797Q15.5653 8.38887 14.7972 9.01917Q14.0292 9.64948 13.293 10.3167Q12.5569 10.9839 11.8543 11.6865Q11.1518 12.3891 10.4845 13.1252Q9.81729 13.8614 9.18698 14.6294Q8.55667 15.3975 7.96481 16.1955Q7.37294 16.9935 6.82095 17.8197Q6.26896 18.6458 5.75817 19.498Q5.24738 20.3502 4.77902 21.2264Q4.31066 22.1027 3.88585 23.0008Q3.46105 23.899 3.08083 24.8169Q2.70061 25.7349 2.36589 26.6703Q2.03117 27.6058 1.74276 28.5566Q1.45434 29.5074 1.21293 30.4712Q0.971514 31.4349 0.77768 32.4094Q0.583846 33.3839 0.43806 34.3667Q0.292275 35.3495 0.194889 36.3383Q0.0975033 37.327 0.0487517 38.3194Q0 39.3118 0 40.3053L0 80.7805L200 80.7805L200 40.3053Q200 39.3118 199.951 38.3194Q199.902 37.327 199.805 36.3383Q199.708 35.3495 199.562 34.3667Q199.416 33.3839 199.222 32.4094Q199.028 31.4349 198.787 30.4712Q198.546 29.5074 198.257 28.5566Q197.969 27.6058 197.634 26.6703Q197.299 25.7349 196.919 24.8169Q196.539 23.899 196.114 23.0008Q195.689 22.1027 195.221 21.2264Q194.753 20.3502 194.242 19.498Q193.731 18.6458 193.179 17.8197Q192.627 16.9935 192.035 16.1955Q191.443 15.3975 190.813 14.6294Q190.183 13.8614 189.515 13.1252Q188.848 12.3891 188.146 11.6865Q187.443 10.9839 186.707 10.3167Q185.971 9.64948 185.203 9.01917Q184.435 8.38887 183.637 7.797Q182.839 7.20514 182.013 6.65315Q181.186 6.10116 180.334 5.59036Q179.482 5.07957 178.606 4.61121Q177.73 4.14285 176.831 3.71805Q175.933 3.29325 175.015 2.91303Q174.097 2.53281 173.162 2.19809Q172.226 1.86337 171.276 1.57496Q170.325 1.28654 169.361 1.04513Q168.397 0.803711 167.423 0.609877Q166.448 0.416043 165.465 0.270258Q164.483 0.124472 163.494 0.0270863Q162.505 -0.0702996 161.513 -0.119051Q160.52 -0.167803 159.527 -0.167803L133.94 -0.167803C133.98 0.2609 134 0.692989 134 1.1281Z" transform="translate(32 29.219526)" id="Clothes" fill="#E6E6E6" fill-rule="evenodd" stroke="none" />
    <g clip-path="url(#mask_1)">
      <g id="Color-Fabric">
        <path d="M0 0L264 0L264 110L0 110L0 0Z" id="ðŸ–Color" fill="#E6E6E6" fill-rule="evenodd" stroke="none" />
      </g>
      <g id="Shadowy" transform="translate(92 4)" opacity="0.59999996">
        <path d="M39.6351 53.8277C61.525 53.8277 79.2702 41.7779 79.2702 26.9138C79.2702 12.0497 61.525 0 39.6351 0C17.7452 0 0 12.0497 0 26.9138C0 41.7779 17.7452 53.8277 39.6351 53.8277Z" transform="translate(0.8648953 0.9337979)" id="Hola-ðŸ‘‹ðŸ¼" fill="#000000" fill-opacity="0.16078432" fill-rule="evenodd" stroke="none" />
      </g>
    </g>
  </g>
</svg>