<svg viewBox="39.89999999999998 18.200000000000017 186.20000000000002 194.60000000000002" xmlns="http://www.w3.org/2000/svg" xmlns:xlink="http://www.w3.org/1999/xlink" xmlns:blush="http://design.blush" overflow="visible" width="186.20000000000002px" height="194.60000000000002px">
    <g id="Hairstyle/Astronout" stroke="none" stroke-width="1" fill="none" fill-rule="evenodd">
        <path d="M157.153901,81.8089233 C152.875387,84.8881087 146.944923,87.9808041 139.003339,89.8379429 C136.837339,90.3439429 135.362339,87.6699429 136.935339,86.0969429 C139.768339,83.2649429 143.008339,79.5939429 144.867339,76.0529429 C144.867339,76.0529429 136.0888,73.4632 121.9228,78.7302 C106.4998,83.3702 93.8718,92.7000135 89.9808,97.9150135 C88.8338,99.4530135 86.5968,90.6059946 89.9808,84.6839946 C89.9808,84.6839946 78.2650595,91.6082 80.3581732,77.1422 L93.9378,67.7286002 C93.3577024,68.3086979 121.425301,44.5883868 136.935339,44.6129756 C164.846101,44.6574385 188.3288,70.1747449 188.3288,87.4531292 C188.3288,102.226129 203.572389,109.692493 191.3288,113.2352 C188.3288,114.103256 174.3208,97.5312 176.6818,87.9052 L173.5288,91.6082 C173.0408,93.5932 164.97823,89.6240921 164.97823,82.2283756 C164.97823,82.2283756 163.825444,77.0075086 157.153901,81.8089233 Z" id="Hair-Color" fill="#724133" blush:color="Hair-500" />
        <g id="Accessory" transform="translate(62.000000, 85.000000)"></g>
        <g id="Astronaut" transform="translate(42.400000, 20.400000)">
            <path d="M90.5656,15.5468 C121.4936,15.5468 146.5646,40.6188 146.5646,71.5468 L146.5646,71.5468 L146.5656,77.7128 C152.2406,78.6648 156.5646,83.6008 156.5646,89.5468 L156.5646,89.5468 L156.5646,103.5468 C156.5646,109.5658 152.1346,114.5488 146.3566,115.4138 C144.6136,135.6608 132.0966,152.8288 114.5656,161.1578 L114.5656,161.1578 L114.5656,176.4388 L66.5656,176.4388 L66.5656,161.1578 C49.0346,152.8288 36.5176,135.6608 34.7746,115.4138 C28.9966,114.5488 24.5656,109.5658 24.5656,103.5468 L24.5656,103.5468 L24.5656,89.5468 C24.5656,83.5998 28.8906,78.6648 34.5656,77.7128 L34.5656,77.7128 L34.5656,71.5468 C34.5656,40.6188 59.6376,15.5468 90.5656,15.5468 Z M90.5856,38.5288 C62.8336,38.5288 40.3356,59.9928 40.3356,86.4708 L40.3356,86.4708 L40.3356,110.4288 C40.3356,136.9068 62.8336,158.3708 90.5856,158.3708 C118.3376,158.3708 140.8356,136.9068 140.8356,110.4288 L140.8356,110.4288 L140.8356,86.4708 C140.8356,59.9928 118.3376,38.5288 90.5856,38.5288 Z" id="Combined-Shape" fill="#0F1011" />
            <path d="M0.0006,90.8376 C0.0006,140.8666 40.5566,181.4226 90.5856,181.4226 C140.6146,181.4226 181.1716,140.8666 181.1716,90.8376 C181.1716,40.8086 140.6146,0.2516 90.5856,0.2516 C40.5566,0.2516 0.0006,40.8086 0.0006,90.8376 Z" id="Path" stroke="#5F5F5F" stroke-width="3" fill="#B8B8B8" opacity=".194" />
            <path d="M136.4206,136.2853 C119.1286,127.7993 127.7896,108.8133 103.1836,75.2593 C85.2026004,50.7393 52.5096004,66.5403 44.6086004,43.3833 C36.9656004,20.9803 107.6826,-11.7817 150.8596,31.3963 C187.0096,67.5453 161.7216,148.7013 136.4206,136.2853" id="Fill-12" fill="#FFF" opacity=".17" />
            <path d="M43.9274004,168.38 C54.4464004,169.897 90.8464004,174.15 136.1304,168.275 C137.7554,168.065 139.3084,169.02 139.8334,170.571 L142.7114,179.069 C143.2964,180.796 142.4364,182.677 140.7434,183.353 C129.8804,187.684 90.4514004,200.552 40.3664004,183.131 C38.6884004,182.547 37.7144004,180.798 38.1344004,179.071 L40.1064004,170.964 C40.5244004,169.245 42.1764004,168.128 43.9274004,168.38" id="Fill-9" fill="#D4EEF4" />
            <path d="M105.4987,186.8038 L90.3547,186.8038 C87.9157,186.8038 85.9397,184.8268 85.9397,182.3888 L85.9397,180.4568 C85.9397,178.0188 87.9157,176.0418 90.3547,176.0418 L105.4987,176.0418 C107.9367,176.0418 109.9137,178.0188 109.9137,180.4568 L109.9137,182.3888 C109.9137,184.8268 107.9367,186.8038 105.4987,186.8038" id="Fill-14" fill="#A9CDD3" />
            <path d="M83.5134,181.0851 C83.5134,183.8701 81.2554,186.1281 78.4704,186.1281 C75.6854,186.1281 73.4274,183.8701 73.4274,181.0851 C73.4274,178.3001 75.6854,176.0421 78.4704,176.0421 C81.2554,176.0421 83.5134,178.3001 83.5134,181.0851" id="Fill-16" fill="#A9CDD3" />
        </g>
    </g>
</svg>