<?xml version="1.0" encoding="UTF-8"?>
<svg width="266px" height="280px" viewBox="0 0 266 280" version="1.1" xmlns="http://www.w3.org/2000/svg" xmlns:xlink="http://www.w3.org/1999/xlink">
    <defs>
        <path d="M94.0001685,1 C118.30504,1.44935656 140.861928,6.81215989 149.000169,17 C161.324059,32.4276364 186.868727,91.0786423 187.000841,126 C187.093514,150.800049 177.46255,175.65995 164.000169,177 C152.920557,178.102868 137.475641,175.511355 118.000132,173.997352 L118.000016,161.610943 C136.730391,152.713105 149.737808,133.723813 149.996083,111.669251 L150,111 L149.999122,82.98779 C140.477154,78.12967 131.861155,72.2466611 124.151126,65.3387631 C127.360925,70.6350671 130.848039,75.146796 134.61311,78.8730846 C107.596133,71.2927661 86.1052394,58.4499395 70.1404292,40.3446049 C62.1596386,56.809628 51.4461296,69.8143795 38.0000981,79.3594824 L38,111 C38,133.338465 51.0795991,152.622027 69.998216,161.610103 L69.9991535,174.745766 C50.3621295,177.434364 34.6408296,182.16349 23.3845374,181.000327 C9.16164761,179.530612 1.49623627,150.795665 1,126 C0.382878875,95.1640258 29.3189583,30.7950013 40,18 C47.9231015,8.50878211 69.6952966,0.550643437 94.0001685,1 Z" id="path-1"></path>
    </defs>
    <g id="Top/Long-Hair/Bob" stroke="none" stroke-width="1" fill="none" fill-rule="evenodd">
        <g id="Hair" transform="translate(38.000000, 19.000000)">
            <mask id="mask-2" fill="white">
                <use xlink:href="#path-1"></use>
            </mask>
            <use id="Combined-Shape" fill="#E6E6E6" xlink:href="#path-1"></use>
            <g id="Hair-Color" mask="url(#mask-2)" fill="">
                <g transform="translate(-38.000000, -19.000000)" id="Color">
                    <rect x="0" y="0" width="266" height="280"></rect>
                </g>
            </g>
        </g>
        <g id="Facial-Hair" transform="translate(49.000000, 72.000000)"></g>
        <g id="Accessory" transform="translate(62.000000, 85.000000)"></g>
    </g>
</svg>