<svg viewBox="67.89999999999998 -54.599999999999994 130.2 268.8" xmlns="http://www.w3.org/2000/svg" xmlns:xlink="http://www.w3.org/1999/xlink" xmlns:blush="http://design.blush" overflow="visible" width="130.2px" height="268.8px">
    <g id="Hairstyle/Bride" stroke="none" stroke-width="1" fill="none" fill-rule="evenodd">
        <g id="Facial-Hair" transform="translate(49.000000, 72.000000)"></g>
        <g id="Accessory" transform="translate(62.000000, 85.000000)"></g>
        <g id="Group-6" transform="translate(69.000000, -55.000000)">
            <path d="M117.8748,169.5479 C118.7828,164.0989 128.5908,155.7439 128.5908,143.3939 C128.5908,138.5909 126.4058,107.1459 99.6728,92.0579 C99.7838,91.2529 99.8448,90.4379 99.8448,89.6119 C99.8448,86.7789 99.1598,84.0599 97.9158,81.5219 C114.7568,73.6399 125.8518,60.2059 125.8518,44.9529 C125.8518,20.6779 97.7598,0.9999 63.1068,0.9999 C28.4548,0.9999 0.3628,20.6779 0.3628,44.9529 C0.3628,60.7919 12.3268,74.6689 30.2638,82.4039 C29.2808,84.6869 28.7458,87.1059 28.7458,89.6119 C28.7458,90.5299 28.8218,91.4349 28.9598,92.3259 C3.6398,106.6659 1.0898,135.5739 1.0898,146.8449 C1.0898,162.1009 20.5238,181.3539 20.5238,191.3429 C20.5238,201.3319 -0.0002,208.0529 -0.0002,218.2239 C-0.0002,228.3949 13.2588,235.4779 15.2568,240.1999 C17.2548,244.9219 12.7138,250.1779 12.7138,256.0019 C12.7138,263.4479 24.1558,265.4459 24.1558,265.4459 C11.6238,256.3649 24.5198,244.5599 24.5198,238.5659 C24.5198,232.5719 11.9868,231.6639 11.9868,220.4029 C11.9868,209.1429 32.3298,206.0549 32.3298,192.6139 C32.3298,179.1739 19.2518,161.9079 19.2518,151.7369 C19.2518,141.5659 21.6138,123.9599 37.4148,123.9599 C53.2158,123.9599 51.5818,134.4939 65.2638,134.4939 C78.9448,134.4939 87.3618,126.1399 97.3518,126.1399 C107.3408,126.1399 113.8788,135.5839 113.8788,144.1199 C113.8788,152.6569 104.0708,159.0139 104.0708,171.0009 C104.0708,182.9879 115.4168,189.7079 115.4168,198.4259 C115.4168,207.1449 98.9858,213.8639 98.9858,223.4899 C98.9858,233.1169 106.7958,234.5689 113.5158,240.7449 C120.2358,246.9199 107.1588,254.0039 104.7978,259.8159 C102.4368,265.6279 108.0668,268.8969 108.0668,268.8969 C103.3448,259.2709 122.9608,254.0039 122.9608,245.6489 C122.9608,233.4809 111.0308,229.2409 111.0308,223.4289 C111.0308,214.0459 126.4108,209.1429 126.4108,195.1569 C126.4108,188.0739 116.9668,174.9969 117.8748,169.5479" id="Hair-Color" fill="#724133" blush:color="Hair-500" />
            <path d="M65.2634,84.0025 C79.8114,84.0025 91.0234,87.1765 99.6724,92.0575 C99.7844,91.2525 99.8444,90.4375 99.8444,89.6125 C99.8444,75.8585 83.9284,64.7095 64.2954,64.7095 C44.6614,64.7095 28.7454,75.8585 28.7454,89.6125 C28.7454,90.5295 28.8224,91.4345 28.9594,92.3265 C37.9154,87.2545 49.7144,84.0025 65.2634,84.0025" id="Fill-4" fill-opacity=".8" fill="#FFF" />
        </g>
    </g>
</svg>