<svg viewBox="70.69999999999999 26.600000000000023 124.60000000000004 168" xmlns="http://www.w3.org/2000/svg" xmlns:xlink="http://www.w3.org/1999/xlink" xmlns:blush="http://design.blush" overflow="visible" width="124.60000000000004px" height="168px"><defs><path d="M264,0 L264,280 L232,280 L232,271 C232,231.235498 199.764502,199 160,199 L160,199 L156,199 L156.001014,180.610469 C173.531251,172.282329 186.048207,155.114429 187.791415,134.867236 C193.568906,134.002616 198,129.018777 198,123 L198,123 L198,110 C198,104.05429 193.675838,99.1185422 188.000809,98.1660527 L188,92 C188,61.072054 162.927946,36 132,36 C101.072054,36 76,61.072054 76,92 L76,92 L76.0001873,98.1658855 C70.3246685,99.1179645 66,104.053942 66,110 L66,110 L66,123 C66,129.018777 70.4310943,134.002616 76.2090181,134.867253 C77.9518263,155.114813 90.4692242,172.28298 107.999984,180.610943 L108,199 L104,199 C64.633143,199 32.6454629,230.594012 32.0096459,269.809348 L32,271 L32,280 L0,280 L0,0 L264,0 Z" id="hairstylecornrows-path-1"/></defs><g id="Hairstyle/Cornrows" stroke="none" stroke-width="1" fill="none" fill-rule="evenodd"><g id="template-for-hairstyles" opacity=".184" transform="translate(1.000000, 0.000000)"><mask id="hairstylecornrows-mask-2" fill="#fff"><use xlink:href="#hairstylecornrows-path-1"/></mask><g id="Mask-Hair"/></g><g id="Group-37" transform="translate(74.000000, 27.000000)"><path d="M118.3024,55.1406 C117.9244,53.4706 116.4064,52.3586 114.7584,52.4206 C114.3564,49.4536 113.7684,46.3276 112.9214,43.1506 L114.3754,41.9116 C116.2674,40.2986 116.4924,37.4586 114.8804,35.5676 C113.6094,34.0776 111.5824,33.6386 109.8534,34.2996 C108.3644,30.8906 106.5014,27.5466 104.1764,24.4066 L104.9644,22.5936 C106.0654,20.0606 104.9044,17.1156 102.3704,16.0146 C100.5404,15.2196 98.5044,15.6186 97.0954,16.8486 C94.1774,14.3926 90.8004,12.2146 86.9094,10.4126 L86.9964,9.8626 C87.4304,7.1356 85.5714,4.5736 82.8434,4.1406 C80.5354,3.7706 78.3644,5.0556 77.4814,7.1066 C73.3994,6.0756 68.8854,5.3916 63.8944,5.1286 L63.8944,5.0006 C63.8944,2.2396 61.6554,0.0006 58.8934,0.0006 C56.1324,0.0006 53.8934,2.2396 53.8934,5.0006 L53.8934,5.1556 C49.1994,5.4366 44.9424,6.0986 41.0634,7.0676 C40.1704,5.0396 38.0134,3.7736 35.7204,4.1406 C32.9934,4.5736 31.1344,7.1356 31.5674,9.8626 L31.6424,10.3376 C27.7204,12.1366 24.3164,14.3156 21.3774,16.7776 C19.9714,15.6066 17.9854,15.2366 16.1934,16.0146 C13.6604,17.1156 12.4994,20.0606 13.5994,22.5936 L14.3234,24.2576 C11.9604,27.4216 10.0714,30.7956 8.5644,34.2376 C6.8684,33.6566 4.9184,34.1206 3.6834,35.5676 C2.0714,37.4586 2.2974,40.2986 4.1884,41.9116 L5.5014,43.0306 C4.6374,46.2486 4.0384,49.4176 3.6314,52.4226 C2.0524,52.4426 0.6264,53.5296 0.2614,55.1406 C-0.1646,57.0256 1.0174,58.8996 2.9034,59.3266 L2.9754,59.3436 C2.6994,64.3476 2.8864,68.4326 3.0444,70.8146 C3.8334,82.6886 10.7914,82.5526 10.7914,70.3836 C10.7914,67.7866 10.8924,64.5926 11.1684,61.1766 C11.3674,61.2106 11.5664,61.2436 11.7624,61.2436 C13.3614,61.2436 14.8044,60.1406 15.1724,58.5156 C15.5994,56.6296 14.4164,54.7556 12.5314,54.3286 L11.9754,54.2036 C12.2614,52.3396 12.6084,50.4816 13.0314,48.6846 C13.3184,48.7416 13.6064,48.7756 13.8954,48.7756 C15.1674,48.7756 16.4314,48.2396 17.3224,47.1956 C18.9344,45.3046 18.7084,42.4646 16.8174,40.8516 L15.9824,40.1406 C16.9084,38.3026 17.9914,36.7246 19.2554,35.5206 C20.1504,37.1516 21.8444,38.1206 23.6284,38.1206 C24.2934,38.1206 24.9694,37.9866 25.6184,37.7046 C27.4774,36.8966 28.5874,35.0936 28.6164,33.1896 C31.0384,33.4846 33.3164,34.0646 35.5284,34.8036 L35.9824,37.6606 C36.3724,40.1226 38.4984,41.8766 40.9134,41.8766 C41.1744,41.8766 41.4384,41.8566 41.7044,41.8146 C43.5384,41.5226 44.9594,40.2606 45.5754,38.6406 C48.3354,39.6476 51.2274,40.5176 54.4224,40.9756 C55.2374,42.6316 56.9244,43.7806 58.8934,43.7806 C60.8344,43.7806 62.4984,42.6626 63.3264,41.0476 C66.8344,40.6116 69.9814,39.6806 72.9684,38.5826 C73.5714,40.2306 75.0034,41.5196 76.8604,41.8146 C77.1254,41.8566 77.3894,41.8766 77.6504,41.8766 C80.0664,41.8766 82.1914,40.1226 82.5814,37.6606 L83.0444,34.7456 C85.2514,34.0166 87.5254,33.4486 89.9464,33.1686 C89.9664,35.0796 91.0794,36.8936 92.9464,37.7046 C93.5944,37.9866 94.2714,38.1206 94.9364,38.1206 C96.6784,38.1206 98.3374,37.1986 99.2484,35.6356 C100.4864,36.8486 101.5524,38.4166 102.4614,40.2426 L101.7464,40.8516 C99.8554,42.4646 99.6294,45.3046 101.2414,47.1956 C102.1324,48.2396 103.3964,48.7756 104.6684,48.7756 C104.9014,48.7756 105.1334,48.7516 105.3644,48.7156 C105.7874,50.5156 106.1344,52.3746 106.4204,54.2416 L106.0324,54.3286 C104.1474,54.7556 102.9644,56.6296 103.3914,58.5156 C103.7594,60.1406 105.2024,61.2436 106.8014,61.2436 C106.9414,61.2436 107.0814,61.2136 107.2224,61.1966 C107.4974,64.6046 107.5984,67.7916 107.5984,70.3836 C107.5984,82.5526 114.5564,82.6886 115.3454,70.8146 C115.5034,68.4386 115.6894,64.3686 115.4164,59.3816 L115.6604,59.3266 C117.5464,58.8996 118.7294,57.0256 118.3024,55.1406" id="Fill-17" fill="#724133" blush:color="Hair-500"/><path d="M58.8937,0.0005 C56.1327,0.0005 53.8937,2.2395 53.8937,5.0005 L53.8937,38.7805 C53.8937,41.5425 56.1327,43.7805 58.8937,43.7805 C61.6547,43.7805 63.8937,41.5425 63.8937,38.7805 L63.8937,5.0005 C63.8937,2.2395 61.6547,0.0005 58.8937,0.0005" id="Fill-19" fill-opacity=".24" fill="#000"/><path d="M41.443,8.2939 C41.01,5.5659 38.45,3.7039 35.721,4.1399 C32.993,4.5729 31.134,7.1349 31.567,9.8619 L35.982,37.6609 C36.373,40.1229 38.498,41.8769 40.914,41.8769 C41.174,41.8769 41.439,41.8569 41.704,41.8149 C44.432,41.3809 46.291,38.8189 45.858,36.0919 L41.443,8.2939 Z" id="Fill-21" fill-opacity=".24" fill="#000"/><path d="M22.7716,18.6079 C21.6706,16.0749 18.7256,14.9149 16.1926,16.0149 C13.6606,17.1149 12.4996,20.0609 13.5996,22.5929 L19.0396,35.1119 C19.8586,36.9959 21.6976,38.1209 23.6276,38.1209 C24.2926,38.1209 24.9696,37.9869 25.6186,37.7049 C28.1506,36.6049 29.3126,33.6589 28.2116,31.1269 L22.7716,18.6079 Z" id="Fill-23" fill-opacity=".24" fill="#000"/><path d="M10.0275,35.0625 C8.1375,33.4495 5.2975,33.6765 3.6835,35.5675 C2.0715,37.4585 2.2975,40.2985 4.1885,41.9115 L10.9785,47.7005 C11.8255,48.4225 12.8625,48.7755 13.8955,48.7755 C15.1675,48.7755 16.4315,48.2395 17.3215,47.1955 C18.9345,45.3045 18.7085,42.4645 16.8175,40.8515 L10.0275,35.0625 Z" id="Fill-25" fill-opacity=".24" fill="#000"/><path d="M12.5314,54.3291 L4.4484,52.4991 C2.5684,52.0741 0.6884,53.2541 0.2614,55.1411 C-0.1646,57.0261 1.0174,58.9001 2.9034,59.3271 L10.9864,61.1561 C11.2464,61.2151 11.5064,61.2441 11.7624,61.2441 C13.3614,61.2441 14.8044,60.1411 15.1724,58.5151 C15.5994,56.6301 14.4164,54.7561 12.5314,54.3291" id="Fill-27" fill-opacity=".24" fill="#000"/><path d="M82.8434,4.1401 C80.1144,3.7031 77.5534,5.5661 77.1204,8.2941 L72.7054,36.0921 C72.2734,38.8191 74.1324,41.3811 76.8604,41.8141 C77.1254,41.8571 77.3894,41.8771 77.6504,41.8771 C80.0664,41.8771 82.1914,40.1221 82.5814,37.6611 L86.9964,9.8621 C87.4304,7.1351 85.5714,4.5731 82.8434,4.1401" id="Fill-29" fill-opacity=".24" fill="#000"/><path d="M102.3708,16.0146 C99.8388,14.9146 96.8928,16.0756 95.7928,18.6076 L90.3518,31.1266 C89.2518,33.6596 90.4128,36.6046 92.9458,37.7046 C93.5948,37.9866 94.2708,38.1206 94.9358,38.1206 C96.8668,38.1206 98.7058,36.9956 99.5238,35.1116 L104.9648,22.5936 C106.0648,20.0606 104.9038,17.1156 102.3708,16.0146" id="Fill-31" fill-opacity=".24" fill="#000"/><path d="M107.5856,47.7002 L114.3756,41.9112 C116.2676,40.2982 116.4926,37.4582 114.8806,35.5672 C113.2666,33.6762 110.4266,33.4502 108.5366,35.0622 L101.7466,40.8512 C99.8556,42.4642 99.6296,45.3042 101.2416,47.1952 C102.1326,48.2392 103.3966,48.7762 104.6686,48.7762 C105.7006,48.7762 106.7386,48.4232 107.5856,47.7002" id="Fill-33" fill-opacity=".24" fill="#000"/><path d="M118.3024,55.1406 C117.8754,53.2546 115.9954,52.0736 114.1154,52.4996 L106.0324,54.3286 C104.1474,54.7556 102.9644,56.6296 103.3914,58.5156 C103.7594,60.1406 105.2024,61.2436 106.8014,61.2436 C107.0584,61.2436 107.3184,61.2156 107.5774,61.1566 L115.6604,59.3266 C117.5464,58.8996 118.7294,57.0256 118.3024,55.1406" id="Fill-35" fill-opacity=".24" fill="#000"/></g><path d="M78.7174,143.0003 C76.3054,169.3963 72.2944,185.0543 72.2154,185.3603 C71.3024,188.8323 73.3774,192.3863 76.8494,193.2983 C77.4034,193.4433 77.9584,193.5143 78.5064,193.5143 C81.3874,193.5143 84.0214,191.5823 84.7884,188.6643 C84.9544,188.0323 87.1234,179.6353 89.2554,164.9233 C84.2584,158.5783 80.6024,151.1303 78.7174,143.0003" id="Fill-1" fill="#724133" blush:color="Hair-500"/><path d="M91.2696,167.3372 C89.4616,178.7552 87.8226,185.1662 87.7716,185.3602 C86.8596,188.8322 88.9346,192.3862 92.4056,193.2982 C92.9596,193.4432 93.5156,193.5142 94.0626,193.5142 C96.9446,193.5142 99.5776,191.5822 100.3446,188.6642 C100.4566,188.2392 101.4756,184.2872 102.7796,177.2802 C98.5026,174.4992 94.6326,171.1482 91.2696,167.3372" id="Fill-4" fill="#724133" blush:color="Hair-500"/><path d="M104.8311,178.5501 C103.9631,182.8821 103.3581,185.2431 103.3281,185.3611 C102.4161,188.8321 104.4911,192.3861 107.9631,193.2981 C108.3981,193.4121 108.8331,193.4671 109.2661,193.4901 L109.2661,180.9131 C107.7481,180.1921 106.2701,179.4001 104.8311,178.5501" id="Fill-7" fill="#724133" blush:color="Hair-500"/><path d="M75.8766,166.3001 C79.1806,169.8981 83.0736,173.1471 87.4656,175.9461 C88.0336,172.8061 88.6456,169.1321 89.2556,164.9231 C84.2576,158.5781 80.6026,151.1301 78.7176,143.0001 C77.8856,152.1091 76.8626,159.9381 75.8766,166.3001" id="Fill-10" fill-opacity=".24" fill="#000"/><path d="M91.2696,167.3372 C90.6536,171.2322 90.0586,174.5272 89.5376,177.2092 C93.2866,179.4062 97.3606,181.2842 101.6866,182.8102 C102.0126,181.2572 102.3826,179.4122 102.7796,177.2802 C98.5026,174.4992 94.6326,171.1482 91.2696,167.3372" id="Fill-12" fill-opacity=".24" fill="#000"/><path d="M103.7696,183.5169 C105.5636,184.0899 107.3946,184.6089 109.2666,185.0569 L109.2666,180.9129 C107.7486,180.1919 106.2696,179.3999 104.8316,178.5499 C104.3986,180.7049 104.0326,182.3709 103.7696,183.5169" id="Fill-14" fill-opacity=".24" fill="#000"/><path d="M183.46188,143.0003 C181.04988,169.3963 177.03888,185.0543 176.95988,185.3603 C176.04688,188.8323 178.12188,192.3863 181.59388,193.2983 C182.14788,193.4433 182.70288,193.5143 183.25088,193.5143 C186.13188,193.5143 188.76588,191.5823 189.53288,188.6643 C189.69888,188.0323 191.86788,179.6353 193.99988,164.9233 C189.00288,158.5783 185.34688,151.1303 183.46188,143.0003" id="Fill-1" fill="#724133" transform="translate(185.372240, 168.257300) scale(-1, 1) translate(-185.372240, -168.257300)" blush:color="Hair-500"/><path d="M166.933278,167.3372 C165.125278,178.7552 163.486278,185.1662 163.435278,185.3602 C162.523278,188.8322 164.598278,192.3862 168.069278,193.2982 C168.623278,193.4432 169.179278,193.5142 169.726278,193.5142 C172.608278,193.5142 175.241278,191.5822 176.008278,188.6642 C176.120278,188.2392 177.139278,184.2872 178.443278,177.2802 C174.166278,174.4992 170.296278,171.1482 166.933278,167.3372" id="Fill-4" fill="#724133" transform="translate(170.831839, 180.425700) scale(-1, 1) translate(-170.831839, -180.425700)" blush:color="Hair-500"/><path d="M158.451774,178.5501 C157.583774,182.8821 156.978774,185.2431 156.948774,185.3611 C156.036774,188.8321 158.111774,192.3861 161.583774,193.2981 C162.018774,193.4121 162.453774,193.4671 162.886774,193.4901 L162.886774,180.9131 C161.368774,180.1921 159.890774,179.4001 158.451774,178.5501" id="Fill-7" fill="#724133" transform="translate(159.810337, 186.020100) scale(-1, 1) translate(-159.810337, -186.020100)" blush:color="Hair-500"/><path d="M176.7444,166.3001 C180.0484,169.8981 183.9414,173.1471 188.3334,175.9461 C188.9014,172.8061 189.5134,169.1321 190.1234,164.9231 C185.1254,158.5781 181.4704,151.1301 179.5854,143.0001 C178.7534,152.1091 177.7304,159.9381 176.7444,166.3001" id="Fill-10" fill-opacity=".24" fill="#000" transform="translate(183.433900, 159.473100) scale(-1, 1) translate(-183.433900, -159.473100)"/><path d="M164.9524,167.3372 C164.3364,171.2322 163.7414,174.5272 163.2204,177.2092 C166.9694,179.4062 171.0434,181.2842 175.3694,182.8102 C175.6954,181.2572 176.0654,179.4122 176.4624,177.2802 C172.1854,174.4992 168.3154,171.1482 164.9524,167.3372" id="Fill-12" fill-opacity=".24" fill="#000" transform="translate(169.841400, 175.073700) scale(-1, 1) translate(-169.841400, -175.073700)"/><path d="M156.7334,183.5169 C158.5274,184.0899 160.3584,184.6089 162.2304,185.0569 L162.2304,180.9129 C160.7124,180.1919 159.2334,179.3999 157.7954,178.5499 C157.3624,180.7049 156.9964,182.3709 156.7334,183.5169" id="Fill-14" fill-opacity=".24" fill="#000" transform="translate(159.481900, 181.803400) scale(-1, 1) translate(-159.481900, -181.803400)"/></g></svg>