<svg viewBox="70.69999999999999 26.600000000000023 124.60000000000004 168" xmlns="http://www.w3.org/2000/svg" xmlns:xlink="http://www.w3.org/1999/xlink" xmlns:blush="http://design.blush" overflow="visible" width="124.60000000000004px" height="168px">
    <defs>
        <path d="M264,0 L264,280 L232,280 L232,271 C232,231.235498 199.764502,199 160,199 L160,199 L156,199 L156.001014,180.610469 C173.531251,172.282329 186.048207,155.114429 187.791415,134.867236 C193.568906,134.002616 198,129.018777 198,123 L198,123 L198,110 C198,104.05429 193.675838,99.1185422 188.000809,98.1660527 L188,92 C188,61.072054 162.927946,36 132,36 C101.072054,36 76,61.072054 76,92 L76,92 L76.0001873,98.1658855 C70.3246685,99.1179645 66,104.053942 66,110 L66,110 L66,123 C66,129.018777 70.4310943,134.002616 76.2090181,134.867253 C77.9518263,155.114813 90.4692242,172.28298 107.999984,180.610943 L108,199 L104,199 C64.633143,199 32.6454629,230.594012 32.0096459,269.809348 L32,271 L32,280 L0,280 L0,0 L264,0 Z" id="hairstylecornrows-path-1" />
    </defs>
    <g id="Hairstyle/Cornrows" stroke="none" stroke-width="1" fill="none" fill-rule="evenodd" transform="translate(-1, -1)">
        <g id="template-for-hairstyles" opacity=".184" transform="translate(1.000000, 0.000000)">
            <mask id="hairstylecornrows-mask-2" fill="#fff">
                <use xlink:href="#hairstylecornrows-path-1" />
            </mask>
            <g id="Mask-Hair" />
        </g>
        <g id="Group-37" transform="translate(74.000000, 27.000000)">
            <path id="Hair-Color" fill="" d="M 62.193359 0.40039062 C 59.432359 0.40039062 57.193359 2.6393906 57.193359 5.4003906 L 57.193359 5.5546875 C 52.499359 5.8356875 48.242281 6.4977969 44.363281 7.4667969 C 43.470281 5.4387969 41.312531 4.1740156 39.019531 4.5410156 C 36.292531 4.9740156 34.434188 7.5347187 34.867188 10.261719 L 34.943359 10.738281 C 31.021359 12.537281 27.616734 14.715734 24.677734 17.177734 C 23.271734 16.006734 21.286141 15.636062 19.494141 16.414062 C 16.961141 17.515062 15.798438 20.461141 16.898438 22.994141 L 17.623047 24.658203 C 15.260047 27.822203 13.372234 31.194719 11.865234 34.636719 C 10.169234 34.055719 8.219375 34.519797 6.984375 35.966797 C 5.372375 37.857797 5.5972813 40.6995 7.4882812 42.3125 L 8.8007812 43.429688 C 7.9367813 46.647688 7.3386406 49.817266 6.9316406 52.822266 C 5.3526406 52.842266 3.9255469 53.930016 3.5605469 55.541016 C 3.1345469 57.426016 4.317125 59.299562 6.203125 59.726562 L 6.2753906 59.744141 C 5.9993906 64.748141 6.18575 68.832844 6.34375 71.214844 C 7.13275 83.088844 14.091797 82.952203 14.091797 70.783203 C 14.091797 68.186203 14.19275 64.992172 14.46875 61.576172 C 14.66775 61.610172 14.8665 61.644531 15.0625 61.644531 C 16.6615 61.644531 18.104656 60.541016 18.472656 58.916016 C 18.899656 57.030016 17.717031 55.155516 15.832031 54.728516 L 15.275391 54.603516 C 15.561391 52.739516 15.909031 50.880984 16.332031 49.083984 C 16.619031 49.140984 16.906312 49.175781 17.195312 49.175781 C 18.467312 49.175781 19.732047 48.639703 20.623047 47.595703 C 22.235047 45.704703 22.008187 42.864953 20.117188 41.251953 L 19.283203 40.541016 C 20.209203 38.703016 21.290688 37.123922 22.554688 35.919922 C 23.449687 37.550922 25.143734 38.521484 26.927734 38.521484 C 27.592734 38.521484 28.268969 38.387469 28.917969 38.105469 C 30.776969 37.297469 31.887016 35.493844 31.916016 33.589844 C 34.338016 33.884844 36.616125 34.464125 38.828125 35.203125 L 39.283203 38.060547 C 39.673203 40.522547 41.797891 42.277344 44.212891 42.277344 C 44.473891 42.277344 44.737906 42.256844 45.003906 42.214844 C 46.837906 41.922844 48.259 40.661016 48.875 39.041016 C 51.635 40.048016 54.527656 40.917 57.722656 41.375 C 58.537656 43.031 60.224359 44.179687 62.193359 44.179688 C 64.134359 44.179688 65.798953 43.062266 66.626953 41.447266 C 70.134953 41.011266 73.280578 40.080422 76.267578 38.982422 C 76.870578 40.630422 78.303156 41.919844 80.160156 42.214844 C 80.425156 42.256844 80.690172 42.277344 80.951172 42.277344 C 83.367172 42.277344 85.490859 40.522547 85.880859 38.060547 L 86.34375 35.146484 C 88.55075 34.417484 90.825094 33.848359 93.246094 33.568359 C 93.266094 35.479359 94.379094 37.294469 96.246094 38.105469 C 96.894094 38.387469 97.571328 38.521484 98.236328 38.521484 C 99.978328 38.521484 101.63783 37.598156 102.54883 36.035156 C 103.78683 37.248156 104.85272 38.816578 105.76172 40.642578 L 105.04688 41.251953 C 103.15588 42.864953 102.92902 45.704703 104.54102 47.595703 C 105.43202 48.639703 106.69675 49.175781 107.96875 49.175781 C 108.20175 49.175781 108.43306 49.151234 108.66406 49.115234 C 109.08706 50.915234 109.4347 52.773625 109.7207 54.640625 L 109.33203 54.728516 C 107.44703 55.155516 106.26441 57.030016 106.69141 58.916016 C 107.05941 60.541016 108.50256 61.644531 110.10156 61.644531 C 110.24156 61.644531 110.38048 61.612703 110.52148 61.595703 C 110.79648 65.003703 110.89844 68.191203 110.89844 70.783203 C 110.89844 82.952203 117.85553 83.088844 118.64453 71.214844 C 118.80253 68.838844 118.9898 64.76825 118.7168 59.78125 L 118.96094 59.726562 C 120.84694 59.299563 122.02856 57.426016 121.60156 55.541016 C 121.22356 53.871016 119.70659 52.758312 118.05859 52.820312 C 117.65659 49.853313 117.0677 46.727781 116.2207 43.550781 L 117.67578 42.3125 C 119.56778 40.6995 119.79169 37.857797 118.17969 35.966797 C 116.90869 34.476797 114.8833 34.038219 113.1543 34.699219 C 111.6653 31.290219 109.80156 27.946641 107.47656 24.806641 L 108.26367 22.994141 C 109.36467 20.461141 108.20392 17.515063 105.66992 16.414062 C 103.83992 15.619062 101.80353 16.018047 100.39453 17.248047 C 97.476531 14.792047 94.099984 12.6145 90.208984 10.8125 L 90.296875 10.261719 C 90.730875 7.5347187 88.870578 4.9740156 86.142578 4.5410156 C 83.834578 4.1710156 81.66425 5.4548594 80.78125 7.5058594 C 76.69925 6.4748594 72.186312 5.7922969 67.195312 5.5292969 L 67.195312 5.4003906 C 67.195312 2.6393906 64.955359 0.40039063 62.193359 0.40039062 z M 8.0175781 116.40039 C 5.6055781 142.79639 1.594625 158.45377 1.515625 158.75977 C 0.602625 162.23177 2.6764375 165.78722 6.1484375 166.69922 C 6.7024375 166.84422 7.2586406 166.91406 7.8066406 166.91406 C 10.687641 166.91406 13.320891 164.98245 14.087891 162.06445 C 14.253891 161.43245 16.422688 153.03622 18.554688 138.32422 C 13.557688 131.97922 9.9025781 124.53039 8.0175781 116.40039 z M 116.58203 116.40039 C 114.69703 124.53039 111.04192 131.97922 106.04492 138.32422 C 108.17692 153.03622 110.34572 161.43245 110.51172 162.06445 C 111.27872 164.98245 113.91197 166.91406 116.79297 166.91406 C 117.34097 166.91406 117.89717 166.84422 118.45117 166.69922 C 121.92317 165.78722 123.99698 162.23177 123.08398 158.75977 C 123.00498 158.45377 118.99403 142.79639 116.58203 116.40039 z M 20.570312 140.73633 C 18.762313 152.15433 17.123266 158.56577 17.072266 158.75977 C 16.160266 162.23177 18.234078 165.78527 21.705078 166.69727 C 22.259078 166.84227 22.816281 166.91406 23.363281 166.91406 C 26.245281 166.91406 28.877531 164.98245 29.644531 162.06445 C 29.756531 161.63945 30.776078 157.68669 32.080078 150.67969 C 27.803078 147.89869 23.933312 144.54733 20.570312 140.73633 z M 104.03125 140.73633 C 100.66825 144.54733 96.796531 147.89869 92.519531 150.67969 C 93.823531 157.68669 94.843078 161.63945 94.955078 162.06445 C 95.722078 164.98245 98.356281 166.91406 101.23828 166.91406 C 101.78528 166.91406 102.34053 166.84227 102.89453 166.69727 C 106.36553 165.78527 108.4413 162.23177 107.5293 158.75977 C 107.4783 158.56577 105.83925 152.15433 104.03125 140.73633 z M 34.130859 151.94922 C 33.262859 156.28122 32.658906 158.64372 32.628906 158.76172 C 31.716906 162.23272 33.791672 165.78527 37.263672 166.69727 C 37.698672 166.81127 38.133406 166.86762 38.566406 166.89062 L 38.566406 154.3125 C 37.048406 153.5915 35.569859 152.79922 34.130859 151.94922 z M 90.46875 151.94922 C 89.02975 152.79922 87.551203 153.5915 86.033203 154.3125 L 86.033203 166.89062 C 86.466203 166.86762 86.900937 166.81127 87.335938 166.69727 C 90.807938 165.78527 92.884656 162.23272 91.972656 158.76172 C 91.942656 158.64372 91.33675 156.28122 90.46875 151.94922 z " transform="translate(-3.3,-0.4)" />
            <path d="M58.8937,0.0005 C56.1327,0.0005 53.8937,2.2395 53.8937,5.0005 L53.8937,38.7805 C53.8937,41.5425 56.1327,43.7805 58.8937,43.7805 C61.6547,43.7805 63.8937,41.5425 63.8937,38.7805 L63.8937,5.0005 C63.8937,2.2395 61.6547,0.0005 58.8937,0.0005" id="Fill-19" fill-opacity=".24" fill="#000" />
            <path d="M41.443,8.2939 C41.01,5.5659 38.45,3.7039 35.721,4.1399 C32.993,4.5729 31.134,7.1349 31.567,9.8619 L35.982,37.6609 C36.373,40.1229 38.498,41.8769 40.914,41.8769 C41.174,41.8769 41.439,41.8569 41.704,41.8149 C44.432,41.3809 46.291,38.8189 45.858,36.0919 L41.443,8.2939 Z" id="Fill-21" fill-opacity=".24" fill="#000" />
            <path d="M22.7716,18.6079 C21.6706,16.0749 18.7256,14.9149 16.1926,16.0149 C13.6606,17.1149 12.4996,20.0609 13.5996,22.5929 L19.0396,35.1119 C19.8586,36.9959 21.6976,38.1209 23.6276,38.1209 C24.2926,38.1209 24.9696,37.9869 25.6186,37.7049 C28.1506,36.6049 29.3126,33.6589 28.2116,31.1269 L22.7716,18.6079 Z" id="Fill-23" fill-opacity=".24" fill="#000" />
            <path d="M10.0275,35.0625 C8.1375,33.4495 5.2975,33.6765 3.6835,35.5675 C2.0715,37.4585 2.2975,40.2985 4.1885,41.9115 L10.9785,47.7005 C11.8255,48.4225 12.8625,48.7755 13.8955,48.7755 C15.1675,48.7755 16.4315,48.2395 17.3215,47.1955 C18.9345,45.3045 18.7085,42.4645 16.8175,40.8515 L10.0275,35.0625 Z" id="Fill-25" fill-opacity=".24" fill="#000" />
            <path d="M12.5314,54.3291 L4.4484,52.4991 C2.5684,52.0741 0.6884,53.2541 0.2614,55.1411 C-0.1646,57.0261 1.0174,58.9001 2.9034,59.3271 L10.9864,61.1561 C11.2464,61.2151 11.5064,61.2441 11.7624,61.2441 C13.3614,61.2441 14.8044,60.1411 15.1724,58.5151 C15.5994,56.6301 14.4164,54.7561 12.5314,54.3291" id="Fill-27" fill-opacity=".24" fill="#000" />
            <path d="M82.8434,4.1401 C80.1144,3.7031 77.5534,5.5661 77.1204,8.2941 L72.7054,36.0921 C72.2734,38.8191 74.1324,41.3811 76.8604,41.8141 C77.1254,41.8571 77.3894,41.8771 77.6504,41.8771 C80.0664,41.8771 82.1914,40.1221 82.5814,37.6611 L86.9964,9.8621 C87.4304,7.1351 85.5714,4.5731 82.8434,4.1401" id="Fill-29" fill-opacity=".24" fill="#000" />
            <path d="M102.3708,16.0146 C99.8388,14.9146 96.8928,16.0756 95.7928,18.6076 L90.3518,31.1266 C89.2518,33.6596 90.4128,36.6046 92.9458,37.7046 C93.5948,37.9866 94.2708,38.1206 94.9358,38.1206 C96.8668,38.1206 98.7058,36.9956 99.5238,35.1116 L104.9648,22.5936 C106.0648,20.0606 104.9038,17.1156 102.3708,16.0146" id="Fill-31" fill-opacity=".24" fill="#000" />
            <path d="M107.5856,47.7002 L114.3756,41.9112 C116.2676,40.2982 116.4926,37.4582 114.8806,35.5672 C113.2666,33.6762 110.4266,33.4502 108.5366,35.0622 L101.7466,40.8512 C99.8556,42.4642 99.6296,45.3042 101.2416,47.1952 C102.1326,48.2392 103.3966,48.7762 104.6686,48.7762 C105.7006,48.7762 106.7386,48.4232 107.5856,47.7002" id="Fill-33" fill-opacity=".24" fill="#000" />
            <path d="M118.3024,55.1406 C117.8754,53.2546 115.9954,52.0736 114.1154,52.4996 L106.0324,54.3286 C104.1474,54.7556 102.9644,56.6296 103.3914,58.5156 C103.7594,60.1406 105.2024,61.2436 106.8014,61.2436 C107.0584,61.2436 107.3184,61.2156 107.5774,61.1566 L115.6604,59.3266 C117.5464,58.8996 118.7294,57.0256 118.3024,55.1406" id="Fill-35" fill-opacity=".24" fill="#000" />
        </g>
        <path d="M75.8766,166.3001 C79.1806,169.8981 83.0736,173.1471 87.4656,175.9461 C88.0336,172.8061 88.6456,169.1321 89.2556,164.9231 C84.2576,158.5781 80.6026,151.1301 78.7176,143.0001 C77.8856,152.1091 76.8626,159.9381 75.8766,166.3001" id="Fill-10" fill-opacity=".24" fill="#000" />
        <path d="M91.2696,167.3372 C90.6536,171.2322 90.0586,174.5272 89.5376,177.2092 C93.2866,179.4062 97.3606,181.2842 101.6866,182.8102 C102.0126,181.2572 102.3826,179.4122 102.7796,177.2802 C98.5026,174.4992 94.6326,171.1482 91.2696,167.3372" id="Fill-12" fill-opacity=".24" fill="#000" />
        <path d="M103.7696,183.5169 C105.5636,184.0899 107.3946,184.6089 109.2666,185.0569 L109.2666,180.9129 C107.7486,180.1919 106.2696,179.3999 104.8316,178.5499 C104.3986,180.7049 104.0326,182.3709 103.7696,183.5169" id="Fill-14" fill-opacity=".24" fill="#000" />
        <path d="M176.7444,166.3001 C180.0484,169.8981 183.9414,173.1471 188.3334,175.9461 C188.9014,172.8061 189.5134,169.1321 190.1234,164.9231 C185.1254,158.5781 181.4704,151.1301 179.5854,143.0001 C178.7534,152.1091 177.7304,159.9381 176.7444,166.3001" id="Fill-10" fill-opacity=".24" fill="#000" transform="translate(183.433900, 159.473100) scale(-1, 1) translate(-183.433900, -159.473100)" />
        <path d="M164.9524,167.3372 C164.3364,171.2322 163.7414,174.5272 163.2204,177.2092 C166.9694,179.4062 171.0434,181.2842 175.3694,182.8102 C175.6954,181.2572 176.0654,179.4122 176.4624,177.2802 C172.1854,174.4992 168.3154,171.1482 164.9524,167.3372" id="Fill-12" fill-opacity=".24" fill="#000" transform="translate(169.841400, 175.073700) scale(-1, 1) translate(-169.841400, -175.073700)" />
        <path d="M156.7334,183.5169 C158.5274,184.0899 160.3584,184.6089 162.2304,185.0569 L162.2304,180.9129 C160.7124,180.1919 159.2334,179.3999 157.7954,178.5499 C157.3624,180.7049 156.9964,182.3709 156.7334,183.5169" id="Fill-14" fill-opacity=".24" fill="#000" transform="translate(159.481900, 181.803400) scale(-1, 1) translate(-159.481900, -181.803400)" />
    </g>
    <g id="Facial-Hair" transform="translate(49.000000, 72.000000)"></g>
    <g id="Accessory" transform="translate(62.000000, 85.000000)"></g>
</svg>