<?xml version="1.0" encoding="UTF-8" standalone="no"?>
<svg xmlns:blush="http://design.blush" xmlns:dc="http://purl.org/dc/elements/1.1/" xmlns:cc="http://creativecommons.org/ns#" xmlns:rdf="http://www.w3.org/1999/02/22-rdf-syntax-ns#" xmlns:svg="http://www.w3.org/2000/svg" xmlns="http://www.w3.org/2000/svg" viewBox="52.5 33.599999999999994 162.39999999999998 161" overflow="visible" width="162.39999999999998px" height="161px" version="1.1" id="svg19">
   <metadata id="metadata25">
      <rdf:RDF>
         <cc:Work rdf:about="">
            <dc:format>image/svg+xml</dc:format>
            <dc:type rdf:resource="http://purl.org/dc/dcmitype/StillImage" />
            <dc:title></dc:title>
         </cc:Work>
      </rdf:RDF>
   </metadata>
   <defs id="defs23" />
   <g id="Hairstyle/Dreadlocks" stroke="none" stroke-width="1" fill="none" fill-rule="evenodd">
      <g id="Group-35" transform="translate(52.300000, 33.100000)">
         <g id="Hair-Color" fill="">
            <path d="M135.7129,58.8838 C135.7129,58.7438 135.7039,58.6068 135.7029,58.4668 C136.6069,57.9398 137.2679,57.0168 137.4129,55.8978 C137.6209,54.3068 136.7149,52.8388 135.3079,52.2388 C135.0399,49.9838 134.6419,47.7688 134.1149,45.6028 C135.4309,45.2428 136.4749,44.1408 136.6669,42.7038 C136.9239,40.7878 135.5789,39.0268 133.6629,38.7698 C133.0549,38.6878 132.4559,38.5868 131.8609,38.4778 C130.6489,35.3818 129.1779,32.4148 127.4579,29.6148 C128.0429,29.2318 128.5199,28.6718 128.7959,27.9718 C129.5039,26.1738 128.6199,24.1408 126.8209,23.4328 C122.1719,21.6028 117.4079,14.6048 115.9639,12.0618 C115.0129,10.3818 112.8769,9.7908 111.1969,10.7398 C110.7149,11.0128 110.3339,11.3888 110.0409,11.8178 C107.3149,10.0578 104.4339,8.5168 101.4099,7.2448 C101.0349,5.9128 100.8719,5.1098 100.8659,5.0778 C100.4989,3.1828 98.6659,1.9428 96.7689,2.3088 C95.4419,2.5648 94.4499,3.5438 94.0899,4.7548 C92.0029,4.2018 89.8689,3.7698 87.6939,3.4598 C87.2149,1.9338 85.7239,0.8818 84.0849,1.0108 C82.8229,1.1108 81.7819,1.8718 81.2479,2.9228 C80.7359,2.9088 80.2279,2.8838 79.7129,2.8838 C79.1069,2.8838 78.5059,2.9108 77.9039,2.9298 C77.3719,1.8788 76.3319,1.1158 75.0699,1.0148 C73.3989,0.8768 71.9059,1.9498 71.4409,3.4968 C69.2769,3.8168 67.1579,4.2668 65.0829,4.8278 C64.7409,3.5858 63.7369,2.5748 62.3859,2.3128 C60.4909,1.9418 58.6539,3.1828 58.2829,5.0778 C58.2779,5.1028 58.1019,5.9668 57.6989,7.3828 C54.7179,8.6578 51.8759,10.1928 49.1879,11.9448 C48.8879,11.4628 48.4809,11.0388 47.9519,10.7398 C46.2679,9.7888 44.1329,10.3828 43.1829,12.0648 C41.7489,14.6028 37.0029,21.5928 32.3289,23.4328 C30.5299,24.1418 29.6459,26.1738 30.3539,27.9718 C30.6599,28.7508 31.2189,29.3488 31.8949,29.7298 C30.2149,32.4798 28.7769,35.3918 27.5859,38.4268 C26.8949,38.5598 26.1949,38.6748 25.4859,38.7698 C23.5709,39.0268 22.2259,40.7878 22.4829,42.7038 C22.6879,44.2358 23.8559,45.4008 25.2949,45.6758 C24.7859,47.7798 24.3979,49.9308 24.1339,52.1208 C22.5569,52.6278 21.5139,54.1968 21.7359,55.8978 C21.8959,57.1248 22.6789,58.1088 23.7209,58.6008 C23.7199,58.6958 23.7129,58.7888 23.7129,58.8838 L23.7129,65.0498 C23.7129,65.0498 73.8409,62.4388 79.7129,27.0218 C79.7129,27.0218 91.9419,65.0498 135.7139,65.0498 L135.7129,58.8838 Z" id="Fill-1" blush:color="Hair-500" />
            <path d="M49.5625,147.1787 C50.0395,146.4437 50.4895,145.6907 50.8895,144.9057 C37.8005,137.0327 28.2015,123.9577 24.9365,108.5447 C24.0565,108.6657 23.1965,108.8457 22.3485,109.0557 C21.8635,107.5397 20.3925,106.5017 18.7335,106.6327 C16.8075,106.7917 15.3745,108.4817 15.5325,110.4077 C15.5435,110.5457 15.5895,111.0327 15.6905,111.7787 C13.7455,112.9197 11.9705,114.3127 10.4045,115.9147 C9.6325,115.2497 8.5885,114.9137 7.5085,115.1117 C5.6055,115.4537 4.3425,117.2747 4.6855,119.1767 C4.7095,119.3127 4.9705,120.7017 5.5815,122.8777 C4.0755,126.1077 3.2195,129.7007 3.2195,133.4997 C3.2195,134.1167 3.2495,134.7277 3.2925,135.3337 C2.9605,135.3537 2.6275,135.4057 2.2995,135.5257 C0.4845,136.1887 -0.4495,138.1987 0.2135,140.0137 C0.4235,140.5877 5.5155,154.1427 19.9925,160.6487 C20.4585,160.8577 20.9455,160.9567 21.4245,160.9567 C22.7605,160.9567 24.0365,160.1887 24.6195,158.8907 C24.6865,158.7417 24.7265,158.5867 24.7715,158.4347 C25.9625,158.6077 27.1805,158.6997 28.4195,158.6997 C30.4915,158.6997 32.5005,158.4367 34.4265,157.9647 C35.8795,158.5227 37.3685,159.0027 38.8945,159.3917 C39.1855,159.4657 39.4765,159.5007 39.7625,159.5007 C41.3235,159.5007 42.7475,158.4487 43.1515,156.8657 C43.3915,155.9247 43.2245,154.9767 42.7625,154.2037 C43.4725,153.7107 44.1565,153.1847 44.8105,152.6227 C45.2585,152.8217 45.6955,153.0277 46.1565,153.2157 C46.5895,153.3917 47.0365,153.4757 47.4765,153.4757 C48.8565,153.4757 50.1655,152.6537 50.7185,151.2957 C51.3335,149.7877 50.8105,148.1097 49.5625,147.1787" id="Fill-3" blush:color="Hair-500" />
            <path d="M158.9033,135.5254 C158.2933,135.3014 157.6643,135.2714 157.0693,135.3824 C157.1153,134.7594 157.1463,134.1334 157.1463,133.5004 C157.1463,130.1414 156.4853,126.9384 155.2933,124.0074 C156.1433,121.1844 156.4893,119.3354 156.5173,119.1764 C156.8613,117.2744 155.5973,115.4544 153.6953,115.1114 C152.4073,114.8764 151.1693,115.3924 150.3883,116.3344 C148.9263,114.7634 147.2693,113.3784 145.4513,112.2214 C145.5983,111.2134 145.6573,110.5724 145.6713,110.4084 C145.8293,108.4814 144.3953,106.7914 142.4693,106.6324 C140.7413,106.4964 139.2183,107.6294 138.8023,109.2494 C137.4173,108.8584 135.9853,108.5784 134.5143,108.4284 C131.3323,123.6104 122.0043,136.5264 109.2493,144.4624 C109.7913,145.5804 110.4173,146.6494 111.1113,147.6684 C110.2613,148.6324 109.9663,150.0244 110.4843,151.2964 C111.0383,152.6534 112.3463,153.4754 113.7273,153.4754 C114.1673,153.4754 114.6143,153.3914 115.0473,153.2154 C115.3173,153.1054 115.5703,152.9814 115.8373,152.8684 C116.5993,153.5034 117.3983,154.0964 118.2333,154.6394 C117.9443,155.3204 117.8553,156.0924 118.0513,156.8654 C118.4563,158.4484 119.8803,159.5014 121.4413,159.5014 C121.7273,159.5014 122.0183,159.4654 122.3083,159.3914 C123.7153,159.0324 125.0923,158.5974 126.4383,158.0944 C128.2123,158.4904 130.0533,158.7004 131.9463,158.7004 C133.4633,158.7004 134.9453,158.5584 136.3873,158.3014 C136.4373,158.5004 136.4973,158.6984 136.5843,158.8904 C137.1673,160.1884 138.4433,160.9574 139.7783,160.9574 C140.2573,160.9574 140.7453,160.8574 141.2113,160.6484 C155.6873,154.1424 160.7803,140.5874 160.9903,140.0134 C161.6533,138.1984 160.7183,136.1884 158.9033,135.5254" id="Fill-5" blush:color="Hair-500" />
         </g>
         <path d="M133.9473,58.9467 C135.6783,58.9467 137.1833,57.6617 137.4133,55.8977 C137.6633,53.9817 136.3103,52.2247 134.3943,51.9757 C91.8013,46.4307 87.9893,5.9407 87.8473,4.2197 C87.6943,2.2957 85.9853,0.8607 84.0853,1.0107 C82.1573,1.1627 80.7183,2.8477 80.8703,4.7757 C80.9083,5.2647 81.8943,16.9137 88.8233,29.4217 C95.2733,41.0647 108.2583,55.6327 133.4903,58.9167 C133.6433,58.9367 133.7963,58.9467 133.9473,58.9467" id="Fill-8" fill-opacity=".24" fill="#000" />
         <path d="M132.7334,45.707 C132.8904,45.728 133.0474,45.739 133.2034,45.739 C134.9284,45.739 136.4314,44.461 136.6674,42.704 C136.9234,40.788 135.5794,39.026 133.6634,38.77 C122.5974,37.286 113.7474,31.264 107.3554,20.873 C102.4404,12.881 100.8854,5.177 100.8664,5.078 C100.4994,3.183 98.6664,1.942 96.7684,2.309 C94.8704,2.675 93.6284,4.51 93.9944,6.408 C94.0614,6.758 101.1074,41.466 132.7334,45.707" id="Fill-11" fill-opacity=".24" fill="#000" />
         <path d="M124.2568,29.9467 C124.6778,30.1127 125.1108,30.1907 125.5378,30.1907 C126.9348,30.1907 128.2528,29.3497 128.7958,27.9717 C129.5038,26.1737 128.6198,24.1407 126.8208,23.4327 C122.1718,21.6027 117.4078,14.6047 115.9638,12.0617 C115.0128,10.3817 112.8768,9.7907 111.1968,10.7397 C109.5138,11.6907 108.9208,13.8257 109.8718,15.5087 C110.5248,16.6637 116.4748,26.8827 124.2568,29.9467" id="Fill-13" fill-opacity=".24" fill="#000" />
         <path d="M75.0703,1.0146 C73.1493,0.8566 71.4593,2.2966 71.3013,4.2196 C71.1593,5.9406 67.3483,46.4306 24.7553,51.9756 C22.8383,52.2246 21.4863,53.9816 21.7363,55.8976 C21.9653,57.6616 23.4703,58.9466 25.2023,58.9466 C25.3523,58.9466 25.5053,58.9366 25.6583,58.9166 C50.8913,55.6326 63.8763,41.0646 70.3253,29.4216 C77.2543,16.9136 78.2403,5.2646 78.2793,4.7756 C78.4303,2.8506 76.9953,1.1696 75.0703,1.0146" id="Fill-15" fill-opacity=".24" fill="#000" />
         <path d="M25.9473,45.7387 C26.1023,45.7387 26.2593,45.7287 26.4173,45.7067 C58.0413,41.4667 65.0883,6.7587 65.1553,6.4077 C65.5213,4.5117 64.2813,2.6807 62.3863,2.3127 C60.4913,1.9417 58.6543,3.1827 58.2833,5.0777 C58.2683,5.1547 56.7163,12.8697 51.7933,20.8727 C45.4033,31.2637 36.5513,37.2857 25.4863,38.7697 C23.5713,39.0267 22.2253,40.7877 22.4833,42.7037 C22.7183,44.4617 24.2203,45.7387 25.9473,45.7387" id="Fill-17" fill-opacity=".24" fill="#000" />
         <path d="M33.6118,30.1909 C34.0378,30.1909 34.4718,30.1119 34.8928,29.9469 C42.6748,26.8829 48.6248,16.6639 49.2768,15.5089 C50.2278,13.8259 49.6348,11.6909 47.9518,10.7399 C46.2678,9.7889 44.1328,10.3819 43.1828,12.0649 C41.7488,14.6029 37.0028,21.5929 32.3288,23.4329 C30.5298,24.1419 29.6458,26.1729 30.3538,27.9719 C30.8968,29.3499 32.2158,30.1909 33.6118,30.1909" id="Fill-19" fill-opacity=".24" fill="#000" />
         <path d="M48.7983,146.7334 C25.1153,137.0824 22.6043,110.9354 22.5083,109.8284 C22.3473,107.9044 20.6623,106.4814 18.7343,106.6324 C16.8073,106.7914 15.3743,108.4814 15.5323,110.4084 C15.6383,111.6894 18.4323,141.9174 46.1563,153.2154 C46.5893,153.3914 47.0363,153.4754 47.4763,153.4754 C48.8573,153.4754 50.1653,152.6534 50.7183,151.2954 C51.4483,149.5054 50.5883,147.4624 48.7983,146.7334" id="Fill-21" fill-opacity=".24" fill="#000" />
         <path d="M40.625,152.6084 C17.103,146.6094 11.63,118.2364 11.573,117.9294 C11.228,116.0294 9.409,114.7644 7.508,115.1114 C5.606,115.4544 4.342,117.2744 4.686,119.1764 C4.746,119.5144 6.231,127.5354 11.094,136.4594 C17.653,148.4954 27.267,156.4254 38.895,159.3914 C39.185,159.4654 39.476,159.5014 39.762,159.5014 C41.324,159.5014 42.748,158.4484 43.151,156.8654 C43.629,154.9924 42.498,153.0864 40.625,152.6084" id="Fill-23" fill-opacity=".24" fill="#000" />
         <path d="M22.8613,154.2636 C11.1863,149.0166 6.8533,137.7826 6.7843,137.6016 C6.1183,135.7926 4.1133,134.8596 2.2993,135.5256 C0.4843,136.1886 -0.4497,138.1986 0.2133,140.0136 C0.4233,140.5876 5.5153,154.1426 19.9923,160.6486 C20.4583,160.8576 20.9453,160.9566 21.4243,160.9566 C22.7603,160.9566 24.0363,160.1886 24.6193,158.8906 C25.4113,157.1276 24.6243,155.0556 22.8613,154.2636" id="Fill-25" fill-opacity=".24" fill="#000" />
         <path d="M145.6709,110.4082 C145.8289,108.4812 144.3959,106.7912 142.4699,106.6332 C140.5409,106.4812 138.8569,107.9042 138.6939,109.8282 C138.5999,110.9352 136.0879,137.0822 112.4049,146.7332 C110.6149,147.4632 109.7549,149.5062 110.4839,151.2962 C111.0379,152.6532 112.3469,153.4752 113.7279,153.4752 C114.1669,153.4752 114.6139,153.3912 115.0469,153.2162 C142.7709,141.9172 145.5659,111.6892 145.6709,110.4082" id="Fill-28" fill-opacity=".24" fill="#000" />
         <path d="M150.1094,136.459 C154.9724,127.535 156.4574,119.515 156.5174,119.177 C156.8614,117.274 155.5974,115.454 153.6954,115.111 C151.7954,114.765 149.9754,116.029 149.6304,117.93 C149.5734,118.236 144.1004,146.609 120.5784,152.608 C118.7054,153.086 117.5744,154.992 118.0514,156.865 C118.4564,158.448 119.8804,159.501 121.4414,159.501 C121.7274,159.501 122.0184,159.466 122.3084,159.392 C133.9364,156.426 143.5494,148.495 150.1094,136.459" id="Fill-30" fill-opacity=".24" fill="#000" />
         <path d="M158.9033,135.5254 C157.0903,134.8594 155.0853,135.7934 154.4193,137.6014 C154.3503,137.7824 150.0173,149.0164 138.3413,154.2634 C136.5793,155.0554 135.7923,157.1284 136.5843,158.8904 C137.1673,160.1884 138.4433,160.9574 139.7783,160.9574 C140.2573,160.9574 140.7453,160.8574 141.2113,160.6484 C155.6873,154.1424 160.7803,140.5874 160.9903,140.0134 C161.6533,138.1984 160.7183,136.1884 158.9033,135.5254" id="Fill-32" fill-opacity=".24" fill="#000" />
      </g>
      <g id="Facial-Hair" transform="translate(49.000000, 72.000000)"></g>
      <g id="Accessory" transform="translate(62.000000, 85.000000)"></g>
   </g>
</svg>