<svg viewBox="69.30000000000001 -4.200000000000017 127.4 114.79999999999994" xmlns="http://www.w3.org/2000/svg" xmlns:xlink="http://www.w3.org/1999/xlink" xmlns:blush="http://design.blush" overflow="visible" width="127.4px" height="114.79999999999994px">
    <defs>
        <path d="M264,0 L264,280 L232,280 L232,271 C232,231.235498 199.764502,199 160,199 L160,199 L156,199 L156.001014,180.610469 C173.531251,172.282329 186.048207,155.114429 187.791415,134.867236 C193.568906,134.002616 198,129.018777 198,123 L198,123 L198,110 C198,104.05429 193.675838,99.1185422 188.000809,98.1660527 L188,92 C188,61.072054 162.927946,36 132,36 C101.072054,36 76,61.072054 76,92 L76,92 L76.0001873,98.1658855 C70.3246685,99.1179645 66,104.053942 66,110 L66,110 L66,123 C66,129.018777 70.4310943,134.002616 76.2090181,134.867253 C77.9518263,155.114813 90.4692242,172.28298 107.999984,180.610943 L108,199 L104,199 C64.633143,199 32.6454629,230.594012 32.0096459,269.809348 L32,271 L32,280 L0,280 L0,0 L264,0 Z" id="hairstyleelvis-path-1" />
    </defs>
    <g id="Hairstyle/Elvis" stroke="none" stroke-width="1" fill="none" fill-rule="evenodd">
        <g id="template-for-hairstyles" opacity=".184" transform="translate(1.000000, 0.000000)">
            <mask id="hairstyleelvis-mask-2" fill="#fff">
                <use xlink:href="#hairstyleelvis-path-1" />
            </mask>
            <g id="Mask-Hair" />
        </g>
        <g id="Group-6" transform="translate(70.000000, -5.000000)">
            <path d="M118.6098,51.4917 C112.6958,48.6827 93.1798,40.4577 74.9898,37.4957 C78.3088,33.9947 80.1048,29.2577 80.1048,23.8847 C80.1048,12.6237 70.2968,0.9997 51.0448,0.9997 C35.0618,0.9997 17.6258,9.7177 13.0858,27.1537 C11.4708,33.3537 11.3788,41.1077 14.2518,48.4477 C11.8308,49.7337 9.6618,51.0617 7.8178,52.3997 C-3.4422,60.5727 0.5528,103.0737 1.2798,107.7957 C2.0058,112.5177 4.3668,112.6997 5.6388,112.6997 C9.2708,112.6997 9.9978,95.2627 9.9978,95.2627 C25.0928,83.5597 24.3498,64.3267 24.1848,61.8337 C31.5858,67.7747 42.9008,72.0067 59.5818,72.5597 C81.9378,73.3027 95.5908,69.2057 103.1898,65.5677 C103.5678,90.0347 115.5218,97.2617 115.5218,97.2617 C115.5218,114.5567 119.3368,114.8787 120.2448,114.8787 C121.1528,114.8787 124.9658,113.2437 125.3298,108.1587 C125.6928,103.0737 125.8748,54.9427 118.6098,51.4917" id="Hair-Color" fill="#724133" blush:color="Hair-500" />
            <path d="M58.2192,26.8814 C58.2192,26.8814 60.4902,26.1544 60.4902,23.7944 C60.4902,21.4324 58.4912,20.5244 52.0442,20.5244 C45.5962,20.5244 39.7842,24.9744 39.7842,30.7864 C39.7842,36.5984 45.5962,41.6844 53.7692,41.6844 C61.9422,41.6844 68.6032,40.6644 74.9902,37.4964 L79.1382,38.2554 C79.1382,38.2554 74.3842,45.5894 55.0412,45.5894 C34.8802,45.5894 33.5462,32.0374 34.9352,27.6044 C36.2422,23.4304 40.6922,17.1644 53.4062,17.1644 C53.4062,17.1644 64.0322,17.5274 64.0322,21.6144 C64.0322,25.7014 58.2192,26.8814 58.2192,26.8814" id="Fill-4" fill-opacity=".24" fill="#000" />
        </g>
        <g id="Facial-Hair" transform="translate(49.000000, 72.000000)"></g>
        <g id="Accessory" transform="translate(62.000000, 85.000000)"></g>
    </g>
</svg>