<svg viewBox="38.5 -18.19999999999999 189 124.59999999999995" xmlns="http://www.w3.org/2000/svg" xmlns:xlink="http://www.w3.org/1999/xlink" xmlns:blush="http://design.blush" overflow="visible" width="189px" height="124.59999999999995px">
    <g id="Hairstyle/Evil spike" stroke="none" stroke-width="1" fill="none" fill-rule="evenodd" transform="translate(-1, 0)">
        <path d="M222.4816,14.4843 C217.2466,21.3663 211.4446,27.9543 211.4446,27.9543 C221.5366,16.1393 222.3716,-3.8487 221.8606,-15.5077 C221.7456,-18.1447 218.2396,-18.9507 216.9636,-16.6407 C207.6716,0.1763 199.6386,5.4583 199.6386,5.4583 C200.7266,3.5833 201.4386,0.7083 201.9006,-2.0657 C202.3166,-4.5647 199.2786,-6.1197 197.4846,-4.3317 C180.1196,12.9743 154.6026,20.2163 131.2296,20.2163 C107.9216,20.2163 85.3306,13.0153 68.5316,-4.1877 C66.7456,-6.0147 63.6586,-4.4697 64.0836,-1.9517 C64.5456,0.7883 65.2526,3.6083 66.3256,5.4583 C66.3256,5.4583 58.2946,0.1763 49.0016,-16.6407 C47.7256,-18.9507 44.2196,-18.1447 44.1036,-15.5077 C43.5936,-3.8487 44.4286,16.1393 54.5206,27.9543 C54.5206,27.9543 48.8696,21.5373 43.6886,14.7533 C42.0816,12.6503 38.7286,13.9903 39.0176,16.6213 C40.3486,28.7293 44.3466,49.8913 56.3366,63.7343 C73.9546,84.0763 75.8336,91.2953 77.0736,97.2213 C77.8626,109.0953 84.8206,108.9583 84.8206,96.7903 C84.8206,84.6213 87.0006,59.3753 99.3506,59.3753 C111.6276,59.3753 119.4806,67.7283 133.2236,67.7283 C146.9676,67.7283 154.8206,59.3753 167.0966,59.3753 C179.4476,59.3753 181.6276,84.6213 181.6276,96.7903 C181.6276,108.9583 188.5856,109.0953 189.3746,97.2213 C189.4236,96.4823 192.9196,81.5333 209.6286,63.7343 C222.3286,50.2063 226.0626,28.4793 227.1586,16.2913 C227.3916,13.6883 224.0646,12.4043 222.4816,14.4843 Z" id="Hair-Color" fill="#724133" blush:color="Hair-500" />
    </g>
    <g id="Facial-Hair" transform="translate(49.000000, 72.000000)"></g>
    <g id="Accessory" transform="translate(62.000000, 85.000000)"></g>
</svg>