<svg viewBox="56.69999999999999 30.799999999999983 132.99999999999997 158.2" xmlns="http://www.w3.org/2000/svg" xmlns:xlink="http://www.w3.org/1999/xlink" xmlns:blush="http://design.blush" overflow="visible" width="132.99999999999997px" height="158.2px">
    <g id="Hairstyle/Half Shaved" stroke="none" stroke-width="1" fill="none" fill-rule="evenodd">
        <g id="Facial-Hair" transform="translate(49.000000, 72.000000)"></g>
        <g id="Accessory" transform="translate(62.000000, 85.000000)"></g>
        <g id="Group-8" transform="translate(57.000000, 30.000000)">
            <path d="M130.951,62.0054 C130.951,46.0534 124.275,31.6664 113.571,21.4674 C113.411,22.4804 113.102,23.4984 112.607,24.5134 C111.907,25.9484 110.085,27.2154 107.47,28.4204 C114.748,35.1444 124.776,47.8474 124.776,66.8324 C124.776,96.6184 130.952,68.1714 130.952,68.1714 L130.951,62.0054 Z" id="Fill-1" fill-opacity=".24" fill="#000" />
            <path d="M43.2269,158.9156 L43.2269,69.9196 C43.2269,36.5006 107.5119,34.9606 112.6069,24.5136 C119.8729,9.6206 90.0859,-6.0004 54.5799,4.3406 C20.7489,14.1926 -0.0001,38.3166 -0.0001,73.5526 C-0.0001,98.9796 -0.0001,144.0226 9.0809,150.5616 C11.6239,134.5776 13.0769,128.0056 13.0769,128.0056 C13.0769,128.0056 17.0729,149.1076 24.7009,156.0106 L28.3329,136.3946 C28.3329,136.3946 35.2349,155.2836 43.2269,158.9156" id="Hair-Color" fill="#724133" blush:color="Hair-500" />
            <path d="M47.2225,148.6626 L47.2225,73.5526 C47.2225,40.1326 107.5115,38.5926 112.6075,28.1456 C113.6255,26.0596 113.8925,23.8886 113.5415,21.7246 C113.3695,22.6526 113.0605,23.5846 112.6075,24.5136 C107.5115,34.9606 43.2265,36.5006 43.2265,69.9196 L43.2265,146.1566 C44.5195,147.0476 45.8545,147.8806 47.2225,148.6626" id="Fill-6" fill-opacity=".24" fill="#000" />
        </g>
    </g>
</svg>