<svg viewBox="10.5 1.4000000000000057 245.00000000000003 138.59999999999997" xmlns="http://www.w3.org/2000/svg" xmlns:xlink="http://www.w3.org/1999/xlink" xmlns:blush="http://design.blush" overflow="visible" width="245.00000000000003px" height="138.59999999999997px">
    <defs>
        <path d="M264,5.68434189e-14 L264,280 L232,280 L232,271 C232,231.235498 199.764502,199 160,199 L160,199 L156,199 L156.001014,180.610469 C173.531251,172.282329 186.048207,155.114429 187.791415,134.867236 C193.568906,134.002616 198,129.018777 198,123 L198,123 L198,110 C198,104.05429 193.675838,99.1185422 188.000809,98.1660527 L188,92 C188,84.0546578 186.345324,76.495786 183.361772,69.6491845 C173.434911,53 89.3126235,53.8033992 80.7098777,69.4854816 C77.6811789,76.3752214 76,83.9912805 76,92 L76,92 L76.0001873,98.1658855 C70.3246685,99.1179645 66,104.053942 66,110 L66,110 L66,123 C66,129.018777 70.4310943,134.002616 76.2090181,134.867253 C77.9518263,155.114813 90.4692242,172.28298 107.999984,180.610943 L108,199 L104,199 C64.633143,199 32.6454629,230.594012 32.0096459,269.809348 L32,271 L32,280 L0,280 L0,5.68434189e-14 L264,5.68434189e-14 Z" id="hairstylehat-path-1" />
    </defs>
    <g id="Hairstyle/Hat" stroke="none" stroke-width="1" fill="none" fill-rule="evenodd" transform="translate(-1, 0)">
        <path d="M171.960913,44.3079373 C149.035815,33.3948053 126.33288,35.1815171 109.194439,38.7335206 C92.0559977,42.2855241 81.9174105,52.3719743 73.2186018,67.2933916 C68.9475512,74.620169 70.8330356,89.3697675 71.8877393,86.7666037 C73.3948978,83.0467736 75.3134138,79.0135536 78.2501452,75.8749762 C85.518997,68.1072701 98.1016964,67.6644703 108.092191,63.3902051 C107.225306,64.7008301 103.882978,66.8225271 105.041001,68.2996697 C105.840671,69.3199802 108.868047,69.0106441 110.313367,68.9779018 C114.116216,68.8924602 117.936348,68.348939 121.692721,67.9080102 C127.612659,67.2129393 133.159647,65.8043994 138.730833,64.0940073 C143.29187,62.6932631 148.500861,61.3960469 151.92884,58.4249227 C157.460465,63.1332565 164.580675,67.5606307 171.690131,70.5532712 C178.069821,73.2390702 188.358751,74.5811901 192.258389,80.0282512 C196.874734,86.4775365 194.88601,55.2210692 171.960913,44.3079373 Z" id="Hair-Color" fill="#724133" blush:color="Hair-500" />
        <g id="Hat" transform="translate(1.000000, 0.000000)">
            <mask id="hairstylehat-mask-2" fill="#fff">
                <use xlink:href="#hairstylehat-path-1" />
            </mask>
            <g id="Mask-Hair" />
            <path d="M123.182388,2 L141.817612,2 C160.609055,2 176.866947,15.0804442 180.890118,33.4361631 L190,75 L190,75 L75,75 L84.1098821,33.4361631 C88.1330533,15.0804442 104.390945,2 123.182388,2 Z" fill="#1F333C" mask="url(#hairstylehat-mask-2)" />
            <ellipse id="Hipster" fill="#1F333C" mask="url(#hairstylehat-mask-2)" cx="132" cy="87.5" rx="122" ry="57.5" />
            <ellipse id="Very" fill="#15232A" mask="url(#hairstylehat-mask-2)" cx="132" cy="82" rx="62" ry="25" />
        </g>
        <g id="Facial-Hair" transform="translate(49.000000, 72.000000)"></g>
        <g id="Accessory" transform="translate(62.000000, 85.000000)"></g>
    </g>
</svg>