<svg viewBox="7.700000000000017 9.800000000000011 259 240.80000000000007" xmlns="http://www.w3.org/2000/svg" xmlns:xlink="http://www.w3.org/1999/xlink" xmlns:blush="http://design.blush" overflow="visible" width="259px" height="240.80000000000007px">
    <g id="Hairstyle/Long hair curly" stroke="none" stroke-width="1" fill="none" fill-rule="evenodd">
        <g id="Group-13" transform="translate(6.800000, 9.600000)">
            <path d="M220.9468,135.0391 C201.3318,126.8661 199.4248,113.5171 204.3288,94.9911 C209.2318,76.4651 211.4118,66.1121 207.0528,52.4911 C204.4198,44.2621 187.9348,28.8101 172.1148,33.8451 C172.2398,33.3551 172.3518,32.8511 172.4538,32.3301 C175.7218,15.4391 160.7388,1.0001 121.2348,1.0001 C70.2888,1.0001 37.0508,35.3271 37.0508,68.0191 C37.0508,95.8081 56.1218,91.9941 56.1218,111.0641 C56.1218,132.3141 -0.0002,160.1031 -0.0002,201.7861 C-0.0002,220.6181 13.5678,234.8591 28.4438,239.8811 C37.5818,210.6071 64.8878,189.3541 97.1708,189.3541 L101.1708,189.3541 L101.1708,172.3631 L101.1708,170.9661 C92.0248,166.6211 84.2528,159.8621 78.6548,151.5221 C83.3848,143.7721 93.6728,134.9321 101.4198,130.7001 C98.1338,135.0271 95.6768,139.5171 96.8038,144.2981 C99.5148,155.7971 116.8728,153.3471 116.8728,153.3471 C99.9868,148.6771 104.6088,138.4611 110.8748,133.7911 C115.3838,130.4311 128.7778,122.3851 128.3238,109.7811 C128.3268,109.6641 128.3368,109.5491 128.3368,109.4301 C128.3368,86.5451 110.0648,88.4521 110.0648,68.0191 C110.0648,47.5871 134.8578,48.4211 145.3588,49.2051 C148.3508,49.4291 152.4878,49.4831 156.6518,48.5541 C152.3588,59.6511 157.0338,71.8211 159.3768,75.9201 C167.0048,89.2691 181.4198,86.5041 183.3508,94.4461 C185.8018,104.5261 169.4568,111.6091 169.4568,126.8661 C169.4568,133.0541 172.5488,137.9851 176.8428,141.9181 C171.5118,154.6781 161.6158,165.0541 149.1718,170.9651 L149.1718,189.3541 L153.1708,189.3541 C181.9778,189.3541 206.8238,206.2791 218.3348,230.7221 C230.0108,229.6551 247.8168,220.9791 255.5468,200.4251 C267.5348,168.5491 240.5628,143.2121 220.9468,135.0391" id="Hair-Color" fill="#724133" blush:color="Hair-500" />
            <path d="M170.5464,24.7017 C161.8274,14.8937 129.4074,14.0767 111.1544,22.7947 C92.9014,31.5127 84.7284,48.6767 93.1734,65.0227 C101.6034,81.3387 121.8884,82.4787 127.4254,101.4357 C123.7414,86.6657 110.0654,85.7027 110.0654,68.0197 C110.0654,47.5867 134.8584,48.4207 145.3594,49.2047 C148.3514,49.4287 152.4874,49.4837 156.6514,48.5537 C156.6514,48.5537 179.2644,34.5097 170.5464,24.7017" id="Fill-4" fill-opacity=".16" fill="#000" />
            <path d="M43.1046,213.836 C34.8836,208.679 29.1506,198.513 29.1506,189.526 C29.1506,157.651 82.5486,124.959 82.5486,109.158 C82.5486,93.357 65.3856,82.187 50.1286,60.936 C41.0686,48.317 50.3586,33.104 59.3996,22.828 C45.1286,35.426 37.0516,51.917 37.0516,68.02 C37.0516,95.808 56.1226,91.994 56.1226,111.065 C56.1226,132.315 0.0006,160.104 0.0006,201.786 C0.0006,220.637 13.5956,234.733 28.4886,239.731 C31.5326,230.056 36.5646,221.271 43.1046,213.836" id="Fill-6" fill-opacity=".16" fill="#000" />
            <path d="M207.9664,156.834 C203.5604,145.348 193.9764,138.309 187.7094,126.049 C183.2314,117.286 182.3014,101.436 182.3014,101.436 C178.8084,108.459 169.4564,115.323 169.4564,126.866 C169.4564,133.054 172.5484,137.985 176.8424,141.918 C171.5124,154.678 161.6154,165.054 149.1714,170.965 L149.1714,189.355 L153.1704,189.355 C168.1524,189.355 182.0554,193.939 193.5754,201.772 C213.2754,190.638 211.6174,166.353 207.9664,156.834" id="Fill-8" fill-opacity=".6" fill="#000" />
            <path d="M101.171,189.3545 L101.171,172.3635 L101.171,170.9655 C92.025,166.6215 84.253,159.8625 78.654,151.5225 C69.75,169.1625 70.593,183.3795 74.827,192.9025 C81.861,190.6065 89.369,189.3545 97.171,189.3545 L101.171,189.3545 Z" id="Fill-10" fill-opacity=".6" fill="#000" />
        </g>
    </g>
</svg>