<svg viewBox="37.10000000000002 7 193.19999999999996 151.2" xmlns="http://www.w3.org/2000/svg" xmlns:xlink="http://www.w3.org/1999/xlink" xmlns:blush="http://design.blush" overflow="visible" width="193.19999999999996px" height="151.2px">
    <g id="Accessory" transform="translate(62.000000, 85.000000)"></g>
    <g id="Hairstyle/Mowgli" stroke="none" stroke-width="1" fill="none" fill-rule="evenodd" transform="translate(-1, 0)">
        <path d="M80,98 C94.6666667,94 107.666667,88.6666667 119,82 C117,86 109,94 126,89 C143,84 158,71 159,71 C160,71 169,107 178,108 C184,108.666667 187,100.333333 187,83 L187,84 L187,80 L179,58 L148,48 L108,55 L82,65 L75,83 L80,98 Z" id="Path-7" fill-opacity=".16" fill="#000" />
        <path d="M204.5485,59.1062 C204.5485,59.1062 217.9885,61.1042 218.8975,57.8352 C219.8055,54.5652 213.9935,44.2132 182.9355,38.4012 C182.9355,38.4012 189.8375,24.5972 187.2945,24.5972 C184.7515,24.5972 178.3955,33.1342 178.3955,33.1342 C178.3955,33.1342 166.2265,6.0712 162.4115,7.3432 C158.5975,8.6142 162.4115,21.1472 162.4115,21.1472 C162.4115,21.1472 137.7105,6.0632 102.2945,8.4332 C79.5835,9.9522 77.4115,16.2342 88.4905,22.2322 C88.4905,22.2322 73.0525,26.5952 54.1635,46.3922 C35.2745,66.1892 37.0905,77.4502 38.5435,78.7222 C39.9965,79.9932 52.7105,74.1812 52.7105,74.1812 C52.7105,74.1812 44.7185,90.1642 45.0815,112.8672 C45.5625,142.9252 56.8875,149.5562 60.3385,149.9192 C63.7895,150.2822 62.6995,139.9892 62.6995,139.9892 C62.6995,139.9892 70.5605,154.0742 84.1905,157.6542 C80.3235,150.8412 77.8445,143.1362 77.1375,134.9252 C71.3605,134.0612 66.9285,129.0772 66.9285,123.0582 L66.9285,110.0582 C66.9285,104.5292 70.6695,99.8792 75.7565,98.4872 C75.7235,104.2892 75.7855,119.8152 77.4115,119.2242 C79.4085,118.4982 83.4045,89.9822 83.4045,89.9822 C83.4045,89.9822 112.8285,86.3502 138.6185,63.1022 C138.6185,63.1022 118.4585,83.9892 121.1825,85.4422 C123.9075,86.8952 153.3425,73.5512 161.6855,61.8312 C161.6855,61.8312 163.6835,73.8922 166.9525,84.2452 C168.9945,90.7112 175.3075,102.5152 178.0315,101.7882 C180.7565,101.0622 181.1185,88.3482 181.1185,88.3482 C181.1185,88.3482 184.3885,114.8652 186.2045,113.5942 C188.0215,112.3222 188.9295,98.2242 188.9295,98.2242 C194.6045,99.1762 198.9295,104.1122 198.9295,110.0582 L198.9295,123.0582 C198.9295,129.0772 194.4975,134.0612 188.7205,134.9252 C188.0175,143.0852 185.5635,150.7432 181.7365,157.5262 C186.2625,155.1792 192.3605,150.4352 196.5575,141.0202 C196.5575,141.0202 190.5645,157.6602 194.7405,158.0582 C198.9185,158.4552 216.1735,148.1032 219.6235,120.8582 C219.6235,120.8582 224.1645,128.8502 227.6145,127.3972 C231.0665,125.9442 229.6125,80.3562 204.5485,59.1062" id="Hair-Color" fill="#724133" blush:color="Hair-500" />
    </g>
    <g id="Facial-Hair" transform="translate(49.000000, 72.000000)"></g>
</svg>