<svg viewBox="66.5 21 140 96.59999999999994" xmlns="http://www.w3.org/2000/svg" xmlns:xlink="http://www.w3.org/1999/xlink" xmlns:blush="http://design.blush" overflow="visible" width="140px" height="96.59999999999994px">
    <g id="Facial-Hair" transform="translate(49.000000, 72.000000)"></g>
    <g id="Accessory" transform="translate(62.000000, 85.000000)"></g>
    <g id="Hairstyle/Pixie" stroke="none" stroke-width="1" fill="none" fill-rule="evenodd" transform="translate(-1, 0)">
        <path d="M173.1408,62.8412 C173.1408,62.8412 165.9888,75.6872 145.6638,80.4402 C143.4978,80.9462 142.0228,78.2722 143.5958,76.6992 C146.4288,73.8672 149.6688,70.1962 151.5278,66.6552 C151.5278,66.6552 136.0888,76.4632 121.9228,81.7302 C106.4998,86.3702 97.8288,95.5112 93.9378,100.7262 C92.7908,102.2642 90.3508,101.7092 89.9808,99.8262 C89.1828,95.7572 88.9338,89.6502 92.3178,83.7282 C92.3178,83.7282 79.1388,93.9192 78.2588,113.8782 C78.1848,115.5582 75.9728,116.1062 75.1048,114.6642 C69.7248,105.7222 60.7198,85.4182 73.6108,64.6572 L73.3128,64.9552 C71.6888,66.5792 68.9468,64.9782 69.5918,62.7742 C72.0318,54.4352 78.5898,40.6422 96.1318,30.3302 C123.0128,14.5292 147.2578,26.0612 147.2578,26.0612 C146.2298,24.4232 147.6288,22.3542 149.5358,22.6812 C158.0368,24.1432 175.5708,29.6652 181.4958,50.4912 C181.4958,50.4912 183.2508,49.2232 185.8648,49.7772 C187.4138,50.1052 187.8628,52.1022 186.5808,53.0332 C186.5808,53.0332 205.9168,55.9402 205.9168,82.8202 C205.9168,97.5932 195.8118,110.6202 191.3288,116.2352 C190.3928,117.4082 188.5198,116.8672 188.3288,115.3782 C188.0198,112.9882 187.3408,110.0212 185.8548,107.8842 C182.9488,103.7072 175.3208,97.5312 177.6818,87.9052 L176.5288,92.6082 C176.0408,94.5932 173.3678,94.9362 172.3998,93.1362 C169.2658,87.3092 165.6708,76.1902 173.1408,62.8412" id="Hair-Color" fill="#724133" blush:color="Hair-500" />
    </g>
</svg>