<svg viewBox="76.30000000000001 0 113.39999999999996 99.39999999999993" xmlns="http://www.w3.org/2000/svg" xmlns:xlink="http://www.w3.org/1999/xlink" xmlns:blush="http://design.blush" overflow="visible" width="113.39999999999996px" height="99.39999999999993px">
    <g id="Hairstyle/Pompadour" stroke="none" stroke-width="1" fill="none" fill-rule="evenodd" transform="translate(-1, 0)">
        <g id="Hair-Color" fill="">
            <path d="M90.0666667,56.0003794 C80.0222222,68.0001265 75.6888889,82.0001265 77.0666667,98.0003794 C89.0666667,104.000379 87.0666667,70.0003794 105.066667,57.0003794 C117.066667,48.3337128 112.066667,48.0003794 90.0666667,56.0003794 Z" id="Path" blush:color="Hair-500" />
            <path d="M166.97536,57.0003794 C158.284503,68.3337128 154.272408,82.0003794 154.939075,98.0003794 C166.939075,104.000379 164.939075,70.0003794 182.939075,57.0003794 C194.939075,48.3337128 189.617837,48.3337128 166.97536,57.0003794 Z" id="Path" transform="translate(172.021013, 74.601996) scale(-1, 1) translate(-172.021013, -74.601996)" blush:color="Hair-500" />
            <path d="M176.938696,37.6907028 C166.844253,31.2557232 155.843551,28.0980078 155.843551,18.4455383 C155.843551,8.79306882 156.677452,2.83492551 141.07695,1.22618059 C125.476448,-0.382564322 104.350833,6.43945403 91.5033604,26.5487655 C78.655888,46.6580769 79.4364293,62.7099269 101.460668,59.492437 C123.484906,56.2749472 164.780353,60.2968095 176.710149,61.9055544 C188.639944,63.5142993 187.033138,44.1256825 176.938696,37.6907028 Z" id="Path-2" blush:color="Hair-500" />
        </g>
        <g id="Facial-Hair" transform="translate(49.000000, 72.000000)"></g>
        <g id="Accessory" transform="translate(62.000000, 85.000000)"></g>
    </g>
</svg>