<?xml version="1.0" encoding="UTF-8" standalone="no"?>
<svg xmlns:dc="http://purl.org/dc/elements/1.1/" xmlns:cc="http://creativecommons.org/ns#" xmlns:rdf="http://www.w3.org/1999/02/22-rdf-syntax-ns#" xmlns:svg="http://www.w3.org/2000/svg" xmlns="http://www.w3.org/2000/svg" xmlns:xlink="http://www.w3.org/1999/xlink" viewBox="73.5 32.19999999999999 118.99999999999993 173.6" overflow="visible" width="118.99999999999993px" height="173.6px" version="1.1" id="svg41">
   <metadata id="metadata45">
      <rdf:RDF>
         <cc:Work rdf:about="">
            <dc:format>image/svg+xml</dc:format>
            <dc:type rdf:resource="http://purl.org/dc/dcmitype/StillImage" />
            <dc:title></dc:title>
         </cc:Work>
      </rdf:RDF>
   </metadata>
   <defs id="defs6">
      <filter id="hairstyletwist-long-hair-2-filter-3">
         <feColorMatrix in="SourceGraphic" values="0 0 0 0 0.000000 0 0 0 0 0.000000 0 0 0 0 0.000000 0 0 0 0.240000 0" id="feColorMatrix2" />
      </filter>
      <path d="M264,0 L264,280 L232,280 L232,271 C232,231.235498 199.764502,199 160,199 L160,199 L156,199 L156.001014,180.610469 C173.531251,172.282329 186.048207,155.114429 187.791415,134.867236 C193.568906,134.002616 198,129.018777 198,123 L198,123 L198,110 C198,104.05429 193.675838,99.1185422 188.000809,98.1660527 L188,92 C188,61.072054 162.927946,36 132,36 C101.072054,36 76,61.072054 76,92 L76,92 L76.0001873,98.1658855 C70.3246685,99.1179645 66,104.053942 66,110 L66,110 L66,123 C66,129.018777 70.4310943,134.002616 76.2090181,134.867253 C77.9518263,155.114813 90.4692242,172.28298 107.999984,180.610943 L108,199 L104,199 C64.633143,199 32.6454629,230.594012 32.0096459,269.809348 L32,271 L32,280 L0,280 L0,0 L264,0 Z" id="hairstyletwist-long-hair-2-path-1" />
   </defs>
   <g id="Hairstyle/Twist Long hair 2" stroke="none" stroke-width="1" fill="none" fill-rule="evenodd" transform="translate(-1, 0)">
      <g id="template-for-hairstyles" opacity=".184" transform="translate(1.000000, 0.000000)">
         <mask id="hairstyletwist-long-hair-2-mask-2" fill="#fff">
            <use xlink:href="#hairstyletwist-long-hair-2-path-1" id="use8" />
         </mask>
         <g id="Mask-Hair" />
      </g>
      <path id="Hair-Color" d="M 56.800781 0.80078125 C 55.633969 0.79215625 54.517234 1.4699688 54.021484 2.6054688 C 53.967484 2.7304688 53.731922 3.2442031 53.294922 4.0332031 C 49.987922 4.2782031 46.897766 4.7162656 44.009766 5.3222656 C 43.871766 4.7342656 43.563172 4.179 43.076172 3.75 C 41.835172 2.659 39.93975 2.779625 38.84375 4.015625 C 38.78175 4.085625 32.490016 11.056453 21.666016 12.564453 C 20.025016 12.792453 18.878422 14.308219 19.107422 15.949219 C 19.192422 16.561219 19.463703 17.099344 19.845703 17.527344 C 16.388703 20.830344 13.637031 24.523859 11.457031 28.380859 C 10.804031 28.460859 10.158281 28.545328 9.4882812 28.611328 C 7.8392812 28.774328 6.6358281 30.243578 6.7988281 31.892578 C 6.9078281 33.003578 7.6134531 33.902125 8.5644531 34.328125 C 7.8464531 36.057125 7.2245469 37.795484 6.6855469 39.521484 C 6.3585469 39.535484 6.0380313 39.552453 5.7070312 39.564453 C 4.0520312 39.622453 2.7564531 41.010969 2.8144531 42.667969 C 2.8634531 44.045969 3.8381875 45.166656 5.1171875 45.472656 C 4.5891875 47.916656 4.2113594 50.284484 3.9433594 52.521484 C 3.7153594 52.543484 3.4955781 52.570797 3.2675781 52.591797 C 1.6185781 52.752797 0.41226563 54.218187 0.57226562 55.867188 C 0.71926563 57.380188 1.9663594 58.511406 3.4433594 58.566406 C 3.3583594 60.459406 3.3479531 62.158234 3.3769531 63.615234 C 1.7429531 63.683234 0.459002 65.0465 0.5 66.6875 C 0.544 68.3435 1.899125 69.641375 3.578125 69.609375 C 3.676125 69.606375 3.7711406 69.600656 3.8691406 69.597656 C 5.3491406 77.450656 10.110172 77.348391 11.076172 69.275391 C 46.506172 67.037391 66.443984 55.878125 77.083984 46.578125 C 81.876984 42.390125 85.254422 38.223625 87.607422 34.640625 C 89.339422 44.517625 94.270266 58.576094 108.07227 67.246094 C 108.41427 76.853094 113.38303 77.975812 115.20703 70.632812 L 115.21094 70.632812 C 116.36894 70.632812 117.47089 69.957125 117.96289 68.828125 C 118.62489 67.309125 117.93011 65.542859 116.41211 64.880859 C 116.23511 64.802859 116.07244 64.716672 115.89844 64.638672 C 115.98544 62.050672 115.95664 58.479469 115.55664 54.355469 C 116.22064 54.278469 116.86519 53.995516 117.36719 53.478516 C 118.52019 52.288516 118.48978 50.389328 117.30078 49.236328 C 116.19378 48.163328 115.18848 47.045344 114.27148 45.902344 C 112.79448 38.861344 110.09606 31.179219 105.28906 24.324219 C 104.91906 21.759219 104.89553 20.122875 104.89453 20.046875 C 104.89253 18.390875 103.55053 17.048828 101.89453 17.048828 C 101.09153 17.048828 100.36417 17.369766 99.826172 17.884766 C 96.165172 14.305766 91.689516 11.174344 86.228516 8.7773438 C 86.310516 8.2233437 86.336797 7.8903594 86.341797 7.8183594 C 86.451797 6.1653594 85.201828 4.735 83.548828 4.625 C 82.153828 4.525 80.938625 5.3992031 80.515625 6.6582031 C 78.185625 5.9432031 75.700594 5.3525313 73.058594 4.8945312 C 73.285594 3.4185313 72.393875 1.9765469 70.921875 1.5605469 C 69.329875 1.1125469 67.673703 2.0399063 67.220703 3.6289062 C 67.198703 3.7029062 67.148359 3.8693281 67.068359 4.1113281 C 64.747359 3.9073281 62.317437 3.799875 59.773438 3.796875 C 59.772437 2.637875 59.094891 1.536875 57.962891 1.046875 C 57.584141 0.882875 57.189719 0.80365625 56.800781 0.80078125 z M 80.498047 25.628906 C 80.827984 25.637266 81.161375 25.697453 81.484375 25.814453 C 81.504375 25.821453 81.522969 25.828938 81.542969 25.835938 C 83.435969 26.523938 84.19 28.777328 83.125 30.486328 C 80.985 33.918328 77.704484 38.132 72.771484 42.375 C 55.824484 56.951 31.290937 61.896188 11.335938 63.242188 C 11.433937 61.545187 11.62675 59.640516 11.96875 57.603516 C 40.51375 53.740516 61.561687 44.762938 74.554688 30.835938 C 75.803687 29.496938 76.917062 28.171141 77.914062 26.869141 C 78.541063 26.050891 79.508234 25.603828 80.498047 25.628906 z M 95.9375 35.1875 C 96.282344 35.232828 96.622703 35.392812 96.908203 35.695312 C 103.9742 43.179312 106.68028 52.4265 107.61328 59.5625 C 99.596281 53.0715 95.853 44.376062 94.125 37.164062 C 93.834 35.951313 94.902969 35.051516 95.9375 35.1875 z M 3.6953125 102.5957 L 3.6953125 172.28906 C 12.246313 168.70706 21.635328 166.72852 31.486328 166.72852 L 35.486328 166.72852 L 35.486328 148.33984 C 17.955328 140.01184 5.4383125 122.8437 3.6953125 102.5957 z M 115.2793 102.5957 C 113.5363 122.8427 101.01828 140.00989 83.488281 148.33789 L 83.486328 166.72852 L 87.486328 166.72852 C 97.366328 166.72852 106.78056 168.72227 115.35156 172.32227 L 115.35156 102.5957 L 115.2793 102.5957 z " transform="translate(73.5,32.2)" />
      <path d="m 82.6562,202.4792 c 1.964,-0.641 3.965,-1.196 6,-1.668 v -36.673 c -2.309,-2.987 -4.326,-6.212 -6,-9.635 z" id="Fill-8" fill-opacity="0.24" fill="#000000" />
      <path d="m 105.7026,198.9284 h 3.285 v -18.389 c -1.116,-0.53 -2.211,-1.097 -3.285,-1.697 z" id="Fill-10" fill-opacity="0.24" fill="#000000" />
      <path d="m 100.1796,175.3093 c -2.115,-1.531 -4.122,-3.203 -6,-5.008 v 29.435 c 1.973,-0.297 3.978,-0.496 6,-0.63 z" id="Fill-12" fill-opacity="0.24" fill="#000000" />
      <path d="m 159.853,179.069 c -0.939,0.516 -1.894,1.009 -2.865,1.47 l -0.001,18.389 h 2.866 z" id="Fill-14" fill-opacity="0.24" fill="#000000" />
      <path d="m 171.3764,199.6852 v -28.994 c -1.882,1.772 -3.887,3.416 -6,4.917 v 23.467 c 2.023,0.122 4.025,0.324 6,0.61" id="Fill-16" fill-opacity="0.24" fill="#000000" />
      <path d="m 182.8998,155.3307 c -1.693,3.32 -3.705,6.448 -6,9.345 v 36.042 c 2.033,0.459 4.036,0.996 6,1.624 z" id="Fill-18" fill-opacity="0.24" fill="#000000" />
      <path d="m 108.9872,191.6843 v -11.145 c -17.531,-8.328 -30.048,-25.496 -31.791,-45.744 v 39.588 c 7.804,7.823 18.857,13.919 31.791,17.301" id="Fill-20" fill-opacity="0.24" fill="#000000" />
      <path d="m 188.851,173.3151 v -38.52 h -0.072 c -1.743,20.248 -14.261,37.416 -31.791,45.744 v 10.876 c 13.094,-3.589 24.207,-9.963 31.863,-18.1" id="Fill-22" fill-opacity="0.24" fill="#000000" />
      <path d="m 189.9112,97.0805 c -25.209,-10.982 -23.775,-39.972 -23.702,-41.196 0.097,-1.544 -0.998,-2.902 -2.526,-3.144 -1.532,-0.246 -2.992,0.722 -3.376,2.22 -0.026,0.097 -2.63,9.807 -14.035,19.615 -19.268,16.573 -48.347,20.695 -69.349,21.235 -1.657,0.042 -2.965,1.42 -2.923031,3.076 0.04403,1.656 1.398031,2.954 3.077031,2.922 40.156,-1.032 62.138,-13.093 73.506,-23.029 4.793,-4.189 8.171,-8.356 10.524,-11.938 1.96,11.181 8.015,27.727 26.408,35.74 0.39,0.17 0.796,0.25 1.196,0.25 1.158,0 2.261,-0.673 2.752,-1.802 0.662,-1.519 -0.033,-3.287 -1.552,-3.949" id="path26" fill-opacity="0.24" fill="#000000" />
      <path d="m 77.0547,90.7773 c 0.097,0 0.195,-0.004 0.293,-0.014 32.718,-3.178 56.507,-12.507 70.706,-27.727 10.915,-11.7 11.758,-22.562 11.788,-23.018 0.11,-1.654 -1.14,-3.083 -2.793,-3.194 -1.662,-0.118 -3.084,1.14 -3.193,2.793 -0.026,0.38 -3.389,38.016 -77.088,45.174 -1.649,0.16 -2.856,1.627 -2.695,3.276 0.15,1.55 1.456,2.71 2.982,2.71" id="path28" fill-opacity="0.24" fill="#000000" />
      <path d="m 79.3116,77.7626 c 0.036,0 0.072,0 0.107,-0.002 15.993,-0.564 38.427,-4.604 54.487,-20.652 9.745,-9.736 12.48,-19.259 12.592,-19.659 0.444,-1.593 -0.486,-3.24 -2.077,-3.688 -1.591,-0.449 -3.247,0.479 -3.7,2.067 -0.398,1.393 -10.337,34.131 -61.513,35.936 -1.656,0.058 -2.951,1.448 -2.892,3.104 0.057,1.62 1.388,2.894 2.996,2.894" id="path30" fill-opacity="0.24" fill="#000000" />
      <g filter="url(#hairstyletwist-long-hair-2-filter-3)" id="Group-12" transform="translate(74,32)">
         <g transform="translate(6,0.6103)" id="g34">
            <path d="m 3.2798,34.187 c 0.098,0 0.198,-0.004 0.298,-0.015 37.976,-3.744 49.005,-28.553 49.456,-29.608 0.65,-1.519 -0.054,-3.273 -1.571,-3.928 -1.515,-0.656 -3.28,0.045 -3.941,1.559 -0.403,0.922 -10.253,22.627 -44.533,26.007 -1.649,0.162 -2.854,1.631 -2.691,3.279 0.152,1.549 1.458,2.706 2.982,2.706" id="path32" fill="#351f0d" />
         </g>
      </g>
      <path d="m 95.5752,50.7362 c 0.138,0 0.277,-0.01 0.418,-0.029 13.121,-1.828 20.552,-10.18 20.862,-10.535 1.087,-1.245 0.96,-3.129 -0.28,-4.222 -1.241,-1.09 -3.135,-0.97 -4.231,0.265 -0.062,0.071 -6.355,7.042 -17.179,8.549 -1.641,0.229 -2.786,1.744 -2.557,3.386 0.209,1.5 1.494,2.586 2.967,2.586" id="Fill-13" fill-opacity="0.24" fill="#000000" />
      <path d="m 188.7129,86.5898 c 0.783,0 1.565,-0.305 2.154,-0.912 1.154,-1.19 1.123,-3.089 -0.066,-4.242 -12.174,-11.801 -12.404,-28.94 -12.406,-29.19 -0.002,-1.656 -1.345,-2.996 -3,-2.996 -1.658,0 -3,1.343 -3,3 0,0.804 0.162,19.857 14.23,33.494 0.583,0.565 1.336,0.846 2.088,0.846" id="Fill-15" fill-opacity="0.24" fill="#000000" />
      <g id="Facial-Hair" transform="translate(49.000000, 72.000000)"></g>
      <g id="Accessory" transform="translate(62.000000, 85.000000)"></g>
   </g>
</svg>