<svg viewBox="73.5 32.19999999999999 118.99999999999993 173.6" xmlns="http://www.w3.org/2000/svg" xmlns:xlink="http://www.w3.org/1999/xlink" xmlns:blush="http://design.blush" overflow="visible" width="118.99999999999993px" height="173.6px"><defs><filter id="hairstyletwist-long-hair-2-filter-3"><feColorMatrix in="SourceGraphic" values="0 0 0 0 0.000000 0 0 0 0 0.000000 0 0 0 0 0.000000 0 0 0 0.240000 0"/></filter><path d="M264,0 L264,280 L232,280 L232,271 C232,231.235498 199.764502,199 160,199 L160,199 L156,199 L156.001014,180.610469 C173.531251,172.282329 186.048207,155.114429 187.791415,134.867236 C193.568906,134.002616 198,129.018777 198,123 L198,123 L198,110 C198,104.05429 193.675838,99.1185422 188.000809,98.1660527 L188,92 C188,61.072054 162.927946,36 132,36 C101.072054,36 76,61.072054 76,92 L76,92 L76.0001873,98.1658855 C70.3246685,99.1179645 66,104.053942 66,110 L66,110 L66,123 C66,129.018777 70.4310943,134.002616 76.2090181,134.867253 C77.9518263,155.114813 90.4692242,172.28298 107.999984,180.610943 L108,199 L104,199 C64.633143,199 32.6454629,230.594012 32.0096459,269.809348 L32,271 L32,280 L0,280 L0,0 L264,0 Z" id="hairstyletwist-long-hair-2-path-1"/></defs><g id="Hairstyle/Twist Long hair 2" stroke="none" stroke-width="1" fill="none" fill-rule="evenodd"><g id="template-for-hairstyles" opacity=".184" transform="translate(1.000000, 0.000000)"><mask id="hairstyletwist-long-hair-2-mask-2" fill="#fff"><use xlink:href="#hairstyletwist-long-hair-2-path-1"/></mask><g id="Mask-Hair"/></g><g id="Group-51" transform="translate(77.000000, 134.000000)"><path d="M31.9872,64.9284 L31.9872,46.5394 C14.4562,38.2114 1.9392,21.0434 0.1962,0.7954 L0.1962,70.4894 C8.7472,66.9074 18.1362,64.9284 27.9872,64.9284 L31.9872,64.9284 Z" id="Fill-4" fill="#724133" blush:color="Hair-500"/><path d="M79.9877,46.5387 L79.9867,64.9287 L83.9867,64.9287 C93.8667,64.9287 103.2797,66.9227 111.8507,70.5227 L111.8507,0.7957 L111.7787,0.7957 C110.0357,21.0427 97.5177,38.2107 79.9877,46.5387" id="Fill-6" fill="#724133" blush:color="Hair-500"/><path d="M5.6562,68.4792 C7.6202,67.8382 9.6212,67.2832 11.6562,66.8112 L11.6562,30.1382 C9.3472,27.1512 7.3302,23.9262 5.6562,20.5032 L5.6562,68.4792 Z" id="Fill-8" fill-opacity=".24" fill="#000"/><path d="M28.7026,64.9284 L31.9876,64.9284 L31.9876,46.5394 C30.8716,46.0094 29.7766,45.4424 28.7026,44.8424 L28.7026,64.9284 Z" id="Fill-10" fill-opacity=".24" fill="#000"/><path d="M23.1796,41.3093 C21.0646,39.7783 19.0576,38.1063 17.1796,36.3013 L17.1796,65.7363 C19.1526,65.4393 21.1576,65.2403 23.1796,65.1063 L23.1796,41.3093 Z" id="Fill-12" fill-opacity=".24" fill="#000"/><path d="M82.853,45.069 C81.914,45.585 80.959,46.078 79.988,46.539 L79.987,64.928 L82.853,64.928 L82.853,45.069 Z" id="Fill-14" fill-opacity=".24" fill="#000"/><path d="M94.3764,65.6852 L94.3764,36.6912 C92.4944,38.4632 90.4894,40.1072 88.3764,41.6082 L88.3764,65.0752 C90.3994,65.1972 92.4014,65.3992 94.3764,65.6852" id="Fill-16" fill-opacity=".24" fill="#000"/><path d="M105.8998,21.3307 C104.2068,24.6507 102.1948,27.7787 99.8998,30.6757 L99.8998,66.7177 C101.9328,67.1767 103.9358,67.7137 105.8998,68.3417 L105.8998,21.3307 Z" id="Fill-18" fill-opacity=".24" fill="#000"/><path d="M31.9872,57.6843 L31.9872,46.5393 C14.4562,38.2113 1.9392,21.0433 0.1962,0.7953 L0.1962,40.3833 C8.0002,48.2063 19.0532,54.3023 31.9872,57.6843" id="Fill-20" fill-opacity=".24" fill="#000"/><path d="M111.851,39.3151 L111.851,0.7951 L111.779,0.7951 C110.036,21.0431 97.518,38.2111 79.988,46.5391 L79.988,57.4151 C93.082,53.8261 104.195,47.4521 111.851,39.3151" id="Fill-22" fill-opacity=".24" fill="#000"/></g><g id="Group-17" transform="translate(74.000000, 32.000000)"><g id="Group-3" transform="translate(0.000000, 0.610300)" fill="#724133" blush:color="Hair-500"><path d="M96.4082,35.2846 C103.4742,42.7686 106.1802,52.0156 107.1132,59.1516 C99.0962,52.6606 95.3522,43.9656 93.6242,36.7536 C93.2362,35.1366 95.2662,34.0746 96.4082,35.2846 M72.2722,41.9656 C55.3252,56.5416 30.7902,61.4856 10.8352,62.8316 C10.9332,61.1346 11.1272,59.2306 11.4692,57.1936 C40.0142,53.3306 61.0612,44.3536 74.0542,30.4266 C75.3032,29.0876 76.4172,27.7606 77.4142,26.4586 C78.2502,25.3676 79.6922,24.9366 80.9842,25.4046 C81.0042,25.4116 81.0232,25.4186 81.0432,25.4256 C82.9362,26.1136 83.6892,28.3666 82.6242,30.0756 C80.4842,33.5076 77.2052,37.7226 72.2722,41.9656 M115.9112,64.4706 C115.7342,64.3926 115.5722,64.3056 115.3982,64.2276 C115.4852,61.6396 115.4562,58.0696 115.0562,53.9456 C115.7202,53.8686 116.3652,53.5846 116.8672,53.0676 C118.0202,51.8776 117.9902,49.9786 116.8012,48.8256 C115.6942,47.7526 114.6892,46.6356 113.7722,45.4926 C112.2952,38.4516 109.5962,30.7686 104.7892,23.9136 C104.4192,21.3486 104.3952,19.7116 104.3942,19.6356 C104.3922,17.9796 103.0502,16.6386 101.3942,16.6386 C100.5912,16.6386 99.8642,16.9596 99.3262,17.4746 C95.6652,13.8956 91.1902,10.7636 85.7292,8.3666 C85.8112,7.8126 85.8372,7.4796 85.8422,7.4076 C85.9522,5.7546 84.7022,4.3246 83.0492,4.2146 C81.6542,4.1146 80.4392,4.9896 80.0162,6.2486 C77.6862,5.5336 75.2002,4.9426 72.5582,4.4846 C72.7852,3.0086 71.8932,1.5666 70.4212,1.1506 C68.8292,0.7026 67.1742,1.6296 66.7212,3.2186 C66.6992,3.2926 66.6492,3.4596 66.5692,3.7016 C64.2482,3.4976 61.8182,3.3896 59.2742,3.3866 C59.2732,2.2276 58.5952,1.1256 57.4632,0.6356 C55.9482,-0.0204 54.1822,0.6806 53.5212,2.1946 C53.4672,2.3196 53.2322,2.8346 52.7952,3.6236 C49.4882,3.8686 46.3972,4.3056 43.5092,4.9116 C43.3712,4.3236 43.0622,3.7696 42.5752,3.3406 C41.3342,2.2496 39.4402,2.3696 38.3442,3.6056 C38.2822,3.6756 31.9892,10.6466 21.1652,12.1546 C19.5242,12.3826 18.3792,13.8986 18.6082,15.5396 C18.6932,16.1516 18.9642,16.6886 19.3462,17.1166 C15.8892,20.4196 13.1372,24.1136 10.9572,27.9706 C10.3042,28.0506 9.6592,28.1356 8.9892,28.2016 C7.3402,28.3646 6.1352,29.8326 6.2982,31.4816 C6.4072,32.5926 7.1142,33.4926 8.0652,33.9186 C7.3472,35.6476 6.7252,37.3846 6.1862,39.1106 C5.8592,39.1246 5.5382,39.1426 5.2072,39.1546 C3.5522,39.2126 2.2572,40.6016 2.3152,42.2586 C2.3642,43.6366 3.3382,44.7566 4.6172,45.0626 C4.0892,47.5066 3.7122,49.8736 3.4442,52.1106 C3.2162,52.1326 2.9962,52.1596 2.7682,52.1806 C1.1192,52.3416 -0.0878,53.8076 0.0722,55.4566 C0.2192,56.9696 1.4672,58.1016 2.9442,58.1566 C2.8592,60.0496 2.8482,61.7486 2.8772,63.2056 C1.2432,63.2736 -0.0408,64.6356 0.000198351316,66.2766 C0.0442,67.9326 1.3982,69.2306 3.0772,69.1986 C3.1752,69.1956 3.2702,69.1906 3.3682,69.1876 C4.8482,77.0406 9.6092,76.9386 10.5752,68.8656 C46.0052,66.6276 65.9432,55.4686 76.5832,46.1686 C81.3762,41.9806 84.7542,37.8136 87.1072,34.2306 C88.8392,44.1076 93.7712,58.1656 107.5732,66.8356 C107.9152,76.4426 112.8822,77.5646 114.7062,70.2216 C114.7082,70.2216 114.7092,70.2216 114.7112,70.2216 C115.8692,70.2216 116.9712,69.5476 117.4632,68.4186 C118.1252,66.8996 117.4292,65.1326 115.9112,64.4706" id="Fill-1"/></g><path d="M115.9112,65.0805 C90.7022,54.0985 92.1362,25.1085 92.2092,23.8845 C92.3062,22.3405 91.2112,20.9825 89.6832,20.7405 C88.1512,20.4945 86.6912,21.4625 86.3072,22.9605 C86.2812,23.0575 83.6772,32.7675 72.2722,42.5755 C53.0042,59.1485 23.9252,63.2705 2.9232,63.8105 C1.2662,63.8525 -0.0418,65.2305 0.00016946347,66.8865 C0.0442,68.5425 1.3982,69.8405 3.0772,69.8085 C43.2332,68.7765 65.2152,56.7155 76.5832,46.7795 C81.3762,42.5905 84.7542,38.4235 87.1072,34.8415 C89.0672,46.0225 95.1222,62.5685 113.5152,70.5815 C113.9052,70.7515 114.3112,70.8315 114.7112,70.8315 C115.8692,70.8315 116.9722,70.1585 117.4632,69.0295 C118.1252,67.5105 117.4302,65.7425 115.9112,65.0805" id="Fill-4" fill-opacity=".24" fill="#000"/><path d="M3.0547,58.7773 C3.1517,58.7773 3.2497,58.7733 3.3477,58.7633 C36.0657,55.5853 59.8547,46.2563 74.0537,31.0363 C84.9687,19.3363 85.8117,8.4743 85.8417,8.0183 C85.9517,6.3643 84.7017,4.9353 83.0487,4.8243 C81.3867,4.7063 79.9647,5.9643 79.8557,7.6173 C79.8297,7.9973 76.4667,45.6333 2.7677,52.7913 C1.1187,52.9513 -0.0883,54.4183 0.0727,56.0673 C0.2227,57.6173 1.5287,58.7773 3.0547,58.7773" id="Fill-6" fill-opacity=".24" fill="#000"/><path d="M5.3116,45.7626 C5.3476,45.7626 5.3836,45.7626 5.4186,45.7606 C21.4116,45.1966 43.8456,41.1566 59.9056,25.1086 C69.6506,15.3726 72.3856,5.8496 72.4976,5.4496 C72.9416,3.8566 72.0116,2.2096 70.4206,1.7616 C68.8296,1.3126 67.1736,2.2406 66.7206,3.8286 C66.3226,5.2216 56.3836,37.9596 5.2076,39.7646 C3.5516,39.8226 2.2566,41.2126 2.3156,42.8686 C2.3726,44.4886 3.7036,45.7626 5.3116,45.7626" id="Fill-8" fill-opacity=".24" fill="#000"/><g filter="url(#hairstyletwist-long-hair-2-filter-3)" id="Group-12"><g transform="translate(6.000000, 0.610300)"><path d="M3.2798,34.187 C3.3778,34.187 3.4778,34.183 3.5778,34.172 C41.5538,30.428 52.5828,5.619 53.0338,4.564 C53.6838,3.045 52.9798,1.291 51.4628,0.636 C49.9478,-0.02 48.1828,0.681 47.5218,2.195 C47.1188,3.117 37.2688,24.822 2.9888,28.202 C1.3398,28.364 0.1348,29.833 0.2978,31.481 C0.4498,33.03 1.7558,34.187 3.2798,34.187" id="Fill-10" fill="#351F0D"/></g></g><path d="M21.5752,18.7362 C21.7132,18.7362 21.8522,18.7262 21.9932,18.7072 C35.1142,16.8792 42.5452,8.5272 42.8552,8.1722 C43.9422,6.9272 43.8152,5.0432 42.5752,3.9502 C41.3342,2.8602 39.4402,2.9802 38.3442,4.2152 C38.2822,4.2862 31.9892,11.2572 21.1652,12.7642 C19.5242,12.9932 18.3792,14.5082 18.6082,16.1502 C18.8172,17.6502 20.1022,18.7362 21.5752,18.7362" id="Fill-13" fill-opacity=".24" fill="#000"/><path d="M114.7129,54.5898 C115.4959,54.5898 116.2779,54.2848 116.8669,53.6778 C118.0209,52.4878 117.9899,50.5888 116.8009,49.4358 C104.6269,37.6348 104.3969,20.4958 104.3949,20.2458 C104.3929,18.5898 103.0499,17.2498 101.3949,17.2498 C99.7369,17.2498 98.3949,18.5928 98.3949,20.2498 C98.3949,21.0538 98.5569,40.1068 112.6249,53.7438 C113.2079,54.3088 113.9609,54.5898 114.7129,54.5898" id="Fill-15" fill-opacity=".24" fill="#000"/></g></g></svg>