<svg viewBox="63.69999999999999 21 138.59999999999994 179.20000000000002" xmlns="http://www.w3.org/2000/svg" xmlns:xlink="http://www.w3.org/1999/xlink" xmlns:blush="http://design.blush" overflow="visible" width="138.59999999999994px" height="179.20000000000002px"><defs><path d="M264,0 L264,280 L232,280 L232,271 C232,231.235498 199.764502,199 160,199 L160,199 L156,199 L156.001014,180.610469 C173.531251,172.282329 186.048207,155.114429 187.791415,134.867236 C193.568906,134.002616 198,129.018777 198,123 L198,123 L198,110 C198,104.05429 193.675838,99.1185422 188.000809,98.1660527 L188,92 C188,61.072054 162.927946,36 132,36 C101.072054,36 76,61.072054 76,92 L76,92 L76.0001873,98.1658855 C70.3246685,99.1179645 66,104.053942 66,110 L66,110 L66,123 C66,129.018777 70.4310943,134.002616 76.2090181,134.867253 C77.9518263,155.114813 90.4692242,172.28298 107.999984,180.610943 L108,199 L104,199 C64.633143,199 32.6454629,230.594012 32.0096459,269.809348 L32,271 L32,280 L0,280 L0,0 L264,0 Z" id="hairstylewick-path-1"/></defs><g id="Hairstyle/Wick" stroke="none" stroke-width="1" fill="none" fill-rule="evenodd"><g id="template-for-hairstyles" opacity=".184" transform="translate(1.000000, 0.000000)"><mask id="hairstylewick-mask-2" fill="#fff"><use xlink:href="#hairstylewick-path-1"/></mask><g id="Mask-Hair"/></g><g id="Wick" transform="translate(64.000000, 22.300000)"><path d="M13.4413,160.16 C13.4413,160.16 12.3963,166.909 9.2623,170.681 C9.2623,170.681 19.7343,171.586 24.6553,166.711 C24.6553,166.711 24.2473,171.575 22.2033,175.347 C22.2033,175.347 29.0143,176.459 35.8253,171.436 C35.8253,171.436 35.8793,174.352 35.9233,176.809 C37.5833,176.694 39.2523,176.615 40.9413,176.615 L44.9413,176.615 L44.9413,157.226 C27.7043,149.038 15.3133,132.303 13.2463,112.496 C9.2963,111.938 5.9703,109.454 4.2343,106.027 L4.2343,147.355 C4.2343,147.355 4.0873,160.457 0.0003,164.329 C0.0003,164.329 8.9013,166.016 13.4413,160.16" id="Fill-4" fill="#4A312C"/><path d="M133.5829,106.1463 C131.8309,109.5103 128.5389,111.9453 124.6359,112.4973 C122.5689,132.3023 110.1799,149.0373 92.9419,157.2263 L92.9409,176.6153 L96.9409,176.6153 C98.6079,176.6153 100.2559,176.6923 101.8949,176.8033 C101.9369,174.3503 101.9919,171.4363 101.9919,171.4363 C108.8029,176.4593 115.6129,175.3463 115.6129,175.3463 C113.5699,171.5753 113.1619,166.7103 113.1619,166.7103 C118.0819,171.5853 128.5549,170.6813 128.5549,170.6813 C125.4219,166.9093 124.3759,160.1603 124.3759,160.1603 C128.9159,166.0163 137.8169,164.3293 137.8169,164.3293 C133.7299,160.4573 133.5829,147.3553 133.5829,147.3553 L133.5829,106.1463 Z" id="Fill-6" fill="#4A312C"/><path d="M112.3837,61.411 C112.3837,61.411 120.1617,65.499 120.1617,83.616 C120.1617,83.616 124.3837,87.112 124.3837,83.616 L124.3837,75.781 C124.3837,75.781 130.3097,75.942 133.5907,82.208 L133.5907,38.526 C133.5907,38.526 94.0077,-1.068 84.5637,0.022 C75.3547,1.084 69.2147,5.932 68.9127,6.174 C68.6107,5.932 62.4697,1.084 53.2617,0.022 C43.8177,-1.068 4.2347,38.526 4.2347,38.526 L4.2347,82.208 C7.5157,75.942 13.4417,75.781 13.4417,75.781 L13.4417,83.616 C13.4417,87.112 17.6627,83.616 17.6627,83.616 C17.6627,65.499 25.4417,61.411 25.4417,61.411 C25.4417,61.411 14.5857,56.099 34.1907,36.891 C53.1187,18.347 67.8857,33.575 68.8837,34.649 C68.8837,34.649 84.7057,18.347 103.6337,36.891 C123.2387,56.099 112.3837,61.411 112.3837,61.411" id="Fill-1" fill="#4A312C"/><path d="M92.9423,157.2264 L92.9413,170.5254 C118.7923,158.6644 123.6873,127.9354 124.5233,113.4234 C122.1713,132.8224 109.9093,149.1654 92.9423,157.2264" id="Fill-8" fill-opacity=".6" fill="#000"/><path d="M13.4716,114.3524 C14.2416,129.2804 19.1006,159.2004 44.9416,170.6934 L44.9416,157.2264 C28.2446,149.2944 16.0966,133.3444 13.4716,114.3524" id="Fill-10" fill-opacity=".6" fill="#000"/></g><path d="M106,76 L119,63 C117.666667,66.3333333 116,69 114,71 C112,73 109.333333,74.6666667 106,76 Z" id="Path-8" fill="#CE5959"/><path d="M129,123 L142,110 C140.666667,113.333333 139,116 137,118 C135,120 132.333333,121.666667 129,123 Z" id="Path-8" fill="#CE5959" transform="translate(135.500000, 116.500000) rotate(75.000000) translate(-135.500000, -116.500000)"/></g></svg>