<?xml version="1.0" encoding="UTF-8" standalone="no"?>
<svg xmlns:dc="http://purl.org/dc/elements/1.1/" xmlns:cc="http://creativecommons.org/ns#" xmlns:rdf="http://www.w3.org/1999/02/22-rdf-syntax-ns#" xmlns:svg="http://www.w3.org/2000/svg" xmlns="http://www.w3.org/2000/svg" xmlns:xlink="http://www.w3.org/1999/xlink" viewBox="63.69999999999999 21 138.59999999999994 179.20000000000002" overflow="visible" width="138.59999999999994px" height="179.20000000000002px" version="1.1" id="svg20">
   <metadata id="metadata24">
      <rdf:RDF>
         <cc:Work rdf:about="">
            <dc:format>image/svg+xml</dc:format>
            <dc:type rdf:resource="http://purl.org/dc/dcmitype/StillImage" />
            <dc:title></dc:title>
         </cc:Work>
      </rdf:RDF>
   </metadata>
   <defs id="defs3">
      <path d="M264,0 L264,280 L232,280 L232,271 C232,231.235498 199.764502,199 160,199 L160,199 L156,199 L156.001014,180.610469 C173.531251,172.282329 186.048207,155.114429 187.791415,134.867236 C193.568906,134.002616 198,129.018777 198,123 L198,123 L198,110 C198,104.05429 193.675838,99.1185422 188.000809,98.1660527 L188,92 C188,61.072054 162.927946,36 132,36 C101.072054,36 76,61.072054 76,92 L76,92 L76.0001873,98.1658855 C70.3246685,99.1179645 66,104.053942 66,110 L66,110 L66,123 C66,129.018777 70.4310943,134.002616 76.2090181,134.867253 C77.9518263,155.114813 90.4692242,172.28298 107.999984,180.610943 L108,199 L104,199 C64.633143,199 32.6454629,230.594012 32.0096459,269.809348 L32,271 L32,280 L0,280 L0,0 L264,0 Z" id="hairstylewick-path-1" />
   </defs>
   <g id="Hairstyle/Wick" stroke="none" stroke-width="1" fill="none" fill-rule="evenodd" transform="translate(-1, 0)">
      <g id="template-for-hairstyles" opacity=".184" transform="translate(1.000000, 0.000000)">
         <mask id="hairstylewick-mask-2" fill="#fff">
            <use xlink:href="#hairstylewick-path-1" id="use5" />
         </mask>
         <g id="Mask-Hair" />
      </g>
      <g id="Wick" transform="translate(64.000000, 22.300000)">
         <path id="Hair-Color" d="M 52.097656 1.3007812 C 41.890847 1.4600294 3.5351563 39.826172 3.5351562 39.826172 L 3.5351562 83.507812 C 6.8161563 77.241812 12.742187 77.080078 12.742188 77.080078 L 12.742188 84.916016 C 12.742188 88.412016 16.962891 84.916016 16.962891 84.916016 C 16.962891 66.799016 24.742187 62.710937 24.742188 62.710938 C 24.742188 62.710938 13.885234 57.399406 33.490234 38.191406 C 52.418234 19.647406 67.185594 34.875219 68.183594 35.949219 C 68.183594 35.949219 84.005594 19.647406 102.93359 38.191406 C 122.53859 57.399406 111.68359 62.710938 111.68359 62.710938 C 111.68359 62.710938 119.46094 66.799016 119.46094 84.916016 C 119.46094 84.916016 123.68359 88.412016 123.68359 84.916016 L 123.68359 77.080078 C 123.68359 77.080078 129.60962 77.241812 132.89062 83.507812 L 132.89062 39.826172 C 132.89062 39.826172 93.307281 0.23226562 83.863281 1.3222656 C 74.654281 2.3842656 68.514891 7.2326094 68.212891 7.4746094 C 67.910891 7.2326094 61.7705 2.3842656 52.5625 1.3222656 C 52.414938 1.3052344 52.259669 1.2982535 52.097656 1.3007812 z M 3.5351562 107.32617 L 3.5351562 148.6543 C 3.5351562 148.6543 3.3877812 161.75691 -0.69921875 165.62891 C -0.69921875 165.62891 8.2021875 167.31694 12.742188 161.46094 C 12.742188 161.46094 11.6965 168.20847 8.5625 171.98047 C 8.5625 171.98047 19.034078 172.88672 23.955078 168.01172 C 23.955078 168.01172 23.547906 172.87448 21.503906 176.64648 C 21.503906 176.64648 28.314 177.75933 35.125 172.73633 C 35.125 172.73633 35.178656 175.65238 35.222656 178.10938 C 36.882656 177.99437 38.553187 177.91406 40.242188 177.91406 L 44.242188 177.91406 L 44.242188 158.52539 C 27.005188 150.33739 14.613875 133.60388 12.546875 113.79688 C 8.596875 113.23888 5.2711563 110.75317 3.5351562 107.32617 z M 132.88281 107.44727 C 131.13081 110.81127 127.83855 113.24487 123.93555 113.79688 C 121.86855 133.60188 109.48019 150.33639 92.242188 158.52539 L 92.240234 177.91602 L 96.240234 177.91602 C 97.907234 177.91602 99.556312 177.99252 101.19531 178.10352 C 101.23731 175.65052 101.29102 172.73633 101.29102 172.73633 C 108.10202 177.75933 114.91211 176.64648 114.91211 176.64648 C 112.86911 172.87548 112.46094 168.00977 112.46094 168.00977 C 117.38094 172.88477 127.85547 171.98047 127.85547 171.98047 C 124.72247 168.20847 123.67578 161.46094 123.67578 161.46094 C 128.21578 167.31694 137.11719 165.62891 137.11719 165.62891 C 133.03019 161.75691 132.88281 148.65625 132.88281 148.65625 L 132.88281 107.44727 z " transform="translate(0.7,-1.3)" fill="" />
         <path d="M92.9423,157.2264 L92.9413,170.5254 C118.7923,158.6644 123.6873,127.9354 124.5233,113.4234 C122.1713,132.8224 109.9093,149.1654 92.9423,157.2264" id="Fill-8" fill-opacity=".6" fill="#000" />
         <path d="M13.4716,114.3524 C14.2416,129.2804 19.1006,159.2004 44.9416,170.6934 L44.9416,157.2264 C28.2446,149.2944 16.0966,133.3444 13.4716,114.3524" id="Fill-10" fill-opacity=".6" fill="#000" />
      </g>
      <path d="M106,76 L119,63 C117.666667,66.3333333 116,69 114,71 C112,73 109.333333,74.6666667 106,76 Z" id="Path-8" fill="#CE5959" />
      <path d="M129,123 L142,110 C140.666667,113.333333 139,116 137,118 C135,120 132.333333,121.666667 129,123 Z" id="path17" fill="#CE5959" transform="translate(135.500000, 116.500000) rotate(75.000000) translate(-135.500000, -116.500000)" />
      <g id="Facial-Hair" transform="translate(49.000000, 72.000000)"></g>
      <g id="Accessory" transform="translate(62.000000, 85.000000)"></g>
   </g>
</svg>