<svg viewBox="32.900000000000006 9.800000000000011 194.59999999999997 186.20000000000002" xmlns="http://www.w3.org/2000/svg" xmlns:xlink="http://www.w3.org/1999/xlink" xmlns:blush="http://design.blush" overflow="visible" width="194.59999999999997px" height="186.20000000000002px">
    <defs>
        <path d="M264,0 L264,280 L232,280 L232,271 C232,231.235498 199.764502,199 160,199 L160,199 L156,199 L156.001014,180.610469 C173.531251,172.282329 186.048207,155.114429 187.791415,134.867236 C193.568906,134.002616 198,129.018777 198,123 L198,123 L198,110 C198,104.05429 193.675838,99.1185422 188.000809,98.1660527 L188,92 C188,61.072054 162.927946,36 132,36 C101.072054,36 76,61.072054 76,92 L76,92 L76.0001873,98.1658855 C70.3246685,99.1179645 66,104.053942 66,110 L66,110 L66,123 C66,129.018777 70.4310943,134.002616 76.2090181,134.867253 C77.9518263,155.114813 90.4692242,172.28298 107.999984,180.610943 L108,199 L104,199 C64.633143,199 32.6454629,230.594012 32.0096459,269.809348 L32,271 L32,280 L0,280 L0,0 L264,0 Z" id="hairstylewild-path-1" />
    </defs>
    <g id="Accessory" transform="translate(62.000000, 85.000000)"></g>
    <g id="Hairstyle/Wild" stroke="none" stroke-width="1" fill="none" fill-rule="evenodd" transform="translate(-1, 0)">
        <g id="template-for-hairstyles" opacity=".184" transform="translate(1.000000, 0.000000)">
            <mask id="hairstylewild-mask-2" fill="#fff">
                <use xlink:href="#hairstylewild-path-1" />
            </mask>
            <g id="Mask-Hair" />
        </g>
        <path d="M75.3966,134.2411 C75.3966,134.2411 83.0916,122.8731 85.6626,115.9421 L86.2066,121.5271 C86.2066,121.5271 107.0486,98.2341 107.7296,75.7581 L109.5966,80.3891 C109.5966,80.3891 125.1296,68.8371 128.8346,58.5941 L128.8346,63.6341 C128.8346,63.6341 136.2946,56.6331 137.2886,51.6471 C137.2886,51.6471 140.2856,62.1361 146.4156,65.9501 L147.7776,57.2321 C147.7776,57.2321 153.3626,76.8471 170.9356,86.5191 L172.0246,82.8411 C172.0246,82.8411 177.4586,89.6601 180.6066,90.8781 C180.6066,90.8781 179.4526,122.7531 191.3356,131.6081 C203.2196,140.4621 190.5506,69.0831 190.5506,69.0831 L159.4926,45.3811 L134.4286,36.0001 L73.2666,54.3711 L67.0006,117.7131 L75.3966,134.2411 Z" id="Fill-1" fill-opacity=".16" fill="#000" />
        <g id="Group-9" transform="translate(33.000000, 10.000000)">
            <path d="M193.5081,115.5138 C192.6601,74.4668 165.4761,45.2248 165.4761,45.2248 L178.5531,51.2188 C162.7511,21.2498 145.6791,15.4378 145.6791,15.4378 L171.4691,18.7068 C149.4311,0.9088 115.1651,4.7218 115.1651,4.7218 L119.5251,-0.0002 C109.1721,1.3568 102.3771,7.5928 102.3771,7.5928 L96.7541,1.9978 L96.7541,7.4468 C69.9871,2.1798 52.3231,13.9848 52.3231,13.9848 L69.0331,14.7118 C6.7351,30.7798 7.4621,84.0928 7.4621,84.0928 L20.7201,73.0138 C-14.8779,131.8598 6.1911,163.0998 6.1911,163.0998 L10.3681,145.4818 C10.1861,174.5418 28.8941,182.7148 28.8941,182.7148 L28.8941,161.8278 C39.9731,181.9888 55.4111,182.7148 55.4111,182.7148 L50.3251,171.9988 C59.6971,180.9088 69.8741,184.4338 76.0311,185.8218 L76.0311,170.4198 C58.5001,162.0918 45.9831,144.9238 44.2401,124.6758 C44.0721,124.6508 51.0941,105.3008 52.5051,92.9098 L52.5051,101.3468 C52.5051,101.3468 71.0301,81.9128 73.0291,52.6708 L74.1181,62.1158 C74.1181,62.1158 96.5201,51.0368 100.0311,33.4188 L96.7541,48.1308 C96.7541,48.1308 103.9041,38.5048 104.6311,35.7798 C104.6311,35.7798 105.5391,45.4068 111.1701,50.4918 C111.1701,50.4918 112.8051,39.4128 113.7131,38.3228 C113.7131,38.3228 120.2511,60.6628 136.4161,70.6518 L133.3281,53.0348 C133.3281,53.0348 137.1431,71.7418 150.0371,78.4618 C150.0371,78.4618 150.9651,107.4348 155.9671,124.6478 C155.9181,124.6558 155.8711,124.6688 155.8221,124.6758 C154.0791,144.9228 141.5621,162.0908 124.0311,170.4188 L124.0311,185.1928 C134.0101,183.7208 144.7711,177.9928 144.7711,177.9928 L140.4111,183.8048 C161.1161,182.0748 165.6571,169.8198 165.6571,169.8198 L166.7471,179.2638 C178.0081,168.7298 180.1881,156.3788 180.1881,156.3788 L189.0871,166.1878 C193.9901,128.7718 179.0981,105.3428 179.0981,105.3428 L193.5081,115.5138 Z" id="Hair-Color" fill="#724133" blush:color="Hair-500" />
            <path d="M44.24,124.675884 C44.139,124.6609 41.159,135.1169 41.97,139.8519 C42.965,145.6499 47.896,171.8349 71.352,184.5279 C73.073,185.0869 74.657,185.5109 76.031,185.8219 L76.031,170.4199 C58.5,162.0919 45.983,144.9239 44.24,124.675884" id="Fill-4" fill-opacity=".24" fill="#000" />
            <path d="M124.0315,170.4189 L124.0315,183.5159 C146.0655,173.6019 163.8065,153.0999 155.8225,124.6759 C154.0795,144.9229 141.5615,162.0909 124.0315,170.4189 Z" id="Fill-7" fill-opacity=".24" fill="#000" />
        </g>
    </g>
    <g id="Facial-Hair" transform="translate(49.000000, 72.000000)"></g>
</svg>