<?xml version="1.0" encoding="utf-8"?>
<svg width="108px" height="44px" viewbox="0 0 108 44" version="1.1" xmlns:xlink="http://www.w3.org/1999/xlink" xmlns="http://www.w3.org/2000/svg">
  <g id="MouthEating">
    <g id="Om-Nom-Nom" transform="translate(28 6)" opacity="0.59999996">
      <path d="M0 20.2441C1.35764 20.7317 2.83996 21 4.39226 21C9.71396 21 14.2131 17.847 15.6864 13.5136C18.1609 15.6699 21.863 17.0394 26 17.0394C30.137 17.0394 33.8391 15.6699 36.3136 13.5136C37.7869 17.847 42.286 21 47.6077 21C49.16 21 50.6424 20.7317 52 20.2441C51.9413 20.2448 51.8824 20.2451 51.8234 20.2451C45.4931 20.2451 40.0195 15.3446 40.0195 9.67694C40.0195 5.49521 42.34 1.95871 45.7065 0C40.2077 0.797194 35.9821 4.99553 35.8094 10.1063C33.2453 11.8423 29.7949 12.9056 26 12.9056C22.2051 12.9056 18.7547 11.8423 16.1906 10.1063C16.0179 4.99553 11.7923 0.797194 6.29352 0C9.66004 1.95871 11.9805 5.49521 11.9805 9.67694C11.9805 15.3446 6.50695 20.2451 0.176592 20.2451C0.117612 20.2451 0.0587476 20.2448 0 20.2441Z" id="Delicious" fill="#000000" fill-opacity="0.6" fill-rule="evenodd" stroke="none" />
    </g>
    <path d="M9 18C13.9706 18 18 13.9706 18 9C18 4.02944 13.9706 0 9 0C4.02944 0 0 4.02944 0 9C0 13.9706 4.02944 18 9 18Z" transform="translate(8 6)" id="Redish" fill="#FF4646" fill-opacity="0.2" fill-rule="evenodd" stroke="none" />
    <path d="M9 18C13.9706 18 18 13.9706 18 9C18 4.02944 13.9706 0 9 0C4.02944 0 0 4.02944 0 9C0 13.9706 4.02944 18 9 18Z" transform="translate(82 6)" id="Redish" fill="#FF4646" fill-opacity="0.2" fill-rule="evenodd" stroke="none" />
  </g>
</svg>