<?xml version="1.0" encoding="utf-8"?>
<svg width="108px" height="44px" viewbox="0 0 108 44" version="1.1" xmlns:xlink="http://www.w3.org/1999/xlink" xmlns="http://www.w3.org/2000/svg">
  <defs>
    <path d="M10.999 0L49.001 0Q49.271 0 49.5407 0.0132488Q49.8104 0.0264976 50.0791 0.0529632Q50.3478 0.0794288 50.6149 0.119048Q50.882 0.158666 51.1468 0.211343Q51.4116 0.264019 51.6735 0.329626Q51.9355 0.395233 52.1938 0.473613Q52.4522 0.551993 52.7064 0.642957Q52.9607 0.73392 53.2101 0.837249Q53.4596 0.940577 53.7037 1.05602Q53.9478 1.17147 54.1859 1.29875Q54.424 1.42603 54.6556 1.56484Q54.8872 1.70366 55.1117 1.85367Q55.3362 2.00367 55.5531 2.16452Q55.77 2.32537 55.9787 2.49666Q56.1874 2.66795 56.3875 2.84928Q56.5875 3.03061 56.7785 3.22153Q56.9694 3.41246 57.1507 3.61252Q57.3321 3.81259 57.5033 4.02131Q57.6746 4.23003 57.8355 4.4469Q57.9963 4.66378 58.1463 4.88828Q58.2963 5.11279 58.4352 5.34438Q58.574 5.57598 58.7013 5.81411Q58.8285 6.05223 58.944 6.29632Q59.0594 6.54041 59.1627 6.78986Q59.2661 7.03932 59.357 7.29355Q59.448 7.54777 59.5264 7.80616Q59.6048 8.06454 59.6704 8.32646Q59.736 8.58838 59.7887 8.8532Q59.8413 9.11802 59.8809 9.38511Q59.9206 9.6522 59.947 9.92091Q59.9735 10.1896 59.9867 10.4593Q60 10.729 60 10.999L60 11.001Q60 11.271 59.9867 11.5407Q59.9735 11.8104 59.947 12.0791Q59.9206 12.3478 59.8809 12.6149Q59.8413 12.882 59.7887 13.1468Q59.736 13.4116 59.6704 13.6735Q59.6048 13.9355 59.5264 14.1938Q59.448 14.4522 59.357 14.7065Q59.2661 14.9607 59.1627 15.2101Q59.0594 15.4596 58.944 15.7037Q58.8285 15.9478 58.7013 16.1859Q58.574 16.424 58.4352 16.6556Q58.2963 16.8872 58.1463 17.1117Q57.9963 17.3362 57.8355 17.5531Q57.6746 17.77 57.5033 17.9787Q57.3321 18.1874 57.1507 18.3875Q56.9694 18.5875 56.7785 18.7785Q56.5875 18.9694 56.3875 19.1507Q56.1874 19.332 55.9787 19.5033Q55.77 19.6746 55.5531 19.8355Q55.3362 19.9963 55.1117 20.1463Q54.8872 20.2963 54.6556 20.4352Q54.424 20.574 54.1859 20.7013Q53.9478 20.8285 53.7037 20.944Q53.4596 21.0594 53.2101 21.1628Q52.9607 21.2661 52.7064 21.357Q52.4522 21.448 52.1938 21.5264Q51.9355 21.6048 51.6735 21.6704Q51.4116 21.736 51.1468 21.7887Q50.882 21.8413 50.6149 21.881Q50.3478 21.9206 50.0791 21.947Q49.8104 21.9735 49.5407 21.9867Q49.271 22 49.001 22L10.999 22Q10.729 22 10.4593 21.9867Q10.1896 21.9735 9.92091 21.947Q9.6522 21.9206 9.38511 21.881Q9.11802 21.8413 8.8532 21.7887Q8.58838 21.736 8.32646 21.6704Q8.06454 21.6048 7.80616 21.5264Q7.54777 21.448 7.29355 21.357Q7.03932 21.2661 6.78986 21.1628Q6.54041 21.0594 6.29632 20.944Q6.05223 20.8285 5.81411 20.7013Q5.57598 20.574 5.34438 20.4352Q5.11279 20.2963 4.88828 20.1463Q4.66378 19.9963 4.4469 19.8355Q4.23003 19.6746 4.02131 19.5033Q3.81259 19.3321 3.61252 19.1507Q3.41246 18.9694 3.22153 18.7785Q3.03061 18.5875 2.84928 18.3875Q2.66795 18.1874 2.49666 17.9787Q2.32537 17.77 2.16452 17.5531Q2.00367 17.3362 1.85367 17.1117Q1.70366 16.8872 1.56484 16.6556Q1.42603 16.424 1.29875 16.1859Q1.17147 15.9478 1.05602 15.7037Q0.940577 15.4596 0.837249 15.2101Q0.73392 14.9607 0.642957 14.7065Q0.551993 14.4522 0.473613 14.1938Q0.395233 13.9355 0.329626 13.6735Q0.264019 13.4116 0.211343 13.1468Q0.158666 12.882 0.119048 12.6149Q0.0794288 12.3478 0.0529632 12.0791Q0.0264976 11.8104 0.0132488 11.5407Q0 11.271 0 11.001L0 10.999Q0 10.729 0.0132488 10.4593Q0.0264976 10.1896 0.0529632 9.92091Q0.0794288 9.6522 0.119048 9.38511Q0.158666 9.11802 0.211343 8.8532Q0.264019 8.58838 0.329626 8.32646Q0.395233 8.06454 0.473613 7.80616Q0.551993 7.54777 0.642957 7.29355Q0.73392 7.03932 0.837249 6.78986Q0.940577 6.54041 1.05602 6.29632Q1.17147 6.05223 1.29875 5.81411Q1.42603 5.57598 1.56484 5.34438Q1.70366 5.11279 1.85367 4.88828Q2.00367 4.66378 2.16452 4.4469Q2.32537 4.23003 2.49666 4.02131Q2.66795 3.81259 2.84928 3.61252Q3.03061 3.41246 3.22153 3.22153Q3.41246 3.03061 3.61252 2.84928Q3.81259 2.66795 4.02131 2.49666Q4.23003 2.32537 4.4469 2.16452Q4.66378 2.00367 4.88828 1.85367Q5.11279 1.70366 5.34438 1.56484Q5.57598 1.42603 5.81411 1.29875Q6.05223 1.17147 6.29632 1.05602Q6.54041 0.940577 6.78986 0.837249Q7.03932 0.73392 7.29355 0.642957Q7.54777 0.551993 7.80616 0.473613Q8.06454 0.395233 8.32646 0.329626Q8.58838 0.264019 8.8532 0.211343Q9.11802 0.158666 9.38511 0.119048Q9.6522 0.0794288 9.92091 0.0529632Q10.1896 0.0264976 10.4593 0.0132488Q10.729 0 10.999 0Z" transform="translate(24 9)" id="path_1" />
    <clipPath id="mask_1">
      <use xlink:href="#path_1" />
    </clipPath>
  </defs>
  <g id="MouthGrimace">
    <path d="M12.999 0L51.001 0Q51.3201 0 51.6388 0.0156579Q51.9576 0.0313157 52.2751 0.0625937Q52.5927 0.0938717 52.9083 0.140695Q53.224 0.187517 53.537 0.249772Q53.8499 0.312027 54.1595 0.389564Q54.469 0.4671 54.7744 0.559732Q55.0798 0.652364 55.3802 0.759869Q55.6807 0.867373 55.9755 0.98949Q56.2703 1.11161 56.5588 1.24804Q56.8473 1.38448 57.1287 1.53491Q57.4101 1.68533 57.6838 1.84939Q57.9575 2.01344 58.2229 2.19073Q58.4882 2.36801 58.7445 2.55811Q59.0008 2.7482 59.2475 2.95064Q59.4942 3.15308 59.7306 3.36738Q59.967 3.58168 60.1927 3.80732Q60.4183 4.03296 60.6326 4.2694Q60.8469 4.50585 61.0494 4.75252Q61.2518 4.99919 61.4419 5.2555Q61.632 5.51181 61.8093 5.77714Q61.9865 6.04247 62.1506 6.31618Q62.3147 6.58989 62.4651 6.87131Q62.6155 7.15274 62.7519 7.44121Q62.8884 7.72968 63.0105 8.0245Q63.1326 8.31931 63.2401 8.61977Q63.3476 8.92022 63.4403 9.22559Q63.5329 9.53096 63.6104 9.8405Q63.688 10.15 63.7502 10.463Q63.8125 10.776 63.8593 11.0917Q63.9061 11.4073 63.9374 11.7249Q63.9687 12.0424 63.9843 12.3612Q64 12.6799 64 12.999L64 13.001Q64 13.3201 63.9843 13.6388Q63.9687 13.9576 63.9374 14.2751Q63.9061 14.5927 63.8593 14.9083Q63.8125 15.224 63.7502 15.537Q63.688 15.85 63.6104 16.1595Q63.5329 16.469 63.4403 16.7744Q63.3476 17.0798 63.2401 17.3802Q63.1326 17.6807 63.0105 17.9755Q62.8884 18.2703 62.7519 18.5588Q62.6155 18.8473 62.4651 19.1287Q62.3147 19.4101 62.1506 19.6838Q61.9866 19.9575 61.8093 20.2229Q61.632 20.4882 61.4419 20.7445Q61.2518 21.0008 61.0494 21.2475Q60.8469 21.4942 60.6326 21.7306Q60.4183 21.967 60.1927 22.1927Q59.967 22.4183 59.7306 22.6326Q59.4942 22.8469 59.2475 23.0494Q59.0008 23.2518 58.7445 23.4419Q58.4882 23.632 58.2229 23.8093Q57.9575 23.9866 57.6838 24.1506Q57.4101 24.3147 57.1287 24.4651Q56.8473 24.6155 56.5588 24.752Q56.2703 24.8884 55.9755 25.0105Q55.6807 25.1326 55.3802 25.2401Q55.0798 25.3476 54.7744 25.4403Q54.469 25.5329 54.1595 25.6104Q53.8499 25.688 53.537 25.7502Q53.224 25.8125 52.9083 25.8593Q52.5927 25.9061 52.2751 25.9374Q51.9576 25.9687 51.6388 25.9843Q51.3201 26 51.001 26L12.999 26Q12.6799 26 12.3612 25.9843Q12.0424 25.9687 11.7249 25.9374Q11.4073 25.9061 11.0917 25.8593Q10.776 25.8125 10.463 25.7502Q10.15 25.688 9.8405 25.6104Q9.53096 25.5329 9.22559 25.4403Q8.92022 25.3476 8.61977 25.2401Q8.31931 25.1326 8.0245 25.0105Q7.72968 24.8884 7.44121 24.752Q7.15274 24.6155 6.87131 24.4651Q6.58989 24.3147 6.31618 24.1506Q6.04247 23.9866 5.77714 23.8093Q5.51181 23.632 5.2555 23.4419Q4.99919 23.2518 4.75252 23.0494Q4.50585 22.8469 4.2694 22.6326Q4.03296 22.4183 3.80732 22.1927Q3.58168 21.967 3.36738 21.7306Q3.15308 21.4942 2.95064 21.2475Q2.7482 21.0008 2.55811 20.7445Q2.36801 20.4882 2.19073 20.2229Q2.01344 19.9575 1.84939 19.6838Q1.68533 19.4101 1.53491 19.1287Q1.38448 18.8473 1.24804 18.5588Q1.11161 18.2703 0.98949 17.9755Q0.867373 17.6807 0.759869 17.3802Q0.652364 17.0798 0.559732 16.7744Q0.4671 16.469 0.389564 16.1595Q0.312027 15.85 0.249772 15.537Q0.187517 15.224 0.140694 14.9083Q0.0938717 14.5927 0.0625937 14.2751Q0.0313157 13.9576 0.0156579 13.6388Q0 13.3201 0 13.001L0 12.999Q0 12.6799 0.0156579 12.3612Q0.0313157 12.0424 0.0625937 11.7249Q0.0938717 11.4073 0.140695 11.0917Q0.187517 10.776 0.249772 10.463Q0.312027 10.15 0.389564 9.8405Q0.4671 9.53096 0.559732 9.22559Q0.652364 8.92022 0.759869 8.61977Q0.867373 8.31931 0.98949 8.0245Q1.11161 7.72968 1.24804 7.44121Q1.38448 7.15274 1.53491 6.87131Q1.68533 6.58989 1.84939 6.31618Q2.01344 6.04247 2.19073 5.77714Q2.36801 5.51181 2.55811 5.2555Q2.7482 4.99919 2.95064 4.75252Q3.15308 4.50585 3.36738 4.2694Q3.58168 4.03296 3.80732 3.80732Q4.03296 3.58168 4.2694 3.36738Q4.50585 3.15308 4.75252 2.95064Q4.99919 2.7482 5.2555 2.55811Q5.51181 2.36801 5.77714 2.19073Q6.04247 2.01344 6.31618 1.84939Q6.58989 1.68533 6.87131 1.53491Q7.15274 1.38448 7.44121 1.24804Q7.72968 1.11161 8.0245 0.98949Q8.31931 0.867373 8.61977 0.759869Q8.92022 0.652364 9.22559 0.559732Q9.53096 0.4671 9.8405 0.389564Q10.15 0.312027 10.463 0.249772Q10.776 0.187517 11.0917 0.140694Q11.4073 0.0938717 11.7249 0.0625937Q12.0424 0.0313157 12.3612 0.0156579Q12.6799 0 12.999 0Z" transform="translate(22 7)" id="Mouth" fill="#000000" fill-opacity="0.6" fill-rule="evenodd" stroke="none" />
    <path d="M10.999 0L49.001 0Q49.271 0 49.5407 0.0132488Q49.8104 0.0264976 50.0791 0.0529632Q50.3478 0.0794288 50.6149 0.119048Q50.882 0.158666 51.1468 0.211343Q51.4116 0.264019 51.6735 0.329626Q51.9355 0.395233 52.1938 0.473613Q52.4522 0.551993 52.7064 0.642957Q52.9607 0.73392 53.2101 0.837249Q53.4596 0.940577 53.7037 1.05602Q53.9478 1.17147 54.1859 1.29875Q54.424 1.42603 54.6556 1.56484Q54.8872 1.70366 55.1117 1.85367Q55.3362 2.00367 55.5531 2.16452Q55.77 2.32537 55.9787 2.49666Q56.1874 2.66795 56.3875 2.84928Q56.5875 3.03061 56.7785 3.22153Q56.9694 3.41246 57.1507 3.61252Q57.3321 3.81259 57.5033 4.02131Q57.6746 4.23003 57.8355 4.4469Q57.9963 4.66378 58.1463 4.88828Q58.2963 5.11279 58.4352 5.34438Q58.574 5.57598 58.7013 5.81411Q58.8285 6.05223 58.944 6.29632Q59.0594 6.54041 59.1627 6.78986Q59.2661 7.03932 59.357 7.29355Q59.448 7.54777 59.5264 7.80616Q59.6048 8.06454 59.6704 8.32646Q59.736 8.58838 59.7887 8.8532Q59.8413 9.11802 59.8809 9.38511Q59.9206 9.6522 59.947 9.92091Q59.9735 10.1896 59.9867 10.4593Q60 10.729 60 10.999L60 11.001Q60 11.271 59.9867 11.5407Q59.9735 11.8104 59.947 12.0791Q59.9206 12.3478 59.8809 12.6149Q59.8413 12.882 59.7887 13.1468Q59.736 13.4116 59.6704 13.6735Q59.6048 13.9355 59.5264 14.1938Q59.448 14.4522 59.357 14.7065Q59.2661 14.9607 59.1627 15.2101Q59.0594 15.4596 58.944 15.7037Q58.8285 15.9478 58.7013 16.1859Q58.574 16.424 58.4352 16.6556Q58.2963 16.8872 58.1463 17.1117Q57.9963 17.3362 57.8355 17.5531Q57.6746 17.77 57.5033 17.9787Q57.3321 18.1874 57.1507 18.3875Q56.9694 18.5875 56.7785 18.7785Q56.5875 18.9694 56.3875 19.1507Q56.1874 19.332 55.9787 19.5033Q55.77 19.6746 55.5531 19.8355Q55.3362 19.9963 55.1117 20.1463Q54.8872 20.2963 54.6556 20.4352Q54.424 20.574 54.1859 20.7013Q53.9478 20.8285 53.7037 20.944Q53.4596 21.0594 53.2101 21.1628Q52.9607 21.2661 52.7064 21.357Q52.4522 21.448 52.1938 21.5264Q51.9355 21.6048 51.6735 21.6704Q51.4116 21.736 51.1468 21.7887Q50.882 21.8413 50.6149 21.881Q50.3478 21.9206 50.0791 21.947Q49.8104 21.9735 49.5407 21.9867Q49.271 22 49.001 22L10.999 22Q10.729 22 10.4593 21.9867Q10.1896 21.9735 9.92091 21.947Q9.6522 21.9206 9.38511 21.881Q9.11802 21.8413 8.8532 21.7887Q8.58838 21.736 8.32646 21.6704Q8.06454 21.6048 7.80616 21.5264Q7.54777 21.448 7.29355 21.357Q7.03932 21.2661 6.78986 21.1628Q6.54041 21.0594 6.29632 20.944Q6.05223 20.8285 5.81411 20.7013Q5.57598 20.574 5.34438 20.4352Q5.11279 20.2963 4.88828 20.1463Q4.66378 19.9963 4.4469 19.8355Q4.23003 19.6746 4.02131 19.5033Q3.81259 19.3321 3.61252 19.1507Q3.41246 18.9694 3.22153 18.7785Q3.03061 18.5875 2.84928 18.3875Q2.66795 18.1874 2.49666 17.9787Q2.32537 17.77 2.16452 17.5531Q2.00367 17.3362 1.85367 17.1117Q1.70366 16.8872 1.56484 16.6556Q1.42603 16.424 1.29875 16.1859Q1.17147 15.9478 1.05602 15.7037Q0.940577 15.4596 0.837249 15.2101Q0.73392 14.9607 0.642957 14.7065Q0.551993 14.4522 0.473613 14.1938Q0.395233 13.9355 0.329626 13.6735Q0.264019 13.4116 0.211343 13.1468Q0.158666 12.882 0.119048 12.6149Q0.0794288 12.3478 0.0529632 12.0791Q0.0264976 11.8104 0.0132488 11.5407Q0 11.271 0 11.001L0 10.999Q0 10.729 0.0132488 10.4593Q0.0264976 10.1896 0.0529632 9.92091Q0.0794288 9.6522 0.119048 9.38511Q0.158666 9.11802 0.211343 8.8532Q0.264019 8.58838 0.329626 8.32646Q0.395233 8.06454 0.473613 7.80616Q0.551993 7.54777 0.642957 7.29355Q0.73392 7.03932 0.837249 6.78986Q0.940577 6.54041 1.05602 6.29632Q1.17147 6.05223 1.29875 5.81411Q1.42603 5.57598 1.56484 5.34438Q1.70366 5.11279 1.85367 4.88828Q2.00367 4.66378 2.16452 4.4469Q2.32537 4.23003 2.49666 4.02131Q2.66795 3.81259 2.84928 3.61252Q3.03061 3.41246 3.22153 3.22153Q3.41246 3.03061 3.61252 2.84928Q3.81259 2.66795 4.02131 2.49666Q4.23003 2.32537 4.4469 2.16452Q4.66378 2.00367 4.88828 1.85367Q5.11279 1.70366 5.34438 1.56484Q5.57598 1.42603 5.81411 1.29875Q6.05223 1.17147 6.29632 1.05602Q6.54041 0.940577 6.78986 0.837249Q7.03932 0.73392 7.29355 0.642957Q7.54777 0.551993 7.80616 0.473613Q8.06454 0.395233 8.32646 0.329626Q8.58838 0.264019 8.8532 0.211343Q9.11802 0.158666 9.38511 0.119048Q9.6522 0.0794288 9.92091 0.0529632Q10.1896 0.0264976 10.4593 0.0132488Q10.729 0 10.999 0Z" transform="translate(24 9)" id="Mouth" fill="#FFFFFF" fill-rule="evenodd" stroke="none" />
    <g clip-path="url(#mask_1)">
      <path d="M7.86667 12L7.86667 0L11.8667 0L11.8667 12L20.8667 12L20.8667 0L24.8667 0L24.8667 12L33.8667 12L33.8667 0L37.8667 0L37.8667 12L46.8667 12L46.8667 0L50.8667 0L50.8667 12L59.7333 12L59.7333 16L50.8667 16L50.8667 28L46.8667 28L46.8667 16L37.8667 16L37.8667 28L33.8667 28L33.8667 16L24.8667 16L24.8667 28L20.8667 28L20.8667 16L11.8667 16L11.8667 28L7.86667 28L7.86667 16L-0.133335 16L-0.133335 12L7.86667 12Z" transform="translate(24.133333 6)" id="Grimace-Teeth" fill="#E6E6E6" fill-rule="evenodd" stroke="none" />
    </g>
  </g>
</svg>