<?xml version="1.0" encoding="utf-8"?>
<svg width="108px" height="44px" viewbox="0 0 108 44" version="1.1" xmlns:xlink="http://www.w3.org/1999/xlink" xmlns="http://www.w3.org/2000/svg">
  <g id="MouthSerious">
    <path d="M2.999 0L21.001 0Q21.1483 0 21.295 0.014441Q21.4416 0.028882 21.5861 0.0576249Q21.7306 0.0863679 21.8716 0.129136Q22.0126 0.171904 22.1487 0.228285Q22.2848 0.284667 22.4147 0.354118Q22.5447 0.42357 22.6672 0.505423Q22.7897 0.587276 22.9035 0.680742Q23.0174 0.774208 23.1216 0.878387Q23.2258 0.982566 23.3193 1.09645Q23.4127 1.21034 23.4946 1.33284Q23.5764 1.45535 23.6459 1.58528Q23.7153 1.71522 23.7717 1.85133Q23.8281 1.98745 23.8709 2.12844Q23.9136 2.26942 23.9424 2.41392Q23.9711 2.55842 23.9856 2.70505Q24 2.85167 24 2.999L24 3.001Q24 3.14833 23.9856 3.29495Q23.9711 3.44158 23.9424 3.58608Q23.9136 3.73058 23.8709 3.87156Q23.8281 4.01255 23.7717 4.14867Q23.7153 4.28478 23.6459 4.41472Q23.5764 4.54465 23.4946 4.66715Q23.4127 4.78966 23.3193 4.90355Q23.2258 5.01743 23.1216 5.12161Q23.0174 5.22579 22.9035 5.31926Q22.7897 5.41272 22.6672 5.49458Q22.5447 5.57643 22.4147 5.64588Q22.2848 5.71533 22.1487 5.77171Q22.0126 5.8281 21.8716 5.87086Q21.7306 5.91363 21.5861 5.94237Q21.4416 5.97112 21.295 5.98556Q21.1483 6 21.001 6L2.999 6Q2.85167 6 2.70505 5.98556Q2.55842 5.97112 2.41392 5.94237Q2.26942 5.91363 2.12844 5.87086Q1.98745 5.8281 1.85133 5.77171Q1.71522 5.71533 1.58528 5.64588Q1.45535 5.57643 1.33284 5.49458Q1.21034 5.41272 1.09645 5.31926Q0.982566 5.22579 0.878387 5.12161Q0.774208 5.01743 0.680742 4.90355Q0.587276 4.78966 0.505423 4.66715Q0.42357 4.54465 0.354118 4.41472Q0.284667 4.28478 0.228285 4.14867Q0.171904 4.01255 0.129136 3.87156Q0.0863679 3.73058 0.0576249 3.58608Q0.028882 3.44158 0.014441 3.29495Q0 3.14833 0 3.001L0 2.999Q0 2.85167 0.014441 2.70505Q0.028882 2.55842 0.0576249 2.41392Q0.0863679 2.26942 0.129136 2.12844Q0.171904 1.98745 0.228285 1.85133Q0.284667 1.71522 0.354118 1.58528Q0.42357 1.45535 0.505423 1.33284Q0.587276 1.21034 0.680742 1.09645Q0.774208 0.982566 0.878387 0.878387Q0.982566 0.774208 1.09645 0.680742Q1.21034 0.587276 1.33284 0.505423Q1.45535 0.42357 1.58528 0.354118Q1.71522 0.284667 1.85133 0.228285Q1.98745 0.171904 2.12844 0.129136Q2.26942 0.0863679 2.41392 0.0576249Q2.55842 0.028882 2.70505 0.014441Q2.85167 0 2.999 0L2.999 0Z" transform="translate(42 18)" id="Why-so-serious" fill="#000000" fill-opacity="0.69803923" fill-rule="evenodd" stroke="none" />
  </g>
</svg>