<?xml version="1.0" encoding="utf-8"?>
<svg width="108px" height="44px" viewbox="0 0 108 44" version="1.1" xmlns:xlink="http://www.w3.org/1999/xlink" xmlns="http://www.w3.org/2000/svg">
  <defs>
    <path d="M0.0190434 2.6087C1.42907 12.2314 12.0812 20 25.019 20C37.9872 20 48.6652 12.1833 50.019 1.73913C50.1203 1.33973 49.7943 1.11876e-13 47.8451 -1.2148e-13C27.8575 -2.5143e-12 12.7586 -1.50852e-12 2.19296 -1.2148e-13C0.402358 1.13586e-13 -0.110746 1.24047 0.0190434 2.6087Z" transform="translate(28.980957 13)" id="path_1" />
    <clipPath id="mask_1">
      <use xlink:href="#path_1" />
    </clipPath>
  </defs>
  <g id="MouthTongue">
    <path d="M0.0190434 2.6087C1.42907 12.2314 12.0812 20 25.019 20C37.9872 20 48.6652 12.1833 50.019 1.73913C50.1203 1.33973 49.7943 1.11876e-13 47.8451 -1.2148e-13C27.8575 -2.5143e-12 12.7586 -1.50852e-12 2.19296 -1.2148e-13C0.402358 1.13586e-13 -0.110746 1.24047 0.0190434 2.6087Z" transform="translate(28.980957 13)" id="Mouth" fill="#000000" fill-opacity="0.69803923" fill-rule="evenodd" stroke="none" />
    <g clip-path="url(#mask_1)">
      <path d="M4.999 0L26.001 0Q26.1237 0 26.2463 0.00602151Q26.3689 0.012043 26.491 0.0240715Q26.6131 0.0361001 26.7345 0.0541066Q26.8559 0.0721132 26.9763 0.0960544Q27.0966 0.119996 27.2157 0.149814Q27.3347 0.179632 27.4521 0.215255Q27.5696 0.250879 27.6851 0.292221Q27.8007 0.333564 27.914 0.380526Q28.0274 0.427489 28.1383 0.479957Q28.2493 0.532426 28.3575 0.590276Q28.4657 0.648125 28.571 0.711215Q28.6763 0.774305 28.7783 0.842483Q28.8803 0.910662 28.9789 0.983765Q29.0775 1.05687 29.1723 1.13472Q29.2672 1.21257 29.3581 1.29499Q29.449 1.3774 29.5358 1.46417Q29.6226 1.55095 29.705 1.64188Q29.7874 1.73281 29.8653 1.82767Q29.9431 1.92253 30.0162 2.0211Q30.0893 2.11967 30.1575 2.2217Q30.2257 2.32374 30.2888 2.429Q30.3519 2.53426 30.4097 2.64249Q30.4676 2.75072 30.52 2.86165Q30.5725 2.97259 30.6195 3.08597Q30.6664 3.19934 30.7078 3.31489Q30.7491 3.43043 30.7847 3.54787Q30.8204 3.6653 30.8502 3.78434Q30.88 3.90338 30.9039 4.02374Q30.9279 4.1441 30.9459 4.26549Q30.9639 4.38688 30.9759 4.50901Q30.988 4.63114 30.994 4.75371Q31 4.87628 31 4.999L31 11.001Q31 11.1237 30.994 11.2463Q30.988 11.3689 30.9759 11.491Q30.9639 11.6131 30.9459 11.7345Q30.9279 11.8559 30.9039 11.9763Q30.88 12.0966 30.8502 12.2157Q30.8204 12.3347 30.7847 12.4521Q30.7491 12.5696 30.7078 12.6851Q30.6664 12.8007 30.6195 12.914Q30.5725 13.0274 30.52 13.1383Q30.4676 13.2493 30.4097 13.3575Q30.3519 13.4657 30.2888 13.571Q30.2257 13.6763 30.1575 13.7783Q30.0893 13.8803 30.0162 13.9789Q29.9431 14.0775 29.8653 14.1723Q29.7874 14.2672 29.705 14.3581Q29.6226 14.4491 29.5358 14.5358Q29.4491 14.6226 29.3581 14.705Q29.2672 14.7874 29.1723 14.8653Q29.0775 14.9431 28.9789 15.0162Q28.8803 15.0893 28.7783 15.1575Q28.6763 15.2257 28.571 15.2888Q28.4657 15.3519 28.3575 15.4097Q28.2493 15.4676 28.1383 15.52Q28.0274 15.5725 27.914 15.6195Q27.8007 15.6664 27.6851 15.7078Q27.5696 15.7491 27.4521 15.7847Q27.3347 15.8204 27.2157 15.8502Q27.0966 15.88 26.9763 15.9039Q26.8559 15.9279 26.7345 15.9459Q26.6131 15.9639 26.491 15.9759Q26.3689 15.988 26.2463 15.994Q26.1237 16 26.001 16L4.999 16Q4.87628 16 4.75371 15.994Q4.63114 15.988 4.50901 15.9759Q4.38688 15.9639 4.26549 15.9459Q4.1441 15.9279 4.02374 15.9039Q3.90338 15.88 3.78434 15.8502Q3.6653 15.8204 3.54787 15.7847Q3.43043 15.7491 3.31489 15.7078Q3.19934 15.6664 3.08597 15.6195Q2.97259 15.5725 2.86165 15.52Q2.75072 15.4676 2.64249 15.4097Q2.53426 15.3519 2.429 15.2888Q2.32374 15.2257 2.2217 15.1575Q2.11967 15.0893 2.0211 15.0162Q1.92253 14.9431 1.82767 14.8653Q1.73281 14.7874 1.64188 14.705Q1.55095 14.6226 1.46417 14.5358Q1.3774 14.4491 1.29499 14.3581Q1.21257 14.2672 1.13472 14.1723Q1.05687 14.0775 0.983765 13.9789Q0.910662 13.8803 0.842483 13.7783Q0.774305 13.6763 0.711215 13.571Q0.648125 13.4657 0.590276 13.3575Q0.532426 13.2493 0.479957 13.1383Q0.427489 13.0274 0.380526 12.914Q0.333564 12.8007 0.292221 12.6851Q0.250879 12.5696 0.215255 12.4521Q0.179632 12.3347 0.149814 12.2157Q0.119996 12.0966 0.0960544 11.9763Q0.0721132 11.8559 0.0541066 11.7345Q0.0361001 11.6131 0.0240715 11.491Q0.012043 11.3689 0.00602151 11.2463Q0 11.1237 0 11.001L0 4.999Q0 4.87628 0.00602151 4.75371Q0.012043 4.63114 0.0240715 4.50901Q0.0361001 4.38688 0.0541066 4.26549Q0.0721132 4.1441 0.0960544 4.02374Q0.119996 3.90338 0.149814 3.78434Q0.179632 3.6653 0.215255 3.54787Q0.250879 3.43043 0.292221 3.31489Q0.333564 3.19934 0.380526 3.08597Q0.427489 2.97259 0.479957 2.86165Q0.532426 2.75072 0.590276 2.64249Q0.648125 2.53426 0.711215 2.429Q0.774305 2.32374 0.842483 2.2217Q0.910662 2.11967 0.983765 2.0211Q1.05687 1.92253 1.13472 1.82767Q1.21257 1.73281 1.29499 1.64188Q1.3774 1.55095 1.46417 1.46417Q1.55095 1.3774 1.64188 1.29499Q1.73281 1.21257 1.82767 1.13472Q1.92253 1.05687 2.0211 0.983765Q2.11967 0.910662 2.2217 0.842483Q2.32374 0.774305 2.429 0.711215Q2.53426 0.648125 2.64249 0.590276Q2.75072 0.532426 2.86165 0.479957Q2.97259 0.427489 3.08597 0.380526Q3.19934 0.333564 3.31489 0.292221Q3.43043 0.250879 3.54787 0.215255Q3.6653 0.179632 3.78434 0.149814Q3.90338 0.119996 4.02374 0.0960544Q4.1441 0.0721132 4.26549 0.0541066Q4.38688 0.0361001 4.50901 0.0240715Q4.63114 0.012043 4.75371 0.00602151Q4.87628 0 4.999 0Z" transform="translate(39 2)" id="Teeth" fill="#FFFFFF" fill-rule="evenodd" stroke="none" />
    </g>
    <path d="M22.9841 3.74705Q23 3.87252 23 3.999L23 13.001Q23 13.271 22.9868 13.5407Q22.9735 13.8104 22.947 14.0791Q22.9206 14.3478 22.881 14.6149Q22.8413 14.882 22.7887 15.1468Q22.736 15.4116 22.6704 15.6735Q22.6048 15.9355 22.5264 16.1938Q22.448 16.4522 22.357 16.7064Q22.2661 16.9607 22.1627 17.2101Q22.0594 17.4596 21.944 17.7037Q21.8285 17.9478 21.7013 18.1859Q21.574 18.424 21.4352 18.6556Q21.2963 18.8872 21.1463 19.1117Q20.9963 19.3362 20.8355 19.5531Q20.6746 19.77 20.5033 19.9787Q20.3321 20.1874 20.1507 20.3875Q19.9694 20.5875 19.7785 20.7785Q19.5875 20.9694 19.3875 21.1507Q19.1874 21.332 18.9787 21.5033Q18.77 21.6746 18.5531 21.8355Q18.3362 21.9963 18.1117 22.1463Q17.8872 22.2963 17.6556 22.4352Q17.424 22.574 17.1859 22.7013Q16.9478 22.8285 16.7037 22.944Q16.4596 23.0594 16.2101 23.1627Q15.9607 23.2661 15.7065 23.357Q15.4522 23.448 15.1938 23.5264Q14.9355 23.6048 14.6735 23.6704Q14.4116 23.736 14.1468 23.7887Q13.882 23.8413 13.6149 23.8809Q13.3478 23.9206 13.0791 23.947Q12.8104 23.9735 12.5407 23.9867Q12.271 24 12.001 24L10.999 24Q10.729 24 10.4593 23.9868Q10.1896 23.9735 9.92091 23.947Q9.6522 23.9206 9.38511 23.8809Q9.11802 23.8413 8.8532 23.7887Q8.58838 23.736 8.32646 23.6704Q8.06454 23.6048 7.80616 23.5264Q7.54777 23.448 7.29355 23.357Q7.03932 23.2661 6.78986 23.1627Q6.54041 23.0594 6.29632 22.944Q6.05223 22.8285 5.81411 22.7013Q5.57598 22.574 5.34438 22.4352Q5.11279 22.2963 4.88828 22.1463Q4.66378 21.9963 4.4469 21.8355Q4.23003 21.6746 4.02131 21.5033Q3.81259 21.332 3.61252 21.1507Q3.41246 20.9694 3.22153 20.7785Q3.03061 20.5875 2.84928 20.3875Q2.66795 20.1874 2.49666 19.9787Q2.32537 19.77 2.16452 19.5531Q2.00367 19.3362 1.85367 19.1117Q1.70366 18.8872 1.56484 18.6556Q1.42603 18.424 1.29875 18.1859Q1.17147 17.9478 1.05602 17.7037Q0.940577 17.4596 0.837249 17.2101Q0.73392 16.9607 0.642957 16.7064Q0.551993 16.4522 0.473613 16.1938Q0.395233 15.9355 0.329626 15.6735Q0.264019 15.4116 0.211343 15.1468Q0.158666 14.882 0.119048 14.6149Q0.0794288 14.3478 0.0529632 14.0791Q0.0264976 13.8104 0.0132488 13.5407Q0 13.271 0 13.001L0 3.999Q-1.13932e-16 3.87252 0.0159415 3.74705C0.00537282 3.66544 0 3.58306 0 3.5C0 1.567 2.91015 0 6.5 0C8.51044 0 10.3077 0.491473 11.5 1.26346C12.6923 0.491473 14.4896 0 16.5 0C20.0899 0 23 1.567 23 3.5C23 3.58306 22.9946 3.66544 22.9841 3.74705Z" transform="translate(43 20)" id="Tongue" fill="#FF4F6D" fill-rule="evenodd" stroke="none" />
  </g>
</svg>