<?xml version="1.0" encoding="utf-8"?>
<svg width="108px" height="44px" viewbox="0 0 108 44" version="1.1" xmlns:xlink="http://www.w3.org/1999/xlink" xmlns="http://www.w3.org/2000/svg">
  <defs>
    <filter filterUnits="userSpaceOnUse" color-interpolation-filters="sRGB" id="filter_1">
      <feFlood flood-opacity="0" result="BackgroundImageFix" />
      <feBlend mode="normal" in="SourceGraphic" in2="BackgroundImageFix" result="shape" />
      <feColorMatrix in="SourceAlpha" type="matrix" values="0 0 0 0 0 0 0 0 0 0 0 0 0 0 0 0 0 0 127 0" result="hardAlpha" />
      <feOffset dx="0" dy="-1" />
      <feGaussianBlur stdDeviation="0" />
      <feComposite in2="hardAlpha" operator="arithmetic" k2="-1" k3="1" />
      <feColorMatrix type="matrix" values="0 0 0 0 0 0 0 0 0 0 0 0 0 0 0 0 0 0 0.101960786 0" />
      <feBlend mode="normal" in2="shape" result="effect0_innerShadow" />
    </filter>
    <path d="M0.00820514 1.60209C1.12802 12.0929 4.23452 20.9944 19.9962 21C35.7578 21.0056 38.9169 12.0425 39.9943 1.5048C40.081 0.656719 39.1739 7.88592e-14 38.037 6.21725e-14C31.3505 -3.61866e-14 28.6703 1.4952 19.9894 1.5C11.3085 1.5048 6.7568 -6.0104e-15 2.09249 6.21725e-14C0.949027 7.88877e-14 -0.103831 0.55249 0.00820514 1.60209Z" transform="matrix(1 0 0 -1 34 32)" id="path_1" />
    <path d="M30.501 0L5.499 0Q5.36401 0 5.22918 0.00662379Q5.09435 0.0132476 4.96 0.0264792Q4.82566 0.0397108 4.69213 0.0595184Q4.5586 0.0793259 4.4262 0.105662Q4.2938 0.131998 4.16285 0.164798Q4.0319 0.197599 3.90272 0.236785Q3.77354 0.275971 3.64644 0.321449Q3.51934 0.366927 3.39462 0.418586Q3.26991 0.470246 3.14787 0.527963Q3.02584 0.58568 2.90679 0.649315Q2.78774 0.71295 2.67195 0.78235Q2.55616 0.85175 2.44392 0.926749Q2.33168 1.00175 2.22325 1.08216Q2.11482 1.16258 2.01047 1.24822Q1.90612 1.33385 1.8061 1.42451Q1.70607 1.51517 1.61062 1.61062Q1.51517 1.70607 1.42451 1.8061Q1.33385 1.90612 1.24822 2.01047Q1.16258 2.11482 1.08216 2.22325Q1.00175 2.33168 0.926749 2.44392Q0.85175 2.55616 0.78235 2.67195Q0.71295 2.78774 0.649315 2.90679Q0.58568 3.02584 0.527963 3.14787Q0.470246 3.26991 0.418586 3.39462Q0.366927 3.51934 0.321449 3.64644Q0.275971 3.77354 0.236785 3.90272Q0.197599 4.0319 0.164798 4.16285Q0.131998 4.2938 0.105662 4.4262Q0.0793259 4.5586 0.0595184 4.69213Q0.0397108 4.82566 0.0264792 4.96Q0.0132476 5.09435 0.00662379 5.22918Q0 5.36401 0 5.499L0 13.001Q0 13.1483 0.00722606 13.2954Q0.0144521 13.4424 0.0288868 13.589Q0.0433215 13.7356 0.0649301 13.8812Q0.0865387 14.0269 0.115269 14.1713Q0.143999 14.3158 0.179782 14.4586Q0.215565 14.6015 0.258315 14.7424Q0.301064 14.8833 0.350677 15.022Q0.40029 15.1607 0.456647 15.2967Q0.513003 15.4328 0.575968 15.5659Q0.638933 15.699 0.708354 15.8289Q0.777776 15.9588 0.853486 16.0851Q0.929196 16.2114 1.01101 16.3339Q1.09283 16.4563 1.18056 16.5746Q1.26828 16.6929 1.36171 16.8067Q1.45514 16.9206 1.55403 17.0297Q1.65293 17.1388 1.75707 17.2429Q1.8612 17.3471 1.97032 17.446Q2.07944 17.5449 2.19327 17.6383Q2.30711 17.7317 2.4254 17.8194Q2.54369 17.9072 2.66613 17.989Q2.78858 18.0708 2.9149 18.1465Q3.04121 18.2222 3.17109 18.2916Q3.30097 18.3611 3.4341 18.424Q3.56722 18.487 3.70328 18.5434Q3.83934 18.5997 3.978 18.6493Q4.11666 18.6989 4.25758 18.7417Q4.39851 18.7844 4.54136 18.8202Q4.68422 18.856 4.82865 18.8847Q4.97309 18.9135 5.11876 18.9351Q5.26444 18.9567 5.411 18.9711Q5.55755 18.9855 5.70464 18.9928Q5.85173 19 5.999 19L6.001 19Q6.14827 19 6.29536 18.9928Q6.44245 18.9855 6.589 18.9711Q6.73556 18.9567 6.88124 18.9351Q7.02691 18.9135 7.17135 18.8847Q7.31578 18.856 7.45864 18.8202Q7.60149 18.7844 7.74242 18.7417Q7.88334 18.6989 8.022 18.6493Q8.16066 18.5997 8.29672 18.5434Q8.43277 18.487 8.5659 18.424Q8.69903 18.3611 8.82891 18.2916Q8.95879 18.2222 9.0851 18.1465Q9.21142 18.0708 9.33387 17.989Q9.45631 17.9072 9.5746 17.8194Q9.69289 17.7317 9.80673 17.6383Q9.92056 17.5449 10.0297 17.446Q10.1388 17.3471 10.2429 17.2429Q10.3471 17.1388 10.446 17.0297Q10.5449 16.9206 10.6383 16.8067Q10.7317 16.6929 10.8194 16.5746Q10.9072 16.4563 10.989 16.3339Q11.0708 16.2114 11.1465 16.0851Q11.2222 15.9588 11.2916 15.8289Q11.3611 15.699 11.424 15.5659Q11.487 15.4328 11.5434 15.2967Q11.5997 15.1607 11.6493 15.022Q11.6989 14.8833 11.7417 14.7424Q11.7844 14.6015 11.8202 14.4586Q11.856 14.3158 11.8847 14.1713Q11.9135 14.0269 11.9351 13.8812Q11.9567 13.7356 11.9711 13.589Q11.9855 13.4424 11.9928 13.2954Q12 13.1483 12 13.001L12 11L12.0838 11Q12.1276 10.7404 12.194 10.4856Q12.2604 10.2309 12.3489 9.9829Q12.4374 9.73494 12.5473 9.49568Q12.6571 9.25642 12.7875 9.0277Q12.9179 8.79898 13.0679 8.58257Q13.2178 8.36616 13.3861 8.16371Q13.5545 7.96126 13.7399 7.77434Q13.9253 7.58742 14.1263 7.41746Q14.3274 7.2475 14.5426 7.09581Q14.7578 6.94412 14.9854 6.81186Q15.2131 6.6796 15.4514 6.5678Q15.6898 6.45599 15.937 6.3655Q16.1843 6.27501 16.4385 6.20652Q16.6927 6.13803 16.9519 6.09208Q17.2112 6.04613 17.4735 6.02306Q17.7357 6 17.999 6L18.001 6Q18.2643 6 18.5265 6.02306Q18.7888 6.04613 19.048 6.09208Q19.3073 6.13803 19.5615 6.20652Q19.8157 6.27501 20.063 6.3655Q20.3102 6.45599 20.5486 6.5678Q20.7869 6.6796 21.0146 6.81186Q21.2422 6.94412 21.4574 7.09581Q21.6726 7.2475 21.8737 7.41746Q22.0747 7.58742 22.2601 7.77434Q22.4455 7.96126 22.6139 8.16371Q22.7822 8.36616 22.9321 8.58257Q23.0821 8.79898 23.2125 9.0277Q23.3429 9.25642 23.4527 9.49568Q23.5626 9.73494 23.6511 9.9829Q23.7396 10.2309 23.806 10.4856Q23.8724 10.7404 23.9162 11L24 11L24 11.001Q24 11.1483 24.0072 11.2954Q24.0145 11.4424 24.0289 11.589Q24.0433 11.7356 24.0649 11.8812Q24.0865 12.0269 24.1153 12.1713Q24.144 12.3158 24.1798 12.4586Q24.2156 12.6015 24.2583 12.7424Q24.3011 12.8833 24.3507 13.022Q24.4003 13.1607 24.4566 13.2967Q24.513 13.4328 24.576 13.5659Q24.6389 13.699 24.7084 13.8289Q24.7778 13.9588 24.8535 14.0851Q24.9292 14.2114 25.011 14.3339Q25.0928 14.4563 25.1806 14.5746Q25.2683 14.6929 25.3617 14.8067Q25.4551 14.9206 25.554 15.0297Q25.6529 15.1388 25.7571 15.2429Q25.8612 15.3471 25.9703 15.446Q26.0794 15.5449 26.1933 15.6383Q26.3071 15.7317 26.4254 15.8194Q26.5437 15.9072 26.6661 15.989Q26.7886 16.0708 26.9149 16.1465Q27.0412 16.2222 27.1711 16.2916Q27.301 16.3611 27.4341 16.424Q27.5672 16.487 27.7033 16.5434Q27.8393 16.5997 27.978 16.6493Q28.1167 16.6989 28.2576 16.7417Q28.3985 16.7844 28.5414 16.8202Q28.6842 16.856 28.8287 16.8847Q28.9731 16.9135 29.1188 16.9351Q29.2644 16.9567 29.411 16.9711Q29.5576 16.9855 29.7046 16.9928Q29.8517 17 29.999 17L30.001 17Q30.1483 17 30.2954 16.9928Q30.4424 16.9855 30.589 16.9711Q30.7356 16.9567 30.8812 16.9351Q31.0269 16.9135 31.1713 16.8847Q31.3158 16.856 31.4586 16.8202Q31.6015 16.7844 31.7424 16.7417Q31.8833 16.6989 32.022 16.6493Q32.1607 16.5997 32.2967 16.5434Q32.4328 16.487 32.5659 16.424Q32.699 16.3611 32.8289 16.2916Q32.9588 16.2222 33.0851 16.1465Q33.2114 16.0708 33.3339 15.989Q33.4563 15.9072 33.5746 15.8194Q33.6929 15.7317 33.8067 15.6383Q33.9206 15.5449 34.0297 15.446Q34.1388 15.3471 34.2429 15.2429Q34.3471 15.1388 34.446 15.0297Q34.5449 14.9206 34.6383 14.8067Q34.7317 14.6929 34.8194 14.5746Q34.9072 14.4563 34.989 14.3339Q35.0708 14.2114 35.1465 14.0851Q35.2222 13.9588 35.2916 13.8289Q35.3611 13.699 35.424 13.5659Q35.487 13.4328 35.5434 13.2967Q35.5997 13.1607 35.6493 13.022Q35.6989 12.8833 35.7417 12.7424Q35.7844 12.6015 35.8202 12.4586Q35.856 12.3158 35.8847 12.1713Q35.9135 12.0269 35.9351 11.8812Q35.9567 11.7356 35.9711 11.589Q35.9855 11.4424 35.9928 11.2954Q36 11.1483 36 11.001L36 5.499Q36 5.36401 35.9934 5.22918Q35.9867 5.09435 35.9735 4.96Q35.9603 4.82566 35.9405 4.69213Q35.9207 4.5586 35.8943 4.4262Q35.868 4.2938 35.8352 4.16285Q35.8024 4.0319 35.7632 3.90272Q35.724 3.77354 35.6785 3.64644Q35.6331 3.51934 35.5814 3.39462Q35.5297 3.26991 35.472 3.14787Q35.4143 3.02584 35.3507 2.90679Q35.287 2.78774 35.2176 2.67195Q35.1482 2.55616 35.0732 2.44392Q34.9982 2.33168 34.9178 2.22325Q34.8374 2.11482 34.7518 2.01047Q34.6661 1.90612 34.5755 1.8061Q34.4848 1.70607 34.3894 1.61062Q34.2939 1.51517 34.1939 1.42451Q34.0939 1.33385 33.9895 1.24822Q33.8852 1.16258 33.7767 1.08216Q33.6683 1.00175 33.5561 0.926749Q33.4438 0.85175 33.328 0.78235Q33.2123 0.71295 33.0932 0.649315Q32.9742 0.58568 32.8521 0.527963Q32.7301 0.470246 32.6054 0.418586Q32.4807 0.366927 32.3536 0.321449Q32.2265 0.275971 32.0973 0.236785Q31.9681 0.197599 31.8371 0.164798Q31.7062 0.131998 31.5738 0.105662Q31.4414 0.0793259 31.3079 0.0595184Q31.1743 0.0397108 31.04 0.0264792Q30.9057 0.0132476 30.7708 0.00662379Q30.636 0 30.501 0Z" transform="translate(36 25)" id="path_2" />
    <clipPath id="mask_1">
      <use xlink:href="#path_1" />
    </clipPath>
  </defs>
  <g id="MouthVomit">
    <path d="M0.00820514 1.60209C1.12802 12.0929 4.23452 20.9944 19.9962 21C35.7578 21.0056 38.9169 12.0425 39.9943 1.5048C40.081 0.656719 39.1739 7.88592e-14 38.037 6.21725e-14C31.3505 -3.61866e-14 28.6703 1.4952 19.9894 1.5C11.3085 1.5048 6.7568 -6.0104e-15 2.09249 6.21725e-14C0.949027 7.88877e-14 -0.103831 0.55249 0.00820514 1.60209Z" transform="matrix(1 0 0 -1 34 32)" id="Mouth" fill="#000000" fill-opacity="0.69803923" fill-rule="evenodd" stroke="none" />
    <g clip-path="url(#mask_1)">
      <path d="M4.999 0L26.001 0Q26.1237 0 26.2463 0.00602151Q26.3689 0.012043 26.491 0.0240715Q26.6131 0.0361001 26.7345 0.0541066Q26.8559 0.0721132 26.9763 0.0960544Q27.0966 0.119996 27.2157 0.149814Q27.3347 0.179632 27.4521 0.215255Q27.5696 0.250879 27.6851 0.292221Q27.8007 0.333564 27.914 0.380526Q28.0274 0.427489 28.1383 0.479957Q28.2493 0.532426 28.3575 0.590276Q28.4657 0.648125 28.571 0.711215Q28.6763 0.774305 28.7783 0.842483Q28.8803 0.910662 28.9789 0.983765Q29.0775 1.05687 29.1723 1.13472Q29.2672 1.21257 29.3581 1.29499Q29.449 1.3774 29.5358 1.46417Q29.6226 1.55095 29.705 1.64188Q29.7874 1.73281 29.8653 1.82767Q29.9431 1.92253 30.0162 2.0211Q30.0893 2.11967 30.1575 2.2217Q30.2257 2.32374 30.2888 2.429Q30.3519 2.53426 30.4097 2.64249Q30.4676 2.75072 30.52 2.86165Q30.5725 2.97259 30.6195 3.08597Q30.6664 3.19934 30.7078 3.31489Q30.7491 3.43043 30.7847 3.54787Q30.8204 3.6653 30.8502 3.78434Q30.88 3.90338 30.9039 4.02374Q30.9279 4.1441 30.9459 4.26549Q30.9639 4.38688 30.9759 4.50901Q30.988 4.63114 30.994 4.75371Q31 4.87628 31 4.999L31 11.001Q31 11.1237 30.994 11.2463Q30.988 11.3689 30.9759 11.491Q30.9639 11.6131 30.9459 11.7345Q30.9279 11.8559 30.9039 11.9763Q30.88 12.0966 30.8502 12.2157Q30.8204 12.3347 30.7847 12.4521Q30.7491 12.5696 30.7078 12.6851Q30.6664 12.8007 30.6195 12.914Q30.5725 13.0274 30.52 13.1383Q30.4676 13.2493 30.4097 13.3575Q30.3519 13.4657 30.2888 13.571Q30.2257 13.6763 30.1575 13.7783Q30.0893 13.8803 30.0162 13.9789Q29.9431 14.0775 29.8653 14.1723Q29.7874 14.2672 29.705 14.3581Q29.6226 14.4491 29.5358 14.5358Q29.4491 14.6226 29.3581 14.705Q29.2672 14.7874 29.1723 14.8653Q29.0775 14.9431 28.9789 15.0162Q28.8803 15.0893 28.7783 15.1575Q28.6763 15.2257 28.571 15.2888Q28.4657 15.3519 28.3575 15.4097Q28.2493 15.4676 28.1383 15.52Q28.0274 15.5725 27.914 15.6195Q27.8007 15.6664 27.6851 15.7078Q27.5696 15.7491 27.4521 15.7847Q27.3347 15.8204 27.2157 15.8502Q27.0966 15.88 26.9763 15.9039Q26.8559 15.9279 26.7345 15.9459Q26.6131 15.9639 26.491 15.9759Q26.3689 15.988 26.2463 15.994Q26.1237 16 26.001 16L4.999 16Q4.87628 16 4.75371 15.994Q4.63114 15.988 4.50901 15.9759Q4.38688 15.9639 4.26549 15.9459Q4.1441 15.9279 4.02374 15.9039Q3.90338 15.88 3.78434 15.8502Q3.6653 15.8204 3.54787 15.7847Q3.43043 15.7491 3.31489 15.7078Q3.19934 15.6664 3.08597 15.6195Q2.97259 15.5725 2.86165 15.52Q2.75072 15.4676 2.64249 15.4097Q2.53426 15.3519 2.429 15.2888Q2.32374 15.2257 2.2217 15.1575Q2.11967 15.0893 2.0211 15.0162Q1.92253 14.9431 1.82767 14.8653Q1.73281 14.7874 1.64188 14.705Q1.55095 14.6226 1.46417 14.5358Q1.3774 14.4491 1.29499 14.3581Q1.21257 14.2672 1.13472 14.1723Q1.05687 14.0775 0.983765 13.9789Q0.910662 13.8803 0.842483 13.7783Q0.774305 13.6763 0.711215 13.571Q0.648125 13.4657 0.590276 13.3575Q0.532426 13.2493 0.479957 13.1383Q0.427489 13.0274 0.380526 12.914Q0.333564 12.8007 0.292221 12.6851Q0.250879 12.5696 0.215255 12.4521Q0.179632 12.3347 0.149814 12.2157Q0.119996 12.0966 0.0960544 11.9763Q0.0721132 11.8559 0.0541066 11.7345Q0.0361001 11.6131 0.0240715 11.491Q0.012043 11.3689 0.00602151 11.2463Q0 11.1237 0 11.001L0 4.999Q0 4.87628 0.00602151 4.75371Q0.012043 4.63114 0.0240715 4.50901Q0.0361001 4.38688 0.0541066 4.26549Q0.0721132 4.1441 0.0960544 4.02374Q0.119996 3.90338 0.149814 3.78434Q0.179632 3.6653 0.215255 3.54787Q0.250879 3.43043 0.292221 3.31489Q0.333564 3.19934 0.380526 3.08597Q0.427489 2.97259 0.479957 2.86165Q0.532426 2.75072 0.590276 2.64249Q0.648125 2.53426 0.711215 2.429Q0.774305 2.32374 0.842483 2.2217Q0.910662 2.11967 0.983765 2.0211Q1.05687 1.92253 1.13472 1.82767Q1.21257 1.73281 1.29499 1.64188Q1.3774 1.55095 1.46417 1.46417Q1.55095 1.3774 1.64188 1.29499Q1.73281 1.21257 1.82767 1.13472Q1.92253 1.05687 2.0211 0.983765Q2.11967 0.910662 2.2217 0.842483Q2.32374 0.774305 2.429 0.711215Q2.53426 0.648125 2.64249 0.590276Q2.75072 0.532426 2.86165 0.479957Q2.97259 0.427489 3.08597 0.380526Q3.19934 0.333564 3.31489 0.292221Q3.43043 0.250879 3.54787 0.215255Q3.6653 0.179632 3.78434 0.149814Q3.90338 0.119996 4.02374 0.0960544Q4.1441 0.0721132 4.26549 0.0541066Q4.38688 0.0361001 4.50901 0.0240715Q4.63114 0.012043 4.75371 0.00602151Q4.87628 0 4.999 0Z" transform="translate(39 0)" id="Teeth" fill="#FFFFFF" fill-rule="evenodd" stroke="none" />
    </g>
    <g id="Vomit-Stuff">
      <use stroke="none" fill="#88C553" xlink:href="#path_2" fill-rule="evenodd" filter="url(#filter_1)" />
    </g>
  </g>
</svg>