<?xml version="1.0" encoding="utf-8"?>
<svg width="142px" height="54px" viewbox="0 0 142 54" version="1.1" xmlns:xlink="http://www.w3.org/1999/xlink" xmlns="http://www.w3.org/2000/svg">
  <defs>
    <filter filterUnits="userSpaceOnUse" color-interpolation-filters="sRGB" id="filter_1">
      <feFlood flood-opacity="0" result="BackgroundImageFix" />
      <feColorMatrix in="SourceAlpha" type="matrix" values="0 0 0 0 0 0 0 0 0 0 0 0 0 0 0 0 0 0 127 0" />
      <feOffset dx="0" dy="2" />
      <feGaussianBlur stdDeviation="0" />
      <feColorMatrix type="matrix" values="0 0 0 0 0 0 0 0 0 0 0 0 0 0 0 0 0 0 0.2 0" />
      <feBlend mode="normal" in2="BackgroundImageFix" result="effect0_dropShadow" />
      <feBlend mode="normal" in="SourceGraphic" in2="effect0_dropShadow" result="shape" />
    </filter>
  </defs>
  <g id="Top_ResourcesPrescription-2">
    <g filter="url(#filter_1)">
      <g id="Wayfarers" transform="translate(6 7)">
        <path d="M22.2421 41L25 41C39.7213 41 50 32.5686 50 20.5C50 10.127 48.183 0 26.4701 0L23.5299 0C1.81701 0 0 10.127 0 20.5C0 33.3359 8.31471 41 22.2421 41ZM4 21.5016C4 12.841 4 6 23.3854 6L26.6146 6C46 6 46 12.841 46 21.5016C46 30.627 37.3649 37 25 37L21.9709 37C7.11625 37 4 28.5719 4 21.5016Z" transform="translate(9 0)" id="Left" fill="#252C2F" fill-rule="evenodd" stroke="none" />
        <path d="M22.2421 41L25 41C39.7213 41 50 32.5686 50 20.5C50 10.127 48.183 0 26.4701 0L23.5299 0C1.81701 0 0 10.127 0 20.5C0 33.3359 8.31471 41 22.2421 41ZM4 21.5016C4 12.841 4 6 23.3854 6L26.6146 6C46 6 46 12.841 46 21.5016C46 30.627 37.3649 37 25 37L21.9709 37C7.11948 37 4 28.5719 4 21.5016Z" transform="translate(71 0)" id="Right" fill="#252C2F" fill-rule="evenodd" stroke="none" />
        <path d="M2.95455 5.77156C3.64591 5.09629 11.2095 0 32.5 0C50.3514 0 54.1302 1.85267 59.8502 4.65188L60.2689 4.85851C60.6666 4.99902 62.7002 5.68983 65.0791 5.7658C67.2463 5.67279 69.1 5.0854 69.6417 4.8972C76.1704 1.72209 82.5611 0 97.5 0C118.79 0 126.354 5.09629 127.045 5.77156C128.679 5.77156 130 7.06151 130 8.65735L130 11.5431C130 13.139 128.679 14.4289 127.045 14.4289C127.045 14.4289 120.144 14.4289 120.144 17.3147C120.144 20.2005 118.182 13.139 118.182 11.5431L118.182 8.7324C114.579 7.3534 108.128 4.78618 97.5 4.78618C85.6585 4.78618 79.7611 6.88603 74.7023 8.97112L74.7589 9.10753L74.7564 11.0938L72.5392 16.4436L69.8005 15.3608C69.5559 15.2641 69.0281 15.0904 68.2963 14.9099C66.2563 14.4067 64.1589 14.2536 62.3041 14.6343C61.6236 14.774 60.9922 14.9836 60.4128 15.2667L57.7705 16.5579L55.1267 11.3962L55.2441 9.10176L55.3248 8.90684C50.9621 6.87386 46.9393 4.78618 32.5 4.78618C21.8721 4.78618 15.4221 7.35244 11.8182 8.73147L11.8182 11.5431C11.8182 13.139 8.86364 20.2005 8.86364 17.3147C8.86364 14.4289 2.95455 14.4289 2.95455 14.4289C1.32364 14.4289 0 13.139 0 11.5431L0 8.65735C0 7.06151 1.32364 5.77156 2.95455 5.77156Z" id="Stuff" fill="#252C2F" fill-rule="evenodd" stroke="none" />
      </g>
    </g>
  </g>
</svg>