<?xml version="1.0" encoding="utf-8"?>
<svg width="142px" height="54px" viewbox="0 0 142 54" version="1.1" xmlns:xlink="http://www.w3.org/1999/xlink" xmlns="http://www.w3.org/2000/svg">
  <defs>
    <filter filterUnits="userSpaceOnUse" color-interpolation-filters="sRGB" id="filter_1">
      <feFlood flood-opacity="0" result="BackgroundImageFix" />
      <feColorMatrix in="SourceAlpha" type="matrix" values="0 0 0 0 0 0 0 0 0 0 0 0 0 0 0 0 0 0 127 0" />
      <feOffset dx="0" dy="2" />
      <feGaussianBlur stdDeviation="0" />
      <feColorMatrix type="matrix" values="0 0 0 0 0 0 0 0 0 0 0 0 0 0 0 0 0 0 0.101960786 0" />
      <feBlend mode="normal" in2="BackgroundImageFix" result="effect0_dropShadow" />
      <feBlend mode="normal" in="SourceGraphic" in2="effect0_dropShadow" result="shape" />
    </filter>
  </defs>
  <g id="Top_ResourcesPrescription-01">
    <g filter="url(#filter_1)">
      <g id="Glasses" transform="translate(8 8)">
        <path d="M37.2355 7.27271C39.6072 7.29504 40.7283 7.68937 41.1324 10.1627C41.5417 12.668 41.1437 15.4847 40.6716 17.9524C39.9512 21.7204 38.7531 25.412 35.964 28.166C34.4949 29.6164 32.703 30.7724 30.7971 31.5617C29.7849 31.981 28.7161 32.2837 27.6477 32.5134C27.3353 32.5804 24.6686 32.9477 26.3042 32.761C22.4874 33.1967 18.3465 33.1794 15.1588 30.75C11.626 28.0577 9.2067 23.7974 8.1429 19.5537C7.52049 17.0707 6.21266 11.132 8.60229 9.14671C11.3396 6.87204 37.2355 7.27271 37.2355 7.27271L37.2355 7.27271ZM13.2042 0.48804C7.76385 0.675374 4.13306 1.63137 1.44973 7.06671C-3.46789 17.0277 4.94917 31.9664 14.3387 36.037C25.3157 40.7967 37.5786 35.5294 43.382 26.0034C46.4554 20.9597 48.0089 13.3207 47.9089 7.50137C47.7815 0.0740403 42.5935 -0.13196 36.4954 0.0313736L13.2042 0.48804Z" transform="translate(9.013604 0.0024596858)" id="Frame-Stuff" fill="#D6EAF2" fill-rule="evenodd" stroke="none" />
        <path d="M10.6782 7.27247C8.30655 7.29514 7.18541 7.68914 6.78136 10.1625C6.37197 12.6678 6.77002 15.4845 7.24175 17.9521C7.96251 21.7201 9.16066 25.4118 11.9497 28.1658C13.4189 29.6161 15.2107 30.7721 17.1166 31.5618C18.1288 31.9808 19.1976 32.2835 20.266 32.5131C20.5784 32.5801 23.2447 32.9478 21.6095 32.7608C25.4264 33.1965 29.5672 33.1791 32.7549 30.7498C36.2877 28.0575 38.707 23.7975 39.7708 19.5538C40.3932 17.0705 41.7007 11.1321 39.3114 9.14647C36.5741 6.8718 10.6782 7.27247 10.6782 7.27247L10.6782 7.27247ZM34.7092 0.487805C40.1499 0.675138 43.7807 1.63147 46.464 7.06647C51.3813 17.0275 42.9645 31.9661 33.575 36.0371C22.598 40.7965 10.3351 35.5291 4.53141 26.0035C1.45836 20.9595 -0.0951679 13.3205 0.00451124 7.50114C0.132194 0.0738051 5.32018 -0.132195 11.4183 0.0314717L34.7092 0.487805Z" transform="translate(69.00237 9.4921634E-05)" id="Frame-Stuff" fill="#D6EAF2" fill-rule="evenodd" stroke="none" />
        <path d="M13.197 0.00497435C9.78504 0.196641 5.88609 0.242641 2.69008 1.71764C-0.694586 3.27964 -1.21764 6.81697 3.04923 7.30431C4.97097 7.52397 6.89491 7.16097 8.78719 6.82331C10.3369 6.54664 12.442 6.63631 13.9065 6.04397C16.6355 4.94064 16.4604 -0.181692 13.197 0.00497435" transform="translate(-2.4792404E-05 4.9217257)" id="Frame-Stuff" fill="#D6EAF2" fill-rule="evenodd" stroke="none" />
        <path d="M2.61431 0.00497435C6.02624 0.196641 9.9252 0.242641 13.1212 1.71764C16.5059 3.27964 17.0289 6.81697 12.7621 7.30431C10.8403 7.52397 8.91638 7.16097 7.02409 6.82331C5.47435 6.54664 3.36928 6.63631 1.90478 6.04397C-0.824581 4.94064 -0.64908 -0.181692 2.61431 0.00497435" transform="translate(110.12036 4.9217257)" id="Frame-Stuff" fill="#D6EAF2" fill-rule="evenodd" stroke="none" />
        <path d="M20.9651 3.628C19.0189 1.328 13.9469 0 10.7472 0C7.5471 0 2.62382 1.328 0.677907 3.628C-0.303549 4.78767 -0.336887 6.33933 1.36399 7.06633C3.48192 7.972 5.37316 6.32967 7.06837 5.47067C9.23664 4.372 12.5677 4.49267 14.5746 5.47067C16.2829 6.30333 18.1608 7.972 20.279 7.06633C21.9799 6.33933 21.9466 4.78767 20.9651 3.628" transform="translate(52.14432 3.3846333)" id="Frame-Stuff" fill="#D6EAF2" fill-rule="evenodd" stroke="none" />
      </g>
    </g>
  </g>
</svg>