<?xml version="1.0" encoding="utf-8"?>
<svg width="142px" height="54px" viewbox="0 0 142 54" version="1.1" xmlns:xlink="http://www.w3.org/1999/xlink" xmlns="http://www.w3.org/2000/svg">
  <defs>
    <filter filterUnits="userSpaceOnUse" color-interpolation-filters="sRGB" id="filter_1">
      <feFlood flood-opacity="0" result="BackgroundImageFix" />
      <feColorMatrix in="SourceAlpha" type="matrix" values="0 0 0 0 0 0 0 0 0 0 0 0 0 0 0 0 0 0 127 0" />
      <feOffset dx="0" dy="2" />
      <feGaussianBlur stdDeviation="0" />
      <feColorMatrix type="matrix" values="0 0 0 0 0 0 0 0 0 0 0 0 0 0 0 0 0 0 0.101960786 0" />
      <feBlend mode="normal" in2="BackgroundImageFix" result="effect0_dropShadow" />
      <feBlend mode="normal" in="SourceGraphic" in2="effect0_dropShadow" result="shape" />
    </filter>
  </defs>
  <g id="Top_ResourcesRound">
    <path d="M32 48C18.7452 48 8 37.2548 8 24C8 21.5649 8.36265 19.2146 9.03687 17L2.499 17Q2.37623 17 2.25406 16.988Q2.13188 16.9759 2.01147 16.952Q1.89106 16.928 1.77358 16.8924Q1.6561 16.8568 1.54267 16.8098Q1.42925 16.7628 1.32098 16.7049Q1.21271 16.647 1.11063 16.5788Q1.00855 16.5106 0.913651 16.4328Q0.81875 16.3549 0.73194 16.2681Q0.64513 16.1812 0.567247 16.0863Q0.489364 15.9914 0.421157 15.8894Q0.352951 15.7873 0.295079 15.679Q0.237206 15.5707 0.190225 15.4573Q0.143244 15.3439 0.107606 15.2264Q0.0719684 15.1089 0.0480176 14.9885Q0.0240667 14.8681 0.0120334 14.7459Q0 14.6238 0 14.501L0 14.499Q0 14.3762 0.0120334 14.2541Q0.0240667 14.1319 0.0480176 14.0115Q0.0719684 13.8911 0.107606 13.7736Q0.143244 13.6561 0.190225 13.5427Q0.237206 13.4293 0.295079 13.321Q0.352951 13.2127 0.421157 13.1106Q0.489364 13.0086 0.567247 12.9137Q0.64513 12.8187 0.73194 12.7319Q0.81875 12.6451 0.913651 12.5672Q1.00855 12.4894 1.11063 12.4212Q1.21271 12.353 1.32098 12.2951Q1.42925 12.2372 1.54267 12.1902Q1.6561 12.1432 1.77358 12.1076Q1.89106 12.072 2.01147 12.048Q2.13188 12.0241 2.25406 12.012Q2.37623 12 2.499 12L10.501 12Q10.8364 12 11.1599 12.0884C15.2969 4.86607 23.0802 0 32 0C41.3522 0 49.4549 5.34919 53.4157 13.1549C55.4929 10.0393 58.9494 8 62.8624 8C66.8747 8 70.407 10.1441 72.4646 13.3941C76.3801 5.4587 84.5526 0 94 0C102.92 0 110.703 4.86607 114.84 12.0884Q115.164 12 115.499 12L123.501 12Q123.624 12 123.746 12.012Q123.868 12.0241 123.989 12.048Q124.109 12.072 124.226 12.1076Q124.344 12.1432 124.457 12.1902Q124.571 12.2372 124.679 12.2951Q124.787 12.353 124.889 12.4212Q124.991 12.4894 125.086 12.5672Q125.181 12.6451 125.268 12.7319Q125.355 12.8187 125.433 12.9137Q125.511 13.0086 125.579 13.1106Q125.647 13.2127 125.705 13.321Q125.763 13.4293 125.81 13.5427Q125.857 13.6561 125.892 13.7736Q125.928 13.8911 125.952 14.0115Q125.976 14.1319 125.988 14.2541Q126 14.3762 126 14.499L126 14.501Q126 14.6238 125.988 14.7459Q125.976 14.8681 125.952 14.9885Q125.928 15.1089 125.892 15.2264Q125.857 15.3439 125.81 15.4573Q125.763 15.5707 125.705 15.679Q125.647 15.7873 125.579 15.8894Q125.511 15.9914 125.433 16.0863Q125.355 16.1812 125.268 16.2681Q125.181 16.3549 125.086 16.4328Q124.991 16.5106 124.889 16.5788Q124.787 16.647 124.679 16.7049Q124.571 16.7628 124.457 16.8098Q124.344 16.8568 124.226 16.8924Q124.109 16.928 123.989 16.952Q123.868 16.9759 123.746 16.988Q123.624 17 123.501 17L116.963 17C117.637 19.2146 118 21.5649 118 24C118 37.2548 107.255 48 94 48C80.7452 48 70 37.2548 70 24C70 22.5781 70.1236 21.1851 70.3608 19.8311C70.2762 15.4553 66.9136 12 62.8624 12C59.1257 12 55.9747 14.9398 55.4418 18.8301C55.8073 20.4952 56 22.2251 56 24C56 37.2548 45.2548 48 32 48ZM32 44C43.0457 44 52 35.0457 52 24C52 12.9543 43.0457 4 32 4C20.9543 4 12 12.9543 12 24C12 35.0457 20.9543 44 32 44ZM114 24C114 35.0457 105.046 44 94 44C82.9543 44 74 35.0457 74 24C74 12.9543 82.9543 4 94 4C105.046 4 114 12.9543 114 24Z" transform="translate(8 3)" id="Lennon-Glasses" fill="#252C2F" fill-rule="evenodd" stroke="none" filter="url(#filter_1)" />
  </g>
</svg>