<svg xmlns="http://www.w3.org/2000/svg" xmlns:xlink="http://www.w3.org/1999/xlink" width="264px" height="280px" viewBox="0 0 264 280" version="1.1">
    <title>Avataaar/Circle</title>
    <desc>Created with python_avataaars</desc>
    <defs>
        <circle id="circle_path-1" cx="120" cy="120" r="120" />
        <path d="M-3.19744231e-14,160 L-3.19744231e-14,-1.42108547e-14 L264,-1.42108547e-14 L264,160 L252,160 C252,226.27417 198.27417,280 132,280 C65.72583,280 12,226.27417 12,160 L12,160 L-3.19744231e-14,160 Z" id="circle_path-3" />
        <path d="M100,0 C130.927946,-5.68137151e-15 156,25.072054 156,56 L156.000809,62.1660527 C161.675838,63.1185422 166,68.05429 166,74 L166,88 C166,94.0524166 161.519235,99.0582945 155.693975,99.8813638 C153.627928,119.686472 141.237929,136.421678 124.001014,144.610469 L124,163 L128,163 C167.764502,163 200,195.235498 200,235 L200,244 L0,244 L0,235 C-4.86974701e-15,195.235498 32.235498,163 72,163 L76,163 L75.9999836,144.610943 C58.7625487,136.422324 46.3721119,119.686854 44.3051107,99.8809698 C38.480765,99.0582945 34,94.0524166 34,88 L34,74 C34,68.053942 38.3246685,63.1179645 44.0001873,62.1658855 L44,56 C44,25.072054 69.072054,5.68137151e-15 100,0 Z" id="circle_path-5" />
        <path d="M83,36.3476251 C83,52.6289957 105.161905,65.8276544 132.5,65.8276544 C159.838095,65.8276544 182,52.6289957 182,36.3476251 C182,34.9853134 181.844841,33.6445843 181.544472,32.3313638 C210.784239,41.4879251 232,68.792221 232,101.051724 L232,110 L32,110 L32,101.051724 C32,68.3970853 53.7386736,40.8197864 83.5337207,32.0021267 C83.1821692,33.4207025 83,34.871494 83,36.3476251 Z" id="circle_path-7" />
        <rect id="circle_path-9" x="0" y="0" width="264" height="280" />
        <path d="M74,0 C114.869071,0 148,33.1309285 148,74 L148,84.1482318 L148,197.608051 C135.525121,187.236892 119.490913,181 102,181 L102,181 L98,181 L98,162.610951 C115.530782,154.282984 128.048193,137.114792 129.791419,116.867187 C135.569129,116.002364 140,111.018625 140,105 L140,105 L140,92 C140,87.3536213 137.359271,83.3240177 133.496777,81.3301515 C132.723933,81.0500337 131.951808,80.748163 131.180891,80.4262497 C130.794819,80.3202581 130.400778,80.2331546 130,80.1659169 L130,80.1659169 L130.000458,79.9172528 C117.224481,74.2339715 104.877985,63.0706967 96.1104311,47.8848473 C93.1752556,42.8009742 90.8310687,37.5951441 89.0661426,32.3970356 C80.4313947,42.9409152 67.7445474,53.6023901 52.3415164,62.4953343 C42.777598,68.0170651 33.1467898,72.2910056 24,75.2659587 L24.0003852,137.246608 C29.6019576,148.318362 38.7728825,157.277529 50,162.610951 L50,162.610951 L50,181 L46,181 C38.3273639,181 30.9350359,182.200142 24.0004995,184.422941 L24,230 C24,244.105888 13.5691766,255.775526 0,257.716445 L0,74 C0,33.1309285 33.1309285,0 74,0 Z" id="circle_path-11" />
    </defs>
    <g id="circle_Avataaar/Circle" stroke="none" stroke-width="1" fill="none" fill-rule="evenodd">
        <g id="circle_Circle" transform="translate(12.000000, 40.000000)">
            <mask id="circle_mask-2" fill="white">
                <use xlink:href="#circle_path-1" />
            </mask>
            <use id="circle_Background-Color" fill="#65C9FF" xlink:href="#circle_path-1" />
            <g id="circle_Fabric-Color" mask="url(#circle_mask-2)" fill="">
                <rect id="circle_ðŸ–Color" x="0" y="0" width="240" height="240" />
            </g>
        </g>
        <mask id="circle_mask-4" fill="white">
            <use xlink:href="#circle_path-3" />
        </mask>
        <g id="circle_Mask" />
        <g id="circle_Avataaar" mask="url(#circle_mask-4)">
            <g id="circle_Body" transform="translate(32.000000, 36.000000)">
                <mask id="circle_mask-6" fill="white">
                    <use xlink:href="#circle_path-5" />
                </mask>
                <use fill="#D0C6AC" xlink:href="#circle_path-5" />
                <g id="circle_Skin-Color" mask="url(#circle_mask-6)" fill="#D08B5B">
                    <g transform="translate(-32.000000, 0.000000)" id="circle_Color">
                        <rect x="0" y="0" width="264" height="244" />
                    </g>
                </g>
                <path d="M44,94 C44,124.927946 69.072054,150 100,150 C130.927946,150 156,124.927946 156,94 L156,94 L156,102 C156,132.927946 130.927946,158 100,158 C69.072054,158 44,132.927946 44,102 Z" id="circle_Neck-Shadow" fill-opacity="0.100000001" fill="#000000" mask="url(#circle_mask-6)" />
            </g>
            <g id="circle_Clothing" transform="translate(0.000000, 170.000000)">
                
            <defs>
        <path d="M83,36.3476251 C83,52.6289957 105.161905,65.8276544 132.5,65.8276544 C159.838095,65.8276544 182,52.6289957 182,36.3476251 C182,34.9853134 181.844841,33.6445843 181.544472,32.3313638 C210.784239,41.4879251 232,68.792221 232,101.051724 L232,110 L32,110 L32,101.051724 C32,68.3970853 53.7386736,40.8197864 83.5337207,32.0021267 C83.1821692,33.4207025 83,34.871494 83,36.3476251 Z" id="shirt_scoop_neck_path-1" />
    </defs>
    <g id="shirt_scoop_neck_Clothing/Shirt-Scoop-Neck" stroke="none" stroke-width="1" fill="none" fill-rule="evenodd">
        <mask id="shirt_scoop_neck_mask-2" fill="white">
            <use xlink:href="#shirt_scoop_neck_path-1" />
        </mask>
        <use id="shirt_scoop_neck_Clothes" fill="#E6E6E6" xlink:href="#shirt_scoop_neck_path-1" />
        <g id="shirt_scoop_neck_Fabric-Color" mask="url(#shirt_scoop_neck_mask-2)" fill="#262E33">
            <rect id="shirt_scoop_neck_ðŸ–Color" x="0" y="0" width="264" height="110" />
        </g>
    </g>
</g>
            <g id="circle_Face" transform="translate(76.000000, 82.000000)" fill="#000000">
                <g id="circle_Mouth" transform="translate(2.000000, 52.000000)">    
                    
                <g id="twinkle_Mouth/Twinkle" stroke="none" stroke-width="1" fill="none" fill-rule="evenodd" fill-opacity="0.599999964">
        <path d="M40,16 C40,21.371763 46.1581544,25 54,25 C61.8418456,25 68,21.371763 68,16 C68,14.8954305 67.050301,14 66,14 C64.7072748,14 64.1302316,14.9051755 64,16 C62.7575758,18.9378973 59.6832595,20.7163149 54,21 C48.3167405,20.7163149 45.2424242,18.9378973 44,16 C43.8697684,14.9051755 43.2927252,14 42,14 C40.949699,14 40,14.8954305 40,16 Z" id="twinkle_Mouth" fill="#000000" fill-rule="nonzero" />
    </g>
</g>
                <g id="circle_Nose" transform="translate(28.000000, 40.000000)" fill-opacity="0.16">
                    
                <g id="default_Nose/Default" stroke="none" stroke-width="1" fill="none" fill-rule="evenodd" fill-opacity="0.16">
        <path d="M16,8 C16,12.418278 21.372583,16 28,16 L28,16 C34.627417,16 40,12.418278 40,8" id="default_Nose" fill="#000000" />
    </g>
</g>
                <g id="circle_Eyes" transform="translate(0.000000, 8.000000)">
                    
                <g id="wink_Eyes/Wink-ðŸ˜‰" stroke="none" stroke-width="1" fill="none" fill-rule="evenodd" fill-opacity="0.599999964">
        <circle id="wink_Eye" fill="#000000" cx="30" cy="22" r="6" />
        <path d="M70.4123979,24.204889 C72.2589064,20.4060854 76.4166529,17.7575774 81.2498107,17.7575774 C86.065907,17.7575774 90.2113521,20.3874194 92.0675822,24.1647016 C92.618991,25.2867751 91.8343342,26.2050591 91.0428374,25.5246002 C88.5917368,23.4173607 85.1109468,22.1013658 81.2498107,22.1013658 C77.5094365,22.1013658 74.1259889,23.3363293 71.6897696,25.3292186 C70.7990233,26.0578718 69.8723316,25.3159619 70.4123979,24.204889 Z" id="wink_Winky-Wink" fill="#000000" transform="translate(81.252230, 21.757577) rotate(-4.000000) translate(-81.252230, -21.757577) " />
    </g>
</g>
                <g id="circle_Eyebrow" fill-opacity="0.599999964">
                    
                <g id="up_down_natural_Eyebrow/Natural/Up-Down-Natural" stroke="none" stroke-width="1" fill="none" fill-rule="evenodd" fill-opacity="0.599999964">
        <path d="M22.7663531,1.57844898 L23.6772984,1.17582144 C28.9190996,-0.905265751 36.8645466,-0.0328729562 41.7227321,2.29911638 C42.2897848,2.57148957 41.9021563,3.4519421 41.3211012,3.40711006 C26.4021788,2.25602197 16.3582869,11.5525942 12.9460869,17.8470939 C12.8449215,18.0337142 12.5391523,18.05489 12.4635344,17.8808353 C10.156283,12.5620676 16.9134476,3.89614725 22.7663531,1.57844898 Z" id="up_down_natural_Eye-Browse-Reddit" fill="#000000" />
        <path d="M86.535177,12.0246305 C92.3421916,12.2928751 101.730304,16.5124899 101.488432,22.3684172 C101.480419,22.5600881 101.1989,22.6442368 101.06135,22.496811 C98.306449,19.5374968 78.7459953,16.5471364 71.8564209,18.1317995 C71.2258949,18.2770375 70.7468448,17.6550104 71.1462176,17.2056651 C74.5683263,13.3574126 81.3327077,11.7792465 86.535177,12.0246305 Z" id="up_down_natural_Eyebrow" fill="#000000" transform="translate(86.246508, 17.285912) rotate(5.000000) translate(-86.246508, -17.285912) " />
    </g>
</g>
            </g>
            <g id="circle_Top">
                
            <defs>
    <path d="M98 181L98 162.611C115.531 154.283 128.048 137.115 129.791 116.867C135.569 116.002 140 111.019 140 105L140 92C140 87.3575 137.364 83.3307 133.506 81.3351C132.73 81.0525 131.955 80.7493 131.18 80.4259C130.794 80.3201 130.4 80.2331 130 80.1659L130 79.917C117.224 74.2337 104.878 63.0705 96.1104 47.8848C93.1753 42.801 90.8311 37.5951 89.0661 32.397C80.4314 42.9409 67.7445 53.6024 52.3415 62.4953C42.7776 68.0171 33.1468 72.291 24 75.266L24 137.246C29.6015 148.318 38.7726 157.277 50 162.611L50 181L46 181C38.3272 181 30.9347 182.2 24 184.423L24 230C24 244.106 13.5692 255.776 0 257.716L0 74C0 68.8914 0.51767 63.9036 1.50342 59.0864C8.40364 25.3659 38.2396 0 74 0C114.869 0 148 33.1309 148 74L148 197.608C135.525 187.237 119.491 181 102 181L98 181Z" id="straight_2_path_1" />
    <clipPath id="straight_2_mask_1">
      <use xlink:href="#straight_2_path_1" />
    </clipPath>
  </defs>
  <g id="straight_2_TopLong-HairStraight-2" transform="translate(-1 0)">
    <g id="straight_2_Hair" transform="translate(59 18)">
      <path d="M98 181L98 162.611C115.531 154.283 128.048 137.115 129.791 116.867C135.569 116.002 140 111.019 140 105L140 92C140 87.3575 137.364 83.3307 133.506 81.3351C132.73 81.0525 131.955 80.7493 131.18 80.4259C130.794 80.3201 130.4 80.2331 130 80.1659L130 79.917C117.224 74.2337 104.878 63.0705 96.1104 47.8848C93.1753 42.801 90.8311 37.5951 89.0661 32.397C80.4314 42.9409 67.7445 53.6024 52.3415 62.4953C42.7776 68.0171 33.1468 72.291 24 75.266L24 137.246C29.6015 148.318 38.7726 157.277 50 162.611L50 181L46 181C38.3272 181 30.9347 182.2 24 184.423L24 230C24 244.106 13.5692 255.776 0 257.716L0 74C0 68.8914 0.51767 63.9036 1.50342 59.0864C8.40364 25.3659 38.2396 0 74 0C114.869 0 148 33.1309 148 74L148 197.608C135.525 187.237 119.491 181 102 181L98 181Z" id="straight_2_Mask-Hair" fill="#944F23" fill-rule="evenodd" stroke="none" />
      <g clip-path="url(#straight_2_mask_1)">
        <g id="straight_2_Hair-Color" transform="translate(-58 -18)" fill="#ECDCBF">
          <path d="M0 0L264 0L264 280L0 280L0 0Z" id="straight_2_Color" fill="#A55728" fill-rule="evenodd" stroke="none" />
        </g>
      </g>
    </g>
    <path d="M76.3259 181L76.3259 162.611C93.8567 154.283 106.374 137.115 108.117 116.867C113.895 116.002 118.326 111.019 118.326 105L118.326 92C118.326 87.3575 115.69 83.3307 111.832 81.3351C116.7 83.1077 121.589 84.072 126.326 84.1482L126.326 197.608C113.851 187.237 97.8168 181 80.3259 181L76.3259 181ZM2.3259 184.423C9.26058 182.2 16.6531 181 24.3259 181L28.3259 181L28.3259 162.611C17.0985 157.277 7.92744 148.318 2.3259 137.246L2.3259 184.423ZM108.326 79.917L108.326 80.1659C108.726 80.2331 109.12 80.3201 109.506 80.4259C109.112 80.2615 108.719 80.0919 108.326 79.917Z" transform="translate(80.674095 18)" id="straight_2_Shadow" fill="#000000" fill-opacity="0.23921569" fill-rule="evenodd" stroke="none" />
    <g id="straight_2_Facial-Hair" transform="translate(49 72)"><defs>
        <path d="M64.7214121,63.4643353 C71.8381194,62.1698595 81.796173,63.6461901 84.1074639,67.092174 L83.998,66.939 L84.010445,66.9215199 C86.5309935,63.5977488 96.2765075,62.1914341 103.274279,63.4643353 C112.927938,65.2207224 117.019147,75.7669804 115.780485,77.6791014 C114.655476,79.4153191 111.53642,77.7739966 109.119711,77.6298353 C104.118941,77.3322546 94.948229,81.5102869 86.0463327,76.6891498 C85.2347477,76.2495714 84.5386341,75.6083797 83.9975585,74.8390687 C83.4573866,75.6083797 82.7612729,76.2495714 81.949688,76.6891498 C73.0477917,81.5102869 63.8767499,77.3322546 58.8763101,77.6298353 C56.459601,77.7739966 53.3405442,79.4153191 52.2155358,77.6791014 C50.9768736,75.7669804 55.0680827,65.2207224 64.7214121,63.4643353 Z" id="moustache_magnum_path-1" />
    </defs>
    <g id="moustache_magnum_Facial-Hair/Moustache-Magnum" stroke="none" stroke-width="1" fill="none" fill-rule="evenodd">
        <mask id="moustache_magnum_mask-2" fill="white">
            <use xlink:href="#moustache_magnum_path-1" />
        </mask>
        <use id="moustache_magnum_Hey..." fill="#28354B" xlink:href="#moustache_magnum_path-1" />
        <g id="moustache_magnum_Facial-Hair-Color" mask="url(#moustache_magnum_mask-2)" fill="#C93305">
            <rect id="moustache_magnum_Color" x="0" y="0" width="168" height="152" />
        </g>
    </g>
</g>
    <g id="straight_2_Accessory" transform="translate(62 85)"><defs>
        <path d="M102,3 C110.919724,3 118.702944,7.86594657 122.839966,15.0881434 C123.049977,15.0306809 123.271405,15 123.5,15 L131.5,15 C132.880712,15 134,16.1192881 134,17.5 C134,18.8807119 132.880712,20 131.5,20 L124.963112,19.9999542 C125.63735,22.2145597 126,24.5649291 126,27 C126,40.254834 115.254834,51 102,51 C88.745166,51 78,40.254834 78,27 C78,25.5817328 78.1230214,24.1921987 78.3589754,22.8414867 C78.2814883,18.460693 74.9167538,15 70.8624171,15 C67.1244063,15 63.9725878,17.9417418 63.4412238,21.8340095 C63.8076631,23.4981856 64,25.2266315 64,27 C64,40.254834 53.254834,51 40,51 C26.745166,51 16,40.254834 16,27 C16,24.5649291 16.3626501,22.2145597 17.0368877,19.9999542 L10.5,20 C9.11928813,20 8,18.8807119 8,17.5 C8,16.1192881 9.11928813,15 10.5,15 L18.5,15 C18.7285947,15 18.9500235,15.0306809 19.1603931,15.0881495 C23.2970555,7.86594657 31.0802764,3 40,3 C49.3522436,3 57.4550935,8.34929022 61.4157763,16.1550973 C63.492635,13.0394413 66.9492812,11 70.8624171,11 C74.874933,11 78.4074783,13.1443461 80.4650049,16.3947271 C84.3793874,8.45920672 92.5521607,3 102,3 Z M40,7 C28.954305,7 20,15.954305 20,27 C20,38.045695 28.954305,47 40,47 C51.045695,47 60,38.045695 60,27 C60,15.954305 51.045695,7 40,7 Z M102,7 C90.954305,7 82,15.954305 82,27 C82,38.045695 90.954305,47 102,47 C113.045695,47 122,38.045695 122,27 C122,15.954305 113.045695,7 102,7 Z" id="round_path-1" />
        <filter x="-0.8%" y="-2.1%" width="101.6%" height="108.3%" filterUnits="objectBoundingBox" id="round_filter-2">
            <feOffset dx="0" dy="2" in="SourceAlpha" result="shadowOffsetOuter1" />
            <feColorMatrix values="0 0 0 0 0   0 0 0 0 0   0 0 0 0 0  0 0 0 0.1 0" type="matrix" in="shadowOffsetOuter1" />
        </filter>
    </defs>
    <g id="round_Top/_Resources/Round" stroke="none" stroke-width="1" fill="none" fill-rule="evenodd">
        <g id="round_Lennon-Glasses">
            <use fill="black" fill-opacity="1" filter="url(#round_filter-2)" xlink:href="#round_path-1" />
            <use fill="#252C2F" fill-rule="evenodd" xlink:href="#round_path-1" />
        </g>
    </g>
</g>
  </g>
</g>
        </g>
    </g>
</svg>