<svg xmlns="http://www.w3.org/2000/svg" xmlns:xlink="http://www.w3.org/1999/xlink" width="264px" height="280px" viewBox="0 0 264 280" version="1.1">
    <title>Avataaar/Default</title>
    <desc>Created with python_avataaars</desc>
    <defs>
        <path d="M100,0 C130.927946,-5.68137151e-15 156,25.072054 156,56 L156.000809,62.1660527 C161.675838,63.1185422 166,68.05429 166,74 L166,88 C166,94.0524166 161.519235,99.0582945 155.693975,99.8813638 C153.627928,119.686472 141.237929,136.421678 124.001014,144.610469 L124,163 L128,163 C167.764502,163 200,195.235498 200,235 L200,244 L0,244 L0,235 C-4.86974701e-15,195.235498 32.235498,163 72,163 L76,163 L75.9999836,144.610943 C58.7625487,136.422324 46.3721119,119.686854 44.3051107,99.8809698 C38.480765,99.0582945 34,94.0524166 34,88 L34,74 C34,68.053942 38.3246685,63.1179645 44.0001873,62.1658855 L44,56 C44,25.072054 69.072054,5.68137151e-15 100,0 Z" id="transparent_path-1" />
        <path d="M83,36.3476251 C83,52.6289957 105.161905,65.8276544 132.5,65.8276544 C159.838095,65.8276544 182,52.6289957 182,36.3476251 C182,34.9853134 181.844841,33.6445843 181.544472,32.3313638 C210.784239,41.4879251 232,68.792221 232,101.051724 L232,110 L32,110 L32,101.051724 C32,68.3970853 53.7386736,40.8197864 83.5337207,32.0021267 C83.1821692,33.4207025 83,34.871494 83,36.3476251 Z" id="transparent_path-3" />
        <rect id="transparent_path-5" x="0" y="0" width="264" height="280" />
        <path d="M74,0 C114.869071,0 148,33.1309285 148,74 L148,84.1482318 L148,197.608051 C135.525121,187.236892 119.490913,181 102,181 L102,181 L98,181 L98,162.610951 C115.530782,154.282984 128.048193,137.114792 129.791419,116.867187 C135.569129,116.002364 140,111.018625 140,105 L140,105 L140,92 C140,87.3536213 137.359271,83.3240177 133.496777,81.3301515 C132.723933,81.0500337 131.951808,80.748163 131.180891,80.4262497 C130.794819,80.3202581 130.400778,80.2331546 130,80.1659169 L130,80.1659169 L130.000458,79.9172528 C117.224481,74.2339715 104.877985,63.0706967 96.1104311,47.8848473 C93.1752556,42.8009742 90.8310687,37.5951441 89.0661426,32.3970356 C80.4313947,42.9409152 67.7445474,53.6023901 52.3415164,62.4953343 C42.777598,68.0170651 33.1467898,72.2910056 24,75.2659587 L24.0003852,137.246608 C29.6019576,148.318362 38.7728825,157.277529 50,162.610951 L50,162.610951 L50,181 L46,181 C38.3273639,181 30.9350359,182.200142 24.0004995,184.422941 L24,230 C24,244.105888 13.5691766,255.775526 0,257.716445 L0,74 C0,33.1309285 33.1309285,0 74,0 Z" id="transparent_path-7" />
    </defs>
    <g id="transparent_Avataaar/Default" stroke="none" stroke-width="1" fill="none" fill-rule="evenodd">
        <g id="transparent_Body" transform="translate(32.000000, 36.000000)">
            <mask id="transparent_mask-2" fill="white">
                <use xlink:href="#transparent_path-1" />
            </mask>
            <use fill="#D0C6AC" xlink:href="#transparent_path-1" />
            <g id="transparent_Skin-Color" mask="url(#transparent_mask-2)" fill="#F8D25C">
                <g transform="translate(-32.000000, 0.000000)" id="transparent_Color">
                    <rect x="0" y="0" width="264" height="244" />
                </g>
            </g>
            <path d="M44,94 C44,124.927946 69.072054,150 100,150 C130.927946,150 156,124.927946 156,94 L156,94 L156,102 C156,132.927946 130.927946,158 100,158 C69.072054,158 44,132.927946 44,102 Z" id="transparent_Neck-Shadow" fill-opacity="0.100000001" fill="#000000" mask="url(#transparent_mask-2)" />
        </g>
        <g id="transparent_Clothing" transform="translate(0.000000, 170.000000)">
            
        <defs>
        <path d="M232,101.051724 L232,110 L32,110 L32,101.051724 C32,65.1384292 58.2938256,35.3663869 92.6806879,29.9363855 C93.5844961,35.0070695 96.1171239,39.8245023 100.236125,43.5389794 L100.236125,43.5389794 L129.321203,69.7676333 C130.843316,71.1402598 133.156684,71.1402598 134.678797,69.7676333 L134.678797,69.7676333 L163.763875,43.5389794 C164.189462,43.1551884 164.601167,42.7562772 164.998197,42.3430127 C168.413626,38.7879269 170.516642,34.4534098 171.319249,29.9385703 C205.706684,35.3669637 232,65.1387771 232,101.051724 Z" id="shirt_v_neck_path-1" />
    </defs>
    <g id="shirt_v_neck_Clothing/Shirt-V-Neck" stroke="none" stroke-width="1" fill="none" fill-rule="evenodd">
        <mask id="shirt_v_neck_mask-2" fill="white">
            <use xlink:href="#shirt_v_neck_path-1" />
        </mask>
        <use id="shirt_v_neck_Clothes" fill="#E6E6E6" xlink:href="#shirt_v_neck_path-1" />
        <g id="shirt_v_neck_Fabric-Color" mask="url(#shirt_v_neck_mask-2)" fill="#3C4F5C">
            <rect id="shirt_v_neck_ðŸ–Color" x="0" y="0" width="264" height="110" />
        </g>
    </g>
</g>
        <g id="transparent_Face" transform="translate(76.000000, 82.000000)" fill="#000000">
            <g id="transparent_Mouth" transform="translate(2.000000, 52.000000)">    
                
            <defs>
        <path d="M34.0082051,12.6020819 C35.1280248,23.0929366 38.2345159,31.9944054 53.9961505,31.9999965 C69.757785,32.0055894 72.9169073,23.0424631 73.9942614,12.5047938 C74.0809675,11.6567158 73.1738581,10.9999965 72.0369872,10.9999965 C65.3505138,10.9999965 62.6703194,12.4951994 53.9894323,12.4999965 C45.3085452,12.5047938 40.7567994,10.9999965 36.0924943,10.9999965 C34.9490269,10.9999965 33.8961688,11.5524868 34.0082051,12.6020819 Z" id="vomit_path-1" />
        <path d="M66,25 C69.3137085,25 72,27.6862915 72,31 L72,36 C72,39.3137085 69.3137085,42 66,42 C62.6862915,42 60,39.3137085 60,36 L59.9170737,36.0001915 C59.4410745,33.1623839 56.9730632,31 54,31 C51.0269368,31 48.5589255,33.1623839 48.0829263,36.0001915 L48,36 L48,38 C48,41.3137085 45.3137085,44 42,44 C38.6862915,44 36,41.3137085 36,38 L36,31 C36,27.6862915 38.6862915,25 42,25 L66,25 Z" id="vomit_path-3" />
        <filter x="-1.4%" y="-2.6%" width="102.8%" height="105.3%" filterUnits="objectBoundingBox" id="vomit_filter-4">
            <feOffset dx="0" dy="-1" in="SourceAlpha" result="shadowOffsetInner1" />
            <feComposite in="shadowOffsetInner1" in2="SourceAlpha" operator="arithmetic" k2="-1" k3="1" result="shadowInnerInner1" />
            <feColorMatrix values="0 0 0 0 0   0 0 0 0 0   0 0 0 0 0  0 0 0 0.1 0" type="matrix" in="shadowInnerInner1" />
        </filter>
    </defs>
    <g id="vomit_Mouth/Vomit" stroke="none" stroke-width="1" fill="none" fill-rule="evenodd">
        <mask id="vomit_mask-2" fill="white">
            <use xlink:href="#vomit_path-1" />
        </mask>
        <use id="vomit_Mouth" fill-opacity="0.699999988" fill="#000000" transform="translate(54.000000, 21.499998) scale(1, -1) translate(-54.000000, -21.499998) " xlink:href="#vomit_path-1" />
        <path d="M44,0 L65,0 C67.7614237,-5.07265313e-16 70,2.23857625 70,5 L70,11 C70,13.7614237 67.7614237,16 65,16 L44,16 C41.2385763,16 39,13.7614237 39,11 L39,5 C39,2.23857625 41.2385763,5.07265313e-16 44,0 Z" id="vomit_Teeth" fill="#FFFFFF" mask="url(#vomit_mask-2)" />
        <g id="vomit_Vomit-Stuff">
            <use fill="#88C553" fill-rule="evenodd" xlink:href="#vomit_path-3" />
            <use fill="black" fill-opacity="1" filter="url(#vomit_filter-4)" xlink:href="#vomit_path-3" />
        </g>
    </g>
</g>
            <g id="transparent_Nose" transform="translate(28.000000, 40.000000)" fill-opacity="0.16">
                
            <g id="default_Nose/Default" stroke="none" stroke-width="1" fill="none" fill-rule="evenodd" fill-opacity="0.16">
        <path d="M16,8 C16,12.418278 21.372583,16 28,16 L28,16 C34.627417,16 40,12.418278 40,8" id="default_Nose" fill="#000000" />
    </g>
</g>
            <g id="transparent_Eyes" transform="translate(0.000000, 8.000000)">
                
            <g id="surprised_Eyes/Surprised-ðŸ˜³" stroke="none" stroke-width="1" fill="none" fill-rule="evenodd">
        <circle id="surprised_The-White-Stuff" fill="#FFFFFF" cx="30" cy="22" r="14" />
        <circle id="surprised_Eye-Ball" fill="#FFFFFF" cx="82" cy="22" r="14" />
        <circle id="surprised_Eye" fill-opacity="0.699999988" fill="#000000" cx="30" cy="22" r="6" />
        <circle id="surprised_Eye" fill-opacity="0.699999988" fill="#000000" cx="82" cy="22" r="6" />
    </g>
</g>
            <g id="transparent_Eyebrow" fill-opacity="0.599999964">
                
            <g id="flat_natural_Eyebrow/Natural/Flat-Natural" stroke="none" stroke-width="1" fill="none" fill-rule="evenodd" fill-opacity="0.599999964">
        <path d="M38.5686071,10.7022978 C33.5865557,11.2384494 28.6553385,11.1338998 23.6562444,11.1010606 C19.8231061,11.0762636 15.91974,10.6892291 12.3246118,12.5091287 C11.6361455,12.8572921 7.8767609,14.9449324 8.00311195,16.0108688 C8.10389896,16.8633498 12.0128479,18.0636592 12.7165939,18.2838164 C16.4280826,19.4452548 19.9241869,18.9282036 23.6870976,18.5703225 C28.3024371,18.1316834 32.9139567,18.1745756 37.5322346,17.8739956 C40.6422336,17.6719334 45.4224171,16.9769469 46.8293214,13.1484895 C47.2530382,11.9954284 46.8152171,9.73353891 46.3074622,8.50642195 C46.1050066,8.01751871 45.5634602,7.84963624 45.1688335,8.14921095 C43.7560524,9.22218432 40.9851444,10.4425994 38.5686071,10.7022978" id="flat_natural_Fill-10" fill="#000000" transform="translate(27.500000, 13.500000) rotate(2.000000) translate(-27.500000, -13.500000) " />
        <path d="M95.5686071,10.7022978 C90.5865557,11.2384494 85.6553385,11.1338998 80.6562444,11.1010606 C76.8231061,11.0762636 72.91974,10.6892291 69.3246118,12.5091287 C68.6361455,12.8572921 64.8767609,14.9449324 65.003112,16.0108688 C65.103899,16.8633498 69.0128479,18.0636592 69.7165939,18.2838164 C73.4280826,19.4452548 76.9241869,18.9282036 80.6870976,18.5703225 C85.3024371,18.1316834 89.9139567,18.1745756 94.5322346,17.8739956 C97.6422336,17.6719334 102.422417,16.9769469 103.829321,13.1484895 C104.253038,11.9954284 103.815217,9.73353891 103.307462,8.50642195 C103.105007,8.01751871 102.56346,7.84963624 102.168833,8.14921095 C100.756052,9.22218432 97.9851444,10.4425994 95.5686071,10.7022978" id="flat_natural_Fill-10" fill="#000000" transform="translate(84.500000, 13.500000) scale(-1, 1) rotate(2.000000) translate(-84.500000, -13.500000) " />
    </g>
</g>
        </g>
        <g id="transparent_Top">
            
        <defs>
        <path d="M88.4018873,0.357013447 C93.5645254,-0.846479064 97.6906135,2.53871192 102.06293,4.16059373 C108.488235,6.54355423 112.508874,5.8486563 118.817859,3.85507435 C123.056462,2.51559399 125.824219,1.61762086 129.78996,3.93032097 C132.352254,5.42437419 134.324254,9.87616325 137.446405,10.3027118 C141.249081,10.823092 146.585112,7.26247669 150.804147,7.39438491 C156.999935,7.58906085 160.136024,11.3258109 162.738984,15.4450948 L163.055221,15.951194 C164.553244,18.373591 165.399552,17.9706136 167.213378,19.672275 C168.829352,21.1885396 169.557166,23.1372455 171.278589,24.7101717 C177.590835,30.4783232 185.862036,34.9554966 192.648801,40.3918378 C205.315147,50.5387982 208.309564,64.2703984 209.129238,78.2191259 C209.78639,89.3991407 208.763972,102.531035 215.871976,112.532035 C219.523001,117.668749 223.561578,121.532617 225.582497,127.51291 C226.321725,129.699141 227.944765,133.306899 226.413041,135.494944 C224.604107,138.079166 220.053506,138.105004 218.096726,135.636824 C216.20028,141.510593 222.669068,149.991702 226.135287,154.862787 C230.969077,161.653567 237.232404,168.863643 238.377664,176.915484 C238.833159,180.113465 239.08591,193.151981 230.835907,188.347077 C230.56685,192.711833 229.869476,193.331485 231.17617,197.553001 C232.061613,200.411919 233.255792,206.168285 227.311529,205.648358 C229.568892,211.82266 233.19274,220.412559 229.795009,226.807615 C224.207315,237.325369 217.902135,224.075166 216.224196,219.322843 C216.32584,222.602417 212.799287,228.512903 208.385661,223.95323 C208.733533,229.366 210.898493,237.730613 207.724704,242.806586 C201.565196,252.659813 194.748535,240.185647 194.5197,234.910224 C193.409228,238.475373 194.245208,247.046687 186.927937,245.060811 C180.603189,243.344644 182.888817,234.970512 184.111805,231.19141 C182.101213,234.747946 179.630235,240.043766 179.240509,244.059941 C178.905139,247.513126 182.182202,255.630241 173.685972,254.109896 C167.166089,252.943574 166.932906,243.218176 167.044334,238.930932 C167.135107,235.453723 170.498594,227.504326 168.22112,224.674872 C155.493353,230.015568 168.828809,247.982737 157.268587,251.977153 C153.73062,253.199684 150.944383,251.382887 149.488756,248.789145 C149.308297,248.305028 149.128382,247.821818 148.948467,247.337701 C149.350151,245.644199 148.591355,244.77569 146.671536,244.732627 C145.455615,243.254893 144.65714,243.298862 143.870623,241.081807 C141.557817,234.561189 146.062216,225.891963 149.2996,220.076669 C145.947527,223.133676 143.247171,227.332528 139.609734,229.99245 C137.149083,231.79157 133.524148,232.304244 131.224932,229.817026 C128.707208,227.093643 131.086326,224.482676 132.444114,221.999991 C135.443967,216.514694 140.170678,213.319433 145.111547,208.917959 C149.430596,205.07041 153.280561,200.738743 157.112045,196.551224 C159.6692,193.757249 162.112943,190.752253 164.163084,187.578534 C158.297445,185.962645 152.132367,185.070649 145.769448,185.004027 L145,185 L140.999825,184.999552 L141.001014,166.610469 C152.098298,161.338451 161.186582,152.524026 166.80455,141.628513 C167.218972,128.654375 168.700101,107.042699 167.747424,95.0917937 C166.476604,79.1499376 166.355804,70.2471725 155.554378,56.4493915 C146.671683,45.1030183 122.400941,48.8499369 113.317676,38.4387068 C109.194306,43.2191332 103.17612,45.7598396 96.5828586,47.4293172 C90.0678681,49.0779432 83.5224388,49.3467459 79.1631677,53.9925443 C71.3610508,62.3068417 67.9263583,67.8722634 65.5369124,78.2476834 C62.8887367,89.7481762 62.1957105,101.145772 63.000708,112.826222 C63.6115721,121.689531 63.4466856,131.018992 66.2134811,139.62917 C71.721767,151.445375 81.2311772,161.020188 92.9999836,166.610943 L92.9998254,184.999552 L89,185 C87.9000018,185 86.8057651,185.024668 85.7178128,185.07348 C86.3887794,188.511296 86.8096772,192.004115 86.5299011,195.413459 C86.1200644,200.404213 85.1851583,205.067237 85.6835937,210.116466 C86.7201436,220.618354 91.0924599,230.599863 94.7010885,240.623528 C96.435013,245.438857 104.057505,251.106306 100.930715,255.083614 C97.8039252,259.060923 87.115848,249.613685 84.725315,245.034067 C82.2918416,240.371497 80.078506,235.625521 77.5455629,230.999667 C79.1724081,238.077382 79.9846038,241.070655 81.6679782,248.139757 C82.5468986,251.830921 86.9474795,260.885627 80.0666799,262.354749 C71.124195,264.264472 70.7774101,249.766172 69.8925107,245.444931 C68.4211208,238.262053 66.7870774,235.472308 64.3834993,228.474826 C63.9046317,233.818695 64.7346326,239.386945 63.5785017,244.677325 C62.8816706,247.867147 59.2224919,250.505765 57.0243756,253.211017 C49.4918595,262.485842 47.6992316,246.926565 45.7886533,242.659719 C42.4838692,245.061265 35.2888976,249.820386 30.8812505,246.798736 C27.6264731,244.567629 29.6941373,240.525616 30.4502154,237.765516 C31.668311,233.320073 32.3923196,228.923586 29.1359115,224.896532 C26.0490909,227.900051 19.2177543,229.649308 15.258536,226.778604 C10.2513533,223.149088 14.6426939,217.842389 16.8870119,214.076432 C20.5407551,207.947459 20.7005588,201.806248 21.5686081,195.131511 C21.691994,194.184582 21.8735397,193.288422 21.996382,192.265793 C22.3024007,189.72146 23.6232272,184.435613 22.6269,182.014575 C21.5278419,179.343321 20.328227,179.316576 17.8920358,179.924895 C14.443211,180.786605 11.6020751,182.715366 11.0188459,185.502664 C10.1763434,189.527451 14.5872518,191.114429 14.9476254,194.622463 C15.7238148,202.173415 6.24484612,198.627758 3.42490864,195.240301 C-0.684329469,190.304395 -0.815325022,184.841763 1.54639979,179.227278 C2.81124068,176.221946 4.80389503,173.548878 6.77100254,170.849066 C9.32731826,167.341033 10.0942673,166.919017 9.65073052,163.202016 C8.88486854,156.786109 7.14822625,151.019317 7.77222166,144.475128 C8.40763163,137.818976 10.4144183,131.887186 13.4023127,125.704271 C15.6553275,121.042608 19.8145722,116.686464 21.5539323,111.946834 C23.0198867,107.95151 22.6997357,103.444873 23.4503783,99.3303337 C24.4238764,93.9946236 26.0170215,88.7645307 26.9622549,83.4183949 C28.8027153,73.0171372 33.1206766,63.0274694 37.9642508,53.3460408 C40.5678554,48.1435988 42.992632,42.8881215 46.5441878,38.0655389 C48.3677981,35.5901066 50.3582782,33.0471337 52.7922952,30.954734 C55.0219374,29.0377585 59.0317058,28.154744 60.95696,26.3007763 C64.5237352,22.8666297 61.397779,16.8074642 65.9103313,12.9118655 C68.7020041,10.5017074 71.6083661,9.9681817 75.2887432,9.38026087 C78.8865008,8.80593884 77.6972133,9.66084915 80.1584078,7.07481345 C82.5435053,4.56991717 84.3524397,1.30167574 88.4018873,0.357013447 Z" id="dreads_path-1" />
    </defs>
    <g id="dreads_Top/Long-Hair/Dreads" stroke="none" stroke-width="1" fill="none" fill-rule="evenodd">
        <g id="dreads_template-for-hairstyles" transform="translate(63.000000, 87.000000)" />
        <g id="dreads_Facial-Hair" transform="translate(49.000000, 72.000000)"><defs>
        <path d="M101.428403,98.1685688 C98.9148372,100.462621 96.23722,101.494309 92.8529444,100.772863 C92.2705777,100.648833 89.8963391,96.2345713 83.9998344,96.2345713 C78.1033297,96.2345713 75.7294253,100.648833 75.1467245,100.772863 C71.7624488,101.494309 69.0848316,100.462621 66.5712661,98.1685688 C61.8461772,93.855604 57.9166219,87.9081858 60.2778299,81.4191814 C61.5083844,78.0369425 63.5097479,74.3237342 67.1506257,73.2459109 C71.0384163,72.0955419 76.4968931,73.2439051 80.4147542,72.4582708 C81.6840664,72.2035248 83.0706538,71.7508657 83.9998344,71 C84.929015,71.7508657 86.3159365,72.2035248 87.5845805,72.4582708 C91.5027758,73.2439051 96.9612525,72.0955419 100.849043,73.2459109 C104.489921,74.3237342 106.491284,78.0369425 107.722173,81.4191814 C110.083381,87.9081858 106.153826,93.855604 101.428403,98.1685688 M140.081033,26 C136.670693,34.4002532 137.987774,44.8580348 137.356666,53.6758724 C136.844038,60.8431942 135.33712,71.5857526 128.972858,76.214531 C125.718361,78.5816138 119.79436,82.5598986 115.54187,81.4501943 C112.614539,80.6863848 112.302182,72.290096 108.455284,69.1469801 C104.09172,65.5823153 98.6429854,64.0160432 93.1491481,64.2578722 C90.7785381,64.3622683 85.9841367,64.3374908 83.9999331,66.1604584 C82.0157295,64.3374908 77.2216647,64.3622683 74.8510547,64.2578722 C69.3568808,64.0160432 63.9081467,65.5823153 59.5445817,69.1469801 C55.6976839,72.290096 55.3856641,80.6863848 52.4583326,81.4501943 C48.2058427,82.5598986 42.2818421,78.5816138 39.0270077,76.214531 C32.6624096,71.5857526 31.1561652,60.8431942 30.642864,53.6758724 C30.0120926,44.8580348 31.3291729,34.4002532 27.9188335,26 C26.2597768,26 27.3540339,42.1288693 27.3540339,42.1288693 L27.3540339,62.4851205 C27.3856735,77.7732046 36.935095,100.655445 58.1080116,109.393004 C63.2861266,111.52982 75.0153111,115 83.9999331,115 C92.9845551,115 104.71374,111.860188 109.891855,109.723371 C131.064771,100.985813 140.614193,77.7732046 140.646169,62.4851205 L140.646169,42.1288693 C140.646169,42.1288693 141.740089,26 140.081033,26" id="beard_light_path-1" />
    </defs>
    <g id="beard_light_Facial-Hair/Beard-Light" stroke="none" stroke-width="1" fill="none" fill-rule="evenodd">
        <mask id="beard_light_mask-2" fill="white">
            <use xlink:href="#beard_light_path-1" />
        </mask>
        <use id="beard_light_Lite-Beard" fill="#331B0C" xlink:href="#beard_light_path-1" />
        <g id="beard_light_Facial-Hair-Color" mask="url(#beard_light_mask-2)" fill="#F59797">
            <rect id="beard_light_Color" x="0" y="0" width="168" height="152" />
        </g>
    </g>
</g>
        <g id="dreads_Hair" transform="translate(16.000000, 14.000000)">
            <mask id="dreads_mask-2" fill="white">
                <use xlink:href="#dreads_path-1" />
            </mask>
            <use id="dreads_No-Woman" fill="#8D5A5A" xlink:href="#dreads_path-1" />
            <g id="dreads_Hair-Color" mask="url(#dreads_mask-2)" fill="#A55728">
                <g transform="translate(-15.000000, -14.000000)" id="dreads_Color">
                    <rect x="0" y="0" width="264" height="280" />
                </g>
            </g>
            <path d="M166.874747,151.055581 C167.944997,159.099715 170.876362,166.366 169.515856,174.635875 C168.770911,179.167913 166.790066,183.511892 164.162906,187.57881 C158.297445,185.962645 152.132367,185.070649 145.769448,185.004027 L145,185 L140.999097,184.999749 L141.000016,166.610943 C151.902116,161.431916 160.86535,152.83403 166.504204,142.202798 C166.424645,145.19737 166.491855,148.177039 166.874747,151.055581 Z M92.9989864,166.610469 L92.9990974,184.999749 L89,185 C87.8999708,185 86.8057034,185.024669 85.7177207,185.073484 C85.3570328,183.222692 84.9233743,181.387328 84.4877837,179.589912 C81.4183567,166.92083 73.916823,156.341882 68.1617154,144.509125 C67.3860145,142.914197 66.7452351,141.284203 66.2129719,139.627585 C71.7209221,151.444347 81.2302134,161.019445 92.9989864,166.610469 Z" id="dreads_Shadows" fill-opacity="0.24" fill="#000000" mask="url(#dreads_mask-2)" />
            <path d="M157.46508,233.451204 C159.694179,233.451204 159.104971,238.478297 157.110686,237.557799 C155.95836,237.025805 155.467534,233.451204 157.46508,233.451204 Z M177.94561,226.161536 C180.42148,226.656078 177.248236,235.910694 175.395817,234.451885 C174.272299,233.567034 175.534966,225.679629 177.94561,226.161536 Z M201.455507,217.282881 C204.139014,217.282881 202.64099,228.383907 200.65051,227.481458 C199.226409,226.836207 199.135636,217.282881 201.455507,217.282881 Z M157.165041,224.736253 C158.337478,224.763778 158.009718,225.987499 157.216135,225.987499 C155.980645,225.987499 156.389939,224.742571 157.165041,224.736253 Z M59.986234,211.816206 C62.8012795,211.816206 61.4391432,223.102685 59.3225594,222.200687 C57.9560747,221.618156 57.6913658,211.816206 59.986234,211.816206 Z M50.212933,208.325849 C52.5931385,208.325849 51.8011861,217.379669 49.3503191,216.625673 C47.7729369,216.139704 47.9273051,208.325849 50.212933,208.325849 Z M31.4567613,213.932223 C32.3568801,214.276959 32.371556,214.644256 31.4991582,215.035467 C30.5990394,214.691634 30.5849071,214.323435 31.4567613,213.932223 Z M202.089015,202.950811 C204.808395,202.950811 203.051098,215.231344 201.187265,214.35281 C199.853937,213.724254 199.957212,202.941341 202.089015,202.950811 Z M166.332555,200.758587 C168.488275,201.725562 160.674743,213.163653 158.926686,212.377619 C156.998715,211.509915 164.551342,199.95631 166.332555,200.758587 Z M186.706295,193.384566 L186.754925,193.385172 C190.833725,194.199633 179.303942,211.738731 178.004314,210.020016 C177.339581,209.141316 185.185848,193.988173 186.650452,193.400346 L186.706295,193.384566 Z M216.80998,189.875503 C219.046145,194.283064 220.722996,198.746577 221.791072,203.446532 C221.927503,204.049819 223.845148,209.009228 221.128485,208.290879 C219.566322,207.878008 219.325529,203.506094 218.926564,202.180847 C217.697597,198.095009 213.646519,193.018282 213.294842,188.98659 C212.955123,185.090266 215.135302,186.575246 216.80998,189.875503 Z M34.3531219,198.516092 C37.0349977,198.516092 35.9484412,208.679924 33.8084848,207.654742 C32.3963419,206.978357 31.9555228,198.516092 34.3531219,198.516092 Z M49.3093354,187.8662 C50.8731288,191.768841 49.505557,197.898275 49.5898072,202.054956 C49.6110057,203.112626 48.4113908,203.129321 47.6107416,202.798574 C46.701926,202.423155 47.082411,199.293461 47.0465367,198.598576 C46.9334783,196.41149 45.0299661,187.926664 46.7611729,186.367683 C48.7353466,184.59031 48.7782871,186.540953 49.3093354,187.8662 Z M68.1928608,188.992366 C68.6054153,190.333405 72.8244505,200.071733 71.7639844,201.353211 C70.1425747,203.310623 69.6772959,200.536495 69.1467911,199.385872 C67.9689182,196.830588 64.9087316,190.540066 65.4006444,187.850317 C65.8784249,185.241788 67.775958,187.648619 68.1928608,188.992366 Z M33.3865269,185.392722 C33.4474045,186.856043 32.0651568,185.445967 31.7770753,185.438747 C31.6863025,185.43604 33.3087993,183.451554 33.3865269,185.392722 Z M29.29952,141.371402 C32.2645853,141.329473 34.0501471,179.106894 32.1210881,179.161518 C30.6611128,179.198041 27.2171799,141.400766 29.29952,141.371402 Z M58.6844317,170.628746 C58.6317074,173.476424 56.26346,174.943806 56.230847,171.730185 C56.215084,170.119764 58.7137834,168.720066 58.6844317,170.628746 Z M181.434114,170.746831 C182.308686,171.080286 182.322818,171.437656 181.476511,171.818489 C180.601939,171.485034 180.587263,171.127665 181.434114,170.746831 Z M208.425286,157.447168 C210.967469,157.447168 209.736329,170.785817 208.025233,170.015125 C206.370123,169.269251 206.274459,157.447168 208.425286,157.447168 Z M57.7950752,165.998415 C57.7863784,167.012316 56.722651,166.95095 55.9633116,166.68563 C55.0256879,166.358041 55.5996767,164.201639 55.5502136,163.49457 C55.4197616,161.635525 54.5272525,156.156756 55.8904759,154.62169 C58.6158357,151.553363 57.8059462,164.569838 57.7950752,165.998415 Z M187.023004,155.587221 C189.670093,156.113348 186.238118,166.132789 184.321017,164.602687 C183.16543,163.680835 184.490605,155.085459 187.023004,155.587221 Z M188.023082,96.7451491 C189.152035,105.213731 189.651014,113.824449 190.242397,122.33319 C190.352194,123.795609 191.311016,133.35074 189.717871,134.079016 C186.975661,135.332969 188.156795,129.428696 188.167666,128.666127 C188.274745,121.229044 187.19906,113.85423 186.381017,106.456855 C186.225562,105.052193 183.755671,94.2318284 185.564605,93.3352452 C188.272028,91.9937546 187.86817,95.5809897 188.023082,96.7451491 Z M52.5187808,122.883143 C53.7673152,122.883143 53.3536737,124.142962 52.5698745,124.148828 C51.3854791,124.119498 51.7148704,122.883143 52.5187808,122.883143 Z M51.7170446,104.962941 C51.7605286,106.500263 52.928074,118.098087 50.7897482,118.046818 C48.6579451,117.995659 49.4428313,109.828495 49.3607552,108.248307 C49.2357387,105.826133 47.3806025,97.711311 49.6885159,96.3093564 C52.2181977,94.7715832 51.6909542,104.01582 51.7170446,104.962941 Z M203.071753,101.471004 C204.839921,101.328868 209.831341,114.242012 208.249611,114.654432 C205.847663,115.273512 200.377376,101.688494 203.071753,101.471004 Z M37.5995831,84.0632577 C39.9509805,84.0632577 39.6063697,90.801845 37.0864719,90.1859235 C35.5754028,89.8168218 35.2318792,84.0632577 37.5995831,84.0632577 Z M43.1472813,69.9684372 L43.2540252,69.9805849 C45.7005438,70.4661025 40.6167205,83.4857354 38.693097,81.5359942 C37.4601152,80.2871211 40.8406343,70.2320447 43.0384053,69.9731332 L43.1472813,69.9684372 Z M175.668081,41.3306242 C177.959145,41.8698375 181.116083,48.6833281 182.149372,50.7413632 C182.743472,51.9235715 186.133593,57.2006425 182.541271,56.8270286 C181.563968,56.7259543 178.951667,50.0063184 178.139603,48.8435128 C177.531371,47.9735519 170.964743,40.2233192 175.668081,41.3306242 Z M70.6188876,41.486432 C68.6137316,43.3296843 61.07578,54.0047545 58.4928303,54.1116947 C53.7862308,54.3066237 62.7711125,45.0867526 63.7902688,43.9135688 C64.2452201,43.387441 66.275923,40.8222295 67.5119557,40.1914176 C68.7729918,39.5475202 72.9556091,39.3322861 70.6188876,41.486432 Z M155.04775,33.3564939 C155.922322,33.6904 155.936998,34.0473186 155.090147,34.4281522 C154.215575,34.0946972 154.201443,33.7373274 155.04775,33.3564939 Z M86.479514,19.5090896 C90.7371413,19.5090896 80.6358078,26.5179603 78.2392958,25.6588288 C74.3192131,24.2532644 84.8080977,19.5090896 86.479514,19.5090896 Z" id="dreads_Highlights" fill-opacity="0.300000012" fill="#FFFFFF" mask="url(#dreads_mask-2)" />
        </g>
        <g id="dreads_Accessory" transform="translate(62.000000, 85.000000)"><defs>
        <path d="M83.4984286,93.8410391 C72.1241067,94.2191416 67.0502492,99.7213834 63.2291365,94.1296214 C60.3611827,89.9323547 61.5611932,82.8739117 64.2409566,78.9027173 C68.0539313,73.2512381 73.2266239,75.9847769 79.010342,75.3400279 C80.5830033,75.1648137 82.1627854,74.7228407 83.4984286,74 C84.8340717,74.7228407 86.4135147,75.1648137 87.986176,75.3400279 C93.7702332,75.9847769 98.9425868,73.2512381 102.755901,78.9027173 C105.435325,82.8739117 106.635335,89.9323547 103.767382,94.1296214 C99.9462689,99.7213834 94.8727504,93.4629366 83.4984286,93.8410391 Z M138.719768,26 C135.335967,40.0748212 133.781202,54.4337754 131.327683,68.6711471 C130.816435,71.6390145 130.256705,74.5963095 129.662396,77.5496398 C129.537635,78.1697764 129.414569,80.4725746 128.810767,80.7643064 C126.981731,81.6484223 123.254159,76.9466834 122.257428,75.8851496 C119.754073,73.219256 117.272077,70.5292442 114.223231,68.437233 C108.062822,64.2102603 100.85042,61.7108818 93.3454397,61.117837 C90.2053971,60.8693859 85.9594573,61.3025234 83.0001146,63.1104016 C80.0407719,61.3025234 75.7948321,60.8693859 72.6544504,61.117837 C65.1494705,61.7108818 57.9370685,64.2102603 51.7766588,68.437233 C48.7278137,70.5292442 46.2461561,73.219256 43.742462,75.8851496 C42.7457307,76.9466834 39.018159,81.6484223 37.1891231,80.7643064 C36.5853209,80.4725746 36.4622551,78.1697764 36.3374942,77.5496398 C35.7431847,74.5963095 35.1834557,71.6390145 34.6722071,68.6711471 C32.2190276,54.4337754 30.6642623,40.0748212 27.2804612,26 C26.2959348,26 25.432101,44.7478165 25.3222572,46.4945731 C24.8750842,53.5889755 24.3529868,60.5254529 25.0201865,67.6261326 C26.1704958,79.8749043 27.3696246,95.2339402 36.5917624,104.58753 C44.9246396,113.039493 57.0232778,114.806417 67.4585647,120.141327 C68.8021178,120.828202 70.5843683,121.676306 72.5062968,122.37111 C74.5309497,123.934171 78.546353,125 83.1719999,125 C88.024115,125 92.2046231,123.827456 94.1201102,122.137856 C95.8006534,121.49261 97.3452479,120.752874 98.5413255,120.141327 C108.975814,114.805245 121.075251,113.039493 129.408128,104.58753 C138.630266,95.2339402 139.829394,79.8749043 140.980043,67.6261326 C141.646903,60.5254529 141.124806,53.5889755 140.677972,46.4945731 C140.567789,44.7478165 139.703955,26 138.719768,26 Z" id="eyepatch_path-1" />
    </defs>
    <g id="eyepatch_Top/Accesories/Eyepatch" stroke="none" stroke-width="1" fill="none" fill-rule="evenodd" transform="translate(-62 -85)">
        <path d="M160.395307,39.7810237 C157.318088,36.6927979 154.11865,43.6386608 152.623361,45.4281124 C149.013122,49.7486528 145.540256,54.182935 141.868413,58.4518947 C134.616309,66.8823544 127.439316,75.3743141 120.233991,83.8401528 C119.140279,85.1257012 119.27271,85.2649028 117.837048,85.3885641 C116.88598,85.4708947 115.563312,84.9802173 114.5737,84.9256608 C111.823607,84.774556 109.112057,85.2348141 106.435756,85.8227012 C101.091389,86.9961608 95.4264863,88.9291124 90.7890799,91.898306 C89.5718308,92.677306 88.7874545,93.5971608 87.4670933,93.841177 C86.3183659,94.0534512 84.794416,93.6295641 83.622299,93.5194592 C81.5412806,93.3237173 78.5378542,92.4726366 76.4953793,92.9137173 C73.9027538,93.4738302 72.9174244,96.6109915 75.5604528,98.0003624 C77.570314,99.0564431 81.5706,98.4761608 83.8235816,98.6447899 C86.3971,98.8372253 85.6120649,98.704306 85.2473843,101.164306 C84.7239177,104.69758 85.5985582,108.646475 87.0885766,111.878201 C90.5482655,119.383185 100.122861,127.335201 108.8551,126.603153 C116.142123,125.992451 122.526834,119.413274 125.519389,113.099935 C127.050916,109.868871 127.954546,106.192096 128.250376,102.628403 C128.438811,100.36183 128.333722,97.9580399 127.684083,95.7632173 C127.362888,94.6783705 126.853916,93.5554995 126.308378,92.5695157 C125.866281,91.7710076 123.908799,89.9203866 123.788886,89.1165882 C123.556307,87.5602415 127.973324,83.3874995 128.816339,82.3443141 C132.788953,77.4276205 136.780344,72.5320882 140.721662,67.5889431 C144.603353,62.7201931 148.506456,57.8640076 152.489612,53.0785802 C154.294237,50.9098786 163.318023,42.7148382 160.395307,39.7810237" id="eyepatch_Badass-Eyepatch" fill="#28354B" />
    </g>
</g>
        <g id="dreads_Accessory" transform="translate(44.000000, 33.000000)" />
    </g>
</g>
    </g>
</svg>