<svg xmlns="http://www.w3.org/2000/svg" xmlns:xlink="http://www.w3.org/1999/xlink" width="264px" height="280px" viewBox="0 0 264 280" version="1.1">
    <title>Avataaar/Default</title>
    <desc>Created with python_avatars</desc>
    <defs>
        <path d="M100,0 C130.927946,-5.68137151e-15 156,25.072054 156,56 L156.000809,62.1660527 C161.675838,63.1185422 166,68.05429 166,74 L166,88 C166,94.0524166 161.519235,99.0582945 155.693975,99.8813638 C153.627928,119.686472 141.237929,136.421678 124.001014,144.610469 L124,163 L128,163 C167.764502,163 200,195.235498 200,235 L200,244 L0,244 L0,235 C-4.86974701e-15,195.235498 32.235498,163 72,163 L76,163 L75.9999836,144.610943 C58.7625487,136.422324 46.3721119,119.686854 44.3051107,99.8809698 C38.480765,99.0582945 34,94.0524166 34,88 L34,74 C34,68.053942 38.3246685,63.1179645 44.0001873,62.1658855 L44,56 C44,25.072054 69.072054,5.68137151e-15 100,0 Z" id="transparent_path-1" />
        <path d="M83,36.3476251 C83,52.6289957 105.161905,65.8276544 132.5,65.8276544 C159.838095,65.8276544 182,52.6289957 182,36.3476251 C182,34.9853134 181.844841,33.6445843 181.544472,32.3313638 C210.784239,41.4879251 232,68.792221 232,101.051724 L232,110 L32,110 L32,101.051724 C32,68.3970853 53.7386736,40.8197864 83.5337207,32.0021267 C83.1821692,33.4207025 83,34.871494 83,36.3476251 Z" id="transparent_path-3" />
        <rect id="transparent_path-5" x="0" y="0" width="264" height="280" />
        <path d="M74,0 C114.869071,0 148,33.1309285 148,74 L148,84.1482318 L148,197.608051 C135.525121,187.236892 119.490913,181 102,181 L102,181 L98,181 L98,162.610951 C115.530782,154.282984 128.048193,137.114792 129.791419,116.867187 C135.569129,116.002364 140,111.018625 140,105 L140,105 L140,92 C140,87.3536213 137.359271,83.3240177 133.496777,81.3301515 C132.723933,81.0500337 131.951808,80.748163 131.180891,80.4262497 C130.794819,80.3202581 130.400778,80.2331546 130,80.1659169 L130,80.1659169 L130.000458,79.9172528 C117.224481,74.2339715 104.877985,63.0706967 96.1104311,47.8848473 C93.1752556,42.8009742 90.8310687,37.5951441 89.0661426,32.3970356 C80.4313947,42.9409152 67.7445474,53.6023901 52.3415164,62.4953343 C42.777598,68.0170651 33.1467898,72.2910056 24,75.2659587 L24.0003852,137.246608 C29.6019576,148.318362 38.7728825,157.277529 50,162.610951 L50,162.610951 L50,181 L46,181 C38.3273639,181 30.9350359,182.200142 24.0004995,184.422941 L24,230 C24,244.105888 13.5691766,255.775526 0,257.716445 L0,74 C0,33.1309285 33.1309285,0 74,0 Z" id="transparent_path-7" />
    </defs>
    <g id="transparent_Avataaar/Default" stroke="none" stroke-width="1" fill="none" fill-rule="evenodd">
        <g id="transparent_Body" transform="translate(32.000000, 36.000000)">
            <mask id="transparent_mask-2" fill="white">
                <use xlink:href="#transparent_path-1" />
            </mask>
            <use fill="#D0C6AC" xlink:href="#transparent_path-1" />
            <g id="transparent_Skin-Color" mask="url(#transparent_mask-2)" fill="#D08B5B">
                <g transform="translate(-32.000000, 0.000000)" id="transparent_Color">
                    <rect x="0" y="0" width="264" height="244" />
                </g>
            </g>
            <path d="M44,94 C44,124.927946 69.072054,150 100,150 C130.927946,150 156,124.927946 156,94 L156,94 L156,102 C156,132.927946 130.927946,158 100,158 C69.072054,158 44,132.927946 44,102 Z" id="transparent_Neck-Shadow" fill-opacity="0.100000001" fill="#000000" mask="url(#transparent_mask-2)" />
        </g>
        <g id="transparent_Clothing" transform="translate(0.000000, 170.000000)">
            
        <defs>
        <path d="M232,101.051724 L232,110 L32,110 L32,101.051724 C32,65.1384292 58.2938256,35.3663869 92.6806879,29.9363855 C93.5844961,35.0070695 96.1171239,39.8245023 100.236125,43.5389794 L100.236125,43.5389794 L129.321203,69.7676333 C130.843316,71.1402598 133.156684,71.1402598 134.678797,69.7676333 L134.678797,69.7676333 L163.763875,43.5389794 C164.189462,43.1551884 164.601167,42.7562772 164.998197,42.3430127 C168.413626,38.7879269 170.516642,34.4534098 171.319249,29.9385703 C205.706684,35.3669637 232,65.1387771 232,101.051724 Z" id="shirt_v_neck_path-1" />
    </defs>
    <g id="shirt_v_neck_Clothing/Shirt-V-Neck" stroke="none" stroke-width="1" fill="none" fill-rule="evenodd">
        <mask id="shirt_v_neck_mask-2" fill="white">
            <use xlink:href="#shirt_v_neck_path-1" />
        </mask>
        <use id="shirt_v_neck_Clothes" fill="#E6E6E6" xlink:href="#shirt_v_neck_path-1" />
        <g id="shirt_v_neck_Fabric-Color" mask="url(#shirt_v_neck_mask-2)" fill="#FF5C5C">
            <rect id="shirt_v_neck_ðŸ–Color" x="0" y="0" width="264" height="110" />
        </g>
    </g>
</g>
        <g id="transparent_Face" transform="translate(76.000000, 82.000000)" fill="#000000">
            <g id="transparent_Mouth" transform="translate(2.000000, 52.000000)">    
                
            <g id="disbelief_Mouth/Disbelief" stroke="none" stroke-width="1" fill="none" fill-rule="evenodd" fill-opacity="0.699999988">
        <path d="M40,15 C40,22.7319865 46.2680135,29 54,29 L54,29 C61.7319865,29 68,22.7319865 68,15" id="disbelief_Mouth" fill="#000000" transform="translate(54.000000, 22.000000) scale(1, -1) translate(-54.000000, -22.000000) " />
    </g>
</g>
            <g id="transparent_Nose" transform="translate(28.000000, 40.000000)" fill-opacity="0.16">
                
            <g id="default_Nose/Default" stroke="none" stroke-width="1" fill="none" fill-rule="evenodd" fill-opacity="0.16">
        <path d="M16,8 C16,12.418278 21.372583,16 28,16 L28,16 C34.627417,16 40,12.418278 40,8" id="default_Nose" fill="#000000" />
    </g>
</g>
            <g id="transparent_Eyes" transform="translate(0.000000, 8.000000)">
                
            <g id="wink_Eyes/Wink-ðŸ˜‰" stroke="none" stroke-width="1" fill="none" fill-rule="evenodd" fill-opacity="0.599999964">
        <circle id="wink_Eye" fill="#000000" cx="30" cy="22" r="6" />
        <path d="M70.4123979,24.204889 C72.2589064,20.4060854 76.4166529,17.7575774 81.2498107,17.7575774 C86.065907,17.7575774 90.2113521,20.3874194 92.0675822,24.1647016 C92.618991,25.2867751 91.8343342,26.2050591 91.0428374,25.5246002 C88.5917368,23.4173607 85.1109468,22.1013658 81.2498107,22.1013658 C77.5094365,22.1013658 74.1259889,23.3363293 71.6897696,25.3292186 C70.7990233,26.0578718 69.8723316,25.3159619 70.4123979,24.204889 Z" id="wink_Winky-Wink" fill="#000000" transform="translate(81.252230, 21.757577) rotate(-4.000000) translate(-81.252230, -21.757577) " />
    </g>
</g>
            <g id="transparent_Eyebrow" fill-opacity="0.599999964">
                
            <g id="raised_excited_natural_Eyebrow/Natural/Raised-Excited-Natural" stroke="none" stroke-width="1" fill="none" fill-rule="evenodd" fill-opacity="0.599999964">
        <path d="M22.7663531,1.57844898 L23.6772984,1.17582144 C28.9190996,-0.905265751 36.8645466,-0.0328729562 41.7227321,2.29911638 C42.2897848,2.57148957 41.9021563,3.4519421 41.3211012,3.40711006 C26.4021788,2.25602197 16.3582869,11.5525942 12.9460869,17.8470939 C12.8449215,18.0337142 12.5391523,18.05489 12.4635344,17.8808353 C10.156283,12.5620676 16.9134476,3.89614725 22.7663531,1.57844898 Z" id="raised_excited_natural_Eye-Browse-Reddit" fill="#000000" />
        <path d="M80.7663531,1.57844898 L81.6772984,1.17582144 C86.9190996,-0.905265751 94.8645466,-0.0328729562 99.7227321,2.29911638 C100.289785,2.57148957 99.9021563,3.4519421 99.3211012,3.40711006 C84.4021788,2.25602197 74.3582869,11.5525942 70.9460869,17.8470939 C70.8449215,18.0337142 70.5391523,18.05489 70.4635344,17.8808353 C68.156283,12.5620676 74.9134476,3.89614725 80.7663531,1.57844898 Z" id="raised_excited_natural_Eye-Browse-Reddit" fill="#000000" transform="translate(85.000000, 9.000000) scale(-1, 1) translate(-85.000000, -9.000000) " />
    </g>
</g>
        </g>
        <g id="transparent_Top">
            
        <defs>
        <path d="M1,64 C1.34685629,65.488448 2.67275588,65.2226722 3,64 C2.53726005,62.445722 6.29594493,35.2480719 16,28 C19.618222,25.4833872 39.0082164,23.2319099 58.3126144,23.245568 C77.4086061,23.2590787 96.4208396,25.5105561 100,28 C109.704055,35.2480719 113.46274,62.445722 113,64 C113.327244,65.2226722 114.653144,65.488448 115,64 C115.719178,53.7019177 115,0.274362825 58,1 C1,1.72563718 0.280821545,53.7019177 1,64 Z" id="caesar_path-1" />
    </defs>
    <g id="caesar_Top/Short-Hair/The-Caesar" stroke="none" stroke-width="1" fill="none" fill-rule="evenodd">
        <g id="caesar_Facial-Hair" transform="translate(49.000000, 72.000000)" />
        <g id="caesar_Hair" transform="translate(75.000000, 34.000000)">
            <mask id="caesar_mask-2" fill="white">
                <use xlink:href="#caesar_path-1" />
            </mask>
            <use id="caesar_Caesar" fill="#28354B" xlink:href="#caesar_path-1" />
            <g id="caesar_Hair-Color" mask="url(#caesar_mask-2)" fill="#F59797">
                <g transform="translate(-74.000000, -34.000000)" id="caesar_Color">
                    <rect x="0" y="0" width="264" height="280" />
                </g>
            </g>
        </g>
        <g id="caesar_Accessory" transform="translate(62.000000, 85.000000)"><defs>
        <filter x="-3.2%" y="-10.5%" width="106.3%" height="121.1%" filterUnits="objectBoundingBox" id="sunglasses_filter-1">
            <feOffset dx="0" dy="2" in="SourceAlpha" result="shadowOffsetOuter1" />
            <feColorMatrix values="0 0 0 0 0   0 0 0 0 0   0 0 0 0 0  0 0 0 0.1 0" type="matrix" in="shadowOffsetOuter1" result="shadowMatrixOuter1" />
            <feMerge>
                <feMergeNode in="shadowMatrixOuter1" />
                <feMergeNode in="SourceGraphic" />
            </feMerge>
        </filter>
        <linearGradient x1="50%" y1="0%" x2="50%" y2="70.5058195%" id="sunglasses_linearGradient-2">
            <stop stop-color="#FFFFFF" stop-opacity="0.5" offset="0%" />
            <stop stop-color="#000000" stop-opacity="0.5" offset="100%" />
        </linearGradient>
        <path d="M47.0104611,6.27728008 C49.5212682,6.30134922 50.7082016,6.72633117 51.1359635,9.39189846 C51.5693724,12.0919529 51.1479634,15.1275382 50.648202,17.7869984 C49.8855011,21.8478573 48.6170388,25.8264499 45.6643523,28.794498 C44.1089507,30.3575551 42.2119044,31.6034024 40.1941529,32.4540848 C39.1226305,32.9060098 37.9911085,33.2322006 36.8599395,33.4797175 C36.5292357,33.5519249 33.7060778,33.9478084 35.4375958,33.7466335 C31.3967988,34.2161613 27.0129452,34.1974808 23.6381438,31.5793333 C19.8980507,28.6777448 17.3367734,24.0862872 16.2105455,19.5127916 C15.5516086,16.8368063 14.1670294,10.4365709 16.6968952,8.29693227 C19.5948762,5.84547255 47.0104611,6.27728008 47.0104611,6.27728008 L47.0104611,6.27728008 Z" id="sunglasses_path-3" />
        <linearGradient x1="50%" y1="0%" x2="50%" y2="100%" id="sunglasses_linearGradient-4">
            <stop stop-color="#FFFFFF" stop-opacity="0.5" offset="0%" />
            <stop stop-color="#000000" stop-opacity="0.5" offset="70.5058195%" />
        </linearGradient>
        <path d="M78.9192315,6.27468008 C76.4084239,6.29910846 75.2214902,6.72373117 74.7937283,9.38929846 C74.3603192,12.0893529 74.7817283,15.1249382 75.2811369,17.7843984 C76.0441909,21.8452573 77.3126534,25.8238499 80.2653406,28.791898 C81.8207425,30.3549551 83.7177893,31.6008024 85.7355412,32.4518441 C86.8070638,32.9034098 87.938586,33.2296006 89.0697553,33.4771175 C89.4004591,33.5493249 92.2232647,33.9455676 90.4920992,33.7440335 C94.5328971,34.2135613 98.9167517,34.1948808 102.291554,31.5767333 C106.031648,28.6751448 108.592926,24.0840464 109.719154,19.5105508 C110.378091,16.8342063 111.762317,10.4343302 109.232804,8.29433227 C106.334822,5.84287255 78.9192315,6.27468008 78.9192315,6.27468008 L78.9192315,6.27468008 Z" id="sunglasses_path-5" />
    </defs>
    <g id="sunglasses_Top/_Resources/Sunglasses" stroke="none" stroke-width="1" fill="none" fill-rule="evenodd">
        <g id="sunglasses_Sunglasses" filter="url(#sunglasses_filter-1)" transform="translate(8.000000, 8.000000)">
            <g id="sunglasses_shades">
                <use fill-opacity="0.700000048" fill="#000000" xlink:href="#sunglasses_path-3" />
                <use fill="url(#linearGradient-2)" style="mix-blend-mode: screen;" xlink:href="#sunglasses_path-3" />
            </g>
            <g id="sunglasses_shades">
                <use fill-opacity="0.700000048" fill="#000000" xlink:href="#sunglasses_path-5" />
                <use fill="url(#linearGradient-4)" style="mix-blend-mode: screen;" xlink:href="#sunglasses_path-5" />
            </g>
            <g id="sunglasses_Glasses" fill="#252C2F">
                <path d="M46.2491397,7.27516667 C48.6207695,7.2975 49.7419096,7.69183333 50.1459601,10.1651667 C50.5553446,12.6705 50.1572949,15.4871667 49.6852359,17.9548333 C48.9648125,21.7228333 47.7666627,25.4145 44.9776475,28.1685 C43.5084639,29.6188333 41.7165732,30.7748333 39.8106684,31.5641667 C38.7985419,31.9835 37.7297416,32.2861667 36.6612747,32.5158333 C36.3489024,32.5828333 33.6822357,32.9501667 35.3177735,32.7635 C31.5009631,33.1991667 27.3601122,33.1818333 24.1723805,30.7525 C20.6396056,28.0601667 18.2203032,23.7998333 17.1565036,19.5561667 C16.5340925,17.0731667 15.2262624,11.1345 17.6158944,9.14916667 C20.3532365,6.8745 46.2491397,7.27516667 46.2491397,7.27516667 L46.2491397,7.27516667 Z M22.2178029,0.4905 C16.7774562,0.677833333 13.1466691,1.63383333 10.4633337,7.06916667 C5.54571911,17.0301667 13.9627711,31.9688333 23.352278,36.0395 C34.3293166,40.7991667 46.5921826,35.5318333 52.3955746,26.0058333 C55.4689587,20.9621667 57.0224862,13.3231667 56.9224737,7.50383333 C56.7951245,0.0765 51.6071427,-0.1295 45.5090472,0.0338333333 L22.2178029,0.4905 Z" id="sunglasses_Frame" />
                <path d="M79.6805515,7.27256667 C77.3089217,7.29523333 76.1877816,7.68923333 75.7837311,10.1625667 C75.3743466,12.6679 75.7723963,15.4845667 76.244122,17.9522333 C76.9648787,21.7202333 78.1630285,25.4119 80.9520437,28.1659 C82.4212273,29.6162333 84.213118,30.7722333 86.1190228,31.5619 C87.1311493,31.9809 88.1999496,32.2835667 89.2684165,32.5132333 C89.5807888,32.5802333 92.2471221,32.9479 90.6119177,32.7609 C94.4287281,33.1965667 98.569579,33.1792333 101.757311,30.7499 C105.290086,28.0575667 107.709388,23.7975667 108.773188,19.5539 C109.395599,17.0705667 110.703095,11.1322333 108.313797,9.14656667 C105.576455,6.8719 79.6805515,7.27256667 79.6805515,7.27256667 L79.6805515,7.27256667 Z M103.711555,0.4879 C109.152235,0.675233333 112.783022,1.63156667 115.466357,7.06656667 C120.383639,17.0275667 111.96692,31.9662333 102.577413,36.0372333 C91.6003746,40.7965667 79.3375086,35.5292333 73.5337832,26.0035667 C70.4607325,20.9595667 68.907205,13.3205667 69.0068841,7.50123333 C69.1345667,0.0739 74.3225485,-0.1321 80.420644,0.0315666667 L103.711555,0.4879 Z" id="sunglasses_Frame" />
                <path d="M13.1969483,4.9267 C9.78501392,5.11836667 5.88606327,5.16436667 2.69005822,6.63936667 C-0.69461078,8.20136667 -1.2176675,11.7387 3.04920921,12.2260333 C4.97094906,12.4457 6.89488267,12.0827 8.78716336,11.7450333 C10.336903,11.4683667 12.4419791,11.5580333 13.9064752,10.9657 C16.6355213,9.86236667 16.4603333,4.74003333 13.1969483,4.9267" id="sunglasses_Frame" />
                <path d="M112.73467,4.9267 C116.146606,5.11836667 120.045559,5.16436667 123.241565,6.63936667 C126.626236,8.20136667 127.149293,11.7387 122.882414,12.2260333 C120.960673,12.4457 119.036739,12.0827 117.144457,11.7450333 C115.594717,11.4683667 113.489639,11.5580333 112.025143,10.9657 C109.295782,9.86236667 109.471283,4.74003333 112.73467,4.9267" id="sunglasses_Frame" />
                <path d="M73.1094302,7.01263333 C71.1631869,4.71263333 66.0912197,3.38463333 62.8914864,3.38463333 C59.6914198,3.38463333 54.7681378,4.71263333 52.8222279,7.01263333 C51.8407719,8.1723 51.8074344,9.72396667 53.5083137,10.4509667 C55.6262451,11.3566333 57.5174814,9.7143 59.2126933,8.8553 C61.3809643,7.75663333 64.7120473,7.8773 66.7189648,8.8553 C68.4271783,9.68796667 70.3050797,11.3566333 72.4233444,10.4509667 C74.1242237,9.72396667 74.0908862,8.1723 73.1094302,7.01263333" id="sunglasses_Frame" />
            </g>
        </g>
    </g>
</g>
    </g>
</g>
    </g>
</svg>