<svg xmlns="http://www.w3.org/2000/svg" xmlns:xlink="http://www.w3.org/1999/xlink" width="264px" height="280px" viewBox="0 0 264 280" version="1.1">
    <title>Avataaar/Circle</title>
    <desc>Created with python_avataaars</desc>
    <defs>
        <circle id="circle_path-1" cx="120" cy="120" r="120" />
        <path d="M-3.19744231e-14,160 L-3.19744231e-14,-1.42108547e-14 L264,-1.42108547e-14 L264,160 L252,160 C252,226.27417 198.27417,280 132,280 C65.72583,280 12,226.27417 12,160 L12,160 L-3.19744231e-14,160 Z" id="circle_path-3" />
        <path d="M100,0 C130.927946,-5.68137151e-15 156,25.072054 156,56 L156.000809,62.1660527 C161.675838,63.1185422 166,68.05429 166,74 L166,88 C166,94.0524166 161.519235,99.0582945 155.693975,99.8813638 C153.627928,119.686472 141.237929,136.421678 124.001014,144.610469 L124,163 L128,163 C167.764502,163 200,195.235498 200,235 L200,244 L0,244 L0,235 C-4.86974701e-15,195.235498 32.235498,163 72,163 L76,163 L75.9999836,144.610943 C58.7625487,136.422324 46.3721119,119.686854 44.3051107,99.8809698 C38.480765,99.0582945 34,94.0524166 34,88 L34,74 C34,68.053942 38.3246685,63.1179645 44.0001873,62.1658855 L44,56 C44,25.072054 69.072054,5.68137151e-15 100,0 Z" id="circle_path-5" />
        <path d="M83,36.3476251 C83,52.6289957 105.161905,65.8276544 132.5,65.8276544 C159.838095,65.8276544 182,52.6289957 182,36.3476251 C182,34.9853134 181.844841,33.6445843 181.544472,32.3313638 C210.784239,41.4879251 232,68.792221 232,101.051724 L232,110 L32,110 L32,101.051724 C32,68.3970853 53.7386736,40.8197864 83.5337207,32.0021267 C83.1821692,33.4207025 83,34.871494 83,36.3476251 Z" id="circle_path-7" />
        <rect id="circle_path-9" x="0" y="0" width="264" height="280" />
        <path d="M74,0 C114.869071,0 148,33.1309285 148,74 L148,84.1482318 L148,197.608051 C135.525121,187.236892 119.490913,181 102,181 L102,181 L98,181 L98,162.610951 C115.530782,154.282984 128.048193,137.114792 129.791419,116.867187 C135.569129,116.002364 140,111.018625 140,105 L140,105 L140,92 C140,87.3536213 137.359271,83.3240177 133.496777,81.3301515 C132.723933,81.0500337 131.951808,80.748163 131.180891,80.4262497 C130.794819,80.3202581 130.400778,80.2331546 130,80.1659169 L130,80.1659169 L130.000458,79.9172528 C117.224481,74.2339715 104.877985,63.0706967 96.1104311,47.8848473 C93.1752556,42.8009742 90.8310687,37.5951441 89.0661426,32.3970356 C80.4313947,42.9409152 67.7445474,53.6023901 52.3415164,62.4953343 C42.777598,68.0170651 33.1467898,72.2910056 24,75.2659587 L24.0003852,137.246608 C29.6019576,148.318362 38.7728825,157.277529 50,162.610951 L50,162.610951 L50,181 L46,181 C38.3273639,181 30.9350359,182.200142 24.0004995,184.422941 L24,230 C24,244.105888 13.5691766,255.775526 0,257.716445 L0,74 C0,33.1309285 33.1309285,0 74,0 Z" id="circle_path-11" />
    </defs>
    <g id="circle_Avataaar/Circle" stroke="none" stroke-width="1" fill="none" fill-rule="evenodd">
        <g id="circle_Circle" transform="translate(12.000000, 40.000000)">
            <mask id="circle_mask-2" fill="white">
                <use xlink:href="#circle_path-1" />
            </mask>
            <use id="circle_Background-Color" fill="#FFFFFF" xlink:href="#circle_path-1" />
            <g id="circle_Fabric-Color" mask="url(#circle_mask-2)" fill="">
                <rect id="circle_ðŸ–Color" x="0" y="0" width="240" height="240" />
            </g>
        </g>
        <mask id="circle_mask-4" fill="white">
            <use xlink:href="#circle_path-3" />
        </mask>
        <g id="circle_Mask" />
        <g id="circle_Avataaar" mask="url(#circle_mask-4)">
            <g id="circle_Body" transform="translate(32.000000, 36.000000)">
                <mask id="circle_mask-6" fill="white">
                    <use xlink:href="#circle_path-5" />
                </mask>
                <use fill="#D0C6AC" xlink:href="#circle_path-5" />
                <g id="circle_Skin-Color" mask="url(#circle_mask-6)" fill="#D08B5B">
                    <g transform="translate(-32.000000, 0.000000)" id="circle_Color">
                        <rect x="0" y="0" width="264" height="244" />
                    </g>
                </g>
                <path d="M44,94 C44,124.927946 69.072054,150 100,150 C130.927946,150 156,124.927946 156,94 L156,94 L156,102 C156,132.927946 130.927946,158 100,158 C69.072054,158 44,132.927946 44,102 Z" id="circle_Neck-Shadow" fill-opacity="0.100000001" fill="#000000" mask="url(#circle_mask-6)" />
            </g>
            <g id="circle_Clothing" transform="translate(0.000000, 170.000000)">
                
            <defs>
        <path d="M99,30.3476251 C99,42.2107177 113.998461,51.8276544 132.5,51.8276544 C151.001539,51.8276544 166,42.2107177 166,30.3476251 C166,29.9947569 165.98673,29.643876 165.960492,29.2951765 C202.936371,32.3248899 232,63.2942196 232,101.051724 L232,110 L32,110 L32,101.051724 C32,62.952169 61.5925972,31.764336 99.0465686,29.2194474 C99.0151943,29.59473 99,29.9700398 99,30.3476251 Z" id="shirt_crew_neck_path-1" />
    </defs>
    <g id="shirt_crew_neck_Clothing/Shirt-Crew-Neck" stroke="none" stroke-width="1" fill="none" fill-rule="evenodd">
        <mask id="shirt_crew_neck_mask-2" fill="white">
            <use xlink:href="#shirt_crew_neck_path-1" />
        </mask>
        <use id="shirt_crew_neck_Clothes" fill="#E6E6E6" xlink:href="#shirt_crew_neck_path-1" />
        <g id="shirt_crew_neck_Fabric-Color" mask="url(#shirt_crew_neck_mask-2)" fill="#65C9FF">
            <rect id="shirt_crew_neck_ðŸ–Color" x="0" y="0" width="264" height="110" />
        </g>
        <g id="shirt_crew_neck_Shadowy" opacity="0.599999964" mask="url(#shirt_crew_neck_mask-2)" fill="#000000" fill-opacity="0.16">
            <g transform="translate(92.000000, 4.000000)" id="shirt_crew_neck_Hola-ðŸ‘‹ðŸ¼">
                <ellipse cx="40.5" cy="27.8476251" rx="39.6351047" ry="26.9138272" />
            </g>
        </g>
    </g>
</g>
            <g id="circle_Face" transform="translate(76.000000, 82.000000)" fill="#000000">
                <g id="circle_Mouth" transform="translate(2.000000, 52.000000)">    
                    
                <defs>
        <path d="M35.117844,15.1280772 C36.1757121,24.6198025 44.2259873,32 54,32 C63.8042055,32 71.8740075,24.574136 72.8917593,15.0400546 C72.9736685,14.272746 72.1167429,13 71.042767,13 C56.1487536,13 44.7379213,13 37.0868244,13 C36.0066168,13 35.0120058,14.1784435 35.117844,15.1280772 Z" id="concerned_path-1" />
    </defs>
    <g id="concerned_Mouth/Concerned" stroke="none" stroke-width="1" fill="none" fill-rule="evenodd">
        <mask id="concerned_mask-2" fill="white">
            <use xlink:href="#concerned_path-1" transform="translate(54.003637, 22.500000) scale(1, -1) translate(-54.003637, -22.500000)" />
        </mask>
        <use id="concerned_Mouth" fill-opacity="0.699999988" fill="#000000" transform="translate(54.003637, 22.500000) scale(1, -1) translate(-54.003637, -22.500000)" xlink:href="#concerned_path-1" />
        <path d="M44,2 L65,2 C67.7614237,2 70,4.23857625 70,7 L70,13 C70,15.7614237 67.7614237,18 65,18 L44,18 C41.2385763,18 39,15.7614237 39,13 L39,7 C39,4.23857625 41.2385763,2 44,2 Z" id="concerned_Teeth" fill="#FFFFFF" mask="url(#concerned_mask-2)" />
        <g id="concerned_Tongue" mask="url(#concerned_mask-2)" fill="#FF4F6D">
            <g transform="translate(38.000000, 24.000000)">
                <circle id="concerned_friend?" cx="11" cy="11" r="11" />
                <circle id="concerned_How-you-doing" cx="21" cy="11" r="11" />
            </g>
        </g>
    </g>
</g>
                <g id="circle_Nose" transform="translate(28.000000, 40.000000)" fill-opacity="0.16">
                    
                <g id="default_Nose/Default" stroke="none" stroke-width="1" fill="none" fill-rule="evenodd" fill-opacity="0.16">
        <path d="M16,8 C16,12.418278 21.372583,16 28,16 L28,16 C34.627417,16 40,12.418278 40,8" id="default_Nose" fill="#000000" />
    </g>
</g>
                <g id="circle_Eyes" transform="translate(0.000000, 8.000000)">
                    
                <g id="eye_roll_Eyes/Eye-Roll-ðŸ™„" stroke="none" stroke-width="1" fill="none" fill-rule="evenodd">
        <circle id="eye_roll_Eyeball" fill="#FFFFFF" cx="30" cy="22" r="14" />
        <circle id="eye_roll_The-white-stuff" fill="#FFFFFF" cx="82" cy="22" r="14" />
        <circle id="eye_roll_Eye" fill-opacity="0.699999988" fill="#000000" cx="30" cy="14" r="6" />
        <circle id="eye_roll_Eye" fill-opacity="0.699999988" fill="#000000" cx="82" cy="14" r="6" />
    </g>
</g>
                <g id="circle_Eyebrow" fill-opacity="0.599999964">
                    
                <g id="unibrow_natural_Eyebrow/Natural/Unibrow-Natural" stroke="none" stroke-width="1" fill="none" fill-rule="evenodd" fill-opacity="0.599999964">
        <path d="M57.000525,12 C56.999825,11.9961 56.999825,11.9961 57.000525,12 M96.2812935,8.14993193 C97.7243204,8.76008291 105.241692,14.8939029 103.822605,17.5722412 C103.563259,18.0619945 102.91024,18.1443003 102.524546,17.7511372 C101.997542,17.2147893 100.987756,16.584232 100.86041,16.507708 C95.8563653,13.4967455 89.636055,14.1895424 84.1715051,15.0153209 C78.0153663,15.945512 71.9486685,18.0766191 65.7030886,17.0505179 C64.112573,16.7893996 61.3100901,16.0581965 59.4577569,14.8912505 C59.2166111,15.3812089 58.7733181,15.7165315 58.0750241,15.6547468 C55.8451696,15.4574504 57.5922879,12 58.7633758,12 C58.9879322,12 59.1830493,12.1416326 59.3360395,12.3691906 C60.6258515,12.2076142 61.9177831,11.6174215 63.2409655,11.2908151 C66.9279989,10.3803501 70.6888462,9.98718701 74.4284137,9.38927986 C81.0899445,8.32440654 89.7471082,5.39200867 96.2812935,8.14993193 Z" id="unibrow_natural_Kahlo" fill="#000000" transform="translate(80.500000, 12.500000) rotate(-2.000000) translate(-80.500000, -12.500000) " />
        <path d="M54.999475,12 C55.000175,11.9961 55.000175,11.9961 54.999475,12 M15.7187065,8.14993193 C22.2528918,5.39200867 30.9100555,8.32440654 37.5715863,9.38927986 C41.3111538,9.98718701 45.0720011,10.3803501 48.7590345,11.2908151 C50.2416282,11.6567696 51.6849876,12.3536477 53.1313394,12.4128263 C53.8325707,12.4413952 54.2674737,13.2763566 53.8149484,13.8242681 C52.3320222,15.6179895 48.3271239,16.7172136 46.2969114,17.0505179 C40.0513315,18.0766191 33.9846337,15.945512 27.8284949,15.0153209 C22.363945,14.1895424 16.1436347,13.4967455 11.1395899,16.507708 C11.0122444,16.584232 10.0024581,17.2147893 9.47545402,17.7511372 C9.0897602,18.1443003 8.43674067,18.0619945 8.17739482,17.5722412 C6.75830756,14.8939029 14.2756796,8.76008291 15.7187065,8.14993193 Z M54.9339874,11 C56.1050753,11 57.8521936,15.4015737 55.6223391,15.6527457 C53.3924847,15.9039176 53.7628995,11 54.9339874,11 Z" id="unibrow_natural_Frida" fill="#000000" transform="translate(32.348682, 12.500000) rotate(2.000000) translate(-32.348682, -12.500000) " />
    </g>
</g>
            </g>
            <g id="circle_Top">
                
            <defs>
        <path d="M167.308863,35.006118 C147.121091,23.3065109 127.128954,25.2219854 112.036894,29.0299707 C96.9448338,32.8379559 88.0168242,43.6513048 80.3566792,59.6480618 C76.5956048,67.5028569 74.3660182,76.7914798 74.0230569,85.4813651 C73.8884429,88.8932666 74.3484305,92.415154 75.267729,95.7003546 C75.6049405,96.9061873 77.4232441,101.086987 77.9224658,97.70885 C78.0885348,96.584253 77.4804043,95.0327505 77.4215529,93.8376154 C77.3444374,92.2693977 77.4273028,90.6807875 77.5341822,89.1149098 C77.7340739,86.1874141 78.2559568,83.3154127 79.1847257,80.524647 C80.5119249,76.5367405 82.2013644,72.212859 84.7874413,68.8480942 C91.1883705,60.5205939 102.268658,60.045883 111.066257,55.4635848 C110.302881,56.8686624 107.359637,59.1432635 108.379389,60.7268592 C109.083576,61.8207003 111.749474,61.4890712 113.022219,61.4539693 C116.370996,61.3623702 119.734993,60.7796791 123.042844,60.306974 C128.255923,59.5618115 133.140585,58.0517626 138.046555,56.2181078 C142.06299,54.7164165 146.650012,53.3257139 149.66868,50.1404701 C154.539813,55.1881187 160.809849,59.9345599 167.070414,63.1428706 C172.68835,66.0222267 181.748751,67.461069 185.182761,73.3006826 C189.2479,80.2147477 187.37751,88.7073939 188.619138,96.2008069 C189.091302,99.05041 190.164155,98.986558 190.751315,96.4378281 C191.748406,92.1082634 192.219217,87.6102098 191.901961,83.1592929 C191.183568,73.1114668 187.496636,46.7057251 167.308863,35.006118 Z" id="short_round_path-1" />
    </defs>
    <g id="short_round_Top/Short-Hair/Short-Round" stroke="none" stroke-width="1" fill="none" fill-rule="evenodd" transform="translate(-1 0)">
        <g id="short_round_Facial-Hair" transform="translate(49.000000, 72.000000)" />
        <mask id="short_round_mask-2" fill="white">
            <use xlink:href="#short_round_path-1" />
        </mask>
        <use id="short_round_Short-Hair" fill="#28354B" xlink:href="#short_round_path-1" />
        <g id="short_round_Hair-Color" mask="url(#short_round_mask-2)" fill="#F59797">
            <g transform="translate(1.000000, 0.000000)" id="short_round_Color">
                <rect x="0" y="0" width="264" height="280" />
            </g>
        </g>
        <g id="short_round_Accessory" transform="translate(62.000000, 85.000000)" />
    </g>
</g>
        </g>
    </g>
</svg>