<?xml version="1.0" encoding="utf-8"?>
<svg width="168px" height="152px" viewbox="0 0 168 152" version="1.1" xmlns:xlink="http://www.w3.org/1999/xlink" xmlns="http://www.w3.org/2000/svg">
  <defs>
    <path d="M74.4284 72.1686C71.9148 74.4626 69.2372 75.4943 65.853 74.7729C65.2706 74.6488 62.8963 70.2346 56.9998 70.2346C51.1033 70.2346 48.7294 74.6488 48.1467 74.7729C44.7625 75.4943 42.0848 74.4626 39.5713 72.1686C34.8462 67.8556 30.9166 61.9082 33.2778 55.4192C34.5084 52.0369 36.5098 48.3237 40.1506 47.2459C44.0384 46.0955 49.4969 47.2439 53.4148 46.4583C54.6841 46.2035 56.0707 45.7509 56.9998 45C57.929 45.7509 59.3159 46.2035 60.5846 46.4583C64.5028 47.2439 69.9613 46.0955 73.849 47.2459C77.4899 48.3237 79.4913 52.0369 80.7222 55.4192C83.0834 61.9082 79.1538 67.8556 74.4284 72.1686M113.081 0C109.671 8.40025 110.988 18.858 110.357 27.6759C109.844 34.8432 108.337 45.5858 101.973 50.2145C98.7184 52.5816 92.7944 56.5599 88.5419 55.4502C85.6145 54.6864 85.3022 46.2901 81.4553 43.147C77.0917 39.5823 71.643 38.016 66.1491 38.2579C63.7785 38.3623 58.9841 38.3375 56.9999 40.1605C55.0157 38.3375 50.2217 38.3623 47.8511 38.2579C42.3569 38.016 36.9081 39.5823 32.5446 43.147C28.6977 46.2901 28.3857 54.6864 25.4583 55.4502C21.2058 56.5599 15.2818 52.5816 12.027 50.2145C5.66241 45.5858 4.15617 34.8432 3.64286 27.6759C3.01209 18.858 4.32917 8.40025 0.918833 0C-0.740223 0 0.354034 16.1289 0.354034 16.1289L0.354034 36.4851C0.385673 51.7732 9.93509 74.6554 31.108 83.393C36.2861 85.5298 48.0153 89 56.9999 89C65.9846 89 77.7137 85.8602 82.8919 83.7234C104.065 74.9858 113.614 51.7732 113.646 36.4851L113.646 16.1289C113.646 16.1289 114.74 0 113.081 0" transform="translate(27 26)" id="path_1" />
    <clipPath id="mask_1">
      <use xlink:href="#path_1" />
    </clipPath>
  </defs>
  <g id="Facial-HairBeard-Light">
    <path d="M74.4284 72.1686C71.9148 74.4626 69.2372 75.4943 65.853 74.7729C65.2706 74.6488 62.8963 70.2346 56.9998 70.2346C51.1033 70.2346 48.7294 74.6488 48.1467 74.7729C44.7625 75.4943 42.0848 74.4626 39.5713 72.1686C34.8462 67.8556 30.9166 61.9082 33.2778 55.4192C34.5084 52.0369 36.5098 48.3237 40.1506 47.2459C44.0384 46.0955 49.4969 47.2439 53.4148 46.4583C54.6841 46.2035 56.0707 45.7509 56.9998 45C57.929 45.7509 59.3159 46.2035 60.5846 46.4583C64.5028 47.2439 69.9613 46.0955 73.849 47.2459C77.4899 48.3237 79.4913 52.0369 80.7222 55.4192C83.0834 61.9082 79.1538 67.8556 74.4284 72.1686M113.081 0C109.671 8.40025 110.988 18.858 110.357 27.6759C109.844 34.8432 108.337 45.5858 101.973 50.2145C98.7184 52.5816 92.7944 56.5599 88.5419 55.4502C85.6145 54.6864 85.3022 46.2901 81.4553 43.147C77.0917 39.5823 71.643 38.016 66.1491 38.2579C63.7785 38.3623 58.9841 38.3375 56.9999 40.1605C55.0157 38.3375 50.2217 38.3623 47.8511 38.2579C42.3569 38.016 36.9081 39.5823 32.5446 43.147C28.6977 46.2901 28.3857 54.6864 25.4583 55.4502C21.2058 56.5599 15.2818 52.5816 12.027 50.2145C5.66241 45.5858 4.15617 34.8432 3.64286 27.6759C3.01209 18.858 4.32917 8.40025 0.918833 0C-0.740223 0 0.354034 16.1289 0.354034 16.1289L0.354034 36.4851C0.385673 51.7732 9.93509 74.6554 31.108 83.393C36.2861 85.5298 48.0153 89 56.9999 89C65.9846 89 77.7137 85.8602 82.8919 83.7234C104.065 74.9858 113.614 51.7732 113.646 36.4851L113.646 16.1289C113.646 16.1289 114.74 0 113.081 0" transform="translate(27 26)" id="Lite-Beard" fill="#331B0C" fill-rule="evenodd" stroke="none" />
    <g clip-path="url(#mask_1)">
      <g id="Facial-Hair-Color">
        <path d="M0 0L168 0L168 152L0 152L0 0Z" id="Color" fill="#724133" fill-rule="evenodd" stroke="none" />
      </g>
    </g>
  </g>
</svg>