<?xml version="1.0" encoding="utf-8"?>
<svg width="168px" height="152px" viewbox="0 0 168 152" version="1.1" xmlns:xlink="http://www.w3.org/1999/xlink" xmlns="http://www.w3.org/2000/svg">
  <defs>
    <path d="M41.1802 51.7373C43.3632 50.1045 56.4065 49.4786 58.7578 48.0894C59.4916 47.6554 60.0611 47.2157 60.4998 46.78C60.9388 47.2157 61.5086 47.6554 62.2424 48.0894C64.5934 49.4786 77.6367 50.1045 79.8197 51.7373C82.03 53.3908 83.6436 57.1847 83.467 60.1509C83.255 63.7101 79.3615 72.2029 69.6723 73.1811C67.5577 70.8282 64.2369 69.3105 60.4998 69.3105C56.7634 69.3105 53.4422 70.8282 51.3276 73.1811C41.6387 72.2029 37.7452 63.7101 37.5332 60.1509C37.3566 57.1847 38.9702 53.3908 41.1802 51.7373M79.1416 68.9064C79.143 68.9057 79.1446 68.9051 79.1459 68.9047C79.1443 68.9051 79.143 68.9057 79.1416 68.9064M41.8454 68.9014C41.8493 68.9031 41.8566 68.9057 41.8619 68.9077C41.8566 68.9057 41.851 68.9034 41.8454 68.9014M120.863 29.9853C120.474 24.0304 119.278 18.1519 118.234 12.2863C117.953 10.7072 116.424 0 115.735 0C115.502 9.10941 114.702 18.0804 113.67 27.1394C113.361 29.8476 113.038 32.5564 112.825 35.2742C112.654 37.4696 112.96 40.1221 112.428 42.2456C111.749 44.9525 108.348 47.4784 105.703 48.4108C99.1029 50.7373 93.5978 41.1078 87.961 38.2911C80.6433 34.6347 68.0637 33.764 60.5816 38.5298C52.9361 33.764 40.3566 34.6347 33.0389 38.2911C27.4024 41.1078 21.897 50.7373 15.2972 48.4108C12.6521 47.4784 9.25043 44.9525 8.5724 42.2456C8.04027 40.1221 8.34628 37.4696 8.17495 35.2742C7.96237 32.5564 7.63887 29.8476 7.33022 27.1394C6.29832 18.0804 5.4975 9.10941 5.26543 0C4.57618 0 3.04682 10.7072 2.7659 12.2863C1.72212 18.1519 0.525827 24.0304 0.137626 29.9853C-0.261467 36.1047 0.21487 42.1675 1.46959 48.1633C2.06872 51.0277 2.76854 53.8756 3.51886 56.7041C4.3527 59.8467 3.19899 65.9661 3.57234 69.1921C4.27876 75.2957 7.15428 87.1997 10.3833 92.451C11.9441 94.9891 13.7735 96.5737 15.8165 98.6191C17.7826 100.588 18.6039 103.64 20.7261 105.737C24.682 109.645 30.4456 111.971 36.3657 112.543C41.6774 117.05 50.5056 120 60.4998 120C70.4946 120 79.3225 117.05 84.6345 112.543C90.5539 111.971 96.3178 109.645 100.274 105.737C102.396 103.64 103.217 100.588 105.184 98.6191C107.226 96.5737 109.056 94.9891 110.617 92.451C113.846 87.1997 116.721 75.2957 117.428 69.1921C117.801 65.9661 116.647 59.8467 117.481 56.7041C118.232 53.8756 118.931 51.0277 119.531 48.1633C120.785 42.1675 121.261 36.1047 120.863 29.9853Z" transform="translate(24 26)" id="path_1" />
    <clipPath id="mask_1">
      <use xlink:href="#path_1" />
    </clipPath>
  </defs>
  <g id="Facial-HairBeard-Magestic">
    <path d="M41.1802 51.7373C43.3632 50.1045 56.4065 49.4786 58.7578 48.0894C59.4916 47.6554 60.0611 47.2157 60.4998 46.78C60.9388 47.2157 61.5086 47.6554 62.2424 48.0894C64.5934 49.4786 77.6367 50.1045 79.8197 51.7373C82.03 53.3908 83.6436 57.1847 83.467 60.1509C83.255 63.7101 79.3615 72.2029 69.6723 73.1811C67.5577 70.8282 64.2369 69.3105 60.4998 69.3105C56.7634 69.3105 53.4422 70.8282 51.3276 73.1811C41.6387 72.2029 37.7452 63.7101 37.5332 60.1509C37.3566 57.1847 38.9702 53.3908 41.1802 51.7373M79.1416 68.9064C79.143 68.9057 79.1446 68.9051 79.1459 68.9047C79.1443 68.9051 79.143 68.9057 79.1416 68.9064M41.8454 68.9014C41.8493 68.9031 41.8566 68.9057 41.8619 68.9077C41.8566 68.9057 41.851 68.9034 41.8454 68.9014M120.863 29.9853C120.474 24.0304 119.278 18.1519 118.234 12.2863C117.953 10.7072 116.424 0 115.735 0C115.502 9.10941 114.702 18.0804 113.67 27.1394C113.361 29.8476 113.038 32.5564 112.825 35.2742C112.654 37.4696 112.96 40.1221 112.428 42.2456C111.749 44.9525 108.348 47.4784 105.703 48.4108C99.1029 50.7373 93.5978 41.1078 87.961 38.2911C80.6433 34.6347 68.0637 33.764 60.5816 38.5298C52.9361 33.764 40.3566 34.6347 33.0389 38.2911C27.4024 41.1078 21.897 50.7373 15.2972 48.4108C12.6521 47.4784 9.25043 44.9525 8.5724 42.2456C8.04027 40.1221 8.34628 37.4696 8.17495 35.2742C7.96237 32.5564 7.63887 29.8476 7.33022 27.1394C6.29832 18.0804 5.4975 9.10941 5.26543 0C4.57618 0 3.04682 10.7072 2.7659 12.2863C1.72212 18.1519 0.525827 24.0304 0.137626 29.9853C-0.261467 36.1047 0.21487 42.1675 1.46959 48.1633C2.06872 51.0277 2.76854 53.8756 3.51886 56.7041C4.3527 59.8467 3.19899 65.9661 3.57234 69.1921C4.27876 75.2957 7.15428 87.1997 10.3833 92.451C11.9441 94.9891 13.7735 96.5737 15.8165 98.6191C17.7826 100.588 18.6039 103.64 20.7261 105.737C24.682 109.645 30.4456 111.971 36.3657 112.543C41.6774 117.05 50.5056 120 60.4998 120C70.4946 120 79.3225 117.05 84.6345 112.543C90.5539 111.971 96.3178 109.645 100.274 105.737C102.396 103.64 103.217 100.588 105.184 98.6191C107.226 96.5737 109.056 94.9891 110.617 92.451C113.846 87.1997 116.721 75.2957 117.428 69.1921C117.801 65.9661 116.647 59.8467 117.481 56.7041C118.232 53.8756 118.931 51.0277 119.531 48.1633C120.785 42.1675 121.261 36.1047 120.863 29.9853Z" transform="translate(24 26)" id="Glorious-Beard" fill="#5E7AA9" fill-rule="evenodd" stroke="none" />
    <g clip-path="url(#mask_1)">
      <g id="Facial-Hair-Color">
        <path d="M0 0L168 0L168 152L0 152L0 0Z" id="Color" fill="#724133" fill-rule="evenodd" stroke="none" />
      </g>
    </g>
  </g>
</svg>