<?xml version="1.0" encoding="utf-8"?>
<svg width="168px" height="152px" viewbox="0 0 168 152" version="1.1" xmlns:xlink="http://www.w3.org/1999/xlink" xmlns="http://www.w3.org/2000/svg">
  <defs>
    <path d="M59.5044 67.841C47.9931 68.2191 42.8581 73.7214 38.9909 68.1296C36.0884 63.9324 37.3029 56.8739 40.0149 52.9027C43.8739 47.2512 49.1089 49.9848 54.9623 49.34C56.5539 49.1648 58.1527 48.7228 59.5044 48C60.8562 48.7228 62.4546 49.1648 64.0462 49.34C69.9 49.9848 75.1347 47.2512 78.9939 52.9027C81.7056 56.8739 82.9201 63.9324 80.0176 68.1296C76.1504 73.7214 71.0158 67.4629 59.5044 67.841ZM115.391 2.84217e-14C111.967 14.0748 110.393 28.4338 107.91 42.6711C107.393 45.639 106.826 48.5963 106.225 51.5496C106.098 52.1698 105.974 54.4726 105.363 54.7643C103.512 55.6484 99.7392 50.9467 98.7304 49.8852C96.1969 47.2193 93.685 44.5292 90.5994 42.4372C84.3648 38.2103 77.0655 35.7109 69.4701 35.1178C66.2922 34.8694 61.9951 35.3025 59.0001 37.1104C56.0051 35.3025 51.708 34.8694 48.5298 35.1178C40.9344 35.7109 33.6351 38.2103 27.4005 42.4372C24.3149 44.5292 21.8033 47.2193 19.2695 49.8852C18.2607 50.9467 14.4883 55.6484 12.6372 54.7643C12.0261 54.4726 11.9016 52.1698 11.7753 51.5496C11.1738 48.5963 10.6074 45.639 10.0899 42.6711C7.60721 28.4338 6.03371 14.0748 2.60914 2.84217e-14C1.61275 2.84217e-14 0.738512 18.7478 0.627345 20.4946C0.174784 27.589 -0.353604 34.5255 0.321635 41.6261C1.4858 53.8749 2.69938 69.2339 12.0326 78.5875C20.4659 87.0395 32.7103 88.8064 43.2713 94.1413C44.6311 94.8282 46.4348 95.6763 48.3799 96.3711C50.4289 97.9342 54.4927 99 59.1741 99C64.0846 99 68.3155 97.8275 70.2541 96.1379C71.9549 95.4926 73.5181 94.7529 74.7286 94.1413C85.2888 88.8052 97.534 87.0395 105.967 78.5875C115.301 69.2339 116.514 53.8749 117.679 41.6261C118.353 34.5255 117.825 27.589 117.373 20.4946C117.261 18.7478 116.387 2.84217e-14 115.391 2.84217e-14Z" transform="translate(25 26)" id="path_1" />
    <clipPath id="mask_1">
      <use xlink:href="#path_1" />
    </clipPath>
  </defs>
  <g id="Facial-HairBeard-Medium">
    <path d="M59.5044 67.841C47.9931 68.2191 42.8581 73.7214 38.9909 68.1296C36.0884 63.9324 37.3029 56.8739 40.0149 52.9027C43.8739 47.2512 49.1089 49.9848 54.9623 49.34C56.5539 49.1648 58.1527 48.7228 59.5044 48C60.8562 48.7228 62.4546 49.1648 64.0462 49.34C69.9 49.9848 75.1347 47.2512 78.9939 52.9027C81.7056 56.8739 82.9201 63.9324 80.0176 68.1296C76.1504 73.7214 71.0158 67.4629 59.5044 67.841ZM115.391 2.84217e-14C111.967 14.0748 110.393 28.4338 107.91 42.6711C107.393 45.639 106.826 48.5963 106.225 51.5496C106.098 52.1698 105.974 54.4726 105.363 54.7643C103.512 55.6484 99.7392 50.9467 98.7304 49.8852C96.1969 47.2193 93.685 44.5292 90.5994 42.4372C84.3648 38.2103 77.0655 35.7109 69.4701 35.1178C66.2922 34.8694 61.9951 35.3025 59.0001 37.1104C56.0051 35.3025 51.708 34.8694 48.5298 35.1178C40.9344 35.7109 33.6351 38.2103 27.4005 42.4372C24.3149 44.5292 21.8033 47.2193 19.2695 49.8852C18.2607 50.9467 14.4883 55.6484 12.6372 54.7643C12.0261 54.4726 11.9016 52.1698 11.7753 51.5496C11.1738 48.5963 10.6074 45.639 10.0899 42.6711C7.60721 28.4338 6.03371 14.0748 2.60914 2.84217e-14C1.61275 2.84217e-14 0.738512 18.7478 0.627345 20.4946C0.174784 27.589 -0.353604 34.5255 0.321635 41.6261C1.4858 53.8749 2.69938 69.2339 12.0326 78.5875C20.4659 87.0395 32.7103 88.8064 43.2713 94.1413C44.6311 94.8282 46.4348 95.6763 48.3799 96.3711C50.4289 97.9342 54.4927 99 59.1741 99C64.0846 99 68.3155 97.8275 70.2541 96.1379C71.9549 95.4926 73.5181 94.7529 74.7286 94.1413C85.2888 88.8052 97.534 87.0395 105.967 78.5875C115.301 69.2339 116.514 53.8749 117.679 41.6261C118.353 34.5255 117.825 27.589 117.373 20.4946C117.261 18.7478 116.387 2.84217e-14 115.391 2.84217e-14Z" transform="translate(25 26)" id="Beardness" fill="#252E32" fill-rule="evenodd" stroke="none" />
    <g clip-path="url(#mask_1)">
      <g id="Facial-Hair-Color">
        <path d="M0 0L168 0L168 152L0 152L0 0Z" id="Color" fill="#724133" fill-rule="evenodd" stroke="none" />
      </g>
    </g>
  </g>
</svg>