<?xml version="1.0" encoding="utf-8"?>
<svg width="168px" height="152px" viewbox="0 0 168 152" version="1.1" xmlns:xlink="http://www.w3.org/1999/xlink" xmlns="http://www.w3.org/2000/svg">
  <defs>
    <path d="M15.5482 3.67806C17.1751 2.70279 18.7552 1.75562 20.3885 1.13169C25.5782 -0.851086 35.2084 -0.288754 42.0003 3.29707C48.7922 -0.288754 58.4224 -0.851086 63.612 1.13169C65.2453 1.75562 66.8254 2.70279 68.4524 3.67806C72.5772 6.15061 77.0033 8.8038 83.3618 6.82838C83.7306 6.71365 84.0911 7.04495 83.9805 7.40866C82.6071 11.9183 74.9727 15.0069 72.3787 15.1081C66.1721 15.3497 60.6261 12.8468 55.2528 10.4218C50.8093 8.41635 46.4838 6.46421 42.0003 6.16148C37.5167 6.46421 33.1912 8.41638 28.7477 10.4218C23.3744 12.8468 17.8286 15.3497 11.6222 15.1081C9.02783 15.0069 1.39379 11.9183 0.0204089 7.40866C-0.0905275 7.04495 0.269931 6.71365 0.63882 6.82838C6.99727 8.8038 11.4234 6.15061 15.5482 3.67806Z" transform="translate(42 66)" id="path_1" />
    <clipPath id="mask_1">
      <use xlink:href="#path_1" />
    </clipPath>
  </defs>
  <g id="Facial-HairMoustache-Fancy">
    <path d="M15.5482 3.67806C17.1751 2.70279 18.7552 1.75562 20.3885 1.13169C25.5782 -0.851086 35.2084 -0.288754 42.0003 3.29707C48.7922 -0.288754 58.4224 -0.851086 63.612 1.13169C65.2453 1.75562 66.8254 2.70279 68.4524 3.67806C72.5772 6.15061 77.0033 8.8038 83.3618 6.82838C83.7306 6.71365 84.0911 7.04495 83.9805 7.40866C82.6071 11.9183 74.9727 15.0069 72.3787 15.1081C66.1721 15.3497 60.6261 12.8468 55.2528 10.4218C50.8093 8.41635 46.4838 6.46421 42.0003 6.16148C37.5167 6.46421 33.1912 8.41638 28.7477 10.4218C23.3744 12.8468 17.8286 15.3497 11.6222 15.1081C9.02783 15.0069 1.39379 11.9183 0.0204089 7.40866C-0.0905275 7.04495 0.269931 6.71365 0.63882 6.82838C6.99727 8.8038 11.4234 6.15061 15.5482 3.67806Z" transform="translate(42 66)" id="Moustache-U-a-Question" fill="#28354B" fill-rule="evenodd" stroke="none" />
    <g clip-path="url(#mask_1)">
      <g id="Facial-Hair-Color">
        <path d="M0 0L168 0L168 152L0 152L0 0Z" id="Color" fill="#724133" fill-rule="evenodd" stroke="none" />
      </g>
    </g>
  </g>
</svg>