<?xml version="1.0" encoding="utf-8"?>
<svg width="168px" height="152px" viewbox="0 0 168 152" version="1.1" xmlns:xlink="http://www.w3.org/1999/xlink" xmlns="http://www.w3.org/2000/svg">
  <defs>
    <path d="M31.998 3.93802C29.4972 0.602405 19.7311 -0.81067 12.7214 0.464335C3.06808 2.22072 -1.02313 12.767 0.215536 14.6791C0.987259 15.8701 2.6973 15.4718 4.47528 15.0576C5.28922 14.868 6.11739 14.6751 6.87631 14.6298C8.36213 14.5414 10.2162 14.8481 12.322 15.1965C17.3031 16.0206 23.6929 17.0777 29.9497 13.6891C30.761 13.2497 31.457 12.6087 31.998 11.8397C32.539 12.6087 33.235 13.2497 34.0463 13.6891C40.3031 17.0777 46.6926 16.0206 51.6738 15.1965C53.7796 14.8482 55.6338 14.5414 57.1197 14.6298C57.8786 14.6751 58.7068 14.868 59.5207 15.0576C61.2987 15.4718 63.0088 15.8701 63.7805 14.6791C65.0191 12.767 60.9279 2.22072 51.2743 0.464335C44.2649 -0.81067 34.4988 0.602405 31.998 3.93802Z" transform="translate(52 63)" id="path_1" />
    <clipPath id="mask_1">
      <use xlink:href="#path_1" />
    </clipPath>
  </defs>
  <g id="Facial-HairMoustache-Magnum">
    <path d="M31.998 3.93802C29.4972 0.602405 19.7311 -0.81067 12.7214 0.464335C3.06808 2.22072 -1.02313 12.767 0.215536 14.6791C0.987259 15.8701 2.6973 15.4718 4.47528 15.0576C5.28922 14.868 6.11739 14.6751 6.87631 14.6298C8.36213 14.5414 10.2162 14.8481 12.322 15.1965C17.3031 16.0206 23.6929 17.0777 29.9497 13.6891C30.761 13.2497 31.457 12.6087 31.998 11.8397C32.539 12.6087 33.235 13.2497 34.0463 13.6891C40.3031 17.0777 46.6926 16.0206 51.6738 15.1965C53.7796 14.8482 55.6338 14.5414 57.1197 14.6298C57.8786 14.6751 58.7068 14.868 59.5207 15.0576C61.2987 15.4718 63.0088 15.8701 63.7805 14.6791C65.0191 12.767 60.9279 2.22072 51.2743 0.464335C44.2649 -0.81067 34.4988 0.602405 31.998 3.93802Z" transform="translate(52 63)" id="Hey..." fill="#28354B" fill-rule="evenodd" stroke="none" />
    <g clip-path="url(#mask_1)">
      <g id="Facial-Hair-Color">
        <path d="M0 0L168 0L168 152L0 152L0 0Z" id="Color" fill="#724133" fill-rule="evenodd" stroke="none" />
      </g>
    </g>
  </g>
</svg>