<?xml version="1.0" encoding="UTF-8"?>
<svg width="266px" height="280px" viewBox="0 0 266 280" version="1.1" xmlns="http://www.w3.org/2000/svg" xmlns:xlink="http://www.w3.org/1999/xlink">
    <defs>
        <path d="M83.4984286,93.8410391 C72.1241067,94.2191416 67.0502492,99.7213834 63.2291365,94.1296214 C60.3611827,89.9323547 61.5611932,82.8739117 64.2409566,78.9027173 C68.0539313,73.2512381 73.2266239,75.9847769 79.010342,75.3400279 C80.5830033,75.1648137 82.1627854,74.7228407 83.4984286,74 C84.8340717,74.7228407 86.4135147,75.1648137 87.986176,75.3400279 C93.7702332,75.9847769 98.9425868,73.2512381 102.755901,78.9027173 C105.435325,82.8739117 106.635335,89.9323547 103.767382,94.1296214 C99.9462689,99.7213834 94.8727504,93.4629366 83.4984286,93.8410391 Z M138.719768,26 C135.335967,40.0748212 133.781202,54.4337754 131.327683,68.6711471 C130.816435,71.6390145 130.256705,74.5963095 129.662396,77.5496398 C129.537635,78.1697764 129.414569,80.4725746 128.810767,80.7643064 C126.981731,81.6484223 123.254159,76.9466834 122.257428,75.8851496 C119.754073,73.219256 117.272077,70.5292442 114.223231,68.437233 C108.062822,64.2102603 100.85042,61.7108818 93.3454397,61.117837 C90.2053971,60.8693859 85.9594573,61.3025234 83.0001146,63.1104016 C80.0407719,61.3025234 75.7948321,60.8693859 72.6544504,61.117837 C65.1494705,61.7108818 57.9370685,64.2102603 51.7766588,68.437233 C48.7278137,70.5292442 46.2461561,73.219256 43.742462,75.8851496 C42.7457307,76.9466834 39.018159,81.6484223 37.1891231,80.7643064 C36.5853209,80.4725746 36.4622551,78.1697764 36.3374942,77.5496398 C35.7431847,74.5963095 35.1834557,71.6390145 34.6722071,68.6711471 C32.2190276,54.4337754 30.6642623,40.0748212 27.2804612,26 C26.2959348,26 25.432101,44.7478165 25.3222572,46.4945731 C24.8750842,53.5889755 24.3529868,60.5254529 25.0201865,67.6261326 C26.1704958,79.8749043 27.3696246,95.2339402 36.5917624,104.58753 C44.9246396,113.039493 57.0232778,114.806417 67.4585647,120.141327 C68.8021178,120.828202 70.5843683,121.676306 72.5062968,122.37111 C74.5309497,123.934171 78.546353,125 83.1719999,125 C88.024115,125 92.2046231,123.827456 94.1201102,122.137856 C95.8006534,121.49261 97.3452479,120.752874 98.5413255,120.141327 C108.975814,114.805245 121.075251,113.039493 129.408128,104.58753 C138.630266,95.2339402 139.829394,79.8749043 140.980043,67.6261326 C141.646903,60.5254529 141.124806,53.5889755 140.677972,46.4945731 C140.567789,44.7478165 139.703955,26 138.719768,26 Z" id="path-1"></path>
        <path d="M86,0 C115.850571,0 167.918252,44.1482824 168.000151,91.3235294 C168.044199,116.801277 158.377483,132.360101 139,138 C145.115031,82.1102588 107.402843,69.4138942 83.9702592,55.8163276 C60.5120434,69.4137349 22.8617466,82.1099083 29.0002187,138 C9.62244645,132.999216 -0.0442710553,117.440393 6.61437384e-05,91.3235294 C0.0804892181,44.1482783 52.0737254,0 82.0002187,0 C82.6683765,0 83.3326638,0.0296272423 83.9914566,0.0880458459 C84.6556388,0.0296490547 85.3257817,0 86,0 Z" id="path-3"></path>
    </defs>
    <g id="Top/Accesories/Turban" stroke="none" stroke-width="1" fill="none" fill-rule="evenodd">
        <g id="Facial-Hair" transform="translate(49.000000, 72.000000)"></g>
        <g id="Turban" transform="translate(1.000000, 0.000000)">
            <path d="M132,57 C164.5848,57 191,71.7746033 191,90 C191,92.579787 190.470742,95.0904336 189.469644,97.4998241 C183.397224,82.8874705 159.971815,72 132,72 C104.027546,72 80.6017061,82.8879678 74.5303563,97.5001759 C73.5294049,95.0911291 73,92.5801444 73,90 C73,71.7746033 99.4151998,57 132,57 Z" id="Band" fill="#EDECE3"></path>
            <g transform="translate(48.000000, 3.000000)">
                <mask id="mask-4" fill="white">
                    <use xlink:href="#path-3"></use>
                </mask>
                <use id="Turban-Mask" fill="#124C74" xlink:href="#path-3"></use>
                <g id="Fabric-Color" mask="url(#mask-4)" fill="#25557C">
                    <g transform="translate(-48.000000, -3.000000)" id="ðŸ–Color">
                        <rect x="0" y="0" width="264" height="280"></rect>
                    </g>
                </g>
            </g>
            <path d="M48.0000661,97.0294118 L48.012193,96.0944187 C48.4018267,121.14477 58.0645019,136.113297 77.0002187,141 L77.0002187,141 C57.6224465,136.289117 47.9557289,121.632254 48.0000661,97.0294118 Z M148.000219,50.135763 C136.876771,71.5104523 76.8779193,72.0015399 76.3370145,129.226222 C76.4044891,67.7592437 136.832956,67.3235487 148.000219,44.5441176 C150.669276,39.5679117 152.14065,34.8372142 152.645488,30.4709975 C153.389794,36.1969843 152.125686,42.8901052 148.000219,50.135763 Z" id="Shadow" fill-opacity="0.16" fill="#000000"></path>
        </g>
        <g id="Accessory" transform="translate(62.000000, 85.000000)"></g>
    </g>
</svg>