<svg viewBox="30.359999999999985 28.557692307692307 203.28000000000003 83.29326923076924" xmlns="http://www.w3.org/2000/svg" xmlns:xlink="http://www.w3.org/1999/xlink" xmlns:blush="http://design.blush" overflow="visible" width="203.28000000000003px" height="83.29326923076924px">
    <g id="Clothing/Bond Suit" stroke="none" stroke-width="1" fill="none" fill-rule="evenodd">
        <g id="Suit" transform="translate(31.500000, 28.600000)">
            <path d="M124.379699,3.0005061 L128.359699,3.0005061 C167.925874,3.0005061 199.999699,34.434727 199.999699,73.2118883 L199.999699,81.9883111 L0.9996985,81.9883111 L0.9996985,73.2118883 L1.0096485,72.050475 C1.6424685,33.8096507 33.4695335,3.0005061 72.6396985,3.0005061 L76.6196985,3.0005061 C76.6196985,3.0005061 76.4236835,15.1129447 100.491739,15.1129447 C124.559794,15.1129447 124.379699,3.0005061 124.379699,3.0005061" id="Fabric-Color" fill="#60ADE6" blush:color="Top-500" />
            <path d="M86.846271,30.4401 L100.520301,16.6691854 L114.194331,30.4401 L142.147401,2.28791707 C137.769621,1.45386829 133.258176,1.00040488 128.639196,1.00040488 L124.619196,1.00040488 C124.619196,1.00040488 124.801101,13.5728805 100.491156,13.5728805 C76.181211,13.5728805 76.380201,1.00040488 76.380201,1.00040488 L72.360201,1.00040488 C67.753281,1.00040488 63.252891,1.44981951 58.885161,2.27981951 L86.846271,30.4401 Z" id="Fill-7" fill="#FFF" />
            <path d="M128.639698,0.000506097561 L124.640803,0.000506097561 L124.640803,81.988311 L200.999698,81.988311 L200.999698,72.8785549 C200.999698,32.6286159 168.603523,0.000506097561 128.639698,0.000506097561" id="Fill-9" fill="#191919" />
            <path d="M76.380201,0.000506097561 L72.360201,0.000506097561 C32.796366,0.000506097561 0.649431,31.9797988 0.009246,71.6730305 L0.000201,72.8785549 L0.000201,81.988311 L76.380201,81.988311 L76.380201,0.000506097561 Z" id="Fill-12" fill="#191919" />
            <path d="M66.873906,0.206082927 L40.132866,43.4571805 L62.584566,56.6946683 L48.757776,75.9982415 L55.328466,81.9884122 L76.380201,81.9884122 L76.380201,0.000607317073 C76.380201,0.000607317073 73.264701,0.0431195122 66.873906,0.206082927" id="Fill-15" fill="#2B2B2B" />
            <path d="M134.28006,0.224909756 L160.887435,43.4577878 L138.435735,56.6942634 L152.26353,75.9978366 L145.69083,81.9880073 L124.6401,81.9869951 L124.6401,-0.000809756098 C124.6401,-0.000809756098 127.889265,0.0619463415 134.28006,0.224909756" id="Fill-18" fill="#2B2B2B" />
            <path d="M117.319471,4.55653649 L104.309494,9.42526147 C103.959547,8.06616124 102.826255,7.06466754 101.46774,7.06466754 L99.5726387,7.06466754 C98.2087401,7.06466754 97.0727562,8.07300071 96.7272951,9.43894041 L83.6805286,4.55653649 C81.6014805,3.86379597 79.5,5.55705312 79.5,7.92546359 L79.5,20.8755099 C79.5,23.2429433 81.6014805,24.9362005 83.6805286,24.24346 L96.7272951,19.3620331 C97.0727562,20.7269957 98.2087401,21.7353289 99.5726387,21.7353289 L101.46774,21.7353289 C102.826255,21.7353289 103.959547,20.7328581 104.308597,19.3757121 L117.319471,24.24346 C119.398519,24.9362005 121.5,23.2429433 121.5,20.8755099 L121.5,7.92546359 C121.5,5.55705312 119.398519,3.86379597 117.319471,4.55653649" id="Fill-1" fill="#191919" />
        </g>
    </g>
</svg>