<svg viewBox="55.44 25.913461538461533 153.11999999999998 84.61538461538461" xmlns="http://www.w3.org/2000/svg" xmlns:xlink="http://www.w3.org/1999/xlink" xmlns:blush="http://design.blush" overflow="visible" width="153.11999999999998px" height="84.61538461538461px">
    <g id="Clothing/Gladiator" stroke="none" stroke-width="1" fill="none" fill-rule="evenodd">
        <g id="Armor" transform="translate(56.000000, 27.000000)">
            <polygon id="Fill-1" fill="#60ADE6" points="89.8983 21.7978 62.2013 21.7978 31.6003 21.7978 0.0003 52.3028 0.0003 82.5488 62.2013 82.5488 89.8983 82.5488 152.1003 82.5488 152.1003 52.3028 120.5003 21.7978" blush:color="Top-500" />
            <path d="M31.6002,21.7976 L11.5112,41.1916 C12.1622,50.0706 19.5552,57.0766 28.6002,57.0766 L28.6002,57.0766 C38.0742,57.0766 45.7542,49.3976 45.7542,39.9236 L45.7542,21.7976 L31.6002,21.7976 Z" id="Fill-2" fill-opacity=".24" fill="#000" />
            <path d="M14.1613,5.9939 C14.1613,5.9939 25.3313,-0.0001 43.0393,-0.0001 L43.0393,37.7339 C43.0393,45.7089 36.5753,52.1739 28.6003,52.1739 L28.6003,52.1739 C20.6263,52.1739 14.1613,45.7089 14.1613,37.7339 L14.1613,5.9939 Z" id="Fill-4" fill="#60ADE6" blush:color="Top-500" />
            <path d="M120.756,21.7976 L140.845,41.1916 C140.193,50.0706 132.801,57.0766 123.755,57.0766 C114.281,57.0766 106.602,49.3976 106.602,39.9236 L106.602,21.7976 L120.756,21.7976 Z" id="Fill-6" fill-opacity=".24" fill="#000" />
            <path d="M138.1945,5.9939 C138.1945,5.9939 127.0245,-0.0001 109.3165,-0.0001 L109.3165,37.7339 C109.3165,45.7089 115.7805,52.1739 123.7555,52.1739 C131.7295,52.1739 138.1945,45.7089 138.1945,37.7339 L138.1945,5.9939 Z" id="Fill-8" fill="#60ADE6" blush:color="Top-500" />
            <path d="M36.5011,37.0515 C36.5011,40.9635 33.3301,44.1345 29.4181,44.1345 C25.5051,44.1345 22.3341,40.9635 22.3341,37.0515 C22.3341,33.1395 25.5051,29.9685 29.4181,29.9685 C33.3301,29.9685 36.5011,33.1395 36.5011,37.0515" id="Fill-10" fill-opacity=".24" fill="#000" />
            <path d="M130.839,37.0515 C130.839,40.9635 127.667,44.1345 123.755,44.1345 C119.843,44.1345 116.672,40.9635 116.672,37.0515 C116.672,33.1395 119.843,29.9685 123.755,29.9685 C127.667,29.9685 130.839,33.1395 130.839,37.0515" id="Fill-12" fill-opacity=".24" fill="#000" />
            <path d="M33.6227,82.5486 L62.2017,82.5486 L89.8987,82.5486 L119.0577,82.5486 C112.9127,64.8676 96.1137,52.1736 76.3397,52.1736 C56.5667,52.1736 39.7687,64.8676 33.6227,82.5486" id="Fill-14" fill-opacity=".24" fill="#000" />
            <g id="Fabric-Color" mask="url(#fabric-mask)" fill="">
                <rect x="0" y="0" width="264" height="110"></rect>
            </g>
            <mask id="fabric-mask" fill="white">
                <use xlink:href="#Fill-1"></use>
                <use xlink:href="#Fill-4"></use>
                <use xlink:href="#Fill-8"></use>
            </mask>
        </g>
    </g>
</svg>