<?xml version="1.0" encoding="UTF-8"?>
<svg width="266px" height="280px" viewBox="0 0 266 280" version="1.1" xmlns="http://www.w3.org/2000/svg" xmlns:xlink="http://www.w3.org/1999/xlink">
    <defs>
        <path d="M117.002651,0 L117.002651,0.0159928999 C160.088708,0.768171773 190.165705,9.53932757 201.802634,46 C212.417524,79.7037241 203.098314,88.8033026 201.919726,105.269073 C201.916085,105.32466 201.912167,105.380571 201.908344,105.436567 C201.864727,106.073528 201.83368,106.72115 201.816473,107.381704 C201.814069,107.474906 201.811925,107.567811 201.810058,107.660975 C201.806981,107.813943 201.804658,107.96829 201.803108,108.123365 C201.80245,108.18963 201.801933,108.255331 201.801555,108.321163 L201.801047,108.433287 L201.801047,108.433287 L201.802634,109 L201.802634,109 C201.633621,128.588232 232.060804,125.971596 233.002628,155 C233.282701,183.560973 211.465525,186.255758 211.831204,198 C211.850395,198.720035 212.027214,199.525437 212.333958,200.4081 C212.349073,200.451592 212.364373,200.494905 212.37998,200.538402 C212.470661,200.791163 212.571911,201.050604 212.682927,201.316078 C212.724579,201.415685 212.767684,201.516318 212.812134,201.617792 C212.833301,201.666109 212.854421,201.713828 212.875833,201.761731 C212.910244,201.838728 212.945869,201.917199 212.982253,201.996152 C213.097532,202.24631 213.220439,202.501342 213.350484,202.761082 C213.392459,202.844919 213.435148,202.929189 213.478564,203.013944 C213.520361,203.095538 213.562793,203.177509 213.605883,203.259925 C213.646492,203.337598 213.687876,203.416024 213.729838,203.494844 C213.955293,203.918333 214.197352,204.353104 214.454201,204.798724 C214.514274,204.902952 214.575767,205.008818 214.63806,205.115282 C214.802785,205.396807 214.973077,205.682464 215.148508,205.972169 C215.326144,206.265514 215.509081,206.563061 215.696815,206.864619 C216.09519,207.504535 216.51519,208.16256 216.952253,208.837326 L217.08631,209.043998 C217.263445,209.316707 217.443264,209.592101 217.625472,209.870095 C217.801615,210.138832 217.97982,210.40974 218.159988,210.682995 C218.64568,211.419633 219.146252,212.174241 219.655899,212.944415 L219.907727,213.325153 C220.470253,214.176092 221.042678,215.04548 221.618091,215.931297 C222.216757,216.852903 222.819137,217.793045 223.416956,218.748716 L223.162146,218.342728 C223.316647,218.588095 223.470918,218.834517 223.624826,219.081954 L223.624577,219.081553 C223.89515,219.516553 224.164351,219.954285 224.431706,220.394938 L224.354349,220.267604 C224.497698,220.50326 224.640536,220.739759 224.782754,220.977069 L224.431706,220.394938 C224.601708,220.675135 224.770963,220.956513 224.939284,221.239017 L224.939206,221.238885 C225.252819,221.765242 225.563116,222.295376 225.868967,222.829064 L225.65436,222.456412 C225.80703,222.720243 225.958676,222.984968 226.109152,223.250545 L225.868967,222.829064 C225.98821,223.037136 226.106778,223.245748 226.224599,223.454879 L226.109152,223.250545 C226.260113,223.51698 226.409896,223.784272 226.558352,224.052378 L226.224599,223.454879 C226.365787,223.705487 226.505902,223.95684 226.644822,224.208904 L226.558352,224.052378 C226.69304,224.295619 226.826636,224.53953 226.959028,224.784078 L226.644822,224.208904 C226.81367,224.515273 226.980753,224.822691 227.145848,225.131094 L226.959028,224.784078 C227.07931,225.006255 227.198598,225.228959 227.31681,225.452163 L227.145848,225.131094 C227.308065,225.43412 227.468363,225.738097 227.626534,226.042963 L227.31681,225.452163 C227.446257,225.696584 227.574414,225.941605 227.701172,226.187196 L227.626534,226.042963 C227.745553,226.272366 227.863367,226.502273 227.979888,226.732657 L227.701172,226.187196 C227.849199,226.473998 227.995317,226.761576 228.139352,227.04988 L227.979888,226.732657 C228.098865,226.967898 228.216492,227.203637 228.332676,227.439846 L228.139352,227.04988 C228.273818,227.31903 228.406469,227.588813 228.537163,227.859187 L228.332676,227.439846 C228.451022,227.680452 228.56787,227.921545 228.683119,228.163097 L228.537163,227.859187 C228.669132,228.132199 228.799106,228.405814 228.92694,228.679989 L228.683119,228.163097 C228.772857,228.35118 228.861626,228.539542 228.949378,228.728167 L228.92694,228.679989 C229.04113,228.924904 229.153613,229.170266 229.264284,229.416044 L228.949378,228.728167 C229.124159,229.103863 229.294906,229.480606 229.461246,229.858286 L229.264284,229.416044 C229.382201,229.677918 229.498062,229.940265 229.61174,230.203048 L229.461246,229.858286 C229.568216,230.101167 229.673363,230.344436 229.776588,230.588063 L229.61174,230.203048 C229.729146,230.474449 229.844224,230.746316 229.956836,231.018607 L229.776588,230.588063 C229.871685,230.812508 229.965151,231.037257 230.056906,231.262288 L229.956836,231.018607 C230.06751,231.286215 230.175802,231.554234 230.28158,231.822624 L230.056906,231.262288 C230.177293,231.557534 230.294736,231.853265 230.40906,232.14943 L230.28158,231.822624 C230.382936,232.079794 230.481984,232.337305 230.578608,232.595123 L230.40906,232.14943 C230.523283,232.445331 230.634392,232.741665 230.742213,233.03838 L230.578608,232.595123 C230.678102,232.860598 230.775026,233.1264 230.869255,233.392491 L230.742213,233.03838 C230.828974,233.277142 230.913606,233.516151 230.996017,233.755379 L230.869255,233.392491 C230.967607,233.670226 231.063022,233.948277 231.155357,234.226602 L230.996017,233.755379 C231.053703,233.922834 231.110301,234.090397 231.165779,234.258058 L231.155357,234.226602 C231.241183,234.485306 231.324348,234.744247 231.404736,235.00339 L231.404818,235.003652 C231.571105,235.539703 231.725582,236.076882 231.867146,236.614631 L231.792784,236.336565 C231.821665,236.44291 231.850048,236.54928 231.877924,236.655672 L231.867146,236.614631 C231.938806,236.88684 232.007157,237.159195 232.072067,237.431657 L232.072027,237.43149 C232.137615,237.706799 232.199654,237.98205 232.258048,238.25737 C232.371154,238.790702 232.47049,239.323738 232.555186,239.856743 C232.874364,241.865385 232.985621,243.873586 232.836066,245.865879 L232.861939,245.477164 C232.845973,245.751959 232.82512,246.026471 232.799243,246.30066 L232.836066,245.865879 C232.814029,246.159445 232.786329,246.452665 232.752797,246.74549 L232.799243,246.30066 C232.775064,246.556853 232.746498,246.812764 232.713431,247.06836 L232.752797,246.74549 C232.722291,247.011886 232.686959,247.277955 232.646673,247.543659 L232.713431,247.06836 C232.677993,247.342292 232.637387,247.615861 232.591472,247.889027 L232.646673,247.543659 C232.610927,247.779418 232.57128,248.01489 232.527645,248.250049 L232.591472,247.889027 C232.546725,248.155252 232.496935,248.421095 232.441976,248.686517 L232.527645,248.250049 C232.477896,248.518152 232.422962,248.785848 232.36271,249.0531 L232.441976,248.686517 C232.387707,248.94861 232.328396,249.210293 232.263921,249.471529 L232.36271,249.0531 C232.297675,249.341568 232.226445,249.629517 232.148854,249.916899 L232.263921,249.471529 C232.199617,249.732069 232.130176,249.992166 232.055475,250.251782 L232.148854,249.916899 C232.082058,250.164299 232.010548,250.411279 231.934218,250.657807 L232.055475,250.251782 C231.977773,250.521828 231.89438,250.791355 231.805157,251.060322 L231.934218,250.657807 C231.855508,250.912022 231.771673,251.165756 231.682596,251.418978 L231.805157,251.060322 C231.719254,251.319279 231.627948,251.577717 231.531115,251.835601 L231.682596,251.418978 C231.596224,251.66451 231.504925,251.90956 231.408591,252.154096 L231.531115,251.835601 C231.433138,252.096529 231.329503,252.35689 231.220082,252.616645 L231.408591,252.154096 C231.297401,252.436344 231.179505,252.717908 231.054741,252.99874 L231.220082,252.616645 C231.110384,252.877056 230.994871,253.136859 230.873414,253.396015 L231.054741,252.99874 C230.939822,253.25741 230.819075,253.515459 230.692375,253.772849 L230.873414,253.396015 C230.753342,253.652215 230.62746,253.907784 230.495645,254.162685 L230.692375,253.772849 C230.561434,254.038853 230.424134,254.304154 230.280334,254.56871 L230.495645,254.162685 C230.363464,254.418295 230.225315,254.673233 230.081074,254.927463 L230.280334,254.56871 C230.14003,254.826834 229.993538,255.084249 229.840728,255.340918 L230.081074,254.927463 C229.935708,255.183676 229.784154,255.43917 229.626284,255.693907 L229.840728,255.340918 C229.698033,255.580598 229.549829,255.819627 229.396009,256.057973 L229.626284,255.693907 C229.463401,255.956732 229.293795,256.218751 229.117324,256.479923 L229.396009,256.057973 C229.237192,256.304061 229.07239,256.549422 228.901485,256.794022 L229.117324,256.479923 C228.949775,256.727891 228.776037,256.975096 228.595991,257.221501 L228.901485,256.794022 C228.710325,257.06761 228.51153,257.340246 228.304936,257.61188 L228.595991,257.221501 C228.417767,257.465412 228.233362,257.708541 228.042658,257.950852 L228.304936,257.61188 C228.120197,257.85478 227.929223,258.09688 227.731895,258.338145 L228.042658,257.950852 C227.840543,258.207662 227.631353,258.463554 227.414948,258.718488 L227.731895,258.338145 C227.530545,258.584329 227.32258,258.829645 227.107877,259.074056 L227.414948,258.718488 C227.206994,258.963466 226.992378,259.207559 226.770977,259.450731 L227.107877,259.074056 C226.891565,259.320298 226.668413,259.565621 226.438294,259.809989 L226.770977,259.450731 C226.544424,259.699561 226.310765,259.947426 226.069869,260.194287 L226.438294,259.809989 C226.206072,260.056591 225.966754,260.30222 225.720211,260.546838 L226.069869,260.194287 C225.837062,260.43286 225.597495,260.670495 225.351048,260.907158 L225.720211,260.546838 C225.471332,260.793774 225.215089,261.03968 224.951349,261.284516 L225.351048,260.907158 C225.098892,261.149304 224.839534,261.390431 224.572846,261.630504 L224.951349,261.284516 C224.697334,261.520324 224.436364,261.75514 224.168319,261.988928 L224.572846,261.630504 C224.301554,261.874721 224.022677,262.117846 223.73608,262.35984 L224.168319,261.988928 C223.891676,262.230217 223.607497,262.470411 223.31565,262.709472 L223.73608,262.35984 C223.458197,262.594475 223.173057,262.828046 222.880536,263.060518 L223.31565,262.709472 C223.031827,262.941961 222.740752,263.173379 222.442303,263.403689 L222.880536,263.060518 C222.582765,263.297161 222.277346,263.532666 221.964149,263.766993 L222.442303,263.403689 C222.134448,263.641259 221.818748,263.877651 221.49507,264.112826 L221.964149,263.766993 C221.652586,264.000097 221.333327,264.232036 221.006242,264.462773 L221.49507,264.112826 C221.18181,264.340431 220.861078,264.566896 220.532752,264.792186 L221.006242,264.462773 C220.673177,264.697729 220.331999,264.931438 219.982572,265.163861 L220.532752,264.792186 C220.199156,265.021092 219.857721,265.248785 219.50832,265.475228 L219.982572,265.163861 C219.637479,265.393401 219.28434,265.621688 218.923027,265.848681 L219.50832,265.475228 C219.165294,265.69754 218.814591,265.918646 218.45609,266.138512 L218.923027,265.848681 C218.565598,266.073234 218.20017,266.296522 217.826616,266.518508 L218.45609,266.138512 C218.076608,266.371246 217.688389,266.602591 217.291291,266.832504 L217.291533,266.832364 L217.006906,266.996046 L217.006906,266.996046 L217,258 C217,218.633143 185.405988,186.645463 146.190652,186.009646 L145,186 L141,186 L141.001014,167.610469 C158.531251,159.282329 171.048207,142.114429 172.791415,121.867236 C178.471002,121.017289 182.849484,116.186467 182.9962,110.304975 L183,110 L183,97 C183,96.4302951 182.9603,95.8698628 182.883515,95.3213186 C161.361091,83.7352535 142.886893,67.1411635 130.842977,48.2982846 C112.764731,73.9243707 76.528028,78.53473 51.221584,94.6815727 C51.095691,95.3364529 51.0209234,96.0085831 51.0037999,96.6950252 L51,97 L51,110 C51,116.018777 55.4310943,121.002616 61.2090181,121.867253 C62.9518263,142.114813 75.4692242,159.28298 92.9999836,167.610943 L93,186 L89,186 C49.633143,186 17.6454629,217.594012 17.0096459,256.809348 L17,258 L17,267 L216.996908,267.001755 C216.996575,267.001945 216.996242,267.002136 216.995908,267.002326 L16.0093934,267.002326 C15.3477292,266.624586 14.7102754,266.242932 14.0963965,265.857549 L14.5606166,266.145505 C14.1963768,265.922248 13.8401799,265.697713 13.4919006,265.471935 L14.0963965,265.857549 C13.7261474,265.625114 13.3644741,265.391322 13.011237,265.156214 L13.4919006,265.471935 C13.1493023,265.24984 12.8143655,265.026542 12.4869706,264.802077 L13.011237,265.156214 C12.6616467,264.923534 12.3203192,264.689565 11.9871196,264.454347 L12.4869706,264.802077 C12.1665105,264.582367 11.8532763,264.361538 11.5471561,264.139624 L11.9871196,264.454347 C11.6509543,264.217036 11.323062,263.978454 11.003304,263.738641 L11.5471561,264.139624 C11.2220519,263.903947 10.9049713,263.667046 10.5957803,263.42896 L11.003304,263.738641 C10.7068283,263.51629 10.4173454,263.29288 10.1347446,263.068445 L10.5957803,263.42896 C10.28201,263.187347 9.9763647,262.944514 9.67870418,262.700501 L10.1347446,263.068445 C9.83540373,262.830716 9.54378447,262.591836 9.25975529,262.351844 L9.67870418,262.700501 C9.39602096,262.468767 9.12053921,262.235968 8.8521389,262.00214 L9.25975529,262.351844 C8.97814806,262.113898 8.70400202,261.874859 8.43718898,261.634764 L8.8521389,262.00214 C8.57127913,261.757458 8.29817352,261.511649 8.03268451,261.264754 L8.43718898,261.634764 C8.17745744,261.401042 7.92467482,261.166319 7.67872286,260.930631 L8.03268451,261.264754 C7.76681703,261.017507 7.5085879,260.769171 7.25785896,260.519786 L7.67872286,260.930631 C7.42534189,260.687823 7.17921045,260.443991 6.94019926,260.199171 L7.25785896,260.519786 C7.02355153,260.286734 6.79579402,260.052766 6.57447371,259.817915 L6.94019926,260.199171 C6.69758245,259.950658 6.46230232,259.701128 6.23422364,259.45062 L6.57447371,259.817915 C6.33487476,259.563668 6.10282021,259.308385 5.878167,259.05211 L6.23422364,259.45062 C6.01840402,259.213576 5.8090325,258.975658 5.60599451,258.736897 L5.878167,259.05211 C5.66188132,258.80538 5.45245591,258.55773 5.24976314,258.309196 L5.60599451,258.736897 C5.38738968,258.479831 5.1761268,258.221789 4.97206284,257.962813 L5.24976314,258.309196 C5.062813,258.079965 4.8815903,257.849983 4.70599488,257.619279 L4.97206284,257.962813 C4.77489298,257.712586 4.58444385,257.461487 4.40058645,257.209554 L4.70599488,257.619279 C4.50145077,257.350541 4.30454232,257.080824 4.11511123,256.810173 L4.40058645,257.209554 C4.21977889,256.9618 4.0453462,256.713239 3.87716567,256.463907 L4.11511123,256.810173 C3.94515412,256.567345 3.78121601,256.323766 3.62318258,256.079469 L3.87716567,256.463907 C3.7054077,256.209272 3.54017071,255.953832 3.38132403,255.697627 L3.62318258,256.079469 C3.46167071,255.829795 3.30632631,255.579372 3.15702735,255.328234 L3.38132403,255.697627 C3.22347503,255.443031 3.07193632,255.187679 2.92657966,254.931608 L3.15702735,255.328234 C3.00581808,255.073882 2.86080995,254.818799 2.72187617,254.563019 L2.92657966,254.931608 C2.78180136,254.676555 2.64315602,254.42079 2.51051692,254.164349 L2.72187617,254.563019 C2.57633339,254.295073 2.43745662,254.026363 2.30510011,253.756933 L2.51051692,254.164349 C2.38004859,253.912105 2.25539151,253.659207 2.13642511,253.40569 L2.30510011,253.756933 C2.17913438,253.500512 2.05907445,253.243438 1.94479468,252.985749 L2.13642511,253.40569 C2.01295588,253.142577 1.89561625,252.878798 1.7842714,252.614392 L1.94479468,252.985749 C1.82215669,252.709212 1.70617527,252.431967 1.59669517,252.154057 L1.7842714,252.614392 C1.67442709,252.35355 1.57041708,252.092097 1.47211194,251.830072 L1.59669517,252.154057 C1.5054566,251.922453 1.41873334,251.690387 1.33643551,251.457887 L1.47211194,251.830072 C1.37495001,251.571094 1.28336104,251.311557 1.19722006,251.051497 L1.33643551,251.457887 C1.24776008,251.20737 1.16422254,250.956347 1.08571048,250.704853 L1.19722006,251.051497 C1.10820312,250.782755 1.02500401,250.513455 0.947484848,250.243637 L1.08571048,250.704853 C0.995803232,250.416857 0.912486105,250.128243 0.835590273,249.839059 L0.947484848,250.243637 C0.874929682,249.991097 0.807350306,249.738104 0.744633646,249.48469 L0.835590273,249.839059 C0.768056609,249.585084 0.705475824,249.330669 0.64773355,249.075849 L0.744633646,249.48469 C0.67753937,249.213588 0.616010336,248.942005 0.559908103,248.669981 L0.64773355,249.075849 C0.594090662,248.839119 0.544623657,248.60204 0.499240837,248.364637 L0.559908103,248.669981 C0.505455497,248.405956 0.456115245,248.141516 0.411760761,247.876697 L0.499240837,248.364637 C0.441659101,248.06342 0.390652308,247.761683 0.346033162,247.45948 L0.411760761,247.876697 C0.368630642,247.619189 0.330214835,247.361323 0.29639695,247.103134 L0.346033162,247.45948 C0.307118117,247.195911 0.27306192,246.931987 0.243740315,246.667746 L0.29639695,247.103134 C0.260395137,246.828271 0.229604281,246.553042 0.203883956,246.277487 L0.243740315,246.667746 C0.219422871,246.448601 0.198361866,246.229238 0.18048642,246.009676 L0.203883956,246.277487 C0.179156925,246.012574 0.159116349,245.74736 0.143637452,245.481882 L0.18048642,246.009676 C0.156323631,245.712888 0.13798142,245.415739 0.125284727,245.11828 L0.143637452,245.481882 C0.128177376,245.216726 0.117267892,244.951307 0.110784679,244.685661 L0.110770144,244.685065 C0.093246246,243.967032 0.108099901,243.24674 0.152884429,242.525505 C0.164689409,242.335365 0.17859334,242.144937 0.194537147,241.954456 C0.265298252,241.109102 0.376221941,240.262796 0.523360318,239.416613 L0.52337288,239.416541 C0.614277876,238.893752 0.719022446,238.370939 0.836661056,237.848446 L0.836673787,237.848389 C0.962552191,237.289299 1.10320989,236.730519 1.25749075,236.17244 L1.13244198,236.636364 C1.20531614,236.358852 1.28163275,236.08149 1.36125149,235.80432 L1.36120954,235.804466 C1.51542898,235.267594 1.68198887,234.731586 1.85991227,234.196594 L1.79366322,234.397454 C1.86557204,234.177599 1.93941964,233.957909 2.0151354,233.738406 L1.85991227,234.196594 C1.94537248,233.939626 2.03345433,233.682893 2.12404492,233.426427 L2.0151354,233.738406 C2.09941247,233.494082 2.18600406,233.249989 2.2748128,233.006154 L2.27468799,233.006497 C2.48843392,232.419632 2.71488341,231.834607 2.95280601,231.251474 L2.72976896,231.807287 C2.82977463,231.553786 2.9320209,231.300618 3.03639707,231.047814 L2.95280601,231.251474 C3.05678385,230.996631 3.16295293,230.74215 3.27120013,230.488063 L3.03639707,231.047814 C3.14862744,230.775988 3.26332033,230.504583 3.38033814,230.23364 L3.27120013,230.488063 C3.37150154,230.252627 3.47358718,230.01753 3.57736706,229.782798 L3.38033814,230.23364 C3.50011643,229.956306 3.62233063,229.679457 3.74683317,229.403135 L3.57736706,229.782798 C3.67091526,229.571209 3.7658401,229.359916 3.86207566,229.148939 L3.86203091,229.149037 C4.10601151,228.61416 4.3583689,228.08141 4.61807436,227.551005 L4.49216752,227.809529 C4.61974824,227.546148 4.74917855,227.283331 4.88032756,227.021117 L4.61807436,227.551005 C4.75588167,227.269557 4.89575795,226.988768 5.03754283,226.708687 L4.88032756,227.021117 C5.00045209,226.780944 5.12201852,226.541276 5.24492627,226.302143 L5.03754283,226.708687 C5.18065338,226.425986 5.32570837,226.144006 5.47254289,225.862795 L5.24492627,226.302143 C5.37807179,226.043091 5.5127914,225.784667 5.64895723,225.526907 L5.47254289,225.862795 C5.6028635,225.61321 5.73458586,225.364231 5.86759468,225.115891 L5.64895723,225.526907 C5.78873166,225.262316 5.93002999,224.998426 6.07271392,224.735277 L5.86759468,225.115891 C6.02801827,224.816365 6.19031327,224.517768 6.35427736,224.220161 L6.07271392,224.735277 C6.20631926,224.488871 6.34113948,224.243115 6.47706106,223.998041 L6.35427736,224.220161 C6.4768505,223.997681 6.60035641,223.775754 6.72471057,223.554404 L6.47706106,223.998041 C6.62001403,223.74029 6.76418524,223.483294 6.90944262,223.227092 L6.72471057,223.554404 C6.85843069,223.316383 6.99313166,223.079029 7.12870837,222.842374 L7.12882595,222.842169 C7.4207742,222.332561 7.71690418,221.825988 8.01604769,221.322964 L7.7804813,221.720897 C7.93362799,221.460987 8.08764663,221.201995 8.24239387,220.943965 L8.01604769,221.322964 C8.17309156,221.058887 8.33096596,220.795788 8.48951889,220.533712 L8.48953915,220.533678 C8.71685545,220.157941 8.94558693,219.784272 9.17526527,219.412836 C9.5475571,218.810762 9.9226027,218.214138 10.2982277,217.62395 C10.5913868,217.163335 10.8847129,216.706926 11.1774839,216.254697 L11.1772677,216.255031 C11.9748155,215.023099 12.7680297,213.822504 13.5387982,212.658276 C14.1704892,211.70412 14.7876196,210.773618 15.3795364,209.870542 C15.4461575,209.768899 15.5121689,209.668047 15.5778494,209.567545 C15.7584692,209.291165 15.9366629,209.017303 16.1120561,208.746167 C16.4652239,208.200208 16.8066292,207.665941 17.1342951,207.143401 C17.7226772,206.20507 18.2663192,205.3053 18.7518026,204.447357 C18.7761054,204.404411 18.8007144,204.360766 18.8251702,204.31723 C18.8645468,204.247132 18.903558,204.177261 18.942164,204.107677 C19.0368805,203.936951 19.1288718,203.768479 19.2183259,203.601752 L19.2179059,203.602535 C19.2799691,203.48686 19.3404075,203.372796 19.399604,203.259571 C19.4423977,203.177724 19.4848326,203.095749 19.5265952,203.014223 C19.5708511,202.927828 19.614214,202.842212 19.65681,202.757103 C19.6929227,202.684948 19.7285888,202.612945 19.76369,202.541309 C19.8100705,202.446655 19.8554404,202.352695 19.8998013,202.259386 C20.0168607,202.013156 20.1268064,201.771655 20.229302,201.534801 C20.3972645,201.146658 20.5452021,200.771042 20.6712179,200.408463 C20.744984,200.196204 20.8111625,199.988671 20.869463,199.785707 C21.0538975,199.143674 21.1595141,198.547187 21.1740982,198 C21.5397764,186.255758 -0.277399696,183.560973 0.00267373922,155 C0.0146057413,154.632238 0.0312702779,154.269555 0.0525451767,153.911842 L0.0344150371,154.239635 C0.0485732262,153.962939 0.0654655591,153.689187 0.0850369076,153.418329 L0.0525451767,153.911842 C0.0673626291,153.662704 0.0844164693,153.415976 0.103665422,153.171621 L0.0850369076,153.418329 C0.104370282,153.150764 0.126317919,152.886023 0.150826677,152.624058 L0.103665422,153.171621 C0.124308223,152.909573 0.147475551,152.650255 0.173116497,152.393621 L0.173132905,152.393457 C0.234176128,151.782489 0.309263027,151.18658 0.397689753,150.605276 L0.346570389,150.953481 C0.380145605,150.716257 0.415920806,150.481438 0.45385065,150.248982 L0.397689753,150.605276 C0.431972393,150.379908 0.468260114,150.156734 0.506512854,149.93572 L0.45385065,150.248982 C0.494964064,149.997016 0.538608992,149.747826 0.584727689,149.501362 L0.506512854,149.93572 C0.545368511,149.711223 0.586251619,149.488953 0.629120194,149.268874 L0.629192482,149.268503 C0.732676445,148.737236 0.847818797,148.21838 0.973955422,147.711776 L0.918330263,147.938948 C0.970810181,147.720966 1.02531256,147.505235 1.08179126,147.291714 L0.973955422,147.711776 C1.03530096,147.465393 1.09924695,147.221908 1.16572533,146.98126 L1.08179126,147.291714 C1.1349821,147.090622 1.18992585,146.891489 1.24658398,146.694281 L1.16572533,146.98126 C1.22177498,146.778363 1.27962481,146.577483 1.33923401,146.378583 L1.24658398,146.694281 C1.31003665,146.473423 1.37563953,146.25498 1.44333849,146.038901 L1.44328123,146.039084 C1.59797769,145.545332 1.7635535,145.064104 1.93942073,144.59464 L1.7902438,145.002648 C1.8665779,144.788654 1.94502703,144.577069 2.02553267,144.367839 L1.93942073,144.59464 C2.00764844,144.412512 2.07742506,144.232154 2.14871291,144.053533 L2.02553267,144.367839 C2.10432001,144.163075 2.18507702,143.960567 2.26774883,143.760267 L2.14871291,144.053533 C2.2366781,143.833124 2.32694433,143.61536 2.41944081,143.400177 L2.26774883,143.760267 C2.34033317,143.584407 2.41439355,143.410249 2.48989283,143.237758 L2.48995686,143.237612 C2.68285372,142.796908 2.88521371,142.366955 3.09635302,141.947343 L2.9992697,142.142274 C3.085496,141.967346 3.1732414,141.794202 3.26246199,141.622804 L3.09635302,141.947343 C3.19008649,141.76106 3.28555022,141.576815 3.38268998,141.39456 L3.26246199,141.622804 C3.35935608,141.436665 3.45799003,141.252584 3.55830762,141.070511 L3.38268998,141.39456 C3.47051531,141.22978 3.55971066,141.066627 3.65023597,140.905064 L3.65013365,140.905246 C3.88151045,140.492302 4.12146555,140.089921 4.36943297,139.697321 L4.23443999,139.913308 C4.33261852,139.754555 4.43210308,139.597391 4.53285066,139.441776 L4.36943297,139.697321 C4.46872554,139.540113 4.56930282,139.384475 4.67112189,139.230366 L4.53285066,139.441776 C4.64747793,139.264723 4.76374021,139.089675 4.88157418,138.916577 L4.67112189,139.230366 C4.77309147,139.076029 4.87630651,138.923226 4.98072393,138.77192 L4.88157418,138.916577 C4.98378806,138.766424 5.08718456,138.617738 5.19172235,138.470482 L5.19172902,138.470473 C5.33587488,138.267423 5.48219759,138.067081 5.63058208,137.869361 L5.38778119,138.197796 C5.52244125,138.012856 5.65890384,137.830189 5.79708407,137.649718 L5.63058208,137.869361 C5.73796098,137.726281 5.84641958,137.584573 5.95591683,137.4442 L5.79708407,137.649718 C5.90812378,137.504694 6.02027265,137.361089 6.13348664,137.218862 L5.95591683,137.4442 C6.0717997,137.295642 6.18884589,137.14858 6.3070067,137.00297 L6.13348664,137.218862 C6.24371397,137.080387 6.35495096,136.94322 6.46715696,136.807323 L6.3070067,137.00297 C6.42607605,136.856241 6.54627723,136.710986 6.66756043,136.567162 L6.66778726,136.566893 C6.95475823,136.226588 7.24802335,135.894033 7.54669435,135.568906 L7.2989368,135.841723 C7.42276367,135.703786 7.5475713,135.567181 7.67331109,135.431864 L7.54669435,135.568906 C7.66283437,135.442479 7.77979182,135.317174 7.89752778,135.192958 L7.67331109,135.431864 C7.80693488,135.288063 7.94161139,135.145717 8.07728226,135.004774 L7.89752778,135.192958 C8.02424734,135.059264 8.15186876,134.92683 8.28034355,134.795614 L8.28061383,134.795338 L8.47038309,134.603021 L8.47038309,134.603021 L8.82741114,134.249011 C9.00716628,134.073244 9.18840478,133.89966 9.37100072,133.728148 L9.17425705,133.914262 C9.32210254,133.773404 9.47087778,133.633946 9.62051483,133.495827 L9.37100072,133.728148 C9.49152663,133.614938 9.61264397,133.502631 9.73431652,133.391193 L9.62051483,133.495827 C9.76234503,133.364914 9.90494945,133.235203 10.0482702,133.106644 L9.73431652,133.391193 C9.87063071,133.266346 10.0076418,133.14259 10.1452988,133.019881 L10.1453854,133.019804 C11.19506,132.084109 12.2823863,131.209182 13.3846951,130.37486 L13.1066901,130.586405 C13.2613213,130.4681 13.4162864,130.350631 13.5715225,130.233943 L13.5715189,130.233946 C14.2786433,129.702414 14.9913884,129.187076 15.7038226,128.682609 L16.0192345,128.459936 C16.0699235,128.424252 16.1206065,128.38862 16.1712813,128.353037 C17.7932403,127.214128 19.406661,126.125714 20.9415941,125.024801 C21.1164653,124.899377 21.2902878,124.773812 21.4629883,124.647992 C21.7236755,124.458073 21.9822187,124.267264 22.237839,124.075551 L22.2925657,124.034459 C22.4728314,123.898947 22.6516261,123.762973 22.8288233,123.626422 C23.0365005,123.466383 23.2418738,123.30564 23.4448524,123.143926 L23.5333641,123.073223 L23.5333641,123.073223 L23.5755676,123.03938 C23.9237043,122.759853 24.2645936,122.47732 24.5971957,122.190852 C24.6592203,122.137431 24.7210918,122.083755 24.782667,122.029935 C24.978427,121.85883 25.1710203,121.686432 25.3604073,121.51239 C25.4806571,121.401885 25.5997738,121.290566 25.7175385,121.178532 C25.73634,121.160647 25.7556776,121.142197 25.7749784,121.123728 C25.8347497,121.06653 25.8938985,121.009408 25.95269,120.952092 C26.0002927,120.905686 26.0479104,120.858907 26.0952875,120.811997 C26.146587,120.761202 26.1974223,120.710437 26.2479724,120.659515 C26.3137981,120.593204 26.3790617,120.526708 26.4438321,120.459937 C26.5033044,120.398626 26.5620812,120.337377 26.6204379,120.275891 C26.8119825,120.074074 26.9990149,119.869685 27.1812262,119.662477 C27.2029416,119.637782 27.2244396,119.613218 27.2458696,119.588614 C27.3170123,119.506936 27.3875564,119.424639 27.4573297,119.341884 C27.4906962,119.302309 27.5238667,119.262653 27.5568593,119.222891 C27.6499879,119.110652 27.7416015,118.997688 27.8317558,118.883838 L27.8318534,118.883715 C27.8959869,118.802725 27.9594774,118.721163 28.0222112,118.639138 C28.0858862,118.55588 28.1486862,118.472274 28.2106926,118.388178 L28.355249,118.189208 L28.355249,118.189208 C30.1452223,115.688384 31.2350358,112.751398 31.2026676,109 C31.3716806,89.9992744 19.8139454,82.1607482 31.2026676,46 C42.8395963,9.53932757 72.9165934,0.768171773 116.002651,0.0159928999 L116.002651,0.0159928999 L116.002651,0 C116.16951,0 116.336177,0.0049705256 116.502651,0.0076322645 C116.669125,0.0049705256 116.835791,0 117.002651,0 L117.002651,0 Z" id="path-1"></path>
        <path d="M117.002651,0 L117.002651,0.0159928999 C160.088708,0.768171773 190.165705,9.53932757 201.802634,46 C212.417524,79.7037241 203.098314,88.8033026 201.919726,105.269073 C201.916085,105.32466 201.912167,105.380571 201.908344,105.436567 C201.864727,106.073528 201.83368,106.72115 201.816473,107.381704 C201.814069,107.474906 201.811925,107.567811 201.810058,107.660975 C201.806981,107.813943 201.804658,107.96829 201.803108,108.123365 C201.80245,108.18963 201.801933,108.255331 201.801555,108.321163 L201.801047,108.433287 L201.801047,108.433287 L201.802634,109 L201.802634,109 C201.633621,128.588232 232.060804,125.971596 233.002628,155 C233.282701,183.560973 211.465525,186.255758 211.831204,198 C211.850395,198.720035 212.027214,199.525437 212.333958,200.4081 C212.349073,200.451592 212.364373,200.494905 212.37998,200.538402 C212.470661,200.791163 212.571911,201.050604 212.682927,201.316078 C212.724579,201.415685 212.767684,201.516318 212.812134,201.617792 C212.833301,201.666109 212.854421,201.713828 212.875833,201.761731 C212.910244,201.838728 212.945869,201.917199 212.982253,201.996152 C213.097532,202.24631 213.220439,202.501342 213.350484,202.761082 C213.392459,202.844919 213.435148,202.929189 213.478564,203.013944 C213.520361,203.095538 213.562793,203.177509 213.605883,203.259925 C213.646492,203.337598 213.687876,203.416024 213.729838,203.494844 C213.955293,203.918333 214.197352,204.353104 214.454201,204.798724 C214.514274,204.902952 214.575767,205.008818 214.63806,205.115282 C214.802785,205.396807 214.973077,205.682464 215.148508,205.972169 C215.326144,206.265514 215.509081,206.563061 215.696815,206.864619 C216.09519,207.504535 216.51519,208.16256 216.952253,208.837326 L217.08631,209.043998 C217.263445,209.316707 217.443264,209.592101 217.625472,209.870095 C217.801615,210.138832 217.97982,210.40974 218.159988,210.682995 C218.64568,211.419633 219.146252,212.174241 219.655899,212.944415 L219.907727,213.325153 C220.470253,214.176092 221.042678,215.04548 221.618091,215.931297 C222.216757,216.852903 222.819137,217.793045 223.416956,218.748716 L223.162146,218.342728 C223.316647,218.588095 223.470918,218.834517 223.624826,219.081954 L223.624577,219.081553 C223.89515,219.516553 224.164351,219.954285 224.431706,220.394938 L224.354349,220.267604 C224.497698,220.50326 224.640536,220.739759 224.782754,220.977069 L224.431706,220.394938 C224.601708,220.675135 224.770963,220.956513 224.939284,221.239017 L224.939206,221.238885 C225.252819,221.765242 225.563116,222.295376 225.868967,222.829064 L225.65436,222.456412 C225.80703,222.720243 225.958676,222.984968 226.109152,223.250545 L225.868967,222.829064 C225.98821,223.037136 226.106778,223.245748 226.224599,223.454879 L226.109152,223.250545 C226.260113,223.51698 226.409896,223.784272 226.558352,224.052378 L226.224599,223.454879 C226.365787,223.705487 226.505902,223.95684 226.644822,224.208904 L226.558352,224.052378 C226.69304,224.295619 226.826636,224.53953 226.959028,224.784078 L226.644822,224.208904 C226.81367,224.515273 226.980753,224.822691 227.145848,225.131094 L226.959028,224.784078 C227.07931,225.006255 227.198598,225.228959 227.31681,225.452163 L227.145848,225.131094 C227.308065,225.43412 227.468363,225.738097 227.626534,226.042963 L227.31681,225.452163 C227.446257,225.696584 227.574414,225.941605 227.701172,226.187196 L227.626534,226.042963 C227.745553,226.272366 227.863367,226.502273 227.979888,226.732657 L227.701172,226.187196 C227.849199,226.473998 227.995317,226.761576 228.139352,227.04988 L227.979888,226.732657 C228.098865,226.967898 228.216492,227.203637 228.332676,227.439846 L228.139352,227.04988 C228.273818,227.31903 228.406469,227.588813 228.537163,227.859187 L228.332676,227.439846 C228.451022,227.680452 228.56787,227.921545 228.683119,228.163097 L228.537163,227.859187 C228.669132,228.132199 228.799106,228.405814 228.92694,228.679989 L228.683119,228.163097 C228.772857,228.35118 228.861626,228.539542 228.949378,228.728167 L228.92694,228.679989 C229.04113,228.924904 229.153613,229.170266 229.264284,229.416044 L228.949378,228.728167 C229.124159,229.103863 229.294906,229.480606 229.461246,229.858286 L229.264284,229.416044 C229.382201,229.677918 229.498062,229.940265 229.61174,230.203048 L229.461246,229.858286 C229.568216,230.101167 229.673363,230.344436 229.776588,230.588063 L229.61174,230.203048 C229.729146,230.474449 229.844224,230.746316 229.956836,231.018607 L229.776588,230.588063 C229.871685,230.812508 229.965151,231.037257 230.056906,231.262288 L229.956836,231.018607 C230.06751,231.286215 230.175802,231.554234 230.28158,231.822624 L230.056906,231.262288 C230.177293,231.557534 230.294736,231.853265 230.40906,232.14943 L230.28158,231.822624 C230.382936,232.079794 230.481984,232.337305 230.578608,232.595123 L230.40906,232.14943 C230.523283,232.445331 230.634392,232.741665 230.742213,233.03838 L230.578608,232.595123 C230.678102,232.860598 230.775026,233.1264 230.869255,233.392491 L230.742213,233.03838 C230.828974,233.277142 230.913606,233.516151 230.996017,233.755379 L230.869255,233.392491 C230.967607,233.670226 231.063022,233.948277 231.155357,234.226602 L230.996017,233.755379 C231.053703,233.922834 231.110301,234.090397 231.165779,234.258058 L231.155357,234.226602 C231.241183,234.485306 231.324348,234.744247 231.404736,235.00339 L231.404818,235.003652 C231.571105,235.539703 231.725582,236.076882 231.867146,236.614631 L231.792784,236.336565 C231.821665,236.44291 231.850048,236.54928 231.877924,236.655672 L231.867146,236.614631 C231.938806,236.88684 232.007157,237.159195 232.072067,237.431657 L232.072027,237.43149 C232.137615,237.706799 232.199654,237.98205 232.258048,238.25737 C232.371154,238.790702 232.47049,239.323738 232.555186,239.856743 C232.874364,241.865385 232.985621,243.873586 232.836066,245.865879 L232.861939,245.477164 C232.845973,245.751959 232.82512,246.026471 232.799243,246.30066 L232.836066,245.865879 C232.814029,246.159445 232.786329,246.452665 232.752797,246.74549 L232.799243,246.30066 C232.775064,246.556853 232.746498,246.812764 232.713431,247.06836 L232.752797,246.74549 C232.722291,247.011886 232.686959,247.277955 232.646673,247.543659 L232.713431,247.06836 C232.677993,247.342292 232.637387,247.615861 232.591472,247.889027 L232.646673,247.543659 C232.610927,247.779418 232.57128,248.01489 232.527645,248.250049 L232.591472,247.889027 C232.546725,248.155252 232.496935,248.421095 232.441976,248.686517 L232.527645,248.250049 C232.477896,248.518152 232.422962,248.785848 232.36271,249.0531 L232.441976,248.686517 C232.387707,248.94861 232.328396,249.210293 232.263921,249.471529 L232.36271,249.0531 C232.297675,249.341568 232.226445,249.629517 232.148854,249.916899 L232.263921,249.471529 C232.199617,249.732069 232.130176,249.992166 232.055475,250.251782 L232.148854,249.916899 C232.082058,250.164299 232.010548,250.411279 231.934218,250.657807 L232.055475,250.251782 C231.977773,250.521828 231.89438,250.791355 231.805157,251.060322 L231.934218,250.657807 C231.855508,250.912022 231.771673,251.165756 231.682596,251.418978 L231.805157,251.060322 C231.719254,251.319279 231.627948,251.577717 231.531115,251.835601 L231.682596,251.418978 C231.596224,251.66451 231.504925,251.90956 231.408591,252.154096 L231.531115,251.835601 C231.433138,252.096529 231.329503,252.35689 231.220082,252.616645 L231.408591,252.154096 C231.297401,252.436344 231.179505,252.717908 231.054741,252.99874 L231.220082,252.616645 C231.110384,252.877056 230.994871,253.136859 230.873414,253.396015 L231.054741,252.99874 C230.939822,253.25741 230.819075,253.515459 230.692375,253.772849 L230.873414,253.396015 C230.753342,253.652215 230.62746,253.907784 230.495645,254.162685 L230.692375,253.772849 C230.561434,254.038853 230.424134,254.304154 230.280334,254.56871 L230.495645,254.162685 C230.363464,254.418295 230.225315,254.673233 230.081074,254.927463 L230.280334,254.56871 C230.14003,254.826834 229.993538,255.084249 229.840728,255.340918 L230.081074,254.927463 C229.935708,255.183676 229.784154,255.43917 229.626284,255.693907 L229.840728,255.340918 C229.698033,255.580598 229.549829,255.819627 229.396009,256.057973 L229.626284,255.693907 C229.463401,255.956732 229.293795,256.218751 229.117324,256.479923 L229.396009,256.057973 C229.237192,256.304061 229.07239,256.549422 228.901485,256.794022 L229.117324,256.479923 C228.949775,256.727891 228.776037,256.975096 228.595991,257.221501 L228.901485,256.794022 C228.710325,257.06761 228.51153,257.340246 228.304936,257.61188 L228.595991,257.221501 C228.417767,257.465412 228.233362,257.708541 228.042658,257.950852 L228.304936,257.61188 C228.120197,257.85478 227.929223,258.09688 227.731895,258.338145 L228.042658,257.950852 C227.840543,258.207662 227.631353,258.463554 227.414948,258.718488 L227.731895,258.338145 C227.530545,258.584329 227.32258,258.829645 227.107877,259.074056 L227.414948,258.718488 C227.206994,258.963466 226.992378,259.207559 226.770977,259.450731 L227.107877,259.074056 C226.891565,259.320298 226.668413,259.565621 226.438294,259.809989 L226.770977,259.450731 C226.544424,259.699561 226.310765,259.947426 226.069869,260.194287 L226.438294,259.809989 C226.206072,260.056591 225.966754,260.30222 225.720211,260.546838 L226.069869,260.194287 C225.837062,260.43286 225.597495,260.670495 225.351048,260.907158 L225.720211,260.546838 C225.471332,260.793774 225.215089,261.03968 224.951349,261.284516 L225.351048,260.907158 C225.098892,261.149304 224.839534,261.390431 224.572846,261.630504 L224.951349,261.284516 C224.697334,261.520324 224.436364,261.75514 224.168319,261.988928 L224.572846,261.630504 C224.301554,261.874721 224.022677,262.117846 223.73608,262.35984 L224.168319,261.988928 C223.891676,262.230217 223.607497,262.470411 223.31565,262.709472 L223.73608,262.35984 C223.458197,262.594475 223.173057,262.828046 222.880536,263.060518 L223.31565,262.709472 C223.031827,262.941961 222.740752,263.173379 222.442303,263.403689 L222.880536,263.060518 C222.582765,263.297161 222.277346,263.532666 221.964149,263.766993 L222.442303,263.403689 C222.134448,263.641259 221.818748,263.877651 221.49507,264.112826 L221.964149,263.766993 C221.652586,264.000097 221.333327,264.232036 221.006242,264.462773 L221.49507,264.112826 C221.18181,264.340431 220.861078,264.566896 220.532752,264.792186 L221.006242,264.462773 C220.673177,264.697729 220.331999,264.931438 219.982572,265.163861 L220.532752,264.792186 C220.199156,265.021092 219.857721,265.248785 219.50832,265.475228 L219.982572,265.163861 C219.637479,265.393401 219.28434,265.621688 218.923027,265.848681 L219.50832,265.475228 C219.165294,265.69754 218.814591,265.918646 218.45609,266.138512 L218.923027,265.848681 C218.565598,266.073234 218.20017,266.296522 217.826616,266.518508 L218.45609,266.138512 C218.076608,266.371246 217.688389,266.602591 217.291291,266.832504 L217.291533,266.832364 L217.006906,266.996046 L217.006906,266.996046 L217,258 C217,218.633143 185.405988,186.645463 146.190652,186.009646 L145,186 L141,186 L141,140 L93,140 L93,186 L89,186 C49.633143,186 17.6454629,217.594012 17.0096459,256.809348 L17,258 L17,267 L216.996908,267.001755 C216.996575,267.001945 216.996242,267.002136 216.995908,267.002326 L16.0093934,267.002326 C15.3477292,266.624586 14.7102754,266.242932 14.0963965,265.857549 L14.5606166,266.145505 C14.1963768,265.922248 13.8401799,265.697713 13.4919006,265.471935 L14.0963965,265.857549 C13.7261474,265.625114 13.3644741,265.391322 13.011237,265.156214 L13.4919006,265.471935 C13.1493023,265.24984 12.8143655,265.026542 12.4869706,264.802077 L13.011237,265.156214 C12.6616467,264.923534 12.3203192,264.689565 11.9871196,264.454347 L12.4869706,264.802077 C12.1665105,264.582367 11.8532763,264.361538 11.5471561,264.139624 L11.9871196,264.454347 C11.6509543,264.217036 11.323062,263.978454 11.003304,263.738641 L11.5471561,264.139624 C11.2220519,263.903947 10.9049713,263.667046 10.5957803,263.42896 L11.003304,263.738641 C10.7068283,263.51629 10.4173454,263.29288 10.1347446,263.068445 L10.5957803,263.42896 C10.28201,263.187347 9.9763647,262.944514 9.67870418,262.700501 L10.1347446,263.068445 C9.83540373,262.830716 9.54378447,262.591836 9.25975529,262.351844 L9.67870418,262.700501 C9.39602096,262.468767 9.12053921,262.235968 8.8521389,262.00214 L9.25975529,262.351844 C8.97814806,262.113898 8.70400202,261.874859 8.43718898,261.634764 L8.8521389,262.00214 C8.57127913,261.757458 8.29817352,261.511649 8.03268451,261.264754 L8.43718898,261.634764 C8.17745744,261.401042 7.92467482,261.166319 7.67872286,260.930631 L8.03268451,261.264754 C7.76681703,261.017507 7.5085879,260.769171 7.25785896,260.519786 L7.67872286,260.930631 C7.42534189,260.687823 7.17921045,260.443991 6.94019926,260.199171 L7.25785896,260.519786 C7.02355153,260.286734 6.79579402,260.052766 6.57447371,259.817915 L6.94019926,260.199171 C6.69758245,259.950658 6.46230232,259.701128 6.23422364,259.45062 L6.57447371,259.817915 C6.33487476,259.563668 6.10282021,259.308385 5.878167,259.05211 L6.23422364,259.45062 C6.01840402,259.213576 5.8090325,258.975658 5.60599451,258.736897 L5.878167,259.05211 C5.66188132,258.80538 5.45245591,258.55773 5.24976314,258.309196 L5.60599451,258.736897 C5.38738968,258.479831 5.1761268,258.221789 4.97206284,257.962813 L5.24976314,258.309196 C5.062813,258.079965 4.8815903,257.849983 4.70599488,257.619279 L4.97206284,257.962813 C4.77489298,257.712586 4.58444385,257.461487 4.40058645,257.209554 L4.70599488,257.619279 C4.50145077,257.350541 4.30454232,257.080824 4.11511123,256.810173 L4.40058645,257.209554 C4.21977889,256.9618 4.0453462,256.713239 3.87716567,256.463907 L4.11511123,256.810173 C3.94515412,256.567345 3.78121601,256.323766 3.62318258,256.079469 L3.87716567,256.463907 C3.7054077,256.209272 3.54017071,255.953832 3.38132403,255.697627 L3.62318258,256.079469 C3.46167071,255.829795 3.30632631,255.579372 3.15702735,255.328234 L3.38132403,255.697627 C3.22347503,255.443031 3.07193632,255.187679 2.92657966,254.931608 L3.15702735,255.328234 C3.00581808,255.073882 2.86080995,254.818799 2.72187617,254.563019 L2.92657966,254.931608 C2.78180136,254.676555 2.64315602,254.42079 2.51051692,254.164349 L2.72187617,254.563019 C2.57633339,254.295073 2.43745662,254.026363 2.30510011,253.756933 L2.51051692,254.164349 C2.38004859,253.912105 2.25539151,253.659207 2.13642511,253.40569 L2.30510011,253.756933 C2.17913438,253.500512 2.05907445,253.243438 1.94479468,252.985749 L2.13642511,253.40569 C2.01295588,253.142577 1.89561625,252.878798 1.7842714,252.614392 L1.94479468,252.985749 C1.82215669,252.709212 1.70617527,252.431967 1.59669517,252.154057 L1.7842714,252.614392 C1.67442709,252.35355 1.57041708,252.092097 1.47211194,251.830072 L1.59669517,252.154057 C1.5054566,251.922453 1.41873334,251.690387 1.33643551,251.457887 L1.47211194,251.830072 C1.37495001,251.571094 1.28336104,251.311557 1.19722006,251.051497 L1.33643551,251.457887 C1.24776008,251.20737 1.16422254,250.956347 1.08571048,250.704853 L1.19722006,251.051497 C1.10820312,250.782755 1.02500401,250.513455 0.947484848,250.243637 L1.08571048,250.704853 C0.995803232,250.416857 0.912486105,250.128243 0.835590273,249.839059 L0.947484848,250.243637 C0.874929682,249.991097 0.807350306,249.738104 0.744633646,249.48469 L0.835590273,249.839059 C0.768056609,249.585084 0.705475824,249.330669 0.64773355,249.075849 L0.744633646,249.48469 C0.67753937,249.213588 0.616010336,248.942005 0.559908103,248.669981 L0.64773355,249.075849 C0.594090662,248.839119 0.544623657,248.60204 0.499240837,248.364637 L0.559908103,248.669981 C0.505455497,248.405956 0.456115245,248.141516 0.411760761,247.876697 L0.499240837,248.364637 C0.441659101,248.06342 0.390652308,247.761683 0.346033162,247.45948 L0.411760761,247.876697 C0.368630642,247.619189 0.330214835,247.361323 0.29639695,247.103134 L0.346033162,247.45948 C0.307118117,247.195911 0.27306192,246.931987 0.243740315,246.667746 L0.29639695,247.103134 C0.260395137,246.828271 0.229604281,246.553042 0.203883956,246.277487 L0.243740315,246.667746 C0.219422871,246.448601 0.198361866,246.229238 0.18048642,246.009676 L0.203883956,246.277487 C0.179156925,246.012574 0.159116349,245.74736 0.143637452,245.481882 L0.18048642,246.009676 C0.156323631,245.712888 0.13798142,245.415739 0.125284727,245.11828 L0.143637452,245.481882 C0.128177376,245.216726 0.117267892,244.951307 0.110784679,244.685661 L0.110770144,244.685065 C0.093246246,243.967032 0.108099901,243.24674 0.152884429,242.525505 C0.164689409,242.335365 0.17859334,242.144937 0.194537147,241.954456 C0.265298252,241.109102 0.376221941,240.262796 0.523360318,239.416613 L0.52337288,239.416541 C0.614277876,238.893752 0.719022446,238.370939 0.836661056,237.848446 L0.836673787,237.848389 C0.962552191,237.289299 1.10320989,236.730519 1.25749075,236.17244 L1.13244198,236.636364 C1.20531614,236.358852 1.28163275,236.08149 1.36125149,235.80432 L1.36120954,235.804466 C1.51542898,235.267594 1.68198887,234.731586 1.85991227,234.196594 L1.79366322,234.397454 C1.86557204,234.177599 1.93941964,233.957909 2.0151354,233.738406 L1.85991227,234.196594 C1.94537248,233.939626 2.03345433,233.682893 2.12404492,233.426427 L2.0151354,233.738406 C2.09941247,233.494082 2.18600406,233.249989 2.2748128,233.006154 L2.27468799,233.006497 C2.48843392,232.419632 2.71488341,231.834607 2.95280601,231.251474 L2.72976896,231.807287 C2.82977463,231.553786 2.9320209,231.300618 3.03639707,231.047814 L2.95280601,231.251474 C3.05678385,230.996631 3.16295293,230.74215 3.27120013,230.488063 L3.03639707,231.047814 C3.14862744,230.775988 3.26332033,230.504583 3.38033814,230.23364 L3.27120013,230.488063 C3.37150154,230.252627 3.47358718,230.01753 3.57736706,229.782798 L3.38033814,230.23364 C3.50011643,229.956306 3.62233063,229.679457 3.74683317,229.403135 L3.57736706,229.782798 C3.67091526,229.571209 3.7658401,229.359916 3.86207566,229.148939 L3.86203091,229.149037 C4.10601151,228.61416 4.3583689,228.08141 4.61807436,227.551005 L4.49216752,227.809529 C4.61974824,227.546148 4.74917855,227.283331 4.88032756,227.021117 L4.61807436,227.551005 C4.75588167,227.269557 4.89575795,226.988768 5.03754283,226.708687 L4.88032756,227.021117 C5.00045209,226.780944 5.12201852,226.541276 5.24492627,226.302143 L5.03754283,226.708687 C5.18065338,226.425986 5.32570837,226.144006 5.47254289,225.862795 L5.24492627,226.302143 C5.37807179,226.043091 5.5127914,225.784667 5.64895723,225.526907 L5.47254289,225.862795 C5.6028635,225.61321 5.73458586,225.364231 5.86759468,225.115891 L5.64895723,225.526907 C5.78873166,225.262316 5.93002999,224.998426 6.07271392,224.735277 L5.86759468,225.115891 C6.02801827,224.816365 6.19031327,224.517768 6.35427736,224.220161 L6.07271392,224.735277 C6.20631926,224.488871 6.34113948,224.243115 6.47706106,223.998041 L6.35427736,224.220161 C6.4768505,223.997681 6.60035641,223.775754 6.72471057,223.554404 L6.47706106,223.998041 C6.62001403,223.74029 6.76418524,223.483294 6.90944262,223.227092 L6.72471057,223.554404 C6.85843069,223.316383 6.99313166,223.079029 7.12870837,222.842374 L7.12882595,222.842169 C7.4207742,222.332561 7.71690418,221.825988 8.01604769,221.322964 L7.7804813,221.720897 C7.93362799,221.460987 8.08764663,221.201995 8.24239387,220.943965 L8.01604769,221.322964 C8.17309156,221.058887 8.33096596,220.795788 8.48951889,220.533712 L8.48953915,220.533678 C8.71685545,220.157941 8.94558693,219.784272 9.17526527,219.412836 C9.5475571,218.810762 9.9226027,218.214138 10.2982277,217.62395 C10.5913868,217.163335 10.8847129,216.706926 11.1774839,216.254697 L11.1772677,216.255031 C11.9748155,215.023099 12.7680297,213.822504 13.5387982,212.658276 C14.1704892,211.70412 14.7876196,210.773618 15.3795364,209.870542 C15.4461575,209.768899 15.5121689,209.668047 15.5778494,209.567545 C15.7584692,209.291165 15.9366629,209.017303 16.1120561,208.746167 C16.4652239,208.200208 16.8066292,207.665941 17.1342951,207.143401 C17.7226772,206.20507 18.2663192,205.3053 18.7518026,204.447357 C18.7761054,204.404411 18.8007144,204.360766 18.8251702,204.31723 C18.8645468,204.247132 18.903558,204.177261 18.942164,204.107677 C19.0368805,203.936951 19.1288718,203.768479 19.2183259,203.601752 L19.2179059,203.602535 C19.2799691,203.48686 19.3404075,203.372796 19.399604,203.259571 C19.4423977,203.177724 19.4848326,203.095749 19.5265952,203.014223 C19.5708511,202.927828 19.614214,202.842212 19.65681,202.757103 C19.6929227,202.684948 19.7285888,202.612945 19.76369,202.541309 C19.8100705,202.446655 19.8554404,202.352695 19.8998013,202.259386 C20.0168607,202.013156 20.1268064,201.771655 20.229302,201.534801 C20.3972645,201.146658 20.5452021,200.771042 20.6712179,200.408463 C20.744984,200.196204 20.8111625,199.988671 20.869463,199.785707 C21.0538975,199.143674 21.1595141,198.547187 21.1740982,198 C21.5397764,186.255758 -0.277399696,183.560973 0.00267373922,155 C0.0146057413,154.632238 0.0312702779,154.269555 0.0525451767,153.911842 L0.0344150371,154.239635 C0.0485732262,153.962939 0.0654655591,153.689187 0.0850369076,153.418329 L0.0525451767,153.911842 C0.0673626291,153.662704 0.0844164693,153.415976 0.103665422,153.171621 L0.0850369076,153.418329 C0.104370282,153.150764 0.126317919,152.886023 0.150826677,152.624058 L0.103665422,153.171621 C0.124308223,152.909573 0.147475551,152.650255 0.173116497,152.393621 L0.173132905,152.393457 C0.233262348,151.791635 0.307018761,151.20442 0.3937287,150.631384 L0.346570389,150.953481 C0.380145605,150.716257 0.415920806,150.481438 0.45385065,150.248982 L0.3937287,150.631384 C0.429173847,150.39714 0.466783525,150.165265 0.506512854,149.93572 L0.45385065,150.248982 C0.494964064,149.997016 0.538608992,149.747826 0.584727689,149.501362 L0.506512854,149.93572 C0.545368511,149.711223 0.586251619,149.488953 0.629120194,149.268874 L0.629192482,149.268503 C0.732676445,148.737236 0.847818797,148.21838 0.973955422,147.711776 L0.918330263,147.938948 C0.970480407,147.722336 1.02462768,147.507947 1.08072679,147.295739 L0.973955422,147.711776 C1.03530096,147.465393 1.09924695,147.221908 1.16572533,146.98126 L1.08072679,147.295739 C1.13424898,147.093279 1.18954781,146.892805 1.24658398,146.694281 L1.16572533,146.98126 C1.22177498,146.778363 1.27962481,146.577483 1.33923401,146.378583 L1.24658398,146.694281 C1.31003665,146.473423 1.37563953,146.25498 1.44333849,146.038901 L1.44328123,146.039084 C1.59797769,145.545332 1.7635535,145.064104 1.93942073,144.59464 L1.7902438,145.002648 C1.8665779,144.788654 1.94502703,144.577069 2.02553267,144.367839 L1.93942073,144.59464 C2.00764844,144.412512 2.07742506,144.232154 2.14871291,144.053533 L2.02553267,144.367839 C2.10432001,144.163075 2.18507702,143.960567 2.26774883,143.760267 L2.14871291,144.053533 C2.2366781,143.833124 2.32694433,143.61536 2.41944081,143.400177 L2.26774883,143.760267 C2.34033317,143.584407 2.41439355,143.410249 2.48989283,143.237758 L2.48995686,143.237612 C2.68285372,142.796908 2.88521371,142.366955 3.09635302,141.947343 L2.9992697,142.142274 C3.085496,141.967346 3.1732414,141.794202 3.26246199,141.622804 L3.09635302,141.947343 C3.19008649,141.76106 3.28555022,141.576815 3.38268998,141.39456 L3.26246199,141.622804 C3.35935608,141.436665 3.45799003,141.252584 3.55830762,141.070511 L3.38268998,141.39456 C3.47051531,141.22978 3.55971066,141.066627 3.65023597,140.905064 L3.65013365,140.905246 C3.88151045,140.492302 4.12146555,140.089921 4.36943297,139.697321 L4.23443999,139.913308 C4.33261852,139.754555 4.43210308,139.597391 4.53285066,139.441776 L4.36943297,139.697321 C4.46872554,139.540113 4.56930282,139.384475 4.67112189,139.230366 L4.53285066,139.441776 C4.64747793,139.264723 4.76374021,139.089675 4.88157418,138.916577 L4.67112189,139.230366 C4.77309147,139.076029 4.87630651,138.923226 4.98072393,138.77192 L4.88157418,138.916577 C4.98378806,138.766424 5.08718456,138.617738 5.19172235,138.470482 L5.19172902,138.470473 C5.33587488,138.267423 5.48219759,138.067081 5.63058208,137.869361 L5.38778119,138.197796 C5.52244125,138.012856 5.65890384,137.830189 5.79708407,137.649718 L5.63058208,137.869361 C5.73796098,137.726281 5.84641958,137.584573 5.95591683,137.4442 L5.79708407,137.649718 C5.90812378,137.504694 6.02027265,137.361089 6.13348664,137.218862 L5.95591683,137.4442 C6.0717997,137.295642 6.18884589,137.14858 6.3070067,137.00297 L6.13348664,137.218862 C6.24371397,137.080387 6.35495096,136.94322 6.46715696,136.807323 L6.3070067,137.00297 C6.42607605,136.856241 6.54627723,136.710986 6.66756043,136.567162 L6.66778726,136.566893 C6.95475823,136.226588 7.24802335,135.894033 7.54669435,135.568906 L7.2989368,135.841723 C7.42276367,135.703786 7.5475713,135.567181 7.67331109,135.431864 L7.54669435,135.568906 C7.66283437,135.442479 7.77979182,135.317174 7.89752778,135.192958 L7.67331109,135.431864 C7.80693488,135.288063 7.94161139,135.145717 8.07728226,135.004774 L7.89752778,135.192958 C8.02424734,135.059264 8.15186876,134.92683 8.28034355,134.795614 L8.28061383,134.795338 L8.47038309,134.603021 L8.47038309,134.603021 L8.82741114,134.249011 C9.00716628,134.073244 9.18840478,133.89966 9.37100072,133.728148 L9.17425705,133.914262 C9.32210254,133.773404 9.47087778,133.633946 9.62051483,133.495827 L9.37100072,133.728148 C9.49152663,133.614938 9.61264397,133.502631 9.73431652,133.391193 L9.62051483,133.495827 C9.76234503,133.364914 9.90494945,133.235203 10.0482702,133.106644 L9.73431652,133.391193 C9.87063071,133.266346 10.0076418,133.14259 10.1452988,133.019881 L10.1453854,133.019804 C11.19506,132.084109 12.2823863,131.209182 13.3846951,130.37486 L13.1066901,130.586405 C13.2613213,130.4681 13.4162864,130.350631 13.5715225,130.233943 L13.5715189,130.233946 C16.0440255,128.375409 18.5852911,126.714832 20.9415941,125.024801 C21.1164653,124.899377 21.2902878,124.773812 21.4629883,124.647992 C21.7236755,124.458073 21.9822187,124.267264 22.237839,124.075551 L22.2925657,124.034459 C22.4728314,123.898947 22.6516261,123.762973 22.8288233,123.626422 C23.0365005,123.466383 23.2418738,123.30564 23.4448524,123.143926 L23.5333641,123.073223 L23.5333641,123.073223 L23.5755676,123.03938 C23.9237043,122.759853 24.2645936,122.47732 24.5971957,122.190852 C24.6592203,122.137431 24.7210918,122.083755 24.782667,122.029935 C24.978427,121.85883 25.1710203,121.686432 25.3604073,121.51239 C25.4514362,121.428738 25.5418848,121.344555 25.6315657,121.259969 C25.6795038,121.214755 25.7273532,121.169301 25.7749784,121.123728 C25.8337341,121.067502 25.8918793,121.011357 25.9496793,120.955027 C25.9983093,120.907634 26.0469238,120.859884 26.0952875,120.811997 C26.146587,120.761202 26.1974223,120.710437 26.2479724,120.659515 C26.3075756,120.599472 26.3667036,120.539293 26.4254282,120.478888 L26.5314149,120.369166 L26.5314149,120.369166 L26.5958425,120.301765 C26.7959906,120.091536 26.9912293,119.878539 27.1812262,119.662477 C27.2029416,119.637782 27.2244396,119.613218 27.2458696,119.588614 C27.3167257,119.507265 27.3869891,119.425301 27.456488,119.342882 C27.4901346,119.30298 27.5235874,119.26299 27.5568593,119.222891 C27.716267,119.030773 27.8714245,118.836294 28.0222112,118.639138 C28.0786129,118.56539 28.1343072,118.491397 28.1893805,118.417021 L28.355249,118.189208 L28.355249,118.189208 C30.1452223,115.688384 31.2350358,112.751398 31.2026676,109 C31.3716806,89.9992744 19.8139454,82.1607482 31.2026676,46 C42.8395963,9.53932757 72.9165934,0.768171773 116.002651,0.0159928999 L116.002651,0.0159928999 L116.002651,0 C116.16951,0 116.336177,0.0049705256 116.502651,0.0076322645 C116.669125,0.0049705256 116.835791,0 117.002651,0 L117.002651,0 Z M116.012133,62.9217444 C116.009793,62.9234155 116.007453,62.9250866 116.005112,62.9267575 L116.002,63.353 L116.012133,62.9217444 Z" id="path-3"></path>
    </defs>
    <g id="Top/Long-Hair/Big-Hair" stroke="none" stroke-width="1" fill="none" fill-rule="evenodd">
        <g id="Hair" transform="translate(15.000000, 13.000000)">
            <mask id="mask-2" fill="white">
                <use xlink:href="#path-1"></use>
            </mask>
            <use fill="#314756" xlink:href="#path-1"></use>
            <g id="Hair-Color" mask="url(#mask-2)" fill="">
                <g transform="translate(-15.000000, -13.000000)" id="Color">
                    <rect x="0" y="0" width="264" height="280"></rect>
                </g>
            </g>
        </g>
        <g id="Shadow" transform="translate(16.000000, 13.000000)">
            <mask id="mask-4" fill="white">
                <use xlink:href="#path-3"></use>
            </mask>
            <g id="Shape"></g>
            <path d="M31.2026676,109 C31.2224875,111.297079 30.8215528,113.2888 30.0967544,115.062004 C27.7221142,118.086926 24.5295404,122.52833 24.3618393,122.19381 C26.2345006,119.810609 27.3747977,117.011661 27.3409475,113.436088 C27.517612,95.334874 15.4366324,87.8674306 27.3409475,53.4185647 C28.0073955,51.5154687 29.09961,49.7166428 30.570936,48.0220868 C20.2478142,82.4618663 31.3684775,90.3593731 31.2026676,109 Z M202.433497,48.0210859 C203.905262,49.7159345 204.997775,51.515094 205.664354,53.4185647 C215.822041,82.8130155 208.516445,92.5627534 206.263744,106.036479 C205.964379,106.841192 206.195125,107.789747 205.880216,108.603009 C175.207016,98.1454461 147.589972,78.5596292 131.494917,55.6119279 C108.707008,85.0408684 58.3368921,85.3733542 33.6608634,110.949437 C34.0538957,110.401193 34.4250251,109.88902 34.7584999,109.446288 C57.2940449,79.527377 108.24688,80.3241416 130.845581,48.302359 C146.243536,72.3904102 172.664446,92.9495135 202.009146,103.926748 C202.310417,103.073073 202.089664,102.077381 202.376063,101.232679 C204.466543,87.5136961 211.105377,77.4727342 202.632704,48.7219504 Z" id="Shadow-Mask" fill-opacity="0.16" fill="#000000" mask="url(#mask-4)"></path>
        </g>
        <path d="M50.7584999,122.446288 C73.2940449,92.527377 124.24688,93.3241416 146.845581,61.302359 C162.243536,85.3904102 188.664446,105.949514 218.009146,116.926748 C218.310417,116.073073 218.089664,115.077381 218.376063,114.232679 C220.531197,100.089398 227.520377,89.8551619 217.802634,59 C206.165705,22.5393276 176.088708,13.7681718 133.002651,13.0159929 C132.336177,13.0049705 132.16951,13.0024268 132.002651,13 C88.9165934,13.7681718 58.8395963,22.5393276 47.2026676,59 C35.8139454,95.1607482 47.3716806,102.999274 47.2026676,122 C47.2350518,125.753256 46.1441426,128.691293 44.3525888,131.192923 C44.5361111,131.59459 48.5061717,125.436551 50.7584999,122.446288 Z" id="Light" fill-opacity="0.1" fill="#FFFFFF"></path>
        <g id="Facial-Hair" transform="translate(49.000000, 72.000000)"></g>
        <g id="Accessory" transform="translate(62.000000, 85.000000)"></g>
    </g>
</svg>