<?xml version="1.0" encoding="UTF-8"?>
<svg width="266px" height="280px" viewBox="0 0 266 280" version="1.1" xmlns="http://www.w3.org/2000/svg" xmlns:xlink="http://www.w3.org/1999/xlink">
    <defs>
        <path d="M133,0 C145.702549,0 156,7.83501688 156,17.5 C156,21.5674064 154.176261,25.310715 151.117025,28.2823506 C156.438054,29.6873774 161.866349,31.8519671 167.308863,35.006118 C187.496636,46.7057251 191.183568,73.1114668 191.901961,83.1592929 C192.219217,87.6102098 191.748406,92.1082634 190.751315,96.4378281 C190.164155,98.986558 189.091302,99.05041 188.619138,96.2008069 C187.37751,88.7073939 189.2479,80.2147477 185.182761,73.3006826 C181.748751,67.461069 170.235184,40.1359449 133,41.6707324 C95.7648164,43.2055199 91.1883705,60.5205939 84.7874413,68.8480942 C82.2013644,72.212859 80.5119249,76.5367405 79.1847257,80.524647 C78.2559568,83.3154127 77.7340739,86.1874141 77.5341822,89.1149098 C77.4273028,90.6807875 77.3444374,92.2693977 77.4215529,93.8376154 C77.4804043,95.0327505 78.0885348,96.584253 77.9224658,97.70885 C77.4232441,101.086987 75.6049405,96.9061873 75.267729,95.7003546 C74.3484305,92.415154 73.8884429,88.8932666 74.0230569,85.4813651 C74.3660182,76.7914798 76.5956048,67.5028569 80.3566792,59.6480618 C88.0168242,43.6513048 96.9448338,32.8379559 112.036894,29.0299707 C112.985675,28.790577 113.953822,28.5586627 114.940166,28.3371406 C111.846427,25.3571269 110,21.5926283 110,17.5 C110,7.83501688 120.297451,0 133,0 Z" id="path-1"></path>
    </defs>
    <g id="Top/Long-Hair/Bun" stroke="none" stroke-width="1" fill="none" fill-rule="evenodd" transform="translate(-1.000000, 0.000000)">
        <g id="Facial-Hair" transform="translate(49.000000, 72.000000)"></g>
        <mask id="mask-2" fill="white">
            <use xlink:href="#path-1"></use>
        </mask>
        <use id="Short-Hair" fill="#28354B" xlink:href="#path-1"></use>
        <g id="Hair-Color" mask="url(#mask-2)" fill="">
            <g transform="translate(1.000000, 0.000000)" id="Color">
                <rect x="0" y="0" width="264" height="280"></rect>
            </g>
        </g>
        <g id="Accessory" transform="translate(62.000000, 85.000000)">
        </g>
    </g>
</svg>