<?xml version="1.0" encoding="UTF-8"?>
<svg width="266px" height="280px" viewBox="0 0 266 280" version="1.1" xmlns="http://www.w3.org/2000/svg" xmlns:xlink="http://www.w3.org/1999/xlink">
    <defs>
        <path d="M58,1 C115,0.274362825 115.719178,53.7019177 115,64 C114.653144,65.488448 113.327244,65.2226722 113,64 C113.46274,62.445722 109.704055,35.2480719 100,28 C98.2407597,26.7763806 92.7529656,25.6102528 85.359342,24.7391156 L89,16 L82.01872,24.3785401 C74.9866735,23.6847668 66.6576417,23.2514723 58.3126144,23.245568 C39.0082164,23.2319099 19.618222,25.4833872 16,28 C6.29594493,35.2480719 2.53726005,62.445722 3,64 C2.67275588,65.2226722 1.34685629,65.488448 1,64 C0.280821545,53.7019177 1,1.72563718 58,1 Z" id="path-1"></path>
    </defs>
    <g id="Top/Short-Hair/The-Caesar-+-Side-Part" stroke="none" stroke-width="1" fill="none" fill-rule="evenodd">
        <g id="Facial-Hair" transform="translate(49.000000, 72.000000)"></g>
        <g id="Hair" transform="translate(75.000000, 34.000000)">
            <mask id="mask-2" fill="white">
                <use xlink:href="#path-1"></use>
            </mask>
            <use id="Caesar" fill="#28354B" xlink:href="#path-1"></use>
            <g id="Hair-Color" mask="url(#mask-2)" fill="">
                <g transform="translate(-74.000000, -34.000000)" id="Color">
                    <rect x="0" y="0" width="264" height="280"></rect>
                </g>
            </g>
        </g>
        <g id="Accessory" transform="translate(62.000000, 85.000000)"></g>
    </g>
</svg>