<?xml version="1.0" encoding="utf-8"?>
<svg width="112px" height="24px" viewbox="0 0 112 24" version="1.1" xmlns:xlink="http://www.w3.org/1999/xlink" xmlns="http://www.w3.org/2000/svg">
  <g id="EyebrowOutlineAngry">
    <path d="M3.61162 8.2444C7.85163 2.47606 10.4893 2.76075 16.924 7.61634C17.1059 7.75362 17.2214 7.84113 17.5938 8.12366C22.4218 11.7862 24.7083 13.0599 28.0001 13.0599C29.1047 13.0599 30.0001 12.1644 30.0001 11.0599C30.0001 9.9553 29.1047 9.05987 28.0001 9.05987C25.9339 9.05987 24.0988 8.03767 20.0114 4.93689C19.636 4.65211 19.5191 4.56354 19.3334 4.42341C15.5739 1.58648 13.3741 0.347257 10.6381 0.0519598C6.95395 -0.345675 3.58008 1.53355 0.388642 5.87535C-0.265552 6.76535 -0.0743934 8.01717 0.815608 8.67136C1.70561 9.32556 2.95743 9.1344 3.61162 8.2444Z" transform="translate(11.999867 6.940127)" id="Eyebrow" fill="#000000" fill-opacity="0.6" fill-rule="evenodd" stroke="none" />
    <path d="M3.61162 8.2444C7.85163 2.47606 10.4893 2.76075 16.924 7.61634C17.1059 7.75362 17.2214 7.84113 17.5938 8.12366C22.4218 11.7862 24.7083 13.0599 28.0001 13.0599C29.1047 13.0599 30.0001 12.1644 30.0001 11.0599C30.0001 9.9553 29.1047 9.05987 28.0001 9.05987C25.9339 9.05987 24.0988 8.03767 20.0114 4.93689C19.636 4.65211 19.5191 4.56354 19.3334 4.42341C15.5739 1.58648 13.3741 0.347257 10.6381 0.0519598C6.95395 -0.345675 3.58008 1.53355 0.388642 5.87535C-0.265552 6.76535 -0.0743934 8.01717 0.815608 8.67136C1.70561 9.32556 2.95743 9.1344 3.61162 8.2444Z" transform="matrix(-1 0 0 1 100 6.940127)" id="Eyebrow" fill="#000000" fill-opacity="0.6" fill-rule="evenodd" stroke="none" />
  </g>
</svg>