<?xml version="1.0" encoding="utf-8"?>
<svg width="112px" height="24px" viewbox="0 0 112 24" version="1.1" xmlns:xlink="http://www.w3.org/1999/xlink" xmlns="http://www.w3.org/2000/svg">
  <g id="EyebrowNaturalAngry-Natural">
    <path d="M33.2619 4.60078C33.2632 4.59178 33.2632 4.59178 33.2619 4.60078M5.99153 0.264876C3.64946 0.70279 1.49191 2.16056 0.557675 4.47124C0.206216 5.33989 -0.202991 7.29681 0.113622 8.17983C0.233762 8.51545 0.438531 8.47336 1.36082 8.41555C3.04909 8.30949 5.33839 6.03473 7.15377 5.62829C9.68069 5.06243 12.3878 5.48734 14.9015 6.06073C19.2162 7.04501 24.8907 10.16 29.3515 8.54247C29.6837 8.42205 34.0263 5.29507 32.7738 4.64949C32.3291 4.27931 29.5423 4.4579 29.0269 4.37134C26.6331 3.9697 24.135 3.30701 21.7787 2.69906C16.6382 1.37266 11.3719 -0.746773 5.99153 0.264876" transform="matrix(0.9563048 0.2923717 -0.2923717 0.9563048 13.631344 3)" id="Eyebrows-The-Web" fill="#000000" fill-opacity="0.6" fill-rule="evenodd" stroke="none" />
    <path d="M33.3236 4.58191C33.3249 4.57292 33.3249 4.57292 33.3236 4.58191M5.99153 0.264876C3.64946 0.70279 1.49191 2.16056 0.557675 4.47124C0.206216 5.33989 -0.202991 7.29681 0.113622 8.17983C0.233762 8.51545 0.438531 8.47336 1.36082 8.41555C3.04909 8.30949 5.33839 6.03473 7.15377 5.62829C9.68069 5.06243 12.3878 5.48734 14.9015 6.06073C19.2162 7.04501 24.8907 10.16 29.3515 8.54247C29.6837 8.42205 34.0263 5.29507 32.7738 4.64949C32.3291 4.27931 29.5423 4.4579 29.0269 4.37134C26.6331 3.9697 24.135 3.30701 21.7787 2.69906C16.6382 1.37266 11.3719 -0.746773 5.99153 0.264876" transform="matrix(-0.9563048 0.29237172 0.29237172 0.9563048 98.55806 3)" id="Eyebrows-The-Web" fill="#000000" fill-opacity="0.6" fill-rule="evenodd" stroke="none" />
  </g>
</svg>