<?xml version="1.0" encoding="utf-8"?>
<svg width="112px" height="24px" viewbox="0 0 112 24" version="1.1" xmlns:xlink="http://www.w3.org/1999/xlink" xmlns="http://www.w3.org/2000/svg">
  <g id="EyebrowNaturalDefault-Natural">
    <path d="M14.0391 0.210124C8.27756 0.983462 -0.707069 6.00525 0.04426 11.8178C0.0689481 12.0081 0.35673 12.0673 0.480908 11.9085C2.9674 8.72034 22.1928 4.03655 29.1943 5.01472C29.8351 5.10445 30.2581 4.44303 29.8211 4.03021C26.0766 0.494854 19.2004 -0.487752 14.0391 0.210124" transform="matrix(0.9961947 0.08715574 -0.08715574 0.9961947 12.580013 4.7154956)" id="Eyebrow" fill="#000000" fill-opacity="0.6" fill-rule="evenodd" stroke="none" />
    <path d="M14.0391 0.210124C8.27756 0.983462 -0.707069 6.00525 0.04426 11.8178C0.0689481 12.0081 0.35673 12.0673 0.480908 11.9085C2.9674 8.72034 22.1928 4.03655 29.1943 5.01472C29.8351 5.10445 30.2581 4.44303 29.8211 4.03021C26.0766 0.494854 19.2004 -0.487752 14.0391 0.210124" transform="matrix(-0.9961947 0.08715574 0.08715574 0.9961947 100.41999 4.715496)" id="Eyebrow" fill="#000000" fill-opacity="0.6" fill-rule="evenodd" stroke="none" />
  </g>
</svg>