<?xml version="1.0" encoding="utf-8"?>
<svg width="112px" height="24px" viewbox="0 0 112 24" version="1.1" xmlns:xlink="http://www.w3.org/1999/xlink" xmlns="http://www.w3.org/2000/svg">
  <g id="EyebrowNaturalFlat-Natural">
    <path d="M30.5686 2.7023C25.5866 3.23845 20.6553 3.1339 15.6562 3.10106C11.8231 3.07626 7.91974 2.68923 4.32461 4.50913C3.63615 4.85729 -0.123239 6.94493 0.00311195 8.01087C0.103899 8.86335 4.01285 10.0637 4.71659 10.2838C8.42808 11.4453 11.9242 10.9282 15.6871 10.5703C20.3024 10.1317 24.914 10.1746 29.5322 9.87399C32.6422 9.67193 37.4224 8.97695 38.8293 5.14849C39.253 3.99543 38.8152 1.73354 38.3075 0.506422C38.105 0.0175187 37.5635 -0.150364 37.1688 0.149211C35.7561 1.22218 32.9851 2.4426 30.5686 2.7023" transform="matrix(0.99939084 0.034899496 -0.034899496 0.99939084 8.203826 7.32281)" id="Fill-10" fill="#000000" fill-opacity="0.6" fill-rule="evenodd" stroke="none" />
    <path d="M30.5686 2.7023C25.5866 3.23845 20.6553 3.1339 15.6562 3.10106C11.8231 3.07626 7.91974 2.68923 4.32461 4.50913C3.63615 4.85729 -0.123239 6.94493 0.00311195 8.01087C0.103899 8.86335 4.01285 10.0637 4.71659 10.2838C8.42808 11.4453 11.9242 10.9282 15.6871 10.5703C20.3024 10.1317 24.914 10.1746 29.5322 9.87399C32.6422 9.67193 37.4224 8.97695 38.8293 5.14849C39.253 3.99543 38.8152 1.73354 38.3075 0.506422C38.105 0.0175187 37.5635 -0.150364 37.1688 0.149211C35.7561 1.22218 32.9851 2.4426 30.5686 2.7023" transform="matrix(-0.99939084 0.034899496 0.034899496 0.99939084 103.79617 7.3228097)" id="Fill-10" fill="#000000" fill-opacity="0.6" fill-rule="evenodd" stroke="none" />
  </g>
</svg>