<?xml version="1.0" encoding="utf-8"?>
<svg width="112px" height="24px" viewbox="0 0 112 24" version="1.1" xmlns:xlink="http://www.w3.org/1999/xlink" xmlns="http://www.w3.org/2000/svg">
  <g id="EyebrowNaturalFrown-Natural">
    <path d="M24.3693 6.87619C22.3992 9.78053 18.8236 11.5166 15.6316 12.5602C11.689 13.8491 -2.9192 15.939 0.51962 23.9079C0.572332 24.0295 0.739035 24.0313 0.792076 23.9096C1.94483 21.2646 18.2566 18.7865 19.7649 18.2065C24.2102 16.4975 28.158 12.7154 28.9269 7.66283C29.2794 5.34641 28.2901 1.6143 27.3792 0.113309C27.2698 -0.0669067 27.0052 -0.0233946 26.9499 0.181832C26.5898 1.51323 25.5385 5.15317 24.3693 6.87619" transform="translate(12 0)" id="Fill-5" fill="#000000" fill-opacity="0.6" fill-rule="evenodd" stroke="none" />
    <path d="M24.3693 6.87619C22.3992 9.78053 18.8236 11.5166 15.6316 12.5602C11.689 13.8491 -2.9192 15.939 0.51962 23.9079C0.572332 24.0295 0.739035 24.0313 0.792076 23.9096C1.94483 21.2646 18.2566 18.7865 19.7649 18.2065C24.2102 16.4975 28.158 12.7154 28.9269 7.66283C29.2794 5.34641 28.2901 1.6143 27.3792 0.113309C27.2698 -0.0669067 27.0052 -0.0233946 26.9499 0.181832C26.5898 1.51323 25.5385 5.15317 24.3693 6.87619" transform="matrix(-1 0 0 1 100 0)" id="Fill-5" fill="#000000" fill-opacity="0.6" fill-rule="evenodd" stroke="none" />
  </g>
</svg>