<?xml version="1.0" encoding="utf-8"?>
<svg width="112px" height="24px" viewbox="0 0 112 24" version="1.1" xmlns:xlink="http://www.w3.org/1999/xlink" xmlns="http://www.w3.org/2000/svg">
  <g id="EyebrowOutlineRaised-Excited">
    <g id="I-Browse" transform="translate(12 0)">
      <path d="M3.97608 17.125C5.47128 7.60188 18.0588 1.1058 27.1638 5.29816C28.1671 5.76014 29.355 5.3213 29.817 4.31798C30.2789 3.31466 29.8401 2.1268 28.8368 1.66482C17.3491 -3.62465 1.93605 4.3296 0.0244936 16.5046C-0.146832 17.5958 0.598875 18.6193 1.69008 18.7906C2.78128 18.9619 3.80476 18.2162 3.97608 17.125Z" transform="translate(-0.00028915092 0.0028793353)" id="Eyebrow" fill="#000000" fill-opacity="0.6" fill-rule="evenodd" stroke="none" />
      <path d="M3.97608 17.125C5.47128 7.60188 18.0588 1.1058 27.1638 5.29816C28.1671 5.76014 29.355 5.3213 29.817 4.31798C30.2789 3.31466 29.8401 2.1268 28.8368 1.66482C17.3491 -3.62465 1.93605 4.3296 0.0244936 16.5046C-0.146832 17.5958 0.598875 18.6193 1.69008 18.7906C2.78128 18.9619 3.80476 18.2162 3.97608 17.125Z" transform="matrix(-1 0 0 1 88.00048 0.0028793353)" id="Eyebrow" fill="#000000" fill-opacity="0.6" fill-rule="evenodd" stroke="none" />
    </g>
  </g>
</svg>