<?xml version="1.0" encoding="utf-8"?>
<svg width="112px" height="24px" viewbox="0 0 112 24" version="1.1" xmlns:xlink="http://www.w3.org/1999/xlink" xmlns="http://www.w3.org/2000/svg">
  <g id="EyebrowNaturalSad-Concerned-Natural">
    <path d="M10.7664 1.57845L11.6773 1.17582C16.9191 -0.905266 24.8645 -0.032873 29.7227 2.29912C30.2898 2.57149 29.9022 3.45194 29.3211 3.40711C14.4022 2.25602 4.35829 11.5526 0.946087 17.8471C0.844921 18.0337 0.539152 18.0549 0.463534 17.8808C-1.84372 12.5621 4.91345 3.89615 10.7664 1.57845Z" transform="matrix(-1 0 0 -1 42 22)" id="Eyebrow" fill="#000000" fill-opacity="0.6" fill-rule="evenodd" stroke="none" />
    <path d="M10.7664 1.57845L11.6773 1.17582C16.9191 -0.905266 24.8645 -0.032873 29.7227 2.29912C30.2898 2.57149 29.9022 3.45194 29.3211 3.40711C14.4022 2.25602 4.35829 11.5526 0.946087 17.8471C0.844921 18.0337 0.539152 18.0549 0.463534 17.8808C-1.84372 12.5621 4.91345 3.89615 10.7664 1.57845Z" transform="matrix(1 0 0 -1 70 22)" id="Eyebrow" fill="#000000" fill-opacity="0.6" fill-rule="evenodd" stroke="none" />
  </g>
</svg>