<?xml version="1.0" encoding="utf-8"?>
<svg width="112px" height="24px" viewbox="0 0 112 24" version="1.1" xmlns:xlink="http://www.w3.org/1999/xlink" xmlns="http://www.w3.org/2000/svg">
  <g id="EyebrowOutlineSad-Concerned">
    <path d="M3.9726 15.4089C5.45236 7.02037 18.0623 1.2283 27.2106 4.97748C28.2255 5.39337 29.4017 4.946 29.8378 3.97825C30.2739 3.01049 29.8048 1.88882 28.79 1.47292C17.3457 -3.21716 1.95503 3.85221 0.0280273 14.7761C-0.15521 15.8148 0.57927 16.7985 1.66854 16.9733C2.7578 17.148 3.78937 16.4476 3.9726 15.4089Z" transform="matrix(-1 0 0 -1 42.000828 21)" id="Eyebrow" fill="#000000" fill-opacity="0.6" fill-rule="evenodd" stroke="none" />
    <path d="M3.9726 15.4089C5.45236 7.02037 18.0623 1.2283 27.2106 4.97748C28.2255 5.39337 29.4017 4.946 29.8378 3.97825C30.2739 3.01049 29.8048 1.88882 28.79 1.47292C17.3457 -3.21716 1.95503 3.85221 0.0280273 14.7761C-0.15521 15.8148 0.57927 16.7985 1.66854 16.9733C2.7578 17.148 3.78937 16.4476 3.9726 15.4089Z" transform="matrix(1 0 0 -1 70 21)" id="Eyebrow" fill="#000000" fill-opacity="0.6" fill-rule="evenodd" stroke="none" />
  </g>
</svg>