<?xml version="1.0" encoding="utf-8"?>
<svg width="112px" height="24px" viewbox="0 0 112 24" version="1.1" xmlns:xlink="http://www.w3.org/1999/xlink" xmlns="http://www.w3.org/2000/svg">
  <g id="EyebrowNaturalUnibrow-Natural">
    <path d="M39.2813 1.14993C40.7243 1.76008 48.2417 7.8939 46.8226 10.5722C46.5633 11.062 45.9102 11.1443 45.5245 10.7511C44.9975 10.2148 43.9878 9.58423 43.8604 9.50771C38.8564 6.49675 32.6361 7.18954 27.1715 8.01532C25.4707 8.27232 23.7767 8.62098 22.0839 8.9694C17.6495 9.88209 13.2231 10.7931 8.70309 10.0505C7.11312 9.78949 4.31201 9.0587 2.45966 7.89245C2.216 8.38167 1.77283 8.71649 1.07502 8.65475C-1.15483 8.45745 0.592288 5 1.76338 5C1.989 5 2.1849 5.14298 2.33821 5.37243C3.62789 5.20668 4.91883 4.61716 6.24097 4.29082C9.928 3.38035 13.6888 2.98719 17.4284 2.38928C18.8731 2.15833 20.4117 1.83955 22.0022 1.51002C27.7451 0.320119 34.1642 -1.00986 39.2813 1.14993Z" transform="matrix(0.99939084 -0.034899496 0.034899496 0.99939084 56.82237 7.8234887)" id="Kahlo" fill="#000000" fill-opacity="0.6" fill-rule="evenodd" stroke="none" />
    <path d="M7.71871 1.14993C6.27568 1.76008 -1.24169 7.8939 0.177395 10.5722C0.436741 11.062 1.08976 11.1443 1.47545 10.7511C2.00246 10.2148 3.01224 9.58423 3.13959 9.50771C8.14363 6.49675 14.3639 7.18954 19.8285 8.01532C21.5293 8.27232 23.2233 8.62098 24.9161 8.9694C29.3505 9.88209 33.7769 10.7931 38.2969 10.0505C40.3271 9.71721 44.332 8.61799 45.8149 6.82427C46.2675 6.27636 45.8326 5.4414 45.1313 5.41283C43.685 5.35365 42.2416 4.65677 40.759 4.29082C37.072 3.38035 33.3112 2.98719 29.5716 2.38928C28.1269 2.15833 26.5883 1.83955 24.9978 1.51002C19.2549 0.320119 12.8358 -1.00986 7.71871 1.14993ZM47.6223 8.65275C49.8522 8.40157 48.1051 4 46.934 4C45.7629 4 45.3925 8.90392 47.6223 8.65275Z" transform="matrix(0.99939084 0.034899496 -0.034899496 0.99939084 8.2067795 6.1535935)" id="Frida" fill="#000000" fill-opacity="0.6" fill-rule="evenodd" stroke="none" />
  </g>
</svg>