<?xml version="1.0" encoding="utf-8"?>
<svg width="112px" height="24px" viewbox="0 0 112 24" version="1.1" xmlns:xlink="http://www.w3.org/1999/xlink" xmlns="http://www.w3.org/2000/svg">
  <g id="EyebrowOutlineUp-Down">
    <path d="M3.6304 11.5901C8.12643 5.26367 17.6421 2.0816 27.3863 5.22386C28.4376 5.56287 29.5646 4.98547 29.9036 3.93421C30.2426 2.88295 29.6652 1.75591 28.614 1.41691C17.2055 -2.26204 5.87477 1.52698 0.369914 9.27292C-0.26995 10.1733 -0.058777 11.4219 0.841583 12.0617C1.74194 12.7016 2.99054 12.4904 3.6304 11.5901Z" transform="translate(11.961036 2.571899)" id="Eyebrow" fill="#000000" fill-opacity="0.6" fill-rule="evenodd" stroke="none" />
    <path d="M3.6304 11.0803C7.54531 5.57163 18.2781 2.4826 27.5232 4.75294C28.5959 5.01637 29.679 4.36032 29.9425 3.28763C30.2059 2.21493 29.5498 1.13179 28.4771 0.86836C17.7405 -1.76825 5.31226 1.80876 0.369914 8.76319C-0.26995 9.66355 -0.058777 10.9121 0.841583 11.552C1.74194 12.1919 2.99054 11.9807 3.6304 11.0803Z" transform="matrix(-1 0 0 1 100.00786 10.077459)" id="Eyebrow" fill="#000000" fill-opacity="0.6" fill-rule="evenodd" stroke="none" />
  </g>
</svg>