<?xml version="1.0" encoding="utf-8"?>
<svg width="112px" height="24px" viewbox="0 0 112 24" version="1.1" xmlns:xlink="http://www.w3.org/1999/xlink" xmlns="http://www.w3.org/2000/svg">
  <g id="EyebrowNaturalUp-Down-Natural">
    <path d="M10.7664 1.57845L11.6773 1.17582C16.9191 -0.905266 24.8645 -0.032873 29.7227 2.29912C30.2898 2.57149 29.9022 3.45194 29.3211 3.40711C14.4022 2.25602 4.35829 11.5526 0.946087 17.8471C0.844921 18.0337 0.539152 18.0549 0.463534 17.8808C-1.84372 12.5621 4.91345 3.89615 10.7664 1.57845Z" transform="translate(12 0)" id="Eye-Browse-Reddit" fill="#000000" fill-opacity="0.6" fill-rule="evenodd" stroke="none" />
    <path d="M15.5352 0.0246305C21.3422 0.292875 30.7303 4.51249 30.4884 10.3684C30.4804 10.5601 30.1989 10.6442 30.0613 10.4968C27.3064 7.5375 7.746 4.54714 0.856421 6.1318C0.225895 6.27704 -0.253155 5.65501 0.146218 5.20567C3.56833 1.35741 10.3327 -0.220754 15.5352 0.0246305Z" transform="matrix(0.9961947 0.08715574 -0.08715574 0.9961947 71.518715 10.691294)" id="Eyebrow" fill="#000000" fill-opacity="0.6" fill-rule="evenodd" stroke="none" />
  </g>
</svg>