<?xml version="1.0" encoding="UTF-8" standalone="no"?>
<svg
   xmlns:dc="http://purl.org/dc/elements/1.1/"
   xmlns:cc="http://creativecommons.org/ns#"
   xmlns:rdf="http://www.w3.org/1999/02/22-rdf-syntax-ns#"
   xmlns:svg="http://www.w3.org/2000/svg"
   xmlns="http://www.w3.org/2000/svg"
   xmlns:xlink="http://www.w3.org/1999/xlink"
   xmlns:sodipodi="http://sodipodi.sourceforge.net/DTD/sodipodi-0.dtd"
   xmlns:inkscape="http://www.inkscape.org/namespaces/inkscape"
   width="264px"
   height="110px"
   viewBox="0 0 264 110"
   version="1.1"
   id="svg133"
   sodipodi:docname="suit.svg"
   inkscape:version="0.92.4 (5da689c313, 2019-01-14)">
  <metadata
     id="metadata137">
    <rdf:RDF>
      <cc:Work
         rdf:about="">
        <dc:format>image/svg+xml</dc:format>
        <dc:type
           rdf:resource="http://purl.org/dc/dcmitype/StillImage" />
        <dc:title></dc:title>
      </cc:Work>
    </rdf:RDF>
  </metadata>
  <sodipodi:namedview
     pagecolor="#ffffff"
     bordercolor="#666666"
     borderopacity="1"
     objecttolerance="10"
     gridtolerance="10"
     guidetolerance="10"
     inkscape:pageopacity="0"
     inkscape:pageshadow="2"
     inkscape:window-width="1366"
     inkscape:window-height="705"
     id="namedview135"
     showgrid="false"
     inkscape:zoom="2.8112964"
     inkscape:cx="133.76617"
     inkscape:cy="47.085734"
     inkscape:window-x="-8"
     inkscape:window-y="-8"
     inkscape:window-maximized="1"
     inkscape:current-layer="svg133" />
  <defs
     id="defs123">
    <path
       d="M160,29.0517235 C199.764502,29.0517235 232,61.2872215 232,101.051724 L232,110 L32,110 L32,101.051724 C32,61.2872215 64.235498,29.0517235 104,29.0517235 L105.192363,29.0520252 C105.065349,30.0355191 105,31.0365551 105,32.0517235 C105,45.8588423 117.088312,57.0517235 132,57.0517235 C146.911688,57.0517235 159,45.8588423 159,32.0517235 C159,31.0365551 158.934651,30.0355191 158.807637,29.0520252 L160,29.0517235 Z"
       id="path-1" />
  </defs>
  <g
     id="g632">
    <g
       fill="none"
       fill-rule="evenodd"
       stroke="none"
       stroke-width="1"
       id="Clothing/Collar-+-Sweater">
      <mask
         fill="white"
         id="mask-2">
        <use
           id="use125"
           xlink:href="#path-1" />
      </mask>
      <use
         fill="#E6E6E6"
         xlink:href="#path-1"
         id="Clothes" />
      <g
         fill=""
         mask="url(#mask-2)"
         id="Fabric-Color">
        <rect
           height="110"
           width="264"
           y="0"
           x="0"
           id="ðŸ–Color" />
      </g>
      <path
         fill="#F2F2F2"
         id="Collar"
         d="M118.07795,50.9956082 L118,51.0567821 L119,54.207887 L114.421,53.8754994 L108.308702,58.6917545 C101.361717,54.0802103 97,47.4262523 97,40.027915 C97,32.7399202 101.232581,26.1742662 107.999601,21.5717708 L108,36.8768102 C108,42.7004148 111.977587,47.8531513 118.07795,50.9956082 Z M166,40.027915 C166,47.2334229 161.862687,53.7328485 155.229194,58.3270307 L149.58,53.8754994 L145,54.207887 L146,51.0567821 L146.015,51.0664994 L145.923049,50.9950934 C152.022847,47.8525885 156,42.7000968 156,36.8768102 L156.000973,22.2802074 C162.182048,26.8358435 166,33.1060895 166,40.027915 Z" />
    </g>
    <g
       transform="translate(32,28)"
       id="Blazer">
      <path
         style="fill:#1a1a1a"
         id="Saco"
         d="m 64,40.5 c 0,15.209226 1.960869,29.420921 5.36201,41.501182 L 0,82 V 73.051723 C 0,34.364668 30.512279,2.8041367 68.784735,1.1222316 65.740034,12.730762 64,26.172787 64,40.5 Z M 200,73.051723 V 82 l -68.36201,0.0012 C 135.03913,69.920921 137,55.709226 137,40.5 137,26.194165 135.26515,12.770878 132.22869,1.1737534 170.02509,3.3629945 200,34.706851 200,73.051723 Z"
         inkscape:connector-curvature="0" />
      <path
         id="Pocket-hanky"
         d="m 149,58 9.55585,-7.16689 c 1.44305,-1.082283 3.43193,-1.064837 4.85577,0.04259 L 170,56 v 0 z"
         inkscape:connector-curvature="0"
         style="fill:#e6e6e6" />
      <path
         style="fill:#000000"
         id="Wing"
         d="m 69,0 c -4,19.333333 -2.333333,46.666667 5,82 H 58 L 44,46 50,37 44,31 63,1 c 2.027659,-0.63076136 4.027659,-0.9640947 6,-1 z"
         inkscape:connector-curvature="0" />
      <path
         style="fill:#000000"
         transform="matrix(-1,0,0,1,282,0)"
         id="path58"
         d="m 151,0 c -4,19.333333 -2.33333,46.666667 5,82 h -16 l -14,-36 6,-9 -6,-6 19,-30 c 2.02766,-0.63076136 4.02766,-0.9640947 6,-1 z"
         inkscape:connector-curvature="0" />
    </g>
  </g>
  <g
     id="g87"
     transform="matrix(1,0,0,0.85042317,-4.173355,11.126767)">
    <path
       inkscape:transform-center-y="2.5805481"
       d="m 136.17336,67.829467 -4.46965,-7.741644 -4.46964,-7.741644 8.93929,0 8.93928,-10e-7 -4.46964,7.741645 z"
       inkscape:randomized="0"
       inkscape:rounded="0"
       inkscape:flatsided="false"
       sodipodi:arg2="2.6179939"
       sodipodi:arg1="1.5707963"
       sodipodi:r2="5.1610961"
       sodipodi:r1="10.322192"
       sodipodi:cy="57.507275"
       sodipodi:cx="136.17336"
       sodipodi:sides="3"
       id="path74"
       style="opacity:1;fill:#000000;fill-opacity:1;stroke:none;stroke-width:4.92700005;stroke-miterlimit:4;stroke-dasharray:none;stroke-dashoffset:0;stroke-opacity:1"
       sodipodi:type="star" />
    <path
       inkscape:connector-curvature="0"
       id="path78"
       d="m 131.92044,58.317527 -3.7793,57.947453 h 8.03125 8.0332 L 140.4263,58.317527 Z"
       style="opacity:1;fill:#000000;fill-opacity:1;stroke:none;stroke-width:11.38924885;stroke-miterlimit:4;stroke-dasharray:none;stroke-dashoffset:0;stroke-opacity:1" />
  </g>
</svg>
